G04 #@! TF.GenerationSoftware,KiCad,Pcbnew,8.0.6-1.fc40*
G04 #@! TF.CreationDate,2024-11-25T13:37:07-05:00*
G04 #@! TF.ProjectId,three_half_bridges,74687265-655f-4686-916c-665f62726964,rev?*
G04 #@! TF.SameCoordinates,Original*
G04 #@! TF.FileFunction,Soldermask,Top*
G04 #@! TF.FilePolarity,Negative*
%FSLAX46Y46*%
G04 Gerber Fmt 4.6, Leading zero omitted, Abs format (unit mm)*
G04 Created by KiCad (PCBNEW 8.0.6-1.fc40) date 2024-11-25 13:37:07*
%MOMM*%
%LPD*%
G01*
G04 APERTURE LIST*
G04 Aperture macros list*
%AMRoundRect*
0 Rectangle with rounded corners*
0 $1 Rounding radius*
0 $2 $3 $4 $5 $6 $7 $8 $9 X,Y pos of 4 corners*
0 Add a 4 corners polygon primitive as box body*
4,1,4,$2,$3,$4,$5,$6,$7,$8,$9,$2,$3,0*
0 Add four circle primitives for the rounded corners*
1,1,$1+$1,$2,$3*
1,1,$1+$1,$4,$5*
1,1,$1+$1,$6,$7*
1,1,$1+$1,$8,$9*
0 Add four rect primitives between the rounded corners*
20,1,$1+$1,$2,$3,$4,$5,0*
20,1,$1+$1,$4,$5,$6,$7,0*
20,1,$1+$1,$6,$7,$8,$9,0*
20,1,$1+$1,$8,$9,$2,$3,0*%
%AMFreePoly0*
4,1,21,3.898562,0.902562,3.913500,0.866500,3.913500,-0.866500,3.898562,-0.902562,3.862500,-0.917500,0.737500,-0.917500,0.701438,-0.902562,0.686500,-0.866500,0.686500,-0.501000,-0.737500,-0.501000,-0.773562,-0.486062,-0.788500,-0.450000,-0.788500,0.450000,-0.773562,0.486062,-0.737500,0.501000,0.686500,0.501000,0.686500,0.866500,0.701438,0.902562,0.737500,0.917500,3.862500,0.917500,
3.898562,0.902562,3.898562,0.902562,$1*%
G04 Aperture macros list end*
%ADD10C,0.100000*%
%ADD11RoundRect,0.272666X-0.340834X-0.653334X0.340834X-0.653334X0.340834X0.653334X-0.340834X0.653334X0*%
%ADD12RoundRect,0.225500X-0.225500X-0.300500X0.225500X-0.300500X0.225500X0.300500X-0.225500X0.300500X0*%
%ADD13RoundRect,0.138000X0.138000X0.263000X-0.138000X0.263000X-0.138000X-0.263000X0.138000X-0.263000X0*%
%ADD14RoundRect,0.272666X0.340834X0.653334X-0.340834X0.653334X-0.340834X-0.653334X0.340834X-0.653334X0*%
%ADD15RoundRect,0.250500X0.275500X-0.250500X0.275500X0.250500X-0.275500X0.250500X-0.275500X-0.250500X0*%
%ADD16RoundRect,0.250500X-0.250500X-0.400500X0.250500X-0.400500X0.250500X0.400500X-0.250500X0.400500X0*%
%ADD17RoundRect,0.051000X0.890000X-0.792500X0.890000X0.792500X-0.890000X0.792500X-0.890000X-0.792500X0*%
%ADD18RoundRect,0.275500X-0.500500X0.275500X-0.500500X-0.275500X0.500500X-0.275500X0.500500X0.275500X0*%
%ADD19RoundRect,0.250500X-0.250500X-0.275500X0.250500X-0.275500X0.250500X0.275500X-0.250500X0.275500X0*%
%ADD20C,0.902000*%
%ADD21C,6.502000*%
%ADD22O,5.102000X3.302000*%
%ADD23RoundRect,0.225500X0.225500X0.300500X-0.225500X0.300500X-0.225500X-0.300500X0.225500X-0.300500X0*%
%ADD24RoundRect,0.250500X0.250500X0.275500X-0.250500X0.275500X-0.250500X-0.275500X0.250500X-0.275500X0*%
%ADD25RoundRect,0.268214X1.482786X-0.482786X1.482786X0.482786X-1.482786X0.482786X-1.482786X-0.482786X0*%
%ADD26RoundRect,0.250500X0.400500X-0.250500X0.400500X0.250500X-0.400500X0.250500X-0.400500X-0.250500X0*%
%ADD27C,1.002000*%
%ADD28C,11.102000*%
%ADD29RoundRect,0.225500X-0.300500X0.225500X-0.300500X-0.225500X0.300500X-0.225500X0.300500X0.225500X0*%
%ADD30RoundRect,0.250500X-0.275500X0.250500X-0.275500X-0.250500X0.275500X-0.250500X0.275500X0.250500X0*%
%ADD31RoundRect,0.175500X0.750500X0.175500X-0.750500X0.175500X-0.750500X-0.175500X0.750500X-0.175500X0*%
%ADD32RoundRect,0.225500X0.300500X-0.225500X0.300500X0.225500X-0.300500X0.225500X-0.300500X-0.225500X0*%
%ADD33RoundRect,0.250500X-0.400500X0.250500X-0.400500X-0.250500X0.400500X-0.250500X0.400500X0.250500X0*%
%ADD34RoundRect,0.250500X-0.450500X-0.250500X0.450500X-0.250500X0.450500X0.250500X-0.450500X0.250500X0*%
%ADD35FreePoly0,0.000000*%
%ADD36RoundRect,0.175500X-0.750500X-0.175500X0.750500X-0.175500X0.750500X0.175500X-0.750500X0.175500X0*%
%ADD37RoundRect,0.268214X-0.832786X0.482786X-0.832786X-0.482786X0.832786X-0.482786X0.832786X0.482786X0*%
%ADD38RoundRect,0.175500X0.850500X0.175500X-0.850500X0.175500X-0.850500X-0.175500X0.850500X-0.175500X0*%
%ADD39RoundRect,0.175500X-0.850500X-0.175500X0.850500X-0.175500X0.850500X0.175500X-0.850500X0.175500X0*%
%ADD40RoundRect,0.269250X-0.269250X-0.481750X0.269250X-0.481750X0.269250X0.481750X-0.269250X0.481750X0*%
%ADD41RoundRect,0.250500X0.250500X-0.450500X0.250500X0.450500X-0.250500X0.450500X-0.250500X-0.450500X0*%
%ADD42FreePoly0,90.000000*%
%ADD43C,1.302000*%
%ADD44RoundRect,0.265000X0.786000X-0.636000X0.786000X0.636000X-0.786000X0.636000X-0.786000X-0.636000X0*%
%ADD45O,2.102000X1.802000*%
%ADD46O,3.302000X5.102000*%
%ADD47RoundRect,0.051000X1.250000X2.250000X-1.250000X2.250000X-1.250000X-2.250000X1.250000X-2.250000X0*%
%ADD48O,2.602000X4.602000*%
%ADD49RoundRect,0.051000X-1.250000X-2.250000X1.250000X-2.250000X1.250000X2.250000X-1.250000X2.250000X0*%
%ADD50RoundRect,0.225500X-0.475500X0.225500X-0.475500X-0.225500X0.475500X-0.225500X0.475500X0.225500X0*%
%ADD51O,1.402000X0.902000*%
G04 APERTURE END LIST*
D10*
X117750000Y-47500000D02*
X120500000Y-47500000D01*
X120500000Y-49500000D01*
X117750000Y-49500000D01*
X117750000Y-47500000D01*
G36*
X117750000Y-47500000D02*
G01*
X120500000Y-47500000D01*
X120500000Y-49500000D01*
X117750000Y-49500000D01*
X117750000Y-47500000D01*
G37*
X152750000Y-52000000D02*
X154500000Y-54250000D01*
X154500000Y-72000000D01*
X150500000Y-72000000D01*
X150500000Y-50500000D01*
X152750000Y-50500000D01*
X152750000Y-52000000D01*
G36*
X152750000Y-52000000D02*
G01*
X154500000Y-54250000D01*
X154500000Y-72000000D01*
X150500000Y-72000000D01*
X150500000Y-50500000D01*
X152750000Y-50500000D01*
X152750000Y-52000000D01*
G37*
X134125000Y-50500000D02*
X136875000Y-50500000D01*
X136875000Y-72000000D01*
X134125000Y-72000000D01*
X134125000Y-50500000D01*
G36*
X134125000Y-50500000D02*
G01*
X136875000Y-50500000D01*
X136875000Y-72000000D01*
X134125000Y-72000000D01*
X134125000Y-50500000D01*
G37*
X134000000Y-47500000D02*
X137000000Y-47500000D01*
X137000000Y-49500000D01*
X134000000Y-49500000D01*
X134000000Y-47500000D01*
G36*
X134000000Y-47500000D02*
G01*
X137000000Y-47500000D01*
X137000000Y-49500000D01*
X134000000Y-49500000D01*
X134000000Y-47500000D01*
G37*
X150500000Y-47500000D02*
X152750000Y-47500000D01*
X152750000Y-49500000D01*
X150500000Y-49500000D01*
X150500000Y-47500000D01*
G36*
X150500000Y-47500000D02*
G01*
X152750000Y-47500000D01*
X152750000Y-49500000D01*
X150500000Y-49500000D01*
X150500000Y-47500000D01*
G37*
X117625000Y-50750000D02*
X120375000Y-50750000D01*
X120375000Y-72500000D01*
X117625000Y-72500000D01*
X117625000Y-50750000D01*
G36*
X117625000Y-50750000D02*
G01*
X120375000Y-50750000D01*
X120375000Y-72500000D01*
X117625000Y-72500000D01*
X117625000Y-50750000D01*
G37*
D11*
X139287500Y-62000000D03*
X142212500Y-62000000D03*
D12*
X131675000Y-58500000D03*
X133325000Y-58500000D03*
D13*
X150400000Y-116000000D03*
X149100000Y-116000000D03*
X149750000Y-118000000D03*
D14*
X135462500Y-97500000D03*
X132537500Y-97500000D03*
D15*
X89250000Y-67275000D03*
X89250000Y-65725000D03*
D16*
X143100000Y-59500000D03*
X146400000Y-59500000D03*
D17*
X132710000Y-127592500D03*
X135250000Y-127592500D03*
X137790000Y-127592500D03*
X137790000Y-119907500D03*
X135250000Y-119907500D03*
X132710000Y-119907500D03*
D18*
X124750000Y-57550000D03*
X124750000Y-59450000D03*
D17*
X148210000Y-127592500D03*
X150750000Y-127592500D03*
X153290000Y-127592500D03*
X153290000Y-119907500D03*
X150750000Y-119907500D03*
X148210000Y-119907500D03*
D19*
X113325000Y-120100000D03*
X114875000Y-120100000D03*
X115225000Y-60000000D03*
X116775000Y-60000000D03*
D20*
X171600000Y-124000000D03*
X172302944Y-122302944D03*
X172302944Y-125697056D03*
X174000000Y-121600000D03*
D21*
X174000000Y-124000000D03*
D20*
X174000000Y-126400000D03*
X175697056Y-122302944D03*
X175697056Y-125697056D03*
X176400000Y-124000000D03*
D22*
X126000000Y-32000000D03*
X126000000Y-39000000D03*
X135300000Y-32000000D03*
X135300000Y-39000000D03*
D23*
X140575000Y-102000000D03*
X138925000Y-102000000D03*
D19*
X131725000Y-60000000D03*
X133275000Y-60000000D03*
D24*
X143775000Y-52000000D03*
X142225000Y-52000000D03*
D13*
X121900000Y-116000000D03*
X120600000Y-116000000D03*
X121250000Y-118000000D03*
D25*
X124750000Y-86050000D03*
X124750000Y-81950000D03*
D26*
X113000000Y-103400000D03*
X113000000Y-100100000D03*
X146000000Y-103400000D03*
X146000000Y-100100000D03*
D27*
X155875000Y-110000000D03*
X157073185Y-107073185D03*
X157073185Y-112926815D03*
X160000000Y-105875000D03*
D28*
X160000000Y-110000000D03*
D27*
X160000000Y-114125000D03*
X162926815Y-107073185D03*
X162926815Y-112926815D03*
X164125000Y-110000000D03*
D23*
X124075000Y-102000000D03*
X122425000Y-102000000D03*
D29*
X127000000Y-55675000D03*
X127000000Y-57325000D03*
X89250000Y-69175000D03*
X89250000Y-70825000D03*
D15*
X147500000Y-117525000D03*
X147500000Y-115975000D03*
D11*
X122787500Y-62000000D03*
X125712500Y-62000000D03*
D30*
X98500000Y-87125000D03*
X98500000Y-88675000D03*
D29*
X89300000Y-97225000D03*
X89300000Y-98875000D03*
D27*
X95875000Y-50000000D03*
X97073185Y-47073185D03*
X97073185Y-52926815D03*
X100000000Y-45875000D03*
D28*
X100000000Y-50000000D03*
D27*
X100000000Y-54125000D03*
X102926815Y-47073185D03*
X102926815Y-52926815D03*
X104125000Y-50000000D03*
D20*
X171600000Y-36000000D03*
X172302944Y-34302944D03*
X172302944Y-37697056D03*
X174000000Y-33600000D03*
D21*
X174000000Y-36000000D03*
D20*
X174000000Y-38400000D03*
X175697056Y-34302944D03*
X175697056Y-37697056D03*
X176400000Y-36000000D03*
D31*
X132825000Y-65405000D03*
X132825000Y-64135000D03*
X132825000Y-62865000D03*
X132825000Y-61595000D03*
X127675000Y-61595000D03*
X127675000Y-62865000D03*
X127675000Y-64135000D03*
X127675000Y-65405000D03*
D16*
X126600000Y-59500000D03*
X129900000Y-59500000D03*
D15*
X139750000Y-117525000D03*
X139750000Y-115975000D03*
D32*
X98500000Y-98575000D03*
X98500000Y-96925000D03*
D24*
X111025000Y-52000000D03*
X109475000Y-52000000D03*
D33*
X117000000Y-116850000D03*
X117000000Y-120150000D03*
D19*
X148125000Y-60000000D03*
X149675000Y-60000000D03*
D29*
X89250000Y-76175000D03*
X89250000Y-77825000D03*
D24*
X124959997Y-117934997D03*
X123409997Y-117934997D03*
D22*
X142500000Y-32000000D03*
X142500000Y-39000000D03*
X151800000Y-32000000D03*
X151800000Y-39000000D03*
D34*
X100300000Y-60000000D03*
D35*
X100387500Y-61500000D03*
D34*
X100300000Y-63000000D03*
D17*
X119710000Y-127592500D03*
X122250000Y-127592500D03*
X124790000Y-127592500D03*
X124790000Y-119907500D03*
X122250000Y-119907500D03*
X119710000Y-119907500D03*
D13*
X142650000Y-116000000D03*
X141350000Y-116000000D03*
X142000000Y-118000000D03*
D36*
X141925000Y-94595000D03*
X141925000Y-95865000D03*
X141925000Y-97135000D03*
X141925000Y-98405000D03*
X147075000Y-98405000D03*
X147075000Y-97135000D03*
X147075000Y-95865000D03*
X147075000Y-94595000D03*
D24*
X138025000Y-118000000D03*
X136475000Y-118000000D03*
D37*
X146500000Y-81800000D03*
X146500000Y-86200000D03*
D22*
X109500000Y-32000000D03*
X109500000Y-39000000D03*
X118800000Y-32000000D03*
X118800000Y-39000000D03*
D38*
X118725000Y-51905000D03*
X118725000Y-50635000D03*
X118725000Y-49365000D03*
X118725000Y-48095000D03*
X113775000Y-48095000D03*
X113775000Y-49365000D03*
X113775000Y-50635000D03*
X113775000Y-51905000D03*
D27*
X95875000Y-110050000D03*
X97073185Y-107123185D03*
X97073185Y-112976815D03*
D28*
X99875000Y-110050000D03*
D27*
X100000000Y-105925000D03*
X100000000Y-114175000D03*
X102926815Y-107123185D03*
X102926815Y-112976815D03*
X104125000Y-110050000D03*
D23*
X107575000Y-102000000D03*
X105925000Y-102000000D03*
D37*
X135500000Y-73800000D03*
X135500000Y-78200000D03*
D14*
X151962500Y-97500000D03*
X149037500Y-97500000D03*
D39*
X91525000Y-80495000D03*
X91525000Y-81765000D03*
X91525000Y-83035000D03*
X91525000Y-84305000D03*
X96475000Y-84305000D03*
X96475000Y-83035000D03*
X96475000Y-81765000D03*
X96475000Y-80495000D03*
D18*
X141100000Y-57700000D03*
X141100000Y-59600000D03*
D30*
X98500000Y-93925000D03*
X98500000Y-95475000D03*
D25*
X108250000Y-86050000D03*
X108250000Y-81950000D03*
D24*
X153525000Y-118000000D03*
X151975000Y-118000000D03*
D39*
X91525000Y-66895000D03*
X91525000Y-68165000D03*
X91525000Y-69435000D03*
X91525000Y-70705000D03*
X96475000Y-70705000D03*
X96475000Y-69435000D03*
X96475000Y-68165000D03*
X96475000Y-66895000D03*
D15*
X89250000Y-87775000D03*
X89250000Y-86225000D03*
D26*
X129500000Y-103400000D03*
X129500000Y-100100000D03*
D32*
X146400000Y-57225000D03*
X146400000Y-55575000D03*
D39*
X91525000Y-73695000D03*
X91525000Y-74965000D03*
X91525000Y-76235000D03*
X91525000Y-77505000D03*
X96475000Y-77505000D03*
X96475000Y-76235000D03*
X96475000Y-74965000D03*
X96475000Y-73695000D03*
D40*
X109062500Y-102000000D03*
X110937500Y-102000000D03*
D12*
X115175000Y-58250000D03*
X116825000Y-58250000D03*
D40*
X125562500Y-102000000D03*
X127437500Y-102000000D03*
D19*
X109475000Y-100000000D03*
X111025000Y-100000000D03*
D11*
X139287500Y-64250000D03*
X142212500Y-64250000D03*
D39*
X91525000Y-60095000D03*
X91525000Y-61365000D03*
X91525000Y-62635000D03*
X91525000Y-63905000D03*
X96475000Y-63905000D03*
X96475000Y-62635000D03*
X96475000Y-61365000D03*
X96475000Y-60095000D03*
D30*
X98500000Y-66775000D03*
X98500000Y-68325000D03*
D37*
X113500000Y-81800000D03*
X113500000Y-86200000D03*
D16*
X110100000Y-59500000D03*
X113400000Y-59500000D03*
D12*
X122925000Y-100000000D03*
X124575000Y-100000000D03*
D29*
X89250000Y-62675000D03*
X89250000Y-64325000D03*
D32*
X98500000Y-91775000D03*
X98500000Y-90125000D03*
D24*
X127275000Y-50500000D03*
X125725000Y-50500000D03*
D30*
X119000000Y-115975000D03*
X119000000Y-117525000D03*
D24*
X111025000Y-49000000D03*
X109475000Y-49000000D03*
D13*
X134900000Y-116000000D03*
X133600000Y-116000000D03*
X134250000Y-118000000D03*
D34*
X100300000Y-66800000D03*
D35*
X100387500Y-68300000D03*
D34*
X100300000Y-69800000D03*
D31*
X116325000Y-65405000D03*
X116325000Y-64135000D03*
X116325000Y-62865000D03*
X116325000Y-61595000D03*
X111175000Y-61595000D03*
X111175000Y-62865000D03*
X111175000Y-64135000D03*
X111175000Y-65405000D03*
D15*
X132000000Y-117525000D03*
X132000000Y-115975000D03*
D24*
X145775000Y-118000000D03*
X144225000Y-118000000D03*
D12*
X139425000Y-100000000D03*
X141075000Y-100000000D03*
D25*
X146500000Y-78050000D03*
X146500000Y-73950000D03*
D12*
X106425000Y-100000000D03*
X108075000Y-100000000D03*
D20*
X83652944Y-124000000D03*
X84355888Y-122302944D03*
X84355888Y-125697056D03*
X86052944Y-121600000D03*
D21*
X86052944Y-124000000D03*
D20*
X86052944Y-126400000D03*
X87750000Y-122302944D03*
X87750000Y-125697056D03*
X88452944Y-124000000D03*
D14*
X118962500Y-97500000D03*
X116037500Y-97500000D03*
D38*
X151475000Y-51905000D03*
X151475000Y-50635000D03*
X151475000Y-49365000D03*
X151475000Y-48095000D03*
X146525000Y-48095000D03*
X146525000Y-49365000D03*
X146525000Y-50635000D03*
X146525000Y-51905000D03*
D15*
X89250000Y-80775000D03*
X89250000Y-79225000D03*
D14*
X118962500Y-95000000D03*
X116037500Y-95000000D03*
D30*
X98500000Y-80325000D03*
X98500000Y-81875000D03*
D11*
X122787500Y-64250000D03*
X125712500Y-64250000D03*
D18*
X108250000Y-58050000D03*
X108250000Y-59950000D03*
D31*
X149325000Y-65405000D03*
X149325000Y-64135000D03*
X149325000Y-62865000D03*
X149325000Y-61595000D03*
X144175000Y-61595000D03*
X144175000Y-62865000D03*
X144175000Y-64135000D03*
X144175000Y-65405000D03*
D32*
X98500000Y-84975000D03*
X98500000Y-83325000D03*
D30*
X98500000Y-59975000D03*
X98500000Y-61525000D03*
D15*
X89250000Y-94775000D03*
X89250000Y-93225000D03*
D24*
X143775000Y-50500000D03*
X142225000Y-50500000D03*
X111025000Y-50500000D03*
X109475000Y-50500000D03*
D38*
X134975000Y-51905000D03*
X134975000Y-50635000D03*
X134975000Y-49365000D03*
X134975000Y-48095000D03*
X130025000Y-48095000D03*
X130025000Y-49365000D03*
X130025000Y-50635000D03*
X130025000Y-51905000D03*
D15*
X89250000Y-60025000D03*
X89250000Y-58475000D03*
D37*
X152000000Y-73800000D03*
X152000000Y-78200000D03*
D25*
X141250000Y-86050000D03*
X141250000Y-81950000D03*
X130000000Y-78050000D03*
X130000000Y-73950000D03*
D29*
X89250000Y-83175000D03*
X89250000Y-84825000D03*
D19*
X125975000Y-100000000D03*
X127525000Y-100000000D03*
D14*
X151962500Y-95000000D03*
X149037500Y-95000000D03*
D29*
X110250000Y-55675000D03*
X110250000Y-57325000D03*
D19*
X142475000Y-100000000D03*
X144025000Y-100000000D03*
D37*
X130000000Y-81800000D03*
X130000000Y-86200000D03*
D34*
X100300000Y-73600000D03*
D35*
X100387500Y-75100000D03*
D34*
X100300000Y-76600000D03*
D15*
X89250000Y-73775000D03*
X89250000Y-72225000D03*
D29*
X143150000Y-55825000D03*
X143150000Y-57475000D03*
D41*
X111050000Y-118050000D03*
D42*
X112550000Y-117962500D03*
D41*
X114050000Y-118050000D03*
D36*
X108675000Y-94595000D03*
X108675000Y-95865000D03*
X108675000Y-97135000D03*
X108675000Y-98405000D03*
X113825000Y-98405000D03*
X113825000Y-97135000D03*
X113825000Y-95865000D03*
X113825000Y-94595000D03*
D39*
X91525000Y-87295000D03*
X91525000Y-88565000D03*
X91525000Y-89835000D03*
X91525000Y-91105000D03*
X96475000Y-91105000D03*
X96475000Y-89835000D03*
X96475000Y-88565000D03*
X96475000Y-87295000D03*
D24*
X127275000Y-52000000D03*
X125725000Y-52000000D03*
D37*
X119000000Y-73800000D03*
X119000000Y-78200000D03*
D12*
X148075000Y-58500000D03*
X149725000Y-58500000D03*
D43*
X102000000Y-127850000D03*
D44*
X100000000Y-126250000D03*
D45*
X100000000Y-123750000D03*
D24*
X143775000Y-49000000D03*
X142225000Y-49000000D03*
D32*
X129950000Y-57275000D03*
X129950000Y-55625000D03*
D11*
X106287500Y-64250000D03*
X109212500Y-64250000D03*
D27*
X155875000Y-50000000D03*
X157073185Y-47073185D03*
X157073185Y-52926815D03*
X160000000Y-45875000D03*
D28*
X160000000Y-50000000D03*
D27*
X160000000Y-54125000D03*
X162926815Y-47073185D03*
X162926815Y-52926815D03*
X164125000Y-50000000D03*
D17*
X140460000Y-127592500D03*
X143000000Y-127592500D03*
X145540000Y-127592500D03*
X145540000Y-119907500D03*
X143000000Y-119907500D03*
X140460000Y-119907500D03*
D23*
X113575000Y-57250000D03*
X111925000Y-57250000D03*
D30*
X98500000Y-73575000D03*
X98500000Y-75125000D03*
D20*
X83600000Y-36000000D03*
X84302944Y-34302944D03*
X84302944Y-37697056D03*
X86000000Y-33600000D03*
D21*
X86000000Y-36000000D03*
D20*
X86000000Y-38400000D03*
X87697056Y-34302944D03*
X87697056Y-37697056D03*
X88400000Y-36000000D03*
D11*
X106287500Y-62000000D03*
X109212500Y-62000000D03*
D25*
X113500000Y-78050000D03*
X113500000Y-73950000D03*
D29*
X89250000Y-89925000D03*
X89250000Y-91575000D03*
D40*
X142062500Y-102000000D03*
X143937500Y-102000000D03*
D39*
X91525000Y-94095000D03*
X91525000Y-95365000D03*
X91525000Y-96635000D03*
X91525000Y-97905000D03*
X96475000Y-97905000D03*
X96475000Y-96635000D03*
X96475000Y-95365000D03*
X96475000Y-94095000D03*
D36*
X125175000Y-94595000D03*
X125175000Y-95865000D03*
X125175000Y-97135000D03*
X125175000Y-98405000D03*
X130325000Y-98405000D03*
X130325000Y-97135000D03*
X130325000Y-95865000D03*
X130325000Y-94595000D03*
D24*
X127275000Y-49000000D03*
X125725000Y-49000000D03*
D14*
X135462500Y-95000000D03*
X132537500Y-95000000D03*
D46*
X171250000Y-93250000D03*
X178250000Y-93250000D03*
X171250000Y-83950000D03*
X178250000Y-83950000D03*
D19*
X110125000Y-120100000D03*
X111675000Y-120100000D03*
D47*
X135500000Y-90000000D03*
D48*
X130050000Y-90000000D03*
X124600000Y-90000000D03*
D49*
X124500000Y-70000000D03*
D48*
X129950000Y-70000000D03*
X135400000Y-70000000D03*
D49*
X108000000Y-70000000D03*
D48*
X113450000Y-70000000D03*
X118900000Y-70000000D03*
D50*
X82700000Y-70375000D03*
D51*
X82700000Y-71625000D03*
X82700000Y-72875000D03*
X82700000Y-74125000D03*
X82700000Y-75375000D03*
X82700000Y-76625000D03*
D50*
X82700000Y-80875000D03*
D51*
X82700000Y-82125000D03*
X82700000Y-83375000D03*
X82700000Y-84625000D03*
X82700000Y-85875000D03*
X82700000Y-87125000D03*
D50*
X82700000Y-59875000D03*
D51*
X82700000Y-61125000D03*
X82700000Y-62375000D03*
X82700000Y-63625000D03*
X82700000Y-64875000D03*
X82700000Y-66125000D03*
D46*
X171250000Y-66250000D03*
X178250000Y-66250000D03*
X171250000Y-75550000D03*
X178250000Y-75550000D03*
D50*
X82750000Y-43250000D03*
D51*
X82750000Y-44500000D03*
X82750000Y-45750000D03*
X82750000Y-47000000D03*
X82750000Y-48250000D03*
X82750000Y-49500000D03*
X82750000Y-50750000D03*
X82750000Y-52000000D03*
D47*
X152000000Y-90000000D03*
D48*
X146550000Y-90000000D03*
X141100000Y-90000000D03*
D49*
X141000000Y-70000000D03*
D48*
X146450000Y-70000000D03*
X151900000Y-70000000D03*
D47*
X119000000Y-90000000D03*
D48*
X113550000Y-90000000D03*
X108100000Y-90000000D03*
M02*
