G04 #@! TF.GenerationSoftware,KiCad,Pcbnew,5.1.10-88a1d61d58~88~ubuntu20.04.1*
G04 #@! TF.CreationDate,2021-05-27T23:52:00-04:00*
G04 #@! TF.ProjectId,universal-half-bridge,756e6976-6572-4736-916c-2d68616c662d,rev?*
G04 #@! TF.SameCoordinates,Original*
G04 #@! TF.FileFunction,Legend,Top*
G04 #@! TF.FilePolarity,Positive*
%FSLAX46Y46*%
G04 Gerber Fmt 4.6, Leading zero omitted, Abs format (unit mm)*
G04 Created by KiCad (PCBNEW 5.1.10-88a1d61d58~88~ubuntu20.04.1) date 2021-05-27 23:52:00*
%MOMM*%
%LPD*%
G01*
G04 APERTURE LIST*
%ADD10C,0.400000*%
%ADD11C,0.500000*%
%ADD12C,0.120000*%
%ADD13C,0.150000*%
G04 APERTURE END LIST*
D10*
X181904761Y-100000000D02*
X181904761Y-99619047D01*
X182000000Y-99428571D01*
X182190476Y-99238095D01*
X182571428Y-99142857D01*
X183238095Y-99142857D01*
X183619047Y-99238095D01*
X183809523Y-99428571D01*
X183904761Y-99619047D01*
X183904761Y-100000000D01*
X183809523Y-100190476D01*
X183619047Y-100380952D01*
X183238095Y-100476190D01*
X182571428Y-100476190D01*
X182190476Y-100380952D01*
X182000000Y-100190476D01*
X181904761Y-100000000D01*
X181904761Y-98285714D02*
X183523809Y-98285714D01*
X183714285Y-98190476D01*
X183809523Y-98095238D01*
X183904761Y-97904761D01*
X183904761Y-97523809D01*
X183809523Y-97333333D01*
X183714285Y-97238095D01*
X183523809Y-97142857D01*
X181904761Y-97142857D01*
X181904761Y-96476190D02*
X181904761Y-95333333D01*
X183904761Y-95904761D02*
X181904761Y-95904761D01*
D11*
X188857142Y-120714285D02*
X191142857Y-120714285D01*
X188476190Y-75285714D02*
X191523809Y-75285714D01*
X190000000Y-76809523D02*
X190000000Y-73761904D01*
D12*
X160900000Y-108400000D02*
X160900000Y-110960000D01*
X155450000Y-108400000D02*
X155450000Y-110960000D01*
X150000000Y-108400000D02*
X150000000Y-110960000D01*
X163520000Y-110960000D02*
X163520000Y-132150000D01*
X147380000Y-110960000D02*
X147380000Y-132150000D01*
X147380000Y-132150000D02*
X163520000Y-132150000D01*
X147380000Y-110960000D02*
X163520000Y-110960000D01*
X109120000Y-124500000D02*
G75*
G03*
X109120000Y-124500000I-5120000J0D01*
G01*
X98920000Y-124500000D02*
X109080000Y-124500000D01*
X98920000Y-124460000D02*
X109080000Y-124460000D01*
X98920000Y-124420000D02*
X109080000Y-124420000D01*
X98921000Y-124380000D02*
X109079000Y-124380000D01*
X98922000Y-124340000D02*
X109078000Y-124340000D01*
X98923000Y-124300000D02*
X109077000Y-124300000D01*
X98925000Y-124260000D02*
X109075000Y-124260000D01*
X98927000Y-124220000D02*
X109073000Y-124220000D01*
X98930000Y-124180000D02*
X109070000Y-124180000D01*
X98932000Y-124140000D02*
X109068000Y-124140000D01*
X98935000Y-124100000D02*
X109065000Y-124100000D01*
X98938000Y-124060000D02*
X109062000Y-124060000D01*
X98942000Y-124020000D02*
X109058000Y-124020000D01*
X98946000Y-123980000D02*
X109054000Y-123980000D01*
X98950000Y-123940000D02*
X109050000Y-123940000D01*
X98955000Y-123900000D02*
X109045000Y-123900000D01*
X98960000Y-123860000D02*
X109040000Y-123860000D01*
X98965000Y-123820000D02*
X109035000Y-123820000D01*
X98970000Y-123779000D02*
X109030000Y-123779000D01*
X98976000Y-123739000D02*
X109024000Y-123739000D01*
X98982000Y-123699000D02*
X109018000Y-123699000D01*
X98989000Y-123659000D02*
X109011000Y-123659000D01*
X98996000Y-123619000D02*
X109004000Y-123619000D01*
X99003000Y-123579000D02*
X108997000Y-123579000D01*
X99010000Y-123539000D02*
X108990000Y-123539000D01*
X99018000Y-123499000D02*
X108982000Y-123499000D01*
X99026000Y-123459000D02*
X108974000Y-123459000D01*
X99035000Y-123419000D02*
X108965000Y-123419000D01*
X99044000Y-123379000D02*
X108956000Y-123379000D01*
X99053000Y-123339000D02*
X108947000Y-123339000D01*
X99062000Y-123299000D02*
X108938000Y-123299000D01*
X99072000Y-123259000D02*
X108928000Y-123259000D01*
X99082000Y-123219000D02*
X102759000Y-123219000D01*
X105241000Y-123219000D02*
X108918000Y-123219000D01*
X99093000Y-123179000D02*
X102759000Y-123179000D01*
X105241000Y-123179000D02*
X108907000Y-123179000D01*
X99103000Y-123139000D02*
X102759000Y-123139000D01*
X105241000Y-123139000D02*
X108897000Y-123139000D01*
X99115000Y-123099000D02*
X102759000Y-123099000D01*
X105241000Y-123099000D02*
X108885000Y-123099000D01*
X99126000Y-123059000D02*
X102759000Y-123059000D01*
X105241000Y-123059000D02*
X108874000Y-123059000D01*
X99138000Y-123019000D02*
X102759000Y-123019000D01*
X105241000Y-123019000D02*
X108862000Y-123019000D01*
X99150000Y-122979000D02*
X102759000Y-122979000D01*
X105241000Y-122979000D02*
X108850000Y-122979000D01*
X99163000Y-122939000D02*
X102759000Y-122939000D01*
X105241000Y-122939000D02*
X108837000Y-122939000D01*
X99176000Y-122899000D02*
X102759000Y-122899000D01*
X105241000Y-122899000D02*
X108824000Y-122899000D01*
X99189000Y-122859000D02*
X102759000Y-122859000D01*
X105241000Y-122859000D02*
X108811000Y-122859000D01*
X99203000Y-122819000D02*
X102759000Y-122819000D01*
X105241000Y-122819000D02*
X108797000Y-122819000D01*
X99217000Y-122779000D02*
X102759000Y-122779000D01*
X105241000Y-122779000D02*
X108783000Y-122779000D01*
X99232000Y-122739000D02*
X102759000Y-122739000D01*
X105241000Y-122739000D02*
X108768000Y-122739000D01*
X99246000Y-122699000D02*
X102759000Y-122699000D01*
X105241000Y-122699000D02*
X108754000Y-122699000D01*
X99262000Y-122659000D02*
X102759000Y-122659000D01*
X105241000Y-122659000D02*
X108738000Y-122659000D01*
X99277000Y-122619000D02*
X102759000Y-122619000D01*
X105241000Y-122619000D02*
X108723000Y-122619000D01*
X99293000Y-122579000D02*
X102759000Y-122579000D01*
X105241000Y-122579000D02*
X108707000Y-122579000D01*
X99310000Y-122539000D02*
X102759000Y-122539000D01*
X105241000Y-122539000D02*
X108690000Y-122539000D01*
X99326000Y-122499000D02*
X102759000Y-122499000D01*
X105241000Y-122499000D02*
X108674000Y-122499000D01*
X99343000Y-122459000D02*
X102759000Y-122459000D01*
X105241000Y-122459000D02*
X108657000Y-122459000D01*
X99361000Y-122419000D02*
X102759000Y-122419000D01*
X105241000Y-122419000D02*
X108639000Y-122419000D01*
X99379000Y-122379000D02*
X102759000Y-122379000D01*
X105241000Y-122379000D02*
X108621000Y-122379000D01*
X99397000Y-122339000D02*
X102759000Y-122339000D01*
X105241000Y-122339000D02*
X108603000Y-122339000D01*
X99416000Y-122299000D02*
X102759000Y-122299000D01*
X105241000Y-122299000D02*
X108584000Y-122299000D01*
X99436000Y-122259000D02*
X102759000Y-122259000D01*
X105241000Y-122259000D02*
X108564000Y-122259000D01*
X99455000Y-122219000D02*
X102759000Y-122219000D01*
X105241000Y-122219000D02*
X108545000Y-122219000D01*
X99475000Y-122179000D02*
X102759000Y-122179000D01*
X105241000Y-122179000D02*
X108525000Y-122179000D01*
X99496000Y-122139000D02*
X102759000Y-122139000D01*
X105241000Y-122139000D02*
X108504000Y-122139000D01*
X99517000Y-122099000D02*
X102759000Y-122099000D01*
X105241000Y-122099000D02*
X108483000Y-122099000D01*
X99538000Y-122059000D02*
X102759000Y-122059000D01*
X105241000Y-122059000D02*
X108462000Y-122059000D01*
X99560000Y-122019000D02*
X102759000Y-122019000D01*
X105241000Y-122019000D02*
X108440000Y-122019000D01*
X99583000Y-121979000D02*
X102759000Y-121979000D01*
X105241000Y-121979000D02*
X108417000Y-121979000D01*
X99605000Y-121939000D02*
X102759000Y-121939000D01*
X105241000Y-121939000D02*
X108395000Y-121939000D01*
X99629000Y-121899000D02*
X102759000Y-121899000D01*
X105241000Y-121899000D02*
X108371000Y-121899000D01*
X99653000Y-121859000D02*
X102759000Y-121859000D01*
X105241000Y-121859000D02*
X108347000Y-121859000D01*
X99677000Y-121819000D02*
X102759000Y-121819000D01*
X105241000Y-121819000D02*
X108323000Y-121819000D01*
X99702000Y-121779000D02*
X102759000Y-121779000D01*
X105241000Y-121779000D02*
X108298000Y-121779000D01*
X99727000Y-121739000D02*
X102759000Y-121739000D01*
X105241000Y-121739000D02*
X108273000Y-121739000D01*
X99753000Y-121699000D02*
X102759000Y-121699000D01*
X105241000Y-121699000D02*
X108247000Y-121699000D01*
X99779000Y-121659000D02*
X102759000Y-121659000D01*
X105241000Y-121659000D02*
X108221000Y-121659000D01*
X99806000Y-121619000D02*
X102759000Y-121619000D01*
X105241000Y-121619000D02*
X108194000Y-121619000D01*
X99834000Y-121579000D02*
X102759000Y-121579000D01*
X105241000Y-121579000D02*
X108166000Y-121579000D01*
X99862000Y-121539000D02*
X102759000Y-121539000D01*
X105241000Y-121539000D02*
X108138000Y-121539000D01*
X99890000Y-121499000D02*
X102759000Y-121499000D01*
X105241000Y-121499000D02*
X108110000Y-121499000D01*
X99920000Y-121459000D02*
X102759000Y-121459000D01*
X105241000Y-121459000D02*
X108080000Y-121459000D01*
X99950000Y-121419000D02*
X102759000Y-121419000D01*
X105241000Y-121419000D02*
X108050000Y-121419000D01*
X99980000Y-121379000D02*
X102759000Y-121379000D01*
X105241000Y-121379000D02*
X108020000Y-121379000D01*
X100011000Y-121339000D02*
X102759000Y-121339000D01*
X105241000Y-121339000D02*
X107989000Y-121339000D01*
X100043000Y-121299000D02*
X102759000Y-121299000D01*
X105241000Y-121299000D02*
X107957000Y-121299000D01*
X100075000Y-121259000D02*
X102759000Y-121259000D01*
X105241000Y-121259000D02*
X107925000Y-121259000D01*
X100108000Y-121219000D02*
X102759000Y-121219000D01*
X105241000Y-121219000D02*
X107892000Y-121219000D01*
X100142000Y-121179000D02*
X102759000Y-121179000D01*
X105241000Y-121179000D02*
X107858000Y-121179000D01*
X100176000Y-121139000D02*
X102759000Y-121139000D01*
X105241000Y-121139000D02*
X107824000Y-121139000D01*
X100211000Y-121099000D02*
X102759000Y-121099000D01*
X105241000Y-121099000D02*
X107789000Y-121099000D01*
X100247000Y-121059000D02*
X102759000Y-121059000D01*
X105241000Y-121059000D02*
X107753000Y-121059000D01*
X100284000Y-121019000D02*
X102759000Y-121019000D01*
X105241000Y-121019000D02*
X107716000Y-121019000D01*
X100321000Y-120979000D02*
X102759000Y-120979000D01*
X105241000Y-120979000D02*
X107679000Y-120979000D01*
X100360000Y-120939000D02*
X102759000Y-120939000D01*
X105241000Y-120939000D02*
X107640000Y-120939000D01*
X100399000Y-120899000D02*
X102759000Y-120899000D01*
X105241000Y-120899000D02*
X107601000Y-120899000D01*
X100439000Y-120859000D02*
X102759000Y-120859000D01*
X105241000Y-120859000D02*
X107561000Y-120859000D01*
X100480000Y-120819000D02*
X102759000Y-120819000D01*
X105241000Y-120819000D02*
X107520000Y-120819000D01*
X100522000Y-120779000D02*
X102759000Y-120779000D01*
X105241000Y-120779000D02*
X107478000Y-120779000D01*
X100564000Y-120739000D02*
X107436000Y-120739000D01*
X100608000Y-120699000D02*
X107392000Y-120699000D01*
X100653000Y-120659000D02*
X107347000Y-120659000D01*
X100699000Y-120619000D02*
X107301000Y-120619000D01*
X100746000Y-120579000D02*
X107254000Y-120579000D01*
X100794000Y-120539000D02*
X107206000Y-120539000D01*
X100844000Y-120499000D02*
X107156000Y-120499000D01*
X100894000Y-120459000D02*
X107106000Y-120459000D01*
X100946000Y-120419000D02*
X107054000Y-120419000D01*
X101000000Y-120379000D02*
X107000000Y-120379000D01*
X101055000Y-120339000D02*
X106945000Y-120339000D01*
X101111000Y-120299000D02*
X106889000Y-120299000D01*
X101170000Y-120259000D02*
X106830000Y-120259000D01*
X101230000Y-120219000D02*
X106770000Y-120219000D01*
X101291000Y-120179000D02*
X106709000Y-120179000D01*
X101355000Y-120139000D02*
X106645000Y-120139000D01*
X101421000Y-120099000D02*
X106579000Y-120099000D01*
X101490000Y-120059000D02*
X106510000Y-120059000D01*
X101561000Y-120019000D02*
X106439000Y-120019000D01*
X101635000Y-119979000D02*
X106365000Y-119979000D01*
X101711000Y-119939000D02*
X106289000Y-119939000D01*
X101791000Y-119899000D02*
X106209000Y-119899000D01*
X101875000Y-119859000D02*
X106125000Y-119859000D01*
X101963000Y-119819000D02*
X106037000Y-119819000D01*
X102056000Y-119779000D02*
X105944000Y-119779000D01*
X102154000Y-119739000D02*
X105846000Y-119739000D01*
X102258000Y-119699000D02*
X105742000Y-119699000D01*
X102370000Y-119659000D02*
X105630000Y-119659000D01*
X102490000Y-119619000D02*
X105510000Y-119619000D01*
X102622000Y-119579000D02*
X105378000Y-119579000D01*
X102770000Y-119539000D02*
X105230000Y-119539000D01*
X102938000Y-119499000D02*
X105062000Y-119499000D01*
X103138000Y-119459000D02*
X104862000Y-119459000D01*
X103401000Y-119419000D02*
X104599000Y-119419000D01*
X101125000Y-129979646D02*
X101125000Y-128979646D01*
X100625000Y-129479646D02*
X101625000Y-129479646D01*
X109120000Y-113500000D02*
G75*
G03*
X109120000Y-113500000I-5120000J0D01*
G01*
X98920000Y-113500000D02*
X109080000Y-113500000D01*
X98920000Y-113460000D02*
X109080000Y-113460000D01*
X98920000Y-113420000D02*
X109080000Y-113420000D01*
X98921000Y-113380000D02*
X109079000Y-113380000D01*
X98922000Y-113340000D02*
X109078000Y-113340000D01*
X98923000Y-113300000D02*
X109077000Y-113300000D01*
X98925000Y-113260000D02*
X109075000Y-113260000D01*
X98927000Y-113220000D02*
X109073000Y-113220000D01*
X98930000Y-113180000D02*
X109070000Y-113180000D01*
X98932000Y-113140000D02*
X109068000Y-113140000D01*
X98935000Y-113100000D02*
X109065000Y-113100000D01*
X98938000Y-113060000D02*
X109062000Y-113060000D01*
X98942000Y-113020000D02*
X109058000Y-113020000D01*
X98946000Y-112980000D02*
X109054000Y-112980000D01*
X98950000Y-112940000D02*
X109050000Y-112940000D01*
X98955000Y-112900000D02*
X109045000Y-112900000D01*
X98960000Y-112860000D02*
X109040000Y-112860000D01*
X98965000Y-112820000D02*
X109035000Y-112820000D01*
X98970000Y-112779000D02*
X109030000Y-112779000D01*
X98976000Y-112739000D02*
X109024000Y-112739000D01*
X98982000Y-112699000D02*
X109018000Y-112699000D01*
X98989000Y-112659000D02*
X109011000Y-112659000D01*
X98996000Y-112619000D02*
X109004000Y-112619000D01*
X99003000Y-112579000D02*
X108997000Y-112579000D01*
X99010000Y-112539000D02*
X108990000Y-112539000D01*
X99018000Y-112499000D02*
X108982000Y-112499000D01*
X99026000Y-112459000D02*
X108974000Y-112459000D01*
X99035000Y-112419000D02*
X108965000Y-112419000D01*
X99044000Y-112379000D02*
X108956000Y-112379000D01*
X99053000Y-112339000D02*
X108947000Y-112339000D01*
X99062000Y-112299000D02*
X108938000Y-112299000D01*
X99072000Y-112259000D02*
X108928000Y-112259000D01*
X99082000Y-112219000D02*
X102759000Y-112219000D01*
X105241000Y-112219000D02*
X108918000Y-112219000D01*
X99093000Y-112179000D02*
X102759000Y-112179000D01*
X105241000Y-112179000D02*
X108907000Y-112179000D01*
X99103000Y-112139000D02*
X102759000Y-112139000D01*
X105241000Y-112139000D02*
X108897000Y-112139000D01*
X99115000Y-112099000D02*
X102759000Y-112099000D01*
X105241000Y-112099000D02*
X108885000Y-112099000D01*
X99126000Y-112059000D02*
X102759000Y-112059000D01*
X105241000Y-112059000D02*
X108874000Y-112059000D01*
X99138000Y-112019000D02*
X102759000Y-112019000D01*
X105241000Y-112019000D02*
X108862000Y-112019000D01*
X99150000Y-111979000D02*
X102759000Y-111979000D01*
X105241000Y-111979000D02*
X108850000Y-111979000D01*
X99163000Y-111939000D02*
X102759000Y-111939000D01*
X105241000Y-111939000D02*
X108837000Y-111939000D01*
X99176000Y-111899000D02*
X102759000Y-111899000D01*
X105241000Y-111899000D02*
X108824000Y-111899000D01*
X99189000Y-111859000D02*
X102759000Y-111859000D01*
X105241000Y-111859000D02*
X108811000Y-111859000D01*
X99203000Y-111819000D02*
X102759000Y-111819000D01*
X105241000Y-111819000D02*
X108797000Y-111819000D01*
X99217000Y-111779000D02*
X102759000Y-111779000D01*
X105241000Y-111779000D02*
X108783000Y-111779000D01*
X99232000Y-111739000D02*
X102759000Y-111739000D01*
X105241000Y-111739000D02*
X108768000Y-111739000D01*
X99246000Y-111699000D02*
X102759000Y-111699000D01*
X105241000Y-111699000D02*
X108754000Y-111699000D01*
X99262000Y-111659000D02*
X102759000Y-111659000D01*
X105241000Y-111659000D02*
X108738000Y-111659000D01*
X99277000Y-111619000D02*
X102759000Y-111619000D01*
X105241000Y-111619000D02*
X108723000Y-111619000D01*
X99293000Y-111579000D02*
X102759000Y-111579000D01*
X105241000Y-111579000D02*
X108707000Y-111579000D01*
X99310000Y-111539000D02*
X102759000Y-111539000D01*
X105241000Y-111539000D02*
X108690000Y-111539000D01*
X99326000Y-111499000D02*
X102759000Y-111499000D01*
X105241000Y-111499000D02*
X108674000Y-111499000D01*
X99343000Y-111459000D02*
X102759000Y-111459000D01*
X105241000Y-111459000D02*
X108657000Y-111459000D01*
X99361000Y-111419000D02*
X102759000Y-111419000D01*
X105241000Y-111419000D02*
X108639000Y-111419000D01*
X99379000Y-111379000D02*
X102759000Y-111379000D01*
X105241000Y-111379000D02*
X108621000Y-111379000D01*
X99397000Y-111339000D02*
X102759000Y-111339000D01*
X105241000Y-111339000D02*
X108603000Y-111339000D01*
X99416000Y-111299000D02*
X102759000Y-111299000D01*
X105241000Y-111299000D02*
X108584000Y-111299000D01*
X99436000Y-111259000D02*
X102759000Y-111259000D01*
X105241000Y-111259000D02*
X108564000Y-111259000D01*
X99455000Y-111219000D02*
X102759000Y-111219000D01*
X105241000Y-111219000D02*
X108545000Y-111219000D01*
X99475000Y-111179000D02*
X102759000Y-111179000D01*
X105241000Y-111179000D02*
X108525000Y-111179000D01*
X99496000Y-111139000D02*
X102759000Y-111139000D01*
X105241000Y-111139000D02*
X108504000Y-111139000D01*
X99517000Y-111099000D02*
X102759000Y-111099000D01*
X105241000Y-111099000D02*
X108483000Y-111099000D01*
X99538000Y-111059000D02*
X102759000Y-111059000D01*
X105241000Y-111059000D02*
X108462000Y-111059000D01*
X99560000Y-111019000D02*
X102759000Y-111019000D01*
X105241000Y-111019000D02*
X108440000Y-111019000D01*
X99583000Y-110979000D02*
X102759000Y-110979000D01*
X105241000Y-110979000D02*
X108417000Y-110979000D01*
X99605000Y-110939000D02*
X102759000Y-110939000D01*
X105241000Y-110939000D02*
X108395000Y-110939000D01*
X99629000Y-110899000D02*
X102759000Y-110899000D01*
X105241000Y-110899000D02*
X108371000Y-110899000D01*
X99653000Y-110859000D02*
X102759000Y-110859000D01*
X105241000Y-110859000D02*
X108347000Y-110859000D01*
X99677000Y-110819000D02*
X102759000Y-110819000D01*
X105241000Y-110819000D02*
X108323000Y-110819000D01*
X99702000Y-110779000D02*
X102759000Y-110779000D01*
X105241000Y-110779000D02*
X108298000Y-110779000D01*
X99727000Y-110739000D02*
X102759000Y-110739000D01*
X105241000Y-110739000D02*
X108273000Y-110739000D01*
X99753000Y-110699000D02*
X102759000Y-110699000D01*
X105241000Y-110699000D02*
X108247000Y-110699000D01*
X99779000Y-110659000D02*
X102759000Y-110659000D01*
X105241000Y-110659000D02*
X108221000Y-110659000D01*
X99806000Y-110619000D02*
X102759000Y-110619000D01*
X105241000Y-110619000D02*
X108194000Y-110619000D01*
X99834000Y-110579000D02*
X102759000Y-110579000D01*
X105241000Y-110579000D02*
X108166000Y-110579000D01*
X99862000Y-110539000D02*
X102759000Y-110539000D01*
X105241000Y-110539000D02*
X108138000Y-110539000D01*
X99890000Y-110499000D02*
X102759000Y-110499000D01*
X105241000Y-110499000D02*
X108110000Y-110499000D01*
X99920000Y-110459000D02*
X102759000Y-110459000D01*
X105241000Y-110459000D02*
X108080000Y-110459000D01*
X99950000Y-110419000D02*
X102759000Y-110419000D01*
X105241000Y-110419000D02*
X108050000Y-110419000D01*
X99980000Y-110379000D02*
X102759000Y-110379000D01*
X105241000Y-110379000D02*
X108020000Y-110379000D01*
X100011000Y-110339000D02*
X102759000Y-110339000D01*
X105241000Y-110339000D02*
X107989000Y-110339000D01*
X100043000Y-110299000D02*
X102759000Y-110299000D01*
X105241000Y-110299000D02*
X107957000Y-110299000D01*
X100075000Y-110259000D02*
X102759000Y-110259000D01*
X105241000Y-110259000D02*
X107925000Y-110259000D01*
X100108000Y-110219000D02*
X102759000Y-110219000D01*
X105241000Y-110219000D02*
X107892000Y-110219000D01*
X100142000Y-110179000D02*
X102759000Y-110179000D01*
X105241000Y-110179000D02*
X107858000Y-110179000D01*
X100176000Y-110139000D02*
X102759000Y-110139000D01*
X105241000Y-110139000D02*
X107824000Y-110139000D01*
X100211000Y-110099000D02*
X102759000Y-110099000D01*
X105241000Y-110099000D02*
X107789000Y-110099000D01*
X100247000Y-110059000D02*
X102759000Y-110059000D01*
X105241000Y-110059000D02*
X107753000Y-110059000D01*
X100284000Y-110019000D02*
X102759000Y-110019000D01*
X105241000Y-110019000D02*
X107716000Y-110019000D01*
X100321000Y-109979000D02*
X102759000Y-109979000D01*
X105241000Y-109979000D02*
X107679000Y-109979000D01*
X100360000Y-109939000D02*
X102759000Y-109939000D01*
X105241000Y-109939000D02*
X107640000Y-109939000D01*
X100399000Y-109899000D02*
X102759000Y-109899000D01*
X105241000Y-109899000D02*
X107601000Y-109899000D01*
X100439000Y-109859000D02*
X102759000Y-109859000D01*
X105241000Y-109859000D02*
X107561000Y-109859000D01*
X100480000Y-109819000D02*
X102759000Y-109819000D01*
X105241000Y-109819000D02*
X107520000Y-109819000D01*
X100522000Y-109779000D02*
X102759000Y-109779000D01*
X105241000Y-109779000D02*
X107478000Y-109779000D01*
X100564000Y-109739000D02*
X107436000Y-109739000D01*
X100608000Y-109699000D02*
X107392000Y-109699000D01*
X100653000Y-109659000D02*
X107347000Y-109659000D01*
X100699000Y-109619000D02*
X107301000Y-109619000D01*
X100746000Y-109579000D02*
X107254000Y-109579000D01*
X100794000Y-109539000D02*
X107206000Y-109539000D01*
X100844000Y-109499000D02*
X107156000Y-109499000D01*
X100894000Y-109459000D02*
X107106000Y-109459000D01*
X100946000Y-109419000D02*
X107054000Y-109419000D01*
X101000000Y-109379000D02*
X107000000Y-109379000D01*
X101055000Y-109339000D02*
X106945000Y-109339000D01*
X101111000Y-109299000D02*
X106889000Y-109299000D01*
X101170000Y-109259000D02*
X106830000Y-109259000D01*
X101230000Y-109219000D02*
X106770000Y-109219000D01*
X101291000Y-109179000D02*
X106709000Y-109179000D01*
X101355000Y-109139000D02*
X106645000Y-109139000D01*
X101421000Y-109099000D02*
X106579000Y-109099000D01*
X101490000Y-109059000D02*
X106510000Y-109059000D01*
X101561000Y-109019000D02*
X106439000Y-109019000D01*
X101635000Y-108979000D02*
X106365000Y-108979000D01*
X101711000Y-108939000D02*
X106289000Y-108939000D01*
X101791000Y-108899000D02*
X106209000Y-108899000D01*
X101875000Y-108859000D02*
X106125000Y-108859000D01*
X101963000Y-108819000D02*
X106037000Y-108819000D01*
X102056000Y-108779000D02*
X105944000Y-108779000D01*
X102154000Y-108739000D02*
X105846000Y-108739000D01*
X102258000Y-108699000D02*
X105742000Y-108699000D01*
X102370000Y-108659000D02*
X105630000Y-108659000D01*
X102490000Y-108619000D02*
X105510000Y-108619000D01*
X102622000Y-108579000D02*
X105378000Y-108579000D01*
X102770000Y-108539000D02*
X105230000Y-108539000D01*
X102938000Y-108499000D02*
X105062000Y-108499000D01*
X103138000Y-108459000D02*
X104862000Y-108459000D01*
X103401000Y-108419000D02*
X104599000Y-108419000D01*
X101125000Y-118979646D02*
X101125000Y-117979646D01*
X100625000Y-118479646D02*
X101625000Y-118479646D01*
X109120000Y-83000000D02*
G75*
G03*
X109120000Y-83000000I-5120000J0D01*
G01*
X98920000Y-83000000D02*
X109080000Y-83000000D01*
X98920000Y-82960000D02*
X109080000Y-82960000D01*
X98920000Y-82920000D02*
X109080000Y-82920000D01*
X98921000Y-82880000D02*
X109079000Y-82880000D01*
X98922000Y-82840000D02*
X109078000Y-82840000D01*
X98923000Y-82800000D02*
X109077000Y-82800000D01*
X98925000Y-82760000D02*
X109075000Y-82760000D01*
X98927000Y-82720000D02*
X109073000Y-82720000D01*
X98930000Y-82680000D02*
X109070000Y-82680000D01*
X98932000Y-82640000D02*
X109068000Y-82640000D01*
X98935000Y-82600000D02*
X109065000Y-82600000D01*
X98938000Y-82560000D02*
X109062000Y-82560000D01*
X98942000Y-82520000D02*
X109058000Y-82520000D01*
X98946000Y-82480000D02*
X109054000Y-82480000D01*
X98950000Y-82440000D02*
X109050000Y-82440000D01*
X98955000Y-82400000D02*
X109045000Y-82400000D01*
X98960000Y-82360000D02*
X109040000Y-82360000D01*
X98965000Y-82320000D02*
X109035000Y-82320000D01*
X98970000Y-82279000D02*
X109030000Y-82279000D01*
X98976000Y-82239000D02*
X109024000Y-82239000D01*
X98982000Y-82199000D02*
X109018000Y-82199000D01*
X98989000Y-82159000D02*
X109011000Y-82159000D01*
X98996000Y-82119000D02*
X109004000Y-82119000D01*
X99003000Y-82079000D02*
X108997000Y-82079000D01*
X99010000Y-82039000D02*
X108990000Y-82039000D01*
X99018000Y-81999000D02*
X108982000Y-81999000D01*
X99026000Y-81959000D02*
X108974000Y-81959000D01*
X99035000Y-81919000D02*
X108965000Y-81919000D01*
X99044000Y-81879000D02*
X108956000Y-81879000D01*
X99053000Y-81839000D02*
X108947000Y-81839000D01*
X99062000Y-81799000D02*
X108938000Y-81799000D01*
X99072000Y-81759000D02*
X108928000Y-81759000D01*
X99082000Y-81719000D02*
X102759000Y-81719000D01*
X105241000Y-81719000D02*
X108918000Y-81719000D01*
X99093000Y-81679000D02*
X102759000Y-81679000D01*
X105241000Y-81679000D02*
X108907000Y-81679000D01*
X99103000Y-81639000D02*
X102759000Y-81639000D01*
X105241000Y-81639000D02*
X108897000Y-81639000D01*
X99115000Y-81599000D02*
X102759000Y-81599000D01*
X105241000Y-81599000D02*
X108885000Y-81599000D01*
X99126000Y-81559000D02*
X102759000Y-81559000D01*
X105241000Y-81559000D02*
X108874000Y-81559000D01*
X99138000Y-81519000D02*
X102759000Y-81519000D01*
X105241000Y-81519000D02*
X108862000Y-81519000D01*
X99150000Y-81479000D02*
X102759000Y-81479000D01*
X105241000Y-81479000D02*
X108850000Y-81479000D01*
X99163000Y-81439000D02*
X102759000Y-81439000D01*
X105241000Y-81439000D02*
X108837000Y-81439000D01*
X99176000Y-81399000D02*
X102759000Y-81399000D01*
X105241000Y-81399000D02*
X108824000Y-81399000D01*
X99189000Y-81359000D02*
X102759000Y-81359000D01*
X105241000Y-81359000D02*
X108811000Y-81359000D01*
X99203000Y-81319000D02*
X102759000Y-81319000D01*
X105241000Y-81319000D02*
X108797000Y-81319000D01*
X99217000Y-81279000D02*
X102759000Y-81279000D01*
X105241000Y-81279000D02*
X108783000Y-81279000D01*
X99232000Y-81239000D02*
X102759000Y-81239000D01*
X105241000Y-81239000D02*
X108768000Y-81239000D01*
X99246000Y-81199000D02*
X102759000Y-81199000D01*
X105241000Y-81199000D02*
X108754000Y-81199000D01*
X99262000Y-81159000D02*
X102759000Y-81159000D01*
X105241000Y-81159000D02*
X108738000Y-81159000D01*
X99277000Y-81119000D02*
X102759000Y-81119000D01*
X105241000Y-81119000D02*
X108723000Y-81119000D01*
X99293000Y-81079000D02*
X102759000Y-81079000D01*
X105241000Y-81079000D02*
X108707000Y-81079000D01*
X99310000Y-81039000D02*
X102759000Y-81039000D01*
X105241000Y-81039000D02*
X108690000Y-81039000D01*
X99326000Y-80999000D02*
X102759000Y-80999000D01*
X105241000Y-80999000D02*
X108674000Y-80999000D01*
X99343000Y-80959000D02*
X102759000Y-80959000D01*
X105241000Y-80959000D02*
X108657000Y-80959000D01*
X99361000Y-80919000D02*
X102759000Y-80919000D01*
X105241000Y-80919000D02*
X108639000Y-80919000D01*
X99379000Y-80879000D02*
X102759000Y-80879000D01*
X105241000Y-80879000D02*
X108621000Y-80879000D01*
X99397000Y-80839000D02*
X102759000Y-80839000D01*
X105241000Y-80839000D02*
X108603000Y-80839000D01*
X99416000Y-80799000D02*
X102759000Y-80799000D01*
X105241000Y-80799000D02*
X108584000Y-80799000D01*
X99436000Y-80759000D02*
X102759000Y-80759000D01*
X105241000Y-80759000D02*
X108564000Y-80759000D01*
X99455000Y-80719000D02*
X102759000Y-80719000D01*
X105241000Y-80719000D02*
X108545000Y-80719000D01*
X99475000Y-80679000D02*
X102759000Y-80679000D01*
X105241000Y-80679000D02*
X108525000Y-80679000D01*
X99496000Y-80639000D02*
X102759000Y-80639000D01*
X105241000Y-80639000D02*
X108504000Y-80639000D01*
X99517000Y-80599000D02*
X102759000Y-80599000D01*
X105241000Y-80599000D02*
X108483000Y-80599000D01*
X99538000Y-80559000D02*
X102759000Y-80559000D01*
X105241000Y-80559000D02*
X108462000Y-80559000D01*
X99560000Y-80519000D02*
X102759000Y-80519000D01*
X105241000Y-80519000D02*
X108440000Y-80519000D01*
X99583000Y-80479000D02*
X102759000Y-80479000D01*
X105241000Y-80479000D02*
X108417000Y-80479000D01*
X99605000Y-80439000D02*
X102759000Y-80439000D01*
X105241000Y-80439000D02*
X108395000Y-80439000D01*
X99629000Y-80399000D02*
X102759000Y-80399000D01*
X105241000Y-80399000D02*
X108371000Y-80399000D01*
X99653000Y-80359000D02*
X102759000Y-80359000D01*
X105241000Y-80359000D02*
X108347000Y-80359000D01*
X99677000Y-80319000D02*
X102759000Y-80319000D01*
X105241000Y-80319000D02*
X108323000Y-80319000D01*
X99702000Y-80279000D02*
X102759000Y-80279000D01*
X105241000Y-80279000D02*
X108298000Y-80279000D01*
X99727000Y-80239000D02*
X102759000Y-80239000D01*
X105241000Y-80239000D02*
X108273000Y-80239000D01*
X99753000Y-80199000D02*
X102759000Y-80199000D01*
X105241000Y-80199000D02*
X108247000Y-80199000D01*
X99779000Y-80159000D02*
X102759000Y-80159000D01*
X105241000Y-80159000D02*
X108221000Y-80159000D01*
X99806000Y-80119000D02*
X102759000Y-80119000D01*
X105241000Y-80119000D02*
X108194000Y-80119000D01*
X99834000Y-80079000D02*
X102759000Y-80079000D01*
X105241000Y-80079000D02*
X108166000Y-80079000D01*
X99862000Y-80039000D02*
X102759000Y-80039000D01*
X105241000Y-80039000D02*
X108138000Y-80039000D01*
X99890000Y-79999000D02*
X102759000Y-79999000D01*
X105241000Y-79999000D02*
X108110000Y-79999000D01*
X99920000Y-79959000D02*
X102759000Y-79959000D01*
X105241000Y-79959000D02*
X108080000Y-79959000D01*
X99950000Y-79919000D02*
X102759000Y-79919000D01*
X105241000Y-79919000D02*
X108050000Y-79919000D01*
X99980000Y-79879000D02*
X102759000Y-79879000D01*
X105241000Y-79879000D02*
X108020000Y-79879000D01*
X100011000Y-79839000D02*
X102759000Y-79839000D01*
X105241000Y-79839000D02*
X107989000Y-79839000D01*
X100043000Y-79799000D02*
X102759000Y-79799000D01*
X105241000Y-79799000D02*
X107957000Y-79799000D01*
X100075000Y-79759000D02*
X102759000Y-79759000D01*
X105241000Y-79759000D02*
X107925000Y-79759000D01*
X100108000Y-79719000D02*
X102759000Y-79719000D01*
X105241000Y-79719000D02*
X107892000Y-79719000D01*
X100142000Y-79679000D02*
X102759000Y-79679000D01*
X105241000Y-79679000D02*
X107858000Y-79679000D01*
X100176000Y-79639000D02*
X102759000Y-79639000D01*
X105241000Y-79639000D02*
X107824000Y-79639000D01*
X100211000Y-79599000D02*
X102759000Y-79599000D01*
X105241000Y-79599000D02*
X107789000Y-79599000D01*
X100247000Y-79559000D02*
X102759000Y-79559000D01*
X105241000Y-79559000D02*
X107753000Y-79559000D01*
X100284000Y-79519000D02*
X102759000Y-79519000D01*
X105241000Y-79519000D02*
X107716000Y-79519000D01*
X100321000Y-79479000D02*
X102759000Y-79479000D01*
X105241000Y-79479000D02*
X107679000Y-79479000D01*
X100360000Y-79439000D02*
X102759000Y-79439000D01*
X105241000Y-79439000D02*
X107640000Y-79439000D01*
X100399000Y-79399000D02*
X102759000Y-79399000D01*
X105241000Y-79399000D02*
X107601000Y-79399000D01*
X100439000Y-79359000D02*
X102759000Y-79359000D01*
X105241000Y-79359000D02*
X107561000Y-79359000D01*
X100480000Y-79319000D02*
X102759000Y-79319000D01*
X105241000Y-79319000D02*
X107520000Y-79319000D01*
X100522000Y-79279000D02*
X102759000Y-79279000D01*
X105241000Y-79279000D02*
X107478000Y-79279000D01*
X100564000Y-79239000D02*
X107436000Y-79239000D01*
X100608000Y-79199000D02*
X107392000Y-79199000D01*
X100653000Y-79159000D02*
X107347000Y-79159000D01*
X100699000Y-79119000D02*
X107301000Y-79119000D01*
X100746000Y-79079000D02*
X107254000Y-79079000D01*
X100794000Y-79039000D02*
X107206000Y-79039000D01*
X100844000Y-78999000D02*
X107156000Y-78999000D01*
X100894000Y-78959000D02*
X107106000Y-78959000D01*
X100946000Y-78919000D02*
X107054000Y-78919000D01*
X101000000Y-78879000D02*
X107000000Y-78879000D01*
X101055000Y-78839000D02*
X106945000Y-78839000D01*
X101111000Y-78799000D02*
X106889000Y-78799000D01*
X101170000Y-78759000D02*
X106830000Y-78759000D01*
X101230000Y-78719000D02*
X106770000Y-78719000D01*
X101291000Y-78679000D02*
X106709000Y-78679000D01*
X101355000Y-78639000D02*
X106645000Y-78639000D01*
X101421000Y-78599000D02*
X106579000Y-78599000D01*
X101490000Y-78559000D02*
X106510000Y-78559000D01*
X101561000Y-78519000D02*
X106439000Y-78519000D01*
X101635000Y-78479000D02*
X106365000Y-78479000D01*
X101711000Y-78439000D02*
X106289000Y-78439000D01*
X101791000Y-78399000D02*
X106209000Y-78399000D01*
X101875000Y-78359000D02*
X106125000Y-78359000D01*
X101963000Y-78319000D02*
X106037000Y-78319000D01*
X102056000Y-78279000D02*
X105944000Y-78279000D01*
X102154000Y-78239000D02*
X105846000Y-78239000D01*
X102258000Y-78199000D02*
X105742000Y-78199000D01*
X102370000Y-78159000D02*
X105630000Y-78159000D01*
X102490000Y-78119000D02*
X105510000Y-78119000D01*
X102622000Y-78079000D02*
X105378000Y-78079000D01*
X102770000Y-78039000D02*
X105230000Y-78039000D01*
X102938000Y-77999000D02*
X105062000Y-77999000D01*
X103138000Y-77959000D02*
X104862000Y-77959000D01*
X103401000Y-77919000D02*
X104599000Y-77919000D01*
X101125000Y-88479646D02*
X101125000Y-87479646D01*
X100625000Y-87979646D02*
X101625000Y-87979646D01*
X109120000Y-72000000D02*
G75*
G03*
X109120000Y-72000000I-5120000J0D01*
G01*
X98920000Y-72000000D02*
X109080000Y-72000000D01*
X98920000Y-71960000D02*
X109080000Y-71960000D01*
X98920000Y-71920000D02*
X109080000Y-71920000D01*
X98921000Y-71880000D02*
X109079000Y-71880000D01*
X98922000Y-71840000D02*
X109078000Y-71840000D01*
X98923000Y-71800000D02*
X109077000Y-71800000D01*
X98925000Y-71760000D02*
X109075000Y-71760000D01*
X98927000Y-71720000D02*
X109073000Y-71720000D01*
X98930000Y-71680000D02*
X109070000Y-71680000D01*
X98932000Y-71640000D02*
X109068000Y-71640000D01*
X98935000Y-71600000D02*
X109065000Y-71600000D01*
X98938000Y-71560000D02*
X109062000Y-71560000D01*
X98942000Y-71520000D02*
X109058000Y-71520000D01*
X98946000Y-71480000D02*
X109054000Y-71480000D01*
X98950000Y-71440000D02*
X109050000Y-71440000D01*
X98955000Y-71400000D02*
X109045000Y-71400000D01*
X98960000Y-71360000D02*
X109040000Y-71360000D01*
X98965000Y-71320000D02*
X109035000Y-71320000D01*
X98970000Y-71279000D02*
X109030000Y-71279000D01*
X98976000Y-71239000D02*
X109024000Y-71239000D01*
X98982000Y-71199000D02*
X109018000Y-71199000D01*
X98989000Y-71159000D02*
X109011000Y-71159000D01*
X98996000Y-71119000D02*
X109004000Y-71119000D01*
X99003000Y-71079000D02*
X108997000Y-71079000D01*
X99010000Y-71039000D02*
X108990000Y-71039000D01*
X99018000Y-70999000D02*
X108982000Y-70999000D01*
X99026000Y-70959000D02*
X108974000Y-70959000D01*
X99035000Y-70919000D02*
X108965000Y-70919000D01*
X99044000Y-70879000D02*
X108956000Y-70879000D01*
X99053000Y-70839000D02*
X108947000Y-70839000D01*
X99062000Y-70799000D02*
X108938000Y-70799000D01*
X99072000Y-70759000D02*
X108928000Y-70759000D01*
X99082000Y-70719000D02*
X102759000Y-70719000D01*
X105241000Y-70719000D02*
X108918000Y-70719000D01*
X99093000Y-70679000D02*
X102759000Y-70679000D01*
X105241000Y-70679000D02*
X108907000Y-70679000D01*
X99103000Y-70639000D02*
X102759000Y-70639000D01*
X105241000Y-70639000D02*
X108897000Y-70639000D01*
X99115000Y-70599000D02*
X102759000Y-70599000D01*
X105241000Y-70599000D02*
X108885000Y-70599000D01*
X99126000Y-70559000D02*
X102759000Y-70559000D01*
X105241000Y-70559000D02*
X108874000Y-70559000D01*
X99138000Y-70519000D02*
X102759000Y-70519000D01*
X105241000Y-70519000D02*
X108862000Y-70519000D01*
X99150000Y-70479000D02*
X102759000Y-70479000D01*
X105241000Y-70479000D02*
X108850000Y-70479000D01*
X99163000Y-70439000D02*
X102759000Y-70439000D01*
X105241000Y-70439000D02*
X108837000Y-70439000D01*
X99176000Y-70399000D02*
X102759000Y-70399000D01*
X105241000Y-70399000D02*
X108824000Y-70399000D01*
X99189000Y-70359000D02*
X102759000Y-70359000D01*
X105241000Y-70359000D02*
X108811000Y-70359000D01*
X99203000Y-70319000D02*
X102759000Y-70319000D01*
X105241000Y-70319000D02*
X108797000Y-70319000D01*
X99217000Y-70279000D02*
X102759000Y-70279000D01*
X105241000Y-70279000D02*
X108783000Y-70279000D01*
X99232000Y-70239000D02*
X102759000Y-70239000D01*
X105241000Y-70239000D02*
X108768000Y-70239000D01*
X99246000Y-70199000D02*
X102759000Y-70199000D01*
X105241000Y-70199000D02*
X108754000Y-70199000D01*
X99262000Y-70159000D02*
X102759000Y-70159000D01*
X105241000Y-70159000D02*
X108738000Y-70159000D01*
X99277000Y-70119000D02*
X102759000Y-70119000D01*
X105241000Y-70119000D02*
X108723000Y-70119000D01*
X99293000Y-70079000D02*
X102759000Y-70079000D01*
X105241000Y-70079000D02*
X108707000Y-70079000D01*
X99310000Y-70039000D02*
X102759000Y-70039000D01*
X105241000Y-70039000D02*
X108690000Y-70039000D01*
X99326000Y-69999000D02*
X102759000Y-69999000D01*
X105241000Y-69999000D02*
X108674000Y-69999000D01*
X99343000Y-69959000D02*
X102759000Y-69959000D01*
X105241000Y-69959000D02*
X108657000Y-69959000D01*
X99361000Y-69919000D02*
X102759000Y-69919000D01*
X105241000Y-69919000D02*
X108639000Y-69919000D01*
X99379000Y-69879000D02*
X102759000Y-69879000D01*
X105241000Y-69879000D02*
X108621000Y-69879000D01*
X99397000Y-69839000D02*
X102759000Y-69839000D01*
X105241000Y-69839000D02*
X108603000Y-69839000D01*
X99416000Y-69799000D02*
X102759000Y-69799000D01*
X105241000Y-69799000D02*
X108584000Y-69799000D01*
X99436000Y-69759000D02*
X102759000Y-69759000D01*
X105241000Y-69759000D02*
X108564000Y-69759000D01*
X99455000Y-69719000D02*
X102759000Y-69719000D01*
X105241000Y-69719000D02*
X108545000Y-69719000D01*
X99475000Y-69679000D02*
X102759000Y-69679000D01*
X105241000Y-69679000D02*
X108525000Y-69679000D01*
X99496000Y-69639000D02*
X102759000Y-69639000D01*
X105241000Y-69639000D02*
X108504000Y-69639000D01*
X99517000Y-69599000D02*
X102759000Y-69599000D01*
X105241000Y-69599000D02*
X108483000Y-69599000D01*
X99538000Y-69559000D02*
X102759000Y-69559000D01*
X105241000Y-69559000D02*
X108462000Y-69559000D01*
X99560000Y-69519000D02*
X102759000Y-69519000D01*
X105241000Y-69519000D02*
X108440000Y-69519000D01*
X99583000Y-69479000D02*
X102759000Y-69479000D01*
X105241000Y-69479000D02*
X108417000Y-69479000D01*
X99605000Y-69439000D02*
X102759000Y-69439000D01*
X105241000Y-69439000D02*
X108395000Y-69439000D01*
X99629000Y-69399000D02*
X102759000Y-69399000D01*
X105241000Y-69399000D02*
X108371000Y-69399000D01*
X99653000Y-69359000D02*
X102759000Y-69359000D01*
X105241000Y-69359000D02*
X108347000Y-69359000D01*
X99677000Y-69319000D02*
X102759000Y-69319000D01*
X105241000Y-69319000D02*
X108323000Y-69319000D01*
X99702000Y-69279000D02*
X102759000Y-69279000D01*
X105241000Y-69279000D02*
X108298000Y-69279000D01*
X99727000Y-69239000D02*
X102759000Y-69239000D01*
X105241000Y-69239000D02*
X108273000Y-69239000D01*
X99753000Y-69199000D02*
X102759000Y-69199000D01*
X105241000Y-69199000D02*
X108247000Y-69199000D01*
X99779000Y-69159000D02*
X102759000Y-69159000D01*
X105241000Y-69159000D02*
X108221000Y-69159000D01*
X99806000Y-69119000D02*
X102759000Y-69119000D01*
X105241000Y-69119000D02*
X108194000Y-69119000D01*
X99834000Y-69079000D02*
X102759000Y-69079000D01*
X105241000Y-69079000D02*
X108166000Y-69079000D01*
X99862000Y-69039000D02*
X102759000Y-69039000D01*
X105241000Y-69039000D02*
X108138000Y-69039000D01*
X99890000Y-68999000D02*
X102759000Y-68999000D01*
X105241000Y-68999000D02*
X108110000Y-68999000D01*
X99920000Y-68959000D02*
X102759000Y-68959000D01*
X105241000Y-68959000D02*
X108080000Y-68959000D01*
X99950000Y-68919000D02*
X102759000Y-68919000D01*
X105241000Y-68919000D02*
X108050000Y-68919000D01*
X99980000Y-68879000D02*
X102759000Y-68879000D01*
X105241000Y-68879000D02*
X108020000Y-68879000D01*
X100011000Y-68839000D02*
X102759000Y-68839000D01*
X105241000Y-68839000D02*
X107989000Y-68839000D01*
X100043000Y-68799000D02*
X102759000Y-68799000D01*
X105241000Y-68799000D02*
X107957000Y-68799000D01*
X100075000Y-68759000D02*
X102759000Y-68759000D01*
X105241000Y-68759000D02*
X107925000Y-68759000D01*
X100108000Y-68719000D02*
X102759000Y-68719000D01*
X105241000Y-68719000D02*
X107892000Y-68719000D01*
X100142000Y-68679000D02*
X102759000Y-68679000D01*
X105241000Y-68679000D02*
X107858000Y-68679000D01*
X100176000Y-68639000D02*
X102759000Y-68639000D01*
X105241000Y-68639000D02*
X107824000Y-68639000D01*
X100211000Y-68599000D02*
X102759000Y-68599000D01*
X105241000Y-68599000D02*
X107789000Y-68599000D01*
X100247000Y-68559000D02*
X102759000Y-68559000D01*
X105241000Y-68559000D02*
X107753000Y-68559000D01*
X100284000Y-68519000D02*
X102759000Y-68519000D01*
X105241000Y-68519000D02*
X107716000Y-68519000D01*
X100321000Y-68479000D02*
X102759000Y-68479000D01*
X105241000Y-68479000D02*
X107679000Y-68479000D01*
X100360000Y-68439000D02*
X102759000Y-68439000D01*
X105241000Y-68439000D02*
X107640000Y-68439000D01*
X100399000Y-68399000D02*
X102759000Y-68399000D01*
X105241000Y-68399000D02*
X107601000Y-68399000D01*
X100439000Y-68359000D02*
X102759000Y-68359000D01*
X105241000Y-68359000D02*
X107561000Y-68359000D01*
X100480000Y-68319000D02*
X102759000Y-68319000D01*
X105241000Y-68319000D02*
X107520000Y-68319000D01*
X100522000Y-68279000D02*
X102759000Y-68279000D01*
X105241000Y-68279000D02*
X107478000Y-68279000D01*
X100564000Y-68239000D02*
X107436000Y-68239000D01*
X100608000Y-68199000D02*
X107392000Y-68199000D01*
X100653000Y-68159000D02*
X107347000Y-68159000D01*
X100699000Y-68119000D02*
X107301000Y-68119000D01*
X100746000Y-68079000D02*
X107254000Y-68079000D01*
X100794000Y-68039000D02*
X107206000Y-68039000D01*
X100844000Y-67999000D02*
X107156000Y-67999000D01*
X100894000Y-67959000D02*
X107106000Y-67959000D01*
X100946000Y-67919000D02*
X107054000Y-67919000D01*
X101000000Y-67879000D02*
X107000000Y-67879000D01*
X101055000Y-67839000D02*
X106945000Y-67839000D01*
X101111000Y-67799000D02*
X106889000Y-67799000D01*
X101170000Y-67759000D02*
X106830000Y-67759000D01*
X101230000Y-67719000D02*
X106770000Y-67719000D01*
X101291000Y-67679000D02*
X106709000Y-67679000D01*
X101355000Y-67639000D02*
X106645000Y-67639000D01*
X101421000Y-67599000D02*
X106579000Y-67599000D01*
X101490000Y-67559000D02*
X106510000Y-67559000D01*
X101561000Y-67519000D02*
X106439000Y-67519000D01*
X101635000Y-67479000D02*
X106365000Y-67479000D01*
X101711000Y-67439000D02*
X106289000Y-67439000D01*
X101791000Y-67399000D02*
X106209000Y-67399000D01*
X101875000Y-67359000D02*
X106125000Y-67359000D01*
X101963000Y-67319000D02*
X106037000Y-67319000D01*
X102056000Y-67279000D02*
X105944000Y-67279000D01*
X102154000Y-67239000D02*
X105846000Y-67239000D01*
X102258000Y-67199000D02*
X105742000Y-67199000D01*
X102370000Y-67159000D02*
X105630000Y-67159000D01*
X102490000Y-67119000D02*
X105510000Y-67119000D01*
X102622000Y-67079000D02*
X105378000Y-67079000D01*
X102770000Y-67039000D02*
X105230000Y-67039000D01*
X102938000Y-66999000D02*
X105062000Y-66999000D01*
X103138000Y-66959000D02*
X104862000Y-66959000D01*
X103401000Y-66919000D02*
X104599000Y-66919000D01*
X101125000Y-77479646D02*
X101125000Y-76479646D01*
X100625000Y-76979646D02*
X101625000Y-76979646D01*
X142900000Y-108400000D02*
X142900000Y-110960000D01*
X137450000Y-108400000D02*
X137450000Y-110960000D01*
X132000000Y-108400000D02*
X132000000Y-110960000D01*
X145520000Y-110960000D02*
X145520000Y-132150000D01*
X129380000Y-110960000D02*
X129380000Y-132150000D01*
X129380000Y-132150000D02*
X145520000Y-132150000D01*
X129380000Y-110960000D02*
X145520000Y-110960000D01*
X117300000Y-135400000D02*
X117000000Y-136000000D01*
X116700000Y-135400000D02*
X117300000Y-135400000D01*
X117000000Y-136000000D02*
X116700000Y-135400000D01*
X129750000Y-140700000D02*
X129250000Y-140700000D01*
X129750000Y-146200000D02*
X129750000Y-140700000D01*
X129250000Y-146200000D02*
X129750000Y-146200000D01*
X129250000Y-140700000D02*
X129250000Y-146200000D01*
X127250000Y-140700000D02*
X126750000Y-140700000D01*
X127250000Y-146200000D02*
X127250000Y-140700000D01*
X126750000Y-146200000D02*
X127250000Y-146200000D01*
X126750000Y-140700000D02*
X126750000Y-146200000D01*
X124750000Y-140700000D02*
X124250000Y-140700000D01*
X124750000Y-146200000D02*
X124750000Y-140700000D01*
X124250000Y-146200000D02*
X124750000Y-146200000D01*
X124250000Y-140700000D02*
X124250000Y-146200000D01*
X122250000Y-140700000D02*
X121750000Y-140700000D01*
X122250000Y-146200000D02*
X122250000Y-140700000D01*
X121750000Y-146200000D02*
X122250000Y-146200000D01*
X121750000Y-140700000D02*
X121750000Y-146200000D01*
X119750000Y-140700000D02*
X119250000Y-140700000D01*
X119750000Y-146200000D02*
X119750000Y-140700000D01*
X119250000Y-146200000D02*
X119750000Y-146200000D01*
X119250000Y-140700000D02*
X119250000Y-146200000D01*
X117250000Y-140700000D02*
X116750000Y-140700000D01*
X117250000Y-146200000D02*
X117250000Y-140700000D01*
X116750000Y-146200000D02*
X117250000Y-146200000D01*
X116750000Y-140700000D02*
X116750000Y-146200000D01*
X130640000Y-139590000D02*
X123250000Y-139590000D01*
X130640000Y-135090000D02*
X130640000Y-139590000D01*
X132060000Y-135090000D02*
X130640000Y-135090000D01*
X132060000Y-146810000D02*
X132060000Y-135090000D01*
X123250000Y-146810000D02*
X132060000Y-146810000D01*
X115860000Y-139590000D02*
X123250000Y-139590000D01*
X115860000Y-135090000D02*
X115860000Y-139590000D01*
X114440000Y-135090000D02*
X115860000Y-135090000D01*
X114440000Y-146810000D02*
X114440000Y-135090000D01*
X123250000Y-146810000D02*
X114440000Y-146810000D01*
X139580000Y-144790000D02*
X139580000Y-145800000D01*
X134500000Y-144790000D02*
X139580000Y-144790000D01*
X134500000Y-145800000D02*
X134500000Y-144790000D01*
X140950000Y-145900000D02*
X133150000Y-145900000D01*
X140950000Y-139850000D02*
X140950000Y-145900000D01*
X133150000Y-139850000D02*
X140950000Y-139850000D01*
X133150000Y-145900000D02*
X133150000Y-139850000D01*
X164180000Y-54200000D02*
X164780000Y-54500000D01*
X164180000Y-54800000D02*
X164180000Y-54200000D01*
X164780000Y-54500000D02*
X164180000Y-54800000D01*
X177020000Y-59410000D02*
X164980000Y-59410000D01*
X177020000Y-52390000D02*
X177020000Y-59410000D01*
X175820000Y-52390000D02*
X177020000Y-52390000D01*
X175820000Y-50690000D02*
X175820000Y-52390000D01*
X166180000Y-50690000D02*
X175820000Y-50690000D01*
X166180000Y-52390000D02*
X166180000Y-50690000D01*
X164980000Y-52390000D02*
X166180000Y-52390000D01*
X164980000Y-59410000D02*
X164980000Y-52390000D01*
X184750000Y-83000000D02*
X184750000Y-113000000D01*
X195250000Y-113000000D02*
X195250000Y-83000000D01*
X184750000Y-113000000D02*
G75*
G03*
X195250000Y-113000000I5250000J0D01*
G01*
X195250000Y-83000000D02*
G75*
G03*
X184750000Y-83000000I-5250000J0D01*
G01*
X150040000Y-87600000D02*
X150040000Y-85040000D01*
X155490000Y-87600000D02*
X155490000Y-85040000D01*
X160940000Y-87600000D02*
X160940000Y-85040000D01*
X147420000Y-85040000D02*
X147420000Y-63850000D01*
X163560000Y-85040000D02*
X163560000Y-63850000D01*
X163560000Y-63850000D02*
X147420000Y-63850000D01*
X163560000Y-85040000D02*
X147420000Y-85040000D01*
X132000000Y-87600000D02*
X132000000Y-85040000D01*
X137450000Y-87600000D02*
X137450000Y-85040000D01*
X142900000Y-87600000D02*
X142900000Y-85040000D01*
X129380000Y-85040000D02*
X129380000Y-63850000D01*
X145520000Y-85040000D02*
X145520000Y-63850000D01*
X145520000Y-63850000D02*
X129380000Y-63850000D01*
X145520000Y-85040000D02*
X129380000Y-85040000D01*
D13*
X186238095Y-54252380D02*
X186238095Y-53252380D01*
X186238095Y-53728571D02*
X186809523Y-53728571D01*
X186809523Y-54252380D02*
X186809523Y-53252380D01*
X187428571Y-53680952D02*
X187333333Y-53633333D01*
X187285714Y-53585714D01*
X187238095Y-53490476D01*
X187238095Y-53442857D01*
X187285714Y-53347619D01*
X187333333Y-53300000D01*
X187428571Y-53252380D01*
X187619047Y-53252380D01*
X187714285Y-53300000D01*
X187761904Y-53347619D01*
X187809523Y-53442857D01*
X187809523Y-53490476D01*
X187761904Y-53585714D01*
X187714285Y-53633333D01*
X187619047Y-53680952D01*
X187428571Y-53680952D01*
X187333333Y-53728571D01*
X187285714Y-53776190D01*
X187238095Y-53871428D01*
X187238095Y-54061904D01*
X187285714Y-54157142D01*
X187333333Y-54204761D01*
X187428571Y-54252380D01*
X187619047Y-54252380D01*
X187714285Y-54204761D01*
X187761904Y-54157142D01*
X187809523Y-54061904D01*
X187809523Y-53871428D01*
X187761904Y-53776190D01*
X187714285Y-53728571D01*
X187619047Y-53680952D01*
X186238095Y-134252380D02*
X186238095Y-133252380D01*
X186238095Y-133728571D02*
X186809523Y-133728571D01*
X186809523Y-134252380D02*
X186809523Y-133252380D01*
X187190476Y-133252380D02*
X187857142Y-133252380D01*
X187428571Y-134252380D01*
X106238095Y-134252380D02*
X106238095Y-133252380D01*
X106238095Y-133728571D02*
X106809523Y-133728571D01*
X106809523Y-134252380D02*
X106809523Y-133252380D01*
X107714285Y-133252380D02*
X107523809Y-133252380D01*
X107428571Y-133300000D01*
X107380952Y-133347619D01*
X107285714Y-133490476D01*
X107238095Y-133680952D01*
X107238095Y-134061904D01*
X107285714Y-134157142D01*
X107333333Y-134204761D01*
X107428571Y-134252380D01*
X107619047Y-134252380D01*
X107714285Y-134204761D01*
X107761904Y-134157142D01*
X107809523Y-134061904D01*
X107809523Y-133823809D01*
X107761904Y-133728571D01*
X107714285Y-133680952D01*
X107619047Y-133633333D01*
X107428571Y-133633333D01*
X107333333Y-133680952D01*
X107285714Y-133728571D01*
X107238095Y-133823809D01*
X106238095Y-54252380D02*
X106238095Y-53252380D01*
X106238095Y-53728571D02*
X106809523Y-53728571D01*
X106809523Y-54252380D02*
X106809523Y-53252380D01*
X107761904Y-53252380D02*
X107285714Y-53252380D01*
X107238095Y-53728571D01*
X107285714Y-53680952D01*
X107380952Y-53633333D01*
X107619047Y-53633333D01*
X107714285Y-53680952D01*
X107761904Y-53728571D01*
X107809523Y-53823809D01*
X107809523Y-54061904D01*
X107761904Y-54157142D01*
X107714285Y-54204761D01*
X107619047Y-54252380D01*
X107380952Y-54252380D01*
X107285714Y-54204761D01*
X107238095Y-54157142D01*
X155404761Y-112547619D02*
X155309523Y-112500000D01*
X155214285Y-112404761D01*
X155071428Y-112261904D01*
X154976190Y-112214285D01*
X154880952Y-112214285D01*
X154928571Y-112452380D02*
X154833333Y-112404761D01*
X154738095Y-112309523D01*
X154690476Y-112119047D01*
X154690476Y-111785714D01*
X154738095Y-111595238D01*
X154833333Y-111500000D01*
X154928571Y-111452380D01*
X155119047Y-111452380D01*
X155214285Y-111500000D01*
X155309523Y-111595238D01*
X155357142Y-111785714D01*
X155357142Y-112119047D01*
X155309523Y-112309523D01*
X155214285Y-112404761D01*
X155119047Y-112452380D01*
X154928571Y-112452380D01*
X156214285Y-111785714D02*
X156214285Y-112452380D01*
X155976190Y-111404761D02*
X155738095Y-112119047D01*
X156357142Y-112119047D01*
X98107142Y-125142857D02*
X98154761Y-125190476D01*
X98202380Y-125333333D01*
X98202380Y-125428571D01*
X98154761Y-125571428D01*
X98059523Y-125666666D01*
X97964285Y-125714285D01*
X97773809Y-125761904D01*
X97630952Y-125761904D01*
X97440476Y-125714285D01*
X97345238Y-125666666D01*
X97250000Y-125571428D01*
X97202380Y-125428571D01*
X97202380Y-125333333D01*
X97250000Y-125190476D01*
X97297619Y-125142857D01*
X98202380Y-124190476D02*
X98202380Y-124761904D01*
X98202380Y-124476190D02*
X97202380Y-124476190D01*
X97345238Y-124571428D01*
X97440476Y-124666666D01*
X97488095Y-124761904D01*
X97630952Y-123619047D02*
X97583333Y-123714285D01*
X97535714Y-123761904D01*
X97440476Y-123809523D01*
X97392857Y-123809523D01*
X97297619Y-123761904D01*
X97250000Y-123714285D01*
X97202380Y-123619047D01*
X97202380Y-123428571D01*
X97250000Y-123333333D01*
X97297619Y-123285714D01*
X97392857Y-123238095D01*
X97440476Y-123238095D01*
X97535714Y-123285714D01*
X97583333Y-123333333D01*
X97630952Y-123428571D01*
X97630952Y-123619047D01*
X97678571Y-123714285D01*
X97726190Y-123761904D01*
X97821428Y-123809523D01*
X98011904Y-123809523D01*
X98107142Y-123761904D01*
X98154761Y-123714285D01*
X98202380Y-123619047D01*
X98202380Y-123428571D01*
X98154761Y-123333333D01*
X98107142Y-123285714D01*
X98011904Y-123238095D01*
X97821428Y-123238095D01*
X97726190Y-123285714D01*
X97678571Y-123333333D01*
X97630952Y-123428571D01*
X98107142Y-114142857D02*
X98154761Y-114190476D01*
X98202380Y-114333333D01*
X98202380Y-114428571D01*
X98154761Y-114571428D01*
X98059523Y-114666666D01*
X97964285Y-114714285D01*
X97773809Y-114761904D01*
X97630952Y-114761904D01*
X97440476Y-114714285D01*
X97345238Y-114666666D01*
X97250000Y-114571428D01*
X97202380Y-114428571D01*
X97202380Y-114333333D01*
X97250000Y-114190476D01*
X97297619Y-114142857D01*
X98202380Y-113190476D02*
X98202380Y-113761904D01*
X98202380Y-113476190D02*
X97202380Y-113476190D01*
X97345238Y-113571428D01*
X97440476Y-113666666D01*
X97488095Y-113761904D01*
X97202380Y-112857142D02*
X97202380Y-112190476D01*
X98202380Y-112619047D01*
X98107142Y-83642857D02*
X98154761Y-83690476D01*
X98202380Y-83833333D01*
X98202380Y-83928571D01*
X98154761Y-84071428D01*
X98059523Y-84166666D01*
X97964285Y-84214285D01*
X97773809Y-84261904D01*
X97630952Y-84261904D01*
X97440476Y-84214285D01*
X97345238Y-84166666D01*
X97250000Y-84071428D01*
X97202380Y-83928571D01*
X97202380Y-83833333D01*
X97250000Y-83690476D01*
X97297619Y-83642857D01*
X98202380Y-82690476D02*
X98202380Y-83261904D01*
X98202380Y-82976190D02*
X97202380Y-82976190D01*
X97345238Y-83071428D01*
X97440476Y-83166666D01*
X97488095Y-83261904D01*
X97202380Y-81833333D02*
X97202380Y-82023809D01*
X97250000Y-82119047D01*
X97297619Y-82166666D01*
X97440476Y-82261904D01*
X97630952Y-82309523D01*
X98011904Y-82309523D01*
X98107142Y-82261904D01*
X98154761Y-82214285D01*
X98202380Y-82119047D01*
X98202380Y-81928571D01*
X98154761Y-81833333D01*
X98107142Y-81785714D01*
X98011904Y-81738095D01*
X97773809Y-81738095D01*
X97678571Y-81785714D01*
X97630952Y-81833333D01*
X97583333Y-81928571D01*
X97583333Y-82119047D01*
X97630952Y-82214285D01*
X97678571Y-82261904D01*
X97773809Y-82309523D01*
X98107142Y-72642857D02*
X98154761Y-72690476D01*
X98202380Y-72833333D01*
X98202380Y-72928571D01*
X98154761Y-73071428D01*
X98059523Y-73166666D01*
X97964285Y-73214285D01*
X97773809Y-73261904D01*
X97630952Y-73261904D01*
X97440476Y-73214285D01*
X97345238Y-73166666D01*
X97250000Y-73071428D01*
X97202380Y-72928571D01*
X97202380Y-72833333D01*
X97250000Y-72690476D01*
X97297619Y-72642857D01*
X98202380Y-71690476D02*
X98202380Y-72261904D01*
X98202380Y-71976190D02*
X97202380Y-71976190D01*
X97345238Y-72071428D01*
X97440476Y-72166666D01*
X97488095Y-72261904D01*
X97202380Y-70785714D02*
X97202380Y-71261904D01*
X97678571Y-71309523D01*
X97630952Y-71261904D01*
X97583333Y-71166666D01*
X97583333Y-70928571D01*
X97630952Y-70833333D01*
X97678571Y-70785714D01*
X97773809Y-70738095D01*
X98011904Y-70738095D01*
X98107142Y-70785714D01*
X98154761Y-70833333D01*
X98202380Y-70928571D01*
X98202380Y-71166666D01*
X98154761Y-71261904D01*
X98107142Y-71309523D01*
X136904761Y-112547619D02*
X136809523Y-112500000D01*
X136714285Y-112404761D01*
X136571428Y-112261904D01*
X136476190Y-112214285D01*
X136380952Y-112214285D01*
X136428571Y-112452380D02*
X136333333Y-112404761D01*
X136238095Y-112309523D01*
X136190476Y-112119047D01*
X136190476Y-111785714D01*
X136238095Y-111595238D01*
X136333333Y-111500000D01*
X136428571Y-111452380D01*
X136619047Y-111452380D01*
X136714285Y-111500000D01*
X136809523Y-111595238D01*
X136857142Y-111785714D01*
X136857142Y-112119047D01*
X136809523Y-112309523D01*
X136714285Y-112404761D01*
X136619047Y-112452380D01*
X136428571Y-112452380D01*
X137190476Y-111452380D02*
X137809523Y-111452380D01*
X137476190Y-111833333D01*
X137619047Y-111833333D01*
X137714285Y-111880952D01*
X137761904Y-111928571D01*
X137809523Y-112023809D01*
X137809523Y-112261904D01*
X137761904Y-112357142D01*
X137714285Y-112404761D01*
X137619047Y-112452380D01*
X137333333Y-112452380D01*
X137238095Y-112404761D01*
X137190476Y-112357142D01*
X123166666Y-133952380D02*
X123166666Y-134666666D01*
X123119047Y-134809523D01*
X123023809Y-134904761D01*
X122880952Y-134952380D01*
X122785714Y-134952380D01*
X124166666Y-134952380D02*
X123595238Y-134952380D01*
X123880952Y-134952380D02*
X123880952Y-133952380D01*
X123785714Y-134095238D01*
X123690476Y-134190476D01*
X123595238Y-134238095D01*
X136190476Y-139452380D02*
X136190476Y-138452380D01*
X136523809Y-139166666D01*
X136857142Y-138452380D01*
X136857142Y-139452380D01*
X137857142Y-139452380D02*
X137285714Y-139452380D01*
X137571428Y-139452380D02*
X137571428Y-138452380D01*
X137476190Y-138595238D01*
X137380952Y-138690476D01*
X137285714Y-138738095D01*
X170666666Y-49052380D02*
X170666666Y-49766666D01*
X170619047Y-49909523D01*
X170523809Y-50004761D01*
X170380952Y-50052380D01*
X170285714Y-50052380D01*
X171095238Y-49147619D02*
X171142857Y-49100000D01*
X171238095Y-49052380D01*
X171476190Y-49052380D01*
X171571428Y-49100000D01*
X171619047Y-49147619D01*
X171666666Y-49242857D01*
X171666666Y-49338095D01*
X171619047Y-49480952D01*
X171047619Y-50052380D01*
X171666666Y-50052380D01*
X155404761Y-84547619D02*
X155309523Y-84500000D01*
X155214285Y-84404761D01*
X155071428Y-84261904D01*
X154976190Y-84214285D01*
X154880952Y-84214285D01*
X154928571Y-84452380D02*
X154833333Y-84404761D01*
X154738095Y-84309523D01*
X154690476Y-84119047D01*
X154690476Y-83785714D01*
X154738095Y-83595238D01*
X154833333Y-83500000D01*
X154928571Y-83452380D01*
X155119047Y-83452380D01*
X155214285Y-83500000D01*
X155309523Y-83595238D01*
X155357142Y-83785714D01*
X155357142Y-84119047D01*
X155309523Y-84309523D01*
X155214285Y-84404761D01*
X155119047Y-84452380D01*
X154928571Y-84452380D01*
X155738095Y-83547619D02*
X155785714Y-83500000D01*
X155880952Y-83452380D01*
X156119047Y-83452380D01*
X156214285Y-83500000D01*
X156261904Y-83547619D01*
X156309523Y-83642857D01*
X156309523Y-83738095D01*
X156261904Y-83880952D01*
X155690476Y-84452380D01*
X156309523Y-84452380D01*
X137404761Y-84547619D02*
X137309523Y-84500000D01*
X137214285Y-84404761D01*
X137071428Y-84261904D01*
X136976190Y-84214285D01*
X136880952Y-84214285D01*
X136928571Y-84452380D02*
X136833333Y-84404761D01*
X136738095Y-84309523D01*
X136690476Y-84119047D01*
X136690476Y-83785714D01*
X136738095Y-83595238D01*
X136833333Y-83500000D01*
X136928571Y-83452380D01*
X137119047Y-83452380D01*
X137214285Y-83500000D01*
X137309523Y-83595238D01*
X137357142Y-83785714D01*
X137357142Y-84119047D01*
X137309523Y-84309523D01*
X137214285Y-84404761D01*
X137119047Y-84452380D01*
X136928571Y-84452380D01*
X138309523Y-84452380D02*
X137738095Y-84452380D01*
X138023809Y-84452380D02*
X138023809Y-83452380D01*
X137928571Y-83595238D01*
X137833333Y-83690476D01*
X137738095Y-83738095D01*
M02*
