G04 #@! TF.GenerationSoftware,KiCad,Pcbnew,9.0.0*
G04 #@! TF.CreationDate,2025-03-23T13:51:45-04:00*
G04 #@! TF.ProjectId,three_half_bridges,74687265-655f-4686-916c-665f62726964,rev?*
G04 #@! TF.SameCoordinates,Original*
G04 #@! TF.FileFunction,Copper,L1,Top*
G04 #@! TF.FilePolarity,Positive*
%FSLAX46Y46*%
G04 Gerber Fmt 4.6, Leading zero omitted, Abs format (unit mm)*
G04 Created by KiCad (PCBNEW 9.0.0) date 2025-03-23 13:51:45*
%MOMM*%
%LPD*%
G01*
G04 APERTURE LIST*
G04 Aperture macros list*
%AMRoundRect*
0 Rectangle with rounded corners*
0 $1 Rounding radius*
0 $2 $3 $4 $5 $6 $7 $8 $9 X,Y pos of 4 corners*
0 Add a 4 corners polygon primitive as box body*
4,1,4,$2,$3,$4,$5,$6,$7,$8,$9,$2,$3,0*
0 Add four circle primitives for the rounded corners*
1,1,$1+$1,$2,$3*
1,1,$1+$1,$4,$5*
1,1,$1+$1,$6,$7*
1,1,$1+$1,$8,$9*
0 Add four rect primitives between the rounded corners*
20,1,$1+$1,$2,$3,$4,$5,0*
20,1,$1+$1,$4,$5,$6,$7,0*
20,1,$1+$1,$6,$7,$8,$9,0*
20,1,$1+$1,$8,$9,$2,$3,0*%
%AMFreePoly0*
4,1,9,3.862500,-0.866500,0.737500,-0.866500,0.737500,-0.450000,-0.737500,-0.450000,-0.737500,0.450000,0.737500,0.450000,0.737500,0.866500,3.862500,0.866500,3.862500,-0.866500,3.862500,-0.866500,$1*%
G04 Aperture macros list end*
G04 #@! TA.AperFunction,SMDPad,CuDef*
%ADD10RoundRect,0.250000X-0.312500X-0.625000X0.312500X-0.625000X0.312500X0.625000X-0.312500X0.625000X0*%
G04 #@! TD*
G04 #@! TA.AperFunction,SMDPad,CuDef*
%ADD11RoundRect,0.200000X-0.200000X-0.275000X0.200000X-0.275000X0.200000X0.275000X-0.200000X0.275000X0*%
G04 #@! TD*
G04 #@! TA.AperFunction,SMDPad,CuDef*
%ADD12RoundRect,0.250000X0.450000X0.800000X-0.450000X0.800000X-0.450000X-0.800000X0.450000X-0.800000X0*%
G04 #@! TD*
G04 #@! TA.AperFunction,SMDPad,CuDef*
%ADD13RoundRect,0.225000X0.225000X0.250000X-0.225000X0.250000X-0.225000X-0.250000X0.225000X-0.250000X0*%
G04 #@! TD*
G04 #@! TA.AperFunction,SMDPad,CuDef*
%ADD14RoundRect,0.112500X0.112500X0.237500X-0.112500X0.237500X-0.112500X-0.237500X0.112500X-0.237500X0*%
G04 #@! TD*
G04 #@! TA.AperFunction,SMDPad,CuDef*
%ADD15RoundRect,0.250000X0.312500X0.625000X-0.312500X0.625000X-0.312500X-0.625000X0.312500X-0.625000X0*%
G04 #@! TD*
G04 #@! TA.AperFunction,SMDPad,CuDef*
%ADD16RoundRect,0.225000X0.250000X-0.225000X0.250000X0.225000X-0.250000X0.225000X-0.250000X-0.225000X0*%
G04 #@! TD*
G04 #@! TA.AperFunction,SMDPad,CuDef*
%ADD17RoundRect,0.225000X0.375000X-0.225000X0.375000X0.225000X-0.375000X0.225000X-0.375000X-0.225000X0*%
G04 #@! TD*
G04 #@! TA.AperFunction,SMDPad,CuDef*
%ADD18R,1.780000X1.585000*%
G04 #@! TD*
G04 #@! TA.AperFunction,SMDPad,CuDef*
%ADD19RoundRect,0.243750X0.456250X-0.243750X0.456250X0.243750X-0.456250X0.243750X-0.456250X-0.243750X0*%
G04 #@! TD*
G04 #@! TA.AperFunction,SMDPad,CuDef*
%ADD20RoundRect,0.225000X-0.225000X-0.250000X0.225000X-0.250000X0.225000X0.250000X-0.225000X0.250000X0*%
G04 #@! TD*
G04 #@! TA.AperFunction,SMDPad,CuDef*
%ADD21RoundRect,0.250000X-0.925000X0.787500X-0.925000X-0.787500X0.925000X-0.787500X0.925000X0.787500X0*%
G04 #@! TD*
G04 #@! TA.AperFunction,ComponentPad*
%ADD22C,0.800000*%
G04 #@! TD*
G04 #@! TA.AperFunction,ComponentPad*
%ADD23C,6.400000*%
G04 #@! TD*
G04 #@! TA.AperFunction,ComponentPad*
%ADD24O,3.200000X5.000000*%
G04 #@! TD*
G04 #@! TA.AperFunction,ComponentPad*
%ADD25C,6.500000*%
G04 #@! TD*
G04 #@! TA.AperFunction,SMDPad,CuDef*
%ADD26RoundRect,0.200000X0.200000X0.275000X-0.200000X0.275000X-0.200000X-0.275000X0.200000X-0.275000X0*%
G04 #@! TD*
G04 #@! TA.AperFunction,SMDPad,CuDef*
%ADD27RoundRect,0.225000X-0.375000X0.225000X-0.375000X-0.225000X0.375000X-0.225000X0.375000X0.225000X0*%
G04 #@! TD*
G04 #@! TA.AperFunction,ComponentPad*
%ADD28C,0.900000*%
G04 #@! TD*
G04 #@! TA.AperFunction,ComponentPad*
%ADD29C,11.000000*%
G04 #@! TD*
G04 #@! TA.AperFunction,SMDPad,CuDef*
%ADD30RoundRect,0.200000X-0.275000X0.200000X-0.275000X-0.200000X0.275000X-0.200000X0.275000X0.200000X0*%
G04 #@! TD*
G04 #@! TA.AperFunction,SMDPad,CuDef*
%ADD31RoundRect,0.250000X-0.475000X0.250000X-0.475000X-0.250000X0.475000X-0.250000X0.475000X0.250000X0*%
G04 #@! TD*
G04 #@! TA.AperFunction,SMDPad,CuDef*
%ADD32RoundRect,0.225000X-0.250000X0.225000X-0.250000X-0.225000X0.250000X-0.225000X0.250000X0.225000X0*%
G04 #@! TD*
G04 #@! TA.AperFunction,SMDPad,CuDef*
%ADD33RoundRect,0.150000X0.725000X0.150000X-0.725000X0.150000X-0.725000X-0.150000X0.725000X-0.150000X0*%
G04 #@! TD*
G04 #@! TA.AperFunction,SMDPad,CuDef*
%ADD34RoundRect,0.200000X0.275000X-0.200000X0.275000X0.200000X-0.275000X0.200000X-0.275000X-0.200000X0*%
G04 #@! TD*
G04 #@! TA.AperFunction,SMDPad,CuDef*
%ADD35RoundRect,0.225000X-0.425000X-0.225000X0.425000X-0.225000X0.425000X0.225000X-0.425000X0.225000X0*%
G04 #@! TD*
G04 #@! TA.AperFunction,SMDPad,CuDef*
%ADD36FreePoly0,0.000000*%
G04 #@! TD*
G04 #@! TA.AperFunction,SMDPad,CuDef*
%ADD37RoundRect,0.150000X-0.725000X-0.150000X0.725000X-0.150000X0.725000X0.150000X-0.725000X0.150000X0*%
G04 #@! TD*
G04 #@! TA.AperFunction,SMDPad,CuDef*
%ADD38RoundRect,0.150000X0.825000X0.150000X-0.825000X0.150000X-0.825000X-0.150000X0.825000X-0.150000X0*%
G04 #@! TD*
G04 #@! TA.AperFunction,SMDPad,CuDef*
%ADD39RoundRect,0.250000X0.250000X0.475000X-0.250000X0.475000X-0.250000X-0.475000X0.250000X-0.475000X0*%
G04 #@! TD*
G04 #@! TA.AperFunction,SMDPad,CuDef*
%ADD40RoundRect,0.150000X-0.825000X-0.150000X0.825000X-0.150000X0.825000X0.150000X-0.825000X0.150000X0*%
G04 #@! TD*
G04 #@! TA.AperFunction,SMDPad,CuDef*
%ADD41RoundRect,0.243750X-0.456250X0.243750X-0.456250X-0.243750X0.456250X-0.243750X0.456250X0.243750X0*%
G04 #@! TD*
G04 #@! TA.AperFunction,ComponentPad*
%ADD42O,5.000000X3.200000*%
G04 #@! TD*
G04 #@! TA.AperFunction,ComponentPad*
%ADD43RoundRect,0.250000X-0.600000X-0.750000X0.600000X-0.750000X0.600000X0.750000X-0.600000X0.750000X0*%
G04 #@! TD*
G04 #@! TA.AperFunction,ComponentPad*
%ADD44O,1.700000X2.000000*%
G04 #@! TD*
G04 #@! TA.AperFunction,ComponentPad*
%ADD45RoundRect,0.250000X0.845000X-0.620000X0.845000X0.620000X-0.845000X0.620000X-0.845000X-0.620000X0*%
G04 #@! TD*
G04 #@! TA.AperFunction,ComponentPad*
%ADD46O,2.190000X1.740000*%
G04 #@! TD*
G04 #@! TA.AperFunction,ComponentPad*
%ADD47R,2.500000X4.500000*%
G04 #@! TD*
G04 #@! TA.AperFunction,ComponentPad*
%ADD48O,2.500000X4.500000*%
G04 #@! TD*
G04 #@! TA.AperFunction,ComponentPad*
%ADD49RoundRect,0.200000X-0.450000X0.200000X-0.450000X-0.200000X0.450000X-0.200000X0.450000X0.200000X0*%
G04 #@! TD*
G04 #@! TA.AperFunction,ComponentPad*
%ADD50O,1.300000X0.800000*%
G04 #@! TD*
G04 #@! TA.AperFunction,ViaPad*
%ADD51C,0.800000*%
G04 #@! TD*
G04 #@! TA.AperFunction,Conductor*
%ADD52C,0.250000*%
G04 #@! TD*
G04 #@! TA.AperFunction,Conductor*
%ADD53C,0.500000*%
G04 #@! TD*
G04 #@! TA.AperFunction,Conductor*
%ADD54C,0.550000*%
G04 #@! TD*
G04 #@! TA.AperFunction,Conductor*
%ADD55C,1.000000*%
G04 #@! TD*
G04 #@! TA.AperFunction,Conductor*
%ADD56C,0.750000*%
G04 #@! TD*
G04 APERTURE END LIST*
D10*
X164287500Y-66750000D03*
X167212500Y-66750000D03*
D11*
X153175000Y-63250000D03*
X154825000Y-63250000D03*
D12*
X160450000Y-101250000D03*
X156050000Y-101250000D03*
D13*
X155025000Y-118000000D03*
X153475000Y-118000000D03*
D14*
X175400000Y-116000000D03*
X174100000Y-116000000D03*
X174750000Y-118000000D03*
D15*
X160462500Y-92750000D03*
X157537500Y-92750000D03*
D16*
X114150000Y-68175000D03*
X114150000Y-66625000D03*
D17*
X167750000Y-64650000D03*
X167750000Y-61350000D03*
D18*
X157710000Y-127592500D03*
X160250000Y-127592500D03*
X162790000Y-127592500D03*
X162790000Y-119907500D03*
X160250000Y-119907500D03*
X157710000Y-119907500D03*
D19*
X156500000Y-64687500D03*
X156500000Y-62812500D03*
D18*
X173210000Y-127592500D03*
X175750000Y-127592500D03*
X178290000Y-127592500D03*
X178290000Y-119907500D03*
X175750000Y-119907500D03*
X173210000Y-119907500D03*
D20*
X136725000Y-64750000D03*
X138275000Y-64750000D03*
D21*
X146425000Y-115522725D03*
X146425000Y-120447725D03*
D22*
X193850000Y-121250000D03*
X194552944Y-119552944D03*
X194552944Y-122947056D03*
X196250000Y-118850000D03*
D23*
X196250000Y-121250000D03*
D22*
X196250000Y-123650000D03*
X197947056Y-119552944D03*
X197947056Y-122947056D03*
X198650000Y-121250000D03*
D24*
X151000000Y-32900000D03*
X151000000Y-39900000D03*
D25*
X155750000Y-36400000D03*
D24*
X160300000Y-32900000D03*
X160300000Y-39900000D03*
D26*
X170325000Y-98750000D03*
X168675000Y-98750000D03*
D20*
X153225000Y-64750000D03*
X154775000Y-64750000D03*
D13*
X168775000Y-52000000D03*
X167225000Y-52000000D03*
D27*
X139000000Y-95350000D03*
X139000000Y-98650000D03*
X172250000Y-95350000D03*
X172250000Y-98650000D03*
D28*
X180875000Y-110000000D03*
X182073185Y-107073185D03*
X182073185Y-112926815D03*
X185000000Y-105875000D03*
D29*
X185000000Y-110000000D03*
D28*
X185000000Y-114125000D03*
X187926815Y-107073185D03*
X187926815Y-112926815D03*
X189125000Y-110000000D03*
D26*
X153575000Y-98750000D03*
X151925000Y-98750000D03*
X154825000Y-61750000D03*
X153175000Y-61750000D03*
D30*
X114150000Y-70075000D03*
X114150000Y-71725000D03*
D31*
X134250000Y-101550000D03*
X134250000Y-103450000D03*
D16*
X172500000Y-117525000D03*
X172500000Y-115975000D03*
D10*
X147787500Y-66750000D03*
X150712500Y-66750000D03*
D32*
X123400000Y-88025000D03*
X123400000Y-89575000D03*
D30*
X114200000Y-98125000D03*
X114200000Y-99775000D03*
D28*
X120875000Y-50000000D03*
X122073185Y-47073185D03*
X122073185Y-52926815D03*
X125000000Y-45875000D03*
D29*
X125000000Y-50000000D03*
D28*
X125000000Y-54125000D03*
X127926815Y-47073185D03*
X127926815Y-52926815D03*
X129125000Y-50000000D03*
D22*
X193850000Y-38750000D03*
X194552944Y-37052944D03*
X194552944Y-40447056D03*
X196250000Y-36350000D03*
D23*
X196250000Y-38750000D03*
D22*
X196250000Y-41150000D03*
X197947056Y-37052944D03*
X197947056Y-40447056D03*
X198650000Y-38750000D03*
D33*
X157825000Y-70155000D03*
X157825000Y-68885000D03*
X157825000Y-67615000D03*
X157825000Y-66345000D03*
X152675000Y-66345000D03*
X152675000Y-67615000D03*
X152675000Y-68885000D03*
X152675000Y-70155000D03*
D17*
X151250000Y-64650000D03*
X151250000Y-61350000D03*
D16*
X164750000Y-117525000D03*
X164750000Y-115975000D03*
D34*
X123400000Y-99475000D03*
X123400000Y-97825000D03*
D13*
X136025000Y-52000000D03*
X134475000Y-52000000D03*
D20*
X169725000Y-64750000D03*
X171275000Y-64750000D03*
D30*
X114150000Y-77075000D03*
X114150000Y-78725000D03*
D24*
X167500000Y-32900000D03*
X167500000Y-39900000D03*
D25*
X172250000Y-36400000D03*
D24*
X176800000Y-32900000D03*
X176800000Y-39900000D03*
D35*
X125200000Y-60900000D03*
D36*
X125287500Y-62400000D03*
D35*
X125200000Y-63900000D03*
D14*
X167650000Y-116000000D03*
X166350000Y-116000000D03*
X167000000Y-118000000D03*
D37*
X166925000Y-89845000D03*
X166925000Y-91115000D03*
X166925000Y-92385000D03*
X166925000Y-93655000D03*
X172075000Y-93655000D03*
X172075000Y-92385000D03*
X172075000Y-91115000D03*
X172075000Y-89845000D03*
D13*
X163025000Y-118000000D03*
X161475000Y-118000000D03*
D24*
X134500000Y-32900000D03*
X134500000Y-39900000D03*
D25*
X139250000Y-36400000D03*
D24*
X143800000Y-32900000D03*
X143800000Y-39900000D03*
D38*
X143725000Y-51905000D03*
X143725000Y-50635000D03*
X143725000Y-49365000D03*
X143725000Y-48095000D03*
X138775000Y-48095000D03*
X138775000Y-49365000D03*
X138775000Y-50635000D03*
X138775000Y-51905000D03*
D28*
X120875000Y-110050000D03*
X122073185Y-107123185D03*
X122073185Y-112976815D03*
D29*
X124875000Y-110050000D03*
D28*
X125000000Y-105925000D03*
X125000000Y-114175000D03*
X127926815Y-107123185D03*
X127926815Y-112976815D03*
X129125000Y-110050000D03*
D26*
X137075000Y-98750000D03*
X135425000Y-98750000D03*
D39*
X130100000Y-97900000D03*
X128200000Y-97900000D03*
D15*
X176962500Y-92750000D03*
X174037500Y-92750000D03*
D40*
X116425000Y-81395000D03*
X116425000Y-82665000D03*
X116425000Y-83935000D03*
X116425000Y-85205000D03*
X121375000Y-85205000D03*
X121375000Y-83935000D03*
X121375000Y-82665000D03*
X121375000Y-81395000D03*
D19*
X173000000Y-64687500D03*
X173000000Y-62812500D03*
D32*
X123400000Y-94825000D03*
X123400000Y-96375000D03*
D12*
X176950000Y-101250000D03*
X172550000Y-101250000D03*
D13*
X178525000Y-118000000D03*
X176975000Y-118000000D03*
D40*
X116425000Y-67795000D03*
X116425000Y-69065000D03*
X116425000Y-70335000D03*
X116425000Y-71605000D03*
X121375000Y-71605000D03*
X121375000Y-70335000D03*
X121375000Y-69065000D03*
X121375000Y-67795000D03*
D16*
X114150000Y-88675000D03*
X114150000Y-87125000D03*
D27*
X155500000Y-95350000D03*
X155500000Y-98650000D03*
D26*
X171325000Y-60250000D03*
X169675000Y-60250000D03*
D40*
X116425000Y-74595000D03*
X116425000Y-75865000D03*
X116425000Y-77135000D03*
X116425000Y-78405000D03*
X121375000Y-78405000D03*
X121375000Y-77135000D03*
X121375000Y-75865000D03*
X121375000Y-74595000D03*
D41*
X133500000Y-95312500D03*
X133500000Y-97187500D03*
D11*
X136675000Y-63250000D03*
X138325000Y-63250000D03*
D41*
X150000000Y-95312500D03*
X150000000Y-97187500D03*
D20*
X135475000Y-95250000D03*
X137025000Y-95250000D03*
D10*
X164287500Y-69000000D03*
X167212500Y-69000000D03*
D40*
X116425000Y-60995000D03*
X116425000Y-62265000D03*
X116425000Y-63535000D03*
X116425000Y-64805000D03*
X121375000Y-64805000D03*
X121375000Y-63535000D03*
X121375000Y-62265000D03*
X121375000Y-60995000D03*
D32*
X123400000Y-67675000D03*
X123400000Y-69225000D03*
D17*
X134750000Y-64650000D03*
X134750000Y-61350000D03*
D26*
X153575000Y-97000000D03*
X151925000Y-97000000D03*
D30*
X114150000Y-63575000D03*
X114150000Y-65225000D03*
D34*
X123400000Y-92675000D03*
X123400000Y-91025000D03*
D13*
X152275000Y-50500000D03*
X150725000Y-50500000D03*
X136025000Y-49000000D03*
X134475000Y-49000000D03*
D14*
X159900000Y-116000000D03*
X158600000Y-116000000D03*
X159250000Y-118000000D03*
D35*
X125200000Y-67700000D03*
D36*
X125287500Y-69200000D03*
D35*
X125200000Y-70700000D03*
D33*
X141325000Y-70155000D03*
X141325000Y-68885000D03*
X141325000Y-67615000D03*
X141325000Y-66345000D03*
X136175000Y-66345000D03*
X136175000Y-67615000D03*
X136175000Y-68885000D03*
X136175000Y-70155000D03*
D16*
X157000000Y-117525000D03*
X157000000Y-115975000D03*
D13*
X170775000Y-118000000D03*
X169225000Y-118000000D03*
D26*
X170325000Y-97000000D03*
X168675000Y-97000000D03*
D14*
X151900000Y-116000000D03*
X150600000Y-116000000D03*
X151250000Y-118000000D03*
D26*
X137075000Y-97000000D03*
X135425000Y-97000000D03*
D22*
X111402944Y-121250000D03*
X112105888Y-119552944D03*
X112105888Y-122947056D03*
X113802944Y-118850000D03*
D23*
X113802944Y-121250000D03*
D22*
X113802944Y-123650000D03*
X115500000Y-119552944D03*
X115500000Y-122947056D03*
X116202944Y-121250000D03*
D15*
X143962500Y-92750000D03*
X141037500Y-92750000D03*
D38*
X176475000Y-51905000D03*
X176475000Y-50635000D03*
X176475000Y-49365000D03*
X176475000Y-48095000D03*
X171525000Y-48095000D03*
X171525000Y-49365000D03*
X171525000Y-50635000D03*
X171525000Y-51905000D03*
D42*
X201900000Y-66250000D03*
X194900000Y-66250000D03*
D25*
X198400000Y-71000000D03*
D42*
X201900000Y-75550000D03*
X194900000Y-75550000D03*
D16*
X114150000Y-81675000D03*
X114150000Y-80125000D03*
D15*
X143962500Y-90250000D03*
X141037500Y-90250000D03*
D32*
X123400000Y-81225000D03*
X123400000Y-82775000D03*
D10*
X147787500Y-69000000D03*
X150712500Y-69000000D03*
D19*
X140000000Y-64687500D03*
X140000000Y-62812500D03*
D33*
X174325000Y-70155000D03*
X174325000Y-68885000D03*
X174325000Y-67615000D03*
X174325000Y-66345000D03*
X169175000Y-66345000D03*
X169175000Y-67615000D03*
X169175000Y-68885000D03*
X169175000Y-70155000D03*
D34*
X123400000Y-85875000D03*
X123400000Y-84225000D03*
D32*
X123400000Y-60875000D03*
X123400000Y-62425000D03*
D16*
X114150000Y-95675000D03*
X114150000Y-94125000D03*
D13*
X168775000Y-50500000D03*
X167225000Y-50500000D03*
X136025000Y-50500000D03*
X134475000Y-50500000D03*
D38*
X159975000Y-51905000D03*
X159975000Y-50635000D03*
X159975000Y-49365000D03*
X159975000Y-48095000D03*
X155025000Y-48095000D03*
X155025000Y-49365000D03*
X155025000Y-50635000D03*
X155025000Y-51905000D03*
D16*
X149000000Y-117525000D03*
X149000000Y-115975000D03*
X114150000Y-60925000D03*
X114150000Y-59375000D03*
D30*
X114150000Y-84075000D03*
X114150000Y-85725000D03*
D20*
X151975000Y-95250000D03*
X153525000Y-95250000D03*
D15*
X176962500Y-90250000D03*
X174037500Y-90250000D03*
D26*
X138325000Y-61750000D03*
X136675000Y-61750000D03*
D20*
X168725000Y-95250000D03*
X170275000Y-95250000D03*
D35*
X125200000Y-74500000D03*
D36*
X125287500Y-76000000D03*
D35*
X125200000Y-77500000D03*
D16*
X114150000Y-74675000D03*
X114150000Y-73125000D03*
D26*
X171325000Y-61750000D03*
X169675000Y-61750000D03*
D37*
X133675000Y-89845000D03*
X133675000Y-91115000D03*
X133675000Y-92385000D03*
X133675000Y-93655000D03*
X138825000Y-93655000D03*
X138825000Y-92385000D03*
X138825000Y-91115000D03*
X138825000Y-89845000D03*
D40*
X116425000Y-88195000D03*
X116425000Y-89465000D03*
X116425000Y-90735000D03*
X116425000Y-92005000D03*
X121375000Y-92005000D03*
X121375000Y-90735000D03*
X121375000Y-89465000D03*
X121375000Y-88195000D03*
D13*
X152275000Y-52000000D03*
X150725000Y-52000000D03*
D35*
X128925000Y-100000000D03*
D36*
X129012500Y-101500000D03*
D35*
X128925000Y-103000000D03*
D11*
X169675000Y-63250000D03*
X171325000Y-63250000D03*
D18*
X149960000Y-127592500D03*
X152500000Y-127592500D03*
X155040000Y-127592500D03*
X155040000Y-119907500D03*
X152500000Y-119907500D03*
X149960000Y-119907500D03*
D13*
X168775000Y-49000000D03*
X167225000Y-49000000D03*
D26*
X154825000Y-60250000D03*
X153175000Y-60250000D03*
D10*
X131287500Y-69000000D03*
X134212500Y-69000000D03*
D28*
X180875000Y-50000000D03*
X182073185Y-47073185D03*
X182073185Y-52926815D03*
X185000000Y-45875000D03*
D29*
X185000000Y-50000000D03*
D28*
X185000000Y-54125000D03*
X187926815Y-47073185D03*
X187926815Y-52926815D03*
X189125000Y-50000000D03*
D18*
X165460000Y-127592500D03*
X168000000Y-127592500D03*
X170540000Y-127592500D03*
X170540000Y-119907500D03*
X168000000Y-119907500D03*
X165460000Y-119907500D03*
D26*
X138325000Y-60250000D03*
X136675000Y-60250000D03*
D32*
X123400000Y-74475000D03*
X123400000Y-76025000D03*
D22*
X111350000Y-38750000D03*
X112052944Y-37052944D03*
X112052944Y-40447056D03*
X113750000Y-36350000D03*
D23*
X113750000Y-38750000D03*
D22*
X113750000Y-41150000D03*
X115447056Y-37052944D03*
X115447056Y-40447056D03*
X116150000Y-38750000D03*
D10*
X131287500Y-66750000D03*
X134212500Y-66750000D03*
D30*
X114150000Y-90825000D03*
X114150000Y-92475000D03*
D12*
X143950000Y-101250000D03*
X139550000Y-101250000D03*
D41*
X166750000Y-95312500D03*
X166750000Y-97187500D03*
D40*
X116425000Y-94995000D03*
X116425000Y-96265000D03*
X116425000Y-97535000D03*
X116425000Y-98805000D03*
X121375000Y-98805000D03*
X121375000Y-97535000D03*
X121375000Y-96265000D03*
X121375000Y-94995000D03*
D37*
X150175000Y-89845000D03*
X150175000Y-91115000D03*
X150175000Y-92385000D03*
X150175000Y-93655000D03*
X155325000Y-93655000D03*
X155325000Y-92385000D03*
X155325000Y-91115000D03*
X155325000Y-89845000D03*
D13*
X152275000Y-49000000D03*
X150725000Y-49000000D03*
D15*
X160462500Y-90250000D03*
X157537500Y-90250000D03*
D42*
X194900000Y-93750000D03*
X201900000Y-93750000D03*
D25*
X198400000Y-89000000D03*
D42*
X194900000Y-84450000D03*
X201900000Y-84450000D03*
D43*
X139025000Y-119125000D03*
D44*
X141525000Y-119125000D03*
D45*
X109600000Y-115800000D03*
D46*
X109600000Y-113260000D03*
X109600000Y-110720000D03*
X109600000Y-108180000D03*
D47*
X160500000Y-85000000D03*
D48*
X155050000Y-85000000D03*
X149600000Y-85000000D03*
D47*
X149500000Y-75000000D03*
D48*
X154950000Y-75000000D03*
X160400000Y-75000000D03*
D47*
X133000000Y-75000000D03*
D48*
X138450000Y-75000000D03*
X143900000Y-75000000D03*
D49*
X107600000Y-71275000D03*
D50*
X107600000Y-72525000D03*
X107600000Y-73775000D03*
X107600000Y-75025000D03*
X107600000Y-76275000D03*
X107600000Y-77525000D03*
D49*
X107600000Y-81775000D03*
D50*
X107600000Y-83025000D03*
X107600000Y-84275000D03*
X107600000Y-85525000D03*
X107600000Y-86775000D03*
X107600000Y-88025000D03*
D49*
X107600000Y-60775000D03*
D50*
X107600000Y-62025000D03*
X107600000Y-63275000D03*
X107600000Y-64525000D03*
X107600000Y-65775000D03*
X107600000Y-67025000D03*
D49*
X107600000Y-47600000D03*
D50*
X107600000Y-48850000D03*
X107600000Y-50100000D03*
X107600000Y-51350000D03*
X107600000Y-52600000D03*
X107600000Y-53850000D03*
X107600000Y-55100000D03*
X107600000Y-56350000D03*
D47*
X177000000Y-85000000D03*
D48*
X171550000Y-85000000D03*
X166100000Y-85000000D03*
D47*
X166000000Y-75000000D03*
D48*
X171450000Y-75000000D03*
X176900000Y-75000000D03*
D47*
X144000000Y-85000000D03*
D48*
X138550000Y-85000000D03*
X133100000Y-85000000D03*
D51*
X162500000Y-129500000D03*
X117500000Y-102500000D03*
X105500000Y-35000000D03*
X157500000Y-129500000D03*
X204500000Y-38750000D03*
X105500000Y-113750000D03*
X105500000Y-88750000D03*
X204500000Y-122500000D03*
X204500000Y-37500000D03*
X105500000Y-115000000D03*
X105500000Y-37500000D03*
X160000000Y-129500000D03*
X109900000Y-67100000D03*
X204500000Y-126250000D03*
X155000000Y-129500000D03*
X185000000Y-121250000D03*
X128750000Y-30500000D03*
X141250000Y-129500000D03*
X130000000Y-39250000D03*
X108100000Y-94100000D03*
X130250000Y-122000000D03*
X204500000Y-123750000D03*
X198750000Y-129500000D03*
X181250000Y-31250000D03*
X188750000Y-129500000D03*
X105500000Y-110000000D03*
X199500000Y-55000000D03*
X204500000Y-50000000D03*
X105500000Y-127500000D03*
X156250000Y-129500000D03*
X121250000Y-129500000D03*
X188000000Y-55000000D03*
X130000000Y-129500000D03*
X105500000Y-73750000D03*
X180000000Y-129500000D03*
X111650000Y-93150000D03*
X170500000Y-123750000D03*
X112300000Y-67100000D03*
X167225000Y-53000000D03*
X181250000Y-42500000D03*
X197500000Y-129500000D03*
X110500000Y-98500000D03*
X111150000Y-68150000D03*
X121200000Y-105000000D03*
X204500000Y-111250000D03*
X111925000Y-87125000D03*
X105500000Y-82500000D03*
X120000000Y-30500000D03*
X105500000Y-65000000D03*
X204500000Y-48750000D03*
X130250000Y-115750000D03*
X185500000Y-118750000D03*
X204500000Y-107500000D03*
X110900000Y-89650000D03*
X196250000Y-30500000D03*
X130250000Y-120750000D03*
X110900000Y-90650000D03*
X105500000Y-90000000D03*
X105500000Y-76250000D03*
X198250000Y-55000000D03*
X190000000Y-129500000D03*
X130250000Y-119500000D03*
X116150000Y-99650000D03*
X116250000Y-129500000D03*
X204500000Y-121250000D03*
X185500000Y-120000000D03*
X195500000Y-55000000D03*
X204500000Y-110000000D03*
X109900000Y-79400000D03*
X181250000Y-40000000D03*
X195000000Y-129500000D03*
X136250000Y-129500000D03*
X128750000Y-129500000D03*
X191250000Y-30500000D03*
X138750000Y-124000000D03*
X127500000Y-129500000D03*
X118750000Y-129500000D03*
X116500000Y-79900000D03*
X188750000Y-105000000D03*
X162750000Y-123750000D03*
X108100000Y-90500000D03*
X141250000Y-124000000D03*
X148750000Y-129500000D03*
X108100000Y-95500000D03*
X146250000Y-129500000D03*
X183750000Y-30500000D03*
X105500000Y-100000000D03*
X130000000Y-34250000D03*
X105500000Y-40000000D03*
X186250000Y-30500000D03*
X111250000Y-30500000D03*
X146250000Y-124000000D03*
X111650000Y-95400000D03*
X156250000Y-123750000D03*
X204500000Y-125000000D03*
X105500000Y-77500000D03*
X105500000Y-120000000D03*
X201250000Y-105000000D03*
X204500000Y-52500000D03*
X130250000Y-113250000D03*
X191250000Y-105000000D03*
X110900000Y-86150000D03*
X108100000Y-89300000D03*
X105500000Y-63750000D03*
X138750000Y-129500000D03*
X193750000Y-30500000D03*
X136250000Y-124000000D03*
X158750000Y-129500000D03*
X202500000Y-30500000D03*
X137500000Y-124000000D03*
X180000000Y-128250000D03*
X110000000Y-30500000D03*
X126250000Y-129500000D03*
X112650000Y-93150000D03*
X130250000Y-114500000D03*
X193750000Y-129500000D03*
X117500000Y-30500000D03*
X195000000Y-30500000D03*
X117500000Y-101100000D03*
X200000000Y-105000000D03*
X112400000Y-59150000D03*
X155000000Y-123750000D03*
X108100000Y-92900000D03*
X122500000Y-30500000D03*
X105500000Y-116250000D03*
X168750000Y-129500000D03*
X143750000Y-124000000D03*
X167500000Y-129500000D03*
X184000000Y-122250000D03*
X130000000Y-30500000D03*
X140000000Y-129500000D03*
X181250000Y-37500000D03*
X191000000Y-55000000D03*
X108700000Y-96500000D03*
X203250000Y-55000000D03*
X193750000Y-105000000D03*
X116500000Y-86650000D03*
X167225000Y-48100000D03*
X106250000Y-30500000D03*
X126250000Y-30500000D03*
X105500000Y-125000000D03*
X192500000Y-105000000D03*
X140000000Y-124000000D03*
X110300000Y-84300000D03*
X112700000Y-99300000D03*
X109500000Y-97500000D03*
X197500000Y-30500000D03*
X203750000Y-105000000D03*
X108750000Y-129500000D03*
X185000000Y-30500000D03*
X112500000Y-129500000D03*
X130000000Y-40400000D03*
X111250000Y-129500000D03*
X105500000Y-46250000D03*
X181250000Y-36250000D03*
X105500000Y-87500000D03*
X105500000Y-33750000D03*
X196250000Y-129500000D03*
X127500000Y-30500000D03*
X204500000Y-113750000D03*
X107500000Y-129500000D03*
X116500000Y-72900000D03*
X117500000Y-103750000D03*
X183750000Y-129500000D03*
X105500000Y-31250000D03*
X105500000Y-118750000D03*
X112700000Y-95400000D03*
X105500000Y-71250000D03*
X105500000Y-68750000D03*
X182500000Y-30500000D03*
X204500000Y-127500000D03*
X173750000Y-129500000D03*
X143750000Y-129500000D03*
X105500000Y-106250000D03*
X151250000Y-129500000D03*
X130000000Y-33000000D03*
X145000000Y-124000000D03*
X105500000Y-41250000D03*
X201250000Y-129500000D03*
X120000000Y-129500000D03*
X177500000Y-129500000D03*
X198750000Y-105000000D03*
X200750000Y-55000000D03*
X130000000Y-43000000D03*
X105500000Y-91250000D03*
X105500000Y-95000000D03*
X183000000Y-123250000D03*
X109900000Y-69150000D03*
X204500000Y-106250000D03*
X110700000Y-74900000D03*
X202000000Y-55000000D03*
X181250000Y-41250000D03*
X108900000Y-67100000D03*
X105500000Y-61250000D03*
X123750000Y-30500000D03*
X111100000Y-67100000D03*
X130000000Y-41700000D03*
X188750000Y-30500000D03*
X108650000Y-59150000D03*
X111500000Y-74100000D03*
X204500000Y-40000000D03*
X111900000Y-90650000D03*
X105500000Y-101250000D03*
X181250000Y-43750000D03*
X117500000Y-105000000D03*
X111300000Y-83500000D03*
X181250000Y-129500000D03*
X178750000Y-129500000D03*
X105500000Y-32500000D03*
X185000000Y-129500000D03*
X181250000Y-38750000D03*
X200000000Y-30500000D03*
X198750000Y-30500000D03*
X116800000Y-60000000D03*
X152500000Y-129500000D03*
X135000000Y-129500000D03*
X105500000Y-85000000D03*
X131250000Y-124000000D03*
X117500000Y-129500000D03*
X110900000Y-87150000D03*
X130000000Y-45600000D03*
X204500000Y-42500000D03*
X105500000Y-45000000D03*
X204500000Y-31250000D03*
X204500000Y-41250000D03*
X137500000Y-129500000D03*
X172500000Y-129500000D03*
X133750000Y-129500000D03*
X105500000Y-111250000D03*
X130000000Y-38000000D03*
X120000000Y-105000000D03*
X192500000Y-55000000D03*
X105500000Y-97500000D03*
X134246903Y-47771903D03*
X204500000Y-128750000D03*
X180000000Y-127000000D03*
X171250000Y-129500000D03*
X132500000Y-129500000D03*
X130250000Y-123250000D03*
X191250000Y-129500000D03*
X204500000Y-45000000D03*
X187500000Y-129500000D03*
X109900000Y-59150000D03*
X187500000Y-30500000D03*
X125000000Y-129500000D03*
X105500000Y-108750000D03*
X109900000Y-75650000D03*
X105500000Y-128750000D03*
X192500000Y-30500000D03*
X130000000Y-44300000D03*
X130000000Y-35500000D03*
X118750000Y-105000000D03*
X105500000Y-121250000D03*
X204500000Y-112500000D03*
X115000000Y-30500000D03*
X123750000Y-129500000D03*
X197000000Y-55000000D03*
X105500000Y-86250000D03*
X105500000Y-112500000D03*
X204500000Y-35000000D03*
X194000000Y-55000000D03*
X204500000Y-117500000D03*
X113750000Y-129500000D03*
X105500000Y-92500000D03*
X204500000Y-33750000D03*
X204500000Y-43750000D03*
X111500000Y-99300000D03*
X145000000Y-129500000D03*
X147500000Y-124000000D03*
X204500000Y-118750000D03*
X105500000Y-107500000D03*
X116400000Y-93150000D03*
X135900000Y-53250000D03*
X150000000Y-129500000D03*
X125000000Y-30500000D03*
X163750000Y-129500000D03*
X204500000Y-108750000D03*
X147500000Y-129500000D03*
X105500000Y-96250000D03*
X170000000Y-129500000D03*
X105500000Y-122500000D03*
X161250000Y-129500000D03*
X181250000Y-32500000D03*
X105500000Y-42500000D03*
X105500000Y-83750000D03*
X130250000Y-117000000D03*
X190000000Y-105000000D03*
X201250000Y-30500000D03*
X105500000Y-102500000D03*
X202500000Y-129500000D03*
X105500000Y-66250000D03*
X192500000Y-129500000D03*
X105500000Y-36250000D03*
X135000000Y-124000000D03*
X181250000Y-35000000D03*
X113350000Y-59150000D03*
X116250000Y-30500000D03*
X105500000Y-78750000D03*
X108750000Y-30500000D03*
X112500000Y-30500000D03*
X204500000Y-120000000D03*
X109900000Y-78150000D03*
X203750000Y-129500000D03*
X130000000Y-31750000D03*
X150725000Y-53000000D03*
X105500000Y-80000000D03*
X113750000Y-30500000D03*
X106250000Y-129500000D03*
X105500000Y-62500000D03*
X105500000Y-98750000D03*
X181000000Y-125000000D03*
X105500000Y-67500000D03*
X197500000Y-105000000D03*
X204500000Y-47500000D03*
X110000000Y-129500000D03*
X121250000Y-30500000D03*
X105500000Y-117500000D03*
X164000000Y-123750000D03*
X132500000Y-124000000D03*
X185500000Y-117500000D03*
X204500000Y-46250000D03*
X204500000Y-53750000D03*
X181250000Y-45000000D03*
X130000000Y-36750000D03*
X204500000Y-55000000D03*
X111900000Y-89650000D03*
X108100000Y-91700000D03*
X105500000Y-81250000D03*
X105500000Y-105000000D03*
X131250000Y-129500000D03*
X111150000Y-59150000D03*
X130250000Y-118250000D03*
X153750000Y-129500000D03*
X200000000Y-129500000D03*
X122500000Y-129500000D03*
X142500000Y-124000000D03*
X105500000Y-126250000D03*
X150725000Y-48100000D03*
X105500000Y-93750000D03*
X204500000Y-51250000D03*
X186250000Y-129500000D03*
X133750000Y-124000000D03*
X176250000Y-129500000D03*
X105500000Y-43750000D03*
X180000000Y-125750000D03*
X190000000Y-30500000D03*
X196250000Y-105000000D03*
X185500000Y-116250000D03*
X117500000Y-99900000D03*
X175000000Y-129500000D03*
X165000000Y-129500000D03*
X166250000Y-129500000D03*
X111900000Y-86150000D03*
X204500000Y-115000000D03*
X105500000Y-38750000D03*
X181250000Y-33750000D03*
X107500000Y-30500000D03*
X203750000Y-30500000D03*
X182000000Y-124250000D03*
X182500000Y-129500000D03*
X189500000Y-55000000D03*
X105500000Y-103750000D03*
X109900000Y-76900000D03*
X116400000Y-66150000D03*
X110100000Y-85300000D03*
X105500000Y-72500000D03*
X105500000Y-60000000D03*
X118750000Y-30500000D03*
X142500000Y-129500000D03*
X171750000Y-123750000D03*
X105500000Y-75000000D03*
X109900000Y-68150000D03*
X115000000Y-129500000D03*
X202500000Y-105000000D03*
X204500000Y-36250000D03*
X195000000Y-105000000D03*
X204500000Y-116250000D03*
X105500000Y-70000000D03*
X105500000Y-123750000D03*
X204500000Y-32500000D03*
X114900000Y-67795000D03*
X152500000Y-127592500D03*
X114900000Y-74595000D03*
X170000000Y-52000000D03*
X114900000Y-60995000D03*
X115150000Y-94995000D03*
X175750000Y-127592500D03*
X137155000Y-52000000D03*
X153500000Y-52000000D03*
X160250000Y-127592500D03*
X168000000Y-127592500D03*
X114900000Y-81395000D03*
X114900000Y-88195000D03*
X151750000Y-92000000D03*
X136250000Y-92000000D03*
X152750000Y-91000000D03*
X141200001Y-102100000D03*
X169500000Y-91000000D03*
X130800000Y-101950000D03*
X152750000Y-92000000D03*
X135250000Y-92000000D03*
X131700000Y-101050000D03*
X129800000Y-101050000D03*
X168500000Y-91000000D03*
X125350000Y-96700000D03*
X124650000Y-85205000D03*
X151750000Y-91000000D03*
X168500000Y-92000000D03*
X130750000Y-101050000D03*
X131700000Y-101950000D03*
X136250000Y-91000000D03*
X169500000Y-92000000D03*
X135250000Y-91000000D03*
X124950000Y-92900000D03*
X170000000Y-49365000D03*
X153400000Y-49365000D03*
X137125437Y-49878472D03*
X152522856Y-56897550D03*
X124100000Y-69225000D03*
X112900000Y-71700000D03*
X114159803Y-89725000D03*
X124100000Y-76025000D03*
X168315451Y-56287147D03*
X112900000Y-64650000D03*
X114050000Y-82725000D03*
X122650000Y-88025000D03*
X122650000Y-81225000D03*
X152961530Y-50521530D03*
X177500000Y-46500000D03*
X176500000Y-46500000D03*
X177500000Y-45500000D03*
X175500000Y-46500000D03*
X174500000Y-45500000D03*
X175000000Y-46000000D03*
X176000000Y-46000000D03*
X176500000Y-45500000D03*
X175500000Y-45500000D03*
X177000000Y-46000000D03*
X161000000Y-45500000D03*
X160000000Y-45500000D03*
X160500000Y-46000000D03*
X159000000Y-45500000D03*
X160000000Y-46500000D03*
X158000000Y-45500000D03*
X161000000Y-46500000D03*
X159500000Y-46000000D03*
X158500000Y-46000000D03*
X159000000Y-46500000D03*
X143800000Y-46750000D03*
X142300000Y-46100000D03*
X142800000Y-45500000D03*
X144800000Y-46750000D03*
X143300000Y-46100000D03*
X144300000Y-46100000D03*
X143750000Y-45500000D03*
X142800000Y-46750000D03*
X144800000Y-45500000D03*
X141800000Y-45500000D03*
X169552429Y-50391204D03*
X137090429Y-51002084D03*
X121375000Y-77135000D03*
X166302115Y-56325000D03*
X150500000Y-56935050D03*
X121375000Y-70335000D03*
X131743661Y-62743661D03*
X121375000Y-63535000D03*
X114150000Y-90825000D03*
X112375000Y-72700000D03*
X114050000Y-84075000D03*
X112900000Y-65900000D03*
X173800000Y-101250000D03*
X140732111Y-101216210D03*
X157200000Y-101250000D03*
X124150000Y-70700000D03*
X149087347Y-57612653D03*
X166700000Y-57775000D03*
X124248475Y-77405909D03*
X121375000Y-89465000D03*
X149250000Y-103250000D03*
X151499233Y-56895868D03*
X121375000Y-69065000D03*
X165500000Y-103000000D03*
X121375000Y-96265000D03*
X167301774Y-56298775D03*
X121375000Y-75865000D03*
X131737018Y-61725000D03*
X121375000Y-62265000D03*
X165460000Y-127592500D03*
X170540000Y-127592500D03*
X178290000Y-127592500D03*
X173210000Y-127592500D03*
X157710000Y-127592500D03*
X162790000Y-127592500D03*
X150262653Y-103262653D03*
X123400000Y-93650000D03*
X123400000Y-100400000D03*
X166512653Y-103012653D03*
X155040000Y-127592500D03*
X149960000Y-127592500D03*
D52*
X139050000Y-61025000D02*
X138325000Y-61750000D01*
X134113604Y-59450000D02*
X138748004Y-59450000D01*
X139050000Y-59751996D02*
X139050000Y-61025000D01*
X138748004Y-59450000D02*
X139050000Y-59751996D01*
X131813607Y-61749997D02*
X134113604Y-59450000D01*
X131762015Y-61749997D02*
X131813607Y-61749997D01*
X131737018Y-61725000D02*
X131762015Y-61749997D01*
D53*
X114150000Y-65225000D02*
X114150000Y-66625000D01*
X114150000Y-87125000D02*
X116025000Y-87125000D01*
X113675000Y-67100000D02*
X114150000Y-66625000D01*
X116425000Y-98805000D02*
X116425000Y-99375000D01*
X114200000Y-99775000D02*
X116025000Y-99775000D01*
X112650000Y-93150000D02*
X112650000Y-92650000D01*
X113925000Y-73125000D02*
X112900000Y-74150000D01*
X116425000Y-79825000D02*
X116500000Y-79900000D01*
X116425000Y-78405000D02*
X116425000Y-79825000D01*
X167225000Y-48100000D02*
X167250000Y-48075000D01*
D52*
X167225000Y-49118770D02*
X167225000Y-48881230D01*
D53*
X116425000Y-72825000D02*
X116500000Y-72900000D01*
X112300000Y-67100000D02*
X113675000Y-67100000D01*
X115400000Y-93150000D02*
X116400000Y-93150000D01*
X116425000Y-66125000D02*
X116400000Y-66150000D01*
X116425000Y-92005000D02*
X116425000Y-93125000D01*
D52*
X167343770Y-49000000D02*
X167515948Y-49000000D01*
D53*
X114150000Y-73125000D02*
X113925000Y-73125000D01*
X114725000Y-92475000D02*
X115400000Y-93150000D01*
X134246903Y-47771903D02*
X134475000Y-48000000D01*
X116425000Y-93125000D02*
X116400000Y-93150000D01*
X116025000Y-87125000D02*
X116500000Y-86650000D01*
X155025000Y-48095000D02*
X154395000Y-48095000D01*
X150725000Y-49750000D02*
X150725000Y-49000000D01*
D52*
X150725000Y-48854526D02*
X150725000Y-49145474D01*
D53*
X112650000Y-92650000D02*
X112825000Y-92475000D01*
X116425000Y-85205000D02*
X116425000Y-86575000D01*
X114150000Y-92475000D02*
X114150000Y-94125000D01*
X114150000Y-80125000D02*
X111300000Y-82975000D01*
D52*
X150870474Y-49000000D02*
X151015948Y-49000000D01*
D53*
X152810828Y-48100000D02*
X155020000Y-48100000D01*
X114150000Y-85725000D02*
X114150000Y-87125000D01*
D52*
X167225000Y-49118770D02*
X167225000Y-52000000D01*
D53*
X116425000Y-99375000D02*
X116150000Y-99650000D01*
X136555828Y-48095000D02*
X138775000Y-48095000D01*
X116425000Y-71605000D02*
X116425000Y-72825000D01*
X114200000Y-99775000D02*
X113175000Y-99775000D01*
X150750000Y-48075000D02*
X152785828Y-48075000D01*
X114150000Y-66625000D02*
X115925000Y-66625000D01*
X167225000Y-52000000D02*
X167225000Y-48100000D01*
X150725000Y-53000000D02*
X150725000Y-52000000D01*
X116275000Y-80125000D02*
X116500000Y-79900000D01*
D52*
X134593770Y-49000000D02*
X134712540Y-49000000D01*
D53*
X114150000Y-80125000D02*
X116275000Y-80125000D01*
X111300000Y-82975000D02*
X111300000Y-83500000D01*
X155020000Y-48100000D02*
X155025000Y-48095000D01*
X150725000Y-48100000D02*
X150750000Y-48075000D01*
X113350000Y-59150000D02*
X112400000Y-59150000D01*
X114150000Y-73125000D02*
X116275000Y-73125000D01*
X116425000Y-86575000D02*
X116500000Y-86650000D01*
X116425000Y-64805000D02*
X116425000Y-66125000D01*
X135725000Y-53250000D02*
X134475000Y-52000000D01*
X113175000Y-99775000D02*
X112700000Y-99300000D01*
X116275000Y-73125000D02*
X116500000Y-72900000D01*
X134475000Y-52000000D02*
X134475000Y-51000000D01*
X150725000Y-48100000D02*
X150725000Y-49750000D01*
X134475000Y-49750000D02*
X134475000Y-49000000D01*
X167250000Y-48075000D02*
X171505000Y-48075000D01*
X114150000Y-71725000D02*
X114150000Y-73125000D01*
X112850000Y-74100000D02*
X111500000Y-74100000D01*
X134246903Y-47771903D02*
X136232731Y-47771903D01*
X167225000Y-53000000D02*
X167225000Y-52000000D01*
X113925000Y-59150000D02*
X113350000Y-59150000D01*
X114150000Y-78725000D02*
X114150000Y-80125000D01*
X114150000Y-59375000D02*
X113925000Y-59150000D01*
X150725000Y-52000000D02*
X150725000Y-49750000D01*
X171505000Y-48075000D02*
X171525000Y-48095000D01*
X116025000Y-99775000D02*
X116150000Y-99650000D01*
X135900000Y-53250000D02*
X135725000Y-53250000D01*
X134475000Y-48000000D02*
X134475000Y-49750000D01*
X134475000Y-50500000D02*
X134475000Y-49750000D01*
X152785828Y-48075000D02*
X152810828Y-48100000D01*
X114150000Y-92475000D02*
X114725000Y-92475000D01*
D52*
X167343770Y-49000000D02*
X167462540Y-49000000D01*
D53*
X114150000Y-87125000D02*
X111925000Y-87125000D01*
X112900000Y-74150000D02*
X112850000Y-74100000D01*
D52*
X171506064Y-48113935D02*
X171525000Y-48095000D01*
D53*
X136232731Y-47771903D02*
X136555828Y-48095000D01*
X112825000Y-92475000D02*
X114150000Y-92475000D01*
X115925000Y-66625000D02*
X116400000Y-66150000D01*
D52*
X150870474Y-49000000D02*
G75*
G02*
X150827827Y-48897096I26J60300D01*
G01*
X134593770Y-49000000D02*
G75*
G02*
X134558994Y-48916027I30J49200D01*
G01*
X150725000Y-48854526D02*
G75*
G03*
X150827904Y-48897173I60300J26D01*
G01*
X167343770Y-49000000D02*
G75*
G02*
X167308993Y-48916027I30J49200D01*
G01*
X134593770Y-49000000D02*
G75*
G03*
X134475000Y-49118770I30J-118800D01*
G01*
X167225000Y-49118770D02*
G75*
G02*
X167343770Y-49000000I118800J-30D01*
G01*
X134558983Y-48916016D02*
G75*
G03*
X134474967Y-49118770I202717J-202784D01*
G01*
X171460350Y-48132871D02*
G75*
G03*
X171506044Y-48113915I-50J64671D01*
G01*
X167225000Y-48881230D02*
G75*
G03*
X167308973Y-48916007I49200J30D01*
G01*
X150725000Y-49145474D02*
G75*
G02*
X150870474Y-49000000I145500J-26D01*
G01*
D53*
X114300000Y-60775000D02*
X114520000Y-60995000D01*
D52*
X138775000Y-51905000D02*
X137250000Y-51905000D01*
D53*
X106618624Y-47650000D02*
X105865375Y-48403249D01*
X107475000Y-81650000D02*
X107600000Y-81775000D01*
X111625000Y-77200000D02*
X114150000Y-74675000D01*
X116425000Y-81395000D02*
X114900000Y-81395000D01*
X171430000Y-52000000D02*
X171525000Y-51905000D01*
X109775000Y-81775000D02*
X111625000Y-79925000D01*
X107600000Y-60775000D02*
X114000000Y-60775000D01*
X111625000Y-79925000D02*
X111625000Y-77200000D01*
X114900000Y-60995000D02*
X116425000Y-60995000D01*
X107600000Y-81775000D02*
X109775000Y-81775000D01*
D52*
X137060361Y-51905361D02*
X136154989Y-51905361D01*
D53*
X170000000Y-52000000D02*
X171430000Y-52000000D01*
X109902945Y-71275000D02*
X113002945Y-68175000D01*
X114520000Y-60995000D02*
X114900000Y-60995000D01*
X114900000Y-81395000D02*
X114430000Y-81395000D01*
D52*
X137155000Y-52000000D02*
X137060361Y-51905361D01*
D53*
X116425000Y-88195000D02*
X114900000Y-88195000D01*
X107550000Y-47650000D02*
X106618624Y-47650000D01*
X138680000Y-52000000D02*
X138775000Y-51905000D01*
D54*
X114900000Y-74595000D02*
X114230000Y-74595000D01*
D53*
X114830000Y-94995000D02*
X114150000Y-95675000D01*
X168775000Y-52000000D02*
X170000000Y-52000000D01*
X114780000Y-67795000D02*
X114300000Y-68275000D01*
X113002945Y-68175000D02*
X114150000Y-68175000D01*
D54*
X114230000Y-74595000D02*
X114150000Y-74675000D01*
D52*
X136072500Y-51952500D02*
X136025000Y-52000000D01*
D53*
X114900000Y-67795000D02*
X114780000Y-67795000D01*
X107650000Y-81725000D02*
X107600000Y-81775000D01*
X114300000Y-68275000D02*
X114275000Y-68300000D01*
X107750000Y-60625000D02*
X107600000Y-60775000D01*
X114430000Y-81395000D02*
X114150000Y-81675000D01*
X114000000Y-60775000D02*
X114150000Y-60925000D01*
D54*
X116425000Y-74595000D02*
X114900000Y-74595000D01*
D52*
X137250000Y-51905000D02*
X137155000Y-52000000D01*
D53*
X152275000Y-52000000D02*
X153500000Y-52000000D01*
X114900000Y-88195000D02*
X114630000Y-88195000D01*
X116425000Y-67795000D02*
X116400000Y-67795000D01*
X136025000Y-52000000D02*
X138680000Y-52000000D01*
X105865375Y-48403249D02*
X105865375Y-59040375D01*
X105865375Y-59040375D02*
X107600000Y-60775000D01*
D54*
X114150000Y-74675000D02*
X114150000Y-74775000D01*
D53*
X116425000Y-94995000D02*
X114830000Y-94995000D01*
X107600000Y-71275000D02*
X109902945Y-71275000D01*
X114630000Y-88195000D02*
X114150000Y-88675000D01*
X116400000Y-67795000D02*
X114900000Y-67795000D01*
X153500000Y-52000000D02*
X153595000Y-51905000D01*
X153595000Y-51905000D02*
X155025000Y-51905000D01*
D52*
X136154989Y-51905361D02*
G75*
G03*
X136072487Y-51952486I56411J-194539D01*
G01*
X125350000Y-96700000D02*
X125025000Y-96375000D01*
D53*
X152750000Y-91000000D02*
X151750000Y-91000000D01*
D52*
X121375000Y-92005000D02*
X121430000Y-91950000D01*
D53*
X152365000Y-92385000D02*
X152750000Y-92000000D01*
X135500000Y-92250000D02*
X135500000Y-95225000D01*
X130800000Y-101950000D02*
X130750000Y-101900000D01*
X151750000Y-91000000D02*
X152750000Y-92000000D01*
X136250000Y-91000000D02*
X136250000Y-92000000D01*
X133075000Y-95250000D02*
X135475000Y-95250000D01*
X135250000Y-92000000D02*
X136250000Y-92000000D01*
X141525000Y-119125000D02*
X141650000Y-119250000D01*
X149792500Y-120075000D02*
X149960000Y-119907500D01*
X152750000Y-91000000D02*
X152750000Y-92000000D01*
X151750000Y-92000000D02*
X151975000Y-92225000D01*
X141200001Y-103200001D02*
X151900000Y-113900000D01*
X131700000Y-101950000D02*
X132100000Y-101550000D01*
X136250000Y-92000000D02*
X135250000Y-91000000D01*
X135250000Y-91000000D02*
X136250000Y-91000000D01*
X150375000Y-117525000D02*
X150000000Y-117525000D01*
X135250000Y-92000000D02*
X135500000Y-92250000D01*
D52*
X123400000Y-82775000D02*
X124025000Y-82775000D01*
D53*
X168500000Y-91000000D02*
X169500000Y-92000000D01*
X150175000Y-92385000D02*
X152365000Y-92385000D01*
X133675000Y-92385000D02*
X135865000Y-92385000D01*
D52*
X125350000Y-97098004D02*
X123698004Y-98750000D01*
D53*
X151900000Y-116000000D02*
X150375000Y-117525000D01*
D52*
X121430000Y-85150000D02*
X124595000Y-85150000D01*
X121430000Y-98750000D02*
X121375000Y-98805000D01*
D53*
X168500000Y-91000000D02*
X169500000Y-91000000D01*
X168500000Y-92000000D02*
X169500000Y-92000000D01*
X169115000Y-92385000D02*
X169500000Y-92000000D01*
D52*
X124075000Y-89575000D02*
X124650000Y-90150000D01*
D53*
X151912500Y-95312500D02*
X151975000Y-95250000D01*
X151900000Y-113900000D02*
X151900000Y-116000000D01*
D52*
X123698004Y-98750000D02*
X121430000Y-98750000D01*
X124950000Y-92900000D02*
X124950000Y-92250000D01*
D53*
X168500000Y-91000000D02*
X168725000Y-91225000D01*
X135250000Y-92000000D02*
X136250000Y-91000000D01*
X141650000Y-119250000D02*
X146122725Y-119250000D01*
X168725000Y-91225000D02*
X168725000Y-95000000D01*
D52*
X124025000Y-82775000D02*
X124650000Y-83400000D01*
D53*
X149960000Y-117565000D02*
X150000000Y-117525000D01*
D52*
X125350000Y-96700000D02*
X125350000Y-97098004D01*
X121375000Y-85205000D02*
X121430000Y-85150000D01*
X124595000Y-85150000D02*
X124650000Y-85205000D01*
D53*
X151750000Y-91000000D02*
X151750000Y-92000000D01*
X135865000Y-92385000D02*
X136250000Y-92000000D01*
D52*
X121430000Y-91950000D02*
X124650000Y-91950000D01*
D53*
X132100000Y-101550000D02*
X134250000Y-101550000D01*
X151750000Y-92000000D02*
X152750000Y-92000000D01*
X130100000Y-97900000D02*
X130100000Y-100400000D01*
X146947725Y-120075000D02*
X149792500Y-120075000D01*
D52*
X124950000Y-92250000D02*
X124650000Y-91950000D01*
X124650000Y-83400000D02*
X124650000Y-85205000D01*
D53*
X150000000Y-117525000D02*
X149000000Y-117525000D01*
X166925000Y-92385000D02*
X169115000Y-92385000D01*
X149000000Y-118022725D02*
X146947725Y-120075000D01*
X169500000Y-91000000D02*
X169500000Y-92000000D01*
D52*
X123400000Y-89575000D02*
X124075000Y-89575000D01*
D53*
X168662500Y-95312500D02*
X168725000Y-95250000D01*
D52*
X124650000Y-90150000D02*
X124650000Y-91950000D01*
D53*
X146122725Y-119250000D02*
X146947725Y-120075000D01*
X130100000Y-100400000D02*
X130750000Y-101050000D01*
X169500000Y-91000000D02*
X168500000Y-92000000D01*
X151975000Y-92225000D02*
X151975000Y-95250000D01*
D52*
X125025000Y-96375000D02*
X123400000Y-96375000D01*
D53*
X150000000Y-95312500D02*
X151912500Y-95312500D01*
X149000000Y-117525000D02*
X149000000Y-118022725D01*
X135250000Y-91000000D02*
X135250000Y-92000000D01*
X151750000Y-92000000D02*
X152750000Y-91000000D01*
X149960000Y-119907500D02*
X149960000Y-117565000D01*
X166750000Y-95312500D02*
X168662500Y-95312500D01*
X168500000Y-91000000D02*
X168500000Y-92000000D01*
X135500000Y-95225000D02*
X135475000Y-95250000D01*
X141200001Y-102100000D02*
X141200001Y-103200001D01*
D52*
X168781250Y-48993750D02*
X168787500Y-48987500D01*
X170000000Y-49365000D02*
X169915658Y-49280658D01*
X168957500Y-49182500D02*
X168781250Y-49006250D01*
X169875000Y-49182500D02*
X169875000Y-49125000D01*
X169398093Y-49365000D02*
X171525000Y-49365000D01*
X169875000Y-49182500D02*
G75*
G03*
X169915662Y-49280654I138800J0D01*
G01*
X168781250Y-48993750D02*
G75*
G03*
X168781250Y-49006250I6250J-6250D01*
G01*
X169398093Y-49365000D02*
G75*
G02*
X168957502Y-49182498I7J623100D01*
G01*
X153400000Y-49365000D02*
X153400000Y-49265310D01*
X152898093Y-49365000D02*
X155025000Y-49365000D01*
X153375000Y-49182500D02*
X153375000Y-49125000D01*
X153400000Y-49265310D02*
X153395947Y-49261257D01*
X152457500Y-49182500D02*
X152275000Y-49000000D01*
X153395947Y-49261257D02*
G75*
G02*
X153375006Y-49182500I162453J85357D01*
G01*
X152898093Y-49365000D02*
G75*
G02*
X152457502Y-49182498I7J623100D01*
G01*
D55*
X147787500Y-66750000D02*
X147787500Y-70787500D01*
X147787500Y-69000000D02*
X147787500Y-66750000D01*
X147787500Y-70787500D02*
X149500000Y-72500000D01*
X149500000Y-72500000D02*
X149500000Y-75000000D01*
X160481250Y-85268750D02*
X160500000Y-85250000D01*
X160462500Y-85314016D02*
X160462500Y-92750000D01*
X160462500Y-85314016D02*
G75*
G02*
X160481245Y-85268745I64000J16D01*
G01*
D52*
X136207500Y-49182500D02*
X136025000Y-49000000D01*
X137250000Y-49753909D02*
X137250000Y-49365000D01*
X136648093Y-49365000D02*
X138775000Y-49365000D01*
X137125437Y-49878472D02*
X137250000Y-49753909D01*
X136207500Y-49182500D02*
G75*
G03*
X136648093Y-49365002I440600J440600D01*
G01*
D53*
X155050000Y-85189950D02*
X158550000Y-88689950D01*
X160400000Y-67615000D02*
X157825000Y-67615000D01*
X165500000Y-117525000D02*
X165000000Y-117525000D01*
X155050000Y-85000000D02*
X155050000Y-85189950D01*
X125007500Y-69225000D02*
X125202500Y-69420000D01*
X123400000Y-69225000D02*
X122900000Y-69725000D01*
D52*
X154525000Y-64750000D02*
X156437500Y-64750000D01*
D53*
X163825000Y-116600000D02*
X164750000Y-117525000D01*
X122349999Y-71605000D02*
X121375000Y-71605000D01*
X158550000Y-88689950D02*
X158550000Y-110764950D01*
X166125000Y-117525000D02*
X165500000Y-117525000D01*
X163825000Y-116039950D02*
X163825000Y-116600000D01*
X167650000Y-116000000D02*
X166125000Y-117525000D01*
D52*
X153331950Y-56897550D02*
X157525000Y-61090600D01*
X152522856Y-56897550D02*
X153331950Y-56897550D01*
D53*
X124100000Y-69225000D02*
X125007500Y-69225000D01*
X158550000Y-110764950D02*
X163825000Y-116039950D01*
D52*
X156437500Y-64750000D02*
X156500000Y-64687500D01*
X160337500Y-64687500D02*
X160400000Y-64750000D01*
D53*
X123400000Y-69225000D02*
X124100000Y-69225000D01*
X165460000Y-119907500D02*
X165460000Y-117565000D01*
X122900000Y-69725000D02*
X122900000Y-71054999D01*
X122900000Y-71054999D02*
X122349999Y-71605000D01*
D52*
X157525000Y-63662500D02*
X156500000Y-64687500D01*
X157525000Y-61090600D02*
X157525000Y-63662500D01*
D53*
X165460000Y-117565000D02*
X165500000Y-117525000D01*
X156500000Y-64687500D02*
X160337500Y-64687500D01*
D52*
X107600000Y-83025000D02*
X109338172Y-83025000D01*
X112200000Y-80163172D02*
X112200000Y-77600000D01*
X109338172Y-83025000D02*
X112200000Y-80163172D01*
X113935000Y-75865000D02*
X116425000Y-75865000D01*
X112200000Y-77600000D02*
X113935000Y-75865000D01*
X116125000Y-96565000D02*
X116425000Y-96265000D01*
X109900000Y-95263604D02*
X111201396Y-96565000D01*
X108411396Y-85525000D02*
X109900000Y-87013604D01*
X109900000Y-87013604D02*
X109900000Y-95263604D01*
X107600000Y-85525000D02*
X108411396Y-85525000D01*
X111201396Y-96565000D02*
X116125000Y-96565000D01*
X109466117Y-72525000D02*
X107600000Y-72525000D01*
X116425000Y-69065000D02*
X112926117Y-69065000D01*
X112926117Y-69065000D02*
X109466117Y-72525000D01*
X112900000Y-71700000D02*
X111563909Y-71700000D01*
X108238909Y-75025000D02*
X107600000Y-75025000D01*
X111563909Y-71700000D02*
X108238909Y-75025000D01*
X114419803Y-89465000D02*
X116425000Y-89465000D01*
X114159803Y-89725000D02*
X114419803Y-89465000D01*
D53*
X174075000Y-67615000D02*
X177000000Y-67615000D01*
X173250000Y-117525000D02*
X172500000Y-117525000D01*
X173112500Y-64750000D02*
X177000000Y-64750000D01*
X123400000Y-77354999D02*
X123400000Y-76025000D01*
X173250000Y-117525000D02*
X173210000Y-117565000D01*
X122349999Y-78405000D02*
X123400000Y-77354999D01*
X171575000Y-116600000D02*
X171575000Y-115194586D01*
D52*
X168315451Y-56287147D02*
X169387147Y-56287147D01*
D53*
X172500000Y-117525000D02*
X171575000Y-116600000D01*
X173400000Y-105100000D02*
X175050000Y-103450000D01*
D52*
X172900000Y-64537500D02*
X173112500Y-64750000D01*
X172500000Y-59400000D02*
X172500000Y-60801412D01*
D53*
X173400000Y-113369586D02*
X173400000Y-105100000D01*
X121375000Y-78405000D02*
X122349999Y-78405000D01*
X123400000Y-76025000D02*
X124100000Y-76025000D01*
X175050000Y-103450000D02*
X175050000Y-89328122D01*
D52*
X174025000Y-63662500D02*
X173000000Y-64687500D01*
D53*
X171275000Y-64750000D02*
X172687500Y-64750000D01*
D52*
X174025000Y-62326412D02*
X174025000Y-63662500D01*
X169387147Y-56287147D02*
X172500000Y-59400000D01*
D53*
X125262500Y-76025000D02*
X125287500Y-76000000D01*
X171575000Y-115194586D02*
X173400000Y-113369586D01*
X175400000Y-116000000D02*
X173875000Y-117525000D01*
X171550000Y-85828122D02*
X171550000Y-85250000D01*
X172687500Y-64750000D02*
X172900000Y-64537500D01*
X173210000Y-117565000D02*
X173210000Y-119907500D01*
X124100000Y-76025000D02*
X125262500Y-76025000D01*
D52*
X172500000Y-60801412D02*
X174025000Y-62326412D01*
D53*
X173875000Y-117525000D02*
X173250000Y-117525000D01*
X175050000Y-89328122D02*
X171550000Y-85828122D01*
D52*
X107600000Y-62025000D02*
X113775000Y-62025000D01*
X113775000Y-62025000D02*
X114015000Y-62265000D01*
X114015000Y-62265000D02*
X116425000Y-62265000D01*
X114110000Y-82665000D02*
X116425000Y-82665000D01*
X112775000Y-64525000D02*
X107600000Y-64525000D01*
X114050000Y-82725000D02*
X114110000Y-82665000D01*
X112900000Y-64650000D02*
X112775000Y-64525000D01*
D53*
X128925000Y-100000000D02*
X128175000Y-99250000D01*
X128200000Y-92825000D02*
X123400000Y-88025000D01*
X121545000Y-81225000D02*
X121375000Y-81395000D01*
X128030000Y-94995000D02*
X128200000Y-95165000D01*
X121545000Y-88025000D02*
X121375000Y-88195000D01*
X123400000Y-81225000D02*
X122650000Y-81225000D01*
X123400000Y-88025000D02*
X122650000Y-88025000D01*
X122650000Y-88025000D02*
X121545000Y-88025000D01*
X128175000Y-99250000D02*
X128175000Y-97925000D01*
X121375000Y-94995000D02*
X128030000Y-94995000D01*
X128200000Y-97900000D02*
X128200000Y-95165000D01*
X128175000Y-97925000D02*
X128200000Y-97900000D01*
X128200000Y-95165000D02*
X128200000Y-92825000D01*
X122650000Y-81225000D02*
X121545000Y-81225000D01*
D52*
X139562500Y-63250000D02*
X140000000Y-62812500D01*
X138325000Y-63250000D02*
X139562500Y-63250000D01*
D53*
X135237500Y-97187500D02*
X135425000Y-97000000D01*
X133500000Y-97187500D02*
X135237500Y-97187500D01*
X172312500Y-63250000D02*
X172900000Y-62662500D01*
X171325000Y-63250000D02*
X172312500Y-63250000D01*
X168487500Y-97187500D02*
X168675000Y-97000000D01*
X166750000Y-97187500D02*
X168487500Y-97187500D01*
X138000000Y-85800000D02*
X138521878Y-85800000D01*
X157500000Y-119697500D02*
X157710000Y-119907500D01*
X157750000Y-117525000D02*
X158375000Y-117525000D01*
X123400000Y-63754999D02*
X123400000Y-62425000D01*
X158375000Y-117525000D02*
X159900000Y-116000000D01*
X143703682Y-67615000D02*
X141325000Y-67615000D01*
D52*
X138275000Y-64750000D02*
X139937500Y-64750000D01*
D53*
X157000000Y-117525000D02*
X157750000Y-117525000D01*
D52*
X129850000Y-62400000D02*
X131250000Y-61000000D01*
D53*
X138550000Y-85250000D02*
X138000000Y-85800000D01*
D52*
X133926794Y-58999000D02*
X138934814Y-58999000D01*
X141025000Y-63662500D02*
X140000000Y-64687500D01*
D53*
X157710000Y-117565000D02*
X157750000Y-117525000D01*
D52*
X125287500Y-62400000D02*
X129850000Y-62400000D01*
X140000000Y-64687500D02*
X143687500Y-64687500D01*
D53*
X142050000Y-89328122D02*
X142050000Y-102575000D01*
D52*
X143687500Y-64687500D02*
X143750000Y-64750000D01*
D53*
X123425000Y-62400000D02*
X125287500Y-62400000D01*
D52*
X139501000Y-59565186D02*
X139501000Y-59566600D01*
D53*
X122349999Y-64805000D02*
X123400000Y-63754999D01*
X157710000Y-119907500D02*
X157710000Y-117565000D01*
X123400000Y-62425000D02*
X123425000Y-62400000D01*
X138521878Y-85800000D02*
X142050000Y-89328122D01*
D52*
X141025000Y-61090600D02*
X141025000Y-63662500D01*
X139501000Y-59566600D02*
X141025000Y-61090600D01*
X131925794Y-61000000D02*
X133926794Y-58999000D01*
X131250000Y-61000000D02*
X131925794Y-61000000D01*
D53*
X142050000Y-102575000D02*
X157000000Y-117525000D01*
D52*
X138934814Y-58999000D02*
X139501000Y-59565186D01*
D53*
X121375000Y-64805000D02*
X122349999Y-64805000D01*
D52*
X139937500Y-64750000D02*
X140000000Y-64687500D01*
D53*
X143842500Y-67557500D02*
G75*
G02*
X143703682Y-67614993I-138800J138800D01*
G01*
D52*
X154575000Y-63000000D02*
X156312500Y-63000000D01*
X156312500Y-63000000D02*
X156500000Y-62812500D01*
D53*
X150000000Y-97187500D02*
X151737500Y-97187500D01*
X151737500Y-97187500D02*
X151925000Y-97000000D01*
D52*
X152505459Y-50635000D02*
X155025000Y-50635000D01*
X152342500Y-50567500D02*
X152275000Y-50500000D01*
X152342500Y-50567500D02*
G75*
G03*
X152505459Y-50635017I163000J163000D01*
G01*
D55*
X164287500Y-69000000D02*
X164287500Y-70787500D01*
X164287500Y-70787500D02*
X166000000Y-72500000D01*
X166000000Y-72500000D02*
X166000000Y-75000000D01*
X164287500Y-66750000D02*
X164287500Y-69000000D01*
X177000000Y-92685983D02*
X177000000Y-85603553D01*
X176981250Y-92731250D02*
X176962500Y-92750000D01*
X177000000Y-92685983D02*
G75*
G02*
X176981255Y-92731255I-64000J-17D01*
G01*
X177000000Y-85603553D02*
G75*
G02*
X177249920Y-85500080I146400J-47D01*
G01*
X133000000Y-72500000D02*
X133000000Y-75000000D01*
X131287500Y-70787500D02*
X133000000Y-72500000D01*
X131187500Y-67900000D02*
X131187500Y-70687500D01*
X131187500Y-70687500D02*
X131287500Y-70787500D01*
X143962500Y-85314016D02*
X143962500Y-92750000D01*
X143981250Y-85268750D02*
X144000000Y-85250000D01*
X143962500Y-85314016D02*
G75*
G02*
X143981245Y-85268745I64000J16D01*
G01*
D52*
X169661225Y-50500000D02*
X169750000Y-50500000D01*
X169552429Y-50391204D02*
X169661225Y-50500000D01*
X169005459Y-50635000D02*
X171525000Y-50635000D01*
X168870459Y-50500000D02*
X169025000Y-50500000D01*
X168842500Y-50567500D02*
G75*
G02*
X168870459Y-50499902I28000J28000D01*
G01*
X169005459Y-50635000D02*
G75*
G02*
X168842512Y-50567488I41J230500D01*
G01*
X136092500Y-50567500D02*
X136025000Y-50500000D01*
X136255459Y-50635000D02*
X138775000Y-50635000D01*
X136092500Y-50567500D02*
G75*
G03*
X136255459Y-50635017I163000J163000D01*
G01*
X173450001Y-68885000D02*
X173000000Y-68434999D01*
X170500000Y-65234052D02*
X171610948Y-66345000D01*
X171325000Y-60250000D02*
X170500000Y-61075000D01*
X170500000Y-61075000D02*
X170500000Y-65234052D01*
X174325000Y-68885000D02*
X173450001Y-68885000D01*
D53*
X174325000Y-68885000D02*
X173867316Y-68885000D01*
D52*
X171610948Y-66345000D02*
X174325000Y-66345000D01*
X173000000Y-68434999D02*
X173000000Y-66345000D01*
X173900000Y-66343659D02*
X173898659Y-66345000D01*
X166302115Y-56325000D02*
X169675000Y-59697885D01*
X169675000Y-59697885D02*
X169675000Y-60250000D01*
X123400000Y-97825000D02*
X121665000Y-97825000D01*
X121665000Y-97825000D02*
X121375000Y-97535000D01*
X135848004Y-96200000D02*
X136150000Y-96501996D01*
X127293604Y-85930000D02*
X123455000Y-85930000D01*
X133115640Y-93655000D02*
X132775000Y-93655000D01*
X132700000Y-96200000D02*
X135848004Y-96200000D01*
X131200000Y-98325000D02*
X131200000Y-89836396D01*
X132225000Y-93655000D02*
X132225000Y-91425000D01*
X132225000Y-93655000D02*
X132225000Y-95725000D01*
X132535000Y-91115000D02*
X133425000Y-91115000D01*
X133115640Y-93655000D02*
X132532279Y-93655000D01*
X133425000Y-93655000D02*
X132225000Y-93655000D01*
X135648004Y-99750000D02*
X132625000Y-99750000D01*
X132225000Y-95725000D02*
X132700000Y-96200000D01*
X132225000Y-91425000D02*
X132535000Y-91115000D01*
X132625000Y-99750000D02*
X131200000Y-98325000D01*
X131200000Y-89836396D02*
X127293604Y-85930000D01*
X123455000Y-85930000D02*
X123400000Y-85875000D01*
X136150000Y-96501996D02*
X136150000Y-99248004D01*
X136150000Y-99248004D02*
X135648004Y-99750000D01*
D53*
X169175000Y-68885000D02*
X167077500Y-68885000D01*
X167077500Y-68885000D02*
X166962500Y-69000000D01*
X167367500Y-66345000D02*
X166962500Y-66750000D01*
X169175000Y-66345000D02*
X167367500Y-66345000D01*
D56*
X140605000Y-90682500D02*
X141037500Y-90250000D01*
X139560852Y-91115000D02*
X138575000Y-91115000D01*
X140605000Y-90682500D02*
G75*
G02*
X139560852Y-91115022I-1044200J1044200D01*
G01*
X140585000Y-93202500D02*
X141037500Y-92750000D01*
X139492568Y-93655000D02*
X138575000Y-93655000D01*
X140585000Y-93202500D02*
G75*
G02*
X139492568Y-93654987I-1092400J1092400D01*
G01*
D52*
X153175000Y-59610050D02*
X153175000Y-60250000D01*
X150500000Y-56935050D02*
X153175000Y-59610050D01*
X157825000Y-68885000D02*
X157135000Y-68885000D01*
X154000000Y-65482696D02*
X154862304Y-66345000D01*
X156625000Y-68375000D02*
X156625000Y-66345000D01*
X157135000Y-68885000D02*
X156625000Y-68375000D01*
X156625000Y-66345000D02*
X157825000Y-66345000D01*
X154825000Y-60250000D02*
X154000000Y-61075000D01*
X154000000Y-61075000D02*
X154000000Y-65482696D01*
X154862304Y-66345000D02*
X156625000Y-66345000D01*
D53*
X123400000Y-91025000D02*
X121665000Y-91025000D01*
X121665000Y-91025000D02*
X121375000Y-90735000D01*
X150770000Y-68942500D02*
X150712500Y-69000000D01*
X150908817Y-68885000D02*
X152675000Y-68885000D01*
X150770000Y-68942500D02*
G75*
G02*
X150908817Y-68885007I138800J-138800D01*
G01*
X151403878Y-66345000D02*
X152675000Y-66345000D01*
X150915000Y-66547500D02*
X150712500Y-66750000D01*
X151403878Y-66345000D02*
G75*
G03*
X150915006Y-66547506I22J-691400D01*
G01*
D52*
X108724568Y-84275000D02*
X107600000Y-84275000D01*
X114150000Y-77075000D02*
X113361396Y-77075000D01*
X113361396Y-77075000D02*
X112650000Y-77786396D01*
X112650000Y-80349568D02*
X108724568Y-84275000D01*
X116365000Y-77075000D02*
X116425000Y-77135000D01*
X112650000Y-77786396D02*
X112650000Y-80349568D01*
X114150000Y-77075000D02*
X116365000Y-77075000D01*
X141325000Y-68885000D02*
X140635000Y-68885000D01*
X140000000Y-66500000D02*
X140155000Y-66345000D01*
X137500000Y-65234052D02*
X138610948Y-66345000D01*
X140155000Y-66345000D02*
X141325000Y-66345000D01*
X137500000Y-61075000D02*
X137500000Y-65234052D01*
X138610948Y-66345000D02*
X141325000Y-66345000D01*
X138325000Y-60250000D02*
X137500000Y-61075000D01*
X140635000Y-68885000D02*
X140000000Y-68250000D01*
X140000000Y-68250000D02*
X140000000Y-66500000D01*
X131743661Y-62743661D02*
X134237322Y-60250000D01*
X134237322Y-60250000D02*
X136675000Y-60250000D01*
X121400000Y-83935000D02*
X123010000Y-83935000D01*
X121275000Y-83935000D02*
X121400000Y-83935000D01*
X123042500Y-84117500D02*
X123225000Y-84300000D01*
X123010000Y-83935000D02*
X123300000Y-84225000D01*
D53*
X134395000Y-69067500D02*
X134212500Y-69250000D01*
X134835593Y-68885000D02*
X136425000Y-68885000D01*
X134835593Y-68885000D02*
G75*
G03*
X134395002Y-69067502I7J-623100D01*
G01*
X134903878Y-66345000D02*
X136425000Y-66345000D01*
X134415000Y-66547500D02*
X134212500Y-66750000D01*
X134415000Y-66547500D02*
G75*
G02*
X134903878Y-66344991I488900J-488900D01*
G01*
D52*
X109400000Y-95400000D02*
X112125000Y-98125000D01*
X115835000Y-98125000D02*
X116425000Y-97535000D01*
X109025000Y-86775000D02*
X109400000Y-87150000D01*
X107600000Y-86775000D02*
X109025000Y-86775000D01*
X114200000Y-98125000D02*
X115835000Y-98125000D01*
X112125000Y-98125000D02*
X114200000Y-98125000D01*
X109400000Y-87150000D02*
X109400000Y-95400000D01*
X111200305Y-72700000D02*
X107625305Y-76275000D01*
X114150000Y-90825000D02*
X116335000Y-90825000D01*
X112375000Y-72700000D02*
X111200305Y-72700000D01*
X116335000Y-90825000D02*
X116425000Y-90735000D01*
X107625305Y-76275000D02*
X107600000Y-76275000D01*
X116425000Y-70335000D02*
X115085000Y-70335000D01*
X114150000Y-70075000D02*
X112552513Y-70075000D01*
X112552513Y-70075000D02*
X108852513Y-73775000D01*
X108852513Y-73775000D02*
X107600000Y-73775000D01*
X114825000Y-70075000D02*
X114150000Y-70075000D01*
X115085000Y-70335000D02*
X114825000Y-70075000D01*
X112900000Y-65900000D02*
X112775000Y-65775000D01*
X112775000Y-65775000D02*
X107600000Y-65775000D01*
X116285000Y-84075000D02*
X116425000Y-83935000D01*
X114050000Y-84075000D02*
X114150000Y-84075000D01*
X114150000Y-84075000D02*
X116285000Y-84075000D01*
X113725000Y-63150000D02*
X114150000Y-63575000D01*
X114150000Y-63575000D02*
X116385000Y-63575000D01*
X116385000Y-63575000D02*
X116425000Y-63535000D01*
X107600000Y-63275000D02*
X107725000Y-63150000D01*
X107725000Y-63150000D02*
X113725000Y-63150000D01*
D53*
X146425000Y-115522725D02*
X145197725Y-116750000D01*
X173750000Y-95750000D02*
X173350000Y-95350000D01*
X172150000Y-95250000D02*
X170275000Y-95250000D01*
X170750000Y-89845000D02*
X172075000Y-89845000D01*
X156600000Y-95350000D02*
X155500000Y-95350000D01*
X166925000Y-89845000D02*
X170750000Y-89845000D01*
X153525000Y-95250000D02*
X155400000Y-95250000D01*
X133675000Y-89845000D02*
X137400000Y-89845000D01*
X140780152Y-116750000D02*
X139025000Y-118505152D01*
X154000000Y-92250000D02*
X154000000Y-89845000D01*
X172250000Y-95350000D02*
X172150000Y-95250000D01*
X170865000Y-92385000D02*
X172075000Y-92385000D01*
X157200000Y-101250000D02*
X157250000Y-101250000D01*
X137382500Y-92385000D02*
X138575000Y-92385000D01*
X153525000Y-95250000D02*
X153525000Y-92725000D01*
X134250000Y-103450000D02*
X134000000Y-103700000D01*
X150575000Y-115975000D02*
X150600000Y-116000000D01*
X173350000Y-95350000D02*
X172250000Y-95350000D01*
X154000000Y-92250000D02*
X154135000Y-92385000D01*
X155400000Y-95250000D02*
X155500000Y-95350000D01*
X134000000Y-103700000D02*
X134000000Y-103950000D01*
X140717833Y-101201932D02*
X140717833Y-96917833D01*
X157250000Y-101250000D02*
X157250000Y-96000000D01*
X140732111Y-101216210D02*
X140717833Y-101201932D01*
X139800000Y-103050000D02*
X139800000Y-101250000D01*
X137400000Y-89845000D02*
X137400000Y-92367500D01*
X146425000Y-115522725D02*
X146425000Y-109675000D01*
X154000000Y-89845000D02*
X155325000Y-89845000D01*
X173800000Y-101250000D02*
X172550000Y-101250000D01*
X146877275Y-115975000D02*
X149000000Y-115975000D01*
X134000000Y-103950000D02*
X135050000Y-105000000D01*
X146425000Y-115522725D02*
X146877275Y-115975000D01*
X145197725Y-116750000D02*
X140780152Y-116750000D01*
X156050000Y-101250000D02*
X157200000Y-101250000D01*
X137025000Y-95250000D02*
X137025000Y-92742500D01*
X137025000Y-92742500D02*
X137382500Y-92385000D01*
X140717833Y-96917833D02*
X139050000Y-95250000D01*
X170750000Y-89845000D02*
X170750000Y-92500000D01*
X173800000Y-101250000D02*
X173750000Y-101200000D01*
X139050000Y-95250000D02*
X137025000Y-95250000D01*
X170750000Y-92500000D02*
X170865000Y-92385000D01*
X154135000Y-92385000D02*
X155075000Y-92385000D01*
X137400000Y-89845000D02*
X138825000Y-89845000D01*
X135050000Y-105000000D02*
X137800000Y-105000000D01*
X134250000Y-103450000D02*
X129375000Y-103450000D01*
X153525000Y-92725000D02*
X154000000Y-92250000D01*
X150175000Y-89845000D02*
X154000000Y-89845000D01*
X139800000Y-101250000D02*
X140750000Y-101250000D01*
X137400000Y-92367500D02*
X137382500Y-92385000D01*
X170750000Y-92500000D02*
X170275000Y-92975000D01*
X173750000Y-101200000D02*
X173750000Y-95750000D01*
X139550000Y-103250000D02*
X139550000Y-101250000D01*
X139025000Y-118505152D02*
X139025000Y-119125000D01*
X139550000Y-101250000D02*
X140750000Y-101250000D01*
X129375000Y-103450000D02*
X128925000Y-103000000D01*
X137800000Y-105000000D02*
X139550000Y-103250000D01*
X140732111Y-101216210D02*
X140750000Y-101234099D01*
X140750000Y-101234099D02*
X140750000Y-101250000D01*
X170275000Y-92975000D02*
X170275000Y-95250000D01*
X146425000Y-109675000D02*
X139800000Y-103050000D01*
X157250000Y-96000000D02*
X156600000Y-95350000D01*
X149000000Y-115975000D02*
X150575000Y-115975000D01*
X125175000Y-60875000D02*
X125200000Y-60900000D01*
X125200000Y-60900000D02*
X125200000Y-60915000D01*
X121495000Y-60875000D02*
X125175000Y-60875000D01*
X125200000Y-60915000D02*
X125115000Y-61000000D01*
X121375000Y-60995000D02*
X121495000Y-60875000D01*
X121495000Y-67675000D02*
X124870000Y-67675000D01*
X124870000Y-67675000D02*
X125115000Y-67920000D01*
X121375000Y-67795000D02*
X121495000Y-67675000D01*
D52*
X121375000Y-74595000D02*
X120555000Y-74595000D01*
D53*
X121375000Y-74595000D02*
X121495000Y-74475000D01*
X125175000Y-74475000D02*
X125200000Y-74500000D01*
X121495000Y-74475000D02*
X125175000Y-74475000D01*
D52*
X153175000Y-61750000D02*
X153175000Y-63250000D01*
X151650000Y-61750000D02*
X151250000Y-61350000D01*
X153175000Y-61750000D02*
X151650000Y-61750000D01*
X152675000Y-70155000D02*
X157825000Y-70155000D01*
X153225000Y-64750000D02*
X151100000Y-64750000D01*
D53*
X154900000Y-71212500D02*
X157000000Y-73312500D01*
X166325000Y-115975000D02*
X166350000Y-116000000D01*
D52*
X124150000Y-70700000D02*
X125200000Y-70700000D01*
X153875000Y-67490000D02*
X153875000Y-65994092D01*
X151100000Y-64750000D02*
X151000000Y-64650000D01*
X153875000Y-65994092D02*
X153225000Y-65344092D01*
D53*
X157000000Y-73312500D02*
X157000000Y-85900000D01*
D52*
X149087347Y-57612653D02*
X150200000Y-58725306D01*
D53*
X159250000Y-88150000D02*
X159250000Y-101250000D01*
X159250000Y-101250000D02*
X159250000Y-110475000D01*
X154900000Y-68250000D02*
X154900000Y-71212500D01*
X165000000Y-115975000D02*
X166325000Y-115975000D01*
X157000000Y-85900000D02*
X159250000Y-88150000D01*
X159250000Y-110475000D02*
X164750000Y-115975000D01*
D52*
X150200000Y-58725306D02*
X150200000Y-63600000D01*
X153225000Y-65344092D02*
X153225000Y-64750000D01*
D53*
X154265000Y-67615000D02*
X154900000Y-68250000D01*
X153750000Y-67615000D02*
X152675000Y-67615000D01*
X160450000Y-101250000D02*
X159250000Y-101250000D01*
D52*
X153750000Y-67615000D02*
X153875000Y-67490000D01*
X150200000Y-63600000D02*
X151250000Y-64650000D01*
D53*
X153750000Y-67615000D02*
X154265000Y-67615000D01*
X171400000Y-68250000D02*
X170765000Y-67615000D01*
X166700000Y-57775000D02*
X166700000Y-63600000D01*
X175750000Y-103850000D02*
X175750000Y-101250000D01*
D52*
X124342566Y-77500000D02*
X124248475Y-77405909D01*
D53*
X166700000Y-63600000D02*
X167850000Y-64750000D01*
X175750000Y-89000000D02*
X173500000Y-86750000D01*
D52*
X125200000Y-77500000D02*
X124342566Y-77500000D01*
D53*
X172500000Y-115975000D02*
X174075000Y-115975000D01*
X169250000Y-64750000D02*
X169307684Y-64750000D01*
X173500000Y-86750000D02*
X173500000Y-73375000D01*
D52*
X169725000Y-65095448D02*
X170500000Y-65870448D01*
D53*
X174100000Y-105539950D02*
X174100000Y-112500000D01*
X170500000Y-67615000D02*
X169175000Y-67615000D01*
X174075000Y-115975000D02*
X174100000Y-116000000D01*
X176950000Y-101250000D02*
X175750000Y-101250000D01*
D52*
X169538517Y-67615000D02*
X168925000Y-67615000D01*
D53*
X173500000Y-73375000D02*
X171400000Y-71275000D01*
X174100000Y-105500000D02*
X175750000Y-103850000D01*
X174100000Y-112500000D02*
X174100000Y-116000000D01*
X175750000Y-101250000D02*
X175750000Y-89000000D01*
X167850000Y-64750000D02*
X169725000Y-64750000D01*
D52*
X169725000Y-64750000D02*
X169725000Y-65095448D01*
X169175000Y-70155000D02*
X174325000Y-70155000D01*
X170500000Y-65870448D02*
X170500000Y-67615000D01*
D53*
X170765000Y-67615000D02*
X170500000Y-67615000D01*
X174119975Y-105519975D02*
X174100000Y-105539950D01*
X171400000Y-71275000D02*
X171400000Y-68250000D01*
X153675000Y-98650000D02*
X155500000Y-98650000D01*
X153575000Y-98750000D02*
X153575000Y-97000000D01*
X153575000Y-98750000D02*
X153675000Y-98650000D01*
D52*
X169275000Y-61350000D02*
X167500000Y-61350000D01*
X169675000Y-63000000D02*
X169675000Y-61750000D01*
X169675000Y-61750000D02*
X169275000Y-61350000D01*
D53*
X170775000Y-119672500D02*
X170540000Y-119907500D01*
X170775000Y-118000000D02*
X170775000Y-119672500D01*
X167250000Y-118000000D02*
X169225000Y-118000000D01*
X174750000Y-118000000D02*
X176975000Y-118000000D01*
X178525000Y-118000000D02*
X178525000Y-119672500D01*
X178525000Y-119672500D02*
X178290000Y-119907500D01*
X163025000Y-118000000D02*
X163025000Y-119672500D01*
X163025000Y-119672500D02*
X162790000Y-119907500D01*
X159250000Y-118000000D02*
X161475000Y-118000000D01*
D52*
X134000000Y-63900000D02*
X134750000Y-64650000D01*
D53*
X140500000Y-86788172D02*
X142750000Y-89038172D01*
D52*
X136725000Y-64750000D02*
X134850000Y-64750000D01*
D53*
X140500000Y-73500000D02*
X140500000Y-86788172D01*
X137500000Y-67615000D02*
X136175000Y-67615000D01*
X158575000Y-115975000D02*
X158600000Y-116000000D01*
D52*
X136245227Y-67615000D02*
X136315454Y-67615000D01*
X136725000Y-65225000D02*
X137375000Y-65875000D01*
D53*
X137500000Y-67615000D02*
X137615000Y-67615000D01*
X156439950Y-115975000D02*
X157000000Y-115975000D01*
X136731800Y-67615000D02*
X136245227Y-67615000D01*
D52*
X136175000Y-70155000D02*
X141325000Y-70155000D01*
X125200000Y-63900000D02*
X134000000Y-63900000D01*
D53*
X138400000Y-68400000D02*
X138400000Y-71400000D01*
X142750000Y-101250000D02*
X142750000Y-102285050D01*
D52*
X136725000Y-64750000D02*
X136725000Y-65225000D01*
D53*
X138400000Y-71400000D02*
X140500000Y-73500000D01*
X142750000Y-102285050D02*
X156439950Y-115975000D01*
X137615000Y-67615000D02*
X138400000Y-68400000D01*
D52*
X137375000Y-65875000D02*
X137375000Y-67490000D01*
D53*
X142750000Y-89038172D02*
X142750000Y-101250000D01*
X143950000Y-101250000D02*
X142750000Y-101250000D01*
D52*
X134850000Y-64750000D02*
X134750000Y-64650000D01*
X137375000Y-67490000D02*
X137500000Y-67615000D01*
D53*
X157000000Y-115975000D02*
X158575000Y-115975000D01*
D52*
X136315454Y-67615000D02*
G75*
G03*
X136555249Y-67515710I46J339100D01*
G01*
D53*
X172250000Y-98650000D02*
X170425000Y-98650000D01*
X170425000Y-98650000D02*
X170325000Y-98750000D01*
X170325000Y-97000000D02*
X170325000Y-98750000D01*
D52*
X136275000Y-61350000D02*
X136675000Y-61750000D01*
X136675000Y-63250000D02*
X136675000Y-61750000D01*
X134750000Y-61350000D02*
X136275000Y-61350000D01*
D53*
X139000000Y-98650000D02*
X137175000Y-98650000D01*
X139000000Y-98650000D02*
X139000000Y-98500000D01*
X137075000Y-97000000D02*
X137075000Y-98750000D01*
X137175000Y-98650000D02*
X137075000Y-98750000D01*
D52*
X149250000Y-103250000D02*
X151925000Y-100575000D01*
X151925000Y-100575000D02*
X151925000Y-98750000D01*
X151499233Y-56899233D02*
X154050000Y-59450000D01*
X151499233Y-56895868D02*
X151499233Y-56899233D01*
X154050000Y-59450000D02*
X155248004Y-59450000D01*
X155248004Y-59450000D02*
X155750000Y-59951996D01*
X155750000Y-59951996D02*
X155750000Y-60825000D01*
X155750000Y-60825000D02*
X154825000Y-61750000D01*
X168675000Y-99825000D02*
X168675000Y-98750000D01*
X165500000Y-103000000D02*
X168675000Y-99825000D01*
X170302999Y-59300000D02*
X171598004Y-59300000D01*
X167301774Y-56298775D02*
X170302999Y-59300000D01*
X171598004Y-59300000D02*
X172050000Y-59751996D01*
X172050000Y-61025000D02*
X171325000Y-61750000D01*
X172050000Y-59751996D02*
X172050000Y-61025000D01*
X121885000Y-82665000D02*
X121375000Y-82665000D01*
X132261396Y-98750000D02*
X131650000Y-98138604D01*
X135425000Y-98750000D02*
X132261396Y-98750000D01*
X131650000Y-98138604D02*
X131650000Y-89650000D01*
X124000000Y-82000000D02*
X122550000Y-82000000D01*
X131650000Y-89650000D02*
X124000000Y-82000000D01*
X122550000Y-82000000D02*
X121885000Y-82665000D01*
X149200000Y-96200000D02*
X148725000Y-95725000D01*
X150262653Y-103262653D02*
X152750000Y-100775306D01*
X152750000Y-96601996D02*
X152348004Y-96200000D01*
X152348004Y-96200000D02*
X149200000Y-96200000D01*
X148725000Y-91525000D02*
X149135000Y-91115000D01*
X148725000Y-93650000D02*
X148725000Y-93475000D01*
X148725000Y-95725000D02*
X148725000Y-93475000D01*
X149135000Y-91115000D02*
X149925000Y-91115000D01*
X152750000Y-100775306D02*
X152750000Y-96601996D01*
X148725000Y-93475000D02*
X148725000Y-91525000D01*
X148730000Y-93655000D02*
X148725000Y-93650000D01*
D53*
X123400000Y-92675000D02*
X123400000Y-93650000D01*
D52*
X149925000Y-93655000D02*
X148730000Y-93655000D01*
D56*
X157105000Y-90682500D02*
X157537500Y-90250000D01*
X156060852Y-91115000D02*
X155075000Y-91115000D01*
X156060852Y-91115000D02*
G75*
G03*
X157104985Y-90682485I-52J1476700D01*
G01*
X155992568Y-93655000D02*
X155075000Y-93655000D01*
X157085000Y-93202500D02*
X157537500Y-92750000D01*
X157085000Y-93202500D02*
G75*
G02*
X155992568Y-93654987I-1092400J1092400D01*
G01*
D52*
X169500000Y-100025306D02*
X169500000Y-96601996D01*
X165535000Y-91115000D02*
X166425000Y-91115000D01*
X165700000Y-96200000D02*
X165200000Y-95700000D01*
X165200000Y-95700000D02*
X165200000Y-93655000D01*
X165200000Y-93655000D02*
X165200000Y-91450000D01*
X166425000Y-93655000D02*
X165200000Y-93655000D01*
X169098004Y-96200000D02*
X165700000Y-96200000D01*
X169500000Y-96601996D02*
X169098004Y-96200000D01*
X165200000Y-91450000D02*
X165535000Y-91115000D01*
D53*
X123400000Y-99475000D02*
X123400000Y-100400000D01*
D52*
X166512653Y-103012653D02*
X169500000Y-100025306D01*
D56*
X172560852Y-91115000D02*
X171575000Y-91115000D01*
X173605000Y-90682500D02*
X174037500Y-90250000D01*
X172560852Y-91115000D02*
G75*
G03*
X173604985Y-90682485I-52J1476700D01*
G01*
X173585000Y-93202500D02*
X174037500Y-92750000D01*
X172492568Y-93655000D02*
X171575000Y-93655000D01*
X173585000Y-93202500D02*
G75*
G02*
X172492568Y-93654987I-1092400J1092400D01*
G01*
D53*
X153475000Y-118000000D02*
X151250000Y-118000000D01*
X155025000Y-118000000D02*
X155025000Y-119892500D01*
X155025000Y-119892500D02*
X155040000Y-119907500D01*
G04 #@! TA.AperFunction,Conductor*
G36*
X169442539Y-91115185D02*
G01*
X169488294Y-91167989D01*
X169499500Y-91219500D01*
X169499500Y-91930664D01*
X169479815Y-91997703D01*
X169463181Y-92018345D01*
X169321174Y-92160351D01*
X169321174Y-92160352D01*
X169321172Y-92160354D01*
X169271485Y-92228741D01*
X169205476Y-92319594D01*
X169116117Y-92494969D01*
X169095893Y-92557215D01*
X169055290Y-92682173D01*
X169024500Y-92876577D01*
X169024500Y-93255093D01*
X169004815Y-93322132D01*
X168952011Y-93367887D01*
X168882853Y-93377831D01*
X168819297Y-93348806D01*
X168781523Y-93290028D01*
X168779794Y-93283483D01*
X168745534Y-93137823D01*
X168745532Y-93137817D01*
X168745532Y-93137815D01*
X168659409Y-92942763D01*
X168538911Y-92766858D01*
X168538906Y-92766852D01*
X168388147Y-92616093D01*
X168388141Y-92616088D01*
X168302195Y-92557214D01*
X168212237Y-92495591D01*
X168212235Y-92495590D01*
X168212232Y-92495588D01*
X168208180Y-92493331D01*
X168159189Y-92443514D01*
X168144909Y-92375119D01*
X168169873Y-92309862D01*
X168208180Y-92276669D01*
X168212232Y-92274411D01*
X168212231Y-92274411D01*
X168212237Y-92274409D01*
X168388142Y-92153911D01*
X168538911Y-92003142D01*
X168659409Y-91827237D01*
X168745532Y-91632185D01*
X168794349Y-91424630D01*
X168800500Y-91336012D01*
X168800500Y-91219500D01*
X168820185Y-91152461D01*
X168872989Y-91106706D01*
X168924500Y-91095500D01*
X169375500Y-91095500D01*
X169442539Y-91115185D01*
G37*
G04 #@! TD.AperFunction*
G04 #@! TA.AperFunction,Conductor*
G36*
X105731792Y-59659100D02*
G01*
X105851276Y-59735887D01*
X105877336Y-59760150D01*
X106553349Y-60436162D01*
X106555794Y-60439428D01*
X106559024Y-60441929D01*
X106598284Y-60496188D01*
X106638462Y-60549859D01*
X106639890Y-60553689D01*
X106642283Y-60556996D01*
X106664675Y-60620140D01*
X106688096Y-60682935D01*
X106688597Y-60687599D01*
X106689753Y-60690858D01*
X106699500Y-60739445D01*
X106699500Y-61029266D01*
X106702354Y-61059699D01*
X106747207Y-61187882D01*
X106805229Y-61266500D01*
X106827065Y-61375347D01*
X106834898Y-61517161D01*
X106802460Y-61655438D01*
X106777896Y-61708710D01*
X106773539Y-61716860D01*
X106724500Y-61835250D01*
X106724496Y-61835263D01*
X106699500Y-61960925D01*
X106699500Y-62089074D01*
X106724496Y-62214736D01*
X106724500Y-62214749D01*
X106773533Y-62333124D01*
X106773534Y-62333127D01*
X106800024Y-62372771D01*
X106861322Y-62500892D01*
X106884041Y-62641094D01*
X106866340Y-62782017D01*
X106809654Y-62912244D01*
X106800024Y-62927229D01*
X106773534Y-62966872D01*
X106773533Y-62966875D01*
X106724500Y-63085250D01*
X106724496Y-63085263D01*
X106699500Y-63210925D01*
X106699500Y-63339074D01*
X106724496Y-63464736D01*
X106724500Y-63464749D01*
X106773533Y-63583124D01*
X106773534Y-63583127D01*
X106800024Y-63622771D01*
X106861322Y-63750892D01*
X106884041Y-63891094D01*
X106866340Y-64032017D01*
X106809654Y-64162244D01*
X106800024Y-64177229D01*
X106773534Y-64216872D01*
X106773533Y-64216875D01*
X106724500Y-64335250D01*
X106724496Y-64335263D01*
X106699500Y-64460925D01*
X106699500Y-64589074D01*
X106724496Y-64714736D01*
X106724500Y-64714749D01*
X106773533Y-64833124D01*
X106773534Y-64833127D01*
X106800024Y-64872771D01*
X106861322Y-65000892D01*
X106884041Y-65141094D01*
X106866340Y-65282017D01*
X106809654Y-65412244D01*
X106800024Y-65427229D01*
X106773534Y-65466872D01*
X106773533Y-65466875D01*
X106724500Y-65585250D01*
X106724496Y-65585263D01*
X106699500Y-65710925D01*
X106699500Y-65839074D01*
X106724496Y-65964736D01*
X106724500Y-65964749D01*
X106773533Y-66083124D01*
X106773534Y-66083127D01*
X106800324Y-66123220D01*
X106861622Y-66251342D01*
X106884341Y-66391543D01*
X106866640Y-66532466D01*
X106809954Y-66662694D01*
X106800329Y-66677670D01*
X106773978Y-66717107D01*
X106724979Y-66835401D01*
X106700000Y-66960980D01*
X106700000Y-67089019D01*
X106724979Y-67214598D01*
X106773976Y-67332887D01*
X106845115Y-67439355D01*
X106935644Y-67529884D01*
X107042112Y-67601023D01*
X107160401Y-67650020D01*
X107160400Y-67650020D01*
X107285980Y-67674999D01*
X107285986Y-67675000D01*
X107914014Y-67675000D01*
X107914019Y-67674999D01*
X108039598Y-67650020D01*
X108157887Y-67601023D01*
X108264355Y-67529884D01*
X108354884Y-67439355D01*
X108426023Y-67332887D01*
X108475020Y-67214598D01*
X108499999Y-67089019D01*
X108500000Y-67089014D01*
X108500000Y-66960986D01*
X108499999Y-66960980D01*
X108475020Y-66835400D01*
X108467904Y-66811941D01*
X108469698Y-66811396D01*
X108441991Y-66702850D01*
X108447058Y-66560910D01*
X108491908Y-66426148D01*
X108572909Y-66309479D01*
X108683498Y-66220358D01*
X108814716Y-66166003D01*
X108938131Y-66150500D01*
X112023984Y-66150500D01*
X112164569Y-66170713D01*
X112293764Y-66229714D01*
X112374795Y-66299928D01*
X112377389Y-66297335D01*
X112485324Y-66405270D01*
X112485327Y-66405272D01*
X112485331Y-66405276D01*
X112591873Y-66476465D01*
X112591875Y-66476466D01*
X112710250Y-66525499D01*
X112710254Y-66525500D01*
X112710256Y-66525501D01*
X112710257Y-66525501D01*
X112710263Y-66525503D01*
X112835925Y-66550499D01*
X112835928Y-66550499D01*
X112835931Y-66550500D01*
X112835932Y-66550500D01*
X112941378Y-66550500D01*
X112970487Y-66554685D01*
X112999884Y-66553942D01*
X113040428Y-66564741D01*
X113081963Y-66570713D01*
X113108712Y-66582929D01*
X113137129Y-66590498D01*
X113172988Y-66612282D01*
X113211158Y-66629714D01*
X113233383Y-66648972D01*
X113258515Y-66664240D01*
X113286783Y-66695244D01*
X113318497Y-66722724D01*
X113334396Y-66747464D01*
X113354209Y-66769194D01*
X113366878Y-66798008D01*
X113395284Y-66842208D01*
X113416458Y-66896856D01*
X113456942Y-67022856D01*
X113466917Y-67081642D01*
X113479591Y-67139900D01*
X113478764Y-67151459D01*
X113480703Y-67162885D01*
X113473712Y-67222092D01*
X113469459Y-67281569D01*
X113465408Y-67292428D01*
X113464050Y-67303935D01*
X113440660Y-67358781D01*
X113419824Y-67414644D01*
X113412881Y-67423918D01*
X113408334Y-67434581D01*
X113370433Y-67480622D01*
X113334709Y-67528345D01*
X113325432Y-67535289D01*
X113318067Y-67544237D01*
X113268733Y-67577734D01*
X113221008Y-67613461D01*
X113210152Y-67617510D01*
X113200563Y-67624021D01*
X113143788Y-67642262D01*
X113087933Y-67663096D01*
X113074429Y-67664547D01*
X113065341Y-67667468D01*
X113041710Y-67668065D01*
X112981862Y-67674500D01*
X112937051Y-67674500D01*
X112809759Y-67708607D01*
X112695628Y-67774502D01*
X112695626Y-67774503D01*
X109841785Y-70628346D01*
X109799064Y-70660326D01*
X109758719Y-70695286D01*
X109742422Y-70702728D01*
X109728084Y-70713462D01*
X109678079Y-70732112D01*
X109629524Y-70754287D01*
X109611791Y-70756836D01*
X109595009Y-70763096D01*
X109488939Y-70774500D01*
X108565685Y-70774500D01*
X108425100Y-70754287D01*
X108295905Y-70695286D01*
X108269371Y-70676996D01*
X108262883Y-70672207D01*
X108134696Y-70627353D01*
X108107777Y-70624829D01*
X108104266Y-70624500D01*
X107095734Y-70624500D01*
X107092585Y-70624795D01*
X107065303Y-70627353D01*
X106937118Y-70672207D01*
X106827850Y-70752850D01*
X106747207Y-70862118D01*
X106702353Y-70990303D01*
X106699500Y-71020735D01*
X106699500Y-71529264D01*
X106702353Y-71559696D01*
X106747208Y-71687884D01*
X106764681Y-71720945D01*
X106763232Y-71721710D01*
X106806529Y-71802307D01*
X106835772Y-71941294D01*
X106824673Y-72082890D01*
X106777896Y-72208710D01*
X106773539Y-72216860D01*
X106724500Y-72335250D01*
X106724496Y-72335263D01*
X106699500Y-72460925D01*
X106699500Y-72589074D01*
X106724496Y-72714736D01*
X106724500Y-72714749D01*
X106773533Y-72833124D01*
X106773534Y-72833127D01*
X106800024Y-72872771D01*
X106861322Y-73000892D01*
X106884041Y-73141094D01*
X106866340Y-73282017D01*
X106809654Y-73412244D01*
X106800024Y-73427229D01*
X106773534Y-73466872D01*
X106773533Y-73466875D01*
X106724500Y-73585250D01*
X106724496Y-73585263D01*
X106699500Y-73710925D01*
X106699500Y-73839074D01*
X106724496Y-73964736D01*
X106724500Y-73964749D01*
X106773533Y-74083124D01*
X106773534Y-74083127D01*
X106800024Y-74122771D01*
X106861322Y-74250892D01*
X106884041Y-74391094D01*
X106866340Y-74532017D01*
X106809654Y-74662244D01*
X106800024Y-74677229D01*
X106773534Y-74716872D01*
X106773533Y-74716875D01*
X106724500Y-74835250D01*
X106724496Y-74835263D01*
X106699500Y-74960925D01*
X106699500Y-75089074D01*
X106724496Y-75214736D01*
X106724500Y-75214749D01*
X106773533Y-75333124D01*
X106773534Y-75333127D01*
X106800024Y-75372771D01*
X106861322Y-75500892D01*
X106884041Y-75641094D01*
X106866340Y-75782017D01*
X106809654Y-75912244D01*
X106800024Y-75927229D01*
X106773534Y-75966872D01*
X106773533Y-75966875D01*
X106724500Y-76085250D01*
X106724496Y-76085263D01*
X106699500Y-76210925D01*
X106699500Y-76339074D01*
X106724496Y-76464736D01*
X106724500Y-76464749D01*
X106773533Y-76583124D01*
X106773534Y-76583127D01*
X106800324Y-76623220D01*
X106861622Y-76751342D01*
X106884341Y-76891543D01*
X106866640Y-77032466D01*
X106809954Y-77162694D01*
X106800329Y-77177670D01*
X106773978Y-77217107D01*
X106724979Y-77335401D01*
X106700000Y-77460980D01*
X106700000Y-77589019D01*
X106724979Y-77714598D01*
X106773976Y-77832887D01*
X106845115Y-77939355D01*
X106935644Y-78029884D01*
X107042112Y-78101023D01*
X107160401Y-78150020D01*
X107160400Y-78150020D01*
X107285980Y-78174999D01*
X107285986Y-78175000D01*
X107914014Y-78175000D01*
X107914019Y-78174999D01*
X108039598Y-78150020D01*
X108157887Y-78101023D01*
X108264355Y-78029884D01*
X108354884Y-77939355D01*
X108426023Y-77832887D01*
X108475020Y-77714598D01*
X108499999Y-77589019D01*
X108500000Y-77589014D01*
X108500000Y-77460986D01*
X108499999Y-77460980D01*
X108475020Y-77335401D01*
X108426022Y-77217110D01*
X108399673Y-77177675D01*
X108338376Y-77049553D01*
X108315658Y-76909351D01*
X108329139Y-76784910D01*
X108350723Y-76694221D01*
X108355276Y-76689669D01*
X108426465Y-76583127D01*
X108475501Y-76464744D01*
X108500500Y-76339069D01*
X108500500Y-76210931D01*
X108484679Y-76131399D01*
X108509676Y-76026377D01*
X108531582Y-75970962D01*
X108550903Y-75914593D01*
X108557617Y-75905104D01*
X108561891Y-75894293D01*
X108598524Y-75847292D01*
X108632941Y-75798652D01*
X108642230Y-75789110D01*
X111209688Y-73221654D01*
X111323389Y-73136538D01*
X111456464Y-73086904D01*
X111562534Y-73075500D01*
X111623862Y-73075500D01*
X111764447Y-73095713D01*
X111893642Y-73154714D01*
X111939667Y-73191804D01*
X111941377Y-73189721D01*
X111960327Y-73205272D01*
X111960331Y-73205276D01*
X112066873Y-73276465D01*
X112066875Y-73276466D01*
X112185250Y-73325499D01*
X112185254Y-73325500D01*
X112185256Y-73325501D01*
X112185257Y-73325501D01*
X112185263Y-73325503D01*
X112310925Y-73350499D01*
X112310928Y-73350499D01*
X112310931Y-73350500D01*
X112310932Y-73350500D01*
X112439068Y-73350500D01*
X112439069Y-73350500D01*
X112440716Y-73350172D01*
X112564736Y-73325503D01*
X112564739Y-73325501D01*
X112564744Y-73325501D01*
X112683127Y-73276465D01*
X112705075Y-73261800D01*
X112764458Y-73233387D01*
X112823269Y-73203723D01*
X112828446Y-73202772D01*
X112833196Y-73200500D01*
X112898193Y-73189966D01*
X112962965Y-73178075D01*
X112968202Y-73178621D01*
X112973397Y-73177780D01*
X113038711Y-73185983D01*
X113104227Y-73192823D01*
X113109098Y-73194823D01*
X113114320Y-73195479D01*
X113174700Y-73221760D01*
X113235612Y-73246772D01*
X113239719Y-73250061D01*
X113244548Y-73252163D01*
X113295092Y-73294403D01*
X113346477Y-73335551D01*
X113348784Y-73339273D01*
X113353532Y-73343241D01*
X113427838Y-73451967D01*
X113540264Y-73674850D01*
X113549056Y-73700998D01*
X113562275Y-73725207D01*
X113571578Y-73767978D01*
X113585532Y-73809474D01*
X113586601Y-73837039D01*
X113592464Y-73863991D01*
X113589340Y-73907651D01*
X113591038Y-73951397D01*
X113584298Y-73978146D01*
X113582330Y-74005659D01*
X113567031Y-74046674D01*
X113556336Y-74089123D01*
X113542334Y-74112886D01*
X113532694Y-74138734D01*
X113494210Y-74198617D01*
X113478371Y-74219775D01*
X113478370Y-74219777D01*
X113430588Y-74347884D01*
X113424500Y-74404514D01*
X113424500Y-74485993D01*
X113404287Y-74626578D01*
X113345286Y-74755773D01*
X113278346Y-74838839D01*
X111247526Y-76869657D01*
X111247499Y-76869686D01*
X111224503Y-76892681D01*
X111224502Y-76892683D01*
X111224500Y-76892685D01*
X111224500Y-76892686D01*
X111210576Y-76916801D01*
X111158607Y-77006814D01*
X111124500Y-77134106D01*
X111124500Y-79510994D01*
X111104287Y-79651579D01*
X111045286Y-79780774D01*
X110978346Y-79863840D01*
X109713840Y-81128346D01*
X109671119Y-81160326D01*
X109630774Y-81195286D01*
X109614477Y-81202728D01*
X109600139Y-81213462D01*
X109550134Y-81232112D01*
X109501579Y-81254287D01*
X109483846Y-81256836D01*
X109467064Y-81263096D01*
X109360994Y-81274500D01*
X108565685Y-81274500D01*
X108425100Y-81254287D01*
X108295905Y-81195286D01*
X108269371Y-81176996D01*
X108262883Y-81172207D01*
X108134696Y-81127353D01*
X108107777Y-81124829D01*
X108104266Y-81124500D01*
X107095734Y-81124500D01*
X107092585Y-81124795D01*
X107065303Y-81127353D01*
X106937118Y-81172207D01*
X106827850Y-81252850D01*
X106747207Y-81362118D01*
X106702353Y-81490303D01*
X106699500Y-81520735D01*
X106699500Y-82029264D01*
X106702353Y-82059696D01*
X106702353Y-82059698D01*
X106702354Y-82059699D01*
X106746182Y-82184954D01*
X106747208Y-82187884D01*
X106764681Y-82220945D01*
X106763232Y-82221710D01*
X106806529Y-82302307D01*
X106835772Y-82441294D01*
X106824673Y-82582890D01*
X106777896Y-82708710D01*
X106773539Y-82716860D01*
X106724500Y-82835250D01*
X106724496Y-82835263D01*
X106699500Y-82960925D01*
X106699500Y-83089074D01*
X106724496Y-83214736D01*
X106724500Y-83214749D01*
X106773533Y-83333124D01*
X106773534Y-83333127D01*
X106800024Y-83372771D01*
X106861322Y-83500892D01*
X106884041Y-83641094D01*
X106866340Y-83782017D01*
X106809654Y-83912244D01*
X106800024Y-83927229D01*
X106773534Y-83966872D01*
X106773533Y-83966875D01*
X106724500Y-84085250D01*
X106724496Y-84085263D01*
X106699500Y-84210925D01*
X106699500Y-84339074D01*
X106724496Y-84464736D01*
X106724500Y-84464749D01*
X106773533Y-84583124D01*
X106773534Y-84583127D01*
X106800024Y-84622771D01*
X106861322Y-84750892D01*
X106884041Y-84891094D01*
X106866340Y-85032017D01*
X106809654Y-85162244D01*
X106800024Y-85177229D01*
X106773534Y-85216872D01*
X106773533Y-85216875D01*
X106724500Y-85335250D01*
X106724496Y-85335263D01*
X106699500Y-85460925D01*
X106699500Y-85589074D01*
X106724496Y-85714736D01*
X106724500Y-85714749D01*
X106773533Y-85833124D01*
X106773534Y-85833127D01*
X106800024Y-85872771D01*
X106861322Y-86000892D01*
X106884041Y-86141094D01*
X106866340Y-86282017D01*
X106809654Y-86412244D01*
X106800024Y-86427229D01*
X106773534Y-86466872D01*
X106773533Y-86466875D01*
X106724500Y-86585250D01*
X106724496Y-86585263D01*
X106699500Y-86710925D01*
X106699500Y-86839074D01*
X106724496Y-86964736D01*
X106724500Y-86964749D01*
X106773533Y-87083124D01*
X106773534Y-87083127D01*
X106800324Y-87123220D01*
X106861622Y-87251342D01*
X106884341Y-87391543D01*
X106866640Y-87532466D01*
X106809954Y-87662694D01*
X106800329Y-87677670D01*
X106773978Y-87717107D01*
X106724979Y-87835401D01*
X106700000Y-87960980D01*
X106700000Y-88089019D01*
X106724979Y-88214598D01*
X106773976Y-88332887D01*
X106845115Y-88439355D01*
X106935644Y-88529884D01*
X107042112Y-88601023D01*
X107160401Y-88650020D01*
X107160400Y-88650020D01*
X107285980Y-88674999D01*
X107285986Y-88675000D01*
X107914014Y-88675000D01*
X107914019Y-88674999D01*
X108039598Y-88650020D01*
X108157889Y-88601022D01*
X108248270Y-88540632D01*
X108376391Y-88479334D01*
X108516593Y-88456615D01*
X108657516Y-88474315D01*
X108787744Y-88531001D01*
X108896726Y-88622080D01*
X108975634Y-88740174D01*
X109018075Y-88875715D01*
X109024500Y-88955535D01*
X109024500Y-95350564D01*
X109024500Y-95449436D01*
X109030828Y-95473050D01*
X109037296Y-95497189D01*
X109046260Y-95530646D01*
X109050090Y-95544938D01*
X109097933Y-95627804D01*
X109097936Y-95627810D01*
X109099524Y-95630561D01*
X109099530Y-95630568D01*
X110453463Y-96984500D01*
X111824525Y-98355562D01*
X111894438Y-98425475D01*
X111980062Y-98474910D01*
X112020958Y-98485868D01*
X112075564Y-98500500D01*
X112075565Y-98500500D01*
X113170267Y-98500500D01*
X113310852Y-98520713D01*
X113440047Y-98579714D01*
X113547386Y-98672724D01*
X113624173Y-98792208D01*
X113664188Y-98928485D01*
X113664188Y-99070515D01*
X113624173Y-99206792D01*
X113571760Y-99295818D01*
X113522654Y-99362352D01*
X113477851Y-99490393D01*
X113475000Y-99520795D01*
X113475000Y-100029193D01*
X113475001Y-100029213D01*
X113477850Y-100059602D01*
X113477850Y-100059604D01*
X113522654Y-100187646D01*
X113603207Y-100296792D01*
X113712353Y-100377345D01*
X113840394Y-100422148D01*
X113840393Y-100422148D01*
X113870795Y-100424999D01*
X114529193Y-100424999D01*
X114529213Y-100424998D01*
X114559602Y-100422149D01*
X114559604Y-100422149D01*
X114687646Y-100377345D01*
X114796792Y-100296792D01*
X114877345Y-100187646D01*
X114922148Y-100059606D01*
X114924999Y-100029204D01*
X114924999Y-99837332D01*
X114945211Y-99696748D01*
X115004212Y-99567552D01*
X115097222Y-99460213D01*
X115216705Y-99383425D01*
X115352981Y-99343409D01*
X115495012Y-99343409D01*
X115502063Y-99344474D01*
X115568518Y-99354999D01*
X117281477Y-99354999D01*
X117281481Y-99354998D01*
X117375144Y-99340165D01*
X117375149Y-99340164D01*
X117523037Y-99264812D01*
X117525204Y-99269066D01*
X117583126Y-99238476D01*
X117722316Y-99210215D01*
X117863830Y-99222314D01*
X117996203Y-99273791D01*
X118108712Y-99360477D01*
X118192240Y-99475349D01*
X118240022Y-99609101D01*
X118250000Y-99708390D01*
X118250000Y-104500000D01*
X124574925Y-104500000D01*
X124622453Y-104502269D01*
X124675133Y-104507309D01*
X124740848Y-104513597D01*
X124834180Y-104531623D01*
X124925339Y-104558448D01*
X125013561Y-104593849D01*
X125097962Y-104637467D01*
X125177871Y-104688956D01*
X125271268Y-104762614D01*
X125307183Y-104793828D01*
X130423006Y-109687223D01*
X130457589Y-109723818D01*
X130495839Y-109768620D01*
X130539277Y-109819500D01*
X130596539Y-109902183D01*
X130645125Y-109990121D01*
X130684645Y-110082611D01*
X130714610Y-110178508D01*
X130734780Y-110277042D01*
X130747459Y-110402204D01*
X130750000Y-110452496D01*
X130750000Y-123500000D01*
X182000000Y-123500000D01*
X182000001Y-123500000D01*
X185000000Y-120500001D01*
X185000000Y-105524513D01*
X185002403Y-105475604D01*
X185014397Y-105353823D01*
X185033477Y-105257893D01*
X185061856Y-105164336D01*
X185099289Y-105073970D01*
X185145365Y-104987769D01*
X185199706Y-104906441D01*
X185261717Y-104830880D01*
X185330880Y-104761717D01*
X185406441Y-104699706D01*
X185487769Y-104645365D01*
X185511643Y-104632603D01*
X185573973Y-104599287D01*
X185664336Y-104561856D01*
X185757893Y-104533477D01*
X185853818Y-104514397D01*
X185940809Y-104505829D01*
X185975604Y-104502403D01*
X186024513Y-104500000D01*
X203975487Y-104500000D01*
X204024396Y-104502403D01*
X204066360Y-104506536D01*
X204146179Y-104514397D01*
X204242108Y-104533477D01*
X204335659Y-104561855D01*
X204426029Y-104599289D01*
X204512230Y-104645365D01*
X204593563Y-104699710D01*
X204669115Y-104761714D01*
X204738285Y-104830884D01*
X204800289Y-104906436D01*
X204854635Y-104987770D01*
X204900710Y-105073970D01*
X204938144Y-105164343D01*
X204953012Y-105213355D01*
X204974480Y-105353753D01*
X204974500Y-105358210D01*
X204974500Y-129141789D01*
X204954287Y-129282374D01*
X204953014Y-129286638D01*
X204938147Y-129335649D01*
X204900710Y-129426029D01*
X204854634Y-129512230D01*
X204800289Y-129593563D01*
X204738285Y-129669115D01*
X204669115Y-129738285D01*
X204593563Y-129800289D01*
X204512230Y-129854634D01*
X204426029Y-129900710D01*
X204335652Y-129938146D01*
X204286642Y-129953013D01*
X204146243Y-129974480D01*
X204141790Y-129974500D01*
X105858210Y-129974500D01*
X105855985Y-129974180D01*
X105853760Y-129974480D01*
X105785761Y-129964083D01*
X105717625Y-129954287D01*
X105713361Y-129953014D01*
X105664350Y-129938147D01*
X105664348Y-129938146D01*
X105573970Y-129900710D01*
X105487769Y-129854634D01*
X105406436Y-129800289D01*
X105330884Y-129738285D01*
X105261714Y-129669115D01*
X105199710Y-129593563D01*
X105145365Y-129512230D01*
X105099289Y-129426029D01*
X105061852Y-129335647D01*
X105050857Y-129299404D01*
X105046983Y-129286629D01*
X105025520Y-129146230D01*
X105025500Y-129141789D01*
X105025500Y-126775323D01*
X148819500Y-126775323D01*
X148819500Y-126775326D01*
X148819500Y-128409674D01*
X148834034Y-128482740D01*
X148889399Y-128565601D01*
X148972260Y-128620966D01*
X149045326Y-128635500D01*
X149045329Y-128635500D01*
X150874671Y-128635500D01*
X150874674Y-128635500D01*
X150947740Y-128620966D01*
X150952773Y-128617602D01*
X151080895Y-128556306D01*
X151221096Y-128533587D01*
X151362019Y-128551289D01*
X151492247Y-128607976D01*
X151507222Y-128617600D01*
X151512260Y-128620966D01*
X151585326Y-128635500D01*
X151585329Y-128635500D01*
X153414671Y-128635500D01*
X153414674Y-128635500D01*
X153487740Y-128620966D01*
X153492773Y-128617602D01*
X153620895Y-128556306D01*
X153761096Y-128533587D01*
X153902019Y-128551289D01*
X154032247Y-128607976D01*
X154047222Y-128617600D01*
X154052260Y-128620966D01*
X154125326Y-128635500D01*
X154125329Y-128635500D01*
X155954671Y-128635500D01*
X155954674Y-128635500D01*
X156027740Y-128620966D01*
X156097774Y-128574171D01*
X156225895Y-128512875D01*
X156366096Y-128490156D01*
X156507019Y-128507858D01*
X156637247Y-128564545D01*
X156652217Y-128574165D01*
X156722260Y-128620966D01*
X156795326Y-128635500D01*
X156795329Y-128635500D01*
X158624671Y-128635500D01*
X158624674Y-128635500D01*
X158697740Y-128620966D01*
X158702773Y-128617602D01*
X158830895Y-128556306D01*
X158971096Y-128533587D01*
X159112019Y-128551289D01*
X159242247Y-128607976D01*
X159257222Y-128617600D01*
X159262260Y-128620966D01*
X159335326Y-128635500D01*
X159335329Y-128635500D01*
X161164671Y-128635500D01*
X161164674Y-128635500D01*
X161237740Y-128620966D01*
X161242773Y-128617602D01*
X161370895Y-128556306D01*
X161511096Y-128533587D01*
X161652019Y-128551289D01*
X161782247Y-128607976D01*
X161797222Y-128617600D01*
X161802260Y-128620966D01*
X161875326Y-128635500D01*
X161875329Y-128635500D01*
X163704671Y-128635500D01*
X163704674Y-128635500D01*
X163777740Y-128620966D01*
X163847774Y-128574171D01*
X163975895Y-128512875D01*
X164116096Y-128490156D01*
X164257019Y-128507858D01*
X164387247Y-128564545D01*
X164402217Y-128574165D01*
X164472260Y-128620966D01*
X164545326Y-128635500D01*
X164545329Y-128635500D01*
X166374671Y-128635500D01*
X166374674Y-128635500D01*
X166447740Y-128620966D01*
X166452773Y-128617602D01*
X166580895Y-128556306D01*
X166721096Y-128533587D01*
X166862019Y-128551289D01*
X166992247Y-128607976D01*
X167007222Y-128617600D01*
X167012260Y-128620966D01*
X167085326Y-128635500D01*
X167085329Y-128635500D01*
X168914671Y-128635500D01*
X168914674Y-128635500D01*
X168987740Y-128620966D01*
X168992773Y-128617602D01*
X169120895Y-128556306D01*
X169261096Y-128533587D01*
X169402019Y-128551289D01*
X169532247Y-128607976D01*
X169547222Y-128617600D01*
X169552260Y-128620966D01*
X169625326Y-128635500D01*
X169625329Y-128635500D01*
X171454671Y-128635500D01*
X171454674Y-128635500D01*
X171527740Y-128620966D01*
X171597774Y-128574171D01*
X171725895Y-128512875D01*
X171866096Y-128490156D01*
X172007019Y-128507858D01*
X172137247Y-128564545D01*
X172152217Y-128574165D01*
X172222260Y-128620966D01*
X172295326Y-128635500D01*
X172295329Y-128635500D01*
X174124671Y-128635500D01*
X174124674Y-128635500D01*
X174197740Y-128620966D01*
X174202773Y-128617602D01*
X174330895Y-128556306D01*
X174471096Y-128533587D01*
X174612019Y-128551289D01*
X174742247Y-128607976D01*
X174757222Y-128617600D01*
X174762260Y-128620966D01*
X174835326Y-128635500D01*
X174835329Y-128635500D01*
X176664671Y-128635500D01*
X176664674Y-128635500D01*
X176737740Y-128620966D01*
X176742773Y-128617602D01*
X176870895Y-128556306D01*
X177011096Y-128533587D01*
X177152019Y-128551289D01*
X177282247Y-128607976D01*
X177297222Y-128617600D01*
X177302260Y-128620966D01*
X177375326Y-128635500D01*
X177375329Y-128635500D01*
X179204671Y-128635500D01*
X179204674Y-128635500D01*
X179277740Y-128620966D01*
X179360601Y-128565601D01*
X179415966Y-128482740D01*
X179430500Y-128409674D01*
X179430500Y-126775326D01*
X179415966Y-126702260D01*
X179360601Y-126619399D01*
X179277740Y-126564034D01*
X179253384Y-126559189D01*
X179204676Y-126549500D01*
X179204674Y-126549500D01*
X177375326Y-126549500D01*
X177375323Y-126549500D01*
X177302260Y-126564034D01*
X177302256Y-126564035D01*
X177297221Y-126567400D01*
X177169098Y-126628696D01*
X177028896Y-126651412D01*
X176887974Y-126633708D01*
X176757747Y-126577019D01*
X176742779Y-126567400D01*
X176737743Y-126564035D01*
X176737740Y-126564034D01*
X176713384Y-126559189D01*
X176664676Y-126549500D01*
X176664674Y-126549500D01*
X174835326Y-126549500D01*
X174835323Y-126549500D01*
X174762260Y-126564034D01*
X174762256Y-126564035D01*
X174757221Y-126567400D01*
X174629098Y-126628696D01*
X174488896Y-126651412D01*
X174347974Y-126633708D01*
X174217747Y-126577019D01*
X174202779Y-126567400D01*
X174197743Y-126564035D01*
X174197740Y-126564034D01*
X174173384Y-126559189D01*
X174124676Y-126549500D01*
X174124674Y-126549500D01*
X172295326Y-126549500D01*
X172295323Y-126549500D01*
X172222260Y-126564034D01*
X172222258Y-126564034D01*
X172152224Y-126610829D01*
X172024102Y-126672125D01*
X171883900Y-126694843D01*
X171742978Y-126677140D01*
X171612751Y-126620453D01*
X171597776Y-126610829D01*
X171527740Y-126564034D01*
X171454676Y-126549500D01*
X171454674Y-126549500D01*
X169625326Y-126549500D01*
X169625323Y-126549500D01*
X169552260Y-126564034D01*
X169552256Y-126564035D01*
X169547221Y-126567400D01*
X169419098Y-126628696D01*
X169278896Y-126651412D01*
X169137974Y-126633708D01*
X169007747Y-126577019D01*
X168992779Y-126567400D01*
X168987743Y-126564035D01*
X168987740Y-126564034D01*
X168963384Y-126559189D01*
X168914676Y-126549500D01*
X168914674Y-126549500D01*
X167085326Y-126549500D01*
X167085323Y-126549500D01*
X167012260Y-126564034D01*
X167012256Y-126564035D01*
X167007221Y-126567400D01*
X166879098Y-126628696D01*
X166738896Y-126651412D01*
X166597974Y-126633708D01*
X166467747Y-126577019D01*
X166452779Y-126567400D01*
X166447743Y-126564035D01*
X166447740Y-126564034D01*
X166423384Y-126559189D01*
X166374676Y-126549500D01*
X166374674Y-126549500D01*
X164545326Y-126549500D01*
X164545323Y-126549500D01*
X164472260Y-126564034D01*
X164472258Y-126564034D01*
X164402224Y-126610829D01*
X164274102Y-126672125D01*
X164133900Y-126694843D01*
X163992978Y-126677140D01*
X163862751Y-126620453D01*
X163847776Y-126610829D01*
X163777740Y-126564034D01*
X163704676Y-126549500D01*
X163704674Y-126549500D01*
X161875326Y-126549500D01*
X161875323Y-126549500D01*
X161802260Y-126564034D01*
X161802256Y-126564035D01*
X161797221Y-126567400D01*
X161669098Y-126628696D01*
X161528896Y-126651412D01*
X161387974Y-126633708D01*
X161257747Y-126577019D01*
X161242779Y-126567400D01*
X161237743Y-126564035D01*
X161237740Y-126564034D01*
X161213384Y-126559189D01*
X161164676Y-126549500D01*
X161164674Y-126549500D01*
X159335326Y-126549500D01*
X159335323Y-126549500D01*
X159262260Y-126564034D01*
X159262256Y-126564035D01*
X159257221Y-126567400D01*
X159129098Y-126628696D01*
X158988896Y-126651412D01*
X158847974Y-126633708D01*
X158717747Y-126577019D01*
X158702779Y-126567400D01*
X158697743Y-126564035D01*
X158697740Y-126564034D01*
X158673384Y-126559189D01*
X158624676Y-126549500D01*
X158624674Y-126549500D01*
X156795326Y-126549500D01*
X156795323Y-126549500D01*
X156722260Y-126564034D01*
X156722258Y-126564034D01*
X156652224Y-126610829D01*
X156524102Y-126672125D01*
X156383900Y-126694843D01*
X156242978Y-126677140D01*
X156112751Y-126620453D01*
X156097776Y-126610829D01*
X156027740Y-126564034D01*
X155954676Y-126549500D01*
X155954674Y-126549500D01*
X154125326Y-126549500D01*
X154125323Y-126549500D01*
X154052260Y-126564034D01*
X154052256Y-126564035D01*
X154047221Y-126567400D01*
X153919098Y-126628696D01*
X153778896Y-126651412D01*
X153637974Y-126633708D01*
X153507747Y-126577019D01*
X153492779Y-126567400D01*
X153487743Y-126564035D01*
X153487740Y-126564034D01*
X153463384Y-126559189D01*
X153414676Y-126549500D01*
X153414674Y-126549500D01*
X151585326Y-126549500D01*
X151585323Y-126549500D01*
X151512260Y-126564034D01*
X151512256Y-126564035D01*
X151507221Y-126567400D01*
X151379098Y-126628696D01*
X151238896Y-126651412D01*
X151097974Y-126633708D01*
X150967747Y-126577019D01*
X150952779Y-126567400D01*
X150947743Y-126564035D01*
X150947740Y-126564034D01*
X150923384Y-126559189D01*
X150874676Y-126549500D01*
X150874674Y-126549500D01*
X149045326Y-126549500D01*
X149045323Y-126549500D01*
X148972260Y-126564034D01*
X148889399Y-126619399D01*
X148834034Y-126702260D01*
X148819500Y-126775323D01*
X105025500Y-126775323D01*
X105025500Y-116670000D01*
X108317569Y-116670000D01*
X108397810Y-116777187D01*
X108397810Y-116777188D01*
X108512909Y-116863351D01*
X108512910Y-116863352D01*
X108647625Y-116913597D01*
X108707175Y-116920000D01*
X108730000Y-116920000D01*
X110470000Y-116920000D01*
X110492825Y-116920000D01*
X110552374Y-116913597D01*
X110687089Y-116863352D01*
X110687090Y-116863351D01*
X110802189Y-116777188D01*
X110802189Y-116777187D01*
X110882431Y-116670000D01*
X110470000Y-116670000D01*
X110470000Y-116920000D01*
X108730000Y-116920000D01*
X108730000Y-116670000D01*
X108317569Y-116670000D01*
X105025500Y-116670000D01*
X105025500Y-115721667D01*
X109005000Y-115721667D01*
X109005000Y-115878333D01*
X109045548Y-116029661D01*
X109123882Y-116165338D01*
X109234662Y-116276118D01*
X109370339Y-116354452D01*
X109521667Y-116395000D01*
X109678333Y-116395000D01*
X109829661Y-116354452D01*
X109965338Y-116276118D01*
X110076118Y-116165338D01*
X110154452Y-116029661D01*
X110195000Y-115878333D01*
X110195000Y-115721667D01*
X110154452Y-115570339D01*
X110076118Y-115434662D01*
X109965338Y-115323882D01*
X109829661Y-115245548D01*
X109678333Y-115205000D01*
X109521667Y-115205000D01*
X109370339Y-115245548D01*
X109234662Y-115323882D01*
X109123882Y-115434662D01*
X109045548Y-115570339D01*
X109005000Y-115721667D01*
X105025500Y-115721667D01*
X105025500Y-108091814D01*
X108254500Y-108091814D01*
X108254500Y-108268185D01*
X108282090Y-108442386D01*
X108336588Y-108610114D01*
X108336591Y-108610120D01*
X108336592Y-108610123D01*
X108416662Y-108767270D01*
X108416664Y-108767274D01*
X108520329Y-108909957D01*
X108645039Y-109034667D01*
X108645047Y-109034674D01*
X108661054Y-109046304D01*
X108762908Y-109145291D01*
X108832747Y-109268964D01*
X108864915Y-109407304D01*
X108856805Y-109549102D01*
X108809074Y-109682872D01*
X108725590Y-109797776D01*
X108661054Y-109853696D01*
X108645047Y-109865325D01*
X108645039Y-109865332D01*
X108520329Y-109990042D01*
X108416664Y-110132725D01*
X108416662Y-110132729D01*
X108336592Y-110289877D01*
X108336588Y-110289885D01*
X108282090Y-110457613D01*
X108254500Y-110631814D01*
X108254500Y-110808185D01*
X108282090Y-110982386D01*
X108336588Y-111150114D01*
X108336591Y-111150120D01*
X108336592Y-111150123D01*
X108364524Y-111204943D01*
X108416662Y-111307270D01*
X108416664Y-111307274D01*
X108520329Y-111449957D01*
X108645039Y-111574667D01*
X108645047Y-111574674D01*
X108661054Y-111586304D01*
X108762908Y-111685291D01*
X108832747Y-111808964D01*
X108864915Y-111947304D01*
X108856805Y-112089102D01*
X108809074Y-112222872D01*
X108725590Y-112337776D01*
X108661054Y-112393696D01*
X108645047Y-112405325D01*
X108645039Y-112405332D01*
X108520329Y-112530042D01*
X108416664Y-112672725D01*
X108416662Y-112672729D01*
X108336592Y-112829877D01*
X108336588Y-112829885D01*
X108282090Y-112997613D01*
X108254500Y-113171814D01*
X108254500Y-113348185D01*
X108282090Y-113522386D01*
X108336588Y-113690114D01*
X108336591Y-113690120D01*
X108336592Y-113690123D01*
X108403405Y-113821251D01*
X108416662Y-113847270D01*
X108416664Y-113847274D01*
X108520329Y-113989957D01*
X108536970Y-114006598D01*
X108547978Y-114021303D01*
X108561840Y-114033359D01*
X108590372Y-114077934D01*
X108622086Y-114120299D01*
X108628504Y-114137508D01*
X108638409Y-114152982D01*
X108653227Y-114203794D01*
X108671720Y-114253374D01*
X108673030Y-114271695D01*
X108678174Y-114289332D01*
X108678077Y-114342252D01*
X108681853Y-114395042D01*
X108677947Y-114412994D01*
X108677914Y-114431362D01*
X108662912Y-114482110D01*
X108651662Y-114533827D01*
X108642858Y-114549948D01*
X108637651Y-114567566D01*
X108608955Y-114612037D01*
X108583594Y-114658484D01*
X108570604Y-114671473D01*
X108560645Y-114686909D01*
X108349226Y-114930000D01*
X110882431Y-114930000D01*
X110802189Y-114822812D01*
X110802186Y-114822808D01*
X110716829Y-114758909D01*
X110616400Y-114658477D01*
X110548334Y-114533819D01*
X110518146Y-114395034D01*
X110528280Y-114253366D01*
X110577917Y-114120292D01*
X110663031Y-114006595D01*
X110679670Y-113989957D01*
X110783338Y-113847270D01*
X110863408Y-113690123D01*
X110917910Y-113522384D01*
X110945500Y-113348185D01*
X110945500Y-113171815D01*
X110917910Y-112997616D01*
X110914679Y-112987673D01*
X110863411Y-112829885D01*
X110863409Y-112829882D01*
X110863408Y-112829877D01*
X110783338Y-112672730D01*
X110783336Y-112672727D01*
X110783335Y-112672725D01*
X110679670Y-112530042D01*
X110554960Y-112405332D01*
X110538951Y-112393701D01*
X110437096Y-112294715D01*
X110367255Y-112171043D01*
X110335085Y-112032704D01*
X110343192Y-111890905D01*
X110390921Y-111757135D01*
X110474404Y-111642230D01*
X110538951Y-111586299D01*
X110554957Y-111574670D01*
X110679670Y-111449957D01*
X110783338Y-111307270D01*
X110863408Y-111150123D01*
X110917910Y-110982384D01*
X110945500Y-110808185D01*
X110945500Y-110631815D01*
X110917910Y-110457616D01*
X110914679Y-110447673D01*
X110863411Y-110289885D01*
X110863409Y-110289882D01*
X110863408Y-110289877D01*
X110783338Y-110132730D01*
X110783336Y-110132727D01*
X110783335Y-110132725D01*
X110679670Y-109990042D01*
X110554960Y-109865332D01*
X110538951Y-109853701D01*
X110437096Y-109754715D01*
X110367255Y-109631043D01*
X110335085Y-109492704D01*
X110343192Y-109350905D01*
X110390921Y-109217135D01*
X110474404Y-109102230D01*
X110538951Y-109046299D01*
X110554957Y-109034670D01*
X110679670Y-108909957D01*
X110783338Y-108767270D01*
X110863408Y-108610123D01*
X110917910Y-108442384D01*
X110945500Y-108268185D01*
X110945500Y-108091815D01*
X110917910Y-107917616D01*
X110863408Y-107749877D01*
X110783338Y-107592730D01*
X110783336Y-107592727D01*
X110783335Y-107592725D01*
X110679670Y-107450042D01*
X110554957Y-107325329D01*
X110412274Y-107221664D01*
X110412270Y-107221662D01*
X110275106Y-107151774D01*
X110255123Y-107141592D01*
X110255120Y-107141591D01*
X110255114Y-107141588D01*
X110087386Y-107087090D01*
X109913186Y-107059500D01*
X109913185Y-107059500D01*
X109286815Y-107059500D01*
X109286814Y-107059500D01*
X109112613Y-107087090D01*
X108944885Y-107141588D01*
X108944877Y-107141592D01*
X108787729Y-107221662D01*
X108787725Y-107221664D01*
X108645042Y-107325329D01*
X108520329Y-107450042D01*
X108416664Y-107592725D01*
X108416662Y-107592729D01*
X108336592Y-107749877D01*
X108336588Y-107749885D01*
X108282090Y-107917613D01*
X108254500Y-108091814D01*
X105025500Y-108091814D01*
X105025500Y-60113006D01*
X105045713Y-59972421D01*
X105104714Y-59843226D01*
X105197724Y-59735887D01*
X105317208Y-59659100D01*
X105453485Y-59619085D01*
X105595515Y-59619085D01*
X105731792Y-59659100D01*
G37*
G04 #@! TD.AperFunction*
G04 #@! TA.AperFunction,Conductor*
G36*
X112942416Y-80806913D02*
G01*
X112969165Y-80805000D01*
X113012689Y-80814468D01*
X113056972Y-80819229D01*
X113081745Y-80829490D01*
X113107950Y-80835191D01*
X113147044Y-80856538D01*
X113188191Y-80873582D01*
X113209070Y-80890407D01*
X113232606Y-80903259D01*
X113264100Y-80934753D01*
X113298782Y-80962701D01*
X113314075Y-80984727D01*
X113333037Y-81003689D01*
X113354383Y-81042781D01*
X113379785Y-81079367D01*
X113388253Y-81104809D01*
X113401105Y-81128346D01*
X113410573Y-81171872D01*
X113424638Y-81214129D01*
X113425595Y-81240924D01*
X113431296Y-81267131D01*
X113429708Y-81356069D01*
X113424500Y-81404510D01*
X113424500Y-81945483D01*
X113424501Y-81945489D01*
X113430586Y-82002108D01*
X113430589Y-82002116D01*
X113463725Y-82090958D01*
X113493916Y-82229742D01*
X113483783Y-82371410D01*
X113457204Y-82456296D01*
X113424501Y-82535247D01*
X113424496Y-82535263D01*
X113399500Y-82660925D01*
X113399500Y-82789074D01*
X113424496Y-82914736D01*
X113424500Y-82914749D01*
X113473533Y-83033124D01*
X113473534Y-83033127D01*
X113498719Y-83070818D01*
X113560017Y-83198940D01*
X113582736Y-83339141D01*
X113565035Y-83480064D01*
X113558468Y-83502014D01*
X113533451Y-83579133D01*
X113472207Y-83662118D01*
X113427354Y-83790301D01*
X113424500Y-83820734D01*
X113424500Y-83885253D01*
X113424499Y-83885256D01*
X113409194Y-83962196D01*
X113409193Y-83962200D01*
X113399500Y-84010930D01*
X113399500Y-84010931D01*
X113399500Y-84139069D01*
X113413793Y-84210925D01*
X113414911Y-84216542D01*
X113424500Y-84313896D01*
X113424500Y-84329264D01*
X113427353Y-84359696D01*
X113472207Y-84487883D01*
X113557984Y-84604107D01*
X113625202Y-84729224D01*
X113654447Y-84868211D01*
X113643351Y-85009807D01*
X113592812Y-85142541D01*
X113557983Y-85196736D01*
X113472655Y-85312351D01*
X113427851Y-85440393D01*
X113425000Y-85470795D01*
X113425000Y-85979193D01*
X113425001Y-85979213D01*
X113427850Y-86009602D01*
X113427850Y-86009604D01*
X113472654Y-86137647D01*
X113490129Y-86170711D01*
X113486457Y-86172651D01*
X113521491Y-86237868D01*
X113550731Y-86376856D01*
X113539629Y-86518452D01*
X113490734Y-86648188D01*
X113478812Y-86670020D01*
X113431082Y-86797988D01*
X113425000Y-86854566D01*
X113425000Y-87395432D01*
X113431082Y-87452008D01*
X113478815Y-87579984D01*
X113494209Y-87600549D01*
X113562275Y-87725207D01*
X113592464Y-87863991D01*
X113582330Y-88005659D01*
X113532694Y-88138734D01*
X113494210Y-88198617D01*
X113478371Y-88219775D01*
X113478370Y-88219777D01*
X113430588Y-88347884D01*
X113424500Y-88404514D01*
X113424500Y-88945483D01*
X113424501Y-88945489D01*
X113430586Y-89002108D01*
X113430588Y-89002114D01*
X113478373Y-89130229D01*
X113493004Y-89157024D01*
X113542637Y-89290100D01*
X113553844Y-89382188D01*
X113556623Y-89481368D01*
X113534302Y-89535256D01*
X113509303Y-89660931D01*
X113509303Y-89789069D01*
X113534302Y-89914744D01*
X113571266Y-90003984D01*
X113573844Y-90095961D01*
X113567949Y-90147091D01*
X113566112Y-90198535D01*
X113559848Y-90217353D01*
X113557577Y-90237057D01*
X113537512Y-90284461D01*
X113521259Y-90333297D01*
X113506994Y-90356566D01*
X113502217Y-90367854D01*
X113493688Y-90378272D01*
X113476537Y-90406251D01*
X113472207Y-90412116D01*
X113427353Y-90540303D01*
X113424500Y-90570735D01*
X113424500Y-91079264D01*
X113427353Y-91109696D01*
X113472207Y-91237883D01*
X113557984Y-91354107D01*
X113625202Y-91479224D01*
X113654447Y-91618211D01*
X113643351Y-91759807D01*
X113592812Y-91892541D01*
X113557983Y-91946736D01*
X113472655Y-92062351D01*
X113427851Y-92190393D01*
X113425000Y-92220795D01*
X113425000Y-92729193D01*
X113425001Y-92729213D01*
X113427850Y-92759602D01*
X113427850Y-92759604D01*
X113472654Y-92887647D01*
X113472656Y-92887649D01*
X113546217Y-92987321D01*
X113613436Y-93112437D01*
X113642683Y-93251424D01*
X113631588Y-93393020D01*
X113581050Y-93525755D01*
X113544198Y-93582673D01*
X113478813Y-93670018D01*
X113431082Y-93797988D01*
X113425000Y-93854566D01*
X113425000Y-94395432D01*
X113431082Y-94452008D01*
X113478815Y-94579984D01*
X113494209Y-94600549D01*
X113562275Y-94725207D01*
X113592464Y-94863991D01*
X113582690Y-95003992D01*
X113559791Y-95111010D01*
X113478372Y-95219774D01*
X113430588Y-95347886D01*
X113424500Y-95404515D01*
X113424500Y-95743291D01*
X113413456Y-95794909D01*
X113406957Y-95812514D01*
X113404288Y-95831083D01*
X113382468Y-95878860D01*
X113364275Y-95928152D01*
X113353080Y-95943212D01*
X113345287Y-95960278D01*
X113310886Y-95999979D01*
X113279547Y-96042142D01*
X113264566Y-96053436D01*
X113252278Y-96067618D01*
X113208082Y-96096020D01*
X113166137Y-96127645D01*
X113148579Y-96134261D01*
X113132795Y-96144406D01*
X113082384Y-96159208D01*
X113033231Y-96177732D01*
X113014523Y-96179134D01*
X112996518Y-96184421D01*
X112925501Y-96189500D01*
X111563626Y-96189500D01*
X111423041Y-96169287D01*
X111293846Y-96110286D01*
X111210780Y-96043346D01*
X110421654Y-95254220D01*
X110336538Y-95140519D01*
X110286904Y-95007444D01*
X110275500Y-94901374D01*
X110275500Y-86964169D01*
X110249909Y-86868664D01*
X110200476Y-86783044D01*
X110200474Y-86783041D01*
X108804943Y-85387510D01*
X108719827Y-85273809D01*
X108670193Y-85140734D01*
X108660060Y-84999066D01*
X108690251Y-84860281D01*
X108758319Y-84735624D01*
X108858749Y-84635194D01*
X108908288Y-84602518D01*
X108955130Y-84575475D01*
X109025043Y-84505562D01*
X112580724Y-80949880D01*
X112616372Y-80923194D01*
X112648975Y-80892840D01*
X112672957Y-80880835D01*
X112694422Y-80864767D01*
X112736150Y-80849203D01*
X112775982Y-80829265D01*
X112802373Y-80824503D01*
X112827497Y-80815133D01*
X112871922Y-80811955D01*
X112915756Y-80804047D01*
X112942416Y-80806913D01*
G37*
G04 #@! TD.AperFunction*
G04 #@! TA.AperFunction,Conductor*
G36*
X117863830Y-92422314D02*
G01*
X117996203Y-92473791D01*
X118108712Y-92560477D01*
X118192240Y-92675349D01*
X118240022Y-92809101D01*
X118250000Y-92908390D01*
X118250000Y-94090983D01*
X118229787Y-94231568D01*
X118170786Y-94360763D01*
X118077776Y-94468102D01*
X117958292Y-94544889D01*
X117822015Y-94584904D01*
X117679985Y-94584904D01*
X117543708Y-94544889D01*
X117524033Y-94533409D01*
X117523335Y-94534780D01*
X117488342Y-94516950D01*
X117375304Y-94459354D01*
X117375301Y-94459353D01*
X117375300Y-94459353D01*
X117281523Y-94444500D01*
X115620071Y-94444500D01*
X115614783Y-94443739D01*
X115609478Y-94444388D01*
X115588161Y-94439912D01*
X115479486Y-94424287D01*
X115469355Y-94421195D01*
X115448911Y-94414717D01*
X115339744Y-94369499D01*
X115249588Y-94351565D01*
X115223283Y-94343231D01*
X115183924Y-94324236D01*
X115142705Y-94309695D01*
X115120272Y-94293518D01*
X115095369Y-94281500D01*
X115062953Y-94252184D01*
X115027504Y-94226621D01*
X115010540Y-94204783D01*
X114990028Y-94186233D01*
X114967185Y-94148972D01*
X114940373Y-94114457D01*
X114930247Y-94088719D01*
X114915795Y-94065146D01*
X114904375Y-94022960D01*
X114888373Y-93982288D01*
X114884599Y-93949908D01*
X114878682Y-93928050D01*
X114879201Y-93903592D01*
X114874999Y-93867536D01*
X114874999Y-93854567D01*
X114868917Y-93797991D01*
X114821185Y-93670016D01*
X114755803Y-93582675D01*
X114752796Y-93577168D01*
X114748472Y-93572623D01*
X114718818Y-93514941D01*
X114687736Y-93458018D01*
X114686402Y-93451887D01*
X114683534Y-93446308D01*
X114671330Y-93382601D01*
X114657546Y-93319233D01*
X114657993Y-93312976D01*
X114656813Y-93306814D01*
X114663052Y-93242252D01*
X114667679Y-93177565D01*
X114669871Y-93171686D01*
X114670475Y-93165442D01*
X114678997Y-93147219D01*
X114717315Y-93044490D01*
X114723413Y-93033646D01*
X114880608Y-92762091D01*
X114895720Y-92742918D01*
X114906982Y-92721256D01*
X114939482Y-92687401D01*
X114968532Y-92650548D01*
X114988433Y-92636410D01*
X115005342Y-92618797D01*
X115046065Y-92595469D01*
X115084320Y-92568294D01*
X115107400Y-92560335D01*
X115128585Y-92548200D01*
X115174227Y-92537291D01*
X115218592Y-92521993D01*
X115242978Y-92520859D01*
X115266724Y-92515184D01*
X115313593Y-92517576D01*
X115360469Y-92515397D01*
X115384186Y-92521179D01*
X115408570Y-92522424D01*
X115466670Y-92537506D01*
X115474856Y-92540166D01*
X115568514Y-92554999D01*
X117281477Y-92554999D01*
X117281481Y-92554998D01*
X117375144Y-92540165D01*
X117375149Y-92540164D01*
X117523037Y-92464812D01*
X117525204Y-92469066D01*
X117583126Y-92438476D01*
X117722316Y-92410215D01*
X117863830Y-92422314D01*
G37*
G04 #@! TD.AperFunction*
G04 #@! TA.AperFunction,Conductor*
G36*
X117863830Y-85622314D02*
G01*
X117996203Y-85673791D01*
X118108712Y-85760477D01*
X118192240Y-85875349D01*
X118240022Y-86009101D01*
X118250000Y-86108390D01*
X118250000Y-87290983D01*
X118229787Y-87431568D01*
X118170786Y-87560763D01*
X118077776Y-87668102D01*
X117958292Y-87744889D01*
X117822015Y-87784904D01*
X117679985Y-87784904D01*
X117543708Y-87744889D01*
X117524033Y-87733409D01*
X117523335Y-87734780D01*
X117488342Y-87716950D01*
X117375304Y-87659354D01*
X117375301Y-87659353D01*
X117375300Y-87659353D01*
X117281523Y-87644500D01*
X115568483Y-87644500D01*
X115492142Y-87656591D01*
X115426421Y-87657528D01*
X115360746Y-87659874D01*
X115355519Y-87658540D01*
X115350126Y-87658617D01*
X115223128Y-87624748D01*
X115183038Y-87608142D01*
X115060890Y-87535668D01*
X114964109Y-87431716D01*
X114900534Y-87304709D01*
X114875317Y-87164936D01*
X114874999Y-87147127D01*
X114874999Y-86854567D01*
X114868917Y-86797991D01*
X114821185Y-86670016D01*
X114809269Y-86648194D01*
X114759633Y-86515119D01*
X114749500Y-86373451D01*
X114779690Y-86234666D01*
X114787476Y-86215065D01*
X114868426Y-86023206D01*
X114897082Y-85975622D01*
X114922690Y-85926362D01*
X114933581Y-85915016D01*
X114941700Y-85901536D01*
X114982602Y-85863952D01*
X115021050Y-85823903D01*
X115034697Y-85816085D01*
X115046284Y-85805439D01*
X115096108Y-85780906D01*
X115144292Y-85753305D01*
X115159592Y-85749647D01*
X115173706Y-85742699D01*
X115228420Y-85733197D01*
X115282431Y-85720289D01*
X115298141Y-85721090D01*
X115313642Y-85718399D01*
X115368818Y-85724697D01*
X115424277Y-85727528D01*
X115448348Y-85733776D01*
X115454756Y-85734508D01*
X115460495Y-85736929D01*
X115469999Y-85739396D01*
X115568514Y-85754999D01*
X117281477Y-85754999D01*
X117281481Y-85754998D01*
X117375144Y-85740165D01*
X117375149Y-85740164D01*
X117523037Y-85664812D01*
X117525204Y-85669066D01*
X117583126Y-85638476D01*
X117722316Y-85610215D01*
X117863830Y-85622314D01*
G37*
G04 #@! TD.AperFunction*
G04 #@! TA.AperFunction,Conductor*
G36*
X117863830Y-78822314D02*
G01*
X117996203Y-78873791D01*
X118108712Y-78960477D01*
X118192240Y-79075349D01*
X118240022Y-79209101D01*
X118250000Y-79308390D01*
X118250000Y-80490983D01*
X118229787Y-80631568D01*
X118170786Y-80760763D01*
X118077776Y-80868102D01*
X117958292Y-80944889D01*
X117822015Y-80984904D01*
X117679985Y-80984904D01*
X117543708Y-80944889D01*
X117524033Y-80933409D01*
X117523335Y-80934780D01*
X117488342Y-80916950D01*
X117375304Y-80859354D01*
X117375301Y-80859353D01*
X117375300Y-80859353D01*
X117281523Y-80844500D01*
X115568483Y-80844500D01*
X115492142Y-80856591D01*
X115426421Y-80857528D01*
X115360746Y-80859874D01*
X115355519Y-80858540D01*
X115350126Y-80858617D01*
X115223128Y-80824748D01*
X115183038Y-80808142D01*
X115060890Y-80735668D01*
X114964109Y-80631716D01*
X114900534Y-80504709D01*
X114875317Y-80364936D01*
X114874999Y-80347127D01*
X114874999Y-79854567D01*
X114868917Y-79797991D01*
X114821185Y-79670016D01*
X114809269Y-79648194D01*
X114794226Y-79607864D01*
X114774727Y-79569491D01*
X114769530Y-79541655D01*
X114759633Y-79515119D01*
X114756561Y-79472181D01*
X114748664Y-79429873D01*
X114751520Y-79401700D01*
X114749500Y-79373451D01*
X114758650Y-79331387D01*
X114762992Y-79288567D01*
X114772239Y-79268917D01*
X114779690Y-79234666D01*
X114810007Y-79170802D01*
X114809863Y-79170726D01*
X114811637Y-79167368D01*
X114816549Y-79157022D01*
X114827737Y-79137903D01*
X114842806Y-79118969D01*
X114845758Y-79112698D01*
X114849575Y-79107527D01*
X114851048Y-79108614D01*
X114865307Y-79090699D01*
X114900790Y-79041927D01*
X114909409Y-79035289D01*
X114916186Y-79026775D01*
X114965530Y-78992070D01*
X115013320Y-78955268D01*
X115023461Y-78951326D01*
X115032361Y-78945068D01*
X115089484Y-78925670D01*
X115145706Y-78903823D01*
X115156544Y-78902899D01*
X115166849Y-78899400D01*
X115227119Y-78896882D01*
X115287223Y-78891759D01*
X115297887Y-78893926D01*
X115308755Y-78893473D01*
X115367289Y-78908035D01*
X115426406Y-78920054D01*
X115441135Y-78926408D01*
X115446584Y-78927764D01*
X115453054Y-78931550D01*
X115467438Y-78937756D01*
X115474855Y-78940165D01*
X115568514Y-78954999D01*
X117281477Y-78954999D01*
X117281481Y-78954998D01*
X117375144Y-78940165D01*
X117375149Y-78940164D01*
X117523037Y-78864812D01*
X117525204Y-78869066D01*
X117583126Y-78838476D01*
X117722316Y-78810215D01*
X117863830Y-78822314D01*
G37*
G04 #@! TD.AperFunction*
G04 #@! TA.AperFunction,Conductor*
G36*
X117863830Y-72022314D02*
G01*
X117996203Y-72073791D01*
X118108712Y-72160477D01*
X118192240Y-72275349D01*
X118240022Y-72409101D01*
X118250000Y-72508390D01*
X118250000Y-73690983D01*
X118229787Y-73831568D01*
X118170786Y-73960763D01*
X118077776Y-74068102D01*
X117958292Y-74144889D01*
X117822015Y-74184904D01*
X117679985Y-74184904D01*
X117543708Y-74144889D01*
X117524033Y-74133409D01*
X117523335Y-74134780D01*
X117488342Y-74116950D01*
X117375304Y-74059354D01*
X117375301Y-74059353D01*
X117375300Y-74059353D01*
X117281523Y-74044500D01*
X115568483Y-74044500D01*
X115492142Y-74056591D01*
X115426420Y-74057528D01*
X115360745Y-74059874D01*
X115355518Y-74058540D01*
X115350126Y-74058617D01*
X115223127Y-74024748D01*
X115169542Y-74002552D01*
X115047395Y-73930077D01*
X114950613Y-73826126D01*
X114887039Y-73699118D01*
X114861822Y-73559345D01*
X114869301Y-73483444D01*
X114865581Y-73483045D01*
X114874999Y-73395433D01*
X114874999Y-72854567D01*
X114868917Y-72797995D01*
X114867334Y-72793750D01*
X114837142Y-72654966D01*
X114847272Y-72513298D01*
X114896905Y-72380222D01*
X114982019Y-72266520D01*
X115095719Y-72181402D01*
X115228793Y-72131766D01*
X115370461Y-72121632D01*
X115436001Y-72134425D01*
X115436065Y-72134022D01*
X115568514Y-72154999D01*
X117281477Y-72154999D01*
X117281481Y-72154998D01*
X117375144Y-72140165D01*
X117375149Y-72140164D01*
X117523037Y-72064812D01*
X117525204Y-72069066D01*
X117583126Y-72038476D01*
X117722316Y-72010215D01*
X117863830Y-72022314D01*
G37*
G04 #@! TD.AperFunction*
G04 #@! TA.AperFunction,Conductor*
G36*
X117863830Y-65222314D02*
G01*
X117996203Y-65273791D01*
X118108712Y-65360477D01*
X118192240Y-65475349D01*
X118240022Y-65609101D01*
X118250000Y-65708390D01*
X118250000Y-66890983D01*
X118229787Y-67031568D01*
X118170786Y-67160763D01*
X118077776Y-67268102D01*
X117958292Y-67344889D01*
X117822015Y-67384904D01*
X117679985Y-67384904D01*
X117543708Y-67344889D01*
X117524033Y-67333409D01*
X117523335Y-67334780D01*
X117488342Y-67316950D01*
X117375304Y-67259354D01*
X117375301Y-67259353D01*
X117375300Y-67259353D01*
X117281523Y-67244500D01*
X115568483Y-67244500D01*
X115492142Y-67256591D01*
X115426421Y-67257528D01*
X115360746Y-67259874D01*
X115355519Y-67258540D01*
X115350126Y-67258617D01*
X115223128Y-67224748D01*
X115183038Y-67208142D01*
X115060890Y-67135668D01*
X114964109Y-67031716D01*
X114900534Y-66904709D01*
X114875317Y-66764936D01*
X114874999Y-66747127D01*
X114874999Y-66354567D01*
X114868917Y-66297991D01*
X114821185Y-66170016D01*
X114809269Y-66148194D01*
X114759633Y-66015119D01*
X114749500Y-65873451D01*
X114779690Y-65734666D01*
X114798298Y-65691189D01*
X114847829Y-65589122D01*
X114871650Y-65553895D01*
X114891268Y-65516157D01*
X114911238Y-65495353D01*
X114927391Y-65471468D01*
X114960174Y-65444377D01*
X114989627Y-65413697D01*
X115014647Y-65399364D01*
X115036877Y-65380995D01*
X115075970Y-65364235D01*
X115112869Y-65343099D01*
X115140910Y-65336396D01*
X115167418Y-65325033D01*
X115209647Y-65319967D01*
X115251008Y-65310081D01*
X115279806Y-65311550D01*
X115308437Y-65308116D01*
X115350378Y-65315151D01*
X115392853Y-65317319D01*
X115446845Y-65331333D01*
X115448510Y-65331613D01*
X115449187Y-65331941D01*
X115450957Y-65332401D01*
X115474854Y-65340165D01*
X115568514Y-65354999D01*
X117281477Y-65354999D01*
X117281481Y-65354998D01*
X117375144Y-65340165D01*
X117375149Y-65340164D01*
X117523037Y-65264812D01*
X117525204Y-65269066D01*
X117583126Y-65238476D01*
X117722316Y-65210215D01*
X117863830Y-65222314D01*
G37*
G04 #@! TD.AperFunction*
G04 #@! TA.AperFunction,Conductor*
G36*
X130289129Y-30025716D02*
G01*
X130290635Y-30025509D01*
X130359370Y-30035815D01*
X130428210Y-30045713D01*
X130429593Y-30046344D01*
X130431095Y-30046570D01*
X130494115Y-30075810D01*
X130557405Y-30104714D01*
X130558554Y-30105709D01*
X130559932Y-30106349D01*
X130612165Y-30152164D01*
X130664744Y-30197724D01*
X130665566Y-30199003D01*
X130666708Y-30200005D01*
X130703953Y-30258736D01*
X130741531Y-30317208D01*
X130741958Y-30318664D01*
X130742774Y-30319950D01*
X130761965Y-30386800D01*
X130781546Y-30453485D01*
X130781546Y-30455006D01*
X130781965Y-30456466D01*
X130781546Y-30525986D01*
X130781546Y-30595515D01*
X130781109Y-30598493D01*
X130761381Y-30730060D01*
X130758959Y-30754658D01*
X130751721Y-30852798D01*
X130746914Y-30950680D01*
X130744500Y-31049078D01*
X130744500Y-40700920D01*
X130746914Y-40799317D01*
X130751719Y-40897168D01*
X130758969Y-40995438D01*
X130763460Y-41041032D01*
X130785252Y-41198215D01*
X130813129Y-41353762D01*
X130827872Y-41427937D01*
X130827878Y-41427959D01*
X130908719Y-41702409D01*
X130908722Y-41702420D01*
X130908726Y-41702431D01*
X130908731Y-41702446D01*
X130908734Y-41702453D01*
X130979522Y-41891748D01*
X131024939Y-42002932D01*
X131151968Y-42241578D01*
X131159387Y-42255516D01*
X131266851Y-42426717D01*
X131333708Y-42526465D01*
X131333717Y-42526476D01*
X131334291Y-42527245D01*
X131335375Y-42528951D01*
X131340749Y-42536969D01*
X131340552Y-42537100D01*
X131374465Y-42590477D01*
X131408020Y-42653253D01*
X131408024Y-42653260D01*
X131604561Y-42947399D01*
X131604563Y-42947401D01*
X131604564Y-42947402D01*
X131828988Y-43220864D01*
X131828997Y-43220873D01*
X131956278Y-43348154D01*
X132041394Y-43461855D01*
X132091028Y-43594930D01*
X132101161Y-43736598D01*
X132070970Y-43875383D01*
X132002902Y-44000040D01*
X131902472Y-44100470D01*
X131777815Y-44168538D01*
X131639030Y-44198729D01*
X131603432Y-44200000D01*
X130500000Y-44200000D01*
X130500000Y-49466819D01*
X130497652Y-49515171D01*
X130485929Y-49635584D01*
X130467276Y-49730473D01*
X130439537Y-49823039D01*
X130402934Y-49912543D01*
X130357861Y-49998023D01*
X130304681Y-50078789D01*
X130228676Y-50172905D01*
X130196471Y-50209047D01*
X125311320Y-55183018D01*
X125274903Y-55216589D01*
X125179854Y-55295856D01*
X125097962Y-55351379D01*
X125091954Y-55354634D01*
X125011052Y-55398464D01*
X124919818Y-55436737D01*
X124887973Y-55446515D01*
X124825322Y-55465751D01*
X124728332Y-55485270D01*
X124605172Y-55497541D01*
X124555699Y-55500000D01*
X118250000Y-55500000D01*
X118250000Y-60090983D01*
X118229787Y-60231568D01*
X118170786Y-60360763D01*
X118077776Y-60468102D01*
X117958292Y-60544889D01*
X117822015Y-60584904D01*
X117679985Y-60584904D01*
X117543708Y-60544889D01*
X117524033Y-60533409D01*
X117523335Y-60534780D01*
X117488342Y-60516950D01*
X117375304Y-60459354D01*
X117375301Y-60459353D01*
X117375300Y-60459353D01*
X117281523Y-60444500D01*
X115568483Y-60444500D01*
X115492142Y-60456591D01*
X115426423Y-60457528D01*
X115360747Y-60459874D01*
X115355520Y-60458540D01*
X115350126Y-60458617D01*
X115223129Y-60424748D01*
X115127667Y-60385206D01*
X115005519Y-60312732D01*
X114908737Y-60208781D01*
X114845162Y-60081774D01*
X114819945Y-59942000D01*
X114835128Y-59800784D01*
X114851090Y-59749805D01*
X114868917Y-59702007D01*
X114874999Y-59645433D01*
X114874999Y-59104567D01*
X114868917Y-59047991D01*
X114821185Y-58920016D01*
X114739330Y-58810669D01*
X114629981Y-58728813D01*
X114629982Y-58728813D01*
X114502010Y-58681082D01*
X114502011Y-58681082D01*
X114445433Y-58675000D01*
X113854567Y-58675000D01*
X113797991Y-58681082D01*
X113670016Y-58728814D01*
X113560669Y-58810669D01*
X113478813Y-58920017D01*
X113431082Y-59047988D01*
X113425000Y-59104566D01*
X113425000Y-59645438D01*
X113425001Y-59645441D01*
X113433249Y-59722164D01*
X113428179Y-59864104D01*
X113383324Y-59998865D01*
X113302320Y-60115531D01*
X113191729Y-60204649D01*
X113060510Y-60259001D01*
X112937108Y-60274500D01*
X108565685Y-60274500D01*
X108461369Y-60263475D01*
X108356036Y-60240957D01*
X108262882Y-60172207D01*
X108134699Y-60127354D01*
X108104266Y-60124500D01*
X107811262Y-60124500D01*
X107759689Y-60113475D01*
X107742038Y-60106963D01*
X107723420Y-60104287D01*
X107675674Y-60082482D01*
X107626437Y-60064319D01*
X107611340Y-60053102D01*
X107594225Y-60045286D01*
X107516290Y-59982481D01*
X107512430Y-59979613D01*
X107511963Y-59978994D01*
X107511159Y-59978346D01*
X106512029Y-58979215D01*
X106426913Y-58865514D01*
X106377279Y-58732439D01*
X106365875Y-58626369D01*
X106365875Y-57392722D01*
X106386088Y-57252137D01*
X106445089Y-57122942D01*
X106538099Y-57015603D01*
X106657583Y-56938816D01*
X106793860Y-56898801D01*
X106935890Y-56898801D01*
X107055838Y-56931708D01*
X107160401Y-56975020D01*
X107160400Y-56975020D01*
X107285980Y-56999999D01*
X107285986Y-57000000D01*
X107914014Y-57000000D01*
X107914019Y-56999999D01*
X108039598Y-56975020D01*
X108157887Y-56926023D01*
X108264355Y-56854884D01*
X108354884Y-56764355D01*
X108426023Y-56657887D01*
X108475020Y-56539598D01*
X108499999Y-56414019D01*
X108500000Y-56414014D01*
X108500000Y-56285986D01*
X108499999Y-56285980D01*
X108475020Y-56160401D01*
X108426022Y-56042110D01*
X108399673Y-56002675D01*
X108338376Y-55874553D01*
X108315658Y-55734351D01*
X108333360Y-55593428D01*
X108390047Y-55463201D01*
X108399679Y-55448215D01*
X108422485Y-55414083D01*
X108426465Y-55408127D01*
X108472212Y-55297685D01*
X108475499Y-55289749D01*
X108475503Y-55289736D01*
X108500499Y-55164074D01*
X108500500Y-55164068D01*
X108500500Y-55035932D01*
X108500499Y-55035925D01*
X108475503Y-54910263D01*
X108475499Y-54910250D01*
X108426466Y-54791875D01*
X108426463Y-54791870D01*
X108399979Y-54752234D01*
X108338679Y-54624113D01*
X108315959Y-54483912D01*
X108333658Y-54342989D01*
X108390342Y-54212760D01*
X108399979Y-54197766D01*
X108426465Y-54158127D01*
X108475501Y-54039744D01*
X108500500Y-53914069D01*
X108500500Y-53785931D01*
X108488404Y-53725122D01*
X108475503Y-53660263D01*
X108475499Y-53660250D01*
X108426466Y-53541875D01*
X108426463Y-53541870D01*
X108399979Y-53502234D01*
X108338679Y-53374113D01*
X108315959Y-53233912D01*
X108333658Y-53092989D01*
X108390342Y-52962760D01*
X108399979Y-52947766D01*
X108426465Y-52908127D01*
X108475501Y-52789744D01*
X108488281Y-52725499D01*
X108500499Y-52664074D01*
X108500500Y-52664068D01*
X108500500Y-52535932D01*
X108500499Y-52535925D01*
X108475503Y-52410263D01*
X108475499Y-52410250D01*
X108426466Y-52291875D01*
X108426463Y-52291870D01*
X108399979Y-52252234D01*
X108338679Y-52124113D01*
X108315959Y-51983912D01*
X108333658Y-51842989D01*
X108390342Y-51712760D01*
X108399979Y-51697766D01*
X108426465Y-51658127D01*
X108475501Y-51539744D01*
X108479474Y-51519774D01*
X108500499Y-51414074D01*
X108500500Y-51414068D01*
X108500500Y-51285932D01*
X108500499Y-51285925D01*
X108475503Y-51160263D01*
X108475499Y-51160250D01*
X108426466Y-51041875D01*
X108426463Y-51041870D01*
X108399979Y-51002234D01*
X108338679Y-50874113D01*
X108315959Y-50733912D01*
X108333658Y-50592989D01*
X108390342Y-50462760D01*
X108399979Y-50447766D01*
X108426465Y-50408127D01*
X108475501Y-50289744D01*
X108476387Y-50285294D01*
X108500499Y-50164074D01*
X108500500Y-50164068D01*
X108500500Y-50035932D01*
X108500499Y-50035925D01*
X108475503Y-49910263D01*
X108475499Y-49910250D01*
X108426466Y-49791875D01*
X108426463Y-49791870D01*
X108425313Y-49790149D01*
X108399978Y-49752233D01*
X108338679Y-49624113D01*
X108315959Y-49483912D01*
X108333658Y-49342989D01*
X108390342Y-49212760D01*
X108399979Y-49197766D01*
X108405135Y-49190049D01*
X108426465Y-49158127D01*
X108475501Y-49039744D01*
X108485496Y-48989500D01*
X108500499Y-48914074D01*
X108500500Y-48914068D01*
X108500500Y-48785932D01*
X108500499Y-48785925D01*
X108475503Y-48660263D01*
X108475499Y-48660250D01*
X108426464Y-48541870D01*
X108422109Y-48533722D01*
X108373664Y-48400209D01*
X108364796Y-48258456D01*
X108396224Y-48119946D01*
X108436416Y-48046525D01*
X108435319Y-48045945D01*
X108452789Y-48012886D01*
X108452793Y-48012882D01*
X108497646Y-47884699D01*
X108500500Y-47854266D01*
X108500500Y-47345734D01*
X108497646Y-47315301D01*
X108452793Y-47187118D01*
X108372150Y-47077850D01*
X108262882Y-46997207D01*
X108134699Y-46952354D01*
X108134698Y-46952353D01*
X108134696Y-46952353D01*
X108107777Y-46949829D01*
X108104266Y-46949500D01*
X107095734Y-46949500D01*
X107092585Y-46949795D01*
X107065303Y-46952353D01*
X106956051Y-46990582D01*
X106937118Y-46997207D01*
X106862880Y-47051996D01*
X106737768Y-47119213D01*
X106598781Y-47148459D01*
X106566568Y-47149500D01*
X106552730Y-47149500D01*
X106425438Y-47183607D01*
X106311307Y-47249502D01*
X106311305Y-47249503D01*
X105877346Y-47683463D01*
X105763645Y-47768579D01*
X105630570Y-47818213D01*
X105488902Y-47828346D01*
X105350117Y-47798155D01*
X105225460Y-47730087D01*
X105125030Y-47629657D01*
X105056962Y-47505000D01*
X105026771Y-47366215D01*
X105025500Y-47330617D01*
X105025500Y-30858210D01*
X105025819Y-30855986D01*
X105025520Y-30853762D01*
X105035918Y-30785749D01*
X105045713Y-30717625D01*
X105046985Y-30713364D01*
X105061852Y-30664352D01*
X105061856Y-30664343D01*
X105099289Y-30573970D01*
X105145364Y-30487770D01*
X105199706Y-30406441D01*
X105261717Y-30330880D01*
X105330880Y-30261717D01*
X105406441Y-30199706D01*
X105487769Y-30145365D01*
X105538265Y-30118374D01*
X105573973Y-30099287D01*
X105664348Y-30061853D01*
X105713370Y-30046982D01*
X105853769Y-30025520D01*
X105858210Y-30025500D01*
X130287625Y-30025500D01*
X130289129Y-30025716D01*
G37*
G04 #@! TD.AperFunction*
G04 #@! TA.AperFunction,Conductor*
G36*
X204282375Y-30045713D02*
G01*
X204286630Y-30046983D01*
X204335649Y-30061852D01*
X204426029Y-30099289D01*
X204512230Y-30145365D01*
X204593563Y-30199710D01*
X204669115Y-30261714D01*
X204738285Y-30330884D01*
X204800289Y-30406436D01*
X204854635Y-30487770D01*
X204900710Y-30573970D01*
X204938144Y-30664343D01*
X204953012Y-30713355D01*
X204974480Y-30853753D01*
X204974500Y-30858210D01*
X204974500Y-54641789D01*
X204974180Y-54644013D01*
X204974480Y-54646239D01*
X204964083Y-54714237D01*
X204954287Y-54782374D01*
X204953014Y-54786638D01*
X204938147Y-54835649D01*
X204900710Y-54926029D01*
X204854634Y-55012230D01*
X204800289Y-55093563D01*
X204738285Y-55169115D01*
X204669115Y-55238285D01*
X204593563Y-55300289D01*
X204512230Y-55354634D01*
X204426029Y-55400710D01*
X204335650Y-55438146D01*
X204302460Y-55448215D01*
X204242115Y-55466520D01*
X204146180Y-55485602D01*
X204077882Y-55492329D01*
X204024395Y-55497597D01*
X203975487Y-55500000D01*
X185654703Y-55500000D01*
X185609252Y-55497926D01*
X185605043Y-55497541D01*
X185495971Y-55487564D01*
X185406582Y-55471075D01*
X185319075Y-55446515D01*
X185234158Y-55414083D01*
X185152566Y-55374060D01*
X185074942Y-55326762D01*
X184983596Y-55258970D01*
X184948336Y-55230219D01*
X184131818Y-54500000D01*
X184131818Y-54499999D01*
X184131817Y-54499999D01*
X179582613Y-50431605D01*
X179566640Y-50412578D01*
X179547412Y-50396835D01*
X179521190Y-50358435D01*
X179491295Y-50322823D01*
X179481327Y-50300060D01*
X179467317Y-50279543D01*
X179452976Y-50235313D01*
X179434325Y-50192719D01*
X179423511Y-50144437D01*
X179422284Y-50137318D01*
X179413225Y-50084781D01*
X179409258Y-49942812D01*
X179413223Y-49915234D01*
X179444224Y-49735433D01*
X179450500Y-49613016D01*
X179450500Y-49541615D01*
X179451914Y-49531776D01*
X179450890Y-49521890D01*
X179459829Y-49476725D01*
X179470713Y-49401030D01*
X179476644Y-49382215D01*
X179481411Y-49368072D01*
X179483740Y-49362358D01*
X179496035Y-49324689D01*
X179496772Y-49322506D01*
X179496990Y-49322074D01*
X179501234Y-49309835D01*
X179516135Y-49269271D01*
X179516588Y-49267346D01*
X179534803Y-49212760D01*
X179552119Y-49160869D01*
X179564652Y-49105009D01*
X179569939Y-49083662D01*
X179599645Y-48974152D01*
X179668510Y-48657583D01*
X179677318Y-48623073D01*
X179777863Y-48280647D01*
X179789100Y-48246885D01*
X179913821Y-47912495D01*
X179927438Y-47879621D01*
X180075702Y-47554968D01*
X180091613Y-47523181D01*
X180262691Y-47209878D01*
X180280842Y-47179286D01*
X180398446Y-46996293D01*
X180438090Y-46931973D01*
X180476361Y-46867179D01*
X180601032Y-46618065D01*
X180678723Y-46431457D01*
X180721535Y-46319274D01*
X180795988Y-46042989D01*
X180834525Y-45844563D01*
X180853879Y-45726051D01*
X180871192Y-45440434D01*
X180868997Y-45238311D01*
X180856504Y-45035540D01*
X180856501Y-45035514D01*
X180856344Y-45032964D01*
X180858537Y-44946416D01*
X180871990Y-44827021D01*
X180876244Y-44797332D01*
X180879558Y-44778304D01*
X180879792Y-44775995D01*
X180879791Y-44775994D01*
X180881258Y-44761518D01*
X180883680Y-44741614D01*
X180887560Y-44714321D01*
X180892573Y-44651479D01*
X180893553Y-44640677D01*
X180899937Y-44577912D01*
X180910227Y-44375014D01*
X180910228Y-44375011D01*
X180910228Y-44262443D01*
X180903555Y-44098979D01*
X180903555Y-44098976D01*
X180903555Y-44098971D01*
X180861717Y-43827662D01*
X180860268Y-43685639D01*
X180864275Y-43660507D01*
X180889815Y-43522972D01*
X180910228Y-43237560D01*
X180910228Y-43125000D01*
X180910110Y-43103271D01*
X180909875Y-43081583D01*
X180894827Y-42857143D01*
X180873463Y-42684410D01*
X180871722Y-42670335D01*
X180871101Y-42665086D01*
X180858795Y-42555866D01*
X180858795Y-42444131D01*
X180871990Y-42327026D01*
X180876244Y-42297332D01*
X180879558Y-42278304D01*
X180879792Y-42275995D01*
X180879791Y-42275994D01*
X180881258Y-42261518D01*
X180883680Y-42241614D01*
X180887560Y-42214321D01*
X180892573Y-42151479D01*
X180893553Y-42140677D01*
X180899937Y-42077912D01*
X180910227Y-41875014D01*
X180910228Y-41875011D01*
X180910228Y-41762443D01*
X180903555Y-41598979D01*
X180903555Y-41598976D01*
X180903555Y-41598971D01*
X180861717Y-41327662D01*
X180860268Y-41185639D01*
X180864275Y-41160507D01*
X180889815Y-41022972D01*
X180910228Y-40737560D01*
X180910228Y-40625000D01*
X180910110Y-40603271D01*
X180909875Y-40581583D01*
X180894827Y-40357143D01*
X180873463Y-40184410D01*
X180871722Y-40170335D01*
X180871101Y-40165086D01*
X180858795Y-40055866D01*
X180858795Y-39944131D01*
X180871990Y-39827026D01*
X180876244Y-39797332D01*
X180879558Y-39778304D01*
X180879792Y-39775995D01*
X180879791Y-39775994D01*
X180881258Y-39761518D01*
X180883680Y-39741614D01*
X180887560Y-39714321D01*
X180892573Y-39651479D01*
X180893553Y-39640677D01*
X180899937Y-39577912D01*
X180910227Y-39375014D01*
X180910228Y-39375011D01*
X180910228Y-39262443D01*
X180903555Y-39098979D01*
X180903555Y-39098976D01*
X180903555Y-39098971D01*
X180861717Y-38827662D01*
X180860268Y-38685639D01*
X180864275Y-38660507D01*
X180889815Y-38522972D01*
X180910228Y-38237560D01*
X180910228Y-38125000D01*
X180910110Y-38103271D01*
X180909875Y-38081583D01*
X180894827Y-37857143D01*
X180873463Y-37684410D01*
X180871722Y-37670335D01*
X180871101Y-37665086D01*
X180858795Y-37555866D01*
X180858795Y-37444131D01*
X180871990Y-37327026D01*
X180876244Y-37297332D01*
X180879558Y-37278304D01*
X180879792Y-37275995D01*
X180879791Y-37275994D01*
X180881258Y-37261518D01*
X180883680Y-37241614D01*
X180887560Y-37214321D01*
X180892573Y-37151479D01*
X180893553Y-37140677D01*
X180899937Y-37077912D01*
X180910227Y-36875014D01*
X180910228Y-36875011D01*
X180910228Y-36762443D01*
X180903555Y-36598979D01*
X180903555Y-36598976D01*
X180903555Y-36598971D01*
X180861717Y-36327662D01*
X180860268Y-36185639D01*
X180864275Y-36160507D01*
X180889815Y-36022972D01*
X180910228Y-35737560D01*
X180910228Y-35625000D01*
X180910110Y-35603271D01*
X180909875Y-35581583D01*
X180894827Y-35357143D01*
X180873463Y-35184410D01*
X180871722Y-35170335D01*
X180871101Y-35165086D01*
X180858795Y-35055866D01*
X180858795Y-34944131D01*
X180871990Y-34827026D01*
X180876244Y-34797332D01*
X180879558Y-34778304D01*
X180879792Y-34775995D01*
X180879791Y-34775994D01*
X180881258Y-34761518D01*
X180883680Y-34741614D01*
X180887560Y-34714321D01*
X180892573Y-34651479D01*
X180893553Y-34640677D01*
X180899937Y-34577912D01*
X180910227Y-34375014D01*
X180910228Y-34375011D01*
X180910228Y-34262443D01*
X180903555Y-34098979D01*
X180903555Y-34098976D01*
X180903555Y-34098971D01*
X180861717Y-33827662D01*
X180860268Y-33685639D01*
X180864275Y-33660507D01*
X180889815Y-33522972D01*
X180910228Y-33237560D01*
X180910228Y-33125000D01*
X180910110Y-33103271D01*
X180909875Y-33081583D01*
X180894827Y-32857143D01*
X180873463Y-32684410D01*
X180871722Y-32670335D01*
X180871103Y-32665106D01*
X180858795Y-32555866D01*
X180858795Y-32444129D01*
X180862590Y-32410442D01*
X180865432Y-32391381D01*
X180865169Y-32391342D01*
X180866476Y-32382563D01*
X180866479Y-32382548D01*
X180898426Y-32099100D01*
X180906723Y-31897136D01*
X180904770Y-31693996D01*
X180899820Y-31611980D01*
X180899818Y-31611943D01*
X180896792Y-31569359D01*
X180896791Y-31569355D01*
X180896790Y-31569333D01*
X180867489Y-31379320D01*
X180864804Y-31359192D01*
X180858136Y-31300013D01*
X180855000Y-31244157D01*
X180855000Y-31237846D01*
X180855364Y-31224412D01*
X180855459Y-31215851D01*
X180855460Y-31215844D01*
X180858643Y-30929721D01*
X180853440Y-30843506D01*
X180844750Y-30742258D01*
X180836300Y-30666418D01*
X180835134Y-30651966D01*
X180834013Y-30645878D01*
X180833552Y-30641731D01*
X180831415Y-30623322D01*
X180830677Y-30619521D01*
X180830609Y-30618112D01*
X180829964Y-30613945D01*
X180830402Y-30613877D01*
X180823750Y-30477663D01*
X180857069Y-30339596D01*
X180927937Y-30216509D01*
X181030611Y-30118374D01*
X181156775Y-30053141D01*
X181296206Y-30026094D01*
X181320547Y-30025500D01*
X204141790Y-30025500D01*
X204282375Y-30045713D01*
G37*
G04 #@! TD.AperFunction*
G04 #@! TA.AperFunction,Conductor*
G36*
X162199677Y-30045950D02*
G01*
X162392541Y-30106461D01*
X162569277Y-30204557D01*
X162722648Y-30336222D01*
X162846376Y-30496065D01*
X162935394Y-30677542D01*
X162986060Y-30873224D01*
X162992766Y-30926558D01*
X162995191Y-30951180D01*
X163000000Y-31049074D01*
X163000000Y-48450925D01*
X162995189Y-48548842D01*
X162990699Y-48594435D01*
X162950636Y-48792559D01*
X162871510Y-48978563D01*
X162756563Y-49144832D01*
X162610498Y-49284558D01*
X162439297Y-49392022D01*
X162249968Y-49462823D01*
X162094437Y-49490698D01*
X162048842Y-49495189D01*
X161950925Y-49500000D01*
X161628254Y-49500000D01*
X161427157Y-49479550D01*
X161234293Y-49419039D01*
X161224739Y-49414880D01*
X161167184Y-49389467D01*
X160959631Y-49340651D01*
X160871022Y-49334500D01*
X160871012Y-49334500D01*
X159078988Y-49334500D01*
X159078983Y-49334500D01*
X159078960Y-49334501D01*
X159068660Y-49335216D01*
X159063296Y-49335044D01*
X159061681Y-49335100D01*
X159061677Y-49334992D01*
X159009238Y-49333310D01*
X158949854Y-49336379D01*
X158908463Y-49330078D01*
X158866629Y-49328737D01*
X158808809Y-49314909D01*
X158750021Y-49305961D01*
X158710748Y-49291458D01*
X158670039Y-49281723D01*
X158616180Y-49256536D01*
X158560402Y-49235939D01*
X158524854Y-49213829D01*
X158486936Y-49196097D01*
X158439250Y-49160585D01*
X158388760Y-49129181D01*
X158358391Y-49100368D01*
X158324818Y-49075366D01*
X158285257Y-49030981D01*
X158242122Y-48990057D01*
X158218173Y-48955719D01*
X158190322Y-48924472D01*
X158160506Y-48873034D01*
X158126491Y-48824263D01*
X158109945Y-48785808D01*
X158088953Y-48749593D01*
X158070100Y-48693201D01*
X158046601Y-48638586D01*
X158038135Y-48597591D01*
X158024862Y-48557889D01*
X158017747Y-48498860D01*
X158005722Y-48440629D01*
X158002026Y-48368437D01*
X158000673Y-48357207D01*
X158000500Y-48339566D01*
X158000500Y-47846984D01*
X158000021Y-47837641D01*
X158000000Y-47815618D01*
X158000010Y-47815510D01*
X158000000Y-47814665D01*
X158000000Y-47250001D01*
X157999998Y-47249997D01*
X157932599Y-47182598D01*
X157804862Y-47025940D01*
X157736828Y-46905253D01*
X157728889Y-46888561D01*
X157728884Y-46888552D01*
X157567533Y-46642552D01*
X157374191Y-46420820D01*
X157374186Y-46420814D01*
X157302849Y-46358611D01*
X157152453Y-46227471D01*
X156906439Y-46066110D01*
X156889739Y-46058168D01*
X156716917Y-45953332D01*
X156612400Y-45862400D01*
X152500000Y-41750000D01*
X152499999Y-41750000D01*
X150299075Y-41750000D01*
X150201155Y-41745189D01*
X150155565Y-41740698D01*
X149957442Y-41700636D01*
X149771438Y-41621511D01*
X149605169Y-41506564D01*
X149465442Y-41360500D01*
X149357978Y-41189299D01*
X149287177Y-40999970D01*
X149259300Y-40844425D01*
X149254808Y-40798823D01*
X149250000Y-40700925D01*
X149250000Y-31049074D01*
X149254808Y-30951180D01*
X149257230Y-30926584D01*
X149297289Y-30728469D01*
X149376410Y-30542464D01*
X149491355Y-30376193D01*
X149637417Y-30236464D01*
X149808616Y-30128997D01*
X149997944Y-30058192D01*
X150197649Y-30026948D01*
X150251420Y-30025500D01*
X161998580Y-30025500D01*
X162199677Y-30045950D01*
G37*
G04 #@! TD.AperFunction*
G04 #@! TA.AperFunction,Conductor*
G36*
X161545080Y-50501282D02*
G01*
X161566414Y-50502363D01*
X161628254Y-50505500D01*
X161628266Y-50505500D01*
X161950910Y-50505500D01*
X161950925Y-50505500D01*
X161972008Y-50504982D01*
X162061410Y-50511861D01*
X162150928Y-50516685D01*
X162162059Y-50519604D01*
X162173540Y-50520488D01*
X162259747Y-50545227D01*
X162346448Y-50567969D01*
X162356763Y-50573069D01*
X162367832Y-50576246D01*
X162447288Y-50617829D01*
X162527643Y-50657561D01*
X162536722Y-50664635D01*
X162546922Y-50669973D01*
X162616371Y-50726692D01*
X162687094Y-50781794D01*
X162694563Y-50790551D01*
X162703480Y-50797833D01*
X162760081Y-50867360D01*
X162818273Y-50935580D01*
X162823828Y-50945663D01*
X162831095Y-50954590D01*
X162872545Y-51034094D01*
X162915809Y-51112625D01*
X162919220Y-51123618D01*
X162924542Y-51133826D01*
X162949138Y-51220041D01*
X162975711Y-51305680D01*
X162978082Y-51321493D01*
X162979997Y-51328205D01*
X162990718Y-51405758D01*
X162995189Y-51451151D01*
X163000000Y-51549074D01*
X163000000Y-76200925D01*
X162995189Y-76298850D01*
X162990699Y-76344435D01*
X162950636Y-76542559D01*
X162871510Y-76728563D01*
X162756563Y-76894832D01*
X162610498Y-77034558D01*
X162439297Y-77142022D01*
X162249968Y-77212823D01*
X162094437Y-77240698D01*
X162048842Y-77245189D01*
X161950925Y-77250000D01*
X159049075Y-77250000D01*
X158951155Y-77245189D01*
X158905565Y-77240698D01*
X158707442Y-77200636D01*
X158521438Y-77121511D01*
X158355169Y-77006564D01*
X158215442Y-76860500D01*
X158107978Y-76689299D01*
X158037177Y-76499970D01*
X158009300Y-76344425D01*
X158004808Y-76298823D01*
X158000000Y-76200925D01*
X158000000Y-71583768D01*
X158020450Y-71382671D01*
X158080961Y-71189807D01*
X158179057Y-71013071D01*
X158310722Y-70859700D01*
X158470565Y-70735972D01*
X158582407Y-70681111D01*
X158581692Y-70679648D01*
X158674509Y-70634272D01*
X158756483Y-70594198D01*
X158839198Y-70511483D01*
X158890573Y-70406393D01*
X158900500Y-70338260D01*
X158900500Y-69971740D01*
X158890573Y-69903607D01*
X158890571Y-69903602D01*
X158867668Y-69829478D01*
X158869224Y-69828997D01*
X158849121Y-69775006D01*
X158733119Y-69335619D01*
X158756483Y-69324198D01*
X158839198Y-69241483D01*
X158890573Y-69136393D01*
X158900500Y-69068260D01*
X158900500Y-68701740D01*
X158890573Y-68633607D01*
X158839198Y-68528517D01*
X158756483Y-68445802D01*
X158651393Y-68394427D01*
X158583260Y-68384500D01*
X158482018Y-68384500D01*
X158346188Y-67870006D01*
X158336974Y-67811722D01*
X158322870Y-67754421D01*
X158321233Y-67712140D01*
X158314628Y-67670350D01*
X158317335Y-67611405D01*
X158315054Y-67552438D01*
X158321962Y-67510693D01*
X158323904Y-67468429D01*
X158338421Y-67411236D01*
X158348057Y-67353016D01*
X158363227Y-67313516D01*
X158373637Y-67272508D01*
X158399371Y-67219406D01*
X158420528Y-67164320D01*
X158443337Y-67128685D01*
X158461790Y-67090609D01*
X158497688Y-67043773D01*
X158529500Y-66994074D01*
X158559017Y-66963758D01*
X158584755Y-66930179D01*
X158629344Y-66891529D01*
X158670511Y-66849250D01*
X158731602Y-66801962D01*
X158756476Y-66784201D01*
X158756483Y-66784198D01*
X158839198Y-66701483D01*
X158890573Y-66596393D01*
X158900500Y-66528260D01*
X158900500Y-66161740D01*
X158890573Y-66093607D01*
X158879391Y-66070734D01*
X158839200Y-65988521D01*
X158839199Y-65988520D01*
X158839198Y-65988517D01*
X158756483Y-65905802D01*
X158756480Y-65905800D01*
X158756478Y-65905799D01*
X158581692Y-65820352D01*
X158582315Y-65819077D01*
X158517951Y-65791784D01*
X158351550Y-65677027D01*
X158211657Y-65531122D01*
X158103997Y-65360044D01*
X158032979Y-65170797D01*
X158001509Y-64971127D01*
X158000000Y-64916231D01*
X158000000Y-52162768D01*
X158000500Y-52153016D01*
X158000500Y-51656984D01*
X158000000Y-51647231D01*
X158000000Y-51549074D01*
X158004809Y-51451171D01*
X158004811Y-51451151D01*
X158009300Y-51405575D01*
X158049357Y-51207461D01*
X158128478Y-51021455D01*
X158243422Y-50855184D01*
X158389484Y-50715454D01*
X158560683Y-50607987D01*
X158750010Y-50537182D01*
X158905576Y-50509300D01*
X158951174Y-50504808D01*
X159049075Y-50500000D01*
X161494482Y-50500000D01*
X161545080Y-50501282D01*
G37*
G04 #@! TD.AperFunction*
G04 #@! TA.AperFunction,Conductor*
G36*
X176829960Y-50520450D02*
G01*
X177022824Y-50580961D01*
X177199560Y-50679057D01*
X177352931Y-50810722D01*
X177476659Y-50970565D01*
X177565677Y-51152042D01*
X177611992Y-51321635D01*
X177613968Y-51332588D01*
X177727849Y-51856095D01*
X177727857Y-51856125D01*
X177878794Y-52370167D01*
X178066021Y-52872141D01*
X178239951Y-53252994D01*
X178288587Y-53359493D01*
X178514124Y-53772533D01*
X178545354Y-53829725D01*
X178612294Y-53933886D01*
X178835005Y-54280432D01*
X179156076Y-54709332D01*
X179302551Y-54878374D01*
X179418784Y-55043740D01*
X179499351Y-55229124D01*
X179540952Y-55426931D01*
X179546511Y-55523325D01*
X179736203Y-76009971D01*
X179736203Y-76009972D01*
X179740197Y-76441372D01*
X179736243Y-76539896D01*
X179732130Y-76585737D01*
X179722044Y-76637945D01*
X179721610Y-76642650D01*
X179720305Y-76646945D01*
X179693791Y-76784202D01*
X179616287Y-76970887D01*
X179502789Y-77138149D01*
X179357945Y-77279140D01*
X179187685Y-77388089D01*
X178998979Y-77460534D01*
X178835631Y-77490594D01*
X178789832Y-77495132D01*
X178691328Y-77500000D01*
X175500000Y-77500000D01*
X175499000Y-77500000D01*
X175297903Y-77479550D01*
X175105039Y-77419039D01*
X174928303Y-77320943D01*
X174774932Y-77189278D01*
X174651204Y-77029435D01*
X174562186Y-76847958D01*
X174511520Y-76652276D01*
X174500000Y-76501000D01*
X174500000Y-71583768D01*
X174520450Y-71382671D01*
X174580961Y-71189807D01*
X174679057Y-71013071D01*
X174810722Y-70859700D01*
X174970565Y-70735972D01*
X175082407Y-70681111D01*
X175081692Y-70679648D01*
X175174509Y-70634272D01*
X175256483Y-70594198D01*
X175339198Y-70511483D01*
X175390573Y-70406393D01*
X175400500Y-70338260D01*
X175400500Y-69971740D01*
X175390573Y-69903607D01*
X175390571Y-69903602D01*
X175367668Y-69829478D01*
X175369224Y-69828997D01*
X175349121Y-69775006D01*
X175233119Y-69335619D01*
X175256483Y-69324198D01*
X175339198Y-69241483D01*
X175390573Y-69136393D01*
X175400500Y-69068260D01*
X175400500Y-68701740D01*
X175390573Y-68633607D01*
X175339198Y-68528517D01*
X175256483Y-68445802D01*
X175151393Y-68394427D01*
X175083260Y-68384500D01*
X174982018Y-68384500D01*
X174846188Y-67870006D01*
X174836974Y-67811722D01*
X174822870Y-67754421D01*
X174821233Y-67712140D01*
X174814628Y-67670350D01*
X174817335Y-67611405D01*
X174815054Y-67552438D01*
X174821962Y-67510693D01*
X174823904Y-67468429D01*
X174838421Y-67411236D01*
X174848057Y-67353016D01*
X174863227Y-67313516D01*
X174873637Y-67272508D01*
X174899371Y-67219406D01*
X174920528Y-67164320D01*
X174943337Y-67128685D01*
X174961790Y-67090609D01*
X174997688Y-67043773D01*
X175029500Y-66994074D01*
X175059017Y-66963758D01*
X175084755Y-66930179D01*
X175129344Y-66891529D01*
X175170511Y-66849250D01*
X175231602Y-66801962D01*
X175256476Y-66784201D01*
X175256483Y-66784198D01*
X175339198Y-66701483D01*
X175390573Y-66596393D01*
X175400500Y-66528260D01*
X175400500Y-66161740D01*
X175390573Y-66093607D01*
X175339198Y-65988517D01*
X175256483Y-65905802D01*
X175256480Y-65905800D01*
X175256478Y-65905799D01*
X175081692Y-65820352D01*
X175082315Y-65819077D01*
X175017951Y-65791784D01*
X174851550Y-65677027D01*
X174711657Y-65531122D01*
X174603997Y-65360044D01*
X174532979Y-65170797D01*
X174501509Y-64971127D01*
X174500000Y-64916231D01*
X174500000Y-52162768D01*
X174500500Y-52153016D01*
X174500500Y-51656984D01*
X174500000Y-51647231D01*
X174500000Y-51549074D01*
X174504809Y-51451171D01*
X174509300Y-51405575D01*
X174549357Y-51207461D01*
X174628478Y-51021455D01*
X174743422Y-50855184D01*
X174889484Y-50715454D01*
X175060683Y-50607987D01*
X175250010Y-50537182D01*
X175405576Y-50509300D01*
X175451174Y-50504808D01*
X175549075Y-50500000D01*
X176628863Y-50500000D01*
X176829960Y-50520450D01*
G37*
G04 #@! TD.AperFunction*
G04 #@! TA.AperFunction,Conductor*
G36*
X145949677Y-30045950D02*
G01*
X146142541Y-30106461D01*
X146319277Y-30204557D01*
X146472648Y-30336222D01*
X146596376Y-30496065D01*
X146685394Y-30677542D01*
X146736060Y-30873224D01*
X146742766Y-30926558D01*
X146745191Y-30951180D01*
X146750000Y-31049074D01*
X146750000Y-48450925D01*
X146745189Y-48548842D01*
X146740699Y-48594435D01*
X146700636Y-48792559D01*
X146621510Y-48978563D01*
X146506563Y-49144832D01*
X146360498Y-49284558D01*
X146189297Y-49392022D01*
X145999968Y-49462823D01*
X145844437Y-49490698D01*
X145798842Y-49495189D01*
X145700925Y-49500000D01*
X145378254Y-49500000D01*
X145177157Y-49479550D01*
X144984293Y-49419039D01*
X144974739Y-49414880D01*
X144917184Y-49389467D01*
X144709631Y-49340651D01*
X144621022Y-49334500D01*
X144621012Y-49334500D01*
X142828988Y-49334500D01*
X142828983Y-49334500D01*
X142828960Y-49334501D01*
X142818660Y-49335216D01*
X142813296Y-49335044D01*
X142811681Y-49335100D01*
X142811677Y-49334992D01*
X142616629Y-49328737D01*
X142420039Y-49281723D01*
X142236936Y-49196097D01*
X142074818Y-49075366D01*
X141940322Y-48924472D01*
X141838953Y-48749593D01*
X141774862Y-48557889D01*
X141750673Y-48357207D01*
X141750500Y-48338613D01*
X141750500Y-47846994D01*
X141750500Y-47846984D01*
X141744224Y-47724567D01*
X141694237Y-47434648D01*
X141605238Y-47154237D01*
X141592690Y-47127853D01*
X141478891Y-46888565D01*
X141478884Y-46888552D01*
X141317533Y-46642552D01*
X141124191Y-46420820D01*
X141124186Y-46420814D01*
X141078083Y-46380614D01*
X140902447Y-46227466D01*
X140656447Y-46066115D01*
X140656434Y-46066108D01*
X140390769Y-45939764D01*
X140110346Y-45850761D01*
X140109131Y-45850552D01*
X140106677Y-45849867D01*
X140077185Y-45842680D01*
X140077422Y-45841705D01*
X139914432Y-45796229D01*
X139734655Y-45703827D01*
X139577158Y-45577126D01*
X139572479Y-45572479D01*
X135750000Y-41750000D01*
X135749999Y-41750000D01*
X133799075Y-41750000D01*
X133701155Y-41745189D01*
X133655565Y-41740698D01*
X133457442Y-41700636D01*
X133271438Y-41621511D01*
X133105169Y-41506564D01*
X132965442Y-41360500D01*
X132857978Y-41189299D01*
X132787177Y-40999970D01*
X132759300Y-40844425D01*
X132754808Y-40798823D01*
X132750000Y-40700925D01*
X132750000Y-31049074D01*
X132754808Y-30951180D01*
X132757230Y-30926584D01*
X132797289Y-30728469D01*
X132876410Y-30542464D01*
X132991355Y-30376193D01*
X133137417Y-30236464D01*
X133308616Y-30128997D01*
X133497944Y-30058192D01*
X133697649Y-30026948D01*
X133751420Y-30025500D01*
X145748580Y-30025500D01*
X145949677Y-30045950D01*
G37*
G04 #@! TD.AperFunction*
G04 #@! TA.AperFunction,Conductor*
G36*
X177950152Y-30035237D02*
G01*
X178046081Y-30044062D01*
X178050699Y-30045462D01*
X178055494Y-30045950D01*
X178147356Y-30074771D01*
X178239518Y-30102718D01*
X178243755Y-30105016D01*
X178248358Y-30106461D01*
X178332581Y-30153208D01*
X178417188Y-30199111D01*
X178420875Y-30202215D01*
X178425094Y-30204557D01*
X178498193Y-30267311D01*
X178571817Y-30329296D01*
X178574803Y-30333078D01*
X178578465Y-30336222D01*
X178637433Y-30412402D01*
X178697075Y-30487942D01*
X178699239Y-30492249D01*
X178702193Y-30496065D01*
X178744597Y-30582512D01*
X178787834Y-30668555D01*
X178789088Y-30673214D01*
X178791211Y-30677542D01*
X178815333Y-30770707D01*
X178840378Y-30863741D01*
X178841100Y-30870223D01*
X178841877Y-30873224D01*
X178842246Y-30880517D01*
X178851582Y-30964316D01*
X178856785Y-31050531D01*
X178849500Y-31115191D01*
X178849500Y-31384809D01*
X178879688Y-31652732D01*
X178897963Y-31732800D01*
X178902913Y-31814816D01*
X178894616Y-32016780D01*
X178879696Y-32097214D01*
X178879688Y-32097264D01*
X178849500Y-32365178D01*
X178849500Y-32634821D01*
X178879688Y-32902735D01*
X178884383Y-32930367D01*
X178883129Y-32930579D01*
X178904493Y-33103312D01*
X178904728Y-33125000D01*
X178904728Y-33237560D01*
X178879688Y-33347268D01*
X178849500Y-33615191D01*
X178849500Y-33884809D01*
X178879688Y-34152732D01*
X178904728Y-34262439D01*
X178904728Y-34375000D01*
X178895597Y-34464784D01*
X178888414Y-34554806D01*
X178884512Y-34573788D01*
X178884278Y-34576097D01*
X178883583Y-34578311D01*
X178879689Y-34597259D01*
X178879688Y-34597264D01*
X178849500Y-34865178D01*
X178849500Y-35134821D01*
X178879688Y-35402735D01*
X178884383Y-35430367D01*
X178883129Y-35430579D01*
X178904493Y-35603312D01*
X178904728Y-35625000D01*
X178904728Y-35737560D01*
X178879688Y-35847268D01*
X178849500Y-36115191D01*
X178849500Y-36384809D01*
X178879688Y-36652732D01*
X178904728Y-36762439D01*
X178904728Y-36875000D01*
X178895597Y-36964784D01*
X178888414Y-37054806D01*
X178884512Y-37073788D01*
X178884278Y-37076097D01*
X178883583Y-37078311D01*
X178879689Y-37097259D01*
X178879688Y-37097264D01*
X178849500Y-37365178D01*
X178849500Y-37634821D01*
X178879688Y-37902735D01*
X178884383Y-37930367D01*
X178883129Y-37930579D01*
X178904493Y-38103312D01*
X178904728Y-38125000D01*
X178904728Y-38237560D01*
X178879688Y-38347268D01*
X178849500Y-38615191D01*
X178849500Y-38884809D01*
X178879688Y-39152732D01*
X178904728Y-39262439D01*
X178904728Y-39375000D01*
X178895597Y-39464784D01*
X178888414Y-39554806D01*
X178884512Y-39573788D01*
X178884278Y-39576097D01*
X178883583Y-39578311D01*
X178879689Y-39597259D01*
X178879688Y-39597264D01*
X178849500Y-39865178D01*
X178849500Y-40134821D01*
X178879688Y-40402735D01*
X178884383Y-40430367D01*
X178883129Y-40430579D01*
X178904493Y-40603312D01*
X178904728Y-40625000D01*
X178904728Y-40737560D01*
X178879688Y-40847268D01*
X178849500Y-41115191D01*
X178849500Y-41384809D01*
X178879688Y-41652732D01*
X178904728Y-41762439D01*
X178904728Y-41875000D01*
X178895597Y-41964784D01*
X178888414Y-42054806D01*
X178884512Y-42073788D01*
X178884278Y-42076097D01*
X178883583Y-42078311D01*
X178879689Y-42097259D01*
X178879688Y-42097264D01*
X178849500Y-42365178D01*
X178849500Y-42634821D01*
X178879688Y-42902735D01*
X178884383Y-42930367D01*
X178883129Y-42930579D01*
X178904493Y-43103312D01*
X178904728Y-43125000D01*
X178904728Y-43237560D01*
X178879688Y-43347268D01*
X178849500Y-43615191D01*
X178849500Y-43884809D01*
X178879688Y-44152732D01*
X178904728Y-44262439D01*
X178904728Y-44375000D01*
X178895597Y-44464784D01*
X178888414Y-44554806D01*
X178884512Y-44573788D01*
X178884278Y-44576097D01*
X178883583Y-44578311D01*
X178879689Y-44597259D01*
X178879688Y-44597264D01*
X178849500Y-44865178D01*
X178849500Y-45134804D01*
X178849501Y-45134826D01*
X178863615Y-45260089D01*
X178865810Y-45462212D01*
X178827273Y-45660638D01*
X178749582Y-45847246D01*
X178711311Y-45912040D01*
X178545352Y-46170278D01*
X178288587Y-46640506D01*
X178066021Y-47127858D01*
X177878794Y-47629832D01*
X177727857Y-48143874D01*
X177727850Y-48143904D01*
X177639977Y-48547852D01*
X177634302Y-48565235D01*
X177631582Y-48583315D01*
X177602988Y-48661158D01*
X177577249Y-48740006D01*
X177568191Y-48755890D01*
X177561887Y-48773054D01*
X177518207Y-48843551D01*
X177477124Y-48915601D01*
X177465054Y-48929337D01*
X177455424Y-48944880D01*
X177398445Y-49005143D01*
X177343702Y-49067445D01*
X177329114Y-49078470D01*
X177316552Y-49091757D01*
X177248608Y-49139317D01*
X177182445Y-49189324D01*
X177165937Y-49197187D01*
X177150957Y-49207673D01*
X177074827Y-49240583D01*
X176999955Y-49276247D01*
X176982202Y-49280625D01*
X176965418Y-49287882D01*
X176884216Y-49304795D01*
X176803703Y-49324656D01*
X176781084Y-49326277D01*
X176767531Y-49329101D01*
X176673347Y-49334003D01*
X176666478Y-49334496D01*
X176664982Y-49334500D01*
X175578988Y-49334500D01*
X175535479Y-49337519D01*
X175502171Y-49337609D01*
X175434545Y-49330915D01*
X175366629Y-49328737D01*
X175334204Y-49320982D01*
X175301020Y-49317698D01*
X175236122Y-49297526D01*
X175170039Y-49281723D01*
X175139837Y-49267599D01*
X175107994Y-49257702D01*
X175048484Y-49224879D01*
X174986936Y-49196097D01*
X174960197Y-49176184D01*
X174930997Y-49160079D01*
X174879314Y-49115950D01*
X174824818Y-49075366D01*
X174802631Y-49050474D01*
X174777275Y-49028824D01*
X174735534Y-48975196D01*
X174690322Y-48924472D01*
X174673603Y-48895629D01*
X174653120Y-48869313D01*
X174623028Y-48808378D01*
X174588953Y-48749593D01*
X174578380Y-48717969D01*
X174563617Y-48688074D01*
X174546409Y-48622339D01*
X174524862Y-48557889D01*
X174520871Y-48524784D01*
X174512428Y-48492529D01*
X174508804Y-48424669D01*
X174500673Y-48357207D01*
X174500500Y-48338613D01*
X174500500Y-47846993D01*
X174500327Y-47840238D01*
X174500000Y-47814665D01*
X174500000Y-47250001D01*
X174499998Y-47249997D01*
X174432599Y-47182598D01*
X174304862Y-47025940D01*
X174236828Y-46905253D01*
X174228889Y-46888561D01*
X174228884Y-46888552D01*
X174067533Y-46642552D01*
X173874191Y-46420820D01*
X173874186Y-46420814D01*
X173856961Y-46405794D01*
X173652453Y-46227471D01*
X173565255Y-46170278D01*
X173406445Y-46066114D01*
X173406439Y-46066110D01*
X173389739Y-46058168D01*
X173216917Y-45953332D01*
X173112400Y-45862400D01*
X171625000Y-44375000D01*
X169000000Y-41750000D01*
X168999999Y-41750000D01*
X166799075Y-41750000D01*
X166701155Y-41745189D01*
X166655565Y-41740698D01*
X166457442Y-41700636D01*
X166271438Y-41621511D01*
X166105169Y-41506564D01*
X165965442Y-41360500D01*
X165857978Y-41189299D01*
X165787177Y-40999970D01*
X165759300Y-40844425D01*
X165754808Y-40798823D01*
X165750000Y-40700925D01*
X165750000Y-31049074D01*
X165754808Y-30951180D01*
X165757230Y-30926584D01*
X165797289Y-30728469D01*
X165876410Y-30542464D01*
X165991355Y-30376193D01*
X166137417Y-30236464D01*
X166308616Y-30128997D01*
X166497944Y-30058192D01*
X166697649Y-30026948D01*
X166751420Y-30025500D01*
X177854397Y-30025500D01*
X177950152Y-30035237D01*
G37*
G04 #@! TD.AperFunction*
G04 #@! TA.AperFunction,Conductor*
G36*
X145295080Y-50501282D02*
G01*
X145316414Y-50502363D01*
X145378254Y-50505500D01*
X145378266Y-50505500D01*
X145700895Y-50505500D01*
X145700925Y-50505500D01*
X145712545Y-50505214D01*
X145806308Y-50512427D01*
X145900122Y-50518309D01*
X145906980Y-50520172D01*
X145914074Y-50520718D01*
X146004505Y-50546668D01*
X146095185Y-50571306D01*
X146101527Y-50574511D01*
X146108366Y-50576474D01*
X146191710Y-50620091D01*
X146275587Y-50662484D01*
X146281155Y-50666901D01*
X146287458Y-50670200D01*
X146360303Y-50729691D01*
X146433942Y-50788110D01*
X146438507Y-50793558D01*
X146444017Y-50798058D01*
X146503397Y-50870996D01*
X146563767Y-50943041D01*
X146567142Y-50949297D01*
X146571633Y-50954813D01*
X146615105Y-51038192D01*
X146659748Y-51120934D01*
X146661795Y-51127743D01*
X146665083Y-51134049D01*
X146690881Y-51224476D01*
X146717953Y-51314507D01*
X146719306Y-51324108D01*
X146720539Y-51328427D01*
X146732083Y-51414713D01*
X146736159Y-51460180D01*
X146740105Y-51558716D01*
X146509713Y-76210554D01*
X146504053Y-76307823D01*
X146499187Y-76353162D01*
X146457394Y-76550929D01*
X146376647Y-76736235D01*
X146260252Y-76901493D01*
X146112972Y-77039938D01*
X145940839Y-77145902D01*
X145750898Y-77215047D01*
X145603245Y-77240802D01*
X145557870Y-77245245D01*
X145460516Y-77250000D01*
X142549075Y-77250000D01*
X142451155Y-77245189D01*
X142405565Y-77240698D01*
X142207442Y-77200636D01*
X142021438Y-77121511D01*
X141855169Y-77006564D01*
X141715442Y-76860500D01*
X141607978Y-76689299D01*
X141537177Y-76499970D01*
X141509300Y-76344425D01*
X141504808Y-76298823D01*
X141500000Y-76200925D01*
X141500000Y-71583768D01*
X141520450Y-71382671D01*
X141580961Y-71189807D01*
X141679057Y-71013071D01*
X141810722Y-70859700D01*
X141970565Y-70735972D01*
X142082407Y-70681111D01*
X142081692Y-70679648D01*
X142174509Y-70634272D01*
X142256483Y-70594198D01*
X142339198Y-70511483D01*
X142390573Y-70406393D01*
X142400500Y-70338260D01*
X142400500Y-69971740D01*
X142390573Y-69903607D01*
X142390571Y-69903602D01*
X142367668Y-69829478D01*
X142369224Y-69828997D01*
X142349121Y-69775006D01*
X142233119Y-69335619D01*
X142256483Y-69324198D01*
X142339198Y-69241483D01*
X142390573Y-69136393D01*
X142400500Y-69068260D01*
X142400500Y-68701740D01*
X142390573Y-68633607D01*
X142339198Y-68528517D01*
X142256483Y-68445802D01*
X142151393Y-68394427D01*
X142083260Y-68384500D01*
X141982018Y-68384500D01*
X141846188Y-67870006D01*
X141836974Y-67811722D01*
X141822870Y-67754421D01*
X141821233Y-67712140D01*
X141814628Y-67670350D01*
X141817335Y-67611405D01*
X141815054Y-67552438D01*
X141821962Y-67510693D01*
X141823904Y-67468429D01*
X141838421Y-67411236D01*
X141848057Y-67353016D01*
X141863227Y-67313516D01*
X141873637Y-67272508D01*
X141899371Y-67219406D01*
X141920528Y-67164320D01*
X141943337Y-67128685D01*
X141961790Y-67090609D01*
X141997688Y-67043773D01*
X142029500Y-66994074D01*
X142059017Y-66963758D01*
X142084755Y-66930179D01*
X142129344Y-66891529D01*
X142170511Y-66849250D01*
X142231602Y-66801962D01*
X142256476Y-66784201D01*
X142256483Y-66784198D01*
X142339198Y-66701483D01*
X142390573Y-66596393D01*
X142400500Y-66528260D01*
X142400500Y-66161740D01*
X142390573Y-66093607D01*
X142379391Y-66070734D01*
X142339200Y-65988521D01*
X142339199Y-65988520D01*
X142339198Y-65988517D01*
X142256483Y-65905802D01*
X142256480Y-65905800D01*
X142256478Y-65905799D01*
X142081692Y-65820352D01*
X142082315Y-65819077D01*
X142017951Y-65791784D01*
X141851550Y-65677027D01*
X141711657Y-65531122D01*
X141603997Y-65360044D01*
X141532979Y-65170797D01*
X141501509Y-64971127D01*
X141500000Y-64916231D01*
X141500000Y-53292499D01*
X141509098Y-53157984D01*
X141530037Y-53003887D01*
X141605238Y-52845763D01*
X141694237Y-52565352D01*
X141744224Y-52275433D01*
X141750500Y-52153016D01*
X141750500Y-51656984D01*
X141744224Y-51534567D01*
X141736101Y-51487454D01*
X141752811Y-51364485D01*
X141754737Y-51356487D01*
X141755150Y-51348267D01*
X141778396Y-51258279D01*
X141800152Y-51167973D01*
X141803649Y-51160526D01*
X141805708Y-51152557D01*
X141846588Y-51069100D01*
X141886081Y-50985013D01*
X141891006Y-50978421D01*
X141894627Y-50971031D01*
X141951451Y-50897536D01*
X142007081Y-50823095D01*
X142013235Y-50817627D01*
X142018267Y-50811120D01*
X142088731Y-50750560D01*
X142158198Y-50688850D01*
X142165322Y-50684736D01*
X142171565Y-50679371D01*
X142252795Y-50634226D01*
X142333245Y-50587772D01*
X142341053Y-50585175D01*
X142348247Y-50581178D01*
X142436886Y-50553313D01*
X142525056Y-50523999D01*
X142533227Y-50523027D01*
X142541078Y-50520560D01*
X142633535Y-50511106D01*
X142725778Y-50500144D01*
X142733974Y-50500837D01*
X142742163Y-50500000D01*
X145244482Y-50500000D01*
X145295080Y-50501282D01*
G37*
G04 #@! TD.AperFunction*
M02*
