M48
; DRILL file {KiCad 8.0.6-1.fc41} date 2024-11-09T21:04:34-0500
; FORMAT={-:-/ absolute / inch / decimal}
; #@! TF.CreationDate,2024-11-09T21:04:34-05:00
; #@! TF.GenerationSoftware,Kicad,Pcbnew,8.0.6-1.fc41
; #@! TF.FileFunction,Plated,1,2,PTH
FMAT,2
INCH
; #@! TA.AperFunction,Plated,PTH,ViaDrill
T1C0.0157
; #@! TA.AperFunction,Plated,PTH,ComponentDrill
T2C0.0197
; #@! TA.AperFunction,Plated,PTH,ComponentDrill
T3C0.0236
; #@! TA.AperFunction,Plated,PTH,ComponentDrill
T4C0.0591
; #@! TA.AperFunction,Plated,PTH,ComponentDrill
T5C0.0630
; #@! TA.AperFunction,Plated,PTH,ComponentDrill
T6C0.1260
; #@! TA.AperFunction,Plated,PTH,ComponentDrill
T7C0.2165
%
G90
G05
T1
X3.1693Y-1.2303
X3.1693Y-1.2795
X3.1693Y-1.3287
X3.1693Y-1.378
X3.1693Y-1.4272
X3.1693Y-1.4764
X3.1693Y-1.5256
X3.1693Y-1.5748
X3.1693Y-1.624
X3.1693Y-1.6732
X3.1791Y-2.3524
X3.1791Y-2.3917
X3.1791Y-2.4311
X3.1791Y-2.4705
X3.1791Y-2.5098
X3.1791Y-2.5492
X3.1791Y-2.5886
X3.1791Y-2.628
X3.1791Y-2.6673
X3.1791Y-2.7067
X3.1791Y-2.7461
X3.1791Y-2.7854
X3.1791Y-2.8248
X3.1791Y-2.8642
X3.1791Y-2.9035
X3.1791Y-2.9429
X3.1791Y-2.9823
X3.1791Y-3.0217
X3.1791Y-3.061
X3.1791Y-3.1004
X3.1791Y-3.1398
X3.1791Y-3.1791
X3.189Y-3.9272
X3.189Y-3.9862
X3.189Y-4.0453
X3.1988Y-1.2008
X3.2087Y-3.5433
X3.2087Y-3.5925
X3.2087Y-3.6417
X3.2087Y-3.6909
X3.2087Y-3.7402
X3.2087Y-3.7894
X3.2283Y-4.1831
X3.2283Y-4.2717
X3.2283Y-4.3209
X3.2283Y-4.3701
X3.248Y-1.2008
X3.2579Y-2.2146
X3.2579Y-2.2638
X3.2677Y-2.1654
X3.2776Y-3.8386
X3.2776Y-4.3209
X3.2874Y-4.5276
X3.2874Y-4.5768
X3.2874Y-4.626
X3.2874Y-4.6752
X3.2874Y-4.7244
X3.2972Y-1.2008
X3.2972Y-2.1358
X3.2972Y-2.2933
X3.2972Y-4.4882
X3.3135Y-3.0217
X3.3135Y-3.4055
X3.3169Y-2.6033
X3.3169Y-3.5236
X3.3169Y-3.563
X3.3169Y-3.6024
X3.3169Y-3.6417
X3.3169Y-3.6811
X3.3169Y-3.7205
X3.3169Y-3.7598
X3.3268Y-2.1063
X3.3268Y-4.4488
X3.3366Y-3.8878
X3.3386Y-1.7087
X3.3465Y-1.2008
X3.3465Y-2.2933
X3.3465Y-3.7894
X3.347Y-3.3465
X3.3563Y-2.0768
X3.3563Y-2.5591
X3.3661Y-2.0374
X3.3661Y-4.4094
X3.3671Y-2.8947
X3.376Y-3.2579
X3.376Y-3.8189
X3.376Y-3.937
X3.376Y-3.9961
X3.376Y-4.0551
X3.3858Y-1.7087
X3.3858Y-2.0079
X3.3858Y-2.5098
X3.3957Y-1.2008
X3.3957Y-2.2933
X3.3962Y-2.8253
X3.4055Y-3.8484
X3.4055Y-4.3701
X3.4154Y-1.9783
X3.4252Y-1.685
X3.435Y-3.878
X3.435Y-4.3307
X3.4449Y-1.2008
X3.4449Y-1.9488
X3.4449Y-2.2933
X3.4449Y-3.7598
X3.4449Y-3.7992
X3.4449Y-3.937
X3.4449Y-3.9862
X3.4449Y-4.0354
X3.4449Y-4.0846
X3.4449Y-4.1339
X3.4449Y-4.1831
X3.4449Y-4.2323
X3.4449Y-4.2815
X3.4547Y-3.2283
X3.4567Y-1.6535
X3.4596Y-3.4695
X3.4646Y-3.5138
X3.4744Y-1.9193
X3.4766Y-3.1956
X3.4843Y-3.9665
X3.4882Y-1.622
X3.4941Y-1.2008
X3.4941Y-2.2933
X3.4941Y-5.0
X3.5039Y-1.8898
X3.5197Y-1.5906
X3.5236Y-2.3514
X3.5236Y-2.627
X3.5236Y-2.9026
X3.5236Y-3.1693
X3.5236Y-3.4449
X3.5268Y-3.7173
X3.5335Y-1.8602
X3.5335Y-3.9665
X3.5433Y-1.2008
X3.5433Y-2.2933
X3.5433Y-5.0
X3.5512Y-1.5591
X3.563Y-1.8307
X3.5827Y-1.5276
X3.5925Y-1.2008
X3.5925Y-1.8012
X3.5925Y-2.2933
X3.5925Y-3.9665
X3.5925Y-5.0
X3.6142Y-1.4961
X3.622Y-1.7717
X3.6417Y-1.2008
X3.6417Y-2.3031
X3.6417Y-2.5492
X3.6417Y-2.8248
X3.6417Y-3.1004
X3.6417Y-3.3661
X3.6417Y-3.6417
X3.6417Y-3.9272
X3.6417Y-4.7244
X3.6417Y-4.7638
X3.6417Y-4.8524
X3.6417Y-5.0
X3.6516Y-1.4862
X3.6516Y-1.7421
X3.6516Y-4.6654
X3.6811Y-1.7126
X3.6811Y-4.6358
X3.6909Y-1.2008
X3.6909Y-1.4862
X3.6909Y-4.872
X3.6909Y-4.9213
X3.6909Y-5.0
X3.7008Y-2.185
X3.7008Y-2.2244
X3.7008Y-2.2638
X3.7008Y-2.3031
X3.7008Y-2.5492
X3.7008Y-2.5886
X3.7008Y-2.8248
X3.7008Y-2.8642
X3.7008Y-3.1299
X3.7008Y-3.3661
X3.7008Y-3.4055
X3.7008Y-3.6417
X3.7008Y-3.6811
X3.7008Y-3.9272
X3.7008Y-3.9665
X3.7008Y-4.0059
X3.7008Y-4.0453
X3.7008Y-4.0846
X3.7008Y-4.124
X3.7106Y-1.6929
X3.7106Y-4.6063
X3.7303Y-1.4862
X3.7402Y-1.2008
X3.7402Y-2.185
X3.7402Y-4.124
X3.7402Y-4.8031
X3.75Y-1.6831
X3.75Y-4.5866
X3.7697Y-1.4862
X3.7795Y-2.185
X3.7795Y-4.124
X3.7894Y-1.2008
X3.7894Y-1.6831
X3.7894Y-4.5768
X3.8091Y-1.4862
X3.8189Y-2.185
X3.8189Y-4.124
X3.8287Y-1.6831
X3.8386Y-1.2008
X3.8386Y-4.5768
X3.8484Y-1.4862
X3.8484Y-4.7047
X3.8484Y-4.9114
X3.8681Y-1.6831
X3.8878Y-1.2008
X3.8878Y-1.4862
X3.8878Y-4.5768
X3.9075Y-1.6831
X3.9272Y-1.4862
X3.9272Y-2.3659
X3.9272Y-2.6415
X3.9272Y-2.9171
X3.9272Y-3.1848
X3.9272Y-3.4604
X3.9272Y-3.736
X3.937Y-1.2008
X3.937Y-4.5768
X3.9469Y-1.6929
X3.9567Y-2.5787
X3.9665Y-1.4862
X3.9665Y-2.8543
X3.9665Y-3.2348
X3.9665Y-3.4055
X3.9665Y-3.5138
X3.9665Y-3.6811
X3.9665Y-3.7894
X3.9665Y-3.9567
X3.9764Y-1.7224
X3.9862Y-1.2008
X3.9862Y-4.5768
X4.0059Y-1.4862
X4.0059Y-2.6978
X4.0059Y-2.9734
X4.0157Y-2.628
X4.0354Y-1.2008
X4.0354Y-1.5157
X4.0354Y-2.8839
X4.0354Y-3.002
X4.0354Y-3.8386
X4.0354Y-4.5768
X4.065Y-1.5453
X4.065Y-3.7992
X4.0846Y-1.2008
X4.0846Y-4.5768
X4.0945Y-1.5748
X4.0945Y-4.8524
X4.0945Y-4.9114
X4.1043Y-3.9272
X4.124Y-1.6043
X4.1339Y-1.2008
X4.1535Y-1.6339
X4.1535Y-2.0965
X4.1634Y-1.8701
X4.1831Y-1.6634
X4.1831Y-4.2815
X4.189Y-3.435
X4.1929Y-1.2008
X4.1929Y-1.2402
X4.1929Y-1.2795
X4.1929Y-1.3189
X4.1929Y-1.3583
X4.1929Y-1.3976
X4.1929Y-1.437
X4.1929Y-1.4764
X4.1929Y-1.5157
X4.1929Y-1.5551
X4.1929Y-1.5945
X4.1929Y-2.0965
X4.2028Y-1.6339
X4.2028Y-1.8701
X4.2028Y-2.9035
X4.2028Y-3.002
X4.2126Y-4.311
X4.2323Y-2.0965
X4.2362Y-3.435
X4.2421Y-1.8701
X4.2421Y-3.002
X4.2421Y-4.3406
X4.252Y-2.9035
X4.2717Y-2.0965
X4.2717Y-4.3701
X4.2815Y-1.8701
X4.2815Y-3.002
X4.2835Y-3.435
X4.3012Y-2.9035
X4.3012Y-4.3996
X4.31Y-1.9587
X4.31Y-2.0177
X4.31Y-2.0965
X4.3209Y-1.8701
X4.3209Y-3.002
X4.3307Y-3.435
X4.3406Y-3.8242
X4.3602Y-2.874
X4.3602Y-2.9134
X4.3602Y-2.9528
X4.3932Y-2.2878
X4.4075Y-4.4783
X4.4094Y-2.874
X4.4094Y-4.9508
X4.4193Y-1.9435
X4.4193Y-1.9935
X4.4193Y-2.0435
X4.4193Y-3.435
X4.439Y-4.065
X4.4409Y-4.2323
X4.4577Y-2.3457
X4.4587Y-2.874
X4.4685Y-3.435
X4.498Y-1.8602
X4.5059Y-4.7539
X4.5079Y-2.874
X4.5079Y-3.937
X4.5079Y-4.2815
X4.5177Y-3.435
X4.5276Y-1.8898
X4.5768Y-4.0453
X4.5768Y-4.2323
X4.5768Y-4.3307
X4.5768Y-4.3701
X4.5768Y-4.4094
X4.5768Y-4.4488
X4.5768Y-4.4882
X4.5768Y-4.5276
X4.5768Y-4.5669
X4.5768Y-4.6063
X4.5768Y-4.8327
X4.5866Y-4.7638
X4.626Y-4.9311
X4.6358Y-2.8642
X4.6555Y-4.6358
X4.6555Y-4.7638
X4.6638Y-5.0689
X4.6752Y-4.9311
X4.6772Y-4.2323
X4.685Y-4.0453
X4.7244Y-4.9311
X4.7343Y-2.8642
X4.7638Y-4.6358
X4.7638Y-4.811
X4.7638Y-5.0244
X4.7736Y-4.9311
X4.7933Y-4.0551
X4.7933Y-4.1073
X4.8228Y-4.9311
X4.8327Y-3.435
X4.8524Y-1.8012
X4.8524Y-1.8406
X4.8524Y-1.8799
X4.8524Y-1.9193
X4.8524Y-1.9587
X4.8524Y-1.998
X4.8524Y-2.9035
X4.8524Y-3.0118
X4.8638Y-4.9819
X4.872Y-4.6358
X4.872Y-4.9311
X4.8819Y-3.435
X4.8917Y-1.8012
X4.8917Y-3.0118
X4.9016Y-2.9035
X4.9213Y-4.9311
X4.9311Y-1.8012
X4.9311Y-3.0118
X4.9311Y-3.435
X4.9498Y-1.9587
X4.9508Y-2.0965
X4.9508Y-2.9035
X4.9705Y-1.8209
X4.9705Y-3.0118
X4.9705Y-4.9311
X4.9803Y-3.435
X5.0Y-1.8504
X5.0Y-3.8242
X5.0098Y-2.185
X5.0098Y-2.874
X5.0098Y-2.9134
X5.0098Y-2.9528
X5.0098Y-4.6358
X5.0181Y-5.0689
X5.0197Y-4.9311
X5.0295Y-1.8799
X5.0428Y-2.2835
X5.0591Y-1.7618
X5.0591Y-1.9435
X5.0591Y-1.9935
X5.0591Y-2.0472
X5.0591Y-2.874
X5.0689Y-3.435
X5.0689Y-4.9311
X5.0886Y-1.7913
X5.0984Y-2.3414
X5.1083Y-2.2255
X5.1083Y-2.874
X5.1181Y-1.8209
X5.1181Y-3.435
X5.1181Y-4.6358
X5.1181Y-4.8012
X5.1181Y-4.9311
X5.1181Y-5.0244
X5.1476Y-1.8504
X5.1476Y-3.937
X5.1575Y-2.874
X5.1673Y-3.435
X5.1673Y-4.9311
X5.2165Y-4.0551
X5.2165Y-4.2323
X5.2165Y-4.9311
X5.2181Y-4.9819
X5.2264Y-4.6358
X5.2657Y-4.9311
X5.2854Y-2.8642
X5.315Y-4.9311
X5.3248Y-4.0551
X5.3248Y-4.2323
X5.3642Y-4.6358
X5.3642Y-4.9311
X5.3724Y-5.0689
X5.3839Y-2.8642
X5.4134Y-4.9311
X5.4528Y-3.9961
X5.4528Y-4.0354
X5.4626Y-4.9311
X5.4724Y-4.6358
X5.4724Y-4.8012
X5.4724Y-5.0244
X5.4823Y-3.435
X5.4921Y-1.7618
X5.4921Y-1.8012
X5.4921Y-1.8406
X5.4921Y-1.8799
X5.4921Y-1.9193
X5.4921Y-1.9587
X5.4921Y-1.998
X5.502Y-2.3524
X5.502Y-2.9035
X5.5118Y-3.0118
X5.5118Y-4.9311
X5.5315Y-1.7913
X5.5315Y-3.435
X5.5512Y-2.9035
X5.5512Y-3.0118
X5.561Y-1.8209
X5.561Y-4.9311
X5.5724Y-4.9819
X5.5807Y-1.7028
X5.5807Y-3.435
X5.5807Y-4.6358
X5.5906Y-1.8504
X5.5906Y-3.0118
X5.5994Y-1.9587
X5.6004Y-2.0965
X5.6004Y-2.9035
X5.6102Y-1.7323
X5.6102Y-5.0886
X5.6201Y-1.8799
X5.6299Y-3.0118
X5.6299Y-3.435
X5.6398Y-1.7618
X5.6398Y-5.0197
X5.6496Y-3.8242
X5.6594Y-2.874
X5.6594Y-2.9134
X5.6594Y-2.9528
X5.6594Y-4.9705
X5.6594Y-5.0886
X5.6693Y-1.7913
X5.6693Y-4.7835
X5.6693Y-4.8228
X5.6693Y-4.872
X5.6693Y-4.9213
X5.6928Y-2.2822
X5.6988Y-1.8209
X5.7087Y-1.9435
X5.7087Y-1.9935
X5.7087Y-2.0472
X5.7087Y-2.874
X5.7087Y-4.7835
X5.7087Y-5.0886
X5.7185Y-3.435
X5.7283Y-1.8504
X5.748Y-4.3504
X5.748Y-4.3898
X5.748Y-4.4291
X5.748Y-4.4685
X5.748Y-4.5079
X5.748Y-4.5472
X5.748Y-4.5866
X5.748Y-4.626
X5.748Y-4.6654
X5.748Y-4.7047
X5.748Y-4.7441
X5.748Y-4.7835
X5.7579Y-2.2244
X5.7579Y-2.3425
X5.7579Y-2.874
X5.7579Y-5.0886
X5.7677Y-3.435
X5.7874Y-4.3504
X5.8071Y-2.874
X5.8071Y-3.937
X5.8071Y-5.0886
X5.8169Y-3.435
X5.8268Y-4.3504
X5.8563Y-5.0886
X5.8661Y-4.3504
X5.9055Y-4.3504
X5.9055Y-5.0886
X5.935Y-2.8642
X5.9449Y-4.3504
X5.9547Y-5.0886
X5.9843Y-4.3504
X6.0039Y-5.0886
X6.0138Y-4.3209
X6.0335Y-2.8642
X6.0433Y-4.2913
X6.0531Y-5.0886
X6.0728Y-4.2618
X6.1024Y-5.0886
X6.1516Y-1.2303
X6.1516Y-1.2795
X6.1516Y-1.3287
X6.1516Y-1.378
X6.1516Y-1.4272
X6.1516Y-1.4764
X6.1516Y-1.5256
X6.1516Y-1.5748
X6.1516Y-1.624
X6.1516Y-1.6732
X6.1516Y-1.7224
X6.1516Y-1.7717
X6.1516Y-5.0886
X6.2008Y-1.2008
X6.2008Y-5.0886
X6.25Y-1.2008
X6.25Y-5.0886
X6.2992Y-1.2008
X6.2992Y-5.0886
X6.3484Y-1.2008
X6.3484Y-5.0886
X6.3976Y-1.2008
X6.3976Y-2.185
X6.3976Y-5.0886
X6.4173Y-4.1142
X6.4469Y-1.2008
X6.4469Y-2.185
X6.4469Y-5.0886
X6.4665Y-4.1142
X6.4961Y-1.2008
X6.4961Y-2.185
X6.4961Y-5.0886
X6.5157Y-4.1142
X6.5453Y-1.2008
X6.5453Y-2.185
X6.5453Y-5.0886
X6.565Y-4.1142
X6.5945Y-1.2008
X6.5945Y-2.185
X6.5945Y-5.0886
X6.6142Y-4.1142
X6.6437Y-1.2008
X6.6437Y-2.185
X6.6437Y-5.0886
X6.6634Y-4.1142
X6.6929Y-1.2008
X6.6929Y-2.185
X6.6929Y-5.0886
X6.7126Y-4.1142
X6.7421Y-1.2008
X6.7421Y-2.185
X6.7421Y-5.0886
X6.7618Y-4.1142
X6.7913Y-1.2008
X6.7913Y-2.185
X6.7913Y-5.0886
X6.811Y-4.1142
X6.8406Y-1.2008
X6.8406Y-2.185
X6.8406Y-5.0886
X6.8602Y-4.1142
X6.8898Y-1.2008
X6.8898Y-2.185
X6.8898Y-5.0886
X6.9094Y-4.1142
X6.939Y-1.2008
X6.939Y-2.185
X6.939Y-5.0886
X6.9587Y-4.1142
X6.9882Y-1.2008
X6.9882Y-2.185
X6.9882Y-5.0886
X7.0079Y-4.1142
X7.0276Y-5.0886
X7.0374Y-1.2008
X7.0374Y-2.185
X7.0571Y-4.1339
X7.0571Y-4.1831
X7.0571Y-4.2323
X7.0571Y-4.2815
X7.0571Y-4.3307
X7.0571Y-4.3799
X7.0571Y-4.4291
X7.0571Y-4.4783
X7.0571Y-4.5276
X7.0571Y-4.5768
X7.0571Y-4.626
X7.0571Y-4.6752
X7.0571Y-4.7244
X7.0571Y-4.7736
X7.0571Y-4.8228
X7.0571Y-4.872
X7.0571Y-4.9213
X7.0571Y-4.9705
X7.0571Y-5.0197
X7.0571Y-5.0689
X7.0669Y-1.2303
X7.0669Y-1.2795
X7.0669Y-1.3287
X7.0669Y-1.378
X7.0669Y-1.4272
X7.0669Y-1.4764
X7.0669Y-1.5256
X7.0669Y-1.5748
X7.0669Y-1.624
X7.0669Y-1.6732
X7.0669Y-1.7224
X7.0669Y-1.7717
X7.0669Y-1.8209
X7.0669Y-1.8701
X7.0669Y-1.9193
X7.0669Y-1.9685
X7.0669Y-2.0177
X7.0669Y-2.0669
X7.0669Y-2.1161
X7.0669Y-2.1654
T2
X3.2559Y-2.3573
X3.2559Y-2.4065
X3.2559Y-2.4557
X3.2559Y-2.5049
X3.2559Y-2.5541
X3.2559Y-2.6033
X3.2559Y-2.7707
X3.2559Y-2.8199
X3.2559Y-2.8691
X3.2559Y-2.9183
X3.2559Y-2.9675
X3.2559Y-3.0167
X3.2559Y-3.1841
X3.2559Y-3.2333
X3.2559Y-3.2825
X3.2559Y-3.3317
X3.2559Y-3.3809
X3.2559Y-3.4301
X3.2579Y-1.7028
X3.2579Y-1.752
X3.2579Y-1.8012
X3.2579Y-1.8504
X3.2579Y-1.8996
X3.2579Y-1.9488
X3.2579Y-1.998
X3.2579Y-2.0472
X3.2913Y-1.4173
X3.2934Y-4.8819
X3.319Y-1.3505
X3.319Y-1.4841
X3.3211Y-4.8151
X3.3211Y-4.9487
X3.3858Y-1.3228
X3.3858Y-1.5118
X3.3879Y-4.7874
X3.3879Y-4.9764
X3.4526Y-1.3505
X3.4526Y-1.4841
X3.4547Y-4.8151
X3.4547Y-4.9487
X3.4803Y-1.4173
X3.4824Y-4.8819
X6.7559Y-1.4173
X6.7559Y-4.8819
X6.7836Y-1.3505
X6.7836Y-1.4841
X6.7836Y-4.8151
X6.7836Y-4.9487
X6.8504Y-1.3228
X6.8504Y-1.5118
X6.8504Y-4.7874
X6.8504Y-4.9764
X6.9172Y-1.3505
X6.9172Y-1.4841
X6.9172Y-4.8151
X6.9172Y-4.9487
X6.9449Y-1.4173
X6.9449Y-4.8819
T3
X3.7746Y-1.9685
X3.7795Y-4.3307
X3.8218Y-1.8533
X3.8218Y-2.0837
X3.8267Y-4.2155
X3.8267Y-4.4459
X3.937Y-1.8061
X3.937Y-2.1309
X3.9419Y-4.1683
X3.9419Y-4.4931
X4.0522Y-1.8533
X4.0522Y-2.0837
X4.0572Y-4.2155
X4.0572Y-4.4459
X4.0994Y-1.9685
X4.1043Y-4.3307
X6.1368Y-1.9685
X6.1368Y-4.3307
X6.184Y-1.8533
X6.184Y-2.0837
X6.184Y-4.2155
X6.184Y-4.4459
X6.2992Y-1.8061
X6.2992Y-2.1309
X6.2992Y-4.1683
X6.2992Y-4.4931
X6.4144Y-1.8533
X6.4144Y-2.0837
X6.4144Y-4.2155
X6.4144Y-4.4459
X6.4616Y-1.9685
X6.4616Y-4.3307
T5
X4.311Y-1.2598
X4.311Y-1.5748
X4.626Y-1.2598
X4.626Y-1.5748
X4.9606Y-1.2598
X4.9606Y-1.5748
X5.2756Y-1.2598
X5.2756Y-1.5748
X5.6102Y-1.2598
X5.6102Y-1.5748
X5.9252Y-1.2598
X5.9252Y-1.5748
X6.6929Y-3.2874
X6.6929Y-3.6024
X6.7028Y-2.6969
X6.7028Y-3.0118
X7.0079Y-3.2874
X7.0079Y-3.6024
X7.0177Y-2.6969
X7.0177Y-3.0118
T6
X3.3858Y-1.4173
X3.3879Y-4.8819
X6.8504Y-1.4173
X6.8504Y-4.8819
T7
X3.937Y-1.9685
X3.9419Y-4.3307
X6.2992Y-1.9685
X6.2992Y-4.3307
T4
G00X4.252Y-2.7362
M15
G01X4.252Y-2.7756
M16
G05
G00X4.2559Y-3.563
M15
G01X4.2559Y-3.5236
M16
G05
G00X4.4665Y-2.7362
M15
G01X4.4665Y-2.7756
M16
G05
G00X4.4705Y-3.563
M15
G01X4.4705Y-3.5236
M16
G05
G00X4.6811Y-2.7362
M15
G01X4.6811Y-2.7756
M16
G05
G00X4.685Y-3.563
M15
G01X4.685Y-3.5236
M16
G05
G00X4.9016Y-2.7362
M15
G01X4.9016Y-2.7756
M16
G05
G00X4.9055Y-3.563
M15
G01X4.9055Y-3.5236
M16
G05
G00X5.1161Y-2.7362
M15
G01X5.1161Y-2.7756
M16
G05
G00X5.1201Y-3.563
M15
G01X5.1201Y-3.5236
M16
G05
G00X5.3307Y-2.7362
M15
G01X5.3307Y-2.7756
M16
G05
G00X5.3346Y-3.563
M15
G01X5.3346Y-3.5236
M16
G05
G00X5.5512Y-2.7362
M15
G01X5.5512Y-2.7756
M16
G05
G00X5.5551Y-3.563
M15
G01X5.5551Y-3.5236
M16
G05
G00X5.7657Y-2.7362
M15
G01X5.7657Y-2.7756
M16
G05
G00X5.7697Y-3.563
M15
G01X5.7697Y-3.5236
M16
G05
G00X5.9803Y-2.7362
M15
G01X5.9803Y-2.7756
M16
G05
G00X5.9843Y-3.563
M15
G01X5.9843Y-3.5236
M16
G05
M30
