G04 #@! TF.GenerationSoftware,KiCad,Pcbnew,(6.0.10)*
G04 #@! TF.CreationDate,2023-01-16T22:36:06-05:00*
G04 #@! TF.ProjectId,Three-Half-Bridges,54687265-652d-4486-916c-662d42726964,rev?*
G04 #@! TF.SameCoordinates,Original*
G04 #@! TF.FileFunction,Copper,L1,Top*
G04 #@! TF.FilePolarity,Positive*
%FSLAX46Y46*%
G04 Gerber Fmt 4.6, Leading zero omitted, Abs format (unit mm)*
G04 Created by KiCad (PCBNEW (6.0.10)) date 2023-01-16 22:36:06*
%MOMM*%
%LPD*%
G01*
G04 APERTURE LIST*
G04 Aperture macros list*
%AMRoundRect*
0 Rectangle with rounded corners*
0 $1 Rounding radius*
0 $2 $3 $4 $5 $6 $7 $8 $9 X,Y pos of 4 corners*
0 Add a 4 corners polygon primitive as box body*
4,1,4,$2,$3,$4,$5,$6,$7,$8,$9,$2,$3,0*
0 Add four circle primitives for the rounded corners*
1,1,$1+$1,$2,$3*
1,1,$1+$1,$4,$5*
1,1,$1+$1,$6,$7*
1,1,$1+$1,$8,$9*
0 Add four rect primitives between the rounded corners*
20,1,$1+$1,$2,$3,$4,$5,0*
20,1,$1+$1,$4,$5,$6,$7,0*
20,1,$1+$1,$6,$7,$8,$9,0*
20,1,$1+$1,$8,$9,$2,$3,0*%
G04 Aperture macros list end*
G04 #@! TA.AperFunction,ComponentPad*
%ADD10C,0.800000*%
G04 #@! TD*
G04 #@! TA.AperFunction,ComponentPad*
%ADD11C,6.400000*%
G04 #@! TD*
G04 #@! TA.AperFunction,ComponentPad*
%ADD12R,2.000000X2.000000*%
G04 #@! TD*
G04 #@! TA.AperFunction,ComponentPad*
%ADD13C,2.000000*%
G04 #@! TD*
G04 #@! TA.AperFunction,ComponentPad*
%ADD14RoundRect,0.250000X-0.625000X0.350000X-0.625000X-0.350000X0.625000X-0.350000X0.625000X0.350000X0*%
G04 #@! TD*
G04 #@! TA.AperFunction,ComponentPad*
%ADD15O,1.750000X1.200000*%
G04 #@! TD*
G04 #@! TA.AperFunction,ComponentPad*
%ADD16RoundRect,0.250000X0.350000X0.625000X-0.350000X0.625000X-0.350000X-0.625000X0.350000X-0.625000X0*%
G04 #@! TD*
G04 #@! TA.AperFunction,ComponentPad*
%ADD17O,1.200000X1.750000*%
G04 #@! TD*
G04 #@! TA.AperFunction,SMDPad,CuDef*
%ADD18RoundRect,0.250000X1.100000X-0.325000X1.100000X0.325000X-1.100000X0.325000X-1.100000X-0.325000X0*%
G04 #@! TD*
G04 #@! TA.AperFunction,ComponentPad*
%ADD19RoundRect,0.250000X-0.350000X-0.625000X0.350000X-0.625000X0.350000X0.625000X-0.350000X0.625000X0*%
G04 #@! TD*
G04 #@! TA.AperFunction,ComponentPad*
%ADD20RoundRect,0.250001X-1.099999X-1.099999X1.099999X-1.099999X1.099999X1.099999X-1.099999X1.099999X0*%
G04 #@! TD*
G04 #@! TA.AperFunction,ComponentPad*
%ADD21C,2.700000*%
G04 #@! TD*
G04 #@! TA.AperFunction,ComponentPad*
%ADD22R,2.500000X4.500000*%
G04 #@! TD*
G04 #@! TA.AperFunction,ComponentPad*
%ADD23O,2.500000X4.500000*%
G04 #@! TD*
G04 #@! TA.AperFunction,SMDPad,CuDef*
%ADD24RoundRect,0.250000X-0.625000X0.312500X-0.625000X-0.312500X0.625000X-0.312500X0.625000X0.312500X0*%
G04 #@! TD*
G04 #@! TA.AperFunction,ComponentPad*
%ADD25C,0.900000*%
G04 #@! TD*
G04 #@! TA.AperFunction,ComponentPad*
%ADD26C,11.000000*%
G04 #@! TD*
G04 #@! TA.AperFunction,ComponentPad*
%ADD27O,8.000000X4.000000*%
G04 #@! TD*
G04 #@! TA.AperFunction,ViaPad*
%ADD28C,0.800000*%
G04 #@! TD*
G04 #@! TA.AperFunction,Conductor*
%ADD29C,0.500000*%
G04 #@! TD*
G04 #@! TA.AperFunction,Conductor*
%ADD30C,5.000000*%
G04 #@! TD*
G04 APERTURE END LIST*
D10*
X109400000Y-58000000D03*
X104600000Y-58000000D03*
D11*
X107000000Y-58000000D03*
D10*
X108697056Y-56302944D03*
X107000000Y-60400000D03*
X105302944Y-56302944D03*
X107000000Y-55600000D03*
X108697056Y-59697056D03*
X105302944Y-59697056D03*
X107000000Y-135600000D03*
X109400000Y-138000000D03*
X105302944Y-136302944D03*
X108697056Y-136302944D03*
X105302944Y-139697056D03*
D11*
X107000000Y-138000000D03*
D10*
X107000000Y-140400000D03*
X108697056Y-139697056D03*
X104600000Y-138000000D03*
X189400000Y-138000000D03*
X187000000Y-135600000D03*
X185302944Y-139697056D03*
X188697056Y-136302944D03*
X188697056Y-139697056D03*
X187000000Y-140400000D03*
X184600000Y-138000000D03*
D11*
X187000000Y-138000000D03*
D10*
X185302944Y-136302944D03*
X187000000Y-55600000D03*
X188697056Y-59697056D03*
X187000000Y-60400000D03*
X185302944Y-56302944D03*
X185302944Y-59697056D03*
X189400000Y-58000000D03*
D11*
X187000000Y-58000000D03*
D10*
X184600000Y-58000000D03*
X188697056Y-56302944D03*
D12*
X105500000Y-92000000D03*
D13*
X100500000Y-92000000D03*
D14*
X191550000Y-78500000D03*
D15*
X191550000Y-80500000D03*
D12*
X100632323Y-129500000D03*
D13*
X105632323Y-129500000D03*
D16*
X169000000Y-52050000D03*
D17*
X167000000Y-52050000D03*
D18*
X170000000Y-99475000D03*
X170000000Y-96525000D03*
X151000000Y-99475000D03*
X151000000Y-96525000D03*
D19*
X167000000Y-143200000D03*
D17*
X169000000Y-143200000D03*
D20*
X114012500Y-52700000D03*
D21*
X117972500Y-52700000D03*
X121932500Y-52700000D03*
D22*
X152450000Y-91500000D03*
D23*
X147000000Y-91500000D03*
X141550000Y-91500000D03*
D18*
X173500000Y-99475000D03*
X173500000Y-96525000D03*
D12*
X100632323Y-117000000D03*
D13*
X105632323Y-117000000D03*
D16*
X176250000Y-52000000D03*
D17*
X174250000Y-52000000D03*
D12*
X105750000Y-79500000D03*
D13*
X100750000Y-79500000D03*
D22*
X171450000Y-91500000D03*
D23*
X166000000Y-91500000D03*
X160550000Y-91500000D03*
D19*
X174250000Y-143200000D03*
D17*
X176250000Y-143200000D03*
D12*
X105750000Y-67000000D03*
D13*
X100750000Y-67000000D03*
D19*
X159750000Y-143200000D03*
D17*
X161750000Y-143200000D03*
D18*
X154500000Y-99475000D03*
X154500000Y-96525000D03*
D22*
X160550000Y-104500000D03*
D23*
X166000000Y-104500000D03*
X171450000Y-104500000D03*
D22*
X141550000Y-104500000D03*
D23*
X147000000Y-104500000D03*
X152450000Y-104500000D03*
D24*
X184500000Y-96537500D03*
X184500000Y-99462500D03*
D16*
X161750000Y-52050000D03*
D17*
X159750000Y-52050000D03*
D18*
X132000000Y-99475000D03*
X132000000Y-96525000D03*
D12*
X100632323Y-104500000D03*
D13*
X105632323Y-104500000D03*
D22*
X133450000Y-91500000D03*
D23*
X128000000Y-91500000D03*
X122550000Y-91500000D03*
D18*
X135500000Y-99475000D03*
X135500000Y-96525000D03*
D22*
X122550000Y-104500000D03*
D23*
X128000000Y-104500000D03*
X133450000Y-104500000D03*
D25*
X117000000Y-72125000D03*
X121125000Y-68000000D03*
X119926815Y-70926815D03*
X114073185Y-65073185D03*
D26*
X117000000Y-68000000D03*
D25*
X117000000Y-63875000D03*
X119926815Y-65073185D03*
X112875000Y-68000000D03*
X114073185Y-70926815D03*
X177000000Y-123875000D03*
X174073185Y-130926815D03*
D26*
X177000000Y-128000000D03*
D25*
X179926815Y-125073185D03*
X172875000Y-128000000D03*
X174073185Y-125073185D03*
X177000000Y-132125000D03*
X179926815Y-130926815D03*
X181125000Y-128000000D03*
X179926815Y-65073185D03*
D26*
X177000000Y-68000000D03*
D25*
X177000000Y-63875000D03*
X174073185Y-65073185D03*
X181125000Y-68000000D03*
X174073185Y-70926815D03*
X172875000Y-68000000D03*
X179926815Y-70926815D03*
X177000000Y-72125000D03*
X114073185Y-125073185D03*
X119926815Y-130926815D03*
D26*
X117000000Y-128000000D03*
D25*
X121125000Y-128000000D03*
X119926815Y-125073185D03*
X114073185Y-130926815D03*
X117000000Y-132125000D03*
X112875000Y-128000000D03*
X117000000Y-123875000D03*
D27*
X143000000Y-98000000D03*
X191500000Y-94500000D03*
X124000000Y-98000000D03*
X191500000Y-101500000D03*
X162000000Y-98000000D03*
D28*
X174000000Y-102000000D03*
X150500000Y-103000000D03*
X154000000Y-102000000D03*
X135500000Y-101000000D03*
X174500000Y-103000000D03*
X169000000Y-101000000D03*
X155500000Y-103000000D03*
X136000000Y-102000000D03*
X151000000Y-101000000D03*
X173000000Y-102000000D03*
X154500000Y-103000000D03*
X134500000Y-101000000D03*
X174500000Y-101000000D03*
X152000000Y-101000000D03*
X131000000Y-101000000D03*
X169500000Y-103000000D03*
X169000000Y-102000000D03*
X132000000Y-101000000D03*
X136500000Y-101000000D03*
X131500000Y-103000000D03*
X132000000Y-102000000D03*
X150000000Y-101000000D03*
X135000000Y-102000000D03*
X136500000Y-103000000D03*
X154500000Y-101000000D03*
X133000000Y-101000000D03*
X173500000Y-101000000D03*
X171000000Y-101000000D03*
X170000000Y-102000000D03*
X176849500Y-100500000D03*
X131000000Y-102000000D03*
X151000000Y-102000000D03*
X153500000Y-101000000D03*
X150000000Y-102000000D03*
X135500000Y-103000000D03*
X155000000Y-102000000D03*
X155500000Y-101000000D03*
X170000000Y-101000000D03*
X172500000Y-101000000D03*
X173500000Y-103000000D03*
X130500000Y-91500000D03*
X133000000Y-95500000D03*
X168500000Y-91500000D03*
X173500000Y-95500000D03*
X149500000Y-93500000D03*
X149500000Y-92500000D03*
X174500000Y-95500000D03*
X130500000Y-90500000D03*
X155500000Y-95500000D03*
X172500000Y-95500000D03*
X150000000Y-95500000D03*
X134500000Y-95500000D03*
X168500000Y-93500000D03*
X135500000Y-95500000D03*
X169000000Y-95500000D03*
X168500000Y-90500000D03*
X132000000Y-95500000D03*
X154500000Y-95500000D03*
X153500000Y-95500000D03*
X136500000Y-95500000D03*
X131000000Y-95500000D03*
X170000000Y-95500000D03*
X152000000Y-95500000D03*
X168500000Y-92500000D03*
X130500000Y-92500000D03*
X130500000Y-93500000D03*
X151000000Y-95500000D03*
X171000000Y-95500000D03*
X149500000Y-90500000D03*
X149500000Y-91500000D03*
D29*
X186537500Y-94500000D02*
X191500000Y-94500000D01*
D30*
X100632323Y-100683839D02*
X105500000Y-95816162D01*
X105500000Y-67250000D02*
X105750000Y-67000000D01*
D29*
X184500000Y-96537500D02*
X186537500Y-94500000D01*
D30*
X100632323Y-129500000D02*
X100632323Y-100683839D01*
X105500000Y-92000000D02*
X105500000Y-67250000D01*
X105500000Y-95816162D02*
X105500000Y-92000000D01*
G04 #@! TA.AperFunction,Conductor*
G36*
X131000000Y-90000000D02*
G01*
X131000000Y-94000000D01*
X132000000Y-95000000D01*
X137000000Y-95000000D01*
X137000000Y-97500000D01*
X130000000Y-97500000D01*
X126500000Y-93750000D01*
X126500000Y-90000000D01*
X127500000Y-89000000D01*
X130000000Y-89000000D01*
X131000000Y-90000000D01*
G37*
G04 #@! TD.AperFunction*
G04 #@! TA.AperFunction,Conductor*
G36*
X125015931Y-89020002D02*
G01*
X125036905Y-89036905D01*
X125463095Y-89463095D01*
X125497121Y-89525407D01*
X125500000Y-89552190D01*
X125500000Y-94500000D01*
X129462879Y-98462879D01*
X129496905Y-98525191D01*
X129499783Y-98552495D01*
X129469445Y-105894270D01*
X129449162Y-105962307D01*
X129432541Y-105982844D01*
X128506136Y-106909249D01*
X128443824Y-106943275D01*
X128417041Y-106946154D01*
X126021421Y-106946154D01*
X125953300Y-106926152D01*
X125932326Y-106909249D01*
X125006136Y-105983059D01*
X124972110Y-105920747D01*
X124969231Y-105893964D01*
X124969231Y-101946154D01*
X123969231Y-100946154D01*
X123477874Y-100955065D01*
X121053525Y-100999029D01*
X120985052Y-100980266D01*
X120962145Y-100962145D01*
X120036905Y-100036905D01*
X120002879Y-99974593D01*
X120000000Y-99947810D01*
X120000000Y-89552190D01*
X120020002Y-89484069D01*
X120036905Y-89463095D01*
X120463095Y-89036905D01*
X120525407Y-89002879D01*
X120552190Y-89000000D01*
X124947810Y-89000000D01*
X125015931Y-89020002D01*
G37*
G04 #@! TD.AperFunction*
G04 #@! TA.AperFunction,Conductor*
G36*
X150000000Y-90000000D02*
G01*
X150000000Y-94000000D01*
X151000000Y-95000000D01*
X156000000Y-95000000D01*
X156000000Y-97500000D01*
X149000000Y-97500000D01*
X145500000Y-93750000D01*
X145500000Y-90000000D01*
X146500000Y-89000000D01*
X149000000Y-89000000D01*
X150000000Y-90000000D01*
G37*
G04 #@! TD.AperFunction*
G04 #@! TA.AperFunction,Conductor*
G36*
X144015931Y-89020002D02*
G01*
X144036905Y-89036905D01*
X144463095Y-89463095D01*
X144497121Y-89525407D01*
X144500000Y-89552190D01*
X144500000Y-94500000D01*
X144507339Y-94506880D01*
X144507339Y-94506881D01*
X146681280Y-96544950D01*
X148459960Y-98212462D01*
X148495975Y-98273644D01*
X148499781Y-98304884D01*
X148489006Y-101000000D01*
X148469438Y-105894260D01*
X148449164Y-105962300D01*
X148432534Y-105982851D01*
X147506136Y-106909249D01*
X147443824Y-106943275D01*
X147417041Y-106946154D01*
X145021421Y-106946154D01*
X144953300Y-106926152D01*
X144932326Y-106909249D01*
X144006136Y-105983059D01*
X143972110Y-105920747D01*
X143969231Y-105893964D01*
X143969231Y-101946154D01*
X142969231Y-100946154D01*
X142477874Y-100955065D01*
X140053525Y-100999029D01*
X139985052Y-100980266D01*
X139962145Y-100962145D01*
X139036905Y-100036905D01*
X139002879Y-99974593D01*
X139000000Y-99947810D01*
X139000000Y-89552190D01*
X139020002Y-89484069D01*
X139036905Y-89463095D01*
X139463095Y-89036905D01*
X139525407Y-89002879D01*
X139552190Y-89000000D01*
X143947810Y-89000000D01*
X144015931Y-89020002D01*
G37*
G04 #@! TD.AperFunction*
G04 #@! TA.AperFunction,Conductor*
G36*
X119360815Y-98555902D02*
G01*
X119428886Y-98576075D01*
X119475244Y-98629846D01*
X119486500Y-98681902D01*
X119486500Y-99947810D01*
X119489441Y-100002692D01*
X119492320Y-100029475D01*
X119492588Y-100031132D01*
X119492590Y-100031143D01*
X119500125Y-100077640D01*
X119500126Y-100077645D01*
X119501116Y-100083752D01*
X119503278Y-100089549D01*
X119503279Y-100089552D01*
X119550622Y-100216479D01*
X119552194Y-100220693D01*
X119554347Y-100224636D01*
X119554348Y-100224638D01*
X119564704Y-100243603D01*
X119586220Y-100283005D01*
X119588915Y-100286605D01*
X119671109Y-100396402D01*
X119671113Y-100396406D01*
X119673806Y-100400004D01*
X120599046Y-101325244D01*
X120643562Y-101364870D01*
X120666469Y-101382991D01*
X120667983Y-101384052D01*
X120667986Y-101384054D01*
X120710127Y-101413580D01*
X120710131Y-101413582D01*
X120715316Y-101417215D01*
X120849345Y-101475509D01*
X120917818Y-101494272D01*
X120922285Y-101494832D01*
X120922286Y-101494832D01*
X121058373Y-101511886D01*
X121058377Y-101511886D01*
X121062836Y-101512445D01*
X121124406Y-101511328D01*
X121192877Y-101530091D01*
X121240335Y-101582894D01*
X121251712Y-101652973D01*
X121223395Y-101718079D01*
X121170920Y-101755289D01*
X121068616Y-101793641D01*
X121053295Y-101799385D01*
X120936739Y-101886739D01*
X120849385Y-102003295D01*
X120798255Y-102139684D01*
X120791500Y-102201866D01*
X120791500Y-106798134D01*
X120798255Y-106860316D01*
X120849385Y-106996705D01*
X120936739Y-107113261D01*
X121053295Y-107200615D01*
X121189684Y-107251745D01*
X121251866Y-107258500D01*
X123848134Y-107258500D01*
X123910316Y-107251745D01*
X124046705Y-107200615D01*
X124163261Y-107113261D01*
X124250615Y-106996705D01*
X124301745Y-106860316D01*
X124308500Y-106798134D01*
X124308500Y-106270566D01*
X124328502Y-106202445D01*
X124382158Y-106155952D01*
X124452432Y-106145848D01*
X124517012Y-106175342D01*
X124545087Y-106210180D01*
X124555451Y-106229159D01*
X124558146Y-106232759D01*
X124640340Y-106342556D01*
X124640344Y-106342560D01*
X124643037Y-106346158D01*
X125569227Y-107272348D01*
X125610108Y-107309071D01*
X125631082Y-107325974D01*
X125632455Y-107326964D01*
X125670661Y-107354516D01*
X125670666Y-107354519D01*
X125675682Y-107358136D01*
X125808631Y-107418852D01*
X125832385Y-107425827D01*
X125872429Y-107437585D01*
X125872433Y-107437586D01*
X125876752Y-107438854D01*
X125881201Y-107439494D01*
X125881207Y-107439495D01*
X126016974Y-107459015D01*
X126016979Y-107459015D01*
X126021421Y-107459654D01*
X128417041Y-107459654D01*
X128443616Y-107458230D01*
X128470230Y-107456804D01*
X128470240Y-107456803D01*
X128471923Y-107456713D01*
X128498706Y-107453834D01*
X128500363Y-107453566D01*
X128500374Y-107453564D01*
X128546871Y-107446029D01*
X128546876Y-107446028D01*
X128552983Y-107445038D01*
X128558780Y-107442876D01*
X128558783Y-107442875D01*
X128685710Y-107395532D01*
X128685712Y-107395531D01*
X128689924Y-107393960D01*
X128752236Y-107359934D01*
X128796278Y-107326964D01*
X128865633Y-107275045D01*
X128865637Y-107275041D01*
X128869235Y-107272348D01*
X129795640Y-106345943D01*
X129831696Y-106305888D01*
X129848317Y-106285351D01*
X129859049Y-106270566D01*
X129876384Y-106246684D01*
X129876386Y-106246680D01*
X129879996Y-106241707D01*
X129884128Y-106232759D01*
X129919588Y-106155952D01*
X129941260Y-106109010D01*
X129942570Y-106104618D01*
X129960259Y-106045281D01*
X129960260Y-106045277D01*
X129961543Y-106040973D01*
X129982941Y-105896392D01*
X129998386Y-102158852D01*
X130012644Y-98708326D01*
X130032927Y-98640289D01*
X130086775Y-98594018D01*
X130138956Y-98582847D01*
X138360815Y-98603402D01*
X138428886Y-98623575D01*
X138475244Y-98677346D01*
X138486500Y-98729402D01*
X138486500Y-99947810D01*
X138489441Y-100002692D01*
X138492320Y-100029475D01*
X138492588Y-100031132D01*
X138492590Y-100031143D01*
X138500125Y-100077640D01*
X138500126Y-100077645D01*
X138501116Y-100083752D01*
X138503278Y-100089549D01*
X138503279Y-100089552D01*
X138550622Y-100216479D01*
X138552194Y-100220693D01*
X138554347Y-100224636D01*
X138554348Y-100224638D01*
X138564704Y-100243603D01*
X138586220Y-100283005D01*
X138588915Y-100286605D01*
X138671109Y-100396402D01*
X138671113Y-100396406D01*
X138673806Y-100400004D01*
X139599046Y-101325244D01*
X139643562Y-101364870D01*
X139666469Y-101382991D01*
X139667983Y-101384052D01*
X139667986Y-101384054D01*
X139710127Y-101413580D01*
X139710131Y-101413582D01*
X139715316Y-101417215D01*
X139849345Y-101475509D01*
X139917818Y-101494272D01*
X139922285Y-101494832D01*
X139922286Y-101494832D01*
X140058373Y-101511886D01*
X140058377Y-101511886D01*
X140062836Y-101512445D01*
X140124406Y-101511328D01*
X140192877Y-101530091D01*
X140240335Y-101582894D01*
X140251712Y-101652973D01*
X140223395Y-101718079D01*
X140170920Y-101755289D01*
X140068616Y-101793641D01*
X140053295Y-101799385D01*
X139936739Y-101886739D01*
X139849385Y-102003295D01*
X139798255Y-102139684D01*
X139791500Y-102201866D01*
X139791500Y-106798134D01*
X139798255Y-106860316D01*
X139849385Y-106996705D01*
X139936739Y-107113261D01*
X140053295Y-107200615D01*
X140189684Y-107251745D01*
X140251866Y-107258500D01*
X142848134Y-107258500D01*
X142910316Y-107251745D01*
X143046705Y-107200615D01*
X143163261Y-107113261D01*
X143250615Y-106996705D01*
X143301745Y-106860316D01*
X143308500Y-106798134D01*
X143308500Y-106270566D01*
X143328502Y-106202445D01*
X143382158Y-106155952D01*
X143452432Y-106145848D01*
X143517012Y-106175342D01*
X143545087Y-106210180D01*
X143555451Y-106229159D01*
X143558146Y-106232759D01*
X143640340Y-106342556D01*
X143640344Y-106342560D01*
X143643037Y-106346158D01*
X144569227Y-107272348D01*
X144610108Y-107309071D01*
X144631082Y-107325974D01*
X144632455Y-107326964D01*
X144670661Y-107354516D01*
X144670666Y-107354519D01*
X144675682Y-107358136D01*
X144808631Y-107418852D01*
X144832385Y-107425827D01*
X144872429Y-107437585D01*
X144872433Y-107437586D01*
X144876752Y-107438854D01*
X144881201Y-107439494D01*
X144881207Y-107439495D01*
X145016974Y-107459015D01*
X145016979Y-107459015D01*
X145021421Y-107459654D01*
X147417041Y-107459654D01*
X147443616Y-107458230D01*
X147470230Y-107456804D01*
X147470240Y-107456803D01*
X147471923Y-107456713D01*
X147498706Y-107453834D01*
X147500363Y-107453566D01*
X147500374Y-107453564D01*
X147546871Y-107446029D01*
X147546876Y-107446028D01*
X147552983Y-107445038D01*
X147558780Y-107442876D01*
X147558783Y-107442875D01*
X147685710Y-107395532D01*
X147685712Y-107395531D01*
X147689924Y-107393960D01*
X147752236Y-107359934D01*
X147796278Y-107326964D01*
X147865633Y-107275045D01*
X147865637Y-107275041D01*
X147869235Y-107272348D01*
X148795633Y-106345950D01*
X148804497Y-106336102D01*
X148830598Y-106307105D01*
X148830606Y-106307096D01*
X148831711Y-106305868D01*
X148836700Y-106299703D01*
X148847295Y-106286610D01*
X148847300Y-106286603D01*
X148848341Y-106285317D01*
X148876377Y-106246684D01*
X148876421Y-106246624D01*
X148876424Y-106246619D01*
X148880035Y-106241643D01*
X148914555Y-106166847D01*
X148939396Y-106113024D01*
X148939397Y-106113021D01*
X148941282Y-106108937D01*
X148961556Y-106040897D01*
X148982934Y-105896313D01*
X149011482Y-98755840D01*
X149031756Y-98687801D01*
X149085597Y-98641523D01*
X149137796Y-98630345D01*
X156797594Y-98649494D01*
X157360815Y-98650902D01*
X157428886Y-98671075D01*
X157475244Y-98724846D01*
X157486500Y-98776902D01*
X157486500Y-99947810D01*
X157489441Y-100002692D01*
X157492320Y-100029475D01*
X157492588Y-100031132D01*
X157492590Y-100031143D01*
X157500125Y-100077640D01*
X157500126Y-100077645D01*
X157501116Y-100083752D01*
X157503278Y-100089549D01*
X157503279Y-100089552D01*
X157550622Y-100216479D01*
X157552194Y-100220693D01*
X157554347Y-100224636D01*
X157554348Y-100224638D01*
X157564704Y-100243603D01*
X157586220Y-100283005D01*
X157588915Y-100286605D01*
X157671109Y-100396402D01*
X157671113Y-100396406D01*
X157673806Y-100400004D01*
X158599046Y-101325244D01*
X158643562Y-101364870D01*
X158666469Y-101382991D01*
X158667983Y-101384052D01*
X158667986Y-101384054D01*
X158710127Y-101413580D01*
X158710131Y-101413582D01*
X158715316Y-101417215D01*
X158849345Y-101475509D01*
X158917818Y-101494272D01*
X158922285Y-101494832D01*
X158922286Y-101494832D01*
X159058373Y-101511886D01*
X159058377Y-101511886D01*
X159062836Y-101512445D01*
X159124406Y-101511328D01*
X159192877Y-101530091D01*
X159240335Y-101582894D01*
X159251712Y-101652973D01*
X159223395Y-101718079D01*
X159170920Y-101755289D01*
X159068616Y-101793641D01*
X159053295Y-101799385D01*
X158936739Y-101886739D01*
X158849385Y-102003295D01*
X158798255Y-102139684D01*
X158791500Y-102201866D01*
X158791500Y-106798134D01*
X158798255Y-106860316D01*
X158849385Y-106996705D01*
X158936739Y-107113261D01*
X159053295Y-107200615D01*
X159189684Y-107251745D01*
X159251866Y-107258500D01*
X161848134Y-107258500D01*
X161910316Y-107251745D01*
X162046705Y-107200615D01*
X162163261Y-107113261D01*
X162250615Y-106996705D01*
X162301745Y-106860316D01*
X162308500Y-106798134D01*
X162308500Y-106270566D01*
X162328502Y-106202445D01*
X162382158Y-106155952D01*
X162452432Y-106145848D01*
X162517012Y-106175342D01*
X162545087Y-106210180D01*
X162555451Y-106229159D01*
X162558146Y-106232759D01*
X162640340Y-106342556D01*
X162640344Y-106342560D01*
X162643037Y-106346158D01*
X163569227Y-107272348D01*
X163610108Y-107309071D01*
X163631082Y-107325974D01*
X163632455Y-107326964D01*
X163670661Y-107354516D01*
X163670666Y-107354519D01*
X163675682Y-107358136D01*
X163808631Y-107418852D01*
X163832385Y-107425827D01*
X163872429Y-107437585D01*
X163872433Y-107437586D01*
X163876752Y-107438854D01*
X163881201Y-107439494D01*
X163881207Y-107439495D01*
X164016974Y-107459015D01*
X164016979Y-107459015D01*
X164021421Y-107459654D01*
X166417041Y-107459654D01*
X166443616Y-107458230D01*
X166470230Y-107456804D01*
X166470240Y-107456803D01*
X166471923Y-107456713D01*
X166498706Y-107453834D01*
X166500363Y-107453566D01*
X166500374Y-107453564D01*
X166546871Y-107446029D01*
X166546876Y-107446028D01*
X166552983Y-107445038D01*
X166558780Y-107442876D01*
X166558783Y-107442875D01*
X166685710Y-107395532D01*
X166685712Y-107395531D01*
X166689924Y-107393960D01*
X166752236Y-107359934D01*
X166796278Y-107326964D01*
X166865633Y-107275045D01*
X166865637Y-107275041D01*
X166869235Y-107272348D01*
X167795640Y-106345943D01*
X167831696Y-106305888D01*
X167848317Y-106285351D01*
X167859049Y-106270566D01*
X167876384Y-106246684D01*
X167876386Y-106246680D01*
X167879996Y-106241707D01*
X167884128Y-106232759D01*
X167919588Y-106155952D01*
X167941260Y-106109010D01*
X167942570Y-106104618D01*
X167960259Y-106045281D01*
X167960260Y-106045277D01*
X167961543Y-106040973D01*
X167982941Y-105896392D01*
X168008041Y-99822095D01*
X183117001Y-99822095D01*
X183117338Y-99828614D01*
X183127257Y-99924206D01*
X183130149Y-99937600D01*
X183181588Y-100091784D01*
X183187761Y-100104962D01*
X183273063Y-100242807D01*
X183282099Y-100254208D01*
X183396829Y-100368739D01*
X183408240Y-100377751D01*
X183546243Y-100462816D01*
X183559424Y-100468963D01*
X183713710Y-100520138D01*
X183727086Y-100523005D01*
X183821438Y-100532672D01*
X183827854Y-100533000D01*
X184227885Y-100533000D01*
X184243124Y-100528525D01*
X184244329Y-100527135D01*
X184246000Y-100519452D01*
X184246000Y-100514884D01*
X184754000Y-100514884D01*
X184758475Y-100530123D01*
X184759865Y-100531328D01*
X184767548Y-100532999D01*
X185172095Y-100532999D01*
X185178614Y-100532662D01*
X185274206Y-100522743D01*
X185287600Y-100519851D01*
X185441784Y-100468412D01*
X185454962Y-100462239D01*
X185592807Y-100376937D01*
X185604208Y-100367901D01*
X185718739Y-100253171D01*
X185727751Y-100241760D01*
X185812816Y-100103757D01*
X185818963Y-100090576D01*
X185870138Y-99936290D01*
X185873005Y-99922914D01*
X185882672Y-99828562D01*
X185883000Y-99822146D01*
X185883000Y-99734615D01*
X185878525Y-99719376D01*
X185877135Y-99718171D01*
X185869452Y-99716500D01*
X184772115Y-99716500D01*
X184756876Y-99720975D01*
X184755671Y-99722365D01*
X184754000Y-99730048D01*
X184754000Y-100514884D01*
X184246000Y-100514884D01*
X184246000Y-99734615D01*
X184241525Y-99719376D01*
X184240135Y-99718171D01*
X184232452Y-99716500D01*
X183135116Y-99716500D01*
X183119877Y-99720975D01*
X183118672Y-99722365D01*
X183117001Y-99730048D01*
X183117001Y-99822095D01*
X168008041Y-99822095D01*
X168012251Y-98803324D01*
X168032534Y-98735288D01*
X168086382Y-98689017D01*
X168138563Y-98677846D01*
X181580040Y-98711450D01*
X183046382Y-98715116D01*
X183114453Y-98735289D01*
X183160811Y-98789060D01*
X183170739Y-98859359D01*
X183165660Y-98880784D01*
X183129862Y-98988710D01*
X183126995Y-99002086D01*
X183117328Y-99096438D01*
X183117000Y-99102855D01*
X183117000Y-99190385D01*
X183121475Y-99205624D01*
X183122865Y-99206829D01*
X183130548Y-99208500D01*
X185864884Y-99208500D01*
X185880123Y-99204025D01*
X185881328Y-99202635D01*
X185882999Y-99194952D01*
X185882999Y-99102905D01*
X185882662Y-99096386D01*
X185872743Y-99000794D01*
X185869851Y-98987400D01*
X185836778Y-98888268D01*
X185834194Y-98817319D01*
X185870377Y-98756235D01*
X185933842Y-98724410D01*
X185956617Y-98722392D01*
X196365815Y-98748415D01*
X196433886Y-98768588D01*
X196480244Y-98822359D01*
X196491500Y-98874415D01*
X196491500Y-147365500D01*
X196471498Y-147433621D01*
X196417842Y-147480114D01*
X196365500Y-147491500D01*
X97634500Y-147491500D01*
X97566379Y-147471498D01*
X97519886Y-147417842D01*
X97508500Y-147365500D01*
X97508500Y-143875400D01*
X158641500Y-143875400D01*
X158652474Y-143981166D01*
X158654655Y-143987702D01*
X158654655Y-143987704D01*
X158685135Y-144079064D01*
X158708450Y-144148946D01*
X158801522Y-144299348D01*
X158926697Y-144424305D01*
X158932927Y-144428145D01*
X158932928Y-144428146D01*
X159070090Y-144512694D01*
X159077262Y-144517115D01*
X159102217Y-144525392D01*
X159238611Y-144570632D01*
X159238613Y-144570632D01*
X159245139Y-144572797D01*
X159251975Y-144573497D01*
X159251978Y-144573498D01*
X159290386Y-144577433D01*
X159349600Y-144583500D01*
X160150400Y-144583500D01*
X160153646Y-144583163D01*
X160153650Y-144583163D01*
X160249308Y-144573238D01*
X160249312Y-144573237D01*
X160256166Y-144572526D01*
X160262702Y-144570345D01*
X160262704Y-144570345D01*
X160397443Y-144525392D01*
X160423946Y-144516550D01*
X160574348Y-144423478D01*
X160699305Y-144298303D01*
X160731075Y-144246764D01*
X160783846Y-144199271D01*
X160853918Y-144187847D01*
X160919042Y-144216121D01*
X160937418Y-144235045D01*
X160943604Y-144242920D01*
X160948135Y-144246852D01*
X160948138Y-144246855D01*
X161034058Y-144321412D01*
X161103363Y-144381552D01*
X161108549Y-144384552D01*
X161108553Y-144384555D01*
X161204957Y-144440326D01*
X161286454Y-144487473D01*
X161486271Y-144556861D01*
X161492206Y-144557722D01*
X161492208Y-144557722D01*
X161689664Y-144586352D01*
X161689667Y-144586352D01*
X161695604Y-144587213D01*
X161906899Y-144577433D01*
X162038077Y-144545819D01*
X162106701Y-144529281D01*
X162106703Y-144529280D01*
X162112534Y-144527875D01*
X162117992Y-144525393D01*
X162117996Y-144525392D01*
X162233041Y-144473084D01*
X162305087Y-144440326D01*
X162477611Y-144317946D01*
X162623881Y-144165150D01*
X162738620Y-143987452D01*
X162783778Y-143875400D01*
X165891500Y-143875400D01*
X165902474Y-143981166D01*
X165904655Y-143987702D01*
X165904655Y-143987704D01*
X165935135Y-144079064D01*
X165958450Y-144148946D01*
X166051522Y-144299348D01*
X166176697Y-144424305D01*
X166182927Y-144428145D01*
X166182928Y-144428146D01*
X166320090Y-144512694D01*
X166327262Y-144517115D01*
X166352217Y-144525392D01*
X166488611Y-144570632D01*
X166488613Y-144570632D01*
X166495139Y-144572797D01*
X166501975Y-144573497D01*
X166501978Y-144573498D01*
X166540386Y-144577433D01*
X166599600Y-144583500D01*
X167400400Y-144583500D01*
X167403646Y-144583163D01*
X167403650Y-144583163D01*
X167499308Y-144573238D01*
X167499312Y-144573237D01*
X167506166Y-144572526D01*
X167512702Y-144570345D01*
X167512704Y-144570345D01*
X167647443Y-144525392D01*
X167673946Y-144516550D01*
X167824348Y-144423478D01*
X167949305Y-144298303D01*
X167981075Y-144246764D01*
X168033846Y-144199271D01*
X168103918Y-144187847D01*
X168169042Y-144216121D01*
X168187418Y-144235045D01*
X168193604Y-144242920D01*
X168198135Y-144246852D01*
X168198138Y-144246855D01*
X168284058Y-144321412D01*
X168353363Y-144381552D01*
X168358549Y-144384552D01*
X168358553Y-144384555D01*
X168454957Y-144440326D01*
X168536454Y-144487473D01*
X168736271Y-144556861D01*
X168742206Y-144557722D01*
X168742208Y-144557722D01*
X168939664Y-144586352D01*
X168939667Y-144586352D01*
X168945604Y-144587213D01*
X169156899Y-144577433D01*
X169288077Y-144545819D01*
X169356701Y-144529281D01*
X169356703Y-144529280D01*
X169362534Y-144527875D01*
X169367992Y-144525393D01*
X169367996Y-144525392D01*
X169483041Y-144473084D01*
X169555087Y-144440326D01*
X169727611Y-144317946D01*
X169873881Y-144165150D01*
X169988620Y-143987452D01*
X170033778Y-143875400D01*
X173141500Y-143875400D01*
X173152474Y-143981166D01*
X173154655Y-143987702D01*
X173154655Y-143987704D01*
X173185135Y-144079064D01*
X173208450Y-144148946D01*
X173301522Y-144299348D01*
X173426697Y-144424305D01*
X173432927Y-144428145D01*
X173432928Y-144428146D01*
X173570090Y-144512694D01*
X173577262Y-144517115D01*
X173602217Y-144525392D01*
X173738611Y-144570632D01*
X173738613Y-144570632D01*
X173745139Y-144572797D01*
X173751975Y-144573497D01*
X173751978Y-144573498D01*
X173790386Y-144577433D01*
X173849600Y-144583500D01*
X174650400Y-144583500D01*
X174653646Y-144583163D01*
X174653650Y-144583163D01*
X174749308Y-144573238D01*
X174749312Y-144573237D01*
X174756166Y-144572526D01*
X174762702Y-144570345D01*
X174762704Y-144570345D01*
X174897443Y-144525392D01*
X174923946Y-144516550D01*
X175074348Y-144423478D01*
X175199305Y-144298303D01*
X175231075Y-144246764D01*
X175283846Y-144199271D01*
X175353918Y-144187847D01*
X175419042Y-144216121D01*
X175437418Y-144235045D01*
X175443604Y-144242920D01*
X175448135Y-144246852D01*
X175448138Y-144246855D01*
X175534058Y-144321412D01*
X175603363Y-144381552D01*
X175608549Y-144384552D01*
X175608553Y-144384555D01*
X175704957Y-144440326D01*
X175786454Y-144487473D01*
X175986271Y-144556861D01*
X175992206Y-144557722D01*
X175992208Y-144557722D01*
X176189664Y-144586352D01*
X176189667Y-144586352D01*
X176195604Y-144587213D01*
X176406899Y-144577433D01*
X176538077Y-144545819D01*
X176606701Y-144529281D01*
X176606703Y-144529280D01*
X176612534Y-144527875D01*
X176617992Y-144525393D01*
X176617996Y-144525392D01*
X176733041Y-144473084D01*
X176805087Y-144440326D01*
X176977611Y-144317946D01*
X177123881Y-144165150D01*
X177238620Y-143987452D01*
X177317686Y-143791263D01*
X177358228Y-143583663D01*
X177358500Y-143578101D01*
X177358500Y-142872154D01*
X177343452Y-142714434D01*
X177283908Y-142511466D01*
X177236872Y-142420139D01*
X177189804Y-142328751D01*
X177189802Y-142328748D01*
X177187058Y-142323420D01*
X177056396Y-142157080D01*
X177051865Y-142153148D01*
X177051862Y-142153145D01*
X176901167Y-142022379D01*
X176896637Y-142018448D01*
X176891451Y-142015448D01*
X176891447Y-142015445D01*
X176718742Y-141915533D01*
X176713546Y-141912527D01*
X176513729Y-141843139D01*
X176507794Y-141842278D01*
X176507792Y-141842278D01*
X176310336Y-141813648D01*
X176310333Y-141813648D01*
X176304396Y-141812787D01*
X176093101Y-141822567D01*
X175961923Y-141854181D01*
X175893299Y-141870719D01*
X175893297Y-141870720D01*
X175887466Y-141872125D01*
X175882008Y-141874607D01*
X175882004Y-141874608D01*
X175766959Y-141926916D01*
X175694913Y-141959674D01*
X175522389Y-142082054D01*
X175518247Y-142086381D01*
X175518241Y-142086386D01*
X175431194Y-142177317D01*
X175369639Y-142212694D01*
X175298730Y-142209175D01*
X175240979Y-142167879D01*
X175233032Y-142156491D01*
X175198478Y-142100652D01*
X175073303Y-141975695D01*
X174970826Y-141912527D01*
X174928968Y-141886725D01*
X174928966Y-141886724D01*
X174922738Y-141882885D01*
X174762254Y-141829655D01*
X174761389Y-141829368D01*
X174761387Y-141829368D01*
X174754861Y-141827203D01*
X174748025Y-141826503D01*
X174748022Y-141826502D01*
X174704969Y-141822091D01*
X174650400Y-141816500D01*
X173849600Y-141816500D01*
X173846354Y-141816837D01*
X173846350Y-141816837D01*
X173750692Y-141826762D01*
X173750688Y-141826763D01*
X173743834Y-141827474D01*
X173737298Y-141829655D01*
X173737296Y-141829655D01*
X173614213Y-141870719D01*
X173576054Y-141883450D01*
X173425652Y-141976522D01*
X173300695Y-142101697D01*
X173296855Y-142107927D01*
X173296854Y-142107928D01*
X173259900Y-142167879D01*
X173207885Y-142252262D01*
X173152203Y-142420139D01*
X173141500Y-142524600D01*
X173141500Y-143875400D01*
X170033778Y-143875400D01*
X170067686Y-143791263D01*
X170108228Y-143583663D01*
X170108500Y-143578101D01*
X170108500Y-142872154D01*
X170093452Y-142714434D01*
X170033908Y-142511466D01*
X169986872Y-142420139D01*
X169939804Y-142328751D01*
X169939802Y-142328748D01*
X169937058Y-142323420D01*
X169806396Y-142157080D01*
X169801865Y-142153148D01*
X169801862Y-142153145D01*
X169651167Y-142022379D01*
X169646637Y-142018448D01*
X169641451Y-142015448D01*
X169641447Y-142015445D01*
X169468742Y-141915533D01*
X169463546Y-141912527D01*
X169263729Y-141843139D01*
X169257794Y-141842278D01*
X169257792Y-141842278D01*
X169060336Y-141813648D01*
X169060333Y-141813648D01*
X169054396Y-141812787D01*
X168843101Y-141822567D01*
X168711923Y-141854181D01*
X168643299Y-141870719D01*
X168643297Y-141870720D01*
X168637466Y-141872125D01*
X168632008Y-141874607D01*
X168632004Y-141874608D01*
X168516959Y-141926916D01*
X168444913Y-141959674D01*
X168272389Y-142082054D01*
X168268247Y-142086381D01*
X168268241Y-142086386D01*
X168181194Y-142177317D01*
X168119639Y-142212694D01*
X168048730Y-142209175D01*
X167990979Y-142167879D01*
X167983032Y-142156491D01*
X167948478Y-142100652D01*
X167823303Y-141975695D01*
X167720826Y-141912527D01*
X167678968Y-141886725D01*
X167678966Y-141886724D01*
X167672738Y-141882885D01*
X167512254Y-141829655D01*
X167511389Y-141829368D01*
X167511387Y-141829368D01*
X167504861Y-141827203D01*
X167498025Y-141826503D01*
X167498022Y-141826502D01*
X167454969Y-141822091D01*
X167400400Y-141816500D01*
X166599600Y-141816500D01*
X166596354Y-141816837D01*
X166596350Y-141816837D01*
X166500692Y-141826762D01*
X166500688Y-141826763D01*
X166493834Y-141827474D01*
X166487298Y-141829655D01*
X166487296Y-141829655D01*
X166364213Y-141870719D01*
X166326054Y-141883450D01*
X166175652Y-141976522D01*
X166050695Y-142101697D01*
X166046855Y-142107927D01*
X166046854Y-142107928D01*
X166009900Y-142167879D01*
X165957885Y-142252262D01*
X165902203Y-142420139D01*
X165891500Y-142524600D01*
X165891500Y-143875400D01*
X162783778Y-143875400D01*
X162817686Y-143791263D01*
X162858228Y-143583663D01*
X162858500Y-143578101D01*
X162858500Y-142872154D01*
X162843452Y-142714434D01*
X162783908Y-142511466D01*
X162736872Y-142420139D01*
X162689804Y-142328751D01*
X162689802Y-142328748D01*
X162687058Y-142323420D01*
X162556396Y-142157080D01*
X162551865Y-142153148D01*
X162551862Y-142153145D01*
X162401167Y-142022379D01*
X162396637Y-142018448D01*
X162391451Y-142015448D01*
X162391447Y-142015445D01*
X162218742Y-141915533D01*
X162213546Y-141912527D01*
X162013729Y-141843139D01*
X162007794Y-141842278D01*
X162007792Y-141842278D01*
X161810336Y-141813648D01*
X161810333Y-141813648D01*
X161804396Y-141812787D01*
X161593101Y-141822567D01*
X161461923Y-141854181D01*
X161393299Y-141870719D01*
X161393297Y-141870720D01*
X161387466Y-141872125D01*
X161382008Y-141874607D01*
X161382004Y-141874608D01*
X161266959Y-141926916D01*
X161194913Y-141959674D01*
X161022389Y-142082054D01*
X161018247Y-142086381D01*
X161018241Y-142086386D01*
X160931194Y-142177317D01*
X160869639Y-142212694D01*
X160798730Y-142209175D01*
X160740979Y-142167879D01*
X160733032Y-142156491D01*
X160698478Y-142100652D01*
X160573303Y-141975695D01*
X160470826Y-141912527D01*
X160428968Y-141886725D01*
X160428966Y-141886724D01*
X160422738Y-141882885D01*
X160262254Y-141829655D01*
X160261389Y-141829368D01*
X160261387Y-141829368D01*
X160254861Y-141827203D01*
X160248025Y-141826503D01*
X160248022Y-141826502D01*
X160204969Y-141822091D01*
X160150400Y-141816500D01*
X159349600Y-141816500D01*
X159346354Y-141816837D01*
X159346350Y-141816837D01*
X159250692Y-141826762D01*
X159250688Y-141826763D01*
X159243834Y-141827474D01*
X159237298Y-141829655D01*
X159237296Y-141829655D01*
X159114213Y-141870719D01*
X159076054Y-141883450D01*
X158925652Y-141976522D01*
X158800695Y-142101697D01*
X158796855Y-142107927D01*
X158796854Y-142107928D01*
X158759900Y-142167879D01*
X158707885Y-142252262D01*
X158652203Y-142420139D01*
X158641500Y-142524600D01*
X158641500Y-143875400D01*
X97508500Y-143875400D01*
X97508500Y-138000000D01*
X103286411Y-138000000D01*
X103306754Y-138388176D01*
X103367562Y-138772099D01*
X103468167Y-139147562D01*
X103607468Y-139510453D01*
X103783938Y-139856794D01*
X103995643Y-140182793D01*
X104240266Y-140484876D01*
X104515124Y-140759734D01*
X104817207Y-141004357D01*
X105143205Y-141216062D01*
X105146139Y-141217557D01*
X105146146Y-141217561D01*
X105486607Y-141391034D01*
X105489547Y-141392532D01*
X105852438Y-141531833D01*
X106227901Y-141632438D01*
X106431793Y-141664732D01*
X106608576Y-141692732D01*
X106608584Y-141692733D01*
X106611824Y-141693246D01*
X107000000Y-141713589D01*
X107388176Y-141693246D01*
X107391416Y-141692733D01*
X107391424Y-141692732D01*
X107568207Y-141664732D01*
X107772099Y-141632438D01*
X108147562Y-141531833D01*
X108510453Y-141392532D01*
X108513393Y-141391034D01*
X108853854Y-141217561D01*
X108853861Y-141217557D01*
X108856795Y-141216062D01*
X109182793Y-141004357D01*
X109484876Y-140759734D01*
X109759734Y-140484876D01*
X110004357Y-140182793D01*
X110216062Y-139856794D01*
X110392532Y-139510453D01*
X110531833Y-139147562D01*
X110632438Y-138772099D01*
X110693246Y-138388176D01*
X110713589Y-138000000D01*
X183286411Y-138000000D01*
X183306754Y-138388176D01*
X183367562Y-138772099D01*
X183468167Y-139147562D01*
X183607468Y-139510453D01*
X183783938Y-139856794D01*
X183995643Y-140182793D01*
X184240266Y-140484876D01*
X184515124Y-140759734D01*
X184817207Y-141004357D01*
X185143205Y-141216062D01*
X185146139Y-141217557D01*
X185146146Y-141217561D01*
X185486607Y-141391034D01*
X185489547Y-141392532D01*
X185852438Y-141531833D01*
X186227901Y-141632438D01*
X186431793Y-141664732D01*
X186608576Y-141692732D01*
X186608584Y-141692733D01*
X186611824Y-141693246D01*
X187000000Y-141713589D01*
X187388176Y-141693246D01*
X187391416Y-141692733D01*
X187391424Y-141692732D01*
X187568207Y-141664732D01*
X187772099Y-141632438D01*
X188147562Y-141531833D01*
X188510453Y-141392532D01*
X188513393Y-141391034D01*
X188853854Y-141217561D01*
X188853861Y-141217557D01*
X188856795Y-141216062D01*
X189182793Y-141004357D01*
X189484876Y-140759734D01*
X189759734Y-140484876D01*
X190004357Y-140182793D01*
X190216062Y-139856794D01*
X190392532Y-139510453D01*
X190531833Y-139147562D01*
X190632438Y-138772099D01*
X190693246Y-138388176D01*
X190713589Y-138000000D01*
X190693246Y-137611824D01*
X190632438Y-137227901D01*
X190531833Y-136852438D01*
X190392532Y-136489547D01*
X190216062Y-136143206D01*
X190004357Y-135817207D01*
X189759734Y-135515124D01*
X189484876Y-135240266D01*
X189182793Y-134995643D01*
X188856795Y-134783938D01*
X188853861Y-134782443D01*
X188853854Y-134782439D01*
X188513393Y-134608966D01*
X188510453Y-134607468D01*
X188147562Y-134468167D01*
X187772099Y-134367562D01*
X187568207Y-134335268D01*
X187391424Y-134307268D01*
X187391416Y-134307267D01*
X187388176Y-134306754D01*
X187000000Y-134286411D01*
X186611824Y-134306754D01*
X186608584Y-134307267D01*
X186608576Y-134307268D01*
X186431793Y-134335268D01*
X186227901Y-134367562D01*
X185852438Y-134468167D01*
X185489547Y-134607468D01*
X185486607Y-134608966D01*
X185146147Y-134782439D01*
X185146140Y-134782443D01*
X185143206Y-134783938D01*
X184817207Y-134995643D01*
X184515124Y-135240266D01*
X184240266Y-135515124D01*
X183995643Y-135817207D01*
X183783938Y-136143206D01*
X183607468Y-136489547D01*
X183468167Y-136852438D01*
X183367562Y-137227901D01*
X183306754Y-137611824D01*
X183286411Y-138000000D01*
X110713589Y-138000000D01*
X110693246Y-137611824D01*
X110632438Y-137227901D01*
X110531833Y-136852438D01*
X110392532Y-136489547D01*
X110216062Y-136143206D01*
X110004357Y-135817207D01*
X109759734Y-135515124D01*
X109484876Y-135240266D01*
X109182793Y-134995643D01*
X108856795Y-134783938D01*
X108853861Y-134782443D01*
X108853854Y-134782439D01*
X108513393Y-134608966D01*
X108510453Y-134607468D01*
X108147562Y-134468167D01*
X107772099Y-134367562D01*
X107568207Y-134335268D01*
X107391424Y-134307268D01*
X107391416Y-134307267D01*
X107388176Y-134306754D01*
X107000000Y-134286411D01*
X106611824Y-134306754D01*
X106608584Y-134307267D01*
X106608576Y-134307268D01*
X106431793Y-134335268D01*
X106227901Y-134367562D01*
X105852438Y-134468167D01*
X105489547Y-134607468D01*
X105486607Y-134608966D01*
X105146147Y-134782439D01*
X105146140Y-134782443D01*
X105143206Y-134783938D01*
X104817207Y-134995643D01*
X104515124Y-135240266D01*
X104240266Y-135515124D01*
X103995643Y-135817207D01*
X103783938Y-136143206D01*
X103607468Y-136489547D01*
X103468167Y-136852438D01*
X103367562Y-137227901D01*
X103306754Y-137611824D01*
X103286411Y-138000000D01*
X97508500Y-138000000D01*
X97508500Y-130416251D01*
X97528502Y-130348130D01*
X97582158Y-130301637D01*
X97652432Y-130291533D01*
X97717012Y-130321027D01*
X97755311Y-130380465D01*
X97796886Y-130520820D01*
X97933007Y-130839952D01*
X97934802Y-130843099D01*
X97934804Y-130843103D01*
X98093060Y-131120556D01*
X98104906Y-131141324D01*
X98107045Y-131144236D01*
X98107047Y-131144239D01*
X98160356Y-131216810D01*
X98310305Y-131420940D01*
X98546481Y-131675096D01*
X98810304Y-131900422D01*
X99098276Y-132093931D01*
X99406582Y-132253060D01*
X99731134Y-132375698D01*
X99734655Y-132376582D01*
X99734660Y-132376584D01*
X99841257Y-132403359D01*
X100067631Y-132460220D01*
X100071224Y-132460693D01*
X100408008Y-132505032D01*
X100408016Y-132505033D01*
X100411612Y-132505506D01*
X100556278Y-132507779D01*
X100754877Y-132510899D01*
X100754881Y-132510899D01*
X100758519Y-132510956D01*
X100762133Y-132510595D01*
X100762139Y-132510595D01*
X101005480Y-132486306D01*
X101103754Y-132476497D01*
X101442740Y-132402586D01*
X101446167Y-132401413D01*
X101446173Y-132401411D01*
X101767558Y-132291376D01*
X101770984Y-132290203D01*
X102084135Y-132140837D01*
X102378044Y-131956468D01*
X102380880Y-131954196D01*
X102380887Y-131954191D01*
X102645978Y-131741813D01*
X102648814Y-131739541D01*
X102892857Y-131492929D01*
X102947222Y-131423595D01*
X103104697Y-131222759D01*
X103104698Y-131222757D01*
X103106937Y-131219902D01*
X103153304Y-131144239D01*
X103286324Y-130927169D01*
X103288218Y-130924079D01*
X103300804Y-130896966D01*
X103432772Y-130612663D01*
X103434296Y-130609380D01*
X103510003Y-130380465D01*
X103542097Y-130283422D01*
X103542098Y-130283417D01*
X103543236Y-130279977D01*
X103613593Y-129940236D01*
X103640823Y-129635131D01*
X103640823Y-127937029D01*
X110986953Y-127937029D01*
X111001271Y-128419472D01*
X111001548Y-128421983D01*
X111001549Y-128421994D01*
X111022327Y-128610191D01*
X111054235Y-128899212D01*
X111145503Y-129373160D01*
X111274487Y-129838261D01*
X111313104Y-129943786D01*
X111439486Y-130289144D01*
X111439491Y-130289155D01*
X111440356Y-130291520D01*
X111441411Y-130293814D01*
X111441414Y-130293821D01*
X111640977Y-130727701D01*
X111642042Y-130730016D01*
X111878245Y-131150925D01*
X112147443Y-131551535D01*
X112380107Y-131844034D01*
X112423089Y-131898068D01*
X112447903Y-131929264D01*
X112449633Y-131931113D01*
X112449641Y-131931122D01*
X112581569Y-132072103D01*
X112777689Y-132281681D01*
X113134676Y-132606514D01*
X113136670Y-132608055D01*
X113136677Y-132608061D01*
X113288825Y-132725654D01*
X113516564Y-132901671D01*
X113518678Y-132903049D01*
X113918774Y-133163869D01*
X113918780Y-133163873D01*
X113920893Y-133165250D01*
X113923115Y-133166457D01*
X113923121Y-133166460D01*
X114091908Y-133258103D01*
X114345059Y-133395553D01*
X114786328Y-133591097D01*
X115241859Y-133750621D01*
X115708716Y-133873099D01*
X116183891Y-133957740D01*
X116186397Y-133957981D01*
X116186402Y-133957982D01*
X116367875Y-133975456D01*
X116664324Y-134004001D01*
X116666859Y-134004041D01*
X116666862Y-134004041D01*
X116821979Y-134006478D01*
X117146920Y-134011582D01*
X117149439Y-134011419D01*
X117149443Y-134011419D01*
X117626035Y-133980599D01*
X117626038Y-133980599D01*
X117628569Y-133980435D01*
X117631072Y-133980070D01*
X117631080Y-133980069D01*
X117822789Y-133952101D01*
X118106169Y-133910761D01*
X118576642Y-133803008D01*
X119036959Y-133657871D01*
X119484153Y-133476284D01*
X119698053Y-133368704D01*
X119913095Y-133260549D01*
X119913102Y-133260545D01*
X119915343Y-133259418D01*
X120327752Y-133008669D01*
X120329786Y-133007197D01*
X120329793Y-133007192D01*
X120497284Y-132885949D01*
X120718723Y-132725654D01*
X121085737Y-132412194D01*
X121096483Y-132401411D01*
X121424642Y-132072103D01*
X121426429Y-132070310D01*
X121428067Y-132068379D01*
X121736974Y-131704130D01*
X121736980Y-131704122D01*
X121738606Y-131702205D01*
X121848382Y-131549436D01*
X122018781Y-131312299D01*
X122020255Y-131310248D01*
X122269562Y-130896966D01*
X122484922Y-130465022D01*
X122664947Y-130017197D01*
X122808476Y-129556376D01*
X122914586Y-129085530D01*
X122982593Y-128607690D01*
X123012058Y-128125935D01*
X123013377Y-128000000D01*
X123010848Y-127937029D01*
X170986953Y-127937029D01*
X171001271Y-128419472D01*
X171001548Y-128421983D01*
X171001549Y-128421994D01*
X171022327Y-128610191D01*
X171054235Y-128899212D01*
X171145503Y-129373160D01*
X171274487Y-129838261D01*
X171313104Y-129943786D01*
X171439486Y-130289144D01*
X171439491Y-130289155D01*
X171440356Y-130291520D01*
X171441411Y-130293814D01*
X171441414Y-130293821D01*
X171640977Y-130727701D01*
X171642042Y-130730016D01*
X171878245Y-131150925D01*
X172147443Y-131551535D01*
X172380107Y-131844034D01*
X172423089Y-131898068D01*
X172447903Y-131929264D01*
X172449633Y-131931113D01*
X172449641Y-131931122D01*
X172581569Y-132072103D01*
X172777689Y-132281681D01*
X173134676Y-132606514D01*
X173136670Y-132608055D01*
X173136677Y-132608061D01*
X173288825Y-132725654D01*
X173516564Y-132901671D01*
X173518678Y-132903049D01*
X173918774Y-133163869D01*
X173918780Y-133163873D01*
X173920893Y-133165250D01*
X173923115Y-133166457D01*
X173923121Y-133166460D01*
X174091908Y-133258103D01*
X174345059Y-133395553D01*
X174786328Y-133591097D01*
X175241859Y-133750621D01*
X175708716Y-133873099D01*
X176183891Y-133957740D01*
X176186397Y-133957981D01*
X176186402Y-133957982D01*
X176367875Y-133975456D01*
X176664324Y-134004001D01*
X176666859Y-134004041D01*
X176666862Y-134004041D01*
X176821979Y-134006478D01*
X177146920Y-134011582D01*
X177149439Y-134011419D01*
X177149443Y-134011419D01*
X177626035Y-133980599D01*
X177626038Y-133980599D01*
X177628569Y-133980435D01*
X177631072Y-133980070D01*
X177631080Y-133980069D01*
X177822789Y-133952101D01*
X178106169Y-133910761D01*
X178576642Y-133803008D01*
X179036959Y-133657871D01*
X179484153Y-133476284D01*
X179698053Y-133368704D01*
X179913095Y-133260549D01*
X179913102Y-133260545D01*
X179915343Y-133259418D01*
X180327752Y-133008669D01*
X180329786Y-133007197D01*
X180329793Y-133007192D01*
X180497284Y-132885949D01*
X180718723Y-132725654D01*
X181085737Y-132412194D01*
X181096483Y-132401411D01*
X181424642Y-132072103D01*
X181426429Y-132070310D01*
X181428067Y-132068379D01*
X181736974Y-131704130D01*
X181736980Y-131704122D01*
X181738606Y-131702205D01*
X181848382Y-131549436D01*
X182018781Y-131312299D01*
X182020255Y-131310248D01*
X182269562Y-130896966D01*
X182484922Y-130465022D01*
X182664947Y-130017197D01*
X182808476Y-129556376D01*
X182914586Y-129085530D01*
X182982593Y-128607690D01*
X183012058Y-128125935D01*
X183013377Y-128000000D01*
X182994007Y-127517734D01*
X182936023Y-127038574D01*
X182935522Y-127036112D01*
X182935520Y-127036099D01*
X182861683Y-126673183D01*
X182839797Y-126565608D01*
X182733599Y-126197679D01*
X182706651Y-126104314D01*
X182706649Y-126104307D01*
X182705949Y-126101883D01*
X182535343Y-125650386D01*
X182329076Y-125214026D01*
X182184542Y-124962673D01*
X182089744Y-124797813D01*
X182089738Y-124797803D01*
X182088479Y-124795614D01*
X181815100Y-124397845D01*
X181510701Y-124023282D01*
X181177243Y-123674339D01*
X181130445Y-123632643D01*
X180818761Y-123354943D01*
X180818757Y-123354940D01*
X180816874Y-123353262D01*
X180766554Y-123315205D01*
X180433922Y-123063637D01*
X180433920Y-123063636D01*
X180431916Y-123062120D01*
X180263913Y-122955090D01*
X180026993Y-122804156D01*
X180024849Y-122802790D01*
X180022612Y-122801606D01*
X180022599Y-122801598D01*
X179600541Y-122578130D01*
X179600537Y-122578128D01*
X179598295Y-122576941D01*
X179155002Y-122386029D01*
X178697826Y-122231283D01*
X178229712Y-122113701D01*
X178227231Y-122113286D01*
X178227227Y-122113285D01*
X178070552Y-122087067D01*
X177753676Y-122034040D01*
X177272785Y-121992813D01*
X177015242Y-121991465D01*
X176792667Y-121990299D01*
X176792661Y-121990299D01*
X176790136Y-121990286D01*
X176639056Y-122001646D01*
X176311376Y-122026284D01*
X176311368Y-122026285D01*
X176308840Y-122026475D01*
X175831996Y-122101147D01*
X175362676Y-122213820D01*
X175360286Y-122214601D01*
X175360276Y-122214604D01*
X174906303Y-122362986D01*
X174906298Y-122362988D01*
X174903905Y-122363770D01*
X174676102Y-122459062D01*
X174460974Y-122549052D01*
X174460965Y-122549056D01*
X174458637Y-122550030D01*
X174029741Y-122771399D01*
X173619981Y-123026453D01*
X173231995Y-123313547D01*
X172868284Y-123630833D01*
X172531190Y-123976265D01*
X172222885Y-124347620D01*
X172221432Y-124349687D01*
X172221430Y-124349690D01*
X172044763Y-124601062D01*
X171945356Y-124742504D01*
X171944074Y-124744681D01*
X171944073Y-124744682D01*
X171815667Y-124962673D01*
X171700390Y-125158374D01*
X171699286Y-125160647D01*
X171699282Y-125160655D01*
X171490672Y-125590269D01*
X171490667Y-125590281D01*
X171489565Y-125592550D01*
X171488646Y-125594908D01*
X171331266Y-125998567D01*
X171314240Y-126042236D01*
X171175544Y-126504534D01*
X171175018Y-126506985D01*
X171175016Y-126506995D01*
X171143746Y-126652857D01*
X171074371Y-126976466D01*
X171011372Y-127454992D01*
X171011245Y-127457506D01*
X171011244Y-127457513D01*
X171008194Y-127517734D01*
X170986953Y-127937029D01*
X123010848Y-127937029D01*
X122994007Y-127517734D01*
X122936023Y-127038574D01*
X122935522Y-127036112D01*
X122935520Y-127036099D01*
X122861683Y-126673183D01*
X122839797Y-126565608D01*
X122733599Y-126197679D01*
X122706651Y-126104314D01*
X122706649Y-126104307D01*
X122705949Y-126101883D01*
X122535343Y-125650386D01*
X122329076Y-125214026D01*
X122184542Y-124962673D01*
X122089744Y-124797813D01*
X122089738Y-124797803D01*
X122088479Y-124795614D01*
X121815100Y-124397845D01*
X121784344Y-124360000D01*
X125686547Y-124360000D01*
X125686817Y-124364119D01*
X125689028Y-124397845D01*
X125706339Y-124661966D01*
X125707143Y-124666006D01*
X125707143Y-124666009D01*
X125733361Y-124797813D01*
X125765376Y-124958766D01*
X125862648Y-125245320D01*
X125996491Y-125516726D01*
X126164614Y-125768341D01*
X126167328Y-125771435D01*
X126167332Y-125771441D01*
X126361433Y-125992769D01*
X126364142Y-125995858D01*
X126367231Y-125998567D01*
X126588559Y-126192668D01*
X126588565Y-126192672D01*
X126591659Y-126195386D01*
X126595085Y-126197675D01*
X126595090Y-126197679D01*
X126783371Y-126323484D01*
X126843273Y-126363509D01*
X126846972Y-126365333D01*
X126846977Y-126365336D01*
X126986308Y-126434046D01*
X127114680Y-126497352D01*
X127118585Y-126498677D01*
X127118586Y-126498678D01*
X127397327Y-126593298D01*
X127397330Y-126593299D01*
X127401234Y-126594624D01*
X127405273Y-126595427D01*
X127405279Y-126595429D01*
X127693991Y-126652857D01*
X127693994Y-126652857D01*
X127698034Y-126653661D01*
X127702145Y-126653930D01*
X127702149Y-126653931D01*
X127995881Y-126673183D01*
X128000000Y-126673453D01*
X128004119Y-126673183D01*
X128297851Y-126653931D01*
X128297855Y-126653930D01*
X128301966Y-126653661D01*
X128306006Y-126652857D01*
X128306009Y-126652857D01*
X128594721Y-126595429D01*
X128594727Y-126595427D01*
X128598766Y-126594624D01*
X128602670Y-126593299D01*
X128602673Y-126593298D01*
X128881414Y-126498678D01*
X128881415Y-126498677D01*
X128885320Y-126497352D01*
X129013692Y-126434046D01*
X129153023Y-126365336D01*
X129153028Y-126365333D01*
X129156727Y-126363509D01*
X129216629Y-126323484D01*
X129404910Y-126197679D01*
X129404915Y-126197675D01*
X129408341Y-126195386D01*
X129411435Y-126192672D01*
X129411441Y-126192668D01*
X129632769Y-125998567D01*
X129635858Y-125995858D01*
X129638567Y-125992769D01*
X129832668Y-125771441D01*
X129832672Y-125771435D01*
X129835386Y-125768341D01*
X130003509Y-125516726D01*
X130137352Y-125245320D01*
X130234624Y-124958766D01*
X130266640Y-124797813D01*
X130292857Y-124666009D01*
X130292857Y-124666006D01*
X130293661Y-124661966D01*
X130310973Y-124397845D01*
X130313183Y-124364119D01*
X130313453Y-124360000D01*
X144686547Y-124360000D01*
X144686817Y-124364119D01*
X144689028Y-124397845D01*
X144706339Y-124661966D01*
X144707143Y-124666006D01*
X144707143Y-124666009D01*
X144733361Y-124797813D01*
X144765376Y-124958766D01*
X144862648Y-125245320D01*
X144996491Y-125516726D01*
X145164614Y-125768341D01*
X145167328Y-125771435D01*
X145167332Y-125771441D01*
X145361433Y-125992769D01*
X145364142Y-125995858D01*
X145367231Y-125998567D01*
X145588559Y-126192668D01*
X145588565Y-126192672D01*
X145591659Y-126195386D01*
X145595085Y-126197675D01*
X145595090Y-126197679D01*
X145783371Y-126323484D01*
X145843273Y-126363509D01*
X145846972Y-126365333D01*
X145846977Y-126365336D01*
X145986308Y-126434046D01*
X146114680Y-126497352D01*
X146118585Y-126498677D01*
X146118586Y-126498678D01*
X146397327Y-126593298D01*
X146397330Y-126593299D01*
X146401234Y-126594624D01*
X146405273Y-126595427D01*
X146405279Y-126595429D01*
X146693991Y-126652857D01*
X146693994Y-126652857D01*
X146698034Y-126653661D01*
X146702145Y-126653930D01*
X146702149Y-126653931D01*
X146995881Y-126673183D01*
X147000000Y-126673453D01*
X147004119Y-126673183D01*
X147297851Y-126653931D01*
X147297855Y-126653930D01*
X147301966Y-126653661D01*
X147306006Y-126652857D01*
X147306009Y-126652857D01*
X147594721Y-126595429D01*
X147594727Y-126595427D01*
X147598766Y-126594624D01*
X147602670Y-126593299D01*
X147602673Y-126593298D01*
X147881414Y-126498678D01*
X147881415Y-126498677D01*
X147885320Y-126497352D01*
X148013692Y-126434046D01*
X148153023Y-126365336D01*
X148153028Y-126365333D01*
X148156727Y-126363509D01*
X148216629Y-126323484D01*
X148404910Y-126197679D01*
X148404915Y-126197675D01*
X148408341Y-126195386D01*
X148411435Y-126192672D01*
X148411441Y-126192668D01*
X148632769Y-125998567D01*
X148635858Y-125995858D01*
X148638567Y-125992769D01*
X148832668Y-125771441D01*
X148832672Y-125771435D01*
X148835386Y-125768341D01*
X149003509Y-125516726D01*
X149137352Y-125245320D01*
X149234624Y-124958766D01*
X149266640Y-124797813D01*
X149292857Y-124666009D01*
X149292857Y-124666006D01*
X149293661Y-124661966D01*
X149310973Y-124397845D01*
X149313183Y-124364119D01*
X149313453Y-124360000D01*
X163686547Y-124360000D01*
X163686817Y-124364119D01*
X163689028Y-124397845D01*
X163706339Y-124661966D01*
X163707143Y-124666006D01*
X163707143Y-124666009D01*
X163733361Y-124797813D01*
X163765376Y-124958766D01*
X163862648Y-125245320D01*
X163996491Y-125516726D01*
X164164614Y-125768341D01*
X164167328Y-125771435D01*
X164167332Y-125771441D01*
X164361433Y-125992769D01*
X164364142Y-125995858D01*
X164367231Y-125998567D01*
X164588559Y-126192668D01*
X164588565Y-126192672D01*
X164591659Y-126195386D01*
X164595085Y-126197675D01*
X164595090Y-126197679D01*
X164783371Y-126323484D01*
X164843273Y-126363509D01*
X164846972Y-126365333D01*
X164846977Y-126365336D01*
X164986308Y-126434046D01*
X165114680Y-126497352D01*
X165118585Y-126498677D01*
X165118586Y-126498678D01*
X165397327Y-126593298D01*
X165397330Y-126593299D01*
X165401234Y-126594624D01*
X165405273Y-126595427D01*
X165405279Y-126595429D01*
X165693991Y-126652857D01*
X165693994Y-126652857D01*
X165698034Y-126653661D01*
X165702145Y-126653930D01*
X165702149Y-126653931D01*
X165995881Y-126673183D01*
X166000000Y-126673453D01*
X166004119Y-126673183D01*
X166297851Y-126653931D01*
X166297855Y-126653930D01*
X166301966Y-126653661D01*
X166306006Y-126652857D01*
X166306009Y-126652857D01*
X166594721Y-126595429D01*
X166594727Y-126595427D01*
X166598766Y-126594624D01*
X166602670Y-126593299D01*
X166602673Y-126593298D01*
X166881414Y-126498678D01*
X166881415Y-126498677D01*
X166885320Y-126497352D01*
X167013692Y-126434046D01*
X167153023Y-126365336D01*
X167153028Y-126365333D01*
X167156727Y-126363509D01*
X167216629Y-126323484D01*
X167404910Y-126197679D01*
X167404915Y-126197675D01*
X167408341Y-126195386D01*
X167411435Y-126192672D01*
X167411441Y-126192668D01*
X167632769Y-125998567D01*
X167635858Y-125995858D01*
X167638567Y-125992769D01*
X167832668Y-125771441D01*
X167832672Y-125771435D01*
X167835386Y-125768341D01*
X168003509Y-125516726D01*
X168137352Y-125245320D01*
X168234624Y-124958766D01*
X168266640Y-124797813D01*
X168292857Y-124666009D01*
X168292857Y-124666006D01*
X168293661Y-124661966D01*
X168310973Y-124397845D01*
X168313183Y-124364119D01*
X168313453Y-124360000D01*
X168293661Y-124058034D01*
X168287141Y-124025254D01*
X168235429Y-123765279D01*
X168235427Y-123765273D01*
X168234624Y-123761234D01*
X168137352Y-123474680D01*
X168074112Y-123346442D01*
X168005336Y-123206978D01*
X168005333Y-123206973D01*
X168003509Y-123203274D01*
X167835386Y-122951659D01*
X167832672Y-122948565D01*
X167832668Y-122948559D01*
X167638567Y-122727231D01*
X167635858Y-122724142D01*
X167632769Y-122721433D01*
X167411441Y-122527332D01*
X167411435Y-122527328D01*
X167408341Y-122524614D01*
X167404911Y-122522322D01*
X167404910Y-122522321D01*
X167200934Y-122386029D01*
X167156727Y-122356491D01*
X167153028Y-122354667D01*
X167153023Y-122354664D01*
X167013692Y-122285954D01*
X166885320Y-122222648D01*
X166859314Y-122213820D01*
X166602673Y-122126702D01*
X166602670Y-122126701D01*
X166598766Y-122125376D01*
X166594727Y-122124573D01*
X166594721Y-122124571D01*
X166306009Y-122067143D01*
X166306006Y-122067143D01*
X166301966Y-122066339D01*
X166297855Y-122066070D01*
X166297851Y-122066069D01*
X166004119Y-122046817D01*
X166000000Y-122046547D01*
X165995881Y-122046817D01*
X165702149Y-122066069D01*
X165702145Y-122066070D01*
X165698034Y-122066339D01*
X165693994Y-122067143D01*
X165693991Y-122067143D01*
X165405279Y-122124571D01*
X165405273Y-122124573D01*
X165401234Y-122125376D01*
X165397330Y-122126701D01*
X165397327Y-122126702D01*
X165140686Y-122213820D01*
X165114680Y-122222648D01*
X164986442Y-122285888D01*
X164846978Y-122354664D01*
X164846973Y-122354667D01*
X164843274Y-122356491D01*
X164591659Y-122524614D01*
X164588565Y-122527328D01*
X164588559Y-122527332D01*
X164367231Y-122721433D01*
X164364142Y-122724142D01*
X164361433Y-122727231D01*
X164167332Y-122948559D01*
X164167328Y-122948565D01*
X164164614Y-122951659D01*
X163996491Y-123203274D01*
X163994667Y-123206973D01*
X163994664Y-123206978D01*
X163925888Y-123346442D01*
X163862648Y-123474680D01*
X163765376Y-123761234D01*
X163764573Y-123765273D01*
X163764571Y-123765279D01*
X163712859Y-124025254D01*
X163706339Y-124058034D01*
X163686547Y-124360000D01*
X149313453Y-124360000D01*
X149293661Y-124058034D01*
X149287141Y-124025254D01*
X149235429Y-123765279D01*
X149235427Y-123765273D01*
X149234624Y-123761234D01*
X149137352Y-123474680D01*
X149074112Y-123346442D01*
X149005336Y-123206978D01*
X149005333Y-123206973D01*
X149003509Y-123203274D01*
X148835386Y-122951659D01*
X148832672Y-122948565D01*
X148832668Y-122948559D01*
X148638567Y-122727231D01*
X148635858Y-122724142D01*
X148632769Y-122721433D01*
X148411441Y-122527332D01*
X148411435Y-122527328D01*
X148408341Y-122524614D01*
X148404911Y-122522322D01*
X148404910Y-122522321D01*
X148200934Y-122386029D01*
X148156727Y-122356491D01*
X148153028Y-122354667D01*
X148153023Y-122354664D01*
X148013692Y-122285954D01*
X147885320Y-122222648D01*
X147859314Y-122213820D01*
X147602673Y-122126702D01*
X147602670Y-122126701D01*
X147598766Y-122125376D01*
X147594727Y-122124573D01*
X147594721Y-122124571D01*
X147306009Y-122067143D01*
X147306006Y-122067143D01*
X147301966Y-122066339D01*
X147297855Y-122066070D01*
X147297851Y-122066069D01*
X147004119Y-122046817D01*
X147000000Y-122046547D01*
X146995881Y-122046817D01*
X146702149Y-122066069D01*
X146702145Y-122066070D01*
X146698034Y-122066339D01*
X146693994Y-122067143D01*
X146693991Y-122067143D01*
X146405279Y-122124571D01*
X146405273Y-122124573D01*
X146401234Y-122125376D01*
X146397330Y-122126701D01*
X146397327Y-122126702D01*
X146140686Y-122213820D01*
X146114680Y-122222648D01*
X145986442Y-122285888D01*
X145846978Y-122354664D01*
X145846973Y-122354667D01*
X145843274Y-122356491D01*
X145591659Y-122524614D01*
X145588565Y-122527328D01*
X145588559Y-122527332D01*
X145367231Y-122721433D01*
X145364142Y-122724142D01*
X145361433Y-122727231D01*
X145167332Y-122948559D01*
X145167328Y-122948565D01*
X145164614Y-122951659D01*
X144996491Y-123203274D01*
X144994667Y-123206973D01*
X144994664Y-123206978D01*
X144925888Y-123346442D01*
X144862648Y-123474680D01*
X144765376Y-123761234D01*
X144764573Y-123765273D01*
X144764571Y-123765279D01*
X144712859Y-124025254D01*
X144706339Y-124058034D01*
X144686547Y-124360000D01*
X130313453Y-124360000D01*
X130293661Y-124058034D01*
X130287141Y-124025254D01*
X130235429Y-123765279D01*
X130235427Y-123765273D01*
X130234624Y-123761234D01*
X130137352Y-123474680D01*
X130074112Y-123346442D01*
X130005336Y-123206978D01*
X130005333Y-123206973D01*
X130003509Y-123203274D01*
X129835386Y-122951659D01*
X129832672Y-122948565D01*
X129832668Y-122948559D01*
X129638567Y-122727231D01*
X129635858Y-122724142D01*
X129632769Y-122721433D01*
X129411441Y-122527332D01*
X129411435Y-122527328D01*
X129408341Y-122524614D01*
X129404911Y-122522322D01*
X129404910Y-122522321D01*
X129200934Y-122386029D01*
X129156727Y-122356491D01*
X129153028Y-122354667D01*
X129153023Y-122354664D01*
X129013692Y-122285954D01*
X128885320Y-122222648D01*
X128859314Y-122213820D01*
X128602673Y-122126702D01*
X128602670Y-122126701D01*
X128598766Y-122125376D01*
X128594727Y-122124573D01*
X128594721Y-122124571D01*
X128306009Y-122067143D01*
X128306006Y-122067143D01*
X128301966Y-122066339D01*
X128297855Y-122066070D01*
X128297851Y-122066069D01*
X128004119Y-122046817D01*
X128000000Y-122046547D01*
X127995881Y-122046817D01*
X127702149Y-122066069D01*
X127702145Y-122066070D01*
X127698034Y-122066339D01*
X127693994Y-122067143D01*
X127693991Y-122067143D01*
X127405279Y-122124571D01*
X127405273Y-122124573D01*
X127401234Y-122125376D01*
X127397330Y-122126701D01*
X127397327Y-122126702D01*
X127140686Y-122213820D01*
X127114680Y-122222648D01*
X126986442Y-122285888D01*
X126846978Y-122354664D01*
X126846973Y-122354667D01*
X126843274Y-122356491D01*
X126591659Y-122524614D01*
X126588565Y-122527328D01*
X126588559Y-122527332D01*
X126367231Y-122721433D01*
X126364142Y-122724142D01*
X126361433Y-122727231D01*
X126167332Y-122948559D01*
X126167328Y-122948565D01*
X126164614Y-122951659D01*
X125996491Y-123203274D01*
X125994667Y-123206973D01*
X125994664Y-123206978D01*
X125925888Y-123346442D01*
X125862648Y-123474680D01*
X125765376Y-123761234D01*
X125764573Y-123765273D01*
X125764571Y-123765279D01*
X125712859Y-124025254D01*
X125706339Y-124058034D01*
X125686547Y-124360000D01*
X121784344Y-124360000D01*
X121510701Y-124023282D01*
X121177243Y-123674339D01*
X121130445Y-123632643D01*
X120818761Y-123354943D01*
X120818757Y-123354940D01*
X120816874Y-123353262D01*
X120766554Y-123315205D01*
X120433922Y-123063637D01*
X120433920Y-123063636D01*
X120431916Y-123062120D01*
X120263913Y-122955090D01*
X120026993Y-122804156D01*
X120024849Y-122802790D01*
X120022612Y-122801606D01*
X120022599Y-122801598D01*
X119600541Y-122578130D01*
X119600537Y-122578128D01*
X119598295Y-122576941D01*
X119155002Y-122386029D01*
X118697826Y-122231283D01*
X118229712Y-122113701D01*
X118227231Y-122113286D01*
X118227227Y-122113285D01*
X118070552Y-122087067D01*
X117753676Y-122034040D01*
X117272785Y-121992813D01*
X117015242Y-121991465D01*
X116792667Y-121990299D01*
X116792661Y-121990299D01*
X116790136Y-121990286D01*
X116639056Y-122001646D01*
X116311376Y-122026284D01*
X116311368Y-122026285D01*
X116308840Y-122026475D01*
X115831996Y-122101147D01*
X115362676Y-122213820D01*
X115360286Y-122214601D01*
X115360276Y-122214604D01*
X114906303Y-122362986D01*
X114906298Y-122362988D01*
X114903905Y-122363770D01*
X114676102Y-122459062D01*
X114460974Y-122549052D01*
X114460965Y-122549056D01*
X114458637Y-122550030D01*
X114029741Y-122771399D01*
X113619981Y-123026453D01*
X113231995Y-123313547D01*
X112868284Y-123630833D01*
X112531190Y-123976265D01*
X112222885Y-124347620D01*
X112221432Y-124349687D01*
X112221430Y-124349690D01*
X112044763Y-124601062D01*
X111945356Y-124742504D01*
X111944074Y-124744681D01*
X111944073Y-124744682D01*
X111815667Y-124962673D01*
X111700390Y-125158374D01*
X111699286Y-125160647D01*
X111699282Y-125160655D01*
X111490672Y-125590269D01*
X111490667Y-125590281D01*
X111489565Y-125592550D01*
X111488646Y-125594908D01*
X111331266Y-125998567D01*
X111314240Y-126042236D01*
X111175544Y-126504534D01*
X111175018Y-126506985D01*
X111175016Y-126506995D01*
X111143746Y-126652857D01*
X111074371Y-126976466D01*
X111011372Y-127454992D01*
X111011245Y-127457506D01*
X111011244Y-127457513D01*
X111008194Y-127517734D01*
X110986953Y-127937029D01*
X103640823Y-127937029D01*
X103640823Y-101982191D01*
X103660825Y-101914070D01*
X103677728Y-101893096D01*
X107008674Y-98562150D01*
X107070986Y-98528124D01*
X107098082Y-98525245D01*
X119360815Y-98555902D01*
G37*
G04 #@! TD.AperFunction*
G04 #@! TA.AperFunction,Conductor*
G36*
X169000000Y-90000000D02*
G01*
X169000000Y-94000000D01*
X170000000Y-95000000D01*
X175000000Y-95000000D01*
X175000000Y-97500000D01*
X168000000Y-97500000D01*
X164500000Y-94000000D01*
X164500000Y-90000000D01*
X165500000Y-89000000D01*
X168000000Y-89000000D01*
X169000000Y-90000000D01*
G37*
G04 #@! TD.AperFunction*
G04 #@! TA.AperFunction,Conductor*
G36*
X163015931Y-89020002D02*
G01*
X163036905Y-89036905D01*
X163463095Y-89463095D01*
X163497121Y-89525407D01*
X163500000Y-89552190D01*
X163500000Y-94500000D01*
X167462879Y-98462879D01*
X167496905Y-98525191D01*
X167499783Y-98552495D01*
X167469445Y-105894270D01*
X167449162Y-105962307D01*
X167432541Y-105982844D01*
X166506136Y-106909249D01*
X166443824Y-106943275D01*
X166417041Y-106946154D01*
X164021421Y-106946154D01*
X163953300Y-106926152D01*
X163932326Y-106909249D01*
X163006136Y-105983059D01*
X162972110Y-105920747D01*
X162969231Y-105893964D01*
X162969231Y-101946154D01*
X161969231Y-100946154D01*
X161477874Y-100955065D01*
X159053525Y-100999029D01*
X158985052Y-100980266D01*
X158962145Y-100962145D01*
X158036905Y-100036905D01*
X158002879Y-99974593D01*
X158000000Y-99947810D01*
X158000000Y-89552190D01*
X158020002Y-89484069D01*
X158036905Y-89463095D01*
X158463095Y-89036905D01*
X158525407Y-89002879D01*
X158552190Y-89000000D01*
X162947810Y-89000000D01*
X163015931Y-89020002D01*
G37*
G04 #@! TD.AperFunction*
G04 #@! TA.AperFunction,Conductor*
G36*
X196433621Y-48528502D02*
G01*
X196480114Y-48582158D01*
X196491500Y-48634500D01*
X196491500Y-97374000D01*
X196471498Y-97442121D01*
X196417842Y-97488614D01*
X196365500Y-97500000D01*
X185840482Y-97500000D01*
X185772361Y-97479998D01*
X185725868Y-97426342D01*
X185715764Y-97356068D01*
X185733222Y-97307884D01*
X185812816Y-97178757D01*
X185818963Y-97165576D01*
X185870138Y-97011290D01*
X185873005Y-96997914D01*
X185882672Y-96903562D01*
X185883000Y-96897146D01*
X185883000Y-96809615D01*
X185878525Y-96794376D01*
X185877135Y-96793171D01*
X185869452Y-96791500D01*
X183135116Y-96791500D01*
X183119877Y-96795975D01*
X183118672Y-96797365D01*
X183117001Y-96805048D01*
X183117001Y-96897095D01*
X183117338Y-96903614D01*
X183127257Y-96999206D01*
X183130149Y-97012600D01*
X183181588Y-97166784D01*
X183187761Y-97179962D01*
X183266807Y-97307697D01*
X183285645Y-97376148D01*
X183264484Y-97443918D01*
X183210043Y-97489489D01*
X183159663Y-97500000D01*
X175000000Y-97500000D01*
X175000000Y-96265385D01*
X183117000Y-96265385D01*
X183121475Y-96280624D01*
X183122865Y-96281829D01*
X183130548Y-96283500D01*
X184227885Y-96283500D01*
X184243124Y-96279025D01*
X184244329Y-96277635D01*
X184246000Y-96269952D01*
X184246000Y-96265385D01*
X184754000Y-96265385D01*
X184758475Y-96280624D01*
X184759865Y-96281829D01*
X184767548Y-96283500D01*
X185864884Y-96283500D01*
X185880123Y-96279025D01*
X185881328Y-96277635D01*
X185882999Y-96269952D01*
X185882999Y-96177905D01*
X185882662Y-96171386D01*
X185872743Y-96075794D01*
X185869851Y-96062400D01*
X185818412Y-95908216D01*
X185812239Y-95895038D01*
X185726937Y-95757193D01*
X185717901Y-95745792D01*
X185603171Y-95631261D01*
X185591760Y-95622249D01*
X185453757Y-95537184D01*
X185440576Y-95531037D01*
X185286290Y-95479862D01*
X185272914Y-95476995D01*
X185178562Y-95467328D01*
X185172145Y-95467000D01*
X184772115Y-95467000D01*
X184756876Y-95471475D01*
X184755671Y-95472865D01*
X184754000Y-95480548D01*
X184754000Y-96265385D01*
X184246000Y-96265385D01*
X184246000Y-95485116D01*
X184241525Y-95469877D01*
X184240135Y-95468672D01*
X184232452Y-95467001D01*
X183827905Y-95467001D01*
X183821386Y-95467338D01*
X183725794Y-95477257D01*
X183712400Y-95480149D01*
X183558216Y-95531588D01*
X183545038Y-95537761D01*
X183407193Y-95623063D01*
X183395792Y-95632099D01*
X183281261Y-95746829D01*
X183272249Y-95758240D01*
X183187184Y-95896243D01*
X183181037Y-95909424D01*
X183129862Y-96063710D01*
X183126995Y-96077086D01*
X183117328Y-96171438D01*
X183117000Y-96177855D01*
X183117000Y-96265385D01*
X175000000Y-96265385D01*
X175000000Y-95000000D01*
X170000000Y-95000000D01*
X169000000Y-94000000D01*
X169000000Y-93798134D01*
X169691500Y-93798134D01*
X169698255Y-93860316D01*
X169749385Y-93996705D01*
X169836739Y-94113261D01*
X169953295Y-94200615D01*
X170089684Y-94251745D01*
X170151866Y-94258500D01*
X172748134Y-94258500D01*
X172810316Y-94251745D01*
X172946705Y-94200615D01*
X173063261Y-94113261D01*
X173150615Y-93996705D01*
X173201745Y-93860316D01*
X173208500Y-93798134D01*
X173208500Y-89201866D01*
X173201745Y-89139684D01*
X173150615Y-89003295D01*
X173063261Y-88886739D01*
X172946705Y-88799385D01*
X172810316Y-88748255D01*
X172748134Y-88741500D01*
X170151866Y-88741500D01*
X170089684Y-88748255D01*
X169953295Y-88799385D01*
X169836739Y-88886739D01*
X169749385Y-89003295D01*
X169698255Y-89139684D01*
X169691500Y-89201866D01*
X169691500Y-93798134D01*
X169000000Y-93798134D01*
X169000000Y-90000000D01*
X168000000Y-89000000D01*
X165500000Y-89000000D01*
X164500000Y-90000000D01*
X164500000Y-94000000D01*
X168000000Y-97500000D01*
X167278388Y-97500000D01*
X167210267Y-97479998D01*
X167189293Y-97463095D01*
X164050405Y-94324207D01*
X164016379Y-94261895D01*
X164013500Y-94235112D01*
X164013500Y-89552190D01*
X164010559Y-89497308D01*
X164007680Y-89470525D01*
X164007410Y-89468857D01*
X163999875Y-89422360D01*
X163999874Y-89422355D01*
X163998884Y-89416248D01*
X163994017Y-89403198D01*
X163949378Y-89283521D01*
X163949377Y-89283519D01*
X163947806Y-89279307D01*
X163913780Y-89216995D01*
X163872499Y-89161851D01*
X163828891Y-89103598D01*
X163828887Y-89103594D01*
X163826194Y-89099996D01*
X163400004Y-88673806D01*
X163359123Y-88637083D01*
X163338149Y-88620180D01*
X163332306Y-88615966D01*
X163298570Y-88591638D01*
X163298565Y-88591635D01*
X163293549Y-88588018D01*
X163160600Y-88527302D01*
X163136846Y-88520327D01*
X163096802Y-88508569D01*
X163096798Y-88508568D01*
X163092479Y-88507300D01*
X163088030Y-88506660D01*
X163088024Y-88506659D01*
X162952257Y-88487139D01*
X162952252Y-88487139D01*
X162947810Y-88486500D01*
X158552190Y-88486500D01*
X158525615Y-88487924D01*
X158499001Y-88489350D01*
X158498991Y-88489351D01*
X158497308Y-88489441D01*
X158470525Y-88492320D01*
X158468868Y-88492588D01*
X158468857Y-88492590D01*
X158422360Y-88500125D01*
X158422355Y-88500126D01*
X158416248Y-88501116D01*
X158410451Y-88503278D01*
X158410448Y-88503279D01*
X158283521Y-88550622D01*
X158283519Y-88550623D01*
X158279307Y-88552194D01*
X158216995Y-88586220D01*
X158213395Y-88588915D01*
X158103598Y-88671109D01*
X158103594Y-88671113D01*
X158099996Y-88673806D01*
X157673806Y-89099996D01*
X157637083Y-89140877D01*
X157620180Y-89161851D01*
X157619190Y-89163224D01*
X157591638Y-89201430D01*
X157591635Y-89201435D01*
X157588018Y-89206451D01*
X157527302Y-89339400D01*
X157507300Y-89407521D01*
X157506660Y-89411970D01*
X157506659Y-89411976D01*
X157494147Y-89499001D01*
X157486500Y-89552190D01*
X157486500Y-97374000D01*
X157466498Y-97442121D01*
X157412842Y-97488614D01*
X157360500Y-97500000D01*
X156000000Y-97500000D01*
X156000000Y-95000000D01*
X151000000Y-95000000D01*
X150000000Y-94000000D01*
X150000000Y-93798134D01*
X150691500Y-93798134D01*
X150698255Y-93860316D01*
X150749385Y-93996705D01*
X150836739Y-94113261D01*
X150953295Y-94200615D01*
X151089684Y-94251745D01*
X151151866Y-94258500D01*
X153748134Y-94258500D01*
X153810316Y-94251745D01*
X153946705Y-94200615D01*
X154063261Y-94113261D01*
X154150615Y-93996705D01*
X154201745Y-93860316D01*
X154208500Y-93798134D01*
X154208500Y-89201866D01*
X154201745Y-89139684D01*
X154150615Y-89003295D01*
X154063261Y-88886739D01*
X153946705Y-88799385D01*
X153810316Y-88748255D01*
X153748134Y-88741500D01*
X151151866Y-88741500D01*
X151089684Y-88748255D01*
X150953295Y-88799385D01*
X150836739Y-88886739D01*
X150749385Y-89003295D01*
X150698255Y-89139684D01*
X150691500Y-89201866D01*
X150691500Y-93798134D01*
X150000000Y-93798134D01*
X150000000Y-90000000D01*
X149000000Y-89000000D01*
X146500000Y-89000000D01*
X145500000Y-90000000D01*
X145500000Y-93750000D01*
X149000000Y-97500000D01*
X148500623Y-97500000D01*
X148432502Y-97479998D01*
X148414446Y-97465922D01*
X148297269Y-97356068D01*
X146173697Y-95365220D01*
X145053323Y-94314869D01*
X145017307Y-94253686D01*
X145013500Y-94222947D01*
X145013500Y-89552190D01*
X145010559Y-89497308D01*
X145007680Y-89470525D01*
X145007410Y-89468857D01*
X144999875Y-89422360D01*
X144999874Y-89422355D01*
X144998884Y-89416248D01*
X144994017Y-89403198D01*
X144949378Y-89283521D01*
X144949377Y-89283519D01*
X144947806Y-89279307D01*
X144913780Y-89216995D01*
X144872499Y-89161851D01*
X144828891Y-89103598D01*
X144828887Y-89103594D01*
X144826194Y-89099996D01*
X144400004Y-88673806D01*
X144359123Y-88637083D01*
X144338149Y-88620180D01*
X144332306Y-88615966D01*
X144298570Y-88591638D01*
X144298565Y-88591635D01*
X144293549Y-88588018D01*
X144160600Y-88527302D01*
X144136846Y-88520327D01*
X144096802Y-88508569D01*
X144096798Y-88508568D01*
X144092479Y-88507300D01*
X144088030Y-88506660D01*
X144088024Y-88506659D01*
X143952257Y-88487139D01*
X143952252Y-88487139D01*
X143947810Y-88486500D01*
X139552190Y-88486500D01*
X139525615Y-88487924D01*
X139499001Y-88489350D01*
X139498991Y-88489351D01*
X139497308Y-88489441D01*
X139470525Y-88492320D01*
X139468868Y-88492588D01*
X139468857Y-88492590D01*
X139422360Y-88500125D01*
X139422355Y-88500126D01*
X139416248Y-88501116D01*
X139410451Y-88503278D01*
X139410448Y-88503279D01*
X139283521Y-88550622D01*
X139283519Y-88550623D01*
X139279307Y-88552194D01*
X139216995Y-88586220D01*
X139213395Y-88588915D01*
X139103598Y-88671109D01*
X139103594Y-88671113D01*
X139099996Y-88673806D01*
X138673806Y-89099996D01*
X138637083Y-89140877D01*
X138620180Y-89161851D01*
X138619190Y-89163224D01*
X138591638Y-89201430D01*
X138591635Y-89201435D01*
X138588018Y-89206451D01*
X138527302Y-89339400D01*
X138507300Y-89407521D01*
X138506660Y-89411970D01*
X138506659Y-89411976D01*
X138494147Y-89499001D01*
X138486500Y-89552190D01*
X138486500Y-97374000D01*
X138466498Y-97442121D01*
X138412842Y-97488614D01*
X138360500Y-97500000D01*
X137000000Y-97500000D01*
X137000000Y-95000000D01*
X132000000Y-95000000D01*
X131000000Y-94000000D01*
X131000000Y-93798134D01*
X131691500Y-93798134D01*
X131698255Y-93860316D01*
X131749385Y-93996705D01*
X131836739Y-94113261D01*
X131953295Y-94200615D01*
X132089684Y-94251745D01*
X132151866Y-94258500D01*
X134748134Y-94258500D01*
X134810316Y-94251745D01*
X134946705Y-94200615D01*
X135063261Y-94113261D01*
X135150615Y-93996705D01*
X135201745Y-93860316D01*
X135208500Y-93798134D01*
X135208500Y-89201866D01*
X135201745Y-89139684D01*
X135150615Y-89003295D01*
X135063261Y-88886739D01*
X134946705Y-88799385D01*
X134810316Y-88748255D01*
X134748134Y-88741500D01*
X132151866Y-88741500D01*
X132089684Y-88748255D01*
X131953295Y-88799385D01*
X131836739Y-88886739D01*
X131749385Y-89003295D01*
X131698255Y-89139684D01*
X131691500Y-89201866D01*
X131691500Y-93798134D01*
X131000000Y-93798134D01*
X131000000Y-90000000D01*
X130000000Y-89000000D01*
X127500000Y-89000000D01*
X126500000Y-90000000D01*
X126500000Y-93750000D01*
X130000000Y-97500000D01*
X129278388Y-97500000D01*
X129210267Y-97479998D01*
X129189293Y-97463095D01*
X126050405Y-94324207D01*
X126016379Y-94261895D01*
X126013500Y-94235112D01*
X126013500Y-89552190D01*
X126010559Y-89497308D01*
X126007680Y-89470525D01*
X126007410Y-89468857D01*
X125999875Y-89422360D01*
X125999874Y-89422355D01*
X125998884Y-89416248D01*
X125994017Y-89403198D01*
X125949378Y-89283521D01*
X125949377Y-89283519D01*
X125947806Y-89279307D01*
X125913780Y-89216995D01*
X125872499Y-89161851D01*
X125828891Y-89103598D01*
X125828887Y-89103594D01*
X125826194Y-89099996D01*
X125400004Y-88673806D01*
X125359123Y-88637083D01*
X125338149Y-88620180D01*
X125332306Y-88615966D01*
X125298570Y-88591638D01*
X125298565Y-88591635D01*
X125293549Y-88588018D01*
X125160600Y-88527302D01*
X125136846Y-88520327D01*
X125096802Y-88508569D01*
X125096798Y-88508568D01*
X125092479Y-88507300D01*
X125088030Y-88506660D01*
X125088024Y-88506659D01*
X124952257Y-88487139D01*
X124952252Y-88487139D01*
X124947810Y-88486500D01*
X120552190Y-88486500D01*
X120525615Y-88487924D01*
X120499001Y-88489350D01*
X120498991Y-88489351D01*
X120497308Y-88489441D01*
X120470525Y-88492320D01*
X120468868Y-88492588D01*
X120468857Y-88492590D01*
X120422360Y-88500125D01*
X120422355Y-88500126D01*
X120416248Y-88501116D01*
X120410451Y-88503278D01*
X120410448Y-88503279D01*
X120283521Y-88550622D01*
X120283519Y-88550623D01*
X120279307Y-88552194D01*
X120216995Y-88586220D01*
X120213395Y-88588915D01*
X120103598Y-88671109D01*
X120103594Y-88671113D01*
X120099996Y-88673806D01*
X119673806Y-89099996D01*
X119637083Y-89140877D01*
X119620180Y-89161851D01*
X119619190Y-89163224D01*
X119591638Y-89201430D01*
X119591635Y-89201435D01*
X119588018Y-89206451D01*
X119527302Y-89339400D01*
X119507300Y-89407521D01*
X119506660Y-89411970D01*
X119506659Y-89411976D01*
X119494147Y-89499001D01*
X119486500Y-89552190D01*
X119486500Y-97374000D01*
X119466498Y-97442121D01*
X119412842Y-97488614D01*
X119360500Y-97500000D01*
X97634500Y-97500000D01*
X97566379Y-97479998D01*
X97519886Y-97426342D01*
X97508500Y-97374000D01*
X97508500Y-92000000D01*
X98986835Y-92000000D01*
X99005465Y-92236711D01*
X99060895Y-92467594D01*
X99151760Y-92686963D01*
X99154346Y-92691183D01*
X99273241Y-92885202D01*
X99273245Y-92885208D01*
X99275824Y-92889416D01*
X99430031Y-93069969D01*
X99610584Y-93224176D01*
X99614792Y-93226755D01*
X99614798Y-93226759D01*
X99808817Y-93345654D01*
X99813037Y-93348240D01*
X99817607Y-93350133D01*
X99817611Y-93350135D01*
X100027833Y-93437211D01*
X100032406Y-93439105D01*
X100112609Y-93458360D01*
X100258476Y-93493380D01*
X100258482Y-93493381D01*
X100263289Y-93494535D01*
X100500000Y-93513165D01*
X100736711Y-93494535D01*
X100741518Y-93493381D01*
X100741524Y-93493380D01*
X100887391Y-93458360D01*
X100967594Y-93439105D01*
X100972167Y-93437211D01*
X101182389Y-93350135D01*
X101182393Y-93350133D01*
X101186963Y-93348240D01*
X101191183Y-93345654D01*
X101385202Y-93226759D01*
X101385208Y-93226755D01*
X101389416Y-93224176D01*
X101569969Y-93069969D01*
X101724176Y-92889416D01*
X101726755Y-92885208D01*
X101726759Y-92885202D01*
X101845654Y-92691183D01*
X101848240Y-92686963D01*
X101939105Y-92467594D01*
X101994535Y-92236711D01*
X102013165Y-92000000D01*
X101994535Y-91763289D01*
X101939105Y-91532406D01*
X101848240Y-91313037D01*
X101845654Y-91308817D01*
X101726759Y-91114798D01*
X101726755Y-91114792D01*
X101724176Y-91110584D01*
X101569969Y-90930031D01*
X101389416Y-90775824D01*
X101385208Y-90773245D01*
X101385202Y-90773241D01*
X101191183Y-90654346D01*
X101186963Y-90651760D01*
X101182393Y-90649867D01*
X101182389Y-90649865D01*
X100972167Y-90562789D01*
X100972165Y-90562788D01*
X100967594Y-90560895D01*
X100887391Y-90541640D01*
X100741524Y-90506620D01*
X100741518Y-90506619D01*
X100736711Y-90505465D01*
X100500000Y-90486835D01*
X100263289Y-90505465D01*
X100258482Y-90506619D01*
X100258476Y-90506620D01*
X100112609Y-90541640D01*
X100032406Y-90560895D01*
X100027835Y-90562788D01*
X100027833Y-90562789D01*
X99817611Y-90649865D01*
X99817607Y-90649867D01*
X99813037Y-90651760D01*
X99808817Y-90654346D01*
X99614798Y-90773241D01*
X99614792Y-90773245D01*
X99610584Y-90775824D01*
X99430031Y-90930031D01*
X99275824Y-91110584D01*
X99273245Y-91114792D01*
X99273241Y-91114798D01*
X99154346Y-91308817D01*
X99151760Y-91313037D01*
X99060895Y-91532406D01*
X99005465Y-91763289D01*
X98986835Y-92000000D01*
X97508500Y-92000000D01*
X97508500Y-79500000D01*
X99236835Y-79500000D01*
X99255465Y-79736711D01*
X99256619Y-79741518D01*
X99256620Y-79741524D01*
X99284717Y-79858553D01*
X99310895Y-79967594D01*
X99312788Y-79972165D01*
X99312789Y-79972167D01*
X99381258Y-80137466D01*
X99401760Y-80186963D01*
X99404346Y-80191183D01*
X99523241Y-80385202D01*
X99523245Y-80385208D01*
X99525824Y-80389416D01*
X99680031Y-80569969D01*
X99860584Y-80724176D01*
X99864792Y-80726755D01*
X99864798Y-80726759D01*
X100058817Y-80845654D01*
X100063037Y-80848240D01*
X100067607Y-80850133D01*
X100067611Y-80850135D01*
X100277833Y-80937211D01*
X100282406Y-80939105D01*
X100360601Y-80957878D01*
X100508476Y-80993380D01*
X100508482Y-80993381D01*
X100513289Y-80994535D01*
X100750000Y-81013165D01*
X100986711Y-80994535D01*
X100991518Y-80993381D01*
X100991524Y-80993380D01*
X101139399Y-80957878D01*
X101217594Y-80939105D01*
X101222167Y-80937211D01*
X101432389Y-80850135D01*
X101432393Y-80850133D01*
X101436963Y-80848240D01*
X101441183Y-80845654D01*
X101635202Y-80726759D01*
X101635208Y-80726755D01*
X101639416Y-80724176D01*
X101819969Y-80569969D01*
X101926187Y-80445604D01*
X190162787Y-80445604D01*
X190172567Y-80656899D01*
X190222125Y-80862534D01*
X190224607Y-80867992D01*
X190224608Y-80867996D01*
X190268053Y-80963546D01*
X190309674Y-81055087D01*
X190432054Y-81227611D01*
X190584850Y-81373881D01*
X190762548Y-81488620D01*
X190768114Y-81490863D01*
X190953168Y-81565442D01*
X190953171Y-81565443D01*
X190958737Y-81567686D01*
X191166337Y-81608228D01*
X191171899Y-81608500D01*
X191877846Y-81608500D01*
X192035566Y-81593452D01*
X192238534Y-81533908D01*
X192322111Y-81490863D01*
X192421249Y-81439804D01*
X192421252Y-81439802D01*
X192426580Y-81437058D01*
X192592920Y-81306396D01*
X192596852Y-81301865D01*
X192596855Y-81301862D01*
X192727621Y-81151167D01*
X192731552Y-81146637D01*
X192734552Y-81141451D01*
X192734555Y-81141447D01*
X192834467Y-80968742D01*
X192837473Y-80963546D01*
X192906861Y-80763729D01*
X192907722Y-80757792D01*
X192936352Y-80560336D01*
X192936352Y-80560333D01*
X192937213Y-80554396D01*
X192927433Y-80343101D01*
X192889804Y-80186963D01*
X192879281Y-80143299D01*
X192879280Y-80143297D01*
X192877875Y-80137466D01*
X192834525Y-80042122D01*
X192800638Y-79967594D01*
X192790326Y-79944913D01*
X192667946Y-79772389D01*
X192663619Y-79768247D01*
X192663614Y-79768241D01*
X192572683Y-79681194D01*
X192537306Y-79619639D01*
X192540825Y-79548730D01*
X192582121Y-79490979D01*
X192593504Y-79483035D01*
X192649348Y-79448478D01*
X192774305Y-79323303D01*
X192808257Y-79268223D01*
X192863275Y-79178968D01*
X192863276Y-79178966D01*
X192867115Y-79172738D01*
X192922797Y-79004861D01*
X192933500Y-78900400D01*
X192933500Y-78099600D01*
X192929484Y-78060895D01*
X192923238Y-78000692D01*
X192923237Y-78000688D01*
X192922526Y-77993834D01*
X192920321Y-77987223D01*
X192868868Y-77833002D01*
X192866550Y-77826054D01*
X192773478Y-77675652D01*
X192648303Y-77550695D01*
X192642072Y-77546854D01*
X192503968Y-77461725D01*
X192503966Y-77461724D01*
X192497738Y-77457885D01*
X192337254Y-77404655D01*
X192336389Y-77404368D01*
X192336387Y-77404368D01*
X192329861Y-77402203D01*
X192323025Y-77401503D01*
X192323022Y-77401502D01*
X192279969Y-77397091D01*
X192225400Y-77391500D01*
X190874600Y-77391500D01*
X190871354Y-77391837D01*
X190871350Y-77391837D01*
X190775692Y-77401762D01*
X190775688Y-77401763D01*
X190768834Y-77402474D01*
X190762298Y-77404655D01*
X190762296Y-77404655D01*
X190630194Y-77448728D01*
X190601054Y-77458450D01*
X190450652Y-77551522D01*
X190325695Y-77676697D01*
X190232885Y-77827262D01*
X190230581Y-77834209D01*
X190179829Y-77987223D01*
X190177203Y-77995139D01*
X190176503Y-78001975D01*
X190176502Y-78001978D01*
X190172091Y-78045031D01*
X190166500Y-78099600D01*
X190166500Y-78900400D01*
X190177474Y-79006166D01*
X190179655Y-79012702D01*
X190179655Y-79012704D01*
X190186228Y-79032406D01*
X190233450Y-79173946D01*
X190326522Y-79324348D01*
X190451697Y-79449305D01*
X190457927Y-79453145D01*
X190457928Y-79453146D01*
X190503236Y-79481074D01*
X190550729Y-79533846D01*
X190562153Y-79603918D01*
X190533879Y-79669042D01*
X190514955Y-79687418D01*
X190507080Y-79693604D01*
X190503148Y-79698135D01*
X190503145Y-79698138D01*
X190434474Y-79777275D01*
X190368448Y-79853363D01*
X190365448Y-79858549D01*
X190365445Y-79858553D01*
X190299718Y-79972167D01*
X190262527Y-80036454D01*
X190193139Y-80236271D01*
X190162787Y-80445604D01*
X101926187Y-80445604D01*
X101974176Y-80389416D01*
X101976755Y-80385208D01*
X101976759Y-80385202D01*
X102095654Y-80191183D01*
X102098240Y-80186963D01*
X102118743Y-80137466D01*
X102187211Y-79972167D01*
X102187212Y-79972165D01*
X102189105Y-79967594D01*
X102215283Y-79858553D01*
X102243380Y-79741524D01*
X102243381Y-79741518D01*
X102244535Y-79736711D01*
X102263165Y-79500000D01*
X102244535Y-79263289D01*
X102224582Y-79180176D01*
X102190260Y-79037218D01*
X102189105Y-79032406D01*
X102177696Y-79004861D01*
X102100135Y-78817611D01*
X102100133Y-78817607D01*
X102098240Y-78813037D01*
X102095654Y-78808817D01*
X101976759Y-78614798D01*
X101976755Y-78614792D01*
X101974176Y-78610584D01*
X101819969Y-78430031D01*
X101639416Y-78275824D01*
X101635208Y-78273245D01*
X101635202Y-78273241D01*
X101441183Y-78154346D01*
X101436963Y-78151760D01*
X101432393Y-78149867D01*
X101432389Y-78149865D01*
X101222167Y-78062789D01*
X101222165Y-78062788D01*
X101217594Y-78060895D01*
X101137391Y-78041640D01*
X100991524Y-78006620D01*
X100991518Y-78006619D01*
X100986711Y-78005465D01*
X100760796Y-77987685D01*
X100754930Y-77987223D01*
X100750000Y-77986835D01*
X100745070Y-77987223D01*
X100739204Y-77987685D01*
X100513289Y-78005465D01*
X100508482Y-78006619D01*
X100508476Y-78006620D01*
X100362609Y-78041640D01*
X100282406Y-78060895D01*
X100277835Y-78062788D01*
X100277833Y-78062789D01*
X100067611Y-78149865D01*
X100067607Y-78149867D01*
X100063037Y-78151760D01*
X100058817Y-78154346D01*
X99864798Y-78273241D01*
X99864792Y-78273245D01*
X99860584Y-78275824D01*
X99680031Y-78430031D01*
X99525824Y-78610584D01*
X99523245Y-78614792D01*
X99523241Y-78614798D01*
X99404346Y-78808817D01*
X99401760Y-78813037D01*
X99399867Y-78817607D01*
X99399865Y-78817611D01*
X99322304Y-79004861D01*
X99310895Y-79032406D01*
X99309740Y-79037218D01*
X99275419Y-79180176D01*
X99255465Y-79263289D01*
X99236835Y-79500000D01*
X97508500Y-79500000D01*
X97508500Y-67000000D01*
X99236835Y-67000000D01*
X99255465Y-67236711D01*
X99310895Y-67467594D01*
X99312788Y-67472165D01*
X99312789Y-67472167D01*
X99332714Y-67520269D01*
X99401760Y-67686963D01*
X99404346Y-67691183D01*
X99523241Y-67885202D01*
X99523245Y-67885208D01*
X99525824Y-67889416D01*
X99680031Y-68069969D01*
X99860584Y-68224176D01*
X99864792Y-68226755D01*
X99864798Y-68226759D01*
X100058817Y-68345654D01*
X100063037Y-68348240D01*
X100067607Y-68350133D01*
X100067611Y-68350135D01*
X100228899Y-68416942D01*
X100282406Y-68439105D01*
X100362609Y-68458360D01*
X100508476Y-68493380D01*
X100508482Y-68493381D01*
X100513289Y-68494535D01*
X100750000Y-68513165D01*
X100986711Y-68494535D01*
X100991518Y-68493381D01*
X100991524Y-68493380D01*
X101137391Y-68458360D01*
X101217594Y-68439105D01*
X101271101Y-68416942D01*
X101432389Y-68350135D01*
X101432393Y-68350133D01*
X101436963Y-68348240D01*
X101441183Y-68345654D01*
X101635202Y-68226759D01*
X101635208Y-68226755D01*
X101639416Y-68224176D01*
X101819969Y-68069969D01*
X101933511Y-67937029D01*
X110986953Y-67937029D01*
X111001271Y-68419472D01*
X111001548Y-68421983D01*
X111001549Y-68421994D01*
X111022327Y-68610191D01*
X111054235Y-68899212D01*
X111054714Y-68901697D01*
X111054714Y-68901700D01*
X111136579Y-69326817D01*
X111145503Y-69373160D01*
X111274487Y-69838261D01*
X111275356Y-69840635D01*
X111439486Y-70289144D01*
X111439491Y-70289155D01*
X111440356Y-70291520D01*
X111441411Y-70293814D01*
X111441414Y-70293821D01*
X111526974Y-70479841D01*
X111642042Y-70730016D01*
X111878245Y-71150925D01*
X112147443Y-71551535D01*
X112447903Y-71929264D01*
X112449633Y-71931113D01*
X112449641Y-71931122D01*
X112581569Y-72072103D01*
X112777689Y-72281681D01*
X113134676Y-72606514D01*
X113136670Y-72608055D01*
X113136677Y-72608061D01*
X113288825Y-72725654D01*
X113516564Y-72901671D01*
X113518678Y-72903049D01*
X113918774Y-73163869D01*
X113918780Y-73163873D01*
X113920893Y-73165250D01*
X113923115Y-73166457D01*
X113923121Y-73166460D01*
X114091908Y-73258103D01*
X114345059Y-73395553D01*
X114786328Y-73591097D01*
X115241859Y-73750621D01*
X115708716Y-73873099D01*
X116183891Y-73957740D01*
X116186397Y-73957981D01*
X116186402Y-73957982D01*
X116367875Y-73975456D01*
X116664324Y-74004001D01*
X116666859Y-74004041D01*
X116666862Y-74004041D01*
X116821979Y-74006478D01*
X117146920Y-74011582D01*
X117149439Y-74011419D01*
X117149443Y-74011419D01*
X117626035Y-73980599D01*
X117626038Y-73980599D01*
X117628569Y-73980435D01*
X117631072Y-73980070D01*
X117631080Y-73980069D01*
X117822789Y-73952101D01*
X118106169Y-73910761D01*
X118576642Y-73803008D01*
X119036959Y-73657871D01*
X119072329Y-73643509D01*
X119481821Y-73477231D01*
X119481822Y-73477230D01*
X119484153Y-73476284D01*
X119698053Y-73368704D01*
X119913095Y-73260549D01*
X119913102Y-73260545D01*
X119915343Y-73259418D01*
X120327752Y-73008669D01*
X120329786Y-73007197D01*
X120329793Y-73007192D01*
X120615798Y-72800159D01*
X120718723Y-72725654D01*
X121085737Y-72412194D01*
X121217646Y-72279824D01*
X121424642Y-72072103D01*
X121426429Y-72070310D01*
X121428067Y-72068379D01*
X121736974Y-71704130D01*
X121736980Y-71704122D01*
X121738606Y-71702205D01*
X121783305Y-71640000D01*
X125686547Y-71640000D01*
X125686817Y-71644119D01*
X125705377Y-71927283D01*
X125706339Y-71941966D01*
X125707143Y-71946006D01*
X125707143Y-71946009D01*
X125732225Y-72072103D01*
X125765376Y-72238766D01*
X125766701Y-72242670D01*
X125766702Y-72242673D01*
X125861322Y-72521414D01*
X125862648Y-72525320D01*
X125996491Y-72796726D01*
X126164614Y-73048341D01*
X126167328Y-73051435D01*
X126167332Y-73051441D01*
X126267141Y-73165250D01*
X126364142Y-73275858D01*
X126367231Y-73278567D01*
X126588559Y-73472668D01*
X126588565Y-73472672D01*
X126591659Y-73475386D01*
X126595085Y-73477675D01*
X126595090Y-73477679D01*
X126763305Y-73590076D01*
X126843273Y-73643509D01*
X126846972Y-73645333D01*
X126846977Y-73645336D01*
X126872396Y-73657871D01*
X127114680Y-73777352D01*
X127118585Y-73778677D01*
X127118586Y-73778678D01*
X127397327Y-73873298D01*
X127397330Y-73873299D01*
X127401234Y-73874624D01*
X127405273Y-73875427D01*
X127405279Y-73875429D01*
X127693991Y-73932857D01*
X127693994Y-73932857D01*
X127698034Y-73933661D01*
X127702145Y-73933930D01*
X127702149Y-73933931D01*
X127995881Y-73953183D01*
X128000000Y-73953453D01*
X128004119Y-73953183D01*
X128297851Y-73933931D01*
X128297855Y-73933930D01*
X128301966Y-73933661D01*
X128306006Y-73932857D01*
X128306009Y-73932857D01*
X128594721Y-73875429D01*
X128594727Y-73875427D01*
X128598766Y-73874624D01*
X128602670Y-73873299D01*
X128602673Y-73873298D01*
X128881414Y-73778678D01*
X128881415Y-73778677D01*
X128885320Y-73777352D01*
X129127604Y-73657871D01*
X129153023Y-73645336D01*
X129153028Y-73645333D01*
X129156727Y-73643509D01*
X129236695Y-73590076D01*
X129404910Y-73477679D01*
X129404915Y-73477675D01*
X129408341Y-73475386D01*
X129411435Y-73472672D01*
X129411441Y-73472668D01*
X129632769Y-73278567D01*
X129635858Y-73275858D01*
X129732859Y-73165250D01*
X129832668Y-73051441D01*
X129832672Y-73051435D01*
X129835386Y-73048341D01*
X130003509Y-72796726D01*
X130137352Y-72525320D01*
X130138678Y-72521414D01*
X130233298Y-72242673D01*
X130233299Y-72242670D01*
X130234624Y-72238766D01*
X130267776Y-72072103D01*
X130292857Y-71946009D01*
X130292857Y-71946006D01*
X130293661Y-71941966D01*
X130294624Y-71927283D01*
X130313183Y-71644119D01*
X130313453Y-71640000D01*
X144686547Y-71640000D01*
X144686817Y-71644119D01*
X144705377Y-71927283D01*
X144706339Y-71941966D01*
X144707143Y-71946006D01*
X144707143Y-71946009D01*
X144732225Y-72072103D01*
X144765376Y-72238766D01*
X144766701Y-72242670D01*
X144766702Y-72242673D01*
X144861322Y-72521414D01*
X144862648Y-72525320D01*
X144996491Y-72796726D01*
X145164614Y-73048341D01*
X145167328Y-73051435D01*
X145167332Y-73051441D01*
X145267141Y-73165250D01*
X145364142Y-73275858D01*
X145367231Y-73278567D01*
X145588559Y-73472668D01*
X145588565Y-73472672D01*
X145591659Y-73475386D01*
X145595085Y-73477675D01*
X145595090Y-73477679D01*
X145763305Y-73590076D01*
X145843273Y-73643509D01*
X145846972Y-73645333D01*
X145846977Y-73645336D01*
X145872396Y-73657871D01*
X146114680Y-73777352D01*
X146118585Y-73778677D01*
X146118586Y-73778678D01*
X146397327Y-73873298D01*
X146397330Y-73873299D01*
X146401234Y-73874624D01*
X146405273Y-73875427D01*
X146405279Y-73875429D01*
X146693991Y-73932857D01*
X146693994Y-73932857D01*
X146698034Y-73933661D01*
X146702145Y-73933930D01*
X146702149Y-73933931D01*
X146995881Y-73953183D01*
X147000000Y-73953453D01*
X147004119Y-73953183D01*
X147297851Y-73933931D01*
X147297855Y-73933930D01*
X147301966Y-73933661D01*
X147306006Y-73932857D01*
X147306009Y-73932857D01*
X147594721Y-73875429D01*
X147594727Y-73875427D01*
X147598766Y-73874624D01*
X147602670Y-73873299D01*
X147602673Y-73873298D01*
X147881414Y-73778678D01*
X147881415Y-73778677D01*
X147885320Y-73777352D01*
X148127604Y-73657871D01*
X148153023Y-73645336D01*
X148153028Y-73645333D01*
X148156727Y-73643509D01*
X148236695Y-73590076D01*
X148404910Y-73477679D01*
X148404915Y-73477675D01*
X148408341Y-73475386D01*
X148411435Y-73472672D01*
X148411441Y-73472668D01*
X148632769Y-73278567D01*
X148635858Y-73275858D01*
X148732859Y-73165250D01*
X148832668Y-73051441D01*
X148832672Y-73051435D01*
X148835386Y-73048341D01*
X149003509Y-72796726D01*
X149137352Y-72525320D01*
X149138678Y-72521414D01*
X149233298Y-72242673D01*
X149233299Y-72242670D01*
X149234624Y-72238766D01*
X149267776Y-72072103D01*
X149292857Y-71946009D01*
X149292857Y-71946006D01*
X149293661Y-71941966D01*
X149294624Y-71927283D01*
X149313183Y-71644119D01*
X149313453Y-71640000D01*
X163686547Y-71640000D01*
X163686817Y-71644119D01*
X163705377Y-71927283D01*
X163706339Y-71941966D01*
X163707143Y-71946006D01*
X163707143Y-71946009D01*
X163732225Y-72072103D01*
X163765376Y-72238766D01*
X163766701Y-72242670D01*
X163766702Y-72242673D01*
X163861322Y-72521414D01*
X163862648Y-72525320D01*
X163996491Y-72796726D01*
X164164614Y-73048341D01*
X164167328Y-73051435D01*
X164167332Y-73051441D01*
X164267141Y-73165250D01*
X164364142Y-73275858D01*
X164367231Y-73278567D01*
X164588559Y-73472668D01*
X164588565Y-73472672D01*
X164591659Y-73475386D01*
X164595085Y-73477675D01*
X164595090Y-73477679D01*
X164763305Y-73590076D01*
X164843273Y-73643509D01*
X164846972Y-73645333D01*
X164846977Y-73645336D01*
X164872396Y-73657871D01*
X165114680Y-73777352D01*
X165118585Y-73778677D01*
X165118586Y-73778678D01*
X165397327Y-73873298D01*
X165397330Y-73873299D01*
X165401234Y-73874624D01*
X165405273Y-73875427D01*
X165405279Y-73875429D01*
X165693991Y-73932857D01*
X165693994Y-73932857D01*
X165698034Y-73933661D01*
X165702145Y-73933930D01*
X165702149Y-73933931D01*
X165995881Y-73953183D01*
X166000000Y-73953453D01*
X166004119Y-73953183D01*
X166297851Y-73933931D01*
X166297855Y-73933930D01*
X166301966Y-73933661D01*
X166306006Y-73932857D01*
X166306009Y-73932857D01*
X166594721Y-73875429D01*
X166594727Y-73875427D01*
X166598766Y-73874624D01*
X166602670Y-73873299D01*
X166602673Y-73873298D01*
X166881414Y-73778678D01*
X166881415Y-73778677D01*
X166885320Y-73777352D01*
X167127604Y-73657871D01*
X167153023Y-73645336D01*
X167153028Y-73645333D01*
X167156727Y-73643509D01*
X167236695Y-73590076D01*
X167404910Y-73477679D01*
X167404915Y-73477675D01*
X167408341Y-73475386D01*
X167411435Y-73472672D01*
X167411441Y-73472668D01*
X167632769Y-73278567D01*
X167635858Y-73275858D01*
X167732859Y-73165250D01*
X167832668Y-73051441D01*
X167832672Y-73051435D01*
X167835386Y-73048341D01*
X168003509Y-72796726D01*
X168137352Y-72525320D01*
X168138678Y-72521414D01*
X168233298Y-72242673D01*
X168233299Y-72242670D01*
X168234624Y-72238766D01*
X168267776Y-72072103D01*
X168292857Y-71946009D01*
X168292857Y-71946006D01*
X168293661Y-71941966D01*
X168294624Y-71927283D01*
X168313183Y-71644119D01*
X168313453Y-71640000D01*
X168293661Y-71338034D01*
X168287704Y-71308084D01*
X168235429Y-71045279D01*
X168235427Y-71045273D01*
X168234624Y-71041234D01*
X168184886Y-70894709D01*
X168138678Y-70758586D01*
X168138677Y-70758585D01*
X168137352Y-70754680D01*
X168003509Y-70483274D01*
X167835386Y-70231659D01*
X167832672Y-70228565D01*
X167832668Y-70228559D01*
X167638567Y-70007231D01*
X167635858Y-70004142D01*
X167446708Y-69838261D01*
X167411441Y-69807332D01*
X167411435Y-69807328D01*
X167408341Y-69804614D01*
X167404911Y-69802322D01*
X167404910Y-69802321D01*
X167160160Y-69638785D01*
X167156727Y-69636491D01*
X167153028Y-69634667D01*
X167153023Y-69634664D01*
X166989247Y-69553899D01*
X166885320Y-69502648D01*
X166881414Y-69501322D01*
X166602673Y-69406702D01*
X166602670Y-69406701D01*
X166598766Y-69405376D01*
X166594727Y-69404573D01*
X166594721Y-69404571D01*
X166306009Y-69347143D01*
X166306006Y-69347143D01*
X166301966Y-69346339D01*
X166297855Y-69346070D01*
X166297851Y-69346069D01*
X166004119Y-69326817D01*
X166000000Y-69326547D01*
X165995881Y-69326817D01*
X165702149Y-69346069D01*
X165702145Y-69346070D01*
X165698034Y-69346339D01*
X165693994Y-69347143D01*
X165693991Y-69347143D01*
X165405279Y-69404571D01*
X165405273Y-69404573D01*
X165401234Y-69405376D01*
X165397330Y-69406701D01*
X165397327Y-69406702D01*
X165118586Y-69501322D01*
X165114680Y-69502648D01*
X164986442Y-69565888D01*
X164846978Y-69634664D01*
X164846973Y-69634667D01*
X164843274Y-69636491D01*
X164591659Y-69804614D01*
X164588565Y-69807328D01*
X164588559Y-69807332D01*
X164553292Y-69838261D01*
X164364142Y-70004142D01*
X164361433Y-70007231D01*
X164167332Y-70228559D01*
X164167328Y-70228565D01*
X164164614Y-70231659D01*
X163996491Y-70483274D01*
X163862648Y-70754680D01*
X163861323Y-70758585D01*
X163861322Y-70758586D01*
X163815115Y-70894709D01*
X163765376Y-71041234D01*
X163764573Y-71045273D01*
X163764571Y-71045279D01*
X163712296Y-71308084D01*
X163706339Y-71338034D01*
X163686547Y-71640000D01*
X149313453Y-71640000D01*
X149293661Y-71338034D01*
X149287704Y-71308084D01*
X149235429Y-71045279D01*
X149235427Y-71045273D01*
X149234624Y-71041234D01*
X149184886Y-70894709D01*
X149138678Y-70758586D01*
X149138677Y-70758585D01*
X149137352Y-70754680D01*
X149003509Y-70483274D01*
X148835386Y-70231659D01*
X148832672Y-70228565D01*
X148832668Y-70228559D01*
X148638567Y-70007231D01*
X148635858Y-70004142D01*
X148446708Y-69838261D01*
X148411441Y-69807332D01*
X148411435Y-69807328D01*
X148408341Y-69804614D01*
X148404911Y-69802322D01*
X148404910Y-69802321D01*
X148160160Y-69638785D01*
X148156727Y-69636491D01*
X148153028Y-69634667D01*
X148153023Y-69634664D01*
X147989247Y-69553899D01*
X147885320Y-69502648D01*
X147881414Y-69501322D01*
X147602673Y-69406702D01*
X147602670Y-69406701D01*
X147598766Y-69405376D01*
X147594727Y-69404573D01*
X147594721Y-69404571D01*
X147306009Y-69347143D01*
X147306006Y-69347143D01*
X147301966Y-69346339D01*
X147297855Y-69346070D01*
X147297851Y-69346069D01*
X147004119Y-69326817D01*
X147000000Y-69326547D01*
X146995881Y-69326817D01*
X146702149Y-69346069D01*
X146702145Y-69346070D01*
X146698034Y-69346339D01*
X146693994Y-69347143D01*
X146693991Y-69347143D01*
X146405279Y-69404571D01*
X146405273Y-69404573D01*
X146401234Y-69405376D01*
X146397330Y-69406701D01*
X146397327Y-69406702D01*
X146118586Y-69501322D01*
X146114680Y-69502648D01*
X145986442Y-69565888D01*
X145846978Y-69634664D01*
X145846973Y-69634667D01*
X145843274Y-69636491D01*
X145591659Y-69804614D01*
X145588565Y-69807328D01*
X145588559Y-69807332D01*
X145553292Y-69838261D01*
X145364142Y-70004142D01*
X145361433Y-70007231D01*
X145167332Y-70228559D01*
X145167328Y-70228565D01*
X145164614Y-70231659D01*
X144996491Y-70483274D01*
X144862648Y-70754680D01*
X144861323Y-70758585D01*
X144861322Y-70758586D01*
X144815115Y-70894709D01*
X144765376Y-71041234D01*
X144764573Y-71045273D01*
X144764571Y-71045279D01*
X144712296Y-71308084D01*
X144706339Y-71338034D01*
X144686547Y-71640000D01*
X130313453Y-71640000D01*
X130293661Y-71338034D01*
X130287704Y-71308084D01*
X130235429Y-71045279D01*
X130235427Y-71045273D01*
X130234624Y-71041234D01*
X130184886Y-70894709D01*
X130138678Y-70758586D01*
X130138677Y-70758585D01*
X130137352Y-70754680D01*
X130003509Y-70483274D01*
X129835386Y-70231659D01*
X129832672Y-70228565D01*
X129832668Y-70228559D01*
X129638567Y-70007231D01*
X129635858Y-70004142D01*
X129446708Y-69838261D01*
X129411441Y-69807332D01*
X129411435Y-69807328D01*
X129408341Y-69804614D01*
X129404911Y-69802322D01*
X129404910Y-69802321D01*
X129160160Y-69638785D01*
X129156727Y-69636491D01*
X129153028Y-69634667D01*
X129153023Y-69634664D01*
X128989247Y-69553899D01*
X128885320Y-69502648D01*
X128881414Y-69501322D01*
X128602673Y-69406702D01*
X128602670Y-69406701D01*
X128598766Y-69405376D01*
X128594727Y-69404573D01*
X128594721Y-69404571D01*
X128306009Y-69347143D01*
X128306006Y-69347143D01*
X128301966Y-69346339D01*
X128297855Y-69346070D01*
X128297851Y-69346069D01*
X128004119Y-69326817D01*
X128000000Y-69326547D01*
X127995881Y-69326817D01*
X127702149Y-69346069D01*
X127702145Y-69346070D01*
X127698034Y-69346339D01*
X127693994Y-69347143D01*
X127693991Y-69347143D01*
X127405279Y-69404571D01*
X127405273Y-69404573D01*
X127401234Y-69405376D01*
X127397330Y-69406701D01*
X127397327Y-69406702D01*
X127118586Y-69501322D01*
X127114680Y-69502648D01*
X126986442Y-69565888D01*
X126846978Y-69634664D01*
X126846973Y-69634667D01*
X126843274Y-69636491D01*
X126591659Y-69804614D01*
X126588565Y-69807328D01*
X126588559Y-69807332D01*
X126553292Y-69838261D01*
X126364142Y-70004142D01*
X126361433Y-70007231D01*
X126167332Y-70228559D01*
X126167328Y-70228565D01*
X126164614Y-70231659D01*
X125996491Y-70483274D01*
X125862648Y-70754680D01*
X125861323Y-70758585D01*
X125861322Y-70758586D01*
X125815115Y-70894709D01*
X125765376Y-71041234D01*
X125764573Y-71045273D01*
X125764571Y-71045279D01*
X125712296Y-71308084D01*
X125706339Y-71338034D01*
X125686547Y-71640000D01*
X121783305Y-71640000D01*
X121848382Y-71549436D01*
X122018781Y-71312299D01*
X122020255Y-71310248D01*
X122269562Y-70896966D01*
X122484922Y-70465022D01*
X122664947Y-70017197D01*
X122808476Y-69556376D01*
X122914586Y-69085530D01*
X122982593Y-68607690D01*
X122998346Y-68350135D01*
X123011962Y-68127511D01*
X123011963Y-68127496D01*
X123012058Y-68125935D01*
X123013377Y-68000000D01*
X123010848Y-67937029D01*
X170986953Y-67937029D01*
X171001271Y-68419472D01*
X171001548Y-68421983D01*
X171001549Y-68421994D01*
X171022327Y-68610191D01*
X171054235Y-68899212D01*
X171054714Y-68901697D01*
X171054714Y-68901700D01*
X171136579Y-69326817D01*
X171145503Y-69373160D01*
X171274487Y-69838261D01*
X171275356Y-69840635D01*
X171439486Y-70289144D01*
X171439491Y-70289155D01*
X171440356Y-70291520D01*
X171441411Y-70293814D01*
X171441414Y-70293821D01*
X171526974Y-70479841D01*
X171642042Y-70730016D01*
X171878245Y-71150925D01*
X172147443Y-71551535D01*
X172447903Y-71929264D01*
X172449633Y-71931113D01*
X172449641Y-71931122D01*
X172581569Y-72072103D01*
X172777689Y-72281681D01*
X173134676Y-72606514D01*
X173136670Y-72608055D01*
X173136677Y-72608061D01*
X173288825Y-72725654D01*
X173516564Y-72901671D01*
X173518678Y-72903049D01*
X173918774Y-73163869D01*
X173918780Y-73163873D01*
X173920893Y-73165250D01*
X173923115Y-73166457D01*
X173923121Y-73166460D01*
X174091908Y-73258103D01*
X174345059Y-73395553D01*
X174786328Y-73591097D01*
X175241859Y-73750621D01*
X175708716Y-73873099D01*
X176183891Y-73957740D01*
X176186397Y-73957981D01*
X176186402Y-73957982D01*
X176367875Y-73975456D01*
X176664324Y-74004001D01*
X176666859Y-74004041D01*
X176666862Y-74004041D01*
X176821979Y-74006478D01*
X177146920Y-74011582D01*
X177149439Y-74011419D01*
X177149443Y-74011419D01*
X177626035Y-73980599D01*
X177626038Y-73980599D01*
X177628569Y-73980435D01*
X177631072Y-73980070D01*
X177631080Y-73980069D01*
X177822789Y-73952101D01*
X178106169Y-73910761D01*
X178576642Y-73803008D01*
X179036959Y-73657871D01*
X179072329Y-73643509D01*
X179481821Y-73477231D01*
X179481822Y-73477230D01*
X179484153Y-73476284D01*
X179698053Y-73368704D01*
X179913095Y-73260549D01*
X179913102Y-73260545D01*
X179915343Y-73259418D01*
X180327752Y-73008669D01*
X180329786Y-73007197D01*
X180329793Y-73007192D01*
X180615798Y-72800159D01*
X180718723Y-72725654D01*
X181085737Y-72412194D01*
X181217646Y-72279824D01*
X181424642Y-72072103D01*
X181426429Y-72070310D01*
X181428067Y-72068379D01*
X181736974Y-71704130D01*
X181736980Y-71704122D01*
X181738606Y-71702205D01*
X181848382Y-71549436D01*
X182018781Y-71312299D01*
X182020255Y-71310248D01*
X182269562Y-70896966D01*
X182484922Y-70465022D01*
X182664947Y-70017197D01*
X182808476Y-69556376D01*
X182914586Y-69085530D01*
X182982593Y-68607690D01*
X182998346Y-68350135D01*
X183011962Y-68127511D01*
X183011963Y-68127496D01*
X183012058Y-68125935D01*
X183013377Y-68000000D01*
X182994007Y-67517734D01*
X182936023Y-67038574D01*
X182935522Y-67036112D01*
X182935520Y-67036099D01*
X182840302Y-66568092D01*
X182839797Y-66565608D01*
X182709677Y-66114798D01*
X182706651Y-66104314D01*
X182706649Y-66104307D01*
X182705949Y-66101883D01*
X182535343Y-65650386D01*
X182329076Y-65214026D01*
X182228760Y-65039571D01*
X182089744Y-64797813D01*
X182089738Y-64797803D01*
X182088479Y-64795614D01*
X181815100Y-64397845D01*
X181510701Y-64023282D01*
X181177243Y-63674339D01*
X181130445Y-63632643D01*
X180818761Y-63354943D01*
X180818757Y-63354940D01*
X180816874Y-63353262D01*
X180766554Y-63315205D01*
X180433922Y-63063637D01*
X180433920Y-63063636D01*
X180431916Y-63062120D01*
X180024849Y-62802790D01*
X180022612Y-62801606D01*
X180022599Y-62801598D01*
X179600541Y-62578130D01*
X179600537Y-62578128D01*
X179598295Y-62576941D01*
X179155002Y-62386029D01*
X178697826Y-62231283D01*
X178229712Y-62113701D01*
X178227231Y-62113286D01*
X178227227Y-62113285D01*
X178070552Y-62087067D01*
X177753676Y-62034040D01*
X177272785Y-61992813D01*
X177015242Y-61991465D01*
X176792667Y-61990299D01*
X176792661Y-61990299D01*
X176790136Y-61990286D01*
X176639056Y-62001646D01*
X176311376Y-62026284D01*
X176311368Y-62026285D01*
X176308840Y-62026475D01*
X175831996Y-62101147D01*
X175362676Y-62213820D01*
X175360286Y-62214601D01*
X175360276Y-62214604D01*
X174906303Y-62362986D01*
X174906298Y-62362988D01*
X174903905Y-62363770D01*
X174676102Y-62459062D01*
X174460974Y-62549052D01*
X174460965Y-62549056D01*
X174458637Y-62550030D01*
X174029741Y-62771399D01*
X173619981Y-63026453D01*
X173231995Y-63313547D01*
X172868284Y-63630833D01*
X172531190Y-63976265D01*
X172222885Y-64347620D01*
X172221432Y-64349687D01*
X172221430Y-64349690D01*
X172044763Y-64601062D01*
X171945356Y-64742504D01*
X171944074Y-64744681D01*
X171944073Y-64744682D01*
X171912777Y-64797813D01*
X171700390Y-65158374D01*
X171699286Y-65160647D01*
X171699282Y-65160655D01*
X171490672Y-65590269D01*
X171490667Y-65590281D01*
X171489565Y-65592550D01*
X171488646Y-65594908D01*
X171359238Y-65926823D01*
X171314240Y-66042236D01*
X171175544Y-66504534D01*
X171175018Y-66506985D01*
X171175016Y-66506995D01*
X171120072Y-66763289D01*
X171074371Y-66976466D01*
X171074042Y-66978966D01*
X171039476Y-67241524D01*
X171011372Y-67454992D01*
X171011245Y-67457506D01*
X171011244Y-67457513D01*
X170989175Y-67893175D01*
X170986953Y-67937029D01*
X123010848Y-67937029D01*
X122994007Y-67517734D01*
X122936023Y-67038574D01*
X122935522Y-67036112D01*
X122935520Y-67036099D01*
X122840302Y-66568092D01*
X122839797Y-66565608D01*
X122709677Y-66114798D01*
X122706651Y-66104314D01*
X122706649Y-66104307D01*
X122705949Y-66101883D01*
X122535343Y-65650386D01*
X122329076Y-65214026D01*
X122228760Y-65039571D01*
X122089744Y-64797813D01*
X122089738Y-64797803D01*
X122088479Y-64795614D01*
X121815100Y-64397845D01*
X121510701Y-64023282D01*
X121177243Y-63674339D01*
X121130445Y-63632643D01*
X120818761Y-63354943D01*
X120818757Y-63354940D01*
X120816874Y-63353262D01*
X120766554Y-63315205D01*
X120433922Y-63063637D01*
X120433920Y-63063636D01*
X120431916Y-63062120D01*
X120024849Y-62802790D01*
X120022612Y-62801606D01*
X120022599Y-62801598D01*
X119600541Y-62578130D01*
X119600537Y-62578128D01*
X119598295Y-62576941D01*
X119155002Y-62386029D01*
X118697826Y-62231283D01*
X118229712Y-62113701D01*
X118227231Y-62113286D01*
X118227227Y-62113285D01*
X118070552Y-62087067D01*
X117753676Y-62034040D01*
X117272785Y-61992813D01*
X117015242Y-61991465D01*
X116792667Y-61990299D01*
X116792661Y-61990299D01*
X116790136Y-61990286D01*
X116639056Y-62001646D01*
X116311376Y-62026284D01*
X116311368Y-62026285D01*
X116308840Y-62026475D01*
X115831996Y-62101147D01*
X115362676Y-62213820D01*
X115360286Y-62214601D01*
X115360276Y-62214604D01*
X114906303Y-62362986D01*
X114906298Y-62362988D01*
X114903905Y-62363770D01*
X114676102Y-62459062D01*
X114460974Y-62549052D01*
X114460965Y-62549056D01*
X114458637Y-62550030D01*
X114029741Y-62771399D01*
X113619981Y-63026453D01*
X113231995Y-63313547D01*
X112868284Y-63630833D01*
X112531190Y-63976265D01*
X112222885Y-64347620D01*
X112221432Y-64349687D01*
X112221430Y-64349690D01*
X112044763Y-64601062D01*
X111945356Y-64742504D01*
X111944074Y-64744681D01*
X111944073Y-64744682D01*
X111912777Y-64797813D01*
X111700390Y-65158374D01*
X111699286Y-65160647D01*
X111699282Y-65160655D01*
X111490672Y-65590269D01*
X111490667Y-65590281D01*
X111489565Y-65592550D01*
X111488646Y-65594908D01*
X111359238Y-65926823D01*
X111314240Y-66042236D01*
X111175544Y-66504534D01*
X111175018Y-66506985D01*
X111175016Y-66506995D01*
X111120072Y-66763289D01*
X111074371Y-66976466D01*
X111074042Y-66978966D01*
X111039476Y-67241524D01*
X111011372Y-67454992D01*
X111011245Y-67457506D01*
X111011244Y-67457513D01*
X110989175Y-67893175D01*
X110986953Y-67937029D01*
X101933511Y-67937029D01*
X101974176Y-67889416D01*
X101976755Y-67885208D01*
X101976759Y-67885202D01*
X102095654Y-67691183D01*
X102098240Y-67686963D01*
X102167287Y-67520269D01*
X102187211Y-67472167D01*
X102187212Y-67472165D01*
X102189105Y-67467594D01*
X102244535Y-67236711D01*
X102263165Y-67000000D01*
X102244535Y-66763289D01*
X102189105Y-66532406D01*
X102187211Y-66527833D01*
X102100135Y-66317611D01*
X102100133Y-66317607D01*
X102098240Y-66313037D01*
X102095654Y-66308817D01*
X101976759Y-66114798D01*
X101976755Y-66114792D01*
X101974176Y-66110584D01*
X101819969Y-65930031D01*
X101639416Y-65775824D01*
X101635208Y-65773245D01*
X101635202Y-65773241D01*
X101441183Y-65654346D01*
X101436963Y-65651760D01*
X101432393Y-65649867D01*
X101432389Y-65649865D01*
X101222167Y-65562789D01*
X101222165Y-65562788D01*
X101217594Y-65560895D01*
X101137391Y-65541640D01*
X100991524Y-65506620D01*
X100991518Y-65506619D01*
X100986711Y-65505465D01*
X100750000Y-65486835D01*
X100513289Y-65505465D01*
X100508482Y-65506619D01*
X100508476Y-65506620D01*
X100362609Y-65541640D01*
X100282406Y-65560895D01*
X100277835Y-65562788D01*
X100277833Y-65562789D01*
X100067611Y-65649865D01*
X100067607Y-65649867D01*
X100063037Y-65651760D01*
X100058817Y-65654346D01*
X99864798Y-65773241D01*
X99864792Y-65773245D01*
X99860584Y-65775824D01*
X99680031Y-65930031D01*
X99525824Y-66110584D01*
X99523245Y-66114792D01*
X99523241Y-66114798D01*
X99404346Y-66308817D01*
X99401760Y-66313037D01*
X99399867Y-66317607D01*
X99399865Y-66317611D01*
X99312789Y-66527833D01*
X99310895Y-66532406D01*
X99255465Y-66763289D01*
X99236835Y-67000000D01*
X97508500Y-67000000D01*
X97508500Y-58000000D01*
X103286411Y-58000000D01*
X103306754Y-58388176D01*
X103367562Y-58772099D01*
X103468167Y-59147562D01*
X103607468Y-59510453D01*
X103783938Y-59856794D01*
X103995643Y-60182793D01*
X104240266Y-60484876D01*
X104515124Y-60759734D01*
X104817207Y-61004357D01*
X105143205Y-61216062D01*
X105146139Y-61217557D01*
X105146146Y-61217561D01*
X105486607Y-61391034D01*
X105489547Y-61392532D01*
X105852438Y-61531833D01*
X106227901Y-61632438D01*
X106431793Y-61664732D01*
X106608576Y-61692732D01*
X106608584Y-61692733D01*
X106611824Y-61693246D01*
X107000000Y-61713589D01*
X107388176Y-61693246D01*
X107391416Y-61692733D01*
X107391424Y-61692732D01*
X107568207Y-61664732D01*
X107772099Y-61632438D01*
X108147562Y-61531833D01*
X108510453Y-61392532D01*
X108513393Y-61391034D01*
X108853854Y-61217561D01*
X108853861Y-61217557D01*
X108856795Y-61216062D01*
X109182793Y-61004357D01*
X109484876Y-60759734D01*
X109759734Y-60484876D01*
X110004357Y-60182793D01*
X110216062Y-59856794D01*
X110392532Y-59510453D01*
X110531833Y-59147562D01*
X110632438Y-58772099D01*
X110693246Y-58388176D01*
X110713589Y-58000000D01*
X183286411Y-58000000D01*
X183306754Y-58388176D01*
X183367562Y-58772099D01*
X183468167Y-59147562D01*
X183607468Y-59510453D01*
X183783938Y-59856794D01*
X183995643Y-60182793D01*
X184240266Y-60484876D01*
X184515124Y-60759734D01*
X184817207Y-61004357D01*
X185143205Y-61216062D01*
X185146139Y-61217557D01*
X185146146Y-61217561D01*
X185486607Y-61391034D01*
X185489547Y-61392532D01*
X185852438Y-61531833D01*
X186227901Y-61632438D01*
X186431793Y-61664732D01*
X186608576Y-61692732D01*
X186608584Y-61692733D01*
X186611824Y-61693246D01*
X187000000Y-61713589D01*
X187388176Y-61693246D01*
X187391416Y-61692733D01*
X187391424Y-61692732D01*
X187568207Y-61664732D01*
X187772099Y-61632438D01*
X188147562Y-61531833D01*
X188510453Y-61392532D01*
X188513393Y-61391034D01*
X188853854Y-61217561D01*
X188853861Y-61217557D01*
X188856795Y-61216062D01*
X189182793Y-61004357D01*
X189484876Y-60759734D01*
X189759734Y-60484876D01*
X190004357Y-60182793D01*
X190216062Y-59856794D01*
X190392532Y-59510453D01*
X190531833Y-59147562D01*
X190632438Y-58772099D01*
X190693246Y-58388176D01*
X190713589Y-58000000D01*
X190693246Y-57611824D01*
X190632438Y-57227901D01*
X190531833Y-56852438D01*
X190392532Y-56489547D01*
X190216062Y-56143206D01*
X190004357Y-55817207D01*
X189759734Y-55515124D01*
X189484876Y-55240266D01*
X189182793Y-54995643D01*
X188856795Y-54783938D01*
X188853861Y-54782443D01*
X188853854Y-54782439D01*
X188513393Y-54608966D01*
X188510453Y-54607468D01*
X188261139Y-54511765D01*
X188150652Y-54469353D01*
X188150650Y-54469352D01*
X188147562Y-54468167D01*
X187772099Y-54367562D01*
X187568207Y-54335268D01*
X187391424Y-54307268D01*
X187391416Y-54307267D01*
X187388176Y-54306754D01*
X187000000Y-54286411D01*
X186611824Y-54306754D01*
X186608584Y-54307267D01*
X186608576Y-54307268D01*
X186431793Y-54335268D01*
X186227901Y-54367562D01*
X185852438Y-54468167D01*
X185849350Y-54469352D01*
X185849348Y-54469353D01*
X185738861Y-54511765D01*
X185489547Y-54607468D01*
X185486607Y-54608966D01*
X185146147Y-54782439D01*
X185146140Y-54782443D01*
X185143206Y-54783938D01*
X184817207Y-54995643D01*
X184515124Y-55240266D01*
X184240266Y-55515124D01*
X183995643Y-55817207D01*
X183783938Y-56143206D01*
X183607468Y-56489547D01*
X183468167Y-56852438D01*
X183367562Y-57227901D01*
X183306754Y-57611824D01*
X183286411Y-58000000D01*
X110713589Y-58000000D01*
X110693246Y-57611824D01*
X110632438Y-57227901D01*
X110531833Y-56852438D01*
X110392532Y-56489547D01*
X110216062Y-56143206D01*
X110004357Y-55817207D01*
X109759734Y-55515124D01*
X109484876Y-55240266D01*
X109182793Y-54995643D01*
X108856795Y-54783938D01*
X108853861Y-54782443D01*
X108853854Y-54782439D01*
X108513393Y-54608966D01*
X108510453Y-54607468D01*
X108261139Y-54511765D01*
X108150652Y-54469353D01*
X108150650Y-54469352D01*
X108147562Y-54468167D01*
X107772099Y-54367562D01*
X107568207Y-54335268D01*
X107391424Y-54307268D01*
X107391416Y-54307267D01*
X107388176Y-54306754D01*
X107000000Y-54286411D01*
X106611824Y-54306754D01*
X106608584Y-54307267D01*
X106608576Y-54307268D01*
X106431793Y-54335268D01*
X106227901Y-54367562D01*
X105852438Y-54468167D01*
X105849350Y-54469352D01*
X105849348Y-54469353D01*
X105738861Y-54511765D01*
X105489547Y-54607468D01*
X105486607Y-54608966D01*
X105146147Y-54782439D01*
X105146140Y-54782443D01*
X105143206Y-54783938D01*
X104817207Y-54995643D01*
X104515124Y-55240266D01*
X104240266Y-55515124D01*
X103995643Y-55817207D01*
X103783938Y-56143206D01*
X103607468Y-56489547D01*
X103468167Y-56852438D01*
X103367562Y-57227901D01*
X103306754Y-57611824D01*
X103286411Y-58000000D01*
X97508500Y-58000000D01*
X97508500Y-52641474D01*
X116110172Y-52641474D01*
X116110347Y-52645926D01*
X116119280Y-52873275D01*
X116120505Y-52904462D01*
X116125406Y-52931295D01*
X116155907Y-53098303D01*
X116167790Y-53163371D01*
X116193464Y-53240326D01*
X116249025Y-53406861D01*
X116251084Y-53413034D01*
X116263027Y-53436935D01*
X116330450Y-53571869D01*
X116368725Y-53648470D01*
X116518365Y-53864982D01*
X116697020Y-54058249D01*
X116901123Y-54224415D01*
X116904931Y-54226708D01*
X116904933Y-54226709D01*
X117122788Y-54357868D01*
X117122792Y-54357870D01*
X117126604Y-54360165D01*
X117262526Y-54417721D01*
X117364859Y-54461054D01*
X117364864Y-54461056D01*
X117368962Y-54462791D01*
X117373260Y-54463930D01*
X117373264Y-54463932D01*
X117496162Y-54496518D01*
X117623362Y-54530244D01*
X117884729Y-54561179D01*
X118147847Y-54554978D01*
X118152245Y-54554246D01*
X118403076Y-54512496D01*
X118403080Y-54512495D01*
X118407466Y-54511765D01*
X118411707Y-54510424D01*
X118411710Y-54510423D01*
X118654161Y-54433746D01*
X118654163Y-54433745D01*
X118658407Y-54432403D01*
X118662418Y-54430477D01*
X118662423Y-54430475D01*
X118891643Y-54320405D01*
X118891644Y-54320404D01*
X118895662Y-54318475D01*
X119005687Y-54244958D01*
X119110789Y-54174732D01*
X119110793Y-54174729D01*
X119114497Y-54172254D01*
X119117814Y-54169283D01*
X119117818Y-54169280D01*
X119307229Y-53999629D01*
X119307230Y-53999628D01*
X119310547Y-53996657D01*
X119479898Y-53795189D01*
X119619174Y-53571869D01*
X119708676Y-53369419D01*
X119720971Y-53341608D01*
X119725593Y-53331152D01*
X119727218Y-53325392D01*
X119751209Y-53240326D01*
X119797034Y-53077843D01*
X119818067Y-52921249D01*
X119827955Y-52847633D01*
X119856848Y-52782781D01*
X119916215Y-52743845D01*
X119987209Y-52743186D01*
X120047288Y-52781013D01*
X120077380Y-52845317D01*
X120078737Y-52859457D01*
X120080505Y-52904462D01*
X120085406Y-52931295D01*
X120115907Y-53098303D01*
X120127790Y-53163371D01*
X120153464Y-53240326D01*
X120209025Y-53406861D01*
X120211084Y-53413034D01*
X120223027Y-53436935D01*
X120290450Y-53571869D01*
X120328725Y-53648470D01*
X120478365Y-53864982D01*
X120657020Y-54058249D01*
X120861123Y-54224415D01*
X120864931Y-54226708D01*
X120864933Y-54226709D01*
X121082788Y-54357868D01*
X121082792Y-54357870D01*
X121086604Y-54360165D01*
X121222526Y-54417721D01*
X121324859Y-54461054D01*
X121324864Y-54461056D01*
X121328962Y-54462791D01*
X121333260Y-54463930D01*
X121333264Y-54463932D01*
X121456162Y-54496518D01*
X121583362Y-54530244D01*
X121844729Y-54561179D01*
X122107847Y-54554978D01*
X122112245Y-54554246D01*
X122363076Y-54512496D01*
X122363080Y-54512495D01*
X122367466Y-54511765D01*
X122371707Y-54510424D01*
X122371710Y-54510423D01*
X122614161Y-54433746D01*
X122614163Y-54433745D01*
X122618407Y-54432403D01*
X122622418Y-54430477D01*
X122622423Y-54430475D01*
X122851643Y-54320405D01*
X122851644Y-54320404D01*
X122855662Y-54318475D01*
X122965687Y-54244958D01*
X123070789Y-54174732D01*
X123070793Y-54174729D01*
X123074497Y-54172254D01*
X123077814Y-54169283D01*
X123077818Y-54169280D01*
X123267229Y-53999629D01*
X123267230Y-53999628D01*
X123270547Y-53996657D01*
X123439898Y-53795189D01*
X123579174Y-53571869D01*
X123668676Y-53369419D01*
X123680971Y-53341608D01*
X123685593Y-53331152D01*
X123687218Y-53325392D01*
X123711209Y-53240326D01*
X123757034Y-53077843D01*
X123769195Y-52987306D01*
X123791643Y-52820176D01*
X123791644Y-52820168D01*
X123792070Y-52816994D01*
X123793452Y-52773022D01*
X123795646Y-52703222D01*
X123795646Y-52703217D01*
X123795747Y-52700000D01*
X123793778Y-52672183D01*
X123777474Y-52441915D01*
X123777159Y-52437466D01*
X123765667Y-52384085D01*
X123764324Y-52377846D01*
X158641500Y-52377846D01*
X158656548Y-52535566D01*
X158716092Y-52738534D01*
X158718836Y-52743861D01*
X158718836Y-52743862D01*
X158789619Y-52881295D01*
X158812942Y-52926580D01*
X158943604Y-53092920D01*
X158948135Y-53096852D01*
X158948138Y-53096855D01*
X159034058Y-53171412D01*
X159103363Y-53231552D01*
X159108549Y-53234552D01*
X159108553Y-53234555D01*
X159265571Y-53325392D01*
X159286454Y-53337473D01*
X159486271Y-53406861D01*
X159492206Y-53407722D01*
X159492208Y-53407722D01*
X159689664Y-53436352D01*
X159689667Y-53436352D01*
X159695604Y-53437213D01*
X159906899Y-53427433D01*
X160038077Y-53395819D01*
X160106701Y-53379281D01*
X160106703Y-53379280D01*
X160112534Y-53377875D01*
X160117992Y-53375393D01*
X160117996Y-53375392D01*
X160246168Y-53317115D01*
X160305087Y-53290326D01*
X160477611Y-53167946D01*
X160481753Y-53163619D01*
X160481759Y-53163614D01*
X160568806Y-53072683D01*
X160630361Y-53037306D01*
X160701270Y-53040825D01*
X160759021Y-53082121D01*
X160766965Y-53093504D01*
X160801522Y-53149348D01*
X160926697Y-53274305D01*
X160932927Y-53278145D01*
X160932928Y-53278146D01*
X161070090Y-53362694D01*
X161077262Y-53367115D01*
X161109703Y-53377875D01*
X161238611Y-53420632D01*
X161238613Y-53420632D01*
X161245139Y-53422797D01*
X161251975Y-53423497D01*
X161251978Y-53423498D01*
X161290386Y-53427433D01*
X161349600Y-53433500D01*
X162150400Y-53433500D01*
X162153646Y-53433163D01*
X162153650Y-53433163D01*
X162249308Y-53423238D01*
X162249312Y-53423237D01*
X162256166Y-53422526D01*
X162262702Y-53420345D01*
X162262704Y-53420345D01*
X162403900Y-53373238D01*
X162423946Y-53366550D01*
X162574348Y-53273478D01*
X162699305Y-53148303D01*
X162715881Y-53121412D01*
X162788275Y-53003968D01*
X162788276Y-53003966D01*
X162792115Y-52997738D01*
X162837980Y-52859460D01*
X162845632Y-52836389D01*
X162845632Y-52836387D01*
X162847797Y-52829861D01*
X162848790Y-52820176D01*
X162856610Y-52743845D01*
X162858500Y-52725400D01*
X162858500Y-52377846D01*
X165891500Y-52377846D01*
X165906548Y-52535566D01*
X165966092Y-52738534D01*
X165968836Y-52743861D01*
X165968836Y-52743862D01*
X166039619Y-52881295D01*
X166062942Y-52926580D01*
X166193604Y-53092920D01*
X166198135Y-53096852D01*
X166198138Y-53096855D01*
X166284058Y-53171412D01*
X166353363Y-53231552D01*
X166358549Y-53234552D01*
X166358553Y-53234555D01*
X166515571Y-53325392D01*
X166536454Y-53337473D01*
X166736271Y-53406861D01*
X166742206Y-53407722D01*
X166742208Y-53407722D01*
X166939664Y-53436352D01*
X166939667Y-53436352D01*
X166945604Y-53437213D01*
X167156899Y-53427433D01*
X167288077Y-53395819D01*
X167356701Y-53379281D01*
X167356703Y-53379280D01*
X167362534Y-53377875D01*
X167367992Y-53375393D01*
X167367996Y-53375392D01*
X167496168Y-53317115D01*
X167555087Y-53290326D01*
X167727611Y-53167946D01*
X167731753Y-53163619D01*
X167731759Y-53163614D01*
X167818806Y-53072683D01*
X167880361Y-53037306D01*
X167951270Y-53040825D01*
X168009021Y-53082121D01*
X168016965Y-53093504D01*
X168051522Y-53149348D01*
X168176697Y-53274305D01*
X168182927Y-53278145D01*
X168182928Y-53278146D01*
X168320090Y-53362694D01*
X168327262Y-53367115D01*
X168359703Y-53377875D01*
X168488611Y-53420632D01*
X168488613Y-53420632D01*
X168495139Y-53422797D01*
X168501975Y-53423497D01*
X168501978Y-53423498D01*
X168540386Y-53427433D01*
X168599600Y-53433500D01*
X169400400Y-53433500D01*
X169403646Y-53433163D01*
X169403650Y-53433163D01*
X169499308Y-53423238D01*
X169499312Y-53423237D01*
X169506166Y-53422526D01*
X169512702Y-53420345D01*
X169512704Y-53420345D01*
X169653900Y-53373238D01*
X169673946Y-53366550D01*
X169824348Y-53273478D01*
X169949305Y-53148303D01*
X169965881Y-53121412D01*
X170038275Y-53003968D01*
X170038276Y-53003966D01*
X170042115Y-52997738D01*
X170087980Y-52859460D01*
X170095632Y-52836389D01*
X170095632Y-52836387D01*
X170097797Y-52829861D01*
X170098790Y-52820176D01*
X170106610Y-52743845D01*
X170108500Y-52725400D01*
X170108500Y-52327846D01*
X173141500Y-52327846D01*
X173156548Y-52485566D01*
X173216092Y-52688534D01*
X173218836Y-52693861D01*
X173218836Y-52693862D01*
X173304125Y-52859460D01*
X173312942Y-52876580D01*
X173443604Y-53042920D01*
X173448135Y-53046852D01*
X173448138Y-53046855D01*
X173565047Y-53148303D01*
X173603363Y-53181552D01*
X173608549Y-53184552D01*
X173608553Y-53184555D01*
X173704957Y-53240326D01*
X173786454Y-53287473D01*
X173986271Y-53356861D01*
X173992206Y-53357722D01*
X173992208Y-53357722D01*
X174189664Y-53386352D01*
X174189667Y-53386352D01*
X174195604Y-53387213D01*
X174406899Y-53377433D01*
X174538077Y-53345819D01*
X174606701Y-53329281D01*
X174606703Y-53329280D01*
X174612534Y-53327875D01*
X174617992Y-53325393D01*
X174617996Y-53325392D01*
X174741727Y-53269134D01*
X174805087Y-53240326D01*
X174977611Y-53117946D01*
X174981753Y-53113619D01*
X174981759Y-53113614D01*
X175068806Y-53022683D01*
X175130361Y-52987306D01*
X175201270Y-52990825D01*
X175259021Y-53032121D01*
X175266965Y-53043504D01*
X175301522Y-53099348D01*
X175426697Y-53224305D01*
X175432927Y-53228145D01*
X175432928Y-53228146D01*
X175570090Y-53312694D01*
X175577262Y-53317115D01*
X175629577Y-53334467D01*
X175738611Y-53370632D01*
X175738613Y-53370632D01*
X175745139Y-53372797D01*
X175751975Y-53373497D01*
X175751978Y-53373498D01*
X175790386Y-53377433D01*
X175849600Y-53383500D01*
X176650400Y-53383500D01*
X176653646Y-53383163D01*
X176653650Y-53383163D01*
X176749308Y-53373238D01*
X176749312Y-53373237D01*
X176756166Y-53372526D01*
X176762702Y-53370345D01*
X176762704Y-53370345D01*
X176897443Y-53325392D01*
X176923946Y-53316550D01*
X177074348Y-53223478D01*
X177199305Y-53098303D01*
X177203146Y-53092072D01*
X177288275Y-52953968D01*
X177288276Y-52953966D01*
X177292115Y-52947738D01*
X177347797Y-52779861D01*
X177351486Y-52743862D01*
X177355649Y-52703222D01*
X177358500Y-52675400D01*
X177358500Y-51324600D01*
X177358163Y-51321350D01*
X177348238Y-51225692D01*
X177348237Y-51225688D01*
X177347526Y-51218834D01*
X177343749Y-51207511D01*
X177293868Y-51058002D01*
X177291550Y-51051054D01*
X177198478Y-50900652D01*
X177073303Y-50775695D01*
X177011025Y-50737306D01*
X176928968Y-50686725D01*
X176928966Y-50686724D01*
X176922738Y-50682885D01*
X176762254Y-50629655D01*
X176761389Y-50629368D01*
X176761387Y-50629368D01*
X176754861Y-50627203D01*
X176748025Y-50626503D01*
X176748022Y-50626502D01*
X176704969Y-50622091D01*
X176650400Y-50616500D01*
X175849600Y-50616500D01*
X175846354Y-50616837D01*
X175846350Y-50616837D01*
X175750692Y-50626762D01*
X175750688Y-50626763D01*
X175743834Y-50627474D01*
X175737298Y-50629655D01*
X175737296Y-50629655D01*
X175626859Y-50666500D01*
X175576054Y-50683450D01*
X175425652Y-50776522D01*
X175300695Y-50901697D01*
X175269875Y-50951697D01*
X175268926Y-50953236D01*
X175216154Y-51000729D01*
X175146082Y-51012153D01*
X175080958Y-50983879D01*
X175062582Y-50964955D01*
X175056396Y-50957080D01*
X175051865Y-50953148D01*
X175051862Y-50953145D01*
X174901167Y-50822379D01*
X174896637Y-50818448D01*
X174891451Y-50815448D01*
X174891447Y-50815445D01*
X174718742Y-50715533D01*
X174713546Y-50712527D01*
X174513729Y-50643139D01*
X174507794Y-50642278D01*
X174507792Y-50642278D01*
X174310336Y-50613648D01*
X174310333Y-50613648D01*
X174304396Y-50612787D01*
X174093101Y-50622567D01*
X173961923Y-50654181D01*
X173893299Y-50670719D01*
X173893297Y-50670720D01*
X173887466Y-50672125D01*
X173882008Y-50674607D01*
X173882004Y-50674608D01*
X173780590Y-50720719D01*
X173694913Y-50759674D01*
X173522389Y-50882054D01*
X173376119Y-51034850D01*
X173261380Y-51212548D01*
X173241550Y-51261752D01*
X173196072Y-51374600D01*
X173182314Y-51408737D01*
X173141772Y-51616337D01*
X173141500Y-51621899D01*
X173141500Y-52327846D01*
X170108500Y-52327846D01*
X170108500Y-51374600D01*
X170102975Y-51321350D01*
X170098238Y-51275692D01*
X170098237Y-51275688D01*
X170097526Y-51268834D01*
X170095164Y-51261752D01*
X170043868Y-51108002D01*
X170041550Y-51101054D01*
X169948478Y-50950652D01*
X169823303Y-50825695D01*
X169811546Y-50818448D01*
X169678968Y-50736725D01*
X169678966Y-50736724D01*
X169672738Y-50732885D01*
X169535321Y-50687306D01*
X169511389Y-50679368D01*
X169511387Y-50679368D01*
X169504861Y-50677203D01*
X169498025Y-50676503D01*
X169498022Y-50676502D01*
X169454969Y-50672091D01*
X169400400Y-50666500D01*
X168599600Y-50666500D01*
X168596354Y-50666837D01*
X168596350Y-50666837D01*
X168500692Y-50676762D01*
X168500688Y-50676763D01*
X168493834Y-50677474D01*
X168487298Y-50679655D01*
X168487296Y-50679655D01*
X168364213Y-50720719D01*
X168326054Y-50733450D01*
X168175652Y-50826522D01*
X168050695Y-50951697D01*
X168046855Y-50957927D01*
X168046854Y-50957928D01*
X168018926Y-51003236D01*
X167966154Y-51050729D01*
X167896082Y-51062153D01*
X167830958Y-51033879D01*
X167812582Y-51014955D01*
X167806396Y-51007080D01*
X167801865Y-51003148D01*
X167801862Y-51003145D01*
X167665198Y-50884554D01*
X167646637Y-50868448D01*
X167641451Y-50865448D01*
X167641447Y-50865445D01*
X167468742Y-50765533D01*
X167463546Y-50762527D01*
X167263729Y-50693139D01*
X167257794Y-50692278D01*
X167257792Y-50692278D01*
X167060336Y-50663648D01*
X167060333Y-50663648D01*
X167054396Y-50662787D01*
X166843101Y-50672567D01*
X166711923Y-50704181D01*
X166643299Y-50720719D01*
X166643297Y-50720720D01*
X166637466Y-50722125D01*
X166632008Y-50724607D01*
X166632004Y-50724608D01*
X166528093Y-50771854D01*
X166444913Y-50809674D01*
X166272389Y-50932054D01*
X166126119Y-51084850D01*
X166011380Y-51262548D01*
X166009137Y-51268114D01*
X165936034Y-51449507D01*
X165932314Y-51458737D01*
X165891772Y-51666337D01*
X165891500Y-51671899D01*
X165891500Y-52377846D01*
X162858500Y-52377846D01*
X162858500Y-51374600D01*
X162852975Y-51321350D01*
X162848238Y-51275692D01*
X162848237Y-51275688D01*
X162847526Y-51268834D01*
X162845164Y-51261752D01*
X162793868Y-51108002D01*
X162791550Y-51101054D01*
X162698478Y-50950652D01*
X162573303Y-50825695D01*
X162561546Y-50818448D01*
X162428968Y-50736725D01*
X162428966Y-50736724D01*
X162422738Y-50732885D01*
X162285321Y-50687306D01*
X162261389Y-50679368D01*
X162261387Y-50679368D01*
X162254861Y-50677203D01*
X162248025Y-50676503D01*
X162248022Y-50676502D01*
X162204969Y-50672091D01*
X162150400Y-50666500D01*
X161349600Y-50666500D01*
X161346354Y-50666837D01*
X161346350Y-50666837D01*
X161250692Y-50676762D01*
X161250688Y-50676763D01*
X161243834Y-50677474D01*
X161237298Y-50679655D01*
X161237296Y-50679655D01*
X161114213Y-50720719D01*
X161076054Y-50733450D01*
X160925652Y-50826522D01*
X160800695Y-50951697D01*
X160796855Y-50957927D01*
X160796854Y-50957928D01*
X160768926Y-51003236D01*
X160716154Y-51050729D01*
X160646082Y-51062153D01*
X160580958Y-51033879D01*
X160562582Y-51014955D01*
X160556396Y-51007080D01*
X160551865Y-51003148D01*
X160551862Y-51003145D01*
X160415198Y-50884554D01*
X160396637Y-50868448D01*
X160391451Y-50865448D01*
X160391447Y-50865445D01*
X160218742Y-50765533D01*
X160213546Y-50762527D01*
X160013729Y-50693139D01*
X160007794Y-50692278D01*
X160007792Y-50692278D01*
X159810336Y-50663648D01*
X159810333Y-50663648D01*
X159804396Y-50662787D01*
X159593101Y-50672567D01*
X159461923Y-50704181D01*
X159393299Y-50720719D01*
X159393297Y-50720720D01*
X159387466Y-50722125D01*
X159382008Y-50724607D01*
X159382004Y-50724608D01*
X159278093Y-50771854D01*
X159194913Y-50809674D01*
X159022389Y-50932054D01*
X158876119Y-51084850D01*
X158761380Y-51262548D01*
X158759137Y-51268114D01*
X158686034Y-51449507D01*
X158682314Y-51458737D01*
X158641772Y-51666337D01*
X158641500Y-51671899D01*
X158641500Y-52377846D01*
X123764324Y-52377846D01*
X123722701Y-52184523D01*
X123721764Y-52180171D01*
X123702718Y-52128543D01*
X123632210Y-51937424D01*
X123630669Y-51933247D01*
X123505691Y-51701622D01*
X123349324Y-51489918D01*
X123164687Y-51302358D01*
X123161147Y-51299657D01*
X123161141Y-51299651D01*
X122959006Y-51145386D01*
X122959002Y-51145383D01*
X122955465Y-51142684D01*
X122725832Y-51014084D01*
X122480370Y-50919122D01*
X122476045Y-50918119D01*
X122476040Y-50918118D01*
X122320448Y-50882054D01*
X122223976Y-50859693D01*
X121961767Y-50836983D01*
X121957332Y-50837227D01*
X121957328Y-50837227D01*
X121703416Y-50851200D01*
X121703409Y-50851201D01*
X121698973Y-50851445D01*
X121593731Y-50872379D01*
X121445211Y-50901921D01*
X121445206Y-50901922D01*
X121440839Y-50902791D01*
X121436636Y-50904267D01*
X121196723Y-50988518D01*
X121196720Y-50988519D01*
X121192515Y-50989996D01*
X121188562Y-50992049D01*
X121188556Y-50992052D01*
X121108037Y-51033879D01*
X120958956Y-51111321D01*
X120955341Y-51113904D01*
X120955335Y-51113908D01*
X120875533Y-51170936D01*
X120744822Y-51264344D01*
X120741595Y-51267422D01*
X120741593Y-51267424D01*
X120625820Y-51377866D01*
X120554385Y-51446011D01*
X120391445Y-51652700D01*
X120363029Y-51701622D01*
X120261487Y-51876438D01*
X120261484Y-51876444D01*
X120259253Y-51880285D01*
X120160447Y-52124225D01*
X120096998Y-52379654D01*
X120096544Y-52384085D01*
X120077375Y-52571170D01*
X120050533Y-52636897D01*
X119992418Y-52677679D01*
X119921481Y-52680567D01*
X119860242Y-52644645D01*
X119828146Y-52581318D01*
X119826346Y-52567226D01*
X119824105Y-52535566D01*
X119817159Y-52437466D01*
X119805667Y-52384085D01*
X119762701Y-52184523D01*
X119761764Y-52180171D01*
X119742718Y-52128543D01*
X119672210Y-51937424D01*
X119670669Y-51933247D01*
X119545691Y-51701622D01*
X119389324Y-51489918D01*
X119204687Y-51302358D01*
X119201147Y-51299657D01*
X119201141Y-51299651D01*
X118999006Y-51145386D01*
X118999002Y-51145383D01*
X118995465Y-51142684D01*
X118765832Y-51014084D01*
X118520370Y-50919122D01*
X118516045Y-50918119D01*
X118516040Y-50918118D01*
X118360448Y-50882054D01*
X118263976Y-50859693D01*
X118001767Y-50836983D01*
X117997332Y-50837227D01*
X117997328Y-50837227D01*
X117743416Y-50851200D01*
X117743409Y-50851201D01*
X117738973Y-50851445D01*
X117633731Y-50872379D01*
X117485211Y-50901921D01*
X117485206Y-50901922D01*
X117480839Y-50902791D01*
X117476636Y-50904267D01*
X117236723Y-50988518D01*
X117236720Y-50988519D01*
X117232515Y-50989996D01*
X117228562Y-50992049D01*
X117228556Y-50992052D01*
X117148037Y-51033879D01*
X116998956Y-51111321D01*
X116995341Y-51113904D01*
X116995335Y-51113908D01*
X116915533Y-51170936D01*
X116784822Y-51264344D01*
X116781595Y-51267422D01*
X116781593Y-51267424D01*
X116665820Y-51377866D01*
X116594385Y-51446011D01*
X116431445Y-51652700D01*
X116403029Y-51701622D01*
X116301487Y-51876438D01*
X116301484Y-51876444D01*
X116299253Y-51880285D01*
X116200447Y-52124225D01*
X116136998Y-52379654D01*
X116110172Y-52641474D01*
X97508500Y-52641474D01*
X97508500Y-48634500D01*
X97528502Y-48566379D01*
X97582158Y-48519886D01*
X97634500Y-48508500D01*
X196365500Y-48508500D01*
X196433621Y-48528502D01*
G37*
G04 #@! TD.AperFunction*
M02*
