G04 #@! TF.GenerationSoftware,KiCad,Pcbnew,(6.0.10)*
G04 #@! TF.CreationDate,2023-01-16T22:36:07-05:00*
G04 #@! TF.ProjectId,Three-Half-Bridges,54687265-652d-4486-916c-662d42726964,rev?*
G04 #@! TF.SameCoordinates,Original*
G04 #@! TF.FileFunction,Paste,Bot*
G04 #@! TF.FilePolarity,Positive*
%FSLAX46Y46*%
G04 Gerber Fmt 4.6, Leading zero omitted, Abs format (unit mm)*
G04 Created by KiCad (PCBNEW (6.0.10)) date 2023-01-16 22:36:07*
%MOMM*%
%LPD*%
G01*
G04 APERTURE LIST*
G04 Aperture macros list*
%AMRoundRect*
0 Rectangle with rounded corners*
0 $1 Rounding radius*
0 $2 $3 $4 $5 $6 $7 $8 $9 X,Y pos of 4 corners*
0 Add a 4 corners polygon primitive as box body*
4,1,4,$2,$3,$4,$5,$6,$7,$8,$9,$2,$3,0*
0 Add four circle primitives for the rounded corners*
1,1,$1+$1,$2,$3*
1,1,$1+$1,$4,$5*
1,1,$1+$1,$6,$7*
1,1,$1+$1,$8,$9*
0 Add four rect primitives between the rounded corners*
20,1,$1+$1,$2,$3,$4,$5,0*
20,1,$1+$1,$4,$5,$6,$7,0*
20,1,$1+$1,$6,$7,$8,$9,0*
20,1,$1+$1,$8,$9,$2,$3,0*%
G04 Aperture macros list end*
%ADD10RoundRect,0.250000X0.262500X0.450000X-0.262500X0.450000X-0.262500X-0.450000X0.262500X-0.450000X0*%
%ADD11RoundRect,0.150000X-0.512500X-0.150000X0.512500X-0.150000X0.512500X0.150000X-0.512500X0.150000X0*%
%ADD12RoundRect,0.250000X-0.262500X-0.450000X0.262500X-0.450000X0.262500X0.450000X-0.262500X0.450000X0*%
%ADD13RoundRect,0.225000X0.250000X-0.225000X0.250000X0.225000X-0.250000X0.225000X-0.250000X-0.225000X0*%
%ADD14RoundRect,0.500000X-0.500000X0.500000X-0.500000X-0.500000X0.500000X-0.500000X0.500000X0.500000X0*%
%ADD15RoundRect,0.225000X-0.250000X0.225000X-0.250000X-0.225000X0.250000X-0.225000X0.250000X0.225000X0*%
%ADD16RoundRect,0.150000X0.512500X0.150000X-0.512500X0.150000X-0.512500X-0.150000X0.512500X-0.150000X0*%
%ADD17R,2.500000X1.800000*%
%ADD18RoundRect,0.500000X0.500000X-0.500000X0.500000X0.500000X-0.500000X0.500000X-0.500000X-0.500000X0*%
%ADD19RoundRect,0.249999X0.450001X1.425001X-0.450001X1.425001X-0.450001X-1.425001X0.450001X-1.425001X0*%
%ADD20RoundRect,0.249999X-0.450001X-1.425001X0.450001X-1.425001X0.450001X1.425001X-0.450001X1.425001X0*%
%ADD21RoundRect,0.250000X1.100000X-0.325000X1.100000X0.325000X-1.100000X0.325000X-1.100000X-0.325000X0*%
G04 APERTURE END LIST*
D10*
X162912500Y-82000000D03*
X161087500Y-82000000D03*
D11*
X160862500Y-87450000D03*
X160862500Y-86500000D03*
X160862500Y-85550000D03*
X163137500Y-85550000D03*
X163137500Y-87450000D03*
D12*
X172087500Y-112500000D03*
X173912500Y-112500000D03*
D13*
X135000000Y-110050000D03*
X135000000Y-108500000D03*
X154000000Y-110050000D03*
X154000000Y-108500000D03*
D12*
X166587500Y-112500000D03*
X168412500Y-112500000D03*
X147587500Y-112500000D03*
X149412500Y-112500000D03*
D13*
X155500000Y-110050000D03*
X155500000Y-108500000D03*
D10*
X166912500Y-82000000D03*
X165087500Y-82000000D03*
D14*
X145730000Y-54190000D03*
X148270000Y-54190000D03*
X148270000Y-61810000D03*
X145730000Y-61810000D03*
D10*
X144000000Y-82000000D03*
X142175000Y-82000000D03*
D15*
X159000000Y-85950000D03*
X159000000Y-87500000D03*
D13*
X173000000Y-110050000D03*
X173000000Y-108500000D03*
D16*
X171137500Y-108550000D03*
X171137500Y-109500000D03*
X171137500Y-110450000D03*
X168862500Y-110450000D03*
X168862500Y-108550000D03*
D17*
X138250000Y-82500000D03*
X134250000Y-82500000D03*
D18*
X142270000Y-141310000D03*
X139730000Y-141310000D03*
X139730000Y-133690000D03*
X142270000Y-133690000D03*
X154270000Y-141310000D03*
X151730000Y-141310000D03*
X151730000Y-133690000D03*
X154270000Y-133690000D03*
D19*
X133550000Y-86500000D03*
X127450000Y-86500000D03*
D13*
X138000000Y-110050000D03*
X138000000Y-108500000D03*
D20*
X122450000Y-109500000D03*
X128550000Y-109500000D03*
D12*
X153087500Y-112500000D03*
X154912500Y-112500000D03*
D15*
X119500000Y-85950000D03*
X119500000Y-87500000D03*
D14*
X139730000Y-54190000D03*
X142270000Y-54190000D03*
X142270000Y-61810000D03*
X139730000Y-61810000D03*
D13*
X174500000Y-110050000D03*
X174500000Y-108500000D03*
D19*
X152550000Y-86500000D03*
X146450000Y-86500000D03*
D13*
X136500000Y-110050000D03*
X136500000Y-108500000D03*
D17*
X119250000Y-82500000D03*
X115250000Y-82500000D03*
D12*
X128087500Y-112500000D03*
X129912500Y-112500000D03*
D16*
X152137500Y-108550000D03*
X152137500Y-109500000D03*
X152137500Y-110450000D03*
X149862500Y-110450000D03*
X149862500Y-108550000D03*
D15*
X137000000Y-85950000D03*
X137000000Y-87500000D03*
D11*
X141862500Y-87450000D03*
X141862500Y-86500000D03*
X141862500Y-85550000D03*
X144137500Y-85550000D03*
X144137500Y-87450000D03*
D21*
X132000000Y-99475000D03*
X132000000Y-96525000D03*
X170000000Y-99475000D03*
X170000000Y-96525000D03*
D18*
X148270000Y-141310000D03*
X145730000Y-141310000D03*
X145730000Y-133690000D03*
X148270000Y-133690000D03*
D15*
X140000000Y-85950000D03*
X140000000Y-87500000D03*
D11*
X122862500Y-87450000D03*
X122862500Y-86500000D03*
X122862500Y-85550000D03*
X125137500Y-85550000D03*
X125137500Y-87450000D03*
D15*
X121000000Y-85950000D03*
X121000000Y-87500000D03*
X138500000Y-85950000D03*
X138500000Y-87500000D03*
X118000000Y-85950000D03*
X118000000Y-87500000D03*
D10*
X147912500Y-82000000D03*
X146087500Y-82000000D03*
D17*
X157250000Y-82500000D03*
X153250000Y-82500000D03*
D13*
X157000000Y-110050000D03*
X157000000Y-108500000D03*
D15*
X157500000Y-85950000D03*
X157500000Y-87500000D03*
D19*
X171550000Y-86500000D03*
X165450000Y-86500000D03*
D13*
X176000000Y-110050000D03*
X176000000Y-108500000D03*
D10*
X124912500Y-82000000D03*
X123087500Y-82000000D03*
D16*
X133137500Y-108550000D03*
X133137500Y-109500000D03*
X133137500Y-110450000D03*
X130862500Y-110450000D03*
X130862500Y-108550000D03*
D12*
X134087500Y-112500000D03*
X135912500Y-112500000D03*
D14*
X151730000Y-54190000D03*
X154270000Y-54190000D03*
X154270000Y-61810000D03*
X151730000Y-61810000D03*
D20*
X141450000Y-109500000D03*
X147550000Y-109500000D03*
D15*
X156000000Y-85950000D03*
X156000000Y-87500000D03*
D21*
X151000000Y-99475000D03*
X151000000Y-96525000D03*
D10*
X129000000Y-82000000D03*
X127175000Y-82000000D03*
D20*
X160450000Y-109500000D03*
X166550000Y-109500000D03*
M02*
