G04 #@! TF.GenerationSoftware,KiCad,Pcbnew,8.0.6-1.fc41*
G04 #@! TF.CreationDate,2024-11-09T21:04:43-05:00*
G04 #@! TF.ProjectId,three_half_bridges,74687265-655f-4686-916c-665f62726964,rev?*
G04 #@! TF.SameCoordinates,Original*
G04 #@! TF.FileFunction,Soldermask,Top*
G04 #@! TF.FilePolarity,Negative*
%FSLAX46Y46*%
G04 Gerber Fmt 4.6, Leading zero omitted, Abs format (unit mm)*
G04 Created by KiCad (PCBNEW 8.0.6-1.fc41) date 2024-11-09 21:04:43*
%MOMM*%
%LPD*%
G01*
G04 APERTURE LIST*
G04 Aperture macros list*
%AMRoundRect*
0 Rectangle with rounded corners*
0 $1 Rounding radius*
0 $2 $3 $4 $5 $6 $7 $8 $9 X,Y pos of 4 corners*
0 Add a 4 corners polygon primitive as box body*
4,1,4,$2,$3,$4,$5,$6,$7,$8,$9,$2,$3,0*
0 Add four circle primitives for the rounded corners*
1,1,$1+$1,$2,$3*
1,1,$1+$1,$4,$5*
1,1,$1+$1,$6,$7*
1,1,$1+$1,$8,$9*
0 Add four rect primitives between the rounded corners*
20,1,$1+$1,$2,$3,$4,$5,0*
20,1,$1+$1,$4,$5,$6,$7,0*
20,1,$1+$1,$6,$7,$8,$9,0*
20,1,$1+$1,$8,$9,$2,$3,0*%
%AMFreePoly0*
4,1,21,3.898562,0.902562,3.913500,0.866500,3.913500,-0.866500,3.898562,-0.902562,3.862500,-0.917500,0.737500,-0.917500,0.701438,-0.902562,0.686500,-0.866500,0.686500,-0.501000,-0.737500,-0.501000,-0.773562,-0.486062,-0.788500,-0.450000,-0.788500,0.450000,-0.773562,0.486062,-0.737500,0.501000,0.686500,0.501000,0.686500,0.866500,0.701438,0.902562,0.737500,0.917500,3.862500,0.917500,
3.898562,0.902562,3.898562,0.902562,$1*%
G04 Aperture macros list end*
%ADD10C,0.100000*%
%ADD11RoundRect,0.272666X-0.340834X-0.653334X0.340834X-0.653334X0.340834X0.653334X-0.340834X0.653334X0*%
%ADD12RoundRect,0.225500X-0.225500X-0.300500X0.225500X-0.300500X0.225500X0.300500X-0.225500X0.300500X0*%
%ADD13RoundRect,0.250500X-0.275500X0.250500X-0.275500X-0.250500X0.275500X-0.250500X0.275500X0.250500X0*%
%ADD14RoundRect,0.272666X0.340834X0.653334X-0.340834X0.653334X-0.340834X-0.653334X0.340834X-0.653334X0*%
%ADD15RoundRect,0.244250X-0.281750X0.244250X-0.281750X-0.244250X0.281750X-0.244250X0.281750X0.244250X0*%
%ADD16RoundRect,0.051000X0.545000X-0.915000X0.545000X0.915000X-0.545000X0.915000X-0.545000X-0.915000X0*%
%ADD17RoundRect,0.059600X0.536400X-0.906400X0.536400X0.906400X-0.536400X0.906400X-0.536400X-0.906400X0*%
%ADD18RoundRect,0.250500X0.250500X-0.450500X0.250500X0.450500X-0.250500X0.450500X-0.250500X-0.450500X0*%
%ADD19FreePoly0,90.000000*%
%ADD20RoundRect,0.244250X0.244250X0.281750X-0.244250X0.281750X-0.244250X-0.281750X0.244250X-0.281750X0*%
%ADD21RoundRect,0.250500X0.275500X-0.250500X0.275500X0.250500X-0.275500X0.250500X-0.275500X-0.250500X0*%
%ADD22C,0.902000*%
%ADD23C,6.502000*%
%ADD24C,3.302000*%
%ADD25RoundRect,0.225500X0.225500X0.300500X-0.225500X0.300500X-0.225500X-0.300500X0.225500X-0.300500X0*%
%ADD26RoundRect,0.250500X0.450500X0.250500X-0.450500X0.250500X-0.450500X-0.250500X0.450500X-0.250500X0*%
%ADD27FreePoly0,180.000000*%
%ADD28RoundRect,0.250500X0.250500X0.275500X-0.250500X0.275500X-0.250500X-0.275500X0.250500X-0.275500X0*%
%ADD29RoundRect,0.268214X1.482786X-0.482786X1.482786X0.482786X-1.482786X0.482786X-1.482786X-0.482786X0*%
%ADD30RoundRect,0.244250X0.281750X-0.244250X0.281750X0.244250X-0.281750X0.244250X-0.281750X-0.244250X0*%
%ADD31C,1.002000*%
%ADD32C,11.102000*%
%ADD33RoundRect,0.250500X-0.250500X-0.275500X0.250500X-0.275500X0.250500X0.275500X-0.250500X0.275500X0*%
%ADD34RoundRect,0.175500X0.750500X0.175500X-0.750500X0.175500X-0.750500X-0.175500X0.750500X-0.175500X0*%
%ADD35RoundRect,0.225500X0.300500X-0.225500X0.300500X0.225500X-0.300500X0.225500X-0.300500X-0.225500X0*%
%ADD36RoundRect,0.175500X-0.750500X-0.175500X0.750500X-0.175500X0.750500X0.175500X-0.750500X0.175500X0*%
%ADD37RoundRect,0.250500X-0.450500X-0.250500X0.450500X-0.250500X0.450500X0.250500X-0.450500X0.250500X0*%
%ADD38FreePoly0,0.000000*%
%ADD39RoundRect,0.268214X-0.832786X0.482786X-0.832786X-0.482786X0.832786X-0.482786X0.832786X0.482786X0*%
%ADD40RoundRect,0.175500X0.850500X0.175500X-0.850500X0.175500X-0.850500X-0.175500X0.850500X-0.175500X0*%
%ADD41RoundRect,0.175500X-0.850500X-0.175500X0.850500X-0.175500X0.850500X0.175500X-0.850500X0.175500X0*%
%ADD42RoundRect,0.175500X0.175500X-0.538000X0.175500X0.538000X-0.175500X0.538000X-0.175500X-0.538000X0*%
%ADD43RoundRect,0.275500X-0.275500X-0.500500X0.275500X-0.500500X0.275500X0.500500X-0.275500X0.500500X0*%
%ADD44RoundRect,0.051000X1.250000X2.250000X-1.250000X2.250000X-1.250000X-2.250000X1.250000X-2.250000X0*%
%ADD45O,2.602000X4.602000*%
%ADD46RoundRect,0.051000X-1.250000X-2.250000X1.250000X-2.250000X1.250000X2.250000X-1.250000X2.250000X0*%
%ADD47RoundRect,0.225500X-0.475500X0.225500X-0.475500X-0.225500X0.475500X-0.225500X0.475500X0.225500X0*%
%ADD48O,1.402000X0.902000*%
G04 APERTURE END LIST*
D10*
X152750000Y-52000000D02*
X154500000Y-54250000D01*
X154500000Y-72000000D01*
X150500000Y-72000000D01*
X150500000Y-50500000D01*
X152750000Y-50500000D01*
X152750000Y-52000000D01*
G36*
X152750000Y-52000000D02*
G01*
X154500000Y-54250000D01*
X154500000Y-72000000D01*
X150500000Y-72000000D01*
X150500000Y-50500000D01*
X152750000Y-50500000D01*
X152750000Y-52000000D01*
G37*
X134125000Y-50500000D02*
X136875000Y-50500000D01*
X136875000Y-72000000D01*
X134125000Y-72000000D01*
X134125000Y-50500000D01*
G36*
X134125000Y-50500000D02*
G01*
X136875000Y-50500000D01*
X136875000Y-72000000D01*
X134125000Y-72000000D01*
X134125000Y-50500000D01*
G37*
X117625000Y-50750000D02*
X120375000Y-50750000D01*
X120375000Y-72250000D01*
X117625000Y-72250000D01*
X117625000Y-50750000D01*
G36*
X117625000Y-50750000D02*
G01*
X120375000Y-50750000D01*
X120375000Y-72250000D01*
X117625000Y-72250000D01*
X117625000Y-50750000D01*
G37*
D11*
X139287500Y-62000000D03*
X142212500Y-62000000D03*
D12*
X124675000Y-55250000D03*
X126325000Y-55250000D03*
D13*
X115500000Y-124475000D03*
X115500000Y-126025000D03*
D14*
X135462500Y-97500000D03*
X132537500Y-97500000D03*
D13*
X90750000Y-66725000D03*
X90750000Y-68275000D03*
D15*
X141250000Y-58212500D03*
X141250000Y-59787500D03*
D16*
X118460000Y-127620000D03*
D17*
X121000000Y-127620000D03*
X123540000Y-127620000D03*
X123540000Y-116380000D03*
X121000000Y-116380000D03*
X118460000Y-116380000D03*
D18*
X82000000Y-105200000D03*
D19*
X83500000Y-105112500D03*
D18*
X85000000Y-105200000D03*
D20*
X129787500Y-54500000D03*
X128212500Y-54500000D03*
D16*
X136460000Y-127620000D03*
D17*
X139000000Y-127620000D03*
X141540000Y-127620000D03*
X141540000Y-116380000D03*
X139000000Y-116380000D03*
X136460000Y-116380000D03*
D21*
X109750000Y-59775000D03*
X109750000Y-58225000D03*
D22*
X171600000Y-124000000D03*
X172302944Y-122302944D03*
X172302944Y-125697056D03*
X174000000Y-121600000D03*
D23*
X174000000Y-124000000D03*
D22*
X174000000Y-126400000D03*
X175697056Y-122302944D03*
X175697056Y-125697056D03*
X176400000Y-124000000D03*
D24*
X126000000Y-32000000D03*
X126000000Y-40000000D03*
X134000000Y-32000000D03*
X134000000Y-40000000D03*
D25*
X141575000Y-101500000D03*
X139925000Y-101500000D03*
D26*
X102200000Y-121000000D03*
D27*
X102112500Y-119500000D03*
D26*
X102200000Y-118000000D03*
D21*
X126250000Y-59775000D03*
X126250000Y-58225000D03*
D28*
X143775000Y-52000000D03*
X142225000Y-52000000D03*
D12*
X89825000Y-83500000D03*
X91475000Y-83500000D03*
D29*
X124750000Y-86050000D03*
X124750000Y-81950000D03*
D30*
X113250000Y-101537500D03*
X113250000Y-99962500D03*
X146250000Y-101537500D03*
X146250000Y-99962500D03*
D31*
X155875000Y-110000000D03*
X157073185Y-107073185D03*
X157073185Y-112926815D03*
X160000000Y-105875000D03*
D32*
X160000000Y-110000000D03*
D31*
X160000000Y-114125000D03*
X162926815Y-107073185D03*
X162926815Y-112926815D03*
X164125000Y-110000000D03*
D25*
X125325000Y-101500000D03*
X123675000Y-101500000D03*
D12*
X124675000Y-56750000D03*
X126325000Y-56750000D03*
X89975000Y-71250000D03*
X91625000Y-71250000D03*
D11*
X122787500Y-62000000D03*
X125712500Y-62000000D03*
D33*
X100975000Y-87750000D03*
X102525000Y-87750000D03*
D12*
X89825000Y-99300000D03*
X91475000Y-99300000D03*
D31*
X95875000Y-50000000D03*
X97073185Y-47073185D03*
X97073185Y-52926815D03*
X100000000Y-45875000D03*
D32*
X100000000Y-50000000D03*
D31*
X100000000Y-54125000D03*
X102926815Y-47073185D03*
X102926815Y-52926815D03*
X104125000Y-50000000D03*
D22*
X171600000Y-36000000D03*
X172302944Y-34302944D03*
X172302944Y-37697056D03*
X174000000Y-33600000D03*
D23*
X174000000Y-36000000D03*
D22*
X174000000Y-38400000D03*
X175697056Y-34302944D03*
X175697056Y-37697056D03*
X176400000Y-36000000D03*
D34*
X132825000Y-65405000D03*
X132825000Y-64135000D03*
X132825000Y-62865000D03*
X132825000Y-61595000D03*
X127675000Y-61595000D03*
X127675000Y-62865000D03*
X127675000Y-64135000D03*
X127675000Y-65405000D03*
D15*
X124750000Y-58212500D03*
X124750000Y-59787500D03*
D35*
X100750000Y-99375000D03*
X100750000Y-97725000D03*
D28*
X111025000Y-52000000D03*
X109475000Y-52000000D03*
D21*
X142750000Y-59775000D03*
X142750000Y-58225000D03*
D12*
X89925000Y-78250000D03*
X91575000Y-78250000D03*
D24*
X142500000Y-32000000D03*
X142500000Y-40000000D03*
X150500000Y-32000000D03*
X150500000Y-40000000D03*
D36*
X108425000Y-94595000D03*
X108425000Y-95865000D03*
X108425000Y-97135000D03*
X108425000Y-98405000D03*
X113575000Y-98405000D03*
X113575000Y-97135000D03*
X113575000Y-95865000D03*
X113575000Y-94595000D03*
D37*
X144500000Y-56500000D03*
D38*
X144587500Y-58000000D03*
D37*
X144500000Y-59500000D03*
D39*
X146500000Y-81800000D03*
X146500000Y-86200000D03*
D24*
X109500000Y-32000000D03*
X109500000Y-40000000D03*
X117500000Y-32000000D03*
X117500000Y-40000000D03*
D40*
X118725000Y-51905000D03*
X118725000Y-50635000D03*
X118725000Y-49365000D03*
X118725000Y-48095000D03*
X113775000Y-48095000D03*
X113775000Y-49365000D03*
X113775000Y-50635000D03*
X113775000Y-51905000D03*
D31*
X96000000Y-110000000D03*
X97198185Y-107073185D03*
X97198185Y-112926815D03*
X100125000Y-105875000D03*
D32*
X100125000Y-110000000D03*
D31*
X100125000Y-114125000D03*
X103051815Y-107073185D03*
X103051815Y-112926815D03*
X104250000Y-110000000D03*
D25*
X108825000Y-101500000D03*
X107175000Y-101500000D03*
D39*
X135500000Y-73800000D03*
X135500000Y-78200000D03*
D14*
X151962500Y-97500000D03*
X149037500Y-97500000D03*
D41*
X93525000Y-80895000D03*
X93525000Y-82165000D03*
X93525000Y-83435000D03*
X93525000Y-84705000D03*
X98475000Y-84705000D03*
X98475000Y-83435000D03*
X98475000Y-82165000D03*
X98475000Y-80895000D03*
D12*
X95425000Y-121250000D03*
X97075000Y-121250000D03*
D20*
X146287500Y-54500000D03*
X144712500Y-54500000D03*
D33*
X100975000Y-94750000D03*
X102525000Y-94750000D03*
D29*
X108250000Y-86050000D03*
X108250000Y-81950000D03*
D41*
X93525000Y-67095000D03*
X93525000Y-68365000D03*
X93525000Y-69635000D03*
X93525000Y-70905000D03*
X98475000Y-70905000D03*
X98475000Y-69635000D03*
X98475000Y-68365000D03*
X98475000Y-67095000D03*
D13*
X90650000Y-87525000D03*
X90650000Y-89075000D03*
D30*
X129750000Y-101537500D03*
X129750000Y-99962500D03*
D35*
X100750000Y-78575000D03*
X100750000Y-76925000D03*
D26*
X113700000Y-125750000D03*
D27*
X113612500Y-124250000D03*
D26*
X113700000Y-122750000D03*
D41*
X93525000Y-74095000D03*
X93525000Y-75365000D03*
X93525000Y-76635000D03*
X93525000Y-77905000D03*
X98475000Y-77905000D03*
X98475000Y-76635000D03*
X98475000Y-75365000D03*
X98475000Y-74095000D03*
D20*
X108787500Y-100000000D03*
X107212500Y-100000000D03*
D12*
X108175000Y-55250000D03*
X109825000Y-55250000D03*
D20*
X125287500Y-100000000D03*
X123712500Y-100000000D03*
D37*
X111500000Y-56610000D03*
D38*
X111587500Y-58110000D03*
D37*
X111500000Y-59610000D03*
D33*
X110225000Y-100000000D03*
X111775000Y-100000000D03*
D11*
X139287500Y-64250000D03*
X142212500Y-64250000D03*
D41*
X93525000Y-60095000D03*
X93525000Y-61365000D03*
X93525000Y-62635000D03*
X93525000Y-63905000D03*
X98475000Y-63905000D03*
X98475000Y-62635000D03*
X98475000Y-61365000D03*
X98475000Y-60095000D03*
D13*
X100750000Y-66975000D03*
X100750000Y-68525000D03*
D39*
X113500000Y-81800000D03*
X113500000Y-86200000D03*
D15*
X108250000Y-58212500D03*
X108250000Y-59787500D03*
D25*
X128325000Y-101500000D03*
X126675000Y-101500000D03*
D12*
X89925000Y-64250000D03*
X91575000Y-64250000D03*
D35*
X100750000Y-92375000D03*
X100750000Y-90725000D03*
D12*
X89925000Y-76750000D03*
X91575000Y-76750000D03*
D28*
X127275000Y-50500000D03*
X125725000Y-50500000D03*
X111025000Y-49000000D03*
X109475000Y-49000000D03*
D12*
X89825000Y-97600000D03*
X91475000Y-97600000D03*
X89975000Y-69750000D03*
X91625000Y-69750000D03*
D34*
X116325000Y-65405000D03*
X116325000Y-64135000D03*
X116325000Y-62865000D03*
X116325000Y-61595000D03*
X111175000Y-61595000D03*
X111175000Y-62865000D03*
X111175000Y-64135000D03*
X111175000Y-65405000D03*
D13*
X107500000Y-119475000D03*
X107500000Y-121025000D03*
D25*
X144575000Y-101500000D03*
X142925000Y-101500000D03*
D36*
X124925000Y-94595000D03*
X124925000Y-95865000D03*
X124925000Y-97135000D03*
X124925000Y-98405000D03*
X130075000Y-98405000D03*
X130075000Y-97135000D03*
X130075000Y-95865000D03*
X130075000Y-94595000D03*
D29*
X146500000Y-78050000D03*
X146500000Y-73950000D03*
D25*
X111825000Y-101500000D03*
X110175000Y-101500000D03*
D22*
X83652944Y-124000000D03*
X84355888Y-122302944D03*
X84355888Y-125697056D03*
X86052944Y-121600000D03*
D23*
X86052944Y-124000000D03*
D22*
X86052944Y-126400000D03*
X87750000Y-122302944D03*
X87750000Y-125697056D03*
X88452944Y-124000000D03*
D14*
X118962500Y-97500000D03*
X116037500Y-97500000D03*
D40*
X151475000Y-51905000D03*
X151475000Y-50635000D03*
X151475000Y-49365000D03*
X151475000Y-48095000D03*
X146525000Y-48095000D03*
X146525000Y-49365000D03*
X146525000Y-50635000D03*
X146525000Y-51905000D03*
D24*
X170250000Y-68500000D03*
X170250000Y-76500000D03*
X178250000Y-68500000D03*
X178250000Y-76500000D03*
D12*
X95425000Y-126500000D03*
X97075000Y-126500000D03*
D26*
X102200000Y-126250000D03*
D27*
X102112500Y-124750000D03*
D26*
X102200000Y-123250000D03*
D13*
X90650000Y-80475000D03*
X90650000Y-82025000D03*
D14*
X118962500Y-95000000D03*
X116037500Y-95000000D03*
D33*
X100975000Y-80750000D03*
X102525000Y-80750000D03*
D11*
X122787500Y-64250000D03*
X125712500Y-64250000D03*
D20*
X113037500Y-54500000D03*
X111462500Y-54500000D03*
D34*
X149325000Y-65405000D03*
X149325000Y-64135000D03*
X149325000Y-62865000D03*
X149325000Y-61595000D03*
X144175000Y-61595000D03*
X144175000Y-62865000D03*
X144175000Y-64135000D03*
X144175000Y-65405000D03*
D35*
X100750000Y-85375000D03*
X100750000Y-83725000D03*
D13*
X100600000Y-59975000D03*
X100600000Y-61525000D03*
X90700000Y-94525000D03*
X90700000Y-96075000D03*
D36*
X141425000Y-94595000D03*
X141425000Y-95865000D03*
X141425000Y-97135000D03*
X141425000Y-98405000D03*
X146575000Y-98405000D03*
X146575000Y-97135000D03*
X146575000Y-95865000D03*
X146575000Y-94595000D03*
D28*
X143775000Y-50500000D03*
X142225000Y-50500000D03*
X111025000Y-50500000D03*
X109475000Y-50500000D03*
D40*
X134975000Y-51905000D03*
X134975000Y-50635000D03*
X134975000Y-49365000D03*
X134975000Y-48095000D03*
X130025000Y-48095000D03*
X130025000Y-49365000D03*
X130025000Y-50635000D03*
X130025000Y-51905000D03*
D13*
X90800000Y-59725000D03*
X90800000Y-61275000D03*
D39*
X152000000Y-73800000D03*
X152000000Y-78200000D03*
D29*
X141250000Y-86050000D03*
X141250000Y-81950000D03*
X130000000Y-78050000D03*
X130000000Y-73950000D03*
D12*
X89825000Y-85000000D03*
X91475000Y-85000000D03*
D33*
X126725000Y-100000000D03*
X128275000Y-100000000D03*
D14*
X151962500Y-95000000D03*
X149037500Y-95000000D03*
D12*
X108175000Y-56750000D03*
X109825000Y-56750000D03*
D33*
X142975000Y-100000000D03*
X144525000Y-100000000D03*
D39*
X130000000Y-81800000D03*
X130000000Y-86200000D03*
D13*
X90750000Y-73725000D03*
X90750000Y-75275000D03*
D12*
X141175000Y-56750000D03*
X142825000Y-56750000D03*
D41*
X93525000Y-87895000D03*
X93525000Y-89165000D03*
X93525000Y-90435000D03*
X93525000Y-91705000D03*
X98475000Y-91705000D03*
X98475000Y-90435000D03*
X98475000Y-89165000D03*
X98475000Y-87895000D03*
D28*
X127275000Y-52000000D03*
X125725000Y-52000000D03*
D39*
X119000000Y-73800000D03*
X119000000Y-78200000D03*
D12*
X141175000Y-55250000D03*
X142825000Y-55250000D03*
X89825000Y-90550000D03*
X91475000Y-90550000D03*
D28*
X143775000Y-49000000D03*
X142225000Y-49000000D03*
D42*
X104050000Y-121387500D03*
X105000000Y-121387500D03*
X105950000Y-121387500D03*
X105950000Y-119112500D03*
X105000000Y-119112500D03*
X104050000Y-119112500D03*
D35*
X100750000Y-71575000D03*
X100750000Y-69925000D03*
D11*
X106287500Y-64250000D03*
X109212500Y-64250000D03*
D31*
X155875000Y-50000000D03*
X157073185Y-47073185D03*
X157073185Y-52926815D03*
X160000000Y-45875000D03*
D32*
X160000000Y-50000000D03*
D31*
X160000000Y-54125000D03*
X162926815Y-47073185D03*
X162926815Y-52926815D03*
X164125000Y-50000000D03*
D16*
X127460000Y-127620000D03*
D17*
X130000000Y-127620000D03*
X132540000Y-127620000D03*
X132540000Y-116380000D03*
X130000000Y-116380000D03*
X127460000Y-116380000D03*
D35*
X100600000Y-64625000D03*
X100600000Y-62975000D03*
D13*
X100750000Y-73975000D03*
X100750000Y-75525000D03*
D22*
X83600000Y-36000000D03*
X84302944Y-34302944D03*
X84302944Y-37697056D03*
X86000000Y-33600000D03*
D23*
X86000000Y-36000000D03*
D22*
X86000000Y-38400000D03*
X87697056Y-34302944D03*
X87697056Y-37697056D03*
X88400000Y-36000000D03*
D43*
X82050000Y-107250000D03*
X83950000Y-107250000D03*
D11*
X106287500Y-62000000D03*
X109212500Y-62000000D03*
D29*
X113500000Y-78050000D03*
X113500000Y-73950000D03*
D12*
X89825000Y-92050000D03*
X91475000Y-92050000D03*
D37*
X128000000Y-56500000D03*
D38*
X128087500Y-58000000D03*
D37*
X128000000Y-59500000D03*
D20*
X141537500Y-100000000D03*
X139962500Y-100000000D03*
D41*
X93525000Y-94895000D03*
X93525000Y-96165000D03*
X93525000Y-97435000D03*
X93525000Y-98705000D03*
X98475000Y-98705000D03*
X98475000Y-97435000D03*
X98475000Y-96165000D03*
X98475000Y-94895000D03*
D28*
X127275000Y-49000000D03*
X125725000Y-49000000D03*
D14*
X135462500Y-95000000D03*
X132537500Y-95000000D03*
D24*
X170000000Y-83500000D03*
X170000000Y-91500000D03*
X178000000Y-83500000D03*
X178000000Y-91500000D03*
D12*
X89925000Y-62750000D03*
X91575000Y-62750000D03*
D44*
X135500000Y-90000000D03*
D45*
X130050000Y-90000000D03*
X124600000Y-90000000D03*
D46*
X124500000Y-70000000D03*
D45*
X129950000Y-70000000D03*
X135400000Y-70000000D03*
D46*
X108000000Y-70000000D03*
D45*
X113450000Y-70000000D03*
X118900000Y-70000000D03*
D47*
X82700000Y-70375000D03*
D48*
X82700000Y-71625000D03*
X82700000Y-72875000D03*
X82700000Y-74125000D03*
X82700000Y-75375000D03*
X82700000Y-76625000D03*
D47*
X82700000Y-80875000D03*
D48*
X82700000Y-82125000D03*
X82700000Y-83375000D03*
X82700000Y-84625000D03*
X82700000Y-85875000D03*
X82700000Y-87125000D03*
D47*
X82700000Y-59875000D03*
D48*
X82700000Y-61125000D03*
X82700000Y-62375000D03*
X82700000Y-63625000D03*
X82700000Y-64875000D03*
X82700000Y-66125000D03*
D47*
X82750000Y-43250000D03*
D48*
X82750000Y-44500000D03*
X82750000Y-45750000D03*
X82750000Y-47000000D03*
X82750000Y-48250000D03*
X82750000Y-49500000D03*
X82750000Y-50750000D03*
X82750000Y-52000000D03*
D44*
X152000000Y-90000000D03*
D45*
X146550000Y-90000000D03*
X141100000Y-90000000D03*
D46*
X141000000Y-70000000D03*
D45*
X146450000Y-70000000D03*
X151900000Y-70000000D03*
D44*
X119000000Y-90000000D03*
D45*
X113550000Y-90000000D03*
X108100000Y-90000000D03*
M02*
