M48
; DRILL file {KiCad 6.0.2-1.fc35} date Sat 02 Apr 2022 03:35:04 PM EDT
; FORMAT={-:-/ absolute / inch / decimal}
; #@! TF.CreationDate,2022-04-02T15:35:04-04:00
; #@! TF.GenerationSoftware,Kicad,Pcbnew,6.0.2-1.fc35
; #@! TF.FileFunction,Plated,1,2,PTH
FMAT,2
INCH
; #@! TA.AperFunction,Plated,PTH,ViaDrill
T1C0.0157
; #@! TA.AperFunction,Plated,PTH,ComponentDrill
T2C0.0197
; #@! TA.AperFunction,Plated,PTH,ComponentDrill
T3C0.0236
; #@! TA.AperFunction,Plated,PTH,ComponentDrill
T4C0.0295
; #@! TA.AperFunction,Plated,PTH,ComponentDrill
T5C0.0394
; #@! TA.AperFunction,Plated,PTH,ComponentDrill
T6C0.0591
; #@! TA.AperFunction,Plated,PTH,ComponentDrill
T7C0.0669
; #@! TA.AperFunction,Plated,PTH,ComponentDrill
T8C0.1260
; #@! TA.AperFunction,Plated,PTH,ComponentDrill
T9C0.2165
%
G90
G05
T1
X5.1378Y-3.563
X5.1378Y-3.6024
X5.1378Y-3.6417
X5.1378Y-3.6811
X5.1575Y-3.7598
X5.1575Y-3.9764
X5.1575Y-4.0157
X5.1772Y-4.0551
X5.1969Y-3.7598
X5.1969Y-3.9764
X5.1969Y-4.0157
X5.2362Y-3.7598
X5.2362Y-3.9764
X5.2953Y-3.7598
X5.2953Y-3.9764
X5.315Y-4.0157
X5.3346Y-3.7598
X5.3346Y-3.9764
X5.3346Y-4.0551
X5.3543Y-4.0157
X5.374Y-3.7598
X5.374Y-3.9764
X5.374Y-4.0551
X5.8858Y-3.563
X5.8858Y-3.6024
X5.8858Y-3.6417
X5.8858Y-3.6811
X5.9055Y-3.7598
X5.9055Y-3.9764
X5.9055Y-4.0157
X5.9252Y-4.0551
X5.9449Y-3.7598
X5.9449Y-3.9764
X5.9449Y-4.0157
X5.9843Y-3.7598
X5.9843Y-3.9764
X6.0433Y-3.7598
X6.0433Y-3.9764
X6.063Y-4.0157
X6.0827Y-3.7598
X6.0827Y-3.9764
X6.0827Y-4.0551
X6.1024Y-4.0157
X6.122Y-3.7598
X6.122Y-3.9764
X6.122Y-4.0551
X6.6339Y-3.563
X6.6339Y-3.6024
X6.6339Y-3.6417
X6.6339Y-3.6811
X6.6535Y-3.7598
X6.6535Y-3.9764
X6.6535Y-4.0157
X6.6732Y-4.0551
X6.6929Y-3.7598
X6.6929Y-3.9764
X6.6929Y-4.0157
X6.7323Y-3.7598
X6.7323Y-3.9764
X6.7913Y-3.7598
X6.7913Y-3.9764
X6.811Y-4.0157
X6.8307Y-3.7598
X6.8307Y-3.9764
X6.8307Y-4.0551
X6.8504Y-4.0157
X6.8701Y-3.7598
X6.8701Y-3.9764
X6.8701Y-4.0551
X6.9626Y-3.9567
T2
X4.1181Y-2.2835
X4.1181Y-5.4331
X4.1458Y-2.2167
X4.1458Y-2.3503
X4.1458Y-5.3663
X4.1458Y-5.4999
X4.2126Y-2.189
X4.2126Y-2.378
X4.2126Y-5.3386
X4.2126Y-5.5276
X4.2794Y-2.2167
X4.2794Y-2.3503
X4.2794Y-5.3663
X4.2794Y-5.4999
X4.3071Y-2.2835
X4.3071Y-5.4331
X7.2677Y-2.2835
X7.2677Y-5.4331
X7.2954Y-2.2167
X7.2954Y-2.3503
X7.2954Y-5.3663
X7.2954Y-5.4999
X7.3622Y-2.189
X7.3622Y-2.378
X7.3622Y-5.3386
X7.3622Y-5.5276
X7.429Y-2.2167
X7.429Y-2.3503
X7.429Y-5.3663
X7.429Y-5.4999
X7.4567Y-2.2835
X7.4567Y-5.4331
T3
X4.4439Y-2.6772
X4.4439Y-5.0394
X4.4911Y-2.5619
X4.4911Y-2.7924
X4.4911Y-4.9241
X4.4911Y-5.1546
X4.6063Y-2.5148
X4.6063Y-2.8396
X4.6063Y-4.877
X4.6063Y-5.2018
X4.7215Y-2.5619
X4.7215Y-2.7924
X4.7215Y-4.9241
X4.7215Y-5.1546
X4.7687Y-2.6772
X4.7687Y-5.0394
X6.8061Y-2.6772
X6.8061Y-5.0394
X6.8533Y-2.5619
X6.8533Y-2.7924
X6.8533Y-4.9241
X6.8533Y-5.1546
X6.9685Y-2.5148
X6.9685Y-2.8396
X6.9685Y-4.877
X6.9685Y-5.2018
X7.0837Y-2.5619
X7.0837Y-2.7924
X7.0837Y-4.9241
X7.0837Y-5.1546
X7.1309Y-2.6772
X7.1309Y-5.0394
T4
X6.2894Y-2.0492
X6.2894Y-5.6378
X6.3681Y-2.0492
X6.3681Y-5.6378
X6.5748Y-2.0492
X6.5748Y-5.6378
X6.6535Y-2.0492
X6.6535Y-5.6378
X6.8602Y-2.0472
X6.8602Y-5.6378
X6.939Y-2.0472
X6.939Y-5.6378
X7.5413Y-3.0906
X7.5413Y-3.1693
T5
X3.9567Y-3.622
X3.9619Y-4.1142
X3.9619Y-4.6063
X3.9619Y-5.0984
X3.9665Y-2.6378
X3.9665Y-3.1299
X4.1535Y-3.622
X4.1588Y-4.1142
X4.1588Y-4.6063
X4.1588Y-5.0984
X4.1634Y-2.6378
X4.1634Y-3.1299
T6
X4.8248Y-3.6024
X4.8248Y-4.1142
X5.0394Y-3.6024
X5.0394Y-4.1142
X5.2539Y-3.6024
X5.2539Y-4.1142
X5.5728Y-3.6024
X5.5728Y-4.1142
X5.7874Y-3.6024
X5.7874Y-4.1142
X6.002Y-3.6024
X6.002Y-4.1142
X6.3209Y-3.6024
X6.3209Y-4.1142
X6.5354Y-3.6024
X6.5354Y-4.1142
X6.75Y-3.6024
X6.75Y-4.1142
T7
X4.4887Y-2.0748
X4.6446Y-2.0748
X4.8005Y-2.0748
T8
X4.2126Y-2.2835
X4.2126Y-5.4331
X7.3622Y-2.2835
X7.3622Y-5.4331
T9
X4.6063Y-2.6772
X4.6063Y-5.0394
X6.9685Y-2.6772
X6.9685Y-5.0394
T6
G00X4.9902Y-3.8583
M15
G01X4.7736Y-3.8583
M16
G05
G00X5.7382Y-3.8583
M15
G01X5.5217Y-3.8583
M16
G05
G00X6.4862Y-3.8583
M15
G01X6.2697Y-3.8583
M16
G05
G00X7.6476Y-3.7205
M15
G01X7.4311Y-3.7205
M16
G05
G00X7.6476Y-3.9961
M15
G01X7.4311Y-3.9961
M16
G05
T0
M30
