G04 #@! TF.GenerationSoftware,KiCad,Pcbnew,9.0.0*
G04 #@! TF.CreationDate,2025-03-23T13:51:46-04:00*
G04 #@! TF.ProjectId,three_half_bridges,74687265-655f-4686-916c-665f62726964,rev?*
G04 #@! TF.SameCoordinates,Original*
G04 #@! TF.FileFunction,Copper,L4,Bot*
G04 #@! TF.FilePolarity,Positive*
%FSLAX46Y46*%
G04 Gerber Fmt 4.6, Leading zero omitted, Abs format (unit mm)*
G04 Created by KiCad (PCBNEW 9.0.0) date 2025-03-23 13:51:46*
%MOMM*%
%LPD*%
G01*
G04 APERTURE LIST*
G04 Aperture macros list*
%AMRoundRect*
0 Rectangle with rounded corners*
0 $1 Rounding radius*
0 $2 $3 $4 $5 $6 $7 $8 $9 X,Y pos of 4 corners*
0 Add a 4 corners polygon primitive as box body*
4,1,4,$2,$3,$4,$5,$6,$7,$8,$9,$2,$3,0*
0 Add four circle primitives for the rounded corners*
1,1,$1+$1,$2,$3*
1,1,$1+$1,$4,$5*
1,1,$1+$1,$6,$7*
1,1,$1+$1,$8,$9*
0 Add four rect primitives between the rounded corners*
20,1,$1+$1,$2,$3,$4,$5,0*
20,1,$1+$1,$4,$5,$6,$7,0*
20,1,$1+$1,$6,$7,$8,$9,0*
20,1,$1+$1,$8,$9,$2,$3,0*%
G04 Aperture macros list end*
G04 #@! TA.AperFunction,ComponentPad*
%ADD10C,0.800000*%
G04 #@! TD*
G04 #@! TA.AperFunction,ComponentPad*
%ADD11C,6.400000*%
G04 #@! TD*
G04 #@! TA.AperFunction,ComponentPad*
%ADD12O,3.200000X5.000000*%
G04 #@! TD*
G04 #@! TA.AperFunction,ComponentPad*
%ADD13C,6.500000*%
G04 #@! TD*
G04 #@! TA.AperFunction,ComponentPad*
%ADD14C,0.900000*%
G04 #@! TD*
G04 #@! TA.AperFunction,ComponentPad*
%ADD15C,11.000000*%
G04 #@! TD*
G04 #@! TA.AperFunction,ComponentPad*
%ADD16O,5.000000X3.200000*%
G04 #@! TD*
G04 #@! TA.AperFunction,SMDPad,CuDef*
%ADD17RoundRect,0.150000X0.150000X-0.512500X0.150000X0.512500X-0.150000X0.512500X-0.150000X-0.512500X0*%
G04 #@! TD*
G04 #@! TA.AperFunction,ComponentPad*
%ADD18RoundRect,0.250000X-0.600000X-0.750000X0.600000X-0.750000X0.600000X0.750000X-0.600000X0.750000X0*%
G04 #@! TD*
G04 #@! TA.AperFunction,ComponentPad*
%ADD19O,1.700000X2.000000*%
G04 #@! TD*
G04 #@! TA.AperFunction,SMDPad,CuDef*
%ADD20RoundRect,0.225000X-0.250000X0.225000X-0.250000X-0.225000X0.250000X-0.225000X0.250000X0.225000X0*%
G04 #@! TD*
G04 #@! TA.AperFunction,ComponentPad*
%ADD21RoundRect,0.250000X0.845000X-0.620000X0.845000X0.620000X-0.845000X0.620000X-0.845000X-0.620000X0*%
G04 #@! TD*
G04 #@! TA.AperFunction,ComponentPad*
%ADD22O,2.190000X1.740000*%
G04 #@! TD*
G04 #@! TA.AperFunction,ComponentPad*
%ADD23R,2.500000X4.500000*%
G04 #@! TD*
G04 #@! TA.AperFunction,ComponentPad*
%ADD24O,2.500000X4.500000*%
G04 #@! TD*
G04 #@! TA.AperFunction,SMDPad,CuDef*
%ADD25RoundRect,0.249999X1.450001X-0.450001X1.450001X0.450001X-1.450001X0.450001X-1.450001X-0.450001X0*%
G04 #@! TD*
G04 #@! TA.AperFunction,SMDPad,CuDef*
%ADD26RoundRect,0.249999X-0.450001X-1.450001X0.450001X-1.450001X0.450001X1.450001X-0.450001X1.450001X0*%
G04 #@! TD*
G04 #@! TA.AperFunction,ComponentPad*
%ADD27RoundRect,0.200000X-0.450000X0.200000X-0.450000X-0.200000X0.450000X-0.200000X0.450000X0.200000X0*%
G04 #@! TD*
G04 #@! TA.AperFunction,ComponentPad*
%ADD28O,1.300000X0.800000*%
G04 #@! TD*
G04 #@! TA.AperFunction,ViaPad*
%ADD29C,0.800000*%
G04 #@! TD*
G04 #@! TA.AperFunction,Conductor*
%ADD30C,0.250000*%
G04 #@! TD*
G04 #@! TA.AperFunction,Conductor*
%ADD31C,0.500000*%
G04 #@! TD*
G04 #@! TA.AperFunction,Conductor*
%ADD32C,1.000000*%
G04 #@! TD*
G04 APERTURE END LIST*
D10*
X193850000Y-121250000D03*
X194552944Y-119552944D03*
X194552944Y-122947056D03*
X196250000Y-118850000D03*
D11*
X196250000Y-121250000D03*
D10*
X196250000Y-123650000D03*
X197947056Y-119552944D03*
X197947056Y-122947056D03*
X198650000Y-121250000D03*
D12*
X151000000Y-32900000D03*
X151000000Y-39900000D03*
D13*
X155750000Y-36400000D03*
D12*
X160300000Y-32900000D03*
X160300000Y-39900000D03*
D14*
X180875000Y-110000000D03*
X182073185Y-107073185D03*
X182073185Y-112926815D03*
X185000000Y-105875000D03*
D15*
X185000000Y-110000000D03*
D14*
X185000000Y-114125000D03*
X187926815Y-107073185D03*
X187926815Y-112926815D03*
X189125000Y-110000000D03*
X120875000Y-50000000D03*
X122073185Y-47073185D03*
X122073185Y-52926815D03*
X125000000Y-45875000D03*
D15*
X125000000Y-50000000D03*
D14*
X125000000Y-54125000D03*
X127926815Y-47073185D03*
X127926815Y-52926815D03*
X129125000Y-50000000D03*
D10*
X193850000Y-38750000D03*
X194552944Y-37052944D03*
X194552944Y-40447056D03*
X196250000Y-36350000D03*
D11*
X196250000Y-38750000D03*
D10*
X196250000Y-41150000D03*
X197947056Y-37052944D03*
X197947056Y-40447056D03*
X198650000Y-38750000D03*
D12*
X167500000Y-32900000D03*
X167500000Y-39900000D03*
D13*
X172250000Y-36400000D03*
D12*
X176800000Y-32900000D03*
X176800000Y-39900000D03*
X134500000Y-32900000D03*
X134500000Y-39900000D03*
D13*
X139250000Y-36400000D03*
D12*
X143800000Y-32900000D03*
X143800000Y-39900000D03*
D14*
X120875000Y-110050000D03*
X122073185Y-107123185D03*
X122073185Y-112976815D03*
D15*
X124875000Y-110050000D03*
D14*
X125000000Y-105925000D03*
X125000000Y-114175000D03*
X127926815Y-107123185D03*
X127926815Y-112976815D03*
X129125000Y-110050000D03*
D10*
X111402944Y-121250000D03*
X112105888Y-119552944D03*
X112105888Y-122947056D03*
X113802944Y-118850000D03*
D11*
X113802944Y-121250000D03*
D10*
X113802944Y-123650000D03*
X115500000Y-119552944D03*
X115500000Y-122947056D03*
X116202944Y-121250000D03*
D16*
X201900000Y-66250000D03*
X194900000Y-66250000D03*
D13*
X198400000Y-71000000D03*
D16*
X201900000Y-75550000D03*
X194900000Y-75550000D03*
D14*
X180875000Y-50000000D03*
X182073185Y-47073185D03*
X182073185Y-52926815D03*
X185000000Y-45875000D03*
D15*
X185000000Y-50000000D03*
D14*
X185000000Y-54125000D03*
X187926815Y-47073185D03*
X187926815Y-52926815D03*
X189125000Y-50000000D03*
D10*
X111350000Y-38750000D03*
X112052944Y-37052944D03*
X112052944Y-40447056D03*
X113750000Y-36350000D03*
D11*
X113750000Y-38750000D03*
D10*
X113750000Y-41150000D03*
X115447056Y-37052944D03*
X115447056Y-40447056D03*
X116150000Y-38750000D03*
D16*
X194900000Y-93750000D03*
X201900000Y-93750000D03*
D13*
X198400000Y-89000000D03*
D16*
X194900000Y-84450000D03*
X201900000Y-84450000D03*
D17*
X161200000Y-125887500D03*
X160250000Y-125887500D03*
X159300000Y-125887500D03*
X159300000Y-123612500D03*
X160250000Y-123612500D03*
X161200000Y-123612500D03*
X153450000Y-125887500D03*
X152500000Y-125887500D03*
X151550000Y-125887500D03*
X151550000Y-123612500D03*
X152500000Y-123612500D03*
X153450000Y-123612500D03*
D18*
X139025000Y-119125000D03*
D19*
X141525000Y-119125000D03*
D20*
X173250000Y-123225000D03*
X173250000Y-124775000D03*
D21*
X109600000Y-115800000D03*
D22*
X109600000Y-113260000D03*
X109600000Y-110720000D03*
X109600000Y-108180000D03*
D20*
X150000000Y-123225000D03*
X150000000Y-124775000D03*
D23*
X160500000Y-85000000D03*
D24*
X155050000Y-85000000D03*
X149600000Y-85000000D03*
D23*
X149500000Y-75000000D03*
D24*
X154950000Y-75000000D03*
X160400000Y-75000000D03*
D25*
X182000000Y-82050000D03*
X182000000Y-77950000D03*
D20*
X157750000Y-123225000D03*
X157750000Y-124775000D03*
D23*
X133000000Y-75000000D03*
D24*
X138450000Y-75000000D03*
X143900000Y-75000000D03*
D26*
X130950000Y-80000000D03*
X135050000Y-80000000D03*
X147450000Y-80000000D03*
X151550000Y-80000000D03*
D27*
X107600000Y-71275000D03*
D28*
X107600000Y-72525000D03*
X107600000Y-73775000D03*
X107600000Y-75025000D03*
X107600000Y-76275000D03*
X107600000Y-77525000D03*
D27*
X107600000Y-81775000D03*
D28*
X107600000Y-83025000D03*
X107600000Y-84275000D03*
X107600000Y-85525000D03*
X107600000Y-86775000D03*
X107600000Y-88025000D03*
D27*
X107600000Y-60775000D03*
D28*
X107600000Y-62025000D03*
X107600000Y-63275000D03*
X107600000Y-64525000D03*
X107600000Y-65775000D03*
X107600000Y-67025000D03*
D25*
X190000000Y-82050000D03*
X190000000Y-77950000D03*
D27*
X107600000Y-47600000D03*
D28*
X107600000Y-48850000D03*
X107600000Y-50100000D03*
X107600000Y-51350000D03*
X107600000Y-52600000D03*
X107600000Y-53850000D03*
X107600000Y-55100000D03*
X107600000Y-56350000D03*
D23*
X177000000Y-85000000D03*
D24*
X171550000Y-85000000D03*
X166100000Y-85000000D03*
D20*
X165500000Y-123225000D03*
X165500000Y-124775000D03*
D23*
X166000000Y-75000000D03*
D24*
X171450000Y-75000000D03*
X176900000Y-75000000D03*
D17*
X176700000Y-125887500D03*
X175750000Y-125887500D03*
X174800000Y-125887500D03*
X174800000Y-123612500D03*
X175750000Y-123612500D03*
X176700000Y-123612500D03*
D23*
X144000000Y-85000000D03*
D24*
X138550000Y-85000000D03*
X133100000Y-85000000D03*
D17*
X168950000Y-125887500D03*
X168000000Y-125887500D03*
X167050000Y-125887500D03*
X167050000Y-123612500D03*
X168000000Y-123612500D03*
X168950000Y-123612500D03*
D25*
X186000000Y-82050000D03*
X186000000Y-77950000D03*
D26*
X163950000Y-80000000D03*
X168050000Y-80000000D03*
D29*
X162500000Y-129500000D03*
X117500000Y-102500000D03*
X105500000Y-35000000D03*
X157500000Y-129500000D03*
X204500000Y-38750000D03*
X105500000Y-113750000D03*
X105500000Y-88750000D03*
X204500000Y-122500000D03*
X204500000Y-37500000D03*
X105500000Y-115000000D03*
X105500000Y-37500000D03*
X160000000Y-129500000D03*
X109900000Y-67100000D03*
X204500000Y-126250000D03*
X155000000Y-129500000D03*
X185000000Y-121250000D03*
X128750000Y-30500000D03*
X141250000Y-129500000D03*
X130000000Y-39250000D03*
X108100000Y-94100000D03*
X130250000Y-122000000D03*
X204500000Y-123750000D03*
X198750000Y-129500000D03*
X181250000Y-31250000D03*
X188750000Y-129500000D03*
X105500000Y-110000000D03*
X199500000Y-55000000D03*
X204500000Y-50000000D03*
X105500000Y-127500000D03*
X156250000Y-129500000D03*
X121250000Y-129500000D03*
X188000000Y-55000000D03*
X130000000Y-129500000D03*
X105500000Y-73750000D03*
X180000000Y-129500000D03*
X111650000Y-93150000D03*
X170500000Y-123750000D03*
X112300000Y-67100000D03*
X167225000Y-53000000D03*
X181250000Y-42500000D03*
X197500000Y-129500000D03*
X110500000Y-98500000D03*
X111150000Y-68150000D03*
X121200000Y-105000000D03*
X204500000Y-111250000D03*
X111925000Y-87125000D03*
X105500000Y-82500000D03*
X120000000Y-30500000D03*
X105500000Y-65000000D03*
X204500000Y-48750000D03*
X130250000Y-115750000D03*
X185500000Y-118750000D03*
X204500000Y-107500000D03*
X110900000Y-89650000D03*
X196250000Y-30500000D03*
X130250000Y-120750000D03*
X110900000Y-90650000D03*
X105500000Y-90000000D03*
X105500000Y-76250000D03*
X198250000Y-55000000D03*
X190000000Y-129500000D03*
X130250000Y-119500000D03*
X116150000Y-99650000D03*
X116250000Y-129500000D03*
X204500000Y-121250000D03*
X185500000Y-120000000D03*
X195500000Y-55000000D03*
X204500000Y-110000000D03*
X109900000Y-79400000D03*
X181250000Y-40000000D03*
X195000000Y-129500000D03*
X136250000Y-129500000D03*
X128750000Y-129500000D03*
X191250000Y-30500000D03*
X138750000Y-124000000D03*
X127500000Y-129500000D03*
X118750000Y-129500000D03*
X116500000Y-79900000D03*
X188750000Y-105000000D03*
X162750000Y-123750000D03*
X108100000Y-90500000D03*
X141250000Y-124000000D03*
X148750000Y-129500000D03*
X108100000Y-95500000D03*
X146250000Y-129500000D03*
X183750000Y-30500000D03*
X105500000Y-100000000D03*
X130000000Y-34250000D03*
X105500000Y-40000000D03*
X186250000Y-30500000D03*
X111250000Y-30500000D03*
X146250000Y-124000000D03*
X111650000Y-95400000D03*
X156250000Y-123750000D03*
X204500000Y-125000000D03*
X105500000Y-77500000D03*
X105500000Y-120000000D03*
X201250000Y-105000000D03*
X204500000Y-52500000D03*
X130250000Y-113250000D03*
X191250000Y-105000000D03*
X110900000Y-86150000D03*
X108100000Y-89300000D03*
X105500000Y-63750000D03*
X138750000Y-129500000D03*
X193750000Y-30500000D03*
X136250000Y-124000000D03*
X158750000Y-129500000D03*
X202500000Y-30500000D03*
X137500000Y-124000000D03*
X180000000Y-128250000D03*
X110000000Y-30500000D03*
X126250000Y-129500000D03*
X112650000Y-93150000D03*
X130250000Y-114500000D03*
X193750000Y-129500000D03*
X117500000Y-30500000D03*
X195000000Y-30500000D03*
X117500000Y-101100000D03*
X200000000Y-105000000D03*
X112400000Y-59150000D03*
X155000000Y-123750000D03*
X108100000Y-92900000D03*
X122500000Y-30500000D03*
X105500000Y-116250000D03*
X168750000Y-129500000D03*
X143750000Y-124000000D03*
X167500000Y-129500000D03*
X184000000Y-122250000D03*
X130000000Y-30500000D03*
X140000000Y-129500000D03*
X181250000Y-37500000D03*
X191000000Y-55000000D03*
X108700000Y-96500000D03*
X203250000Y-55000000D03*
X193750000Y-105000000D03*
X116500000Y-86650000D03*
X167225000Y-48100000D03*
X106250000Y-30500000D03*
X126250000Y-30500000D03*
X105500000Y-125000000D03*
X192500000Y-105000000D03*
X140000000Y-124000000D03*
X110300000Y-84300000D03*
X112700000Y-99300000D03*
X109500000Y-97500000D03*
X197500000Y-30500000D03*
X203750000Y-105000000D03*
X108750000Y-129500000D03*
X185000000Y-30500000D03*
X112500000Y-129500000D03*
X130000000Y-40400000D03*
X111250000Y-129500000D03*
X105500000Y-46250000D03*
X181250000Y-36250000D03*
X105500000Y-87500000D03*
X105500000Y-33750000D03*
X196250000Y-129500000D03*
X127500000Y-30500000D03*
X204500000Y-113750000D03*
X107500000Y-129500000D03*
X116500000Y-72900000D03*
X117500000Y-103750000D03*
X183750000Y-129500000D03*
X105500000Y-31250000D03*
X105500000Y-118750000D03*
X112700000Y-95400000D03*
X105500000Y-71250000D03*
X105500000Y-68750000D03*
X182500000Y-30500000D03*
X204500000Y-127500000D03*
X173750000Y-129500000D03*
X143750000Y-129500000D03*
X105500000Y-106250000D03*
X151250000Y-129500000D03*
X130000000Y-33000000D03*
X145000000Y-124000000D03*
X105500000Y-41250000D03*
X201250000Y-129500000D03*
X120000000Y-129500000D03*
X177500000Y-129500000D03*
X198750000Y-105000000D03*
X200750000Y-55000000D03*
X130000000Y-43000000D03*
X105500000Y-91250000D03*
X105500000Y-95000000D03*
X183000000Y-123250000D03*
X109900000Y-69150000D03*
X204500000Y-106250000D03*
X110700000Y-74900000D03*
X202000000Y-55000000D03*
X181250000Y-41250000D03*
X108900000Y-67100000D03*
X105500000Y-61250000D03*
X123750000Y-30500000D03*
X111100000Y-67100000D03*
X130000000Y-41700000D03*
X188750000Y-30500000D03*
X108650000Y-59150000D03*
X111500000Y-74100000D03*
X204500000Y-40000000D03*
X111900000Y-90650000D03*
X105500000Y-101250000D03*
X181250000Y-43750000D03*
X117500000Y-105000000D03*
X111300000Y-83500000D03*
X181250000Y-129500000D03*
X178750000Y-129500000D03*
X105500000Y-32500000D03*
X185000000Y-129500000D03*
X181250000Y-38750000D03*
X200000000Y-30500000D03*
X198750000Y-30500000D03*
X116800000Y-60000000D03*
X152500000Y-129500000D03*
X135000000Y-129500000D03*
X105500000Y-85000000D03*
X131250000Y-124000000D03*
X117500000Y-129500000D03*
X110900000Y-87150000D03*
X130000000Y-45600000D03*
X204500000Y-42500000D03*
X105500000Y-45000000D03*
X204500000Y-31250000D03*
X204500000Y-41250000D03*
X137500000Y-129500000D03*
X172500000Y-129500000D03*
X133750000Y-129500000D03*
X105500000Y-111250000D03*
X130000000Y-38000000D03*
X120000000Y-105000000D03*
X192500000Y-55000000D03*
X105500000Y-97500000D03*
X134246903Y-47771903D03*
X204500000Y-128750000D03*
X180000000Y-127000000D03*
X171250000Y-129500000D03*
X132500000Y-129500000D03*
X130250000Y-123250000D03*
X191250000Y-129500000D03*
X204500000Y-45000000D03*
X187500000Y-129500000D03*
X109900000Y-59150000D03*
X187500000Y-30500000D03*
X125000000Y-129500000D03*
X105500000Y-108750000D03*
X109900000Y-75650000D03*
X105500000Y-128750000D03*
X192500000Y-30500000D03*
X130000000Y-44300000D03*
X130000000Y-35500000D03*
X118750000Y-105000000D03*
X105500000Y-121250000D03*
X204500000Y-112500000D03*
X115000000Y-30500000D03*
X123750000Y-129500000D03*
X197000000Y-55000000D03*
X105500000Y-86250000D03*
X105500000Y-112500000D03*
X204500000Y-35000000D03*
X194000000Y-55000000D03*
X204500000Y-117500000D03*
X113750000Y-129500000D03*
X105500000Y-92500000D03*
X204500000Y-33750000D03*
X204500000Y-43750000D03*
X111500000Y-99300000D03*
X145000000Y-129500000D03*
X147500000Y-124000000D03*
X204500000Y-118750000D03*
X105500000Y-107500000D03*
X116400000Y-93150000D03*
X135900000Y-53250000D03*
X150000000Y-129500000D03*
X125000000Y-30500000D03*
X163750000Y-129500000D03*
X204500000Y-108750000D03*
X147500000Y-129500000D03*
X105500000Y-96250000D03*
X170000000Y-129500000D03*
X105500000Y-122500000D03*
X161250000Y-129500000D03*
X181250000Y-32500000D03*
X105500000Y-42500000D03*
X105500000Y-83750000D03*
X130250000Y-117000000D03*
X190000000Y-105000000D03*
X201250000Y-30500000D03*
X105500000Y-102500000D03*
X202500000Y-129500000D03*
X105500000Y-66250000D03*
X192500000Y-129500000D03*
X105500000Y-36250000D03*
X135000000Y-124000000D03*
X181250000Y-35000000D03*
X113350000Y-59150000D03*
X116250000Y-30500000D03*
X105500000Y-78750000D03*
X108750000Y-30500000D03*
X112500000Y-30500000D03*
X204500000Y-120000000D03*
X109900000Y-78150000D03*
X203750000Y-129500000D03*
X130000000Y-31750000D03*
X150725000Y-53000000D03*
X105500000Y-80000000D03*
X113750000Y-30500000D03*
X106250000Y-129500000D03*
X105500000Y-62500000D03*
X105500000Y-98750000D03*
X181000000Y-125000000D03*
X105500000Y-67500000D03*
X197500000Y-105000000D03*
X204500000Y-47500000D03*
X110000000Y-129500000D03*
X121250000Y-30500000D03*
X105500000Y-117500000D03*
X164000000Y-123750000D03*
X132500000Y-124000000D03*
X185500000Y-117500000D03*
X204500000Y-46250000D03*
X204500000Y-53750000D03*
X181250000Y-45000000D03*
X130000000Y-36750000D03*
X204500000Y-55000000D03*
X111900000Y-89650000D03*
X108100000Y-91700000D03*
X105500000Y-81250000D03*
X105500000Y-105000000D03*
X131250000Y-129500000D03*
X111150000Y-59150000D03*
X130250000Y-118250000D03*
X153750000Y-129500000D03*
X200000000Y-129500000D03*
X122500000Y-129500000D03*
X142500000Y-124000000D03*
X105500000Y-126250000D03*
X150725000Y-48100000D03*
X105500000Y-93750000D03*
X204500000Y-51250000D03*
X186250000Y-129500000D03*
X133750000Y-124000000D03*
X176250000Y-129500000D03*
X105500000Y-43750000D03*
X180000000Y-125750000D03*
X190000000Y-30500000D03*
X196250000Y-105000000D03*
X185500000Y-116250000D03*
X117500000Y-99900000D03*
X175000000Y-129500000D03*
X165000000Y-129500000D03*
X166250000Y-129500000D03*
X111900000Y-86150000D03*
X204500000Y-115000000D03*
X105500000Y-38750000D03*
X181250000Y-33750000D03*
X107500000Y-30500000D03*
X203750000Y-30500000D03*
X182000000Y-124250000D03*
X182500000Y-129500000D03*
X189500000Y-55000000D03*
X105500000Y-103750000D03*
X109900000Y-76900000D03*
X116400000Y-66150000D03*
X110100000Y-85300000D03*
X105500000Y-72500000D03*
X105500000Y-60000000D03*
X118750000Y-30500000D03*
X142500000Y-129500000D03*
X171750000Y-123750000D03*
X105500000Y-75000000D03*
X109900000Y-68150000D03*
X115000000Y-129500000D03*
X202500000Y-105000000D03*
X204500000Y-36250000D03*
X195000000Y-105000000D03*
X204500000Y-116250000D03*
X105500000Y-70000000D03*
X105500000Y-123750000D03*
X204500000Y-32500000D03*
X114900000Y-67795000D03*
X152500000Y-127592500D03*
X114900000Y-74595000D03*
X170000000Y-52000000D03*
X114900000Y-60995000D03*
X115150000Y-94995000D03*
X175750000Y-127592500D03*
X137155000Y-52000000D03*
X153500000Y-52000000D03*
X160250000Y-127592500D03*
X168000000Y-127592500D03*
X114900000Y-81395000D03*
X114900000Y-88195000D03*
X151750000Y-92000000D03*
X136250000Y-92000000D03*
X152750000Y-91000000D03*
X141200001Y-102100000D03*
X169500000Y-91000000D03*
X130800000Y-101950000D03*
X152750000Y-92000000D03*
X135250000Y-92000000D03*
X131700000Y-101050000D03*
X129800000Y-101050000D03*
X168500000Y-91000000D03*
X125350000Y-96700000D03*
X124650000Y-85205000D03*
X151750000Y-91000000D03*
X168500000Y-92000000D03*
X130750000Y-101050000D03*
X131700000Y-101950000D03*
X136250000Y-91000000D03*
X169500000Y-92000000D03*
X135250000Y-91000000D03*
X124950000Y-92900000D03*
X170000000Y-49365000D03*
X153400000Y-49365000D03*
X137125437Y-49878472D03*
X152522856Y-56897550D03*
X124100000Y-69225000D03*
X112900000Y-71700000D03*
X114159803Y-89725000D03*
X124100000Y-76025000D03*
X168315451Y-56287147D03*
X112900000Y-64650000D03*
X114050000Y-82725000D03*
X122650000Y-88025000D03*
X122650000Y-81225000D03*
X152961530Y-50521530D03*
X177500000Y-46500000D03*
X176500000Y-46500000D03*
X177500000Y-45500000D03*
X175500000Y-46500000D03*
X174500000Y-45500000D03*
X175000000Y-46000000D03*
X176000000Y-46000000D03*
X176500000Y-45500000D03*
X175500000Y-45500000D03*
X177000000Y-46000000D03*
X161000000Y-45500000D03*
X160000000Y-45500000D03*
X160500000Y-46000000D03*
X159000000Y-45500000D03*
X160000000Y-46500000D03*
X158000000Y-45500000D03*
X161000000Y-46500000D03*
X159500000Y-46000000D03*
X158500000Y-46000000D03*
X159000000Y-46500000D03*
X143800000Y-46750000D03*
X142300000Y-46100000D03*
X142800000Y-45500000D03*
X144800000Y-46750000D03*
X143300000Y-46100000D03*
X144300000Y-46100000D03*
X143750000Y-45500000D03*
X142800000Y-46750000D03*
X144800000Y-45500000D03*
X141800000Y-45500000D03*
X169552429Y-50391204D03*
X137090429Y-51002084D03*
X121375000Y-77135000D03*
X166302115Y-56325000D03*
X150500000Y-56935050D03*
X121375000Y-70335000D03*
X131743661Y-62743661D03*
X121375000Y-63535000D03*
X114150000Y-90825000D03*
X112375000Y-72700000D03*
X114050000Y-84075000D03*
X112900000Y-65900000D03*
X173800000Y-101250000D03*
X140732111Y-101216210D03*
X157200000Y-101250000D03*
X124150000Y-70700000D03*
X149087347Y-57612653D03*
X166700000Y-57775000D03*
X124248475Y-77405909D03*
X121375000Y-89465000D03*
X149250000Y-103250000D03*
X151499233Y-56895868D03*
X121375000Y-69065000D03*
X165500000Y-103000000D03*
X121375000Y-96265000D03*
X167301774Y-56298775D03*
X121375000Y-75865000D03*
X131737018Y-61725000D03*
X121375000Y-62265000D03*
X165460000Y-127592500D03*
X170540000Y-127592500D03*
X178290000Y-127592500D03*
X173210000Y-127592500D03*
X157710000Y-127592500D03*
X162790000Y-127592500D03*
X150262653Y-103262653D03*
X123400000Y-93650000D03*
X123400000Y-100400000D03*
X166512653Y-103012653D03*
X155040000Y-127592500D03*
X149960000Y-127592500D03*
D30*
X134748000Y-66339984D02*
X126238984Y-74849000D01*
X165152000Y-56448000D02*
X155276380Y-56448000D01*
X137939984Y-58748000D02*
X134748000Y-61939984D01*
X155276380Y-56448000D02*
X152976380Y-58748000D01*
X124587530Y-74848000D02*
X123612470Y-74848000D01*
X166000000Y-55600000D02*
X165152000Y-56448000D01*
X152976380Y-58748000D02*
X137939984Y-58748000D01*
X166000395Y-55600000D02*
X166000000Y-55600000D01*
X123612470Y-74848000D02*
X123611470Y-74849000D01*
X166001395Y-55599000D02*
X166000395Y-55600000D01*
X123611470Y-74849000D02*
X123023190Y-74849000D01*
X167028115Y-56024280D02*
X166602835Y-55599000D01*
X123023190Y-74849000D02*
X123022190Y-74850000D01*
X166602835Y-55599000D02*
X166001395Y-55599000D01*
X123022190Y-74850000D02*
X122590000Y-74850000D01*
X167028115Y-56025116D02*
X167028115Y-56024280D01*
X134748000Y-61939984D02*
X134748000Y-66339984D01*
X167301774Y-56298775D02*
X167028115Y-56025116D01*
X126238984Y-74849000D02*
X124588530Y-74849000D01*
X124588530Y-74849000D02*
X124587530Y-74848000D01*
X122590000Y-74850000D02*
X121375000Y-76065000D01*
X153163190Y-59199000D02*
X138500414Y-59199000D01*
X166038299Y-56325000D02*
X165764299Y-56599000D01*
X123798280Y-75300000D02*
X123210000Y-75300000D01*
X138500414Y-59199000D02*
X138126794Y-59199000D01*
X165462885Y-56899000D02*
X155836810Y-56899000D01*
X137862604Y-59463190D02*
X135463190Y-61862604D01*
X155463190Y-56899000D02*
X155199000Y-57163190D01*
X138126794Y-59199000D02*
X137862604Y-59463190D01*
X165764299Y-56599000D02*
X165762885Y-56599000D01*
X155836810Y-56899000D02*
X155463190Y-56899000D01*
X123210000Y-75300000D02*
X121375000Y-77135000D01*
X155199000Y-57163190D02*
X153163190Y-59199000D01*
X165498695Y-56863190D02*
X165462885Y-56899000D01*
X165762885Y-56599000D02*
X165498695Y-56863190D01*
X166302115Y-56325000D02*
X166038299Y-56325000D01*
X135463190Y-61862604D02*
X135199000Y-62126794D01*
X135199000Y-66526794D02*
X126425794Y-75300000D01*
X135199000Y-62126794D02*
X135199000Y-62500414D01*
X135199000Y-62500414D02*
X135199000Y-66526794D01*
X126425794Y-75300000D02*
X124401720Y-75300000D01*
X124401720Y-75300000D02*
X124400720Y-75299000D01*
X124400720Y-75299000D02*
X123799280Y-75299000D01*
X123799280Y-75299000D02*
X123798280Y-75300000D01*
X136101000Y-66900414D02*
X135836810Y-67164604D01*
X136101000Y-66526794D02*
X136101000Y-66900414D01*
X136101000Y-62500414D02*
X136101000Y-66526794D01*
X138500414Y-60101000D02*
X136101000Y-62500414D01*
X155836810Y-57801000D02*
X153801000Y-59836810D01*
X153163190Y-60101000D02*
X138500414Y-60101000D01*
X126524000Y-76476000D02*
X125594091Y-77405909D01*
X153536810Y-60101000D02*
X153163190Y-60101000D01*
X153801000Y-59836810D02*
X153536810Y-60101000D01*
X165462885Y-57801000D02*
X155836810Y-57801000D01*
X166700000Y-57775000D02*
X166675000Y-57800000D01*
X165836505Y-57801000D02*
X165462885Y-57801000D01*
X165837505Y-57800000D02*
X165836505Y-57801000D01*
X166675000Y-57800000D02*
X165837505Y-57800000D01*
X135836810Y-67164604D02*
X126789604Y-76211810D01*
X125594091Y-77405909D02*
X124248475Y-77405909D01*
X126789604Y-76211810D02*
X126525414Y-76476000D01*
X126525414Y-76476000D02*
X126524000Y-76476000D01*
X168315451Y-56287147D02*
X168026774Y-56575824D01*
X126338604Y-76025000D02*
X124100000Y-76025000D01*
X168026774Y-56575824D02*
X168026774Y-56599080D01*
X165949695Y-57050000D02*
X165649695Y-57350000D01*
X135650000Y-62313604D02*
X135650000Y-66713604D01*
X168026774Y-56599080D02*
X167575854Y-57050000D01*
X167575854Y-57050000D02*
X165949695Y-57050000D01*
X153350000Y-59650000D02*
X138313604Y-59650000D01*
X165649695Y-57350000D02*
X155650000Y-57350000D01*
X155650000Y-57350000D02*
X153350000Y-59650000D01*
X138313604Y-59650000D02*
X135650000Y-62313604D01*
X135650000Y-66713604D02*
X126338604Y-76025000D01*
X131000000Y-61749997D02*
X130724997Y-62025000D01*
X131712021Y-61749997D02*
X131000000Y-61749997D01*
X131737018Y-61725000D02*
X131712021Y-61749997D01*
X130699695Y-62025000D02*
X130474695Y-62250000D01*
X130724997Y-62025000D02*
X130699695Y-62025000D01*
X130474695Y-62250000D02*
X121390000Y-62250000D01*
X121390000Y-62250000D02*
X121375000Y-62265000D01*
X123612470Y-68048000D02*
X123611470Y-68049000D01*
X123986090Y-68048000D02*
X123612470Y-68048000D01*
X129425380Y-68049000D02*
X124588530Y-68049000D01*
X124213910Y-68048000D02*
X123986090Y-68048000D01*
X124587530Y-68048000D02*
X124213910Y-68048000D01*
X124588530Y-68049000D02*
X124587530Y-68048000D01*
X129563190Y-67911190D02*
X129425380Y-68049000D01*
X123396810Y-68049000D02*
X123023190Y-68049000D01*
X138049571Y-55985653D02*
X137675951Y-55985653D01*
X132648000Y-61013604D02*
X132648000Y-61387224D01*
X136773951Y-56514033D02*
X133176380Y-60111604D01*
X132648000Y-60639984D02*
X132648000Y-61013604D01*
X137038141Y-56249843D02*
X136773951Y-56514033D01*
X133176380Y-60111604D02*
X132912190Y-60375794D01*
X149387653Y-55985653D02*
X149014033Y-55985653D01*
X150591018Y-55987653D02*
X150190413Y-55987653D01*
X151499233Y-56895868D02*
X150591018Y-55987653D01*
X150190413Y-55987653D02*
X149816793Y-55987653D01*
X149816793Y-55987653D02*
X149763273Y-55987653D01*
X123023190Y-68049000D02*
X123022190Y-68050000D01*
X123611470Y-68049000D02*
X123396810Y-68049000D01*
X149014033Y-55985653D02*
X138049571Y-55985653D01*
X132912190Y-60375794D02*
X132648000Y-60639984D01*
X149763273Y-55987653D02*
X149761273Y-55985653D01*
X132648000Y-61387224D02*
X132648000Y-64826380D01*
X149761273Y-55985653D02*
X149387653Y-55985653D01*
X132648000Y-64826380D02*
X129563190Y-67911190D01*
X137302331Y-55985653D02*
X137038141Y-56249843D01*
X137675951Y-55985653D02*
X137302331Y-55985653D01*
X123022190Y-68050000D02*
X122390000Y-68050000D01*
X122390000Y-68050000D02*
X121375000Y-69065000D01*
X129750000Y-68362190D02*
X129612190Y-68500000D01*
X133099000Y-65013190D02*
X129750000Y-68362190D01*
X149200843Y-56436653D02*
X137862761Y-56436653D01*
X149574463Y-56436653D02*
X149200843Y-56436653D01*
X133099000Y-61200414D02*
X133099000Y-65013190D01*
X124401720Y-68500000D02*
X124400720Y-68499000D01*
X133099000Y-60826794D02*
X133099000Y-61200414D01*
X129612190Y-68500000D02*
X124401720Y-68500000D01*
X137862761Y-56436653D02*
X137489141Y-56436653D01*
X133363190Y-60562604D02*
X133099000Y-60826794D01*
X137224951Y-56700843D02*
X133363190Y-60562604D01*
X137489141Y-56436653D02*
X137224951Y-56700843D01*
X149576463Y-56438653D02*
X149574463Y-56436653D01*
X124400720Y-68499000D02*
X123799280Y-68499000D01*
X150003603Y-56438653D02*
X149576463Y-56438653D01*
X150500000Y-56935050D02*
X150003603Y-56438653D01*
X123799280Y-68499000D02*
X123798280Y-68500000D01*
X123798280Y-68500000D02*
X123210000Y-68500000D01*
X123210000Y-68500000D02*
X121375000Y-70335000D01*
X149087347Y-57612653D02*
X148813347Y-57338653D01*
X134001000Y-65386810D02*
X133736810Y-65651000D01*
X148813347Y-57338653D02*
X137862761Y-57338653D01*
X133736810Y-65651000D02*
X133223206Y-66164604D01*
X130201000Y-69186810D02*
X129936810Y-69451000D01*
X137862761Y-57338653D02*
X134001000Y-61200414D01*
X134001000Y-61200414D02*
X134001000Y-65013190D01*
X134001000Y-65013190D02*
X134001000Y-65386810D01*
X133223206Y-66164604D02*
X130201000Y-69186810D01*
X129936810Y-69451000D02*
X129563190Y-69451000D01*
X129563190Y-69451000D02*
X125399000Y-69451000D01*
X125399000Y-69451000D02*
X124150000Y-70700000D01*
X152522856Y-56897550D02*
X151720406Y-57700000D01*
X151720406Y-57700000D02*
X150200000Y-57700000D01*
X150200000Y-57700000D02*
X149387653Y-56887653D01*
X137675951Y-56887653D02*
X133550000Y-61013604D01*
X149387653Y-56887653D02*
X137675951Y-56887653D01*
X133550000Y-65200000D02*
X129750000Y-69000000D01*
X133550000Y-61013604D02*
X133550000Y-65200000D01*
X124525000Y-69000000D02*
X124100000Y-69425000D01*
X129750000Y-69000000D02*
X124525000Y-69000000D01*
D31*
X136150000Y-53000000D02*
X150725000Y-53000000D01*
X154124874Y-47615000D02*
X151210000Y-47615000D01*
X156000000Y-50400000D02*
X156000000Y-49490126D01*
X159300000Y-123612500D02*
X158137500Y-123612500D01*
X138583756Y-46225000D02*
X140375000Y-48016243D01*
X174800000Y-123612500D02*
X173637500Y-123612500D01*
X135900000Y-53250000D02*
X136150000Y-53000000D01*
X167050000Y-123612500D02*
X165887500Y-123612500D01*
X140375000Y-49500000D02*
X149325000Y-49500000D01*
X167225000Y-53000000D02*
X167200000Y-53000000D01*
X167225000Y-50175000D02*
X167000000Y-50400000D01*
X167000000Y-50400000D02*
X156000000Y-50400000D01*
X165887500Y-123612500D02*
X165500000Y-123225000D01*
X151210000Y-47615000D02*
X150725000Y-48100000D01*
X162250000Y-53000000D02*
X150725000Y-53000000D01*
X156000000Y-49490126D02*
X154124874Y-47615000D01*
X149325000Y-49500000D02*
X150725000Y-48100000D01*
X135793806Y-46225000D02*
X138583756Y-46225000D01*
X140375000Y-48016243D02*
X140375000Y-49500000D01*
X173637500Y-123612500D02*
X173250000Y-123225000D01*
X162350000Y-53100000D02*
X162250000Y-53000000D01*
X158137500Y-123612500D02*
X157750000Y-123225000D01*
X134246903Y-47771903D02*
X135793806Y-46225000D01*
X167200000Y-53000000D02*
X167100000Y-53100000D01*
X167100000Y-53100000D02*
X162350000Y-53100000D01*
X167225000Y-48100000D02*
X167225000Y-50175000D01*
D30*
X153405000Y-51905000D02*
X153500000Y-52000000D01*
D31*
X153500000Y-124775000D02*
X152500000Y-124775000D01*
X115100000Y-94945000D02*
X115100000Y-88395000D01*
X114900000Y-60995000D02*
X114900000Y-67795000D01*
X127350000Y-124850000D02*
X115250000Y-112750000D01*
X165565003Y-124709997D02*
X165500000Y-124775000D01*
X134650000Y-54150000D02*
X129800000Y-59000000D01*
X135597918Y-52000000D02*
X134650000Y-52947918D01*
X109600000Y-113260000D02*
X109640000Y-113300000D01*
X175750000Y-124750000D02*
X175750000Y-123612500D01*
X161200000Y-123612500D02*
X161200000Y-124700000D01*
X160250000Y-123612500D02*
X160250000Y-127592500D01*
X161250000Y-124750000D02*
X169000000Y-124750000D01*
X152500000Y-125887500D02*
X152500000Y-127592500D01*
X137155000Y-52000000D02*
X135597918Y-52000000D01*
X158250000Y-124750000D02*
X158225000Y-124775000D01*
X168950000Y-124700000D02*
X169000000Y-124750000D01*
X175750000Y-127592500D02*
X175750000Y-125887500D01*
X158000000Y-124775000D02*
X158025000Y-124750000D01*
X115250000Y-112750000D02*
X115250000Y-94095000D01*
X109640000Y-113300000D02*
X114700000Y-113300000D01*
X149177082Y-124775000D02*
X149102082Y-124850000D01*
X168065003Y-127527497D02*
X168000000Y-127592500D01*
X116200000Y-59000000D02*
X114900000Y-60300000D01*
X152500000Y-125887500D02*
X152500000Y-124775000D01*
X158025000Y-124750000D02*
X158250000Y-124750000D01*
X115100000Y-88395000D02*
X114900000Y-88195000D01*
X134650000Y-52947918D02*
X134650000Y-54150000D01*
X158250000Y-124750000D02*
X161250000Y-124750000D01*
X168065003Y-123547497D02*
X168065003Y-127527497D01*
X170000000Y-52000000D02*
X153500000Y-52000000D01*
X176700000Y-123612500D02*
X176700000Y-124700000D01*
X115150000Y-94995000D02*
X115100000Y-94945000D01*
X114900000Y-67795000D02*
X114900000Y-74595000D01*
X168950000Y-123612500D02*
X168950000Y-124700000D01*
X129800000Y-59000000D02*
X116200000Y-59000000D01*
X149102082Y-124850000D02*
X127350000Y-124850000D01*
X153450000Y-123612500D02*
X153450000Y-124725000D01*
X114900000Y-60300000D02*
X114900000Y-60995000D01*
X176700000Y-124700000D02*
X176750000Y-124750000D01*
X114900000Y-88195000D02*
X114900000Y-81395000D01*
X152500000Y-123612500D02*
X152500000Y-124775000D01*
X169000000Y-124750000D02*
X175750000Y-124750000D01*
X160250000Y-127592500D02*
X160250000Y-125887500D01*
X173525000Y-124750000D02*
X173250000Y-125025000D01*
X137155000Y-52000000D02*
X153500000Y-52000000D01*
X175750000Y-125887500D02*
X175750000Y-124750000D01*
X114700000Y-113300000D02*
X115250000Y-112750000D01*
X114900000Y-81395000D02*
X114900000Y-74595000D01*
X161200000Y-124700000D02*
X161250000Y-124750000D01*
X152500000Y-124775000D02*
X149177082Y-124775000D01*
X176750000Y-124750000D02*
X175750000Y-124750000D01*
X157750000Y-124775000D02*
X153500000Y-124775000D01*
X153450000Y-124725000D02*
X153500000Y-124775000D01*
X173184997Y-124709997D02*
X173250000Y-124775000D01*
D32*
X135050000Y-78450000D02*
X135050000Y-80000000D01*
X168050000Y-78450000D02*
X171450000Y-75050000D01*
X138450000Y-75050000D02*
X135050000Y-78450000D01*
X154950000Y-75000000D02*
X154950000Y-75050000D01*
X168050000Y-80000000D02*
X168050000Y-78450000D01*
X171450000Y-75050000D02*
X171450000Y-75000000D01*
X138450000Y-75000000D02*
X138450000Y-75050000D01*
X154950000Y-75050000D02*
X151550000Y-78450000D01*
X151550000Y-78450000D02*
X151550000Y-80000000D01*
X151550000Y-80000000D02*
X151800000Y-80000000D01*
X147450000Y-80000000D02*
X147450000Y-80950000D01*
X133100000Y-83100000D02*
X133100000Y-85000000D01*
X130950000Y-80950000D02*
X133100000Y-83100000D01*
X163950000Y-80950000D02*
X166100000Y-83100000D01*
X147450000Y-80950000D02*
X149600000Y-83100000D01*
X166100000Y-83100000D02*
X166100000Y-85000000D01*
X163950000Y-80000000D02*
X163950000Y-80950000D01*
X149600000Y-83100000D02*
X149600000Y-85000000D01*
D30*
X153099695Y-48640000D02*
X153700305Y-48640000D01*
X128816244Y-56625000D02*
X132275000Y-53166244D01*
X109475000Y-53329416D02*
X112770584Y-56625000D01*
X152675000Y-49625000D02*
X152675000Y-49064695D01*
X134630000Y-49439416D02*
X134630000Y-49050507D01*
X170000000Y-49813470D02*
X170000000Y-49365000D01*
X151775000Y-50525000D02*
X152675000Y-49625000D01*
X139697792Y-50525000D02*
X151775000Y-50525000D01*
X107675305Y-50150000D02*
X109475000Y-51949695D01*
X136180507Y-47500000D02*
X138250000Y-47500000D01*
X107550000Y-50150000D02*
X107675305Y-50150000D01*
X109475000Y-51949695D02*
X109475000Y-53329416D01*
X132275000Y-51794416D02*
X134630000Y-49439416D01*
X132275000Y-53166244D02*
X132275000Y-51794416D01*
X152675000Y-49064695D02*
X153099695Y-48640000D01*
X169543938Y-51425000D02*
X170277429Y-50691509D01*
X153700305Y-48640000D02*
X154136530Y-49076225D01*
X134630000Y-49050507D02*
X136180507Y-47500000D01*
X138250000Y-47500000D02*
X139350000Y-48600000D01*
X170277429Y-50691509D02*
X170277429Y-50090899D01*
X139350000Y-50177208D02*
X139697792Y-50525000D01*
X112770584Y-56625000D02*
X128816244Y-56625000D01*
X170277429Y-50090899D02*
X170000000Y-49813470D01*
X154788604Y-51425000D02*
X169543938Y-51425000D01*
X139350000Y-48600000D02*
X139350000Y-50177208D01*
X154136530Y-50772926D02*
X154788604Y-51425000D01*
X154136530Y-49076225D02*
X154136530Y-50772926D01*
X136750000Y-48500000D02*
X135530000Y-49720000D01*
X135530000Y-49812208D02*
X133175000Y-52167208D01*
X138450000Y-50550000D02*
X138450000Y-49300644D01*
X153686530Y-50821835D02*
X153261835Y-51246530D01*
X112397792Y-57525000D02*
X108575000Y-53702208D01*
X139325000Y-51425000D02*
X138450000Y-50550000D01*
X153686530Y-49651530D02*
X153686530Y-50821835D01*
X108575000Y-53702208D02*
X108575000Y-53549695D01*
X133175000Y-52167208D02*
X133175000Y-53539036D01*
X107675305Y-52650000D02*
X107550000Y-52650000D01*
X135530000Y-49720000D02*
X135530000Y-49812208D01*
X137649356Y-48500000D02*
X136750000Y-48500000D01*
X153400000Y-49365000D02*
X153686530Y-49651530D01*
X153228165Y-51246530D02*
X153049695Y-51425000D01*
X153261835Y-51246530D02*
X153228165Y-51246530D01*
X133175000Y-53539036D02*
X129189036Y-57525000D01*
X129189036Y-57525000D02*
X112397792Y-57525000D01*
X138450000Y-49300644D02*
X137649356Y-48500000D01*
X108575000Y-53549695D02*
X107675305Y-52650000D01*
X153049695Y-51425000D02*
X139325000Y-51425000D01*
X137125437Y-49878472D02*
X137125437Y-49785437D01*
X137125437Y-49785437D02*
X137093035Y-49753035D01*
X134075000Y-52540000D02*
X134075000Y-53911828D01*
X137093035Y-49753035D02*
X136861965Y-49753035D01*
X112025000Y-58425000D02*
X108750000Y-55150000D01*
X129561828Y-58425000D02*
X112025000Y-58425000D01*
X108750000Y-55150000D02*
X107550000Y-55150000D01*
X134075000Y-53911828D02*
X129561828Y-58425000D01*
X136861965Y-49753035D02*
X134075000Y-52540000D01*
X114159803Y-89725000D02*
X113750000Y-89315197D01*
X112875000Y-84275000D02*
X112875000Y-81906802D01*
X113750000Y-85150000D02*
X112875000Y-84275000D01*
X112875000Y-81906802D02*
X113275000Y-81506802D01*
X113275000Y-81506802D02*
X113275000Y-72075000D01*
X113275000Y-72075000D02*
X112900000Y-71700000D01*
X113750000Y-89315197D02*
X113750000Y-85150000D01*
X114050000Y-82725000D02*
X114175000Y-82600000D01*
X114175000Y-82600000D02*
X114175000Y-65925000D01*
X114175000Y-65925000D02*
X112900000Y-64650000D01*
D31*
X122650000Y-88025000D02*
X122550000Y-87925000D01*
X122550000Y-87925000D02*
X122550000Y-81325000D01*
X122550000Y-81325000D02*
X122650000Y-81225000D01*
D30*
X129002640Y-57075000D02*
X112584188Y-57075000D01*
X152961530Y-50521530D02*
X152778470Y-50521530D01*
X136500000Y-48000000D02*
X135080000Y-49420000D01*
X132725000Y-53352640D02*
X129002640Y-57075000D01*
X152778470Y-50521530D02*
X152325000Y-50975000D01*
X109025000Y-52749695D02*
X107675305Y-51400000D01*
X138900000Y-50363604D02*
X138900000Y-48960000D01*
X139511396Y-50975000D02*
X138900000Y-50363604D01*
X138900000Y-48960000D02*
X137940000Y-48000000D01*
X132725000Y-51980812D02*
X132725000Y-53352640D01*
X135080000Y-49420000D02*
X135080000Y-49625812D01*
X107675305Y-51400000D02*
X107550000Y-51400000D01*
X112584188Y-57075000D02*
X109025000Y-53515812D01*
X109025000Y-53515812D02*
X109025000Y-52749695D01*
X135080000Y-49625812D02*
X132725000Y-51980812D01*
X152325000Y-50975000D02*
X139511396Y-50975000D01*
X137940000Y-48000000D02*
X136500000Y-48000000D01*
X131825000Y-51608020D02*
X131825000Y-52979848D01*
X152225000Y-49438604D02*
X151588604Y-50075000D01*
X151588604Y-50075000D02*
X139884188Y-50075000D01*
X138545584Y-47000000D02*
X136044111Y-47000000D01*
X134180000Y-48864111D02*
X134180000Y-49253020D01*
X169025000Y-50975000D02*
X154975000Y-50975000D01*
X152913299Y-48190000D02*
X152225000Y-48878299D01*
X152225000Y-48878299D02*
X152225000Y-49438604D01*
X108800000Y-50638299D02*
X108800000Y-50000000D01*
X108800000Y-50000000D02*
X107700000Y-48900000D01*
X131825000Y-52979848D02*
X128629848Y-56175000D01*
X109925000Y-51763299D02*
X108800000Y-50638299D01*
X169552429Y-50447571D02*
X169025000Y-50975000D01*
X134180000Y-49253020D02*
X131825000Y-51608020D01*
X139800000Y-48254416D02*
X138545584Y-47000000D01*
X154975000Y-50975000D02*
X154586530Y-50586530D01*
X154586530Y-48889829D02*
X153886701Y-48190000D01*
X139800000Y-49990812D02*
X139800000Y-48254416D01*
X109925000Y-53143020D02*
X109925000Y-51763299D01*
X153886701Y-48190000D02*
X152913299Y-48190000D01*
X107700000Y-48900000D02*
X107550000Y-48900000D01*
X136044111Y-47000000D02*
X134180000Y-48864111D01*
X128629848Y-56175000D02*
X112956980Y-56175000D01*
X139884188Y-50075000D02*
X139800000Y-49990812D01*
X112956980Y-56175000D02*
X109925000Y-53143020D01*
X169552429Y-50391204D02*
X169552429Y-50447571D01*
X154586530Y-50586530D02*
X154586530Y-48889829D01*
X138000000Y-49500000D02*
X137500000Y-49000000D01*
X137500000Y-49000000D02*
X136978604Y-49000000D01*
X133625000Y-53725432D02*
X129375432Y-57975000D01*
X138000000Y-50250000D02*
X138000000Y-49500000D01*
X136978604Y-49000000D02*
X133625000Y-52353604D01*
X129375432Y-57975000D02*
X112211396Y-57975000D01*
X133625000Y-52353604D02*
X133625000Y-53725432D01*
X108136396Y-53900000D02*
X107550000Y-53900000D01*
X137090429Y-51002084D02*
X137247916Y-51002084D01*
X112211396Y-57975000D02*
X108136396Y-53900000D01*
X137247916Y-51002084D02*
X138000000Y-50250000D01*
X122160000Y-62750000D02*
X121375000Y-63535000D01*
X131737322Y-62750000D02*
X122160000Y-62750000D01*
X131743661Y-62743661D02*
X131737322Y-62750000D01*
X112825000Y-81320406D02*
X112825000Y-73150000D01*
X112825000Y-73150000D02*
X112375000Y-72700000D01*
X114150000Y-90825000D02*
X114150000Y-90740502D01*
X113300000Y-85336396D02*
X112425000Y-84461396D01*
X113300000Y-89890502D02*
X113300000Y-85336396D01*
X112425000Y-81720406D02*
X112825000Y-81320406D01*
X112425000Y-84461396D02*
X112425000Y-81720406D01*
X114150000Y-90740502D02*
X113300000Y-89890502D01*
X113725000Y-81693198D02*
X113725000Y-66725000D01*
X113325000Y-83350000D02*
X113325000Y-82093198D01*
X113325000Y-82093198D02*
X113725000Y-81693198D01*
X113725000Y-66725000D02*
X112900000Y-65900000D01*
X114050000Y-84075000D02*
X113325000Y-83350000D01*
D31*
X140732111Y-101216210D02*
X140765901Y-101250000D01*
X140765901Y-101250000D02*
X173800000Y-101250000D01*
D30*
X147500000Y-105000000D02*
X132522792Y-105000000D01*
X124150000Y-92240000D02*
X121375000Y-89465000D01*
X124150000Y-96627208D02*
X124150000Y-92240000D01*
X132522792Y-105000000D02*
X124150000Y-96627208D01*
X149250000Y-103250000D02*
X147500000Y-105000000D01*
X122515000Y-96265000D02*
X121375000Y-96265000D01*
X153563299Y-103500000D02*
X151163299Y-105900000D01*
X165000000Y-103500000D02*
X153563299Y-103500000D01*
X165500000Y-103000000D02*
X165000000Y-103500000D01*
X151163299Y-105900000D02*
X132150000Y-105900000D01*
X132150000Y-105900000D02*
X122515000Y-96265000D01*
X121515000Y-96265000D02*
X121375000Y-96265000D01*
D31*
X165552500Y-127500000D02*
X165460000Y-127592500D01*
X167115003Y-125822497D02*
X167115003Y-127384997D01*
X167115003Y-127384997D02*
X167000000Y-127500000D01*
X167000000Y-127500000D02*
X165552500Y-127500000D01*
X169015003Y-125822497D02*
X169015003Y-127265003D01*
X169250000Y-127500000D02*
X170447500Y-127500000D01*
X169015003Y-127265003D02*
X169250000Y-127500000D01*
X170447500Y-127500000D02*
X170540000Y-127592500D01*
X176700000Y-127450000D02*
X176842500Y-127592500D01*
X176700000Y-125887500D02*
X176700000Y-127450000D01*
X176842500Y-127592500D02*
X178290000Y-127592500D01*
X174657500Y-127592500D02*
X173210000Y-127592500D01*
X174800000Y-125887500D02*
X174800000Y-127450000D01*
X174800000Y-127450000D02*
X174657500Y-127592500D01*
X159300000Y-125887500D02*
X159300000Y-127200000D01*
X158907500Y-127592500D02*
X157710000Y-127592500D01*
X159300000Y-127200000D02*
X158907500Y-127592500D01*
X161592500Y-127592500D02*
X161200000Y-127200000D01*
X162790000Y-127592500D02*
X161592500Y-127592500D01*
X161200000Y-127200000D02*
X161200000Y-125887500D01*
D30*
X150262653Y-103262653D02*
X148075306Y-105450000D01*
X148075306Y-105450000D02*
X132336396Y-105450000D01*
X123400000Y-96513604D02*
X123400000Y-93650000D01*
X132336396Y-105450000D02*
X123400000Y-96513604D01*
X126013604Y-100400000D02*
X123400000Y-100400000D01*
X165575306Y-103950000D02*
X153749695Y-103950000D01*
X151349695Y-106350000D02*
X131963604Y-106350000D01*
X166512653Y-103012653D02*
X165575306Y-103950000D01*
X131963604Y-106350000D02*
X126013604Y-100400000D01*
X153749695Y-103950000D02*
X151349695Y-106350000D01*
D31*
X153450000Y-127200000D02*
X153842500Y-127592500D01*
X153450000Y-125887500D02*
X153450000Y-127200000D01*
X153842500Y-127592500D02*
X155040000Y-127592500D01*
X151550000Y-125887500D02*
X151550000Y-127200000D01*
X151550000Y-127200000D02*
X151157500Y-127592500D01*
X151157500Y-127592500D02*
X149960000Y-127592500D01*
G04 #@! TA.AperFunction,Conductor*
G36*
X178443039Y-72519685D02*
G01*
X178488794Y-72572489D01*
X178500000Y-72624000D01*
X178500000Y-80948637D01*
X178480315Y-81015676D01*
X178463681Y-81036318D01*
X177786818Y-81713181D01*
X177725495Y-81746666D01*
X177699137Y-81749500D01*
X175691971Y-81749500D01*
X175691950Y-81749501D01*
X175691826Y-81749513D01*
X175680852Y-81750000D01*
X173749999Y-81750000D01*
X173000000Y-82499999D01*
X173000000Y-87376000D01*
X172980315Y-87443039D01*
X172927511Y-87488794D01*
X172876000Y-87500000D01*
X170124000Y-87500000D01*
X170056961Y-87480315D01*
X170011206Y-87427511D01*
X170000000Y-87376000D01*
X170000000Y-79801362D01*
X170019685Y-79734323D01*
X170036319Y-79713681D01*
X171463181Y-78286819D01*
X171524504Y-78253334D01*
X171550862Y-78250500D01*
X171597499Y-78250500D01*
X171597506Y-78250500D01*
X171889993Y-78211993D01*
X172174952Y-78135639D01*
X172447507Y-78022743D01*
X172458123Y-78016614D01*
X172520125Y-78000000D01*
X175000000Y-78000000D01*
X175500000Y-77500000D01*
X175500000Y-72624000D01*
X175519685Y-72556961D01*
X175572489Y-72511206D01*
X175624000Y-72500000D01*
X178376000Y-72500000D01*
X178443039Y-72519685D01*
G37*
G04 #@! TD.AperFunction*
G04 #@! TA.AperFunction,Conductor*
G36*
X162282375Y-30045713D02*
G01*
X162286630Y-30046983D01*
X162335649Y-30061852D01*
X162426029Y-30099289D01*
X162512230Y-30145365D01*
X162593563Y-30199710D01*
X162669115Y-30261714D01*
X162738285Y-30330884D01*
X162800289Y-30406436D01*
X162854634Y-30487769D01*
X162900710Y-30573970D01*
X162938145Y-30664345D01*
X162966520Y-30757884D01*
X162985602Y-30853819D01*
X162997597Y-30975600D01*
X163000000Y-31024513D01*
X163000000Y-47650500D01*
X162979787Y-47791085D01*
X162920786Y-47920280D01*
X162827776Y-48027619D01*
X162708292Y-48104406D01*
X162572015Y-48144421D01*
X162501000Y-48149500D01*
X158499000Y-48149500D01*
X158358415Y-48129287D01*
X158229220Y-48070286D01*
X158121881Y-47977276D01*
X158045094Y-47857792D01*
X158005079Y-47721515D01*
X158000000Y-47650500D01*
X158000000Y-47249999D01*
X152500001Y-41750000D01*
X152500000Y-41750000D01*
X152085786Y-41750000D01*
X150274513Y-41750000D01*
X150225604Y-41747597D01*
X150159680Y-41741104D01*
X150103819Y-41735602D01*
X150007884Y-41716520D01*
X149914345Y-41688145D01*
X149823970Y-41650710D01*
X149737769Y-41604634D01*
X149656436Y-41550289D01*
X149580884Y-41488285D01*
X149511714Y-41419115D01*
X149449710Y-41343563D01*
X149395365Y-41262230D01*
X149349289Y-41176029D01*
X149311855Y-41085659D01*
X149283477Y-40992108D01*
X149264397Y-40896176D01*
X149252403Y-40774395D01*
X149250000Y-40725486D01*
X149250000Y-31024513D01*
X149252403Y-30975604D01*
X149264397Y-30853823D01*
X149283477Y-30757893D01*
X149311856Y-30664336D01*
X149349289Y-30573970D01*
X149395365Y-30487769D01*
X149449706Y-30406441D01*
X149511717Y-30330880D01*
X149580880Y-30261717D01*
X149656441Y-30199706D01*
X149737769Y-30145365D01*
X149761643Y-30132603D01*
X149823973Y-30099287D01*
X149914348Y-30061853D01*
X149963370Y-30046982D01*
X150103769Y-30025520D01*
X150108210Y-30025500D01*
X162141790Y-30025500D01*
X162282375Y-30045713D01*
G37*
G04 #@! TD.AperFunction*
G04 #@! TA.AperFunction,Conductor*
G36*
X178582110Y-30045713D02*
G01*
X178711305Y-30104714D01*
X178818644Y-30197724D01*
X178895431Y-30317208D01*
X178935446Y-30453485D01*
X178935446Y-30595515D01*
X178928014Y-30635537D01*
X178879687Y-30847268D01*
X178879686Y-30847277D01*
X178849500Y-31115184D01*
X178849500Y-31384815D01*
X178879685Y-31652712D01*
X178879688Y-31652734D01*
X178905076Y-31763966D01*
X178916652Y-31905524D01*
X178905076Y-31986034D01*
X178879688Y-32097265D01*
X178879685Y-32097287D01*
X178849500Y-32365184D01*
X178849500Y-32634815D01*
X178879685Y-32902712D01*
X178879688Y-32902734D01*
X178905076Y-33013966D01*
X178916652Y-33155524D01*
X178905076Y-33236034D01*
X178879688Y-33347265D01*
X178879685Y-33347287D01*
X178849500Y-33615184D01*
X178849500Y-33884815D01*
X178879685Y-34152712D01*
X178879688Y-34152734D01*
X178905076Y-34263966D01*
X178916652Y-34405524D01*
X178905076Y-34486034D01*
X178879688Y-34597265D01*
X178879685Y-34597287D01*
X178849500Y-34865184D01*
X178849500Y-35134815D01*
X178879685Y-35402712D01*
X178879688Y-35402734D01*
X178905076Y-35513966D01*
X178916652Y-35655524D01*
X178905076Y-35736034D01*
X178879688Y-35847265D01*
X178879685Y-35847287D01*
X178849500Y-36115184D01*
X178849500Y-36384815D01*
X178879685Y-36652712D01*
X178879688Y-36652734D01*
X178905076Y-36763966D01*
X178916652Y-36905524D01*
X178905076Y-36986034D01*
X178879688Y-37097265D01*
X178879685Y-37097287D01*
X178849500Y-37365184D01*
X178849500Y-37634815D01*
X178879685Y-37902712D01*
X178879688Y-37902734D01*
X178905076Y-38013966D01*
X178916652Y-38155524D01*
X178905076Y-38236034D01*
X178879688Y-38347265D01*
X178879685Y-38347287D01*
X178849500Y-38615184D01*
X178849500Y-38884815D01*
X178879685Y-39152712D01*
X178879688Y-39152734D01*
X178905076Y-39263966D01*
X178916652Y-39405524D01*
X178905076Y-39486034D01*
X178879688Y-39597265D01*
X178879685Y-39597287D01*
X178849500Y-39865184D01*
X178849500Y-40134815D01*
X178879685Y-40402712D01*
X178879688Y-40402734D01*
X178905076Y-40513966D01*
X178916652Y-40655524D01*
X178905076Y-40736034D01*
X178879688Y-40847265D01*
X178879685Y-40847287D01*
X178849500Y-41115184D01*
X178849500Y-41384815D01*
X178879685Y-41652712D01*
X178879688Y-41652734D01*
X178905076Y-41763966D01*
X178916652Y-41905524D01*
X178905076Y-41986034D01*
X178879688Y-42097265D01*
X178879685Y-42097287D01*
X178849500Y-42365184D01*
X178849500Y-42634815D01*
X178879685Y-42902712D01*
X178879688Y-42902734D01*
X178905076Y-43013966D01*
X178916652Y-43155524D01*
X178905076Y-43236034D01*
X178879688Y-43347265D01*
X178879685Y-43347287D01*
X178849500Y-43615184D01*
X178849500Y-43884815D01*
X178879685Y-44152712D01*
X178879688Y-44152734D01*
X178905076Y-44263966D01*
X178916652Y-44405524D01*
X178905076Y-44486034D01*
X178879688Y-44597265D01*
X178879685Y-44597287D01*
X178849500Y-44865184D01*
X178849500Y-45134815D01*
X178879685Y-45402712D01*
X178880524Y-45407648D01*
X178880606Y-45410890D01*
X178881255Y-45416644D01*
X178880755Y-45416700D01*
X178884148Y-45549632D01*
X178847625Y-45686886D01*
X178808362Y-45761025D01*
X178545347Y-46170285D01*
X178288590Y-46640500D01*
X178066022Y-47127857D01*
X177878799Y-47629820D01*
X177878793Y-47629838D01*
X177727855Y-48143883D01*
X177727846Y-48143916D01*
X177613970Y-48667399D01*
X177613968Y-48667408D01*
X177555795Y-49072015D01*
X177515780Y-49208292D01*
X177438993Y-49327776D01*
X177331653Y-49420786D01*
X177202458Y-49479787D01*
X177061874Y-49500000D01*
X175524513Y-49500000D01*
X175475604Y-49497597D01*
X175409680Y-49491104D01*
X175353819Y-49485602D01*
X175257884Y-49466520D01*
X175164345Y-49438145D01*
X175073970Y-49400710D01*
X174987769Y-49354634D01*
X174906436Y-49300289D01*
X174830884Y-49238285D01*
X174761714Y-49169115D01*
X174699710Y-49093563D01*
X174645365Y-49012230D01*
X174599289Y-48926029D01*
X174561855Y-48835659D01*
X174533477Y-48742108D01*
X174514397Y-48646176D01*
X174502403Y-48524395D01*
X174500000Y-48475486D01*
X174500000Y-47249999D01*
X169000001Y-41750000D01*
X169000000Y-41750000D01*
X168585786Y-41750000D01*
X166774513Y-41750000D01*
X166725604Y-41747597D01*
X166659680Y-41741104D01*
X166603819Y-41735602D01*
X166507884Y-41716520D01*
X166414345Y-41688145D01*
X166323970Y-41650710D01*
X166237769Y-41604634D01*
X166156436Y-41550289D01*
X166080884Y-41488285D01*
X166011714Y-41419115D01*
X165949710Y-41343563D01*
X165895365Y-41262230D01*
X165849289Y-41176029D01*
X165811855Y-41085659D01*
X165783477Y-40992108D01*
X165764397Y-40896176D01*
X165752403Y-40774395D01*
X165750000Y-40725486D01*
X165750000Y-31024513D01*
X165752403Y-30975604D01*
X165764397Y-30853823D01*
X165783477Y-30757893D01*
X165811856Y-30664336D01*
X165849289Y-30573970D01*
X165895365Y-30487769D01*
X165949706Y-30406441D01*
X166011717Y-30330880D01*
X166080880Y-30261717D01*
X166156441Y-30199706D01*
X166237769Y-30145365D01*
X166313821Y-30104714D01*
X166323973Y-30099287D01*
X166414348Y-30061853D01*
X166463370Y-30046982D01*
X166603769Y-30025520D01*
X166608210Y-30025500D01*
X178441525Y-30025500D01*
X178582110Y-30045713D01*
G37*
G04 #@! TD.AperFunction*
G04 #@! TA.AperFunction,Conductor*
G36*
X145443039Y-72519685D02*
G01*
X145488794Y-72572489D01*
X145500000Y-72624000D01*
X145500000Y-81198637D01*
X145480315Y-81265676D01*
X145463681Y-81286318D01*
X145036818Y-81713181D01*
X144975495Y-81746666D01*
X144949137Y-81749500D01*
X142691971Y-81749500D01*
X142691965Y-81749500D01*
X142691964Y-81749501D01*
X142680316Y-81750536D01*
X142572584Y-81760113D01*
X142376954Y-81816089D01*
X142196587Y-81910305D01*
X142120800Y-81972102D01*
X142056404Y-81999211D01*
X142042440Y-82000000D01*
X140749999Y-82000000D01*
X140000000Y-82749999D01*
X140000000Y-87376000D01*
X139980315Y-87443039D01*
X139927511Y-87488794D01*
X139876000Y-87500000D01*
X137124000Y-87500000D01*
X137056961Y-87480315D01*
X137011206Y-87427511D01*
X137000000Y-87376000D01*
X137000000Y-79301361D01*
X137019685Y-79234322D01*
X137036314Y-79213685D01*
X137991513Y-78258486D01*
X138052832Y-78225004D01*
X138095369Y-78223231D01*
X138302494Y-78250500D01*
X138302501Y-78250500D01*
X138597499Y-78250500D01*
X138597506Y-78250500D01*
X138889993Y-78211993D01*
X139174952Y-78135639D01*
X139447507Y-78022743D01*
X139458123Y-78016614D01*
X139520125Y-78000000D01*
X142000000Y-78000000D01*
X142500000Y-77500000D01*
X142500000Y-72624000D01*
X142519685Y-72556961D01*
X142572489Y-72511206D01*
X142624000Y-72500000D01*
X145376000Y-72500000D01*
X145443039Y-72519685D01*
G37*
G04 #@! TD.AperFunction*
G04 #@! TA.AperFunction,Conductor*
G36*
X161943039Y-72519685D02*
G01*
X161988794Y-72572489D01*
X162000000Y-72624000D01*
X162000000Y-81198637D01*
X161980315Y-81265676D01*
X161963681Y-81286318D01*
X161536818Y-81713181D01*
X161475495Y-81746666D01*
X161449137Y-81749500D01*
X159191971Y-81749500D01*
X159191965Y-81749500D01*
X159191964Y-81749501D01*
X159180316Y-81750536D01*
X159072584Y-81760113D01*
X158876954Y-81816089D01*
X158696587Y-81910305D01*
X158620800Y-81972102D01*
X158556404Y-81999211D01*
X158542440Y-82000000D01*
X157249999Y-82000000D01*
X156500000Y-82749999D01*
X156500000Y-87376000D01*
X156480315Y-87443039D01*
X156427511Y-87488794D01*
X156376000Y-87500000D01*
X153624000Y-87500000D01*
X153556961Y-87480315D01*
X153511206Y-87427511D01*
X153500000Y-87376000D01*
X153500000Y-79301361D01*
X153519685Y-79234322D01*
X153536314Y-79213685D01*
X154491513Y-78258486D01*
X154552832Y-78225004D01*
X154595369Y-78223231D01*
X154802494Y-78250500D01*
X154802501Y-78250500D01*
X155097499Y-78250500D01*
X155097506Y-78250500D01*
X155389993Y-78211993D01*
X155674952Y-78135639D01*
X155947507Y-78022743D01*
X155958123Y-78016614D01*
X156020125Y-78000000D01*
X158500000Y-78000000D01*
X159000000Y-77500000D01*
X159000000Y-72624000D01*
X159019685Y-72556961D01*
X159072489Y-72511206D01*
X159124000Y-72500000D01*
X161876000Y-72500000D01*
X161943039Y-72519685D01*
G37*
G04 #@! TD.AperFunction*
G04 #@! TA.AperFunction,Conductor*
G36*
X146032375Y-30045713D02*
G01*
X146036630Y-30046983D01*
X146085649Y-30061852D01*
X146176029Y-30099289D01*
X146262230Y-30145365D01*
X146343563Y-30199710D01*
X146419115Y-30261714D01*
X146488285Y-30330884D01*
X146550289Y-30406436D01*
X146604634Y-30487769D01*
X146650710Y-30573970D01*
X146688145Y-30664345D01*
X146716520Y-30757884D01*
X146735602Y-30853819D01*
X146747597Y-30975600D01*
X146750000Y-31024513D01*
X146750000Y-46750500D01*
X146729787Y-46891085D01*
X146670786Y-47020280D01*
X146577776Y-47127619D01*
X146458292Y-47204406D01*
X146322015Y-47244421D01*
X146251000Y-47249500D01*
X142819073Y-47249500D01*
X142678488Y-47229287D01*
X142549293Y-47170286D01*
X142441954Y-47077276D01*
X142386926Y-47000000D01*
X142324044Y-46891085D01*
X142250238Y-46763249D01*
X142070646Y-46529201D01*
X141862042Y-46320597D01*
X141862041Y-46320596D01*
X140070797Y-44529353D01*
X140070794Y-44529351D01*
X140070789Y-44529346D01*
X139947586Y-44434810D01*
X139947583Y-44434806D01*
X139836755Y-44349765D01*
X139836741Y-44349756D01*
X139689246Y-44264599D01*
X139689246Y-44264600D01*
X139581257Y-44202253D01*
X139421605Y-44136124D01*
X139421603Y-44136123D01*
X139308708Y-44089361D01*
X139308697Y-44089358D01*
X139232356Y-44068901D01*
X139232353Y-44068901D01*
X139023748Y-44013006D01*
X139023747Y-44013005D01*
X139023744Y-44013005D01*
X139023739Y-44013004D01*
X138768063Y-43979344D01*
X138768055Y-43979343D01*
X138737680Y-43975345D01*
X138731262Y-43974500D01*
X138179154Y-43974500D01*
X138177087Y-43974483D01*
X138108912Y-43964107D01*
X138040607Y-43954287D01*
X138038720Y-43953425D01*
X138036673Y-43953114D01*
X137974203Y-43923961D01*
X137911412Y-43895286D01*
X137909564Y-43893796D01*
X137907968Y-43893052D01*
X137900763Y-43886704D01*
X137828346Y-43828346D01*
X135750001Y-41750000D01*
X135750000Y-41750000D01*
X135335786Y-41750000D01*
X134024513Y-41750000D01*
X133975604Y-41747597D01*
X133909680Y-41741104D01*
X133853819Y-41735602D01*
X133757884Y-41716520D01*
X133664345Y-41688145D01*
X133573970Y-41650710D01*
X133487769Y-41604634D01*
X133406436Y-41550289D01*
X133330884Y-41488285D01*
X133261714Y-41419115D01*
X133199710Y-41343563D01*
X133145365Y-41262230D01*
X133099289Y-41176029D01*
X133061855Y-41085659D01*
X133033477Y-40992108D01*
X133014397Y-40896176D01*
X133002403Y-40774395D01*
X133000000Y-40725486D01*
X133000000Y-31024513D01*
X133002403Y-30975604D01*
X133014397Y-30853823D01*
X133033477Y-30757893D01*
X133061856Y-30664336D01*
X133099289Y-30573970D01*
X133145365Y-30487769D01*
X133199706Y-30406441D01*
X133261717Y-30330880D01*
X133330880Y-30261717D01*
X133406441Y-30199706D01*
X133487769Y-30145365D01*
X133511643Y-30132603D01*
X133573973Y-30099287D01*
X133664348Y-30061853D01*
X133713370Y-30046982D01*
X133853769Y-30025520D01*
X133858210Y-30025500D01*
X145891790Y-30025500D01*
X146032375Y-30045713D01*
G37*
G04 #@! TD.AperFunction*
G04 #@! TA.AperFunction,Conductor*
G36*
X131060109Y-30045185D02*
G01*
X131105864Y-30097989D01*
X131115808Y-30167147D01*
X131113354Y-30179627D01*
X131066513Y-30366639D01*
X131066504Y-30366683D01*
X131047425Y-30462605D01*
X131018555Y-30657243D01*
X131018549Y-30657285D01*
X131007785Y-30766589D01*
X131006559Y-30779037D01*
X130999319Y-30877188D01*
X130996916Y-30926097D01*
X130995060Y-31001723D01*
X130994500Y-31024527D01*
X130994500Y-31155576D01*
X130992117Y-31179767D01*
X130934176Y-31471053D01*
X130934173Y-31471070D01*
X130899500Y-31823122D01*
X130899500Y-33976877D01*
X130934173Y-34328929D01*
X130934175Y-34328942D01*
X130992117Y-34620230D01*
X130994500Y-34644422D01*
X130994500Y-38155576D01*
X130992117Y-38179767D01*
X130934176Y-38471053D01*
X130934173Y-38471070D01*
X130913574Y-38680223D01*
X130899500Y-38823119D01*
X130899500Y-40976881D01*
X130903891Y-41021459D01*
X130934173Y-41328929D01*
X130934176Y-41328946D01*
X131003185Y-41675884D01*
X131003188Y-41675895D01*
X131105882Y-42014436D01*
X131241262Y-42341271D01*
X131241264Y-42341276D01*
X131408017Y-42653247D01*
X131408028Y-42653265D01*
X131604558Y-42947393D01*
X131604568Y-42947407D01*
X131828992Y-43220869D01*
X132079130Y-43471007D01*
X132079135Y-43471011D01*
X132079136Y-43471012D01*
X132352598Y-43695436D01*
X132646741Y-43891976D01*
X132646750Y-43891981D01*
X132646752Y-43891982D01*
X132958723Y-44058735D01*
X132958725Y-44058735D01*
X132958731Y-44058739D01*
X133285565Y-44194118D01*
X133624095Y-44296809D01*
X133624101Y-44296810D01*
X133624104Y-44296811D01*
X133624115Y-44296814D01*
X133841674Y-44340088D01*
X133971060Y-44365825D01*
X134323119Y-44400500D01*
X134323122Y-44400500D01*
X134676878Y-44400500D01*
X134676881Y-44400500D01*
X135028940Y-44365825D01*
X135375905Y-44296809D01*
X135375905Y-44296808D01*
X135378891Y-44296215D01*
X135379058Y-44297056D01*
X135445300Y-44299712D01*
X135493308Y-44329512D01*
X136410243Y-45246448D01*
X136410259Y-45246462D01*
X136410266Y-45246469D01*
X136569917Y-45389877D01*
X136569930Y-45389887D01*
X136569948Y-45389904D01*
X136642365Y-45448262D01*
X136650772Y-45455036D01*
X136650772Y-45455037D01*
X136652620Y-45456527D01*
X136652635Y-45456538D01*
X136653916Y-45457570D01*
X136653921Y-45457574D01*
X136668368Y-45469217D01*
X136679861Y-45476176D01*
X136779929Y-45548354D01*
X136810559Y-45571659D01*
X136817900Y-45575742D01*
X136827172Y-45582430D01*
X136977128Y-45664310D01*
X137060619Y-45710751D01*
X137062215Y-45711495D01*
X137062484Y-45710917D01*
X137078314Y-45719561D01*
X137133114Y-45744586D01*
X137133919Y-45744957D01*
X137188568Y-45770461D01*
X137188669Y-45770508D01*
X137189013Y-45770668D01*
X137189018Y-45770670D01*
X137189033Y-45770677D01*
X137192785Y-45772110D01*
X137200039Y-45775150D01*
X137207258Y-45778448D01*
X137207493Y-45778554D01*
X137207513Y-45778563D01*
X137297655Y-45812182D01*
X137298172Y-45812377D01*
X137456327Y-45872809D01*
X137457990Y-45873184D01*
X137474013Y-45877959D01*
X137475614Y-45878556D01*
X137641498Y-45914640D01*
X137735435Y-45935861D01*
X137737482Y-45936172D01*
X137737578Y-45935540D01*
X137755217Y-45939377D01*
X137815011Y-45947973D01*
X137815699Y-45948074D01*
X137875332Y-45957151D01*
X137875358Y-45957155D01*
X138160593Y-45979915D01*
X138162660Y-45979932D01*
X138179154Y-45980000D01*
X138591694Y-45980000D01*
X138607872Y-45981060D01*
X138623587Y-45983128D01*
X138639504Y-45986294D01*
X138652387Y-45989746D01*
X138654833Y-45990402D01*
X138670181Y-45995611D01*
X138684852Y-46001688D01*
X138699391Y-46008858D01*
X138713112Y-46016779D01*
X138726599Y-46025791D01*
X138739197Y-46035458D01*
X138751391Y-46046152D01*
X140553848Y-47848608D01*
X140564536Y-47860795D01*
X140574201Y-47873390D01*
X140583209Y-47886871D01*
X140650106Y-48002741D01*
X140650127Y-48002774D01*
X140753262Y-48163257D01*
X140753303Y-48163317D01*
X140808309Y-48240563D01*
X140808350Y-48240617D01*
X140926297Y-48390597D01*
X140926308Y-48390609D01*
X141109601Y-48573902D01*
X141128629Y-48592930D01*
X141227306Y-48678434D01*
X141232619Y-48683038D01*
X141232623Y-48683042D01*
X141235980Y-48685951D01*
X141465040Y-48857422D01*
X141465045Y-48857425D01*
X141716173Y-48994550D01*
X141716178Y-48994552D01*
X141716183Y-48994555D01*
X141845378Y-49053556D01*
X142113474Y-49153550D01*
X142183035Y-49168682D01*
X142393070Y-49214373D01*
X142393077Y-49214374D01*
X142533662Y-49234587D01*
X142819073Y-49255000D01*
X146251000Y-49255000D01*
X146394068Y-49249890D01*
X146465083Y-49244811D01*
X146607434Y-49229507D01*
X146887036Y-49168682D01*
X147023313Y-49128667D01*
X147291399Y-49028676D01*
X147291403Y-49028673D01*
X147291405Y-49028673D01*
X147291411Y-49028670D01*
X147473845Y-48929054D01*
X147542540Y-48891544D01*
X147660465Y-48815758D01*
X147661355Y-48815206D01*
X147662003Y-48814769D01*
X147662024Y-48814757D01*
X147662029Y-48814754D01*
X147891097Y-48643276D01*
X148093430Y-48440944D01*
X148186440Y-48333605D01*
X148186445Y-48333600D01*
X148357923Y-48104531D01*
X148495055Y-47853390D01*
X148554056Y-47724195D01*
X148654050Y-47456099D01*
X148711004Y-47194287D01*
X148714873Y-47176502D01*
X148717007Y-47161658D01*
X148735087Y-47035911D01*
X148755500Y-46750500D01*
X148755500Y-43862544D01*
X148775185Y-43795505D01*
X148827989Y-43749750D01*
X148897147Y-43739806D01*
X148948388Y-43759440D01*
X149146741Y-43891976D01*
X149146750Y-43891981D01*
X149146752Y-43891982D01*
X149458723Y-44058735D01*
X149458725Y-44058735D01*
X149458731Y-44058739D01*
X149785565Y-44194118D01*
X150124095Y-44296809D01*
X150124101Y-44296810D01*
X150124104Y-44296811D01*
X150124115Y-44296814D01*
X150341674Y-44340088D01*
X150471060Y-44365825D01*
X150823119Y-44400500D01*
X150823122Y-44400500D01*
X151176878Y-44400500D01*
X151176881Y-44400500D01*
X151528940Y-44365825D01*
X151711492Y-44329513D01*
X151875884Y-44296814D01*
X151875895Y-44296811D01*
X151875895Y-44296810D01*
X151875905Y-44296809D01*
X152061584Y-44240483D01*
X152131450Y-44239861D01*
X152185259Y-44271464D01*
X156021844Y-48108049D01*
X156055329Y-48169370D01*
X156058870Y-48185646D01*
X156070514Y-48239173D01*
X156080820Y-48286544D01*
X156120833Y-48422813D01*
X156220826Y-48690905D01*
X156220829Y-48690911D01*
X156357947Y-48942026D01*
X156357952Y-48942034D01*
X156433719Y-49059932D01*
X156434279Y-49060833D01*
X156434752Y-49061538D01*
X156606217Y-49290589D01*
X156606233Y-49290607D01*
X156725203Y-49409577D01*
X156808556Y-49492930D01*
X156911795Y-49582387D01*
X156912546Y-49583038D01*
X156912550Y-49583042D01*
X156915907Y-49585951D01*
X157144967Y-49757422D01*
X157144972Y-49757425D01*
X157396100Y-49894550D01*
X157396105Y-49894552D01*
X157396110Y-49894555D01*
X157525305Y-49953556D01*
X157793401Y-50053550D01*
X157862962Y-50068682D01*
X158072997Y-50114373D01*
X158073004Y-50114374D01*
X158213589Y-50134587D01*
X158499000Y-50155000D01*
X162501000Y-50155000D01*
X162644068Y-50149890D01*
X162715083Y-50144811D01*
X162857434Y-50129507D01*
X163137036Y-50068682D01*
X163273313Y-50028667D01*
X163541399Y-49928676D01*
X163541403Y-49928673D01*
X163541405Y-49928673D01*
X163541411Y-49928670D01*
X163771492Y-49803037D01*
X163792540Y-49791544D01*
X163910465Y-49715758D01*
X163911355Y-49715206D01*
X163912003Y-49714769D01*
X163912024Y-49714757D01*
X163912029Y-49714754D01*
X164141097Y-49543276D01*
X164343430Y-49340944D01*
X164436440Y-49233605D01*
X164436445Y-49233600D01*
X164607923Y-49004531D01*
X164745055Y-48753390D01*
X164804056Y-48624195D01*
X164904050Y-48356099D01*
X164958775Y-48104532D01*
X164964873Y-48076502D01*
X164968029Y-48054551D01*
X164985087Y-47935911D01*
X165005500Y-47650500D01*
X165005500Y-43672756D01*
X165025185Y-43605717D01*
X165077989Y-43559962D01*
X165147147Y-43550018D01*
X165208164Y-43576902D01*
X165352598Y-43695436D01*
X165646741Y-43891976D01*
X165646750Y-43891981D01*
X165646752Y-43891982D01*
X165958723Y-44058735D01*
X165958725Y-44058735D01*
X165958731Y-44058739D01*
X166285565Y-44194118D01*
X166624095Y-44296809D01*
X166624101Y-44296810D01*
X166624104Y-44296811D01*
X166624115Y-44296814D01*
X166841674Y-44340088D01*
X166971060Y-44365825D01*
X167323119Y-44400500D01*
X167323122Y-44400500D01*
X167676878Y-44400500D01*
X167676881Y-44400500D01*
X168028940Y-44365825D01*
X168211492Y-44329513D01*
X168375884Y-44296814D01*
X168375895Y-44296811D01*
X168375895Y-44296810D01*
X168375905Y-44296809D01*
X168561584Y-44240483D01*
X168631450Y-44239861D01*
X168685259Y-44271464D01*
X172458181Y-48044386D01*
X172491666Y-48105709D01*
X172494500Y-48132067D01*
X172494500Y-48475486D01*
X172496765Y-48567751D01*
X172496916Y-48573903D01*
X172499320Y-48622826D01*
X172506559Y-48720961D01*
X172518551Y-48842726D01*
X172518553Y-48842742D01*
X172547422Y-49037381D01*
X172547424Y-49037389D01*
X172566506Y-49133331D01*
X172614331Y-49324268D01*
X172619390Y-49340944D01*
X172642709Y-49417818D01*
X172706746Y-49596786D01*
X172709031Y-49603170D01*
X172746454Y-49693513D01*
X172746469Y-49693546D01*
X172830590Y-49871404D01*
X172830609Y-49871441D01*
X172876655Y-49957588D01*
X172876680Y-49957631D01*
X172977854Y-50126428D01*
X172977860Y-50126438D01*
X173032187Y-50207743D01*
X173032198Y-50207759D01*
X173149438Y-50365840D01*
X173169439Y-50390211D01*
X173211445Y-50441396D01*
X173343605Y-50587212D01*
X173412786Y-50656393D01*
X173558602Y-50788553D01*
X173558607Y-50788557D01*
X173634159Y-50850561D01*
X173749972Y-50936453D01*
X173792239Y-50967800D01*
X173792255Y-50967811D01*
X173873560Y-51022138D01*
X173873570Y-51022144D01*
X173873573Y-51022146D01*
X174042373Y-51123322D01*
X174042383Y-51123327D01*
X174042410Y-51123343D01*
X174128557Y-51169389D01*
X174128574Y-51169398D01*
X174306491Y-51253547D01*
X174396866Y-51290982D01*
X174396872Y-51290984D01*
X174396896Y-51290994D01*
X174582158Y-51357282D01*
X174582165Y-51357284D01*
X174582169Y-51357285D01*
X174582174Y-51357287D01*
X174675713Y-51385662D01*
X174866643Y-51433487D01*
X174962578Y-51452569D01*
X175157242Y-51481445D01*
X175279027Y-51493440D01*
X175377188Y-51500681D01*
X175426097Y-51503084D01*
X175524513Y-51505500D01*
X175524528Y-51505500D01*
X177061875Y-51505500D01*
X177347287Y-51485087D01*
X177487871Y-51464874D01*
X177487872Y-51464873D01*
X177487877Y-51464873D01*
X177748593Y-51408158D01*
X177767468Y-51404052D01*
X178035568Y-51304056D01*
X178164763Y-51245055D01*
X178415902Y-51107924D01*
X178644971Y-50936446D01*
X178751535Y-50844108D01*
X178752110Y-50843619D01*
X178752311Y-50843436D01*
X178752323Y-50843426D01*
X178954654Y-50641093D01*
X179126131Y-50412024D01*
X179202918Y-50292540D01*
X179340044Y-50041413D01*
X179440041Y-49773313D01*
X179480056Y-49637036D01*
X179480059Y-49637026D01*
X179540882Y-49357424D01*
X179588232Y-49028088D01*
X179589799Y-49019407D01*
X179671350Y-48644519D01*
X179673537Y-48635950D01*
X179675471Y-48629364D01*
X179781630Y-48267819D01*
X179784414Y-48259451D01*
X179918509Y-47899930D01*
X179921878Y-47891800D01*
X180081274Y-47542769D01*
X180085209Y-47534908D01*
X180269085Y-47198162D01*
X180273589Y-47190572D01*
X180495497Y-46845279D01*
X180580671Y-46699615D01*
X180619934Y-46625476D01*
X180692563Y-46473164D01*
X180785683Y-46202599D01*
X180822206Y-46065345D01*
X180858899Y-45873183D01*
X180875869Y-45784312D01*
X180875869Y-45784309D01*
X180875871Y-45784300D01*
X180888995Y-45498460D01*
X180885602Y-45365528D01*
X180885601Y-45365528D01*
X180885465Y-45360181D01*
X180885383Y-45356939D01*
X180885369Y-45356379D01*
X180885367Y-45356363D01*
X180885312Y-45354207D01*
X180885312Y-45354204D01*
X180885311Y-45354173D01*
X180884892Y-45337760D01*
X180884807Y-45337613D01*
X180881849Y-45320202D01*
X180877905Y-45279657D01*
X180877430Y-45272782D01*
X180874119Y-45191867D01*
X180873470Y-45186113D01*
X180872574Y-45178165D01*
X180872575Y-45178165D01*
X180855780Y-45029104D01*
X180855000Y-45015221D01*
X180855000Y-44984771D01*
X180855780Y-44970888D01*
X180859375Y-44938979D01*
X180860679Y-44930223D01*
X180890160Y-44771459D01*
X180890161Y-44771456D01*
X180901737Y-44690946D01*
X180918397Y-44528195D01*
X180915480Y-44242069D01*
X180915478Y-44242041D01*
X180903913Y-44100616D01*
X180903903Y-44100503D01*
X180903900Y-44100477D01*
X180881746Y-43956816D01*
X180860294Y-43817700D01*
X180860292Y-43817694D01*
X180860062Y-43816198D01*
X180859399Y-43811237D01*
X180855778Y-43779094D01*
X180855000Y-43765227D01*
X180855000Y-43734771D01*
X180855780Y-43720888D01*
X180859375Y-43688979D01*
X180860679Y-43680223D01*
X180862066Y-43672756D01*
X180890161Y-43521456D01*
X180901737Y-43440946D01*
X180918397Y-43278195D01*
X180915480Y-42992069D01*
X180911828Y-42947407D01*
X180903913Y-42850616D01*
X180903903Y-42850503D01*
X180903900Y-42850477D01*
X180881746Y-42706816D01*
X180860294Y-42567700D01*
X180860292Y-42567694D01*
X180860062Y-42566198D01*
X180859399Y-42561237D01*
X180855778Y-42529094D01*
X180855000Y-42515227D01*
X180855000Y-42484771D01*
X180855780Y-42470888D01*
X180859375Y-42438979D01*
X180860679Y-42430223D01*
X180890160Y-42271459D01*
X180890161Y-42271456D01*
X180901737Y-42190946D01*
X180918397Y-42028195D01*
X180915480Y-41742069D01*
X180915478Y-41742041D01*
X180903913Y-41600616D01*
X180903903Y-41600503D01*
X180903900Y-41600477D01*
X180862027Y-41328940D01*
X180860294Y-41317700D01*
X180860292Y-41317694D01*
X180860062Y-41316198D01*
X180859399Y-41311237D01*
X180855778Y-41279094D01*
X180855000Y-41265227D01*
X180855000Y-41234771D01*
X180855780Y-41220888D01*
X180859375Y-41188979D01*
X180860679Y-41180223D01*
X180890160Y-41021459D01*
X180890161Y-41021456D01*
X180901737Y-40940946D01*
X180918397Y-40778195D01*
X180915480Y-40492069D01*
X180903904Y-40350511D01*
X180903903Y-40350499D01*
X180860294Y-40067700D01*
X180860292Y-40067694D01*
X180860062Y-40066198D01*
X180859399Y-40061237D01*
X180855778Y-40029094D01*
X180855000Y-40015227D01*
X180855000Y-39984771D01*
X180855780Y-39970888D01*
X180859375Y-39938979D01*
X180860679Y-39930223D01*
X180890160Y-39771459D01*
X180890161Y-39771456D01*
X180901737Y-39690946D01*
X180918397Y-39528195D01*
X180915480Y-39242069D01*
X180903904Y-39100511D01*
X180903903Y-39100499D01*
X180860294Y-38817700D01*
X180860292Y-38817694D01*
X180860062Y-38816198D01*
X180859399Y-38811237D01*
X180855778Y-38779094D01*
X180855000Y-38765227D01*
X180855000Y-38734771D01*
X180855780Y-38720888D01*
X180859375Y-38688979D01*
X180860679Y-38680223D01*
X180890160Y-38521459D01*
X180890161Y-38521456D01*
X180901737Y-38440946D01*
X180918397Y-38278195D01*
X180915480Y-37992069D01*
X180903904Y-37850511D01*
X180903903Y-37850499D01*
X180860294Y-37567700D01*
X180860292Y-37567694D01*
X180860062Y-37566198D01*
X180859399Y-37561237D01*
X180855778Y-37529094D01*
X180855000Y-37515227D01*
X180855000Y-37484771D01*
X180855780Y-37470888D01*
X180859375Y-37438979D01*
X180860679Y-37430223D01*
X180890160Y-37271459D01*
X180890161Y-37271456D01*
X180901737Y-37190946D01*
X180918397Y-37028195D01*
X180915480Y-36742069D01*
X180903904Y-36600511D01*
X180903903Y-36600499D01*
X180860294Y-36317700D01*
X180860292Y-36317694D01*
X180860062Y-36316198D01*
X180859399Y-36311237D01*
X180855778Y-36279094D01*
X180855000Y-36265227D01*
X180855000Y-36234771D01*
X180855780Y-36220888D01*
X180859375Y-36188979D01*
X180860679Y-36180223D01*
X180890160Y-36021459D01*
X180890161Y-36021456D01*
X180901737Y-35940946D01*
X180918397Y-35778195D01*
X180915480Y-35492069D01*
X180903904Y-35350511D01*
X180903903Y-35350499D01*
X180860294Y-35067700D01*
X180860292Y-35067694D01*
X180860062Y-35066198D01*
X180859399Y-35061237D01*
X180855778Y-35029094D01*
X180855000Y-35015227D01*
X180855000Y-34984771D01*
X180855780Y-34970888D01*
X180859375Y-34938979D01*
X180860679Y-34930223D01*
X180890160Y-34771459D01*
X180890161Y-34771456D01*
X180901737Y-34690946D01*
X180906500Y-34644422D01*
X180918395Y-34528212D01*
X180918397Y-34528195D01*
X180915480Y-34242069D01*
X180903904Y-34100511D01*
X180903903Y-34100499D01*
X180884840Y-33976881D01*
X180860062Y-33816198D01*
X180859399Y-33811237D01*
X180855778Y-33779094D01*
X180855000Y-33765227D01*
X180855000Y-33734771D01*
X180855780Y-33720888D01*
X180859375Y-33688979D01*
X180860679Y-33680223D01*
X180890160Y-33521459D01*
X180890161Y-33521456D01*
X180901737Y-33440946D01*
X180918397Y-33278195D01*
X180915480Y-32992069D01*
X180903904Y-32850511D01*
X180903903Y-32850499D01*
X180860294Y-32567700D01*
X180860292Y-32567694D01*
X180860062Y-32566198D01*
X180859399Y-32561237D01*
X180855778Y-32529094D01*
X180855000Y-32515227D01*
X180855000Y-32484771D01*
X180855780Y-32470888D01*
X180859375Y-32438979D01*
X180860679Y-32430223D01*
X180890160Y-32271459D01*
X180890161Y-32271456D01*
X180901737Y-32190946D01*
X180918397Y-32028195D01*
X180915480Y-31742069D01*
X180903904Y-31600511D01*
X180903903Y-31600499D01*
X180860294Y-31317700D01*
X180860292Y-31317694D01*
X180860062Y-31316198D01*
X180859399Y-31311237D01*
X180855778Y-31279094D01*
X180855000Y-31265227D01*
X180855000Y-31234774D01*
X180855780Y-31220890D01*
X180859187Y-31190652D01*
X180861516Y-31176943D01*
X180866393Y-31155576D01*
X180883230Y-31081810D01*
X180899805Y-31001694D01*
X180907237Y-30961672D01*
X180920533Y-30880927D01*
X180940946Y-30595515D01*
X180940946Y-30453479D01*
X180920532Y-30168066D01*
X180920529Y-30168056D01*
X180920399Y-30167140D01*
X180920443Y-30166830D01*
X180920216Y-30163648D01*
X180920908Y-30163598D01*
X180930347Y-30097982D01*
X180976105Y-30045181D01*
X181043138Y-30025500D01*
X204197415Y-30025500D01*
X204198153Y-30025609D01*
X204198521Y-30025505D01*
X204233409Y-30030838D01*
X204371001Y-30072576D01*
X204393453Y-30081877D01*
X204544798Y-30162772D01*
X204565010Y-30176277D01*
X204697666Y-30285145D01*
X204714854Y-30302333D01*
X204823722Y-30434989D01*
X204837227Y-30455201D01*
X204918121Y-30606543D01*
X204927424Y-30629001D01*
X204969161Y-30766589D01*
X204974500Y-30802584D01*
X204974500Y-54696002D01*
X204969151Y-54732029D01*
X204927293Y-54869882D01*
X204917974Y-54892357D01*
X204836938Y-55043802D01*
X204823410Y-55064025D01*
X204714361Y-55196731D01*
X204697145Y-55213923D01*
X204564277Y-55322786D01*
X204544034Y-55336285D01*
X204392473Y-55417104D01*
X204369985Y-55426390D01*
X204205562Y-55476058D01*
X204181693Y-55480775D01*
X204004636Y-55497973D01*
X203992470Y-55498554D01*
X170653794Y-55450722D01*
X170586783Y-55430941D01*
X170541104Y-55378072D01*
X170536927Y-55367666D01*
X170536718Y-55367068D01*
X170462967Y-55213923D01*
X170419736Y-55124152D01*
X170419735Y-55124150D01*
X170276289Y-54895858D01*
X170108185Y-54685062D01*
X169917536Y-54494413D01*
X169706740Y-54326309D01*
X169535509Y-54218717D01*
X169478445Y-54182861D01*
X169235533Y-54065881D01*
X168981053Y-53976834D01*
X168981045Y-53976831D01*
X168771731Y-53929057D01*
X168718183Y-53916835D01*
X168718179Y-53916834D01*
X168718170Y-53916833D01*
X168450264Y-53886647D01*
X168450260Y-53886647D01*
X168180642Y-53886647D01*
X168180635Y-53886647D01*
X167953163Y-53912277D01*
X167884342Y-53900223D01*
X167863794Y-53887433D01*
X167786241Y-53827925D01*
X167786239Y-53827923D01*
X167786233Y-53827919D01*
X167786228Y-53827916D01*
X167786225Y-53827914D01*
X167544944Y-53688609D01*
X167544933Y-53688604D01*
X167287530Y-53581984D01*
X167287523Y-53581982D01*
X167287524Y-53581982D01*
X167287521Y-53581981D01*
X167140869Y-53542686D01*
X167140868Y-53542685D01*
X167051207Y-53518661D01*
X167018390Y-53509868D01*
X166983859Y-53505321D01*
X166742155Y-53473499D01*
X166742148Y-53473499D01*
X166463522Y-53473499D01*
X166459682Y-53473499D01*
X166459650Y-53473500D01*
X166144580Y-53473500D01*
X166144548Y-53473499D01*
X166140708Y-53473499D01*
X165862082Y-53473499D01*
X165862074Y-53473499D01*
X165585840Y-53509868D01*
X165463361Y-53542685D01*
X165463361Y-53542686D01*
X165316709Y-53581981D01*
X165316707Y-53581981D01*
X165316706Y-53581982D01*
X165316699Y-53581984D01*
X165059296Y-53688604D01*
X165059285Y-53688609D01*
X164818006Y-53827912D01*
X164817285Y-53828394D01*
X164595554Y-53998533D01*
X164595548Y-53998538D01*
X164398535Y-54195553D01*
X164307907Y-54286181D01*
X164246584Y-54319666D01*
X164220226Y-54322500D01*
X155419565Y-54322500D01*
X155419533Y-54322499D01*
X155415693Y-54322499D01*
X155137067Y-54322499D01*
X155137059Y-54322499D01*
X154891518Y-54354827D01*
X154860825Y-54358868D01*
X154828188Y-54367613D01*
X154634042Y-54419633D01*
X154634042Y-54419634D01*
X154591694Y-54430981D01*
X154591692Y-54430981D01*
X154591691Y-54430982D01*
X154591684Y-54430984D01*
X154334281Y-54537604D01*
X154334270Y-54537609D01*
X154092989Y-54676914D01*
X154092973Y-54676925D01*
X153894753Y-54829024D01*
X153829584Y-54854218D01*
X153761139Y-54840179D01*
X153753296Y-54835642D01*
X153685855Y-54793267D01*
X153685854Y-54793266D01*
X153442938Y-54676284D01*
X153188458Y-54587237D01*
X153188450Y-54587234D01*
X152971004Y-54537604D01*
X152925588Y-54527238D01*
X152925584Y-54527237D01*
X152925575Y-54527236D01*
X152657669Y-54497050D01*
X152657665Y-54497050D01*
X152388047Y-54497050D01*
X152388040Y-54497050D01*
X152194194Y-54518891D01*
X152125372Y-54506836D01*
X152092630Y-54483352D01*
X151995470Y-54386192D01*
X151995463Y-54386186D01*
X151774424Y-54216578D01*
X151774422Y-54216576D01*
X151774416Y-54216572D01*
X151774411Y-54216569D01*
X151774408Y-54216567D01*
X151533127Y-54077262D01*
X151533116Y-54077257D01*
X151275713Y-53970637D01*
X151275706Y-53970635D01*
X151275707Y-53970635D01*
X151275704Y-53970634D01*
X151172023Y-53942853D01*
X151172022Y-53942852D01*
X151057911Y-53912277D01*
X151006573Y-53898521D01*
X150922354Y-53887433D01*
X150730338Y-53862152D01*
X150730331Y-53862152D01*
X150451705Y-53862152D01*
X150447865Y-53862152D01*
X150447833Y-53862153D01*
X149923912Y-53862153D01*
X149907726Y-53861092D01*
X149900593Y-53860152D01*
X149900586Y-53860152D01*
X149621960Y-53860152D01*
X149618120Y-53860152D01*
X149618088Y-53860153D01*
X137445516Y-53860153D01*
X137445484Y-53860152D01*
X137441644Y-53860152D01*
X137163018Y-53860152D01*
X137163010Y-53860152D01*
X136917469Y-53892480D01*
X136886776Y-53896521D01*
X136639892Y-53962673D01*
X136639891Y-53962672D01*
X136617653Y-53968631D01*
X136617635Y-53968637D01*
X136360232Y-54075257D01*
X136360221Y-54075262D01*
X136118940Y-54214567D01*
X136118924Y-54214578D01*
X135897885Y-54384186D01*
X135897879Y-54384191D01*
X135700866Y-54581206D01*
X135700862Y-54581210D01*
X135633695Y-54648378D01*
X135633694Y-54648378D01*
X135369505Y-54912568D01*
X131507744Y-58774329D01*
X131243557Y-59038515D01*
X131243553Y-59038519D01*
X131046538Y-59235532D01*
X131046533Y-59235538D01*
X130874448Y-59459806D01*
X130873642Y-59459188D01*
X130823502Y-59501079D01*
X130820154Y-59502390D01*
X130820158Y-59502399D01*
X130816941Y-59503731D01*
X130574026Y-59620712D01*
X130574017Y-59620717D01*
X130470692Y-59685640D01*
X130469669Y-59686086D01*
X130469281Y-59686514D01*
X130436840Y-59700414D01*
X130431750Y-59701779D01*
X130431729Y-59701785D01*
X130315314Y-59732978D01*
X130315312Y-59732978D01*
X130315311Y-59732979D01*
X130315304Y-59732981D01*
X130057901Y-59839601D01*
X130057890Y-59839606D01*
X129816609Y-59978911D01*
X129816593Y-59978922D01*
X129660266Y-60098876D01*
X129595097Y-60124070D01*
X129584780Y-60124500D01*
X122491095Y-60124500D01*
X122437295Y-60112220D01*
X122356163Y-60073149D01*
X122295082Y-60043734D01*
X122040602Y-59954687D01*
X122040594Y-59954684D01*
X121843446Y-59909687D01*
X121777732Y-59894688D01*
X121777728Y-59894687D01*
X121777719Y-59894686D01*
X121509813Y-59864500D01*
X121509809Y-59864500D01*
X121240191Y-59864500D01*
X121240186Y-59864500D01*
X120972280Y-59894686D01*
X120972268Y-59894688D01*
X120709405Y-59954684D01*
X120709397Y-59954687D01*
X120454917Y-60043734D01*
X120212005Y-60160714D01*
X119983712Y-60304161D01*
X119772061Y-60472947D01*
X119707374Y-60499356D01*
X119694748Y-60500000D01*
X118406333Y-60500000D01*
X118349999Y-104450000D01*
X118350000Y-104450000D01*
X124571540Y-104450000D01*
X124583905Y-104450618D01*
X124607011Y-104452933D01*
X124763831Y-104468650D01*
X124788051Y-104473554D01*
X124954866Y-104525094D01*
X124977648Y-104534714D01*
X125130910Y-104618329D01*
X125151331Y-104632279D01*
X125289723Y-104748658D01*
X125298789Y-104757090D01*
X127700000Y-107225000D01*
X130399998Y-109999999D01*
X130399999Y-109999999D01*
X130400000Y-110000000D01*
X179085786Y-110000000D01*
X179500000Y-110000000D01*
X184702807Y-104797192D01*
X184711802Y-104789039D01*
X184849208Y-104676272D01*
X184869408Y-104662775D01*
X185020762Y-104581875D01*
X185043207Y-104572577D01*
X185207445Y-104522757D01*
X185231269Y-104518018D01*
X185408153Y-104500597D01*
X185420307Y-104500000D01*
X203993907Y-104500000D01*
X204006061Y-104500597D01*
X204182941Y-104518018D01*
X204206769Y-104522757D01*
X204371001Y-104572576D01*
X204393453Y-104581877D01*
X204544798Y-104662772D01*
X204565010Y-104676277D01*
X204697666Y-104785145D01*
X204714854Y-104802333D01*
X204823722Y-104934989D01*
X204837227Y-104955201D01*
X204918121Y-105106543D01*
X204927424Y-105129001D01*
X204969161Y-105266589D01*
X204974500Y-105302584D01*
X204974500Y-129197414D01*
X204974390Y-129198152D01*
X204974495Y-129198521D01*
X204969161Y-129233409D01*
X204927424Y-129370998D01*
X204918121Y-129393456D01*
X204837227Y-129544798D01*
X204823722Y-129565010D01*
X204714854Y-129697666D01*
X204697666Y-129714854D01*
X204565010Y-129823722D01*
X204544798Y-129837227D01*
X204393456Y-129918121D01*
X204370998Y-129927424D01*
X204233410Y-129969161D01*
X204197415Y-129974500D01*
X105802585Y-129974500D01*
X105766590Y-129969161D01*
X105629001Y-129927424D01*
X105606543Y-129918121D01*
X105455201Y-129837227D01*
X105434989Y-129823722D01*
X105302333Y-129714854D01*
X105285145Y-129697666D01*
X105176277Y-129565010D01*
X105162772Y-129544798D01*
X105081878Y-129393456D01*
X105072575Y-129370997D01*
X105030839Y-129233408D01*
X105025500Y-129197414D01*
X105025500Y-115132155D01*
X108255000Y-115132155D01*
X108255000Y-115550000D01*
X109057291Y-115550000D01*
X109045548Y-115570339D01*
X109005000Y-115721667D01*
X109005000Y-115878333D01*
X109045548Y-116029661D01*
X109057291Y-116050000D01*
X108255000Y-116050000D01*
X108255000Y-116467844D01*
X108261401Y-116527372D01*
X108261403Y-116527379D01*
X108311645Y-116662086D01*
X108311649Y-116662093D01*
X108397809Y-116777187D01*
X108397812Y-116777190D01*
X108512906Y-116863350D01*
X108512913Y-116863354D01*
X108647620Y-116913596D01*
X108647627Y-116913598D01*
X108707155Y-116919999D01*
X108707172Y-116920000D01*
X109350000Y-116920000D01*
X109350000Y-116342709D01*
X109370339Y-116354452D01*
X109521667Y-116395000D01*
X109678333Y-116395000D01*
X109829661Y-116354452D01*
X109850000Y-116342709D01*
X109850000Y-116920000D01*
X110492828Y-116920000D01*
X110492844Y-116919999D01*
X110552372Y-116913598D01*
X110552379Y-116913596D01*
X110687086Y-116863354D01*
X110687093Y-116863350D01*
X110802187Y-116777190D01*
X110802190Y-116777187D01*
X110888350Y-116662093D01*
X110888354Y-116662086D01*
X110938596Y-116527379D01*
X110938598Y-116527372D01*
X110944999Y-116467844D01*
X110945000Y-116467827D01*
X110945000Y-116050000D01*
X110142709Y-116050000D01*
X110154452Y-116029661D01*
X110195000Y-115878333D01*
X110195000Y-115721667D01*
X110154452Y-115570339D01*
X110142709Y-115550000D01*
X110945000Y-115550000D01*
X110945000Y-115132172D01*
X110944999Y-115132155D01*
X110938598Y-115072627D01*
X110938596Y-115072620D01*
X110888354Y-114937913D01*
X110888350Y-114937906D01*
X110802190Y-114822812D01*
X110802187Y-114822809D01*
X110687093Y-114736649D01*
X110687086Y-114736645D01*
X110552379Y-114686403D01*
X110552372Y-114686401D01*
X110492844Y-114680000D01*
X109850000Y-114680000D01*
X109850000Y-115257290D01*
X109829661Y-115245548D01*
X109678333Y-115205000D01*
X109521667Y-115205000D01*
X109370339Y-115245548D01*
X109350000Y-115257290D01*
X109350000Y-114680000D01*
X108707155Y-114680000D01*
X108647627Y-114686401D01*
X108647620Y-114686403D01*
X108512913Y-114736645D01*
X108512906Y-114736649D01*
X108397812Y-114822809D01*
X108397809Y-114822812D01*
X108311649Y-114937906D01*
X108311645Y-114937913D01*
X108261403Y-115072620D01*
X108261401Y-115072627D01*
X108255000Y-115132155D01*
X105025500Y-115132155D01*
X105025500Y-110614560D01*
X108304500Y-110614560D01*
X108304500Y-110825439D01*
X108345636Y-111032245D01*
X108345638Y-111032253D01*
X108426333Y-111227069D01*
X108426338Y-111227078D01*
X108543487Y-111402403D01*
X108543490Y-111402407D01*
X108692592Y-111551509D01*
X108692596Y-111551512D01*
X108867921Y-111668661D01*
X108867927Y-111668664D01*
X108867928Y-111668665D01*
X109062747Y-111749362D01*
X109269560Y-111790499D01*
X109269564Y-111790500D01*
X109269565Y-111790500D01*
X109930436Y-111790500D01*
X109930437Y-111790499D01*
X110137253Y-111749362D01*
X110332072Y-111668665D01*
X110507404Y-111551512D01*
X110656512Y-111402404D01*
X110773665Y-111227072D01*
X110854362Y-111032253D01*
X110895500Y-110825435D01*
X110895500Y-110614565D01*
X110854362Y-110407747D01*
X110773665Y-110212928D01*
X110773664Y-110212927D01*
X110773661Y-110212921D01*
X110656512Y-110037596D01*
X110656509Y-110037592D01*
X110507407Y-109888490D01*
X110507403Y-109888487D01*
X110332078Y-109771338D01*
X110332069Y-109771333D01*
X110137253Y-109690638D01*
X110137245Y-109690636D01*
X109930439Y-109649500D01*
X109930435Y-109649500D01*
X109269565Y-109649500D01*
X109269560Y-109649500D01*
X109062754Y-109690636D01*
X109062746Y-109690638D01*
X108867930Y-109771333D01*
X108867921Y-109771338D01*
X108692596Y-109888487D01*
X108692592Y-109888490D01*
X108543490Y-110037592D01*
X108543487Y-110037596D01*
X108426338Y-110212921D01*
X108426333Y-110212930D01*
X108345638Y-110407746D01*
X108345636Y-110407754D01*
X108304500Y-110614560D01*
X105025500Y-110614560D01*
X105025500Y-108074560D01*
X108304500Y-108074560D01*
X108304500Y-108285439D01*
X108345636Y-108492245D01*
X108345638Y-108492253D01*
X108426333Y-108687069D01*
X108426338Y-108687078D01*
X108543487Y-108862403D01*
X108543490Y-108862407D01*
X108692592Y-109011509D01*
X108692596Y-109011512D01*
X108867921Y-109128661D01*
X108867927Y-109128664D01*
X108867928Y-109128665D01*
X109062747Y-109209362D01*
X109269560Y-109250499D01*
X109269564Y-109250500D01*
X109269565Y-109250500D01*
X109930436Y-109250500D01*
X109930437Y-109250499D01*
X110137253Y-109209362D01*
X110332072Y-109128665D01*
X110507404Y-109011512D01*
X110656512Y-108862404D01*
X110773665Y-108687072D01*
X110854362Y-108492253D01*
X110895500Y-108285435D01*
X110895500Y-108074565D01*
X110854362Y-107867747D01*
X110773665Y-107672928D01*
X110773664Y-107672927D01*
X110773661Y-107672921D01*
X110656512Y-107497596D01*
X110656509Y-107497592D01*
X110507407Y-107348490D01*
X110507403Y-107348487D01*
X110332078Y-107231338D01*
X110332069Y-107231333D01*
X110137253Y-107150638D01*
X110137245Y-107150636D01*
X109930439Y-107109500D01*
X109930435Y-107109500D01*
X109269565Y-107109500D01*
X109269560Y-107109500D01*
X109062754Y-107150636D01*
X109062746Y-107150638D01*
X108867930Y-107231333D01*
X108867921Y-107231338D01*
X108692596Y-107348487D01*
X108692592Y-107348490D01*
X108543490Y-107497592D01*
X108543487Y-107497596D01*
X108426338Y-107672921D01*
X108426333Y-107672930D01*
X108345638Y-107867746D01*
X108345636Y-107867754D01*
X108304500Y-108074560D01*
X105025500Y-108074560D01*
X105025500Y-88275000D01*
X106749999Y-88275000D01*
X106773978Y-88332891D01*
X106773978Y-88332892D01*
X106845110Y-88439349D01*
X106845116Y-88439356D01*
X106935643Y-88529883D01*
X106935650Y-88529889D01*
X107042108Y-88601021D01*
X107160401Y-88650020D01*
X107160409Y-88650022D01*
X107285976Y-88674999D01*
X107285980Y-88675000D01*
X107350000Y-88675000D01*
X107850000Y-88675000D01*
X107914020Y-88675000D01*
X107914023Y-88674999D01*
X108039590Y-88650022D01*
X108039598Y-88650020D01*
X108157891Y-88601021D01*
X108157892Y-88601021D01*
X108264349Y-88529889D01*
X108264356Y-88529883D01*
X108354883Y-88439356D01*
X108354889Y-88439349D01*
X108426021Y-88332892D01*
X108426021Y-88332891D01*
X108450001Y-88275000D01*
X107850000Y-88275000D01*
X107850000Y-88675000D01*
X107350000Y-88675000D01*
X107350000Y-88275000D01*
X106749999Y-88275000D01*
X105025500Y-88275000D01*
X105025500Y-81543475D01*
X106749500Y-81543475D01*
X106749500Y-82006517D01*
X106760292Y-82074657D01*
X106764354Y-82100304D01*
X106821950Y-82213342D01*
X106821952Y-82213344D01*
X106821954Y-82213347D01*
X106911652Y-82303045D01*
X106911656Y-82303048D01*
X106911658Y-82303050D01*
X106967475Y-82331490D01*
X107018270Y-82379464D01*
X107035065Y-82447285D01*
X107012528Y-82513419D01*
X106986672Y-82540345D01*
X106981284Y-82544479D01*
X106869481Y-82656282D01*
X106869475Y-82656290D01*
X106790426Y-82793209D01*
X106790423Y-82793216D01*
X106749500Y-82945943D01*
X106749500Y-83104057D01*
X106784738Y-83235565D01*
X106790423Y-83256783D01*
X106790426Y-83256790D01*
X106869475Y-83393709D01*
X106869479Y-83393714D01*
X106869480Y-83393716D01*
X106981284Y-83505520D01*
X106981285Y-83505521D01*
X106981287Y-83505522D01*
X107045531Y-83542613D01*
X107093746Y-83593179D01*
X107106970Y-83661786D01*
X107081002Y-83726651D01*
X107045531Y-83757387D01*
X106981287Y-83794477D01*
X106981282Y-83794481D01*
X106869481Y-83906282D01*
X106869475Y-83906290D01*
X106790426Y-84043209D01*
X106790423Y-84043216D01*
X106749500Y-84195943D01*
X106749500Y-84354057D01*
X106789744Y-84504248D01*
X106790423Y-84506783D01*
X106790426Y-84506790D01*
X106869475Y-84643709D01*
X106869479Y-84643714D01*
X106869480Y-84643716D01*
X106981284Y-84755520D01*
X106981285Y-84755521D01*
X106981287Y-84755522D01*
X107045531Y-84792613D01*
X107093746Y-84843179D01*
X107106970Y-84911786D01*
X107081002Y-84976651D01*
X107045531Y-85007387D01*
X106981287Y-85044477D01*
X106981282Y-85044481D01*
X106869481Y-85156282D01*
X106869475Y-85156290D01*
X106790426Y-85293209D01*
X106790423Y-85293216D01*
X106749500Y-85445943D01*
X106749500Y-85604056D01*
X106790423Y-85756783D01*
X106790426Y-85756790D01*
X106869475Y-85893709D01*
X106869479Y-85893714D01*
X106869480Y-85893716D01*
X106981284Y-86005520D01*
X106981285Y-86005521D01*
X106981287Y-86005522D01*
X107045531Y-86042613D01*
X107093746Y-86093179D01*
X107106970Y-86161786D01*
X107081002Y-86226651D01*
X107045531Y-86257387D01*
X106981287Y-86294477D01*
X106981282Y-86294481D01*
X106869481Y-86406282D01*
X106869475Y-86406290D01*
X106790426Y-86543209D01*
X106790423Y-86543216D01*
X106749500Y-86695943D01*
X106749500Y-86854057D01*
X106754004Y-86870864D01*
X106790423Y-87006783D01*
X106790426Y-87006790D01*
X106869475Y-87143709D01*
X106869479Y-87143714D01*
X106869480Y-87143716D01*
X106981284Y-87255520D01*
X106996540Y-87264328D01*
X106996542Y-87264329D01*
X107044758Y-87314896D01*
X107057982Y-87383503D01*
X107032014Y-87448368D01*
X107003435Y-87474819D01*
X106935643Y-87520116D01*
X106845116Y-87610643D01*
X106845110Y-87610650D01*
X106773978Y-87717107D01*
X106773978Y-87717108D01*
X106749999Y-87774999D01*
X106749999Y-87775000D01*
X107550272Y-87775000D01*
X107458386Y-87813060D01*
X107388060Y-87883386D01*
X107350000Y-87975272D01*
X107350000Y-88074728D01*
X107388060Y-88166614D01*
X107458386Y-88236940D01*
X107550272Y-88275000D01*
X107649728Y-88275000D01*
X107741614Y-88236940D01*
X107811940Y-88166614D01*
X107850000Y-88074728D01*
X107850000Y-87975272D01*
X107811940Y-87883386D01*
X107741614Y-87813060D01*
X107649728Y-87775000D01*
X108450001Y-87775000D01*
X108450000Y-87774999D01*
X108426021Y-87717108D01*
X108426021Y-87717107D01*
X108354889Y-87610650D01*
X108354883Y-87610643D01*
X108264353Y-87520113D01*
X108196565Y-87474819D01*
X108151760Y-87421207D01*
X108143053Y-87351882D01*
X108173208Y-87288854D01*
X108203456Y-87264329D01*
X108218716Y-87255520D01*
X108330520Y-87143716D01*
X108409577Y-87006784D01*
X108450500Y-86854057D01*
X108450500Y-86695943D01*
X108409577Y-86543216D01*
X108409573Y-86543209D01*
X108330524Y-86406290D01*
X108330518Y-86406282D01*
X108218715Y-86294479D01*
X108194125Y-86280282D01*
X108154467Y-86257386D01*
X108106253Y-86206821D01*
X108093029Y-86138214D01*
X108118997Y-86073349D01*
X108154468Y-86042613D01*
X108218716Y-86005520D01*
X108330520Y-85893716D01*
X108409577Y-85756784D01*
X108450500Y-85604057D01*
X108450500Y-85445943D01*
X108409577Y-85293216D01*
X108409573Y-85293209D01*
X108330524Y-85156290D01*
X108330518Y-85156282D01*
X108218715Y-85044479D01*
X108194125Y-85030282D01*
X108154467Y-85007386D01*
X108106253Y-84956821D01*
X108093029Y-84888214D01*
X108118997Y-84823349D01*
X108154468Y-84792613D01*
X108218716Y-84755520D01*
X108330520Y-84643716D01*
X108409577Y-84506784D01*
X108450500Y-84354057D01*
X108450500Y-84195943D01*
X108409577Y-84043216D01*
X108339051Y-83921060D01*
X108330524Y-83906290D01*
X108330518Y-83906282D01*
X108218715Y-83794479D01*
X108194125Y-83780282D01*
X108154467Y-83757386D01*
X108106253Y-83706821D01*
X108093029Y-83638214D01*
X108118997Y-83573349D01*
X108154468Y-83542613D01*
X108218716Y-83505520D01*
X108330520Y-83393716D01*
X108409577Y-83256784D01*
X108450500Y-83104057D01*
X108450500Y-82945943D01*
X108409577Y-82793216D01*
X108409573Y-82793209D01*
X108330524Y-82656290D01*
X108330518Y-82656282D01*
X108218717Y-82544481D01*
X108213331Y-82540348D01*
X108172130Y-82483919D01*
X108167977Y-82414173D01*
X108202191Y-82353253D01*
X108232522Y-82331491D01*
X108288342Y-82303050D01*
X108378050Y-82213342D01*
X108435646Y-82100304D01*
X108435646Y-82100302D01*
X108435647Y-82100301D01*
X108446935Y-82029025D01*
X108450500Y-82006519D01*
X108450499Y-81543482D01*
X108435646Y-81449696D01*
X108378050Y-81336658D01*
X108378046Y-81336654D01*
X108378045Y-81336652D01*
X108288347Y-81246954D01*
X108288344Y-81246952D01*
X108288342Y-81246950D01*
X108198663Y-81201256D01*
X108175301Y-81189352D01*
X108081524Y-81174500D01*
X107118482Y-81174500D01*
X107048532Y-81185579D01*
X107024696Y-81189354D01*
X106911658Y-81246950D01*
X106911657Y-81246951D01*
X106911652Y-81246954D01*
X106821954Y-81336652D01*
X106821951Y-81336657D01*
X106821950Y-81336658D01*
X106810154Y-81359809D01*
X106764352Y-81449698D01*
X106749500Y-81543475D01*
X105025500Y-81543475D01*
X105025500Y-77775000D01*
X106749999Y-77775000D01*
X106773978Y-77832891D01*
X106773978Y-77832892D01*
X106845110Y-77939349D01*
X106845116Y-77939356D01*
X106935643Y-78029883D01*
X106935650Y-78029889D01*
X107042108Y-78101021D01*
X107160401Y-78150020D01*
X107160409Y-78150022D01*
X107285976Y-78174999D01*
X107285980Y-78175000D01*
X107350000Y-78175000D01*
X107850000Y-78175000D01*
X107914020Y-78175000D01*
X107914023Y-78174999D01*
X108039590Y-78150022D01*
X108039598Y-78150020D01*
X108157891Y-78101021D01*
X108157892Y-78101021D01*
X108264349Y-78029889D01*
X108264356Y-78029883D01*
X108354883Y-77939356D01*
X108354889Y-77939349D01*
X108426021Y-77832892D01*
X108426021Y-77832891D01*
X108450001Y-77775000D01*
X107850000Y-77775000D01*
X107850000Y-78175000D01*
X107350000Y-78175000D01*
X107350000Y-77775000D01*
X106749999Y-77775000D01*
X105025500Y-77775000D01*
X105025500Y-71043475D01*
X106749500Y-71043475D01*
X106749500Y-71506517D01*
X106760292Y-71574657D01*
X106764354Y-71600304D01*
X106821950Y-71713342D01*
X106821952Y-71713344D01*
X106821954Y-71713347D01*
X106911652Y-71803045D01*
X106911656Y-71803048D01*
X106911658Y-71803050D01*
X106967475Y-71831490D01*
X107018270Y-71879464D01*
X107035065Y-71947285D01*
X107012528Y-72013419D01*
X106986672Y-72040345D01*
X106981284Y-72044479D01*
X106869481Y-72156282D01*
X106869475Y-72156290D01*
X106790426Y-72293209D01*
X106790423Y-72293216D01*
X106749500Y-72445943D01*
X106749500Y-72604057D01*
X106764715Y-72660838D01*
X106790423Y-72756783D01*
X106790426Y-72756790D01*
X106869475Y-72893709D01*
X106869479Y-72893714D01*
X106869480Y-72893716D01*
X106981284Y-73005520D01*
X106981285Y-73005521D01*
X106981287Y-73005522D01*
X107045531Y-73042613D01*
X107093746Y-73093179D01*
X107106970Y-73161786D01*
X107081002Y-73226651D01*
X107045531Y-73257387D01*
X106981287Y-73294477D01*
X106981282Y-73294481D01*
X106869481Y-73406282D01*
X106869475Y-73406290D01*
X106790426Y-73543209D01*
X106790423Y-73543216D01*
X106749500Y-73695943D01*
X106749500Y-73854056D01*
X106790423Y-74006783D01*
X106790426Y-74006790D01*
X106869475Y-74143709D01*
X106869479Y-74143714D01*
X106869480Y-74143716D01*
X106981284Y-74255520D01*
X106981285Y-74255521D01*
X106981287Y-74255522D01*
X107045531Y-74292613D01*
X107093746Y-74343179D01*
X107106970Y-74411786D01*
X107081002Y-74476651D01*
X107045531Y-74507387D01*
X106981287Y-74544477D01*
X106981282Y-74544481D01*
X106869481Y-74656282D01*
X106869475Y-74656290D01*
X106790426Y-74793209D01*
X106790423Y-74793216D01*
X106749500Y-74945943D01*
X106749500Y-75104057D01*
X106788472Y-75249500D01*
X106790423Y-75256783D01*
X106790426Y-75256790D01*
X106869475Y-75393709D01*
X106869479Y-75393714D01*
X106869480Y-75393716D01*
X106981284Y-75505520D01*
X106981285Y-75505521D01*
X106981287Y-75505522D01*
X107045531Y-75542613D01*
X107093746Y-75593179D01*
X107106970Y-75661786D01*
X107081002Y-75726651D01*
X107045531Y-75757387D01*
X106981287Y-75794477D01*
X106981282Y-75794481D01*
X106869481Y-75906282D01*
X106869475Y-75906290D01*
X106790426Y-76043209D01*
X106790423Y-76043216D01*
X106749500Y-76195943D01*
X106749500Y-76354057D01*
X106788606Y-76500000D01*
X106790423Y-76506783D01*
X106790426Y-76506790D01*
X106869475Y-76643709D01*
X106869479Y-76643714D01*
X106869480Y-76643716D01*
X106981284Y-76755520D01*
X106996540Y-76764328D01*
X106996542Y-76764329D01*
X107044758Y-76814896D01*
X107057982Y-76883503D01*
X107032014Y-76948368D01*
X107003435Y-76974819D01*
X106935643Y-77020116D01*
X106845116Y-77110643D01*
X106845110Y-77110650D01*
X106773978Y-77217107D01*
X106773978Y-77217108D01*
X106749999Y-77274999D01*
X106749999Y-77275000D01*
X107550272Y-77275000D01*
X107458386Y-77313060D01*
X107388060Y-77383386D01*
X107350000Y-77475272D01*
X107350000Y-77574728D01*
X107388060Y-77666614D01*
X107458386Y-77736940D01*
X107550272Y-77775000D01*
X107649728Y-77775000D01*
X107741614Y-77736940D01*
X107811940Y-77666614D01*
X107850000Y-77574728D01*
X107850000Y-77475272D01*
X107811940Y-77383386D01*
X107741614Y-77313060D01*
X107649728Y-77275000D01*
X108450001Y-77275000D01*
X108450000Y-77274999D01*
X108426021Y-77217108D01*
X108426021Y-77217107D01*
X108354889Y-77110650D01*
X108354883Y-77110643D01*
X108264353Y-77020113D01*
X108196565Y-76974819D01*
X108151760Y-76921207D01*
X108143053Y-76851882D01*
X108173208Y-76788854D01*
X108203456Y-76764329D01*
X108218716Y-76755520D01*
X108330520Y-76643716D01*
X108409577Y-76506784D01*
X108450500Y-76354057D01*
X108450500Y-76195943D01*
X108409577Y-76043216D01*
X108384516Y-75999809D01*
X108330524Y-75906290D01*
X108330518Y-75906282D01*
X108218715Y-75794479D01*
X108194125Y-75780282D01*
X108154467Y-75757386D01*
X108106253Y-75706821D01*
X108093029Y-75638214D01*
X108118997Y-75573349D01*
X108154468Y-75542613D01*
X108218716Y-75505520D01*
X108330520Y-75393716D01*
X108409577Y-75256784D01*
X108450500Y-75104057D01*
X108450500Y-74945943D01*
X108409577Y-74793216D01*
X108356916Y-74702003D01*
X108330524Y-74656290D01*
X108330518Y-74656282D01*
X108218715Y-74544479D01*
X108169291Y-74515945D01*
X108154467Y-74507386D01*
X108106253Y-74456821D01*
X108093029Y-74388214D01*
X108118997Y-74323349D01*
X108154468Y-74292613D01*
X108218716Y-74255520D01*
X108330520Y-74143716D01*
X108409577Y-74006784D01*
X108450500Y-73854057D01*
X108450500Y-73695943D01*
X108409577Y-73543216D01*
X108409573Y-73543209D01*
X108330524Y-73406290D01*
X108330518Y-73406282D01*
X108218715Y-73294479D01*
X108194125Y-73280282D01*
X108154467Y-73257386D01*
X108106253Y-73206821D01*
X108093029Y-73138214D01*
X108118997Y-73073349D01*
X108154468Y-73042613D01*
X108218716Y-73005520D01*
X108330520Y-72893716D01*
X108409577Y-72756784D01*
X108450500Y-72604057D01*
X108450500Y-72445943D01*
X108409577Y-72293216D01*
X108408448Y-72291261D01*
X108330524Y-72156290D01*
X108330518Y-72156282D01*
X108218717Y-72044481D01*
X108213331Y-72040348D01*
X108172130Y-71983919D01*
X108167977Y-71914173D01*
X108202191Y-71853253D01*
X108232522Y-71831491D01*
X108288342Y-71803050D01*
X108378050Y-71713342D01*
X108435646Y-71600304D01*
X108435646Y-71600302D01*
X108435647Y-71600301D01*
X108450499Y-71506524D01*
X108450500Y-71506519D01*
X108450499Y-71043482D01*
X108435646Y-70949696D01*
X108378050Y-70836658D01*
X108378046Y-70836654D01*
X108378045Y-70836652D01*
X108288347Y-70746954D01*
X108288344Y-70746952D01*
X108288342Y-70746950D01*
X108211517Y-70707805D01*
X108175301Y-70689352D01*
X108081524Y-70674500D01*
X107118482Y-70674500D01*
X107037519Y-70687323D01*
X107024696Y-70689354D01*
X106911658Y-70746950D01*
X106911657Y-70746951D01*
X106911652Y-70746954D01*
X106821954Y-70836652D01*
X106821951Y-70836657D01*
X106764352Y-70949698D01*
X106749500Y-71043475D01*
X105025500Y-71043475D01*
X105025500Y-67275000D01*
X106749999Y-67275000D01*
X106773978Y-67332891D01*
X106773978Y-67332892D01*
X106845110Y-67439349D01*
X106845116Y-67439356D01*
X106935643Y-67529883D01*
X106935650Y-67529889D01*
X107042108Y-67601021D01*
X107160401Y-67650020D01*
X107160409Y-67650022D01*
X107285976Y-67674999D01*
X107285980Y-67675000D01*
X107350000Y-67675000D01*
X107850000Y-67675000D01*
X107914020Y-67675000D01*
X107914023Y-67674999D01*
X108039590Y-67650022D01*
X108039598Y-67650020D01*
X108157891Y-67601021D01*
X108157892Y-67601021D01*
X108264349Y-67529889D01*
X108264356Y-67529883D01*
X108354883Y-67439356D01*
X108354889Y-67439349D01*
X108426021Y-67332892D01*
X108426021Y-67332891D01*
X108450001Y-67275000D01*
X107850000Y-67275000D01*
X107850000Y-67675000D01*
X107350000Y-67675000D01*
X107350000Y-67275000D01*
X106749999Y-67275000D01*
X105025500Y-67275000D01*
X105025500Y-60543475D01*
X106749500Y-60543475D01*
X106749500Y-61006517D01*
X106760197Y-61074055D01*
X106764354Y-61100304D01*
X106821950Y-61213342D01*
X106821952Y-61213344D01*
X106821954Y-61213347D01*
X106911652Y-61303045D01*
X106911656Y-61303048D01*
X106911658Y-61303050D01*
X106967475Y-61331490D01*
X107018270Y-61379464D01*
X107035065Y-61447285D01*
X107012528Y-61513419D01*
X106986672Y-61540345D01*
X106981284Y-61544479D01*
X106869481Y-61656282D01*
X106869475Y-61656290D01*
X106790426Y-61793209D01*
X106790423Y-61793216D01*
X106749500Y-61945943D01*
X106749500Y-62104057D01*
X106782309Y-62226500D01*
X106790423Y-62256783D01*
X106790426Y-62256790D01*
X106869475Y-62393709D01*
X106869479Y-62393714D01*
X106869480Y-62393716D01*
X106981284Y-62505520D01*
X106981285Y-62505521D01*
X106981287Y-62505522D01*
X107045531Y-62542613D01*
X107093746Y-62593179D01*
X107106970Y-62661786D01*
X107081002Y-62726651D01*
X107045531Y-62757387D01*
X106981287Y-62794477D01*
X106981282Y-62794481D01*
X106869481Y-62906282D01*
X106869475Y-62906290D01*
X106790426Y-63043209D01*
X106790423Y-63043216D01*
X106749500Y-63195943D01*
X106749500Y-63354057D01*
X106766810Y-63418657D01*
X106790423Y-63506783D01*
X106790426Y-63506790D01*
X106869475Y-63643709D01*
X106869479Y-63643714D01*
X106869480Y-63643716D01*
X106981284Y-63755520D01*
X106981285Y-63755521D01*
X106981287Y-63755522D01*
X107045531Y-63792613D01*
X107093746Y-63843179D01*
X107106970Y-63911786D01*
X107081002Y-63976651D01*
X107045531Y-64007387D01*
X106981287Y-64044477D01*
X106981282Y-64044481D01*
X106869481Y-64156282D01*
X106869475Y-64156290D01*
X106790426Y-64293209D01*
X106790423Y-64293216D01*
X106749500Y-64445943D01*
X106749500Y-64604057D01*
X106785172Y-64737185D01*
X106790423Y-64756783D01*
X106790426Y-64756790D01*
X106869475Y-64893709D01*
X106869479Y-64893714D01*
X106869480Y-64893716D01*
X106981284Y-65005520D01*
X106981285Y-65005521D01*
X106981287Y-65005522D01*
X107045531Y-65042613D01*
X107093746Y-65093179D01*
X107106970Y-65161786D01*
X107081002Y-65226651D01*
X107045531Y-65257387D01*
X106981287Y-65294477D01*
X106981282Y-65294481D01*
X106869481Y-65406282D01*
X106869475Y-65406290D01*
X106790426Y-65543209D01*
X106790423Y-65543216D01*
X106749500Y-65695943D01*
X106749500Y-65854057D01*
X106782994Y-65979056D01*
X106790423Y-66006783D01*
X106790426Y-66006790D01*
X106869475Y-66143709D01*
X106869479Y-66143714D01*
X106869480Y-66143716D01*
X106981284Y-66255520D01*
X106996540Y-66264328D01*
X106996542Y-66264329D01*
X107044758Y-66314896D01*
X107057982Y-66383503D01*
X107032014Y-66448368D01*
X107003435Y-66474819D01*
X106935643Y-66520116D01*
X106845116Y-66610643D01*
X106845110Y-66610650D01*
X106773978Y-66717107D01*
X106773978Y-66717108D01*
X106749999Y-66774999D01*
X106749999Y-66775000D01*
X107550272Y-66775000D01*
X107458386Y-66813060D01*
X107388060Y-66883386D01*
X107350000Y-66975272D01*
X107350000Y-67074728D01*
X107388060Y-67166614D01*
X107458386Y-67236940D01*
X107550272Y-67275000D01*
X107649728Y-67275000D01*
X107741614Y-67236940D01*
X107811940Y-67166614D01*
X107850000Y-67074728D01*
X107850000Y-66975272D01*
X107811940Y-66883386D01*
X107741614Y-66813060D01*
X107649728Y-66775000D01*
X108450001Y-66775000D01*
X108450000Y-66774999D01*
X108426021Y-66717108D01*
X108426021Y-66717107D01*
X108354889Y-66610650D01*
X108354883Y-66610643D01*
X108264353Y-66520113D01*
X108196565Y-66474819D01*
X108151760Y-66421207D01*
X108143053Y-66351882D01*
X108173208Y-66288854D01*
X108203456Y-66264329D01*
X108218716Y-66255520D01*
X108330520Y-66143716D01*
X108409577Y-66006784D01*
X108450500Y-65854057D01*
X108450500Y-65695943D01*
X108409577Y-65543216D01*
X108349877Y-65439811D01*
X108330524Y-65406290D01*
X108330518Y-65406282D01*
X108218715Y-65294479D01*
X108194125Y-65280282D01*
X108154467Y-65257386D01*
X108106253Y-65206821D01*
X108093029Y-65138214D01*
X108118997Y-65073349D01*
X108154468Y-65042613D01*
X108218716Y-65005520D01*
X108330520Y-64893716D01*
X108409577Y-64756784D01*
X108450500Y-64604057D01*
X108450500Y-64445943D01*
X108409577Y-64293216D01*
X108402687Y-64281282D01*
X108330524Y-64156290D01*
X108330518Y-64156282D01*
X108218715Y-64044479D01*
X108194125Y-64030282D01*
X108154467Y-64007386D01*
X108106253Y-63956821D01*
X108093029Y-63888214D01*
X108118997Y-63823349D01*
X108154468Y-63792613D01*
X108218716Y-63755520D01*
X108330520Y-63643716D01*
X108409577Y-63506784D01*
X108450500Y-63354057D01*
X108450500Y-63195943D01*
X108409577Y-63043216D01*
X108379581Y-62991261D01*
X108330524Y-62906290D01*
X108330518Y-62906282D01*
X108218715Y-62794479D01*
X108194125Y-62780282D01*
X108154467Y-62757386D01*
X108106253Y-62706821D01*
X108093029Y-62638214D01*
X108118997Y-62573349D01*
X108154468Y-62542613D01*
X108218716Y-62505520D01*
X108330520Y-62393716D01*
X108409577Y-62256784D01*
X108450500Y-62104057D01*
X108450500Y-61945943D01*
X108409577Y-61793216D01*
X108409573Y-61793209D01*
X108330524Y-61656290D01*
X108330518Y-61656282D01*
X108218717Y-61544481D01*
X108213331Y-61540348D01*
X108172130Y-61483919D01*
X108167977Y-61414173D01*
X108202191Y-61353253D01*
X108232522Y-61331491D01*
X108288342Y-61303050D01*
X108378050Y-61213342D01*
X108435646Y-61100304D01*
X108435646Y-61100302D01*
X108435647Y-61100301D01*
X108450499Y-61006524D01*
X108450500Y-61006519D01*
X108450499Y-60543482D01*
X108435646Y-60449696D01*
X108378050Y-60336658D01*
X108378046Y-60336654D01*
X108378045Y-60336652D01*
X108288347Y-60246954D01*
X108288344Y-60246952D01*
X108288342Y-60246950D01*
X108211517Y-60207805D01*
X108175301Y-60189352D01*
X108081524Y-60174500D01*
X107118482Y-60174500D01*
X107037519Y-60187323D01*
X107024696Y-60189354D01*
X106911658Y-60246950D01*
X106911657Y-60246951D01*
X106911652Y-60246954D01*
X106821954Y-60336652D01*
X106821951Y-60336657D01*
X106764352Y-60449698D01*
X106749500Y-60543475D01*
X105025500Y-60543475D01*
X105025500Y-56600000D01*
X106749999Y-56600000D01*
X106773978Y-56657891D01*
X106773978Y-56657892D01*
X106845110Y-56764349D01*
X106845116Y-56764356D01*
X106935643Y-56854883D01*
X106935650Y-56854889D01*
X107042108Y-56926021D01*
X107160401Y-56975020D01*
X107160409Y-56975022D01*
X107285976Y-56999999D01*
X107285980Y-57000000D01*
X107350000Y-57000000D01*
X107850000Y-57000000D01*
X107914020Y-57000000D01*
X107914023Y-56999999D01*
X108039590Y-56975022D01*
X108039598Y-56975020D01*
X108157891Y-56926021D01*
X108157892Y-56926021D01*
X108264349Y-56854889D01*
X108264356Y-56854883D01*
X108354883Y-56764356D01*
X108354889Y-56764349D01*
X108426021Y-56657892D01*
X108426021Y-56657891D01*
X108450001Y-56600000D01*
X107850000Y-56600000D01*
X107850000Y-57000000D01*
X107350000Y-57000000D01*
X107350000Y-56600000D01*
X106749999Y-56600000D01*
X105025500Y-56600000D01*
X105025500Y-47368475D01*
X106749500Y-47368475D01*
X106749500Y-47831517D01*
X106754138Y-47860800D01*
X106764354Y-47925304D01*
X106821950Y-48038342D01*
X106821952Y-48038344D01*
X106821954Y-48038347D01*
X106911652Y-48128045D01*
X106911656Y-48128048D01*
X106911658Y-48128050D01*
X106967475Y-48156490D01*
X107018270Y-48204464D01*
X107035065Y-48272285D01*
X107012528Y-48338419D01*
X106986672Y-48365345D01*
X106981284Y-48369479D01*
X106869481Y-48481282D01*
X106869475Y-48481290D01*
X106790426Y-48618209D01*
X106790423Y-48618216D01*
X106749500Y-48770943D01*
X106749500Y-48929057D01*
X106786417Y-49066831D01*
X106790423Y-49081783D01*
X106790426Y-49081790D01*
X106869475Y-49218709D01*
X106869479Y-49218714D01*
X106869480Y-49218716D01*
X106981284Y-49330520D01*
X106981285Y-49330521D01*
X106981287Y-49330522D01*
X107045531Y-49367613D01*
X107093746Y-49418179D01*
X107106970Y-49486786D01*
X107081002Y-49551651D01*
X107045531Y-49582387D01*
X106981287Y-49619477D01*
X106981282Y-49619481D01*
X106869481Y-49731282D01*
X106869475Y-49731290D01*
X106790426Y-49868209D01*
X106790423Y-49868216D01*
X106749500Y-50020943D01*
X106749500Y-50179057D01*
X106785162Y-50312147D01*
X106790423Y-50331783D01*
X106790426Y-50331790D01*
X106869475Y-50468709D01*
X106869479Y-50468714D01*
X106869480Y-50468716D01*
X106981284Y-50580520D01*
X106981285Y-50580521D01*
X106981287Y-50580522D01*
X107045531Y-50617613D01*
X107093746Y-50668179D01*
X107106970Y-50736786D01*
X107081002Y-50801651D01*
X107045531Y-50832387D01*
X106981287Y-50869477D01*
X106981282Y-50869481D01*
X106869481Y-50981282D01*
X106869475Y-50981290D01*
X106790426Y-51118209D01*
X106790423Y-51118216D01*
X106749500Y-51270943D01*
X106749500Y-51429057D01*
X106785971Y-51565167D01*
X106790423Y-51581783D01*
X106790426Y-51581790D01*
X106869475Y-51718709D01*
X106869479Y-51718714D01*
X106869480Y-51718716D01*
X106981284Y-51830520D01*
X106981285Y-51830521D01*
X106981287Y-51830522D01*
X107045531Y-51867613D01*
X107093746Y-51918179D01*
X107106970Y-51986786D01*
X107081002Y-52051651D01*
X107045531Y-52082387D01*
X106981287Y-52119477D01*
X106981282Y-52119481D01*
X106869481Y-52231282D01*
X106869475Y-52231290D01*
X106790426Y-52368209D01*
X106790423Y-52368216D01*
X106749500Y-52520943D01*
X106749500Y-52679057D01*
X106780208Y-52793659D01*
X106790423Y-52831783D01*
X106790426Y-52831790D01*
X106869475Y-52968709D01*
X106869479Y-52968714D01*
X106869480Y-52968716D01*
X106981284Y-53080520D01*
X106981285Y-53080521D01*
X106981287Y-53080522D01*
X107045531Y-53117613D01*
X107093746Y-53168179D01*
X107106970Y-53236786D01*
X107081002Y-53301651D01*
X107045531Y-53332387D01*
X106981287Y-53369477D01*
X106981282Y-53369481D01*
X106869481Y-53481282D01*
X106869475Y-53481290D01*
X106790426Y-53618209D01*
X106790423Y-53618216D01*
X106749500Y-53770943D01*
X106749500Y-53929057D01*
X106789212Y-54077262D01*
X106790423Y-54081783D01*
X106790426Y-54081790D01*
X106869475Y-54218709D01*
X106869479Y-54218714D01*
X106869480Y-54218716D01*
X106981284Y-54330520D01*
X106981285Y-54330521D01*
X106981287Y-54330522D01*
X107045531Y-54367613D01*
X107093746Y-54418179D01*
X107106970Y-54486786D01*
X107081002Y-54551651D01*
X107045531Y-54582387D01*
X106981287Y-54619477D01*
X106981282Y-54619481D01*
X106869481Y-54731282D01*
X106869475Y-54731290D01*
X106790426Y-54868209D01*
X106790423Y-54868216D01*
X106749500Y-55020943D01*
X106749500Y-55179057D01*
X106758843Y-55213923D01*
X106790423Y-55331783D01*
X106790426Y-55331790D01*
X106869475Y-55468709D01*
X106869479Y-55468714D01*
X106869480Y-55468716D01*
X106981284Y-55580520D01*
X106996542Y-55589329D01*
X107044758Y-55639896D01*
X107057982Y-55708503D01*
X107032014Y-55773368D01*
X107003435Y-55799819D01*
X106935643Y-55845116D01*
X106845116Y-55935643D01*
X106845110Y-55935650D01*
X106773978Y-56042107D01*
X106773978Y-56042108D01*
X106749999Y-56099999D01*
X106749999Y-56100000D01*
X107550272Y-56100000D01*
X107458386Y-56138060D01*
X107388060Y-56208386D01*
X107350000Y-56300272D01*
X107350000Y-56399728D01*
X107388060Y-56491614D01*
X107458386Y-56561940D01*
X107550272Y-56600000D01*
X107649728Y-56600000D01*
X107741614Y-56561940D01*
X107811940Y-56491614D01*
X107850000Y-56399728D01*
X107850000Y-56300272D01*
X107811940Y-56208386D01*
X107741614Y-56138060D01*
X107649728Y-56100000D01*
X108450001Y-56100000D01*
X108450000Y-56099999D01*
X108426021Y-56042108D01*
X108426021Y-56042107D01*
X108354889Y-55935650D01*
X108354883Y-55935643D01*
X108264353Y-55845113D01*
X108196565Y-55799819D01*
X108151760Y-55746207D01*
X108143053Y-55676882D01*
X108173208Y-55613854D01*
X108183190Y-55603936D01*
X108192581Y-55595608D01*
X108218716Y-55580520D01*
X108290052Y-55509183D01*
X108292832Y-55506719D01*
X108321220Y-55493361D01*
X108348740Y-55478334D01*
X108354463Y-55477718D01*
X108356052Y-55476971D01*
X108358458Y-55477289D01*
X108375098Y-55475500D01*
X108563811Y-55475500D01*
X108630850Y-55495185D01*
X108651492Y-55511819D01*
X111764534Y-58624861D01*
X111764535Y-58624862D01*
X111825138Y-58685465D01*
X111825140Y-58685466D01*
X111825144Y-58685469D01*
X111846416Y-58697750D01*
X111899362Y-58728318D01*
X111982147Y-58750500D01*
X115513034Y-58750500D01*
X115580073Y-58770185D01*
X115625828Y-58822989D01*
X115635772Y-58892147D01*
X115606747Y-58955703D01*
X115600715Y-58962181D01*
X114539513Y-60023383D01*
X114539509Y-60023389D01*
X114480201Y-60126112D01*
X114480200Y-60126117D01*
X114449500Y-60240691D01*
X114449500Y-60545069D01*
X114429815Y-60612108D01*
X114423875Y-60620557D01*
X114419475Y-60626290D01*
X114340426Y-60763209D01*
X114340423Y-60763216D01*
X114299500Y-60915943D01*
X114299500Y-61074057D01*
X114336822Y-61213342D01*
X114340423Y-61226783D01*
X114340426Y-61226790D01*
X114419473Y-61363706D01*
X114419477Y-61363712D01*
X114419480Y-61363716D01*
X114419482Y-61363718D01*
X114423872Y-61369438D01*
X114449069Y-61434606D01*
X114449500Y-61444930D01*
X114449500Y-65439811D01*
X114429815Y-65506850D01*
X114377011Y-65552605D01*
X114307853Y-65562549D01*
X114244297Y-65533524D01*
X114237819Y-65527492D01*
X113536629Y-64826302D01*
X113503144Y-64764979D01*
X113501994Y-64737185D01*
X113500500Y-64737185D01*
X113500500Y-64570945D01*
X113500500Y-64570943D01*
X113459577Y-64418216D01*
X113387405Y-64293209D01*
X113380524Y-64281290D01*
X113380518Y-64281282D01*
X113268717Y-64169481D01*
X113268709Y-64169475D01*
X113131790Y-64090426D01*
X113131786Y-64090424D01*
X113131784Y-64090423D01*
X112979057Y-64049500D01*
X112820943Y-64049500D01*
X112668216Y-64090423D01*
X112668209Y-64090426D01*
X112531290Y-64169475D01*
X112531282Y-64169481D01*
X112419481Y-64281282D01*
X112419475Y-64281290D01*
X112340426Y-64418209D01*
X112340423Y-64418216D01*
X112299500Y-64570943D01*
X112299500Y-64729057D01*
X112309126Y-64764979D01*
X112340423Y-64881783D01*
X112340426Y-64881790D01*
X112419475Y-65018709D01*
X112419479Y-65018714D01*
X112419480Y-65018716D01*
X112531284Y-65130520D01*
X112531285Y-65130521D01*
X112531287Y-65130522D01*
X112595531Y-65167613D01*
X112643746Y-65218179D01*
X112656970Y-65286786D01*
X112631002Y-65351651D01*
X112595531Y-65382387D01*
X112531287Y-65419477D01*
X112531282Y-65419481D01*
X112419481Y-65531282D01*
X112419475Y-65531290D01*
X112340426Y-65668209D01*
X112340423Y-65668216D01*
X112299500Y-65820943D01*
X112299500Y-65979057D01*
X112306930Y-66006784D01*
X112340423Y-66131783D01*
X112340426Y-66131790D01*
X112419475Y-66268709D01*
X112419479Y-66268714D01*
X112419480Y-66268716D01*
X112531284Y-66380520D01*
X112531286Y-66380521D01*
X112531290Y-66380524D01*
X112668209Y-66459573D01*
X112668216Y-66459577D01*
X112820943Y-66500500D01*
X112820945Y-66500500D01*
X112987185Y-66500500D01*
X112987185Y-66503683D01*
X113041398Y-66512102D01*
X113076302Y-66536629D01*
X113363181Y-66823508D01*
X113396666Y-66884831D01*
X113399500Y-66911189D01*
X113399500Y-71080214D01*
X113379815Y-71147253D01*
X113327011Y-71193008D01*
X113257853Y-71202952D01*
X113213501Y-71187602D01*
X113131784Y-71140423D01*
X112979057Y-71099500D01*
X112820943Y-71099500D01*
X112668216Y-71140423D01*
X112668209Y-71140426D01*
X112531290Y-71219475D01*
X112531282Y-71219481D01*
X112419481Y-71331282D01*
X112419475Y-71331290D01*
X112340426Y-71468209D01*
X112340423Y-71468216D01*
X112299500Y-71620943D01*
X112299500Y-71779057D01*
X112338472Y-71924500D01*
X112340423Y-71931783D01*
X112343534Y-71939294D01*
X112340839Y-71940410D01*
X112353992Y-71994695D01*
X112331120Y-72060716D01*
X112276187Y-72103890D01*
X112262228Y-72108534D01*
X112143214Y-72140423D01*
X112143209Y-72140426D01*
X112006290Y-72219475D01*
X112006282Y-72219481D01*
X111894481Y-72331282D01*
X111894475Y-72331290D01*
X111815426Y-72468209D01*
X111815423Y-72468216D01*
X111774500Y-72620943D01*
X111774500Y-72779057D01*
X111801277Y-72878988D01*
X111815423Y-72931783D01*
X111815426Y-72931790D01*
X111894475Y-73068709D01*
X111894479Y-73068714D01*
X111894480Y-73068716D01*
X112006284Y-73180520D01*
X112006286Y-73180521D01*
X112006290Y-73180524D01*
X112143209Y-73259573D01*
X112143216Y-73259577D01*
X112295943Y-73300500D01*
X112295945Y-73300500D01*
X112375500Y-73300500D01*
X112442539Y-73320185D01*
X112488294Y-73372989D01*
X112499500Y-73424500D01*
X112499500Y-81134217D01*
X112479815Y-81201256D01*
X112463181Y-81221898D01*
X112164537Y-81520541D01*
X112164535Y-81520544D01*
X112121682Y-81594767D01*
X112108673Y-81643318D01*
X112108673Y-81643319D01*
X112108672Y-81643318D01*
X112099500Y-81677551D01*
X112099500Y-81677553D01*
X112099500Y-84418543D01*
X112099500Y-84504249D01*
X112108921Y-84539409D01*
X112121682Y-84587036D01*
X112143108Y-84624146D01*
X112164535Y-84661258D01*
X112164537Y-84661260D01*
X112938181Y-85434904D01*
X112971666Y-85496227D01*
X112974500Y-85522585D01*
X112974500Y-89933354D01*
X112996682Y-90016142D01*
X113018108Y-90053252D01*
X113039535Y-90090364D01*
X113039537Y-90090366D01*
X113529648Y-90580477D01*
X113563133Y-90641800D01*
X113561743Y-90700248D01*
X113553744Y-90730103D01*
X113549500Y-90745943D01*
X113549500Y-90904057D01*
X113558907Y-90939162D01*
X113590423Y-91056783D01*
X113590426Y-91056790D01*
X113669475Y-91193709D01*
X113669479Y-91193714D01*
X113669480Y-91193716D01*
X113781284Y-91305520D01*
X113781286Y-91305521D01*
X113781290Y-91305524D01*
X113918209Y-91384573D01*
X113918216Y-91384577D01*
X114070943Y-91425500D01*
X114070945Y-91425500D01*
X114229055Y-91425500D01*
X114229057Y-91425500D01*
X114381784Y-91384577D01*
X114463502Y-91337397D01*
X114531400Y-91320925D01*
X114597427Y-91343777D01*
X114640618Y-91398699D01*
X114649500Y-91444785D01*
X114649500Y-94627664D01*
X114632888Y-94689663D01*
X114590423Y-94763215D01*
X114590423Y-94763216D01*
X114549500Y-94915943D01*
X114549500Y-95074056D01*
X114590423Y-95226783D01*
X114590426Y-95226790D01*
X114669475Y-95363709D01*
X114669481Y-95363717D01*
X114763181Y-95457417D01*
X114796666Y-95518740D01*
X114799500Y-95545098D01*
X114799500Y-112512035D01*
X114779815Y-112579074D01*
X114763181Y-112599716D01*
X114549716Y-112813181D01*
X114488393Y-112846666D01*
X114462035Y-112849500D01*
X110896521Y-112849500D01*
X110829482Y-112829815D01*
X110783727Y-112777011D01*
X110781960Y-112772953D01*
X110773666Y-112752931D01*
X110773666Y-112752930D01*
X110773665Y-112752928D01*
X110773663Y-112752925D01*
X110773661Y-112752921D01*
X110656512Y-112577596D01*
X110656509Y-112577592D01*
X110507407Y-112428490D01*
X110507403Y-112428487D01*
X110332078Y-112311338D01*
X110332069Y-112311333D01*
X110137253Y-112230638D01*
X110137245Y-112230636D01*
X109930439Y-112189500D01*
X109930435Y-112189500D01*
X109269565Y-112189500D01*
X109269560Y-112189500D01*
X109062754Y-112230636D01*
X109062746Y-112230638D01*
X108867930Y-112311333D01*
X108867921Y-112311338D01*
X108692596Y-112428487D01*
X108692592Y-112428490D01*
X108543490Y-112577592D01*
X108543487Y-112577596D01*
X108426338Y-112752921D01*
X108426333Y-112752930D01*
X108345638Y-112947746D01*
X108345636Y-112947754D01*
X108304500Y-113154560D01*
X108304500Y-113365439D01*
X108345636Y-113572245D01*
X108345638Y-113572253D01*
X108426333Y-113767069D01*
X108426338Y-113767078D01*
X108543487Y-113942403D01*
X108543490Y-113942407D01*
X108692592Y-114091509D01*
X108692596Y-114091512D01*
X108867921Y-114208661D01*
X108867927Y-114208664D01*
X108867928Y-114208665D01*
X109062747Y-114289362D01*
X109269560Y-114330499D01*
X109269564Y-114330500D01*
X109269565Y-114330500D01*
X109930436Y-114330500D01*
X109930437Y-114330499D01*
X110137253Y-114289362D01*
X110332072Y-114208665D01*
X110507404Y-114091512D01*
X110656512Y-113942404D01*
X110705487Y-113869107D01*
X110747916Y-113805609D01*
X110801528Y-113760804D01*
X110851018Y-113750500D01*
X114759308Y-113750500D01*
X114759309Y-113750500D01*
X114849673Y-113726286D01*
X114873887Y-113719799D01*
X114976614Y-113660489D01*
X115162319Y-113474784D01*
X115223642Y-113441299D01*
X115293334Y-113446283D01*
X115337681Y-113474784D01*
X127073386Y-125210489D01*
X127176113Y-125269799D01*
X127200321Y-125276284D01*
X127200324Y-125276286D01*
X127200325Y-125276286D01*
X127230447Y-125284357D01*
X127290691Y-125300500D01*
X127290693Y-125300500D01*
X149161390Y-125300500D01*
X149161391Y-125300500D01*
X149251755Y-125276286D01*
X149275969Y-125269799D01*
X149292421Y-125260300D01*
X149301885Y-125256731D01*
X149327030Y-125254840D01*
X149351534Y-125248894D01*
X149361276Y-125252265D01*
X149371558Y-125251492D01*
X149393732Y-125263495D01*
X149417563Y-125271741D01*
X149432843Y-125284666D01*
X149433003Y-125284753D01*
X149433052Y-125284843D01*
X149433324Y-125285073D01*
X149496774Y-125348523D01*
X149496778Y-125348526D01*
X149496780Y-125348528D01*
X149616874Y-125409719D01*
X149616876Y-125409719D01*
X149616878Y-125409720D01*
X149716507Y-125425500D01*
X149716512Y-125425500D01*
X150283493Y-125425500D01*
X150383121Y-125409720D01*
X150383121Y-125409719D01*
X150383126Y-125409719D01*
X150503220Y-125348528D01*
X150514563Y-125337185D01*
X150589930Y-125261819D01*
X150616857Y-125247115D01*
X150642676Y-125230523D01*
X150648876Y-125229631D01*
X150651253Y-125228334D01*
X150677611Y-125225500D01*
X150925500Y-125225500D01*
X150992539Y-125245185D01*
X151038294Y-125297989D01*
X151049500Y-125349500D01*
X151049500Y-126433260D01*
X151059426Y-126501391D01*
X151086901Y-126557592D01*
X151099500Y-126612052D01*
X151099500Y-126962033D01*
X151090856Y-126991469D01*
X151084333Y-127021459D01*
X151080577Y-127026475D01*
X151079815Y-127029072D01*
X151063182Y-127049713D01*
X151007216Y-127105680D01*
X150945893Y-127139166D01*
X150919534Y-127142000D01*
X150409931Y-127142000D01*
X150342892Y-127122315D01*
X150334443Y-127116375D01*
X150328709Y-127111975D01*
X150191790Y-127032926D01*
X150191786Y-127032924D01*
X150191784Y-127032923D01*
X150039057Y-126992000D01*
X149880943Y-126992000D01*
X149728216Y-127032923D01*
X149728209Y-127032926D01*
X149591290Y-127111975D01*
X149591282Y-127111981D01*
X149479481Y-127223782D01*
X149479475Y-127223790D01*
X149400426Y-127360709D01*
X149400423Y-127360716D01*
X149359500Y-127513443D01*
X149359500Y-127671557D01*
X149400423Y-127824282D01*
X149400423Y-127824283D01*
X149400426Y-127824290D01*
X149479475Y-127961209D01*
X149479479Y-127961214D01*
X149479480Y-127961216D01*
X149591284Y-128073020D01*
X149591286Y-128073021D01*
X149591290Y-128073024D01*
X149728209Y-128152073D01*
X149728216Y-128152077D01*
X149880943Y-128193000D01*
X149880945Y-128193000D01*
X150039055Y-128193000D01*
X150039057Y-128193000D01*
X150191784Y-128152077D01*
X150328716Y-128073020D01*
X150328721Y-128073014D01*
X150334443Y-128068625D01*
X150399612Y-128043430D01*
X150409931Y-128043000D01*
X151216808Y-128043000D01*
X151216809Y-128043000D01*
X151307173Y-128018786D01*
X151331387Y-128012299D01*
X151434114Y-127952989D01*
X151708759Y-127678343D01*
X151770080Y-127644860D01*
X151839771Y-127649844D01*
X151895705Y-127691715D01*
X151916213Y-127733931D01*
X151940422Y-127824282D01*
X151940424Y-127824286D01*
X151940426Y-127824290D01*
X152019475Y-127961209D01*
X152019479Y-127961214D01*
X152019480Y-127961216D01*
X152131284Y-128073020D01*
X152131286Y-128073021D01*
X152131290Y-128073024D01*
X152268209Y-128152073D01*
X152268216Y-128152077D01*
X152420943Y-128193000D01*
X152420945Y-128193000D01*
X152579055Y-128193000D01*
X152579057Y-128193000D01*
X152731784Y-128152077D01*
X152868716Y-128073020D01*
X152980520Y-127961216D01*
X153059577Y-127824284D01*
X153083787Y-127733930D01*
X153120149Y-127674273D01*
X153182996Y-127643743D01*
X153252371Y-127652037D01*
X153291241Y-127678345D01*
X153335057Y-127722161D01*
X153565886Y-127952990D01*
X153668613Y-128012299D01*
X153692821Y-128018784D01*
X153692824Y-128018786D01*
X153692825Y-128018786D01*
X153722947Y-128026857D01*
X153783191Y-128043000D01*
X154590069Y-128043000D01*
X154657108Y-128062685D01*
X154665557Y-128068625D01*
X154671281Y-128073017D01*
X154671284Y-128073020D01*
X154671287Y-128073021D01*
X154671290Y-128073024D01*
X154808209Y-128152073D01*
X154808216Y-128152077D01*
X154960943Y-128193000D01*
X154960945Y-128193000D01*
X155119055Y-128193000D01*
X155119057Y-128193000D01*
X155271784Y-128152077D01*
X155408716Y-128073020D01*
X155520520Y-127961216D01*
X155599577Y-127824284D01*
X155640500Y-127671557D01*
X155640500Y-127513443D01*
X155599577Y-127360716D01*
X155599573Y-127360709D01*
X155520524Y-127223790D01*
X155520518Y-127223782D01*
X155408717Y-127111981D01*
X155408709Y-127111975D01*
X155271790Y-127032926D01*
X155271786Y-127032924D01*
X155271784Y-127032923D01*
X155119057Y-126992000D01*
X154960943Y-126992000D01*
X154808216Y-127032923D01*
X154808209Y-127032926D01*
X154671290Y-127111975D01*
X154665557Y-127116375D01*
X154600388Y-127141570D01*
X154590069Y-127142000D01*
X154080466Y-127142000D01*
X154051025Y-127133355D01*
X154021039Y-127126832D01*
X154016023Y-127123077D01*
X154013427Y-127122315D01*
X153992785Y-127105681D01*
X153936819Y-127049715D01*
X153903334Y-126988392D01*
X153900500Y-126962034D01*
X153900500Y-126612052D01*
X153913099Y-126557592D01*
X153925000Y-126533248D01*
X153940573Y-126501393D01*
X153950500Y-126433260D01*
X153950500Y-125349500D01*
X153970185Y-125282461D01*
X154022989Y-125236706D01*
X154074500Y-125225500D01*
X157072389Y-125225500D01*
X157139428Y-125245185D01*
X157160070Y-125261819D01*
X157246774Y-125348523D01*
X157246778Y-125348526D01*
X157246780Y-125348528D01*
X157366874Y-125409719D01*
X157366876Y-125409719D01*
X157366878Y-125409720D01*
X157466507Y-125425500D01*
X157466512Y-125425500D01*
X158033493Y-125425500D01*
X158133121Y-125409720D01*
X158133121Y-125409719D01*
X158133126Y-125409719D01*
X158253220Y-125348528D01*
X158348528Y-125253220D01*
X158348530Y-125253214D01*
X158349693Y-125251616D01*
X158351606Y-125250140D01*
X158354490Y-125247256D01*
X158356299Y-125243297D01*
X158381398Y-125227166D01*
X158405023Y-125208949D01*
X158411696Y-125207695D01*
X158415077Y-125205523D01*
X158450012Y-125200500D01*
X158676703Y-125200500D01*
X158743742Y-125220185D01*
X158789497Y-125272989D01*
X158798728Y-125337189D01*
X158799824Y-125337269D01*
X158799500Y-125341737D01*
X158799500Y-126433260D01*
X158809426Y-126501391D01*
X158836901Y-126557592D01*
X158849500Y-126612052D01*
X158849500Y-126962033D01*
X158840856Y-126991469D01*
X158834333Y-127021459D01*
X158830577Y-127026475D01*
X158829815Y-127029072D01*
X158813182Y-127049713D01*
X158757216Y-127105680D01*
X158695893Y-127139166D01*
X158669534Y-127142000D01*
X158159931Y-127142000D01*
X158092892Y-127122315D01*
X158084443Y-127116375D01*
X158078709Y-127111975D01*
X157941790Y-127032926D01*
X157941786Y-127032924D01*
X157941784Y-127032923D01*
X157789057Y-126992000D01*
X157630943Y-126992000D01*
X157478216Y-127032923D01*
X157478209Y-127032926D01*
X157341290Y-127111975D01*
X157341282Y-127111981D01*
X157229481Y-127223782D01*
X157229475Y-127223790D01*
X157150426Y-127360709D01*
X157150423Y-127360716D01*
X157109500Y-127513443D01*
X157109500Y-127671557D01*
X157150423Y-127824282D01*
X157150423Y-127824283D01*
X157150426Y-127824290D01*
X157229475Y-127961209D01*
X157229479Y-127961214D01*
X157229480Y-127961216D01*
X157341284Y-128073020D01*
X157341286Y-128073021D01*
X157341290Y-128073024D01*
X157478209Y-128152073D01*
X157478216Y-128152077D01*
X157630943Y-128193000D01*
X157630945Y-128193000D01*
X157789055Y-128193000D01*
X157789057Y-128193000D01*
X157941784Y-128152077D01*
X158078716Y-128073020D01*
X158078721Y-128073014D01*
X158084443Y-128068625D01*
X158149612Y-128043430D01*
X158159931Y-128043000D01*
X158966808Y-128043000D01*
X158966809Y-128043000D01*
X159057173Y-128018786D01*
X159081387Y-128012299D01*
X159184114Y-127952989D01*
X159458759Y-127678343D01*
X159520080Y-127644860D01*
X159589771Y-127649844D01*
X159645705Y-127691715D01*
X159666213Y-127733931D01*
X159690422Y-127824282D01*
X159690424Y-127824286D01*
X159690426Y-127824290D01*
X159769475Y-127961209D01*
X159769479Y-127961214D01*
X159769480Y-127961216D01*
X159881284Y-128073020D01*
X159881286Y-128073021D01*
X159881290Y-128073024D01*
X160018209Y-128152073D01*
X160018216Y-128152077D01*
X160170943Y-128193000D01*
X160170945Y-128193000D01*
X160329055Y-128193000D01*
X160329057Y-128193000D01*
X160481784Y-128152077D01*
X160618716Y-128073020D01*
X160730520Y-127961216D01*
X160809577Y-127824284D01*
X160833787Y-127733930D01*
X160870149Y-127674273D01*
X160932996Y-127643743D01*
X161002371Y-127652037D01*
X161041241Y-127678345D01*
X161085057Y-127722161D01*
X161315886Y-127952990D01*
X161418613Y-128012299D01*
X161442821Y-128018784D01*
X161442824Y-128018786D01*
X161442825Y-128018786D01*
X161472947Y-128026857D01*
X161533191Y-128043000D01*
X162340069Y-128043000D01*
X162407108Y-128062685D01*
X162415557Y-128068625D01*
X162421281Y-128073017D01*
X162421284Y-128073020D01*
X162421287Y-128073021D01*
X162421290Y-128073024D01*
X162558209Y-128152073D01*
X162558216Y-128152077D01*
X162710943Y-128193000D01*
X162710945Y-128193000D01*
X162869055Y-128193000D01*
X162869057Y-128193000D01*
X163021784Y-128152077D01*
X163158716Y-128073020D01*
X163270520Y-127961216D01*
X163349577Y-127824284D01*
X163390500Y-127671557D01*
X163390500Y-127513443D01*
X163349577Y-127360716D01*
X163349573Y-127360709D01*
X163270524Y-127223790D01*
X163270518Y-127223782D01*
X163158717Y-127111981D01*
X163158709Y-127111975D01*
X163021790Y-127032926D01*
X163021786Y-127032924D01*
X163021784Y-127032923D01*
X162869057Y-126992000D01*
X162710943Y-126992000D01*
X162558216Y-127032923D01*
X162558209Y-127032926D01*
X162421290Y-127111975D01*
X162415557Y-127116375D01*
X162350388Y-127141570D01*
X162340069Y-127142000D01*
X161830466Y-127142000D01*
X161801025Y-127133355D01*
X161771039Y-127126832D01*
X161766023Y-127123077D01*
X161763427Y-127122315D01*
X161742785Y-127105681D01*
X161686819Y-127049715D01*
X161653334Y-126988392D01*
X161650500Y-126962034D01*
X161650500Y-126612052D01*
X161663099Y-126557592D01*
X161675000Y-126533248D01*
X161690573Y-126501393D01*
X161700500Y-126433260D01*
X161700500Y-125341740D01*
X161700500Y-125341737D01*
X161700176Y-125337269D01*
X161701329Y-125337185D01*
X161710405Y-125273202D01*
X161756060Y-125220312D01*
X161823062Y-125200500D01*
X164799988Y-125200500D01*
X164867027Y-125220185D01*
X164900311Y-125251621D01*
X164901476Y-125253225D01*
X164996774Y-125348523D01*
X164996778Y-125348526D01*
X164996780Y-125348528D01*
X165116874Y-125409719D01*
X165116876Y-125409719D01*
X165116878Y-125409720D01*
X165216507Y-125425500D01*
X165216512Y-125425500D01*
X165783493Y-125425500D01*
X165883121Y-125409720D01*
X165883121Y-125409719D01*
X165883126Y-125409719D01*
X166003220Y-125348528D01*
X166098528Y-125253220D01*
X166098531Y-125253213D01*
X166099689Y-125251621D01*
X166101607Y-125250141D01*
X166104489Y-125247259D01*
X166106299Y-125243297D01*
X166131398Y-125227166D01*
X166155017Y-125208952D01*
X166161692Y-125207698D01*
X166165077Y-125205523D01*
X166200012Y-125200500D01*
X166426703Y-125200500D01*
X166493742Y-125220185D01*
X166539497Y-125272989D01*
X166548728Y-125337189D01*
X166549824Y-125337269D01*
X166549500Y-125341737D01*
X166549500Y-126433260D01*
X166559426Y-126501391D01*
X166559427Y-126501393D01*
X166610802Y-126606483D01*
X166610803Y-126606484D01*
X166628182Y-126623863D01*
X166642888Y-126650794D01*
X166659480Y-126676611D01*
X166660371Y-126682808D01*
X166661669Y-126685185D01*
X166664503Y-126711546D01*
X166664503Y-126925500D01*
X166644818Y-126992539D01*
X166592014Y-127038294D01*
X166540503Y-127049500D01*
X165753722Y-127049500D01*
X165699715Y-127035027D01*
X165699298Y-127036035D01*
X165691786Y-127032924D01*
X165691785Y-127032923D01*
X165691784Y-127032923D01*
X165539057Y-126992000D01*
X165380943Y-126992000D01*
X165228216Y-127032923D01*
X165228209Y-127032926D01*
X165091290Y-127111975D01*
X165091282Y-127111981D01*
X164979481Y-127223782D01*
X164979475Y-127223790D01*
X164900426Y-127360709D01*
X164900423Y-127360716D01*
X164859500Y-127513443D01*
X164859500Y-127671557D01*
X164900423Y-127824282D01*
X164900423Y-127824283D01*
X164900426Y-127824290D01*
X164979475Y-127961209D01*
X164979479Y-127961214D01*
X164979480Y-127961216D01*
X165091284Y-128073020D01*
X165091286Y-128073021D01*
X165091290Y-128073024D01*
X165228209Y-128152073D01*
X165228216Y-128152077D01*
X165380943Y-128193000D01*
X165380945Y-128193000D01*
X165539055Y-128193000D01*
X165539057Y-128193000D01*
X165691784Y-128152077D01*
X165828716Y-128073020D01*
X165914917Y-127986819D01*
X165976240Y-127953334D01*
X166002598Y-127950500D01*
X167059308Y-127950500D01*
X167059309Y-127950500D01*
X167149673Y-127926286D01*
X167173887Y-127919799D01*
X167276614Y-127860489D01*
X167292150Y-127844952D01*
X167307925Y-127836381D01*
X167325229Y-127832653D01*
X167340764Y-127824170D01*
X167358673Y-127825450D01*
X167376228Y-127821669D01*
X167392801Y-127827889D01*
X167410456Y-127829151D01*
X167424830Y-127839910D01*
X167441642Y-127846220D01*
X167452220Y-127860411D01*
X167466392Y-127871019D01*
X167474511Y-127883328D01*
X167495568Y-127919798D01*
X167519477Y-127961212D01*
X167519480Y-127961216D01*
X167631284Y-128073020D01*
X167631286Y-128073021D01*
X167631290Y-128073024D01*
X167768209Y-128152073D01*
X167768216Y-128152077D01*
X167920943Y-128193000D01*
X167920945Y-128193000D01*
X168079055Y-128193000D01*
X168079057Y-128193000D01*
X168231784Y-128152077D01*
X168368716Y-128073020D01*
X168480520Y-127961216D01*
X168559577Y-127824284D01*
X168583786Y-127733931D01*
X168620151Y-127674272D01*
X168682998Y-127643743D01*
X168752373Y-127652038D01*
X168791242Y-127678345D01*
X168973386Y-127860489D01*
X169076113Y-127919799D01*
X169100321Y-127926284D01*
X169100324Y-127926286D01*
X169100325Y-127926286D01*
X169130447Y-127934357D01*
X169190691Y-127950500D01*
X169997402Y-127950500D01*
X170064441Y-127970185D01*
X170085083Y-127986819D01*
X170171284Y-128073020D01*
X170171286Y-128073021D01*
X170171290Y-128073024D01*
X170308209Y-128152073D01*
X170308216Y-128152077D01*
X170460943Y-128193000D01*
X170460945Y-128193000D01*
X170619055Y-128193000D01*
X170619057Y-128193000D01*
X170771784Y-128152077D01*
X170908716Y-128073020D01*
X171020520Y-127961216D01*
X171099577Y-127824284D01*
X171140500Y-127671557D01*
X171140500Y-127513443D01*
X171099577Y-127360716D01*
X171099573Y-127360709D01*
X171020524Y-127223790D01*
X171020518Y-127223782D01*
X170908717Y-127111981D01*
X170908709Y-127111975D01*
X170771790Y-127032926D01*
X170771786Y-127032924D01*
X170771784Y-127032923D01*
X170619057Y-126992000D01*
X170460943Y-126992000D01*
X170308216Y-127032923D01*
X170308215Y-127032923D01*
X170308213Y-127032924D01*
X170300702Y-127036035D01*
X170300284Y-127035027D01*
X170246278Y-127049500D01*
X169589503Y-127049500D01*
X169522464Y-127029815D01*
X169476709Y-126977011D01*
X169465503Y-126925500D01*
X169465503Y-125763190D01*
X169465502Y-125763186D01*
X169454725Y-125722962D01*
X169450500Y-125690870D01*
X169450500Y-125341737D01*
X169450176Y-125337269D01*
X169451329Y-125337185D01*
X169460405Y-125273202D01*
X169506060Y-125220312D01*
X169573062Y-125200500D01*
X172549988Y-125200500D01*
X172617027Y-125220185D01*
X172650311Y-125251621D01*
X172651476Y-125253225D01*
X172746774Y-125348523D01*
X172746778Y-125348526D01*
X172746780Y-125348528D01*
X172866874Y-125409719D01*
X172866876Y-125409719D01*
X172866878Y-125409720D01*
X172966507Y-125425500D01*
X172966512Y-125425500D01*
X173009461Y-125425500D01*
X173071462Y-125442114D01*
X173076112Y-125444799D01*
X173076114Y-125444800D01*
X173146233Y-125463587D01*
X173190691Y-125475499D01*
X173190694Y-125475499D01*
X173309306Y-125475499D01*
X173309309Y-125475499D01*
X173379429Y-125456710D01*
X173423885Y-125444800D01*
X173423887Y-125444799D01*
X173428538Y-125442114D01*
X173490539Y-125425500D01*
X173533493Y-125425500D01*
X173633121Y-125409720D01*
X173633121Y-125409719D01*
X173633126Y-125409719D01*
X173753220Y-125348528D01*
X173848528Y-125253220D01*
X173848531Y-125253213D01*
X173849689Y-125251621D01*
X173851607Y-125250141D01*
X173854489Y-125247259D01*
X173856299Y-125243297D01*
X173881398Y-125227166D01*
X173905017Y-125208952D01*
X173911692Y-125207698D01*
X173915077Y-125205523D01*
X173950012Y-125200500D01*
X174176703Y-125200500D01*
X174243742Y-125220185D01*
X174289497Y-125272989D01*
X174298728Y-125337189D01*
X174299824Y-125337269D01*
X174299500Y-125341737D01*
X174299500Y-126433260D01*
X174309426Y-126501391D01*
X174336901Y-126557592D01*
X174349500Y-126612052D01*
X174349500Y-127018000D01*
X174329815Y-127085039D01*
X174277011Y-127130794D01*
X174225500Y-127142000D01*
X173659931Y-127142000D01*
X173592892Y-127122315D01*
X173584443Y-127116375D01*
X173578709Y-127111975D01*
X173441790Y-127032926D01*
X173441786Y-127032924D01*
X173441784Y-127032923D01*
X173289057Y-126992000D01*
X173130943Y-126992000D01*
X172978216Y-127032923D01*
X172978209Y-127032926D01*
X172841290Y-127111975D01*
X172841282Y-127111981D01*
X172729481Y-127223782D01*
X172729475Y-127223790D01*
X172650426Y-127360709D01*
X172650423Y-127360716D01*
X172609500Y-127513443D01*
X172609500Y-127671557D01*
X172650423Y-127824282D01*
X172650423Y-127824283D01*
X172650426Y-127824290D01*
X172729475Y-127961209D01*
X172729479Y-127961214D01*
X172729480Y-127961216D01*
X172841284Y-128073020D01*
X172841286Y-128073021D01*
X172841290Y-128073024D01*
X172978209Y-128152073D01*
X172978216Y-128152077D01*
X173130943Y-128193000D01*
X173130945Y-128193000D01*
X173289055Y-128193000D01*
X173289057Y-128193000D01*
X173441784Y-128152077D01*
X173578716Y-128073020D01*
X173578721Y-128073014D01*
X173584443Y-128068625D01*
X173649612Y-128043430D01*
X173659931Y-128043000D01*
X174716808Y-128043000D01*
X174716809Y-128043000D01*
X174807173Y-128018786D01*
X174831387Y-128012299D01*
X174934114Y-127952989D01*
X175029448Y-127857655D01*
X175090771Y-127824170D01*
X175160463Y-127829154D01*
X175216396Y-127871026D01*
X175224516Y-127883336D01*
X175269477Y-127961212D01*
X175269479Y-127961215D01*
X175269480Y-127961216D01*
X175381284Y-128073020D01*
X175381286Y-128073021D01*
X175381290Y-128073024D01*
X175518209Y-128152073D01*
X175518216Y-128152077D01*
X175670943Y-128193000D01*
X175670945Y-128193000D01*
X175829055Y-128193000D01*
X175829057Y-128193000D01*
X175981784Y-128152077D01*
X176118716Y-128073020D01*
X176230520Y-127961216D01*
X176275484Y-127883334D01*
X176289486Y-127869983D01*
X176299579Y-127853474D01*
X176314251Y-127846369D01*
X176326049Y-127835121D01*
X176345048Y-127831458D01*
X176362465Y-127823026D01*
X176378648Y-127824982D01*
X176394655Y-127821897D01*
X176412620Y-127829088D01*
X176431830Y-127831411D01*
X176451179Y-127844525D01*
X176459520Y-127847864D01*
X176461943Y-127849819D01*
X176466433Y-127853536D01*
X176565886Y-127952989D01*
X176625196Y-127987231D01*
X176634236Y-127992450D01*
X176634238Y-127992452D01*
X176656176Y-128005117D01*
X176668614Y-128012299D01*
X176783191Y-128043000D01*
X177840069Y-128043000D01*
X177907108Y-128062685D01*
X177915557Y-128068625D01*
X177921281Y-128073017D01*
X177921284Y-128073020D01*
X177921287Y-128073021D01*
X177921290Y-128073024D01*
X178058209Y-128152073D01*
X178058216Y-128152077D01*
X178210943Y-128193000D01*
X178210945Y-128193000D01*
X178369055Y-128193000D01*
X178369057Y-128193000D01*
X178521784Y-128152077D01*
X178658716Y-128073020D01*
X178770520Y-127961216D01*
X178849577Y-127824284D01*
X178890500Y-127671557D01*
X178890500Y-127513443D01*
X178849577Y-127360716D01*
X178849573Y-127360709D01*
X178770524Y-127223790D01*
X178770518Y-127223782D01*
X178658717Y-127111981D01*
X178658709Y-127111975D01*
X178521790Y-127032926D01*
X178521786Y-127032924D01*
X178521784Y-127032923D01*
X178369057Y-126992000D01*
X178210943Y-126992000D01*
X178058216Y-127032923D01*
X178058209Y-127032926D01*
X177921290Y-127111975D01*
X177915557Y-127116375D01*
X177850388Y-127141570D01*
X177840069Y-127142000D01*
X177274500Y-127142000D01*
X177207461Y-127122315D01*
X177161706Y-127069511D01*
X177150500Y-127018000D01*
X177150500Y-126612052D01*
X177163099Y-126557592D01*
X177175000Y-126533248D01*
X177190573Y-126501393D01*
X177200500Y-126433260D01*
X177200500Y-125341740D01*
X177190573Y-125273607D01*
X177139198Y-125168517D01*
X177139196Y-125168515D01*
X177139196Y-125168514D01*
X177136338Y-125165656D01*
X177133678Y-125160785D01*
X177133227Y-125160153D01*
X177133303Y-125160098D01*
X177125101Y-125145077D01*
X177110133Y-125127026D01*
X177108667Y-125114981D01*
X177102853Y-125104333D01*
X177104525Y-125080945D01*
X177101693Y-125057668D01*
X177107311Y-125041986D01*
X177107837Y-125034641D01*
X177112369Y-125024028D01*
X177114349Y-125019929D01*
X177169799Y-124923887D01*
X177178025Y-124893186D01*
X177200500Y-124809309D01*
X177200500Y-124690691D01*
X177169799Y-124576114D01*
X177169799Y-124576113D01*
X177167110Y-124571456D01*
X177162961Y-124555968D01*
X177155523Y-124544395D01*
X177150500Y-124509460D01*
X177150500Y-124337052D01*
X177163099Y-124282592D01*
X177171848Y-124264696D01*
X177190573Y-124226393D01*
X177200500Y-124158260D01*
X177200500Y-123066740D01*
X177190573Y-122998607D01*
X177139198Y-122893517D01*
X177139196Y-122893515D01*
X177139196Y-122893514D01*
X177056485Y-122810803D01*
X176951391Y-122759426D01*
X176883261Y-122749500D01*
X176883260Y-122749500D01*
X176516740Y-122749500D01*
X176516739Y-122749500D01*
X176448608Y-122759426D01*
X176343514Y-122810803D01*
X176312681Y-122841637D01*
X176251358Y-122875122D01*
X176181666Y-122870138D01*
X176137319Y-122841637D01*
X176106485Y-122810803D01*
X176001391Y-122759426D01*
X175933261Y-122749500D01*
X175933260Y-122749500D01*
X175566740Y-122749500D01*
X175566739Y-122749500D01*
X175498608Y-122759426D01*
X175393513Y-122810804D01*
X175385153Y-122816773D01*
X175383461Y-122814403D01*
X175336341Y-122840123D01*
X175266650Y-122835128D01*
X175222321Y-122806634D01*
X175188050Y-122772363D01*
X175188046Y-122772360D01*
X175075143Y-122714833D01*
X175050000Y-122710851D01*
X175050000Y-123488500D01*
X175030315Y-123555539D01*
X174977511Y-123601294D01*
X174926000Y-123612500D01*
X174800000Y-123612500D01*
X174800000Y-123738500D01*
X174780315Y-123805539D01*
X174727511Y-123851294D01*
X174676000Y-123862500D01*
X174250001Y-123862500D01*
X174250001Y-124156484D01*
X174250383Y-124161341D01*
X174249250Y-124161430D01*
X174247544Y-124174638D01*
X174250206Y-124193147D01*
X174243162Y-124208569D01*
X174240991Y-124225385D01*
X174228950Y-124239691D01*
X174221181Y-124256703D01*
X174206915Y-124265870D01*
X174195999Y-124278841D01*
X174178135Y-124284366D01*
X174162403Y-124294477D01*
X174130719Y-124299032D01*
X174129250Y-124299487D01*
X174127468Y-124299500D01*
X173902610Y-124299500D01*
X173835571Y-124279815D01*
X173814933Y-124263185D01*
X173753220Y-124201472D01*
X173633126Y-124140281D01*
X173633123Y-124140280D01*
X173624430Y-124135851D01*
X173625587Y-124133578D01*
X173579762Y-124102239D01*
X173552569Y-124037878D01*
X173564489Y-123969033D01*
X173611737Y-123917561D01*
X173632429Y-123907571D01*
X173729981Y-123871186D01*
X173729984Y-123871184D01*
X173839329Y-123789329D01*
X173921184Y-123679984D01*
X173921185Y-123679983D01*
X173968916Y-123552010D01*
X173974999Y-123495428D01*
X173975000Y-123495427D01*
X173975000Y-123475000D01*
X172525001Y-123475000D01*
X172525001Y-123495439D01*
X172531081Y-123552007D01*
X172578813Y-123679981D01*
X172578815Y-123679984D01*
X172660670Y-123789329D01*
X172770015Y-123871184D01*
X172770018Y-123871186D01*
X172867570Y-123907571D01*
X172923504Y-123949442D01*
X172947921Y-124014907D01*
X172933069Y-124083180D01*
X172883664Y-124132585D01*
X172872717Y-124137304D01*
X172866874Y-124140280D01*
X172866874Y-124140281D01*
X172799445Y-124174638D01*
X172746778Y-124201473D01*
X172730105Y-124218147D01*
X172685069Y-124263182D01*
X172623749Y-124296666D01*
X172597390Y-124299500D01*
X169573297Y-124299500D01*
X169506258Y-124279815D01*
X169460503Y-124227011D01*
X169451271Y-124162810D01*
X169450176Y-124162731D01*
X169450500Y-124158262D01*
X169450500Y-123068513D01*
X174250000Y-123068513D01*
X174250000Y-123362500D01*
X174550000Y-123362500D01*
X174550000Y-122710851D01*
X174524856Y-122714833D01*
X174411953Y-122772360D01*
X174411949Y-122772363D01*
X174322363Y-122861949D01*
X174322360Y-122861953D01*
X174264833Y-122974855D01*
X174250000Y-123068513D01*
X169450500Y-123068513D01*
X169450500Y-123066739D01*
X169440573Y-122998609D01*
X169440573Y-122998608D01*
X169440573Y-122998607D01*
X169419045Y-122954571D01*
X172525000Y-122954571D01*
X172525000Y-122975000D01*
X173000000Y-122975000D01*
X173500000Y-122975000D01*
X173974999Y-122975000D01*
X173974999Y-122954566D01*
X173974998Y-122954560D01*
X173968918Y-122897992D01*
X173921186Y-122770018D01*
X173921184Y-122770015D01*
X173839329Y-122660670D01*
X173729984Y-122578815D01*
X173729983Y-122578814D01*
X173602010Y-122531083D01*
X173545428Y-122525000D01*
X173500000Y-122525000D01*
X173500000Y-122975000D01*
X173000000Y-122975000D01*
X173000000Y-122525000D01*
X172954567Y-122525000D01*
X172954558Y-122525001D01*
X172897992Y-122531081D01*
X172770018Y-122578813D01*
X172770015Y-122578815D01*
X172660670Y-122660670D01*
X172578815Y-122770015D01*
X172578814Y-122770016D01*
X172531083Y-122897989D01*
X172525000Y-122954571D01*
X169419045Y-122954571D01*
X169389198Y-122893517D01*
X169389196Y-122893515D01*
X169389196Y-122893514D01*
X169306485Y-122810803D01*
X169201391Y-122759426D01*
X169133261Y-122749500D01*
X169133260Y-122749500D01*
X168766740Y-122749500D01*
X168766739Y-122749500D01*
X168698608Y-122759426D01*
X168593514Y-122810803D01*
X168562681Y-122841637D01*
X168501358Y-122875122D01*
X168431666Y-122870138D01*
X168387319Y-122841637D01*
X168356485Y-122810803D01*
X168251391Y-122759426D01*
X168183261Y-122749500D01*
X168183260Y-122749500D01*
X167816740Y-122749500D01*
X167816739Y-122749500D01*
X167748608Y-122759426D01*
X167643513Y-122810804D01*
X167635153Y-122816773D01*
X167633461Y-122814403D01*
X167586341Y-122840123D01*
X167516650Y-122835128D01*
X167472321Y-122806634D01*
X167438050Y-122772363D01*
X167438046Y-122772360D01*
X167325143Y-122714833D01*
X167300000Y-122710851D01*
X167300000Y-123488500D01*
X167280315Y-123555539D01*
X167227511Y-123601294D01*
X167176000Y-123612500D01*
X167050000Y-123612500D01*
X167050000Y-123738500D01*
X167030315Y-123805539D01*
X166977511Y-123851294D01*
X166926000Y-123862500D01*
X166500001Y-123862500D01*
X166500001Y-124156484D01*
X166500383Y-124161341D01*
X166499250Y-124161430D01*
X166497544Y-124174638D01*
X166500206Y-124193147D01*
X166493162Y-124208569D01*
X166490991Y-124225385D01*
X166478950Y-124239691D01*
X166471181Y-124256703D01*
X166456915Y-124265870D01*
X166445999Y-124278841D01*
X166428135Y-124284366D01*
X166412403Y-124294477D01*
X166380719Y-124299032D01*
X166379250Y-124299487D01*
X166377468Y-124299500D01*
X166152610Y-124299500D01*
X166085571Y-124279815D01*
X166064933Y-124263185D01*
X166003220Y-124201472D01*
X165883126Y-124140281D01*
X165883123Y-124140280D01*
X165874430Y-124135851D01*
X165875587Y-124133578D01*
X165829762Y-124102239D01*
X165802569Y-124037878D01*
X165814489Y-123969033D01*
X165861737Y-123917561D01*
X165882429Y-123907571D01*
X165979981Y-123871186D01*
X165979984Y-123871184D01*
X166089329Y-123789329D01*
X166171184Y-123679984D01*
X166171185Y-123679983D01*
X166218916Y-123552010D01*
X166224999Y-123495428D01*
X166225000Y-123495427D01*
X166225000Y-123475000D01*
X164775001Y-123475000D01*
X164775001Y-123495439D01*
X164781081Y-123552007D01*
X164828813Y-123679981D01*
X164828815Y-123679984D01*
X164910670Y-123789329D01*
X165020015Y-123871184D01*
X165020018Y-123871186D01*
X165117570Y-123907571D01*
X165173504Y-123949442D01*
X165197921Y-124014907D01*
X165183069Y-124083180D01*
X165133664Y-124132585D01*
X165122717Y-124137304D01*
X165116874Y-124140280D01*
X165116874Y-124140281D01*
X165049445Y-124174638D01*
X164996778Y-124201473D01*
X164980105Y-124218147D01*
X164935069Y-124263182D01*
X164873749Y-124296666D01*
X164847390Y-124299500D01*
X161823297Y-124299500D01*
X161756258Y-124279815D01*
X161710503Y-124227011D01*
X161701271Y-124162810D01*
X161700176Y-124162731D01*
X161700500Y-124158262D01*
X161700500Y-123068513D01*
X166500000Y-123068513D01*
X166500000Y-123362500D01*
X166800000Y-123362500D01*
X166800000Y-122710851D01*
X166774856Y-122714833D01*
X166661953Y-122772360D01*
X166661949Y-122772363D01*
X166572363Y-122861949D01*
X166572360Y-122861953D01*
X166514833Y-122974855D01*
X166500000Y-123068513D01*
X161700500Y-123068513D01*
X161700500Y-123066739D01*
X161690573Y-122998609D01*
X161690573Y-122998608D01*
X161690573Y-122998607D01*
X161669045Y-122954571D01*
X164775000Y-122954571D01*
X164775000Y-122975000D01*
X165250000Y-122975000D01*
X165750000Y-122975000D01*
X166224999Y-122975000D01*
X166224999Y-122954566D01*
X166224998Y-122954560D01*
X166218918Y-122897992D01*
X166171186Y-122770018D01*
X166171184Y-122770015D01*
X166089329Y-122660670D01*
X165979984Y-122578815D01*
X165979983Y-122578814D01*
X165852010Y-122531083D01*
X165795428Y-122525000D01*
X165750000Y-122525000D01*
X165750000Y-122975000D01*
X165250000Y-122975000D01*
X165250000Y-122525000D01*
X165204567Y-122525000D01*
X165204558Y-122525001D01*
X165147992Y-122531081D01*
X165020018Y-122578813D01*
X165020015Y-122578815D01*
X164910670Y-122660670D01*
X164828815Y-122770015D01*
X164828814Y-122770016D01*
X164781083Y-122897989D01*
X164775000Y-122954571D01*
X161669045Y-122954571D01*
X161639198Y-122893517D01*
X161639196Y-122893515D01*
X161639196Y-122893514D01*
X161556485Y-122810803D01*
X161451391Y-122759426D01*
X161383261Y-122749500D01*
X161383260Y-122749500D01*
X161016740Y-122749500D01*
X161016739Y-122749500D01*
X160948608Y-122759426D01*
X160843514Y-122810803D01*
X160812681Y-122841637D01*
X160751358Y-122875122D01*
X160681666Y-122870138D01*
X160637319Y-122841637D01*
X160606485Y-122810803D01*
X160501391Y-122759426D01*
X160433261Y-122749500D01*
X160433260Y-122749500D01*
X160066740Y-122749500D01*
X160066739Y-122749500D01*
X159998608Y-122759426D01*
X159893513Y-122810804D01*
X159885153Y-122816773D01*
X159883461Y-122814403D01*
X159836341Y-122840123D01*
X159766650Y-122835128D01*
X159722321Y-122806634D01*
X159688050Y-122772363D01*
X159688046Y-122772360D01*
X159575143Y-122714833D01*
X159550000Y-122710851D01*
X159550000Y-123488500D01*
X159530315Y-123555539D01*
X159477511Y-123601294D01*
X159426000Y-123612500D01*
X159300000Y-123612500D01*
X159300000Y-123738500D01*
X159280315Y-123805539D01*
X159227511Y-123851294D01*
X159176000Y-123862500D01*
X158750001Y-123862500D01*
X158750001Y-124156484D01*
X158750383Y-124161341D01*
X158749250Y-124161430D01*
X158747544Y-124174638D01*
X158750206Y-124193147D01*
X158743162Y-124208569D01*
X158740991Y-124225385D01*
X158728950Y-124239691D01*
X158721181Y-124256703D01*
X158706915Y-124265870D01*
X158695999Y-124278841D01*
X158678135Y-124284366D01*
X158662403Y-124294477D01*
X158630719Y-124299032D01*
X158629250Y-124299487D01*
X158627468Y-124299500D01*
X158402610Y-124299500D01*
X158335571Y-124279815D01*
X158314933Y-124263185D01*
X158253220Y-124201472D01*
X158133126Y-124140281D01*
X158133123Y-124140280D01*
X158124430Y-124135851D01*
X158125587Y-124133578D01*
X158079762Y-124102239D01*
X158052569Y-124037878D01*
X158064489Y-123969033D01*
X158111737Y-123917561D01*
X158132429Y-123907571D01*
X158229981Y-123871186D01*
X158229984Y-123871184D01*
X158339329Y-123789329D01*
X158421184Y-123679984D01*
X158421185Y-123679983D01*
X158468916Y-123552010D01*
X158474999Y-123495428D01*
X158475000Y-123495427D01*
X158475000Y-123475000D01*
X157025001Y-123475000D01*
X157025001Y-123495439D01*
X157031081Y-123552007D01*
X157078813Y-123679981D01*
X157078815Y-123679984D01*
X157160670Y-123789329D01*
X157270015Y-123871184D01*
X157270018Y-123871186D01*
X157367570Y-123907571D01*
X157423504Y-123949442D01*
X157447921Y-124014907D01*
X157433069Y-124083180D01*
X157383664Y-124132585D01*
X157372717Y-124137304D01*
X157366874Y-124140280D01*
X157366874Y-124140281D01*
X157299445Y-124174638D01*
X157246778Y-124201473D01*
X157246774Y-124201476D01*
X157160070Y-124288181D01*
X157098747Y-124321666D01*
X157072389Y-124324500D01*
X154069655Y-124324500D01*
X154002616Y-124304815D01*
X153956861Y-124252011D01*
X153946917Y-124182853D01*
X153946950Y-124182624D01*
X153947172Y-124181103D01*
X153950500Y-124158260D01*
X153950500Y-123068513D01*
X158750000Y-123068513D01*
X158750000Y-123362500D01*
X159050000Y-123362500D01*
X159050000Y-122710851D01*
X159024856Y-122714833D01*
X158911953Y-122772360D01*
X158911949Y-122772363D01*
X158822363Y-122861949D01*
X158822360Y-122861953D01*
X158764833Y-122974855D01*
X158750000Y-123068513D01*
X153950500Y-123068513D01*
X153950500Y-123066740D01*
X153940573Y-122998607D01*
X153919045Y-122954571D01*
X157025000Y-122954571D01*
X157025000Y-122975000D01*
X157500000Y-122975000D01*
X158000000Y-122975000D01*
X158474999Y-122975000D01*
X158474999Y-122954566D01*
X158474998Y-122954560D01*
X158468918Y-122897992D01*
X158421186Y-122770018D01*
X158421184Y-122770015D01*
X158339329Y-122660670D01*
X158229984Y-122578815D01*
X158229983Y-122578814D01*
X158102010Y-122531083D01*
X158045428Y-122525000D01*
X158000000Y-122525000D01*
X158000000Y-122975000D01*
X157500000Y-122975000D01*
X157500000Y-122525000D01*
X157454567Y-122525000D01*
X157454558Y-122525001D01*
X157397992Y-122531081D01*
X157270018Y-122578813D01*
X157270015Y-122578815D01*
X157160670Y-122660670D01*
X157078815Y-122770015D01*
X157078814Y-122770016D01*
X157031083Y-122897989D01*
X157025000Y-122954571D01*
X153919045Y-122954571D01*
X153889198Y-122893517D01*
X153889196Y-122893515D01*
X153889196Y-122893514D01*
X153806485Y-122810803D01*
X153701391Y-122759426D01*
X153633261Y-122749500D01*
X153633260Y-122749500D01*
X153266740Y-122749500D01*
X153266739Y-122749500D01*
X153198608Y-122759426D01*
X153093514Y-122810803D01*
X153062681Y-122841637D01*
X153001358Y-122875122D01*
X152931666Y-122870138D01*
X152887319Y-122841637D01*
X152856485Y-122810803D01*
X152751391Y-122759426D01*
X152683261Y-122749500D01*
X152683260Y-122749500D01*
X152316740Y-122749500D01*
X152316739Y-122749500D01*
X152248608Y-122759426D01*
X152143513Y-122810804D01*
X152135153Y-122816773D01*
X152133461Y-122814403D01*
X152086341Y-122840123D01*
X152016650Y-122835128D01*
X151972321Y-122806634D01*
X151938050Y-122772363D01*
X151938046Y-122772360D01*
X151825143Y-122714833D01*
X151800000Y-122710851D01*
X151800000Y-123488500D01*
X151780315Y-123555539D01*
X151727511Y-123601294D01*
X151676000Y-123612500D01*
X151550000Y-123612500D01*
X151550000Y-123738500D01*
X151530315Y-123805539D01*
X151477511Y-123851294D01*
X151426000Y-123862500D01*
X151000001Y-123862500D01*
X151000001Y-124156484D01*
X151003900Y-124181103D01*
X151001504Y-124199641D01*
X151004165Y-124218147D01*
X150997118Y-124233576D01*
X150994945Y-124250396D01*
X150982906Y-124264696D01*
X150975140Y-124281703D01*
X150960870Y-124290873D01*
X150949948Y-124303848D01*
X150932089Y-124309369D01*
X150916362Y-124319477D01*
X150884656Y-124324035D01*
X150883197Y-124324487D01*
X150881427Y-124324500D01*
X150677611Y-124324500D01*
X150610572Y-124304815D01*
X150589930Y-124288181D01*
X150503225Y-124201476D01*
X150503221Y-124201473D01*
X150503220Y-124201472D01*
X150383126Y-124140281D01*
X150383123Y-124140280D01*
X150374430Y-124135851D01*
X150375587Y-124133578D01*
X150329762Y-124102239D01*
X150302569Y-124037878D01*
X150314489Y-123969033D01*
X150361737Y-123917561D01*
X150382429Y-123907571D01*
X150479981Y-123871186D01*
X150479984Y-123871184D01*
X150589329Y-123789329D01*
X150671184Y-123679984D01*
X150671185Y-123679983D01*
X150718916Y-123552010D01*
X150724999Y-123495428D01*
X150725000Y-123495427D01*
X150725000Y-123475000D01*
X149275001Y-123475000D01*
X149275001Y-123495439D01*
X149281081Y-123552007D01*
X149328813Y-123679981D01*
X149328815Y-123679984D01*
X149410670Y-123789329D01*
X149520015Y-123871184D01*
X149520018Y-123871186D01*
X149617570Y-123907571D01*
X149673504Y-123949442D01*
X149697921Y-124014907D01*
X149683069Y-124083180D01*
X149633664Y-124132585D01*
X149622717Y-124137304D01*
X149616874Y-124140280D01*
X149616874Y-124140281D01*
X149549445Y-124174638D01*
X149496778Y-124201473D01*
X149496774Y-124201476D01*
X149410070Y-124288181D01*
X149348747Y-124321666D01*
X149322389Y-124324500D01*
X149117773Y-124324500D01*
X149027407Y-124348713D01*
X149027406Y-124348712D01*
X149003198Y-124355199D01*
X149003195Y-124355200D01*
X148955242Y-124382887D01*
X148893241Y-124399500D01*
X127587965Y-124399500D01*
X127520926Y-124379815D01*
X127500284Y-124363181D01*
X126205616Y-123068513D01*
X151000000Y-123068513D01*
X151000000Y-123362500D01*
X151300000Y-123362500D01*
X151300000Y-122710851D01*
X151274856Y-122714833D01*
X151161953Y-122772360D01*
X151161949Y-122772363D01*
X151072363Y-122861949D01*
X151072360Y-122861953D01*
X151014833Y-122974855D01*
X151000000Y-123068513D01*
X126205616Y-123068513D01*
X126091674Y-122954571D01*
X149275000Y-122954571D01*
X149275000Y-122975000D01*
X149750000Y-122975000D01*
X150250000Y-122975000D01*
X150724999Y-122975000D01*
X150724999Y-122954566D01*
X150724998Y-122954560D01*
X150718918Y-122897992D01*
X150671186Y-122770018D01*
X150671184Y-122770015D01*
X150589329Y-122660670D01*
X150479984Y-122578815D01*
X150479983Y-122578814D01*
X150352010Y-122531083D01*
X150295428Y-122525000D01*
X150250000Y-122525000D01*
X150250000Y-122975000D01*
X149750000Y-122975000D01*
X149750000Y-122525000D01*
X149704567Y-122525000D01*
X149704558Y-122525001D01*
X149647992Y-122531081D01*
X149520018Y-122578813D01*
X149520015Y-122578815D01*
X149410670Y-122660670D01*
X149328815Y-122770015D01*
X149328814Y-122770016D01*
X149281083Y-122897989D01*
X149275000Y-122954571D01*
X126091674Y-122954571D01*
X121426081Y-118288978D01*
X136174500Y-118288978D01*
X136174500Y-119961020D01*
X136184876Y-120138233D01*
X136239950Y-120434469D01*
X136239952Y-120434479D01*
X136334013Y-120720708D01*
X136334018Y-120720720D01*
X136465393Y-120991866D01*
X136465396Y-120991871D01*
X136631743Y-121243093D01*
X136830093Y-121469906D01*
X137056906Y-121668256D01*
X137308128Y-121834603D01*
X137308133Y-121834606D01*
X137439971Y-121898484D01*
X137579284Y-121965984D01*
X137673225Y-121996855D01*
X137865520Y-122060047D01*
X137865524Y-122060047D01*
X137865531Y-122060050D01*
X138161762Y-122115123D01*
X138338979Y-122125500D01*
X139711020Y-122125499D01*
X139888238Y-122115123D01*
X140184469Y-122060050D01*
X140184476Y-122060047D01*
X140184479Y-122060047D01*
X140470710Y-121965986D01*
X140470710Y-121965985D01*
X140470716Y-121965984D01*
X140472175Y-121965276D01*
X140472668Y-121965194D01*
X140474561Y-121964429D01*
X140474731Y-121964849D01*
X140541087Y-121953756D01*
X140567200Y-121959822D01*
X140734637Y-122018410D01*
X141046771Y-122089653D01*
X141364915Y-122125499D01*
X141364916Y-122125500D01*
X141364919Y-122125500D01*
X141685084Y-122125500D01*
X141685084Y-122125499D01*
X142003229Y-122089653D01*
X142315363Y-122018410D01*
X142617558Y-121912668D01*
X142906013Y-121773755D01*
X143177101Y-121603419D01*
X143427413Y-121403802D01*
X143653802Y-121177413D01*
X143853419Y-120927101D01*
X144023755Y-120656013D01*
X144162668Y-120367558D01*
X144268410Y-120065363D01*
X144339653Y-119753229D01*
X144375500Y-119435081D01*
X144375500Y-118814919D01*
X144339653Y-118496771D01*
X144268410Y-118184637D01*
X144162668Y-117882442D01*
X144023755Y-117593987D01*
X143853419Y-117322899D01*
X143653802Y-117072587D01*
X143427413Y-116846198D01*
X143177101Y-116646581D01*
X142906013Y-116476245D01*
X142906010Y-116476243D01*
X142617559Y-116337332D01*
X142315364Y-116231590D01*
X142315362Y-116231589D01*
X142074471Y-116176607D01*
X142003229Y-116160347D01*
X142003225Y-116160346D01*
X142003216Y-116160345D01*
X141685085Y-116124500D01*
X141685081Y-116124500D01*
X141364919Y-116124500D01*
X141364914Y-116124500D01*
X141046783Y-116160345D01*
X141046771Y-116160347D01*
X140734638Y-116231589D01*
X140734630Y-116231591D01*
X140567202Y-116290176D01*
X140497424Y-116293737D01*
X140472191Y-116284730D01*
X140470726Y-116284020D01*
X140470718Y-116284017D01*
X140470716Y-116284016D01*
X140446682Y-116276118D01*
X140184479Y-116189952D01*
X140184469Y-116189950D01*
X139888233Y-116134876D01*
X139711021Y-116124500D01*
X138338979Y-116124500D01*
X138161766Y-116134876D01*
X137865530Y-116189950D01*
X137865520Y-116189952D01*
X137579291Y-116284013D01*
X137579279Y-116284018D01*
X137308133Y-116415393D01*
X137308128Y-116415396D01*
X137056906Y-116581743D01*
X136830093Y-116780093D01*
X136631743Y-117006906D01*
X136465396Y-117258128D01*
X136465393Y-117258133D01*
X136334018Y-117529279D01*
X136334013Y-117529291D01*
X136239952Y-117815520D01*
X136239950Y-117815530D01*
X136184876Y-118111766D01*
X136174500Y-118288978D01*
X121426081Y-118288978D01*
X115736819Y-112599716D01*
X115703334Y-112538393D01*
X115700500Y-112512035D01*
X115700500Y-95273362D01*
X115708167Y-95234822D01*
X115707473Y-95234636D01*
X115709577Y-95226783D01*
X115750500Y-95074057D01*
X115750500Y-94915943D01*
X115709577Y-94763216D01*
X115709576Y-94763214D01*
X115707473Y-94755365D01*
X115708165Y-94755179D01*
X115700500Y-94716637D01*
X115700500Y-94035693D01*
X115700500Y-94035691D01*
X115669799Y-93921114D01*
X115610489Y-93818387D01*
X115586819Y-93794717D01*
X115553334Y-93733394D01*
X115550500Y-93707036D01*
X115550500Y-88335693D01*
X115550500Y-88335691D01*
X115519799Y-88221114D01*
X115519799Y-88221113D01*
X115517110Y-88216456D01*
X115500500Y-88154460D01*
X115500500Y-88115945D01*
X115500500Y-88115943D01*
X115459577Y-87963216D01*
X115450105Y-87946809D01*
X115380524Y-87826290D01*
X115380521Y-87826287D01*
X115380520Y-87826284D01*
X115380517Y-87826281D01*
X115376125Y-87820557D01*
X115350930Y-87755388D01*
X115350500Y-87745069D01*
X115350500Y-81844930D01*
X115370185Y-81777891D01*
X115376128Y-81769438D01*
X115380512Y-81763723D01*
X115380520Y-81763716D01*
X115459577Y-81626784D01*
X115500500Y-81474057D01*
X115500500Y-81315943D01*
X115459577Y-81163216D01*
X115442835Y-81134217D01*
X115380524Y-81026290D01*
X115380521Y-81026287D01*
X115380520Y-81026284D01*
X115380517Y-81026281D01*
X115376125Y-81020557D01*
X115350930Y-80955388D01*
X115350500Y-80945069D01*
X115350500Y-75044930D01*
X115370185Y-74977891D01*
X115376128Y-74969438D01*
X115380512Y-74963723D01*
X115380520Y-74963716D01*
X115459577Y-74826784D01*
X115500500Y-74674057D01*
X115500500Y-74515943D01*
X115459577Y-74363216D01*
X115443613Y-74335565D01*
X115380524Y-74226290D01*
X115380521Y-74226287D01*
X115380520Y-74226284D01*
X115380517Y-74226281D01*
X115376125Y-74220557D01*
X115350930Y-74155388D01*
X115350500Y-74145069D01*
X115350500Y-68244930D01*
X115370185Y-68177891D01*
X115376128Y-68169438D01*
X115380512Y-68163723D01*
X115380520Y-68163716D01*
X115459577Y-68026784D01*
X115500500Y-67874057D01*
X115500500Y-67715943D01*
X115459577Y-67563216D01*
X115440336Y-67529889D01*
X115380524Y-67426290D01*
X115380521Y-67426287D01*
X115380520Y-67426284D01*
X115380517Y-67426281D01*
X115376125Y-67420557D01*
X115350930Y-67355388D01*
X115350500Y-67345069D01*
X115350500Y-61444930D01*
X115370185Y-61377891D01*
X115376128Y-61369438D01*
X115380512Y-61363723D01*
X115380520Y-61363716D01*
X115382293Y-61360646D01*
X115415548Y-61303045D01*
X115459577Y-61226784D01*
X115500500Y-61074057D01*
X115500500Y-60915943D01*
X115459577Y-60763216D01*
X115401669Y-60662915D01*
X115380524Y-60626290D01*
X115380521Y-60626287D01*
X115380520Y-60626284D01*
X115380517Y-60626281D01*
X115376125Y-60620557D01*
X115367881Y-60599234D01*
X115355523Y-60580004D01*
X115352607Y-60559727D01*
X115350930Y-60555388D01*
X115350500Y-60545069D01*
X115350500Y-60537965D01*
X115370185Y-60470926D01*
X115386819Y-60450284D01*
X116350285Y-59486819D01*
X116411608Y-59453334D01*
X116437966Y-59450500D01*
X129859308Y-59450500D01*
X129859309Y-59450500D01*
X129949673Y-59426286D01*
X129973887Y-59419799D01*
X130076614Y-59360489D01*
X135010490Y-54426614D01*
X135023019Y-54404912D01*
X135069798Y-54323889D01*
X135069800Y-54323883D01*
X135088514Y-54254039D01*
X135088515Y-54254036D01*
X135100500Y-54209309D01*
X135100500Y-53185883D01*
X135120185Y-53118844D01*
X135136819Y-53098202D01*
X135748202Y-52486819D01*
X135809525Y-52453334D01*
X135835883Y-52450500D01*
X136705069Y-52450500D01*
X136772108Y-52470185D01*
X136780557Y-52476125D01*
X136786281Y-52480517D01*
X136786284Y-52480520D01*
X136786287Y-52480521D01*
X136786290Y-52480524D01*
X136856299Y-52520943D01*
X136923216Y-52559577D01*
X137075943Y-52600500D01*
X137075945Y-52600500D01*
X137234055Y-52600500D01*
X137234057Y-52600500D01*
X137386784Y-52559577D01*
X137523716Y-52480520D01*
X137523721Y-52480514D01*
X137529443Y-52476125D01*
X137594612Y-52450930D01*
X137604931Y-52450500D01*
X153050069Y-52450500D01*
X153117108Y-52470185D01*
X153125557Y-52476125D01*
X153131281Y-52480517D01*
X153131284Y-52480520D01*
X153131287Y-52480521D01*
X153131290Y-52480524D01*
X153201299Y-52520943D01*
X153268216Y-52559577D01*
X153420943Y-52600500D01*
X153420945Y-52600500D01*
X153579055Y-52600500D01*
X153579057Y-52600500D01*
X153731784Y-52559577D01*
X153868716Y-52480520D01*
X153868721Y-52480514D01*
X153874443Y-52476125D01*
X153939612Y-52450930D01*
X153949931Y-52450500D01*
X169550069Y-52450500D01*
X169617108Y-52470185D01*
X169625557Y-52476125D01*
X169631281Y-52480517D01*
X169631284Y-52480520D01*
X169631287Y-52480521D01*
X169631290Y-52480524D01*
X169701299Y-52520943D01*
X169768216Y-52559577D01*
X169920943Y-52600500D01*
X169920945Y-52600500D01*
X170079055Y-52600500D01*
X170079057Y-52600500D01*
X170231784Y-52559577D01*
X170368716Y-52480520D01*
X170480520Y-52368716D01*
X170559577Y-52231784D01*
X170600500Y-52079057D01*
X170600500Y-51920943D01*
X170559577Y-51768216D01*
X170530999Y-51718717D01*
X170480524Y-51631290D01*
X170480518Y-51631282D01*
X170368717Y-51519481D01*
X170368709Y-51519475D01*
X170231782Y-51440421D01*
X170231441Y-51440280D01*
X170231197Y-51440083D01*
X170224746Y-51436359D01*
X170225327Y-51435352D01*
X170177041Y-51396435D01*
X170154982Y-51330139D01*
X170172266Y-51262441D01*
X170191218Y-51238046D01*
X170537894Y-50891371D01*
X170580747Y-50817148D01*
X170602929Y-50734362D01*
X170602929Y-50648656D01*
X170602929Y-50048046D01*
X170602928Y-50048044D01*
X170602928Y-50048040D01*
X170598287Y-50030721D01*
X170598284Y-50030711D01*
X170580748Y-49965262D01*
X170580747Y-49965260D01*
X170537894Y-49891037D01*
X170511217Y-49864360D01*
X170477732Y-49803037D01*
X170482716Y-49733345D01*
X170491511Y-49714679D01*
X170536162Y-49637340D01*
X170559577Y-49596784D01*
X170600500Y-49444057D01*
X170600500Y-49285943D01*
X170559577Y-49133216D01*
X170550904Y-49118193D01*
X170480524Y-48996290D01*
X170480518Y-48996282D01*
X170368717Y-48884481D01*
X170368709Y-48884475D01*
X170231790Y-48805426D01*
X170231786Y-48805424D01*
X170231784Y-48805423D01*
X170079057Y-48764500D01*
X169920943Y-48764500D01*
X169768216Y-48805423D01*
X169768209Y-48805426D01*
X169631290Y-48884475D01*
X169631282Y-48884481D01*
X169519481Y-48996282D01*
X169519475Y-48996290D01*
X169440426Y-49133209D01*
X169440423Y-49133216D01*
X169399500Y-49285943D01*
X169399500Y-49444057D01*
X169440423Y-49596784D01*
X169453526Y-49619480D01*
X169460998Y-49632421D01*
X169477470Y-49700321D01*
X169454617Y-49766348D01*
X169399695Y-49809538D01*
X169385711Y-49814192D01*
X169355167Y-49822376D01*
X169320643Y-49831627D01*
X169320638Y-49831630D01*
X169183719Y-49910679D01*
X169183711Y-49910685D01*
X169071910Y-50022486D01*
X169071904Y-50022494D01*
X168992855Y-50159413D01*
X168992852Y-50159420D01*
X168951929Y-50312147D01*
X168951929Y-50470262D01*
X168958131Y-50493408D01*
X168956468Y-50563258D01*
X168917305Y-50621120D01*
X168853076Y-50648623D01*
X168838356Y-50649500D01*
X155161188Y-50649500D01*
X155131747Y-50640855D01*
X155101761Y-50634332D01*
X155096745Y-50630577D01*
X155094149Y-50629815D01*
X155073512Y-50613185D01*
X154948347Y-50488020D01*
X154914864Y-50426699D01*
X154912030Y-50400341D01*
X154912030Y-48942684D01*
X154912031Y-48942671D01*
X154912031Y-48846977D01*
X154912031Y-48846976D01*
X154889848Y-48764191D01*
X154875613Y-48739535D01*
X154846995Y-48689967D01*
X154786392Y-48629364D01*
X154786389Y-48629362D01*
X154086563Y-47929535D01*
X154049451Y-47908108D01*
X154012341Y-47886682D01*
X153962703Y-47873382D01*
X153929554Y-47864500D01*
X152956152Y-47864500D01*
X152870446Y-47864500D01*
X152787658Y-47886682D01*
X152763727Y-47900500D01*
X152713437Y-47929535D01*
X152713434Y-47929537D01*
X151964537Y-48678434D01*
X151964535Y-48678437D01*
X151921680Y-48752662D01*
X151904775Y-48815758D01*
X151904775Y-48815759D01*
X151899500Y-48835445D01*
X151899500Y-49252415D01*
X151879815Y-49319454D01*
X151863181Y-49340096D01*
X151490096Y-49713181D01*
X151428773Y-49746666D01*
X151402415Y-49749500D01*
X140249500Y-49749500D01*
X140182461Y-49729815D01*
X140136706Y-49677011D01*
X140125500Y-49625500D01*
X140125500Y-48211565D01*
X140125500Y-48211563D01*
X140108240Y-48147147D01*
X140103318Y-48128777D01*
X140060465Y-48054554D01*
X138745446Y-46739535D01*
X138708334Y-46718108D01*
X138671224Y-46696682D01*
X138629830Y-46685591D01*
X138588437Y-46674500D01*
X136086964Y-46674500D01*
X136001258Y-46674500D01*
X135918470Y-46696682D01*
X135844249Y-46739535D01*
X135844246Y-46739537D01*
X133919537Y-48664246D01*
X133919535Y-48664249D01*
X133876682Y-48738472D01*
X133864454Y-48784108D01*
X133864454Y-48784109D01*
X133864453Y-48784108D01*
X133854500Y-48821254D01*
X133854500Y-49066831D01*
X133834815Y-49133870D01*
X133818181Y-49154512D01*
X131564537Y-51408155D01*
X131564533Y-51408161D01*
X131521681Y-51482382D01*
X131521680Y-51482384D01*
X131515087Y-51506993D01*
X131515087Y-51506995D01*
X131499500Y-51565167D01*
X131499500Y-52793659D01*
X131479815Y-52860698D01*
X131463181Y-52881340D01*
X128531340Y-55813181D01*
X128470017Y-55846666D01*
X128443659Y-55849500D01*
X113143169Y-55849500D01*
X113076130Y-55829815D01*
X113055488Y-55813181D01*
X110286819Y-53044512D01*
X110253334Y-52983189D01*
X110250500Y-52956831D01*
X110250500Y-51720449D01*
X110250500Y-51720446D01*
X110236656Y-51668778D01*
X110228318Y-51637660D01*
X110185465Y-51563437D01*
X109161819Y-50539791D01*
X109128334Y-50478468D01*
X109125500Y-50452110D01*
X109125500Y-49957149D01*
X109125499Y-49957145D01*
X109124537Y-49953556D01*
X109113155Y-49911075D01*
X109103318Y-49874361D01*
X109060465Y-49800138D01*
X108445942Y-49185615D01*
X108412457Y-49124292D01*
X108413847Y-49065844D01*
X108450500Y-48929057D01*
X108450500Y-48770943D01*
X108409577Y-48618216D01*
X108383993Y-48573902D01*
X108330524Y-48481290D01*
X108330518Y-48481282D01*
X108218717Y-48369481D01*
X108213331Y-48365348D01*
X108172130Y-48308919D01*
X108167977Y-48239173D01*
X108202191Y-48178253D01*
X108232522Y-48156491D01*
X108288342Y-48128050D01*
X108378050Y-48038342D01*
X108435646Y-47925304D01*
X108435646Y-47925302D01*
X108435647Y-47925301D01*
X108450499Y-47831524D01*
X108450500Y-47831519D01*
X108450499Y-47368482D01*
X108435646Y-47274696D01*
X108378050Y-47161658D01*
X108378046Y-47161654D01*
X108378045Y-47161652D01*
X108288347Y-47071954D01*
X108288344Y-47071952D01*
X108288342Y-47071950D01*
X108211517Y-47032805D01*
X108175301Y-47014352D01*
X108081524Y-46999500D01*
X107118482Y-46999500D01*
X107037519Y-47012323D01*
X107024696Y-47014354D01*
X106911658Y-47071950D01*
X106911657Y-47071951D01*
X106911652Y-47071954D01*
X106821954Y-47161652D01*
X106821951Y-47161657D01*
X106764352Y-47274698D01*
X106749500Y-47368475D01*
X105025500Y-47368475D01*
X105025500Y-30802584D01*
X105025609Y-30801845D01*
X105025505Y-30801478D01*
X105030839Y-30766589D01*
X105072577Y-30628994D01*
X105081875Y-30606549D01*
X105162775Y-30455195D01*
X105176272Y-30434995D01*
X105285149Y-30302328D01*
X105302328Y-30285149D01*
X105434995Y-30176272D01*
X105455195Y-30162775D01*
X105606549Y-30081875D01*
X105628998Y-30072576D01*
X105722852Y-30044106D01*
X105766591Y-30030839D01*
X105802585Y-30025500D01*
X130993070Y-30025500D01*
X131060109Y-30045185D01*
G37*
G04 #@! TD.AperFunction*
G04 #@! TA.AperFunction,Conductor*
G36*
X135937539Y-82519685D02*
G01*
X135983294Y-82572489D01*
X135994500Y-82624000D01*
X135994500Y-87375989D01*
X135994566Y-87387579D01*
X135994567Y-87387593D01*
X136017481Y-87589745D01*
X136028685Y-87641246D01*
X136053217Y-87732941D01*
X136134306Y-87919524D01*
X136134310Y-87919531D01*
X136249793Y-88083830D01*
X136251300Y-88085974D01*
X136297055Y-88138778D01*
X136409532Y-88248694D01*
X136416169Y-88255180D01*
X136418567Y-88256784D01*
X136585264Y-88368308D01*
X136773671Y-88445083D01*
X136773677Y-88445085D01*
X136788687Y-88449492D01*
X136840710Y-88464768D01*
X136921594Y-88484917D01*
X137056531Y-88498639D01*
X137123999Y-88505500D01*
X137124000Y-88505500D01*
X139875990Y-88505500D01*
X139876000Y-88505500D01*
X139887588Y-88505433D01*
X140089743Y-88482519D01*
X140141254Y-88471313D01*
X140232938Y-88446784D01*
X140419527Y-88365692D01*
X140585974Y-88248700D01*
X140638778Y-88202945D01*
X140755179Y-88083832D01*
X140868308Y-87914736D01*
X140945083Y-87726329D01*
X140964768Y-87659290D01*
X140984917Y-87578406D01*
X141005500Y-87376000D01*
X141005500Y-83217853D01*
X141014144Y-83188412D01*
X141020668Y-83158426D01*
X141024422Y-83153410D01*
X141025185Y-83150814D01*
X141041819Y-83130172D01*
X141130172Y-83041819D01*
X141191495Y-83008334D01*
X141217853Y-83005500D01*
X142042427Y-83005500D01*
X142042440Y-83005500D01*
X142099163Y-83003899D01*
X142113127Y-83003110D01*
X142251997Y-82985504D01*
X142389199Y-82943495D01*
X142459062Y-82942691D01*
X142518272Y-82979786D01*
X142548026Y-83043004D01*
X142549500Y-83062063D01*
X142549500Y-87269752D01*
X142561131Y-87328229D01*
X142561132Y-87328230D01*
X142605447Y-87394552D01*
X142671769Y-87438867D01*
X142671770Y-87438868D01*
X142730247Y-87450499D01*
X142730250Y-87450500D01*
X142730252Y-87450500D01*
X145269750Y-87450500D01*
X145269751Y-87450499D01*
X145284568Y-87447552D01*
X145328229Y-87438868D01*
X145328229Y-87438867D01*
X145328231Y-87438867D01*
X145394552Y-87394552D01*
X145438867Y-87328231D01*
X145438867Y-87328229D01*
X145438868Y-87328229D01*
X145450499Y-87269752D01*
X145450500Y-87269750D01*
X145450500Y-82730249D01*
X145449903Y-82724187D01*
X145451511Y-82724028D01*
X145452622Y-82711611D01*
X145449476Y-82691558D01*
X145455671Y-82677519D01*
X145457038Y-82662236D01*
X145469490Y-82646204D01*
X145477685Y-82627636D01*
X145494712Y-82613734D01*
X145499899Y-82607057D01*
X145504060Y-82604184D01*
X145508419Y-82601302D01*
X145518704Y-82595687D01*
X145590137Y-82552745D01*
X145625416Y-82523978D01*
X145630601Y-82520552D01*
X145658297Y-82512032D01*
X145685006Y-82500789D01*
X145697065Y-82500107D01*
X145697383Y-82500010D01*
X145697620Y-82500076D01*
X145698971Y-82500000D01*
X152370500Y-82500000D01*
X152437539Y-82519685D01*
X152483294Y-82572489D01*
X152494500Y-82624000D01*
X152494500Y-87375989D01*
X152494566Y-87387579D01*
X152494567Y-87387593D01*
X152517481Y-87589745D01*
X152528685Y-87641246D01*
X152553217Y-87732941D01*
X152634306Y-87919524D01*
X152634310Y-87919531D01*
X152749793Y-88083830D01*
X152751300Y-88085974D01*
X152797055Y-88138778D01*
X152909532Y-88248694D01*
X152916169Y-88255180D01*
X152918567Y-88256784D01*
X153085264Y-88368308D01*
X153273671Y-88445083D01*
X153273677Y-88445085D01*
X153288687Y-88449492D01*
X153340710Y-88464768D01*
X153421594Y-88484917D01*
X153556531Y-88498639D01*
X153623999Y-88505500D01*
X153624000Y-88505500D01*
X156375990Y-88505500D01*
X156376000Y-88505500D01*
X156387588Y-88505433D01*
X156589743Y-88482519D01*
X156641254Y-88471313D01*
X156732938Y-88446784D01*
X156919527Y-88365692D01*
X157085974Y-88248700D01*
X157138778Y-88202945D01*
X157255179Y-88083832D01*
X157368308Y-87914736D01*
X157445083Y-87726329D01*
X157464768Y-87659290D01*
X157484917Y-87578406D01*
X157505500Y-87376000D01*
X157505500Y-83217853D01*
X157514144Y-83188412D01*
X157520668Y-83158426D01*
X157524422Y-83153410D01*
X157525185Y-83150814D01*
X157541819Y-83130172D01*
X157630172Y-83041819D01*
X157691495Y-83008334D01*
X157717853Y-83005500D01*
X158542427Y-83005500D01*
X158542440Y-83005500D01*
X158599163Y-83003899D01*
X158613127Y-83003110D01*
X158751997Y-82985504D01*
X158889199Y-82943495D01*
X158959062Y-82942691D01*
X159018272Y-82979786D01*
X159048026Y-83043004D01*
X159049500Y-83062063D01*
X159049500Y-87269752D01*
X159061131Y-87328229D01*
X159061132Y-87328230D01*
X159105447Y-87394552D01*
X159171769Y-87438867D01*
X159171770Y-87438868D01*
X159230247Y-87450499D01*
X159230250Y-87450500D01*
X159230252Y-87450500D01*
X161769750Y-87450500D01*
X161769751Y-87450499D01*
X161784568Y-87447552D01*
X161828229Y-87438868D01*
X161828229Y-87438867D01*
X161828231Y-87438867D01*
X161894552Y-87394552D01*
X161938867Y-87328231D01*
X161938867Y-87328229D01*
X161938868Y-87328229D01*
X161950499Y-87269752D01*
X161950500Y-87269750D01*
X161950500Y-82730249D01*
X161949903Y-82724187D01*
X161951511Y-82724028D01*
X161952622Y-82711611D01*
X161949476Y-82691558D01*
X161955671Y-82677519D01*
X161957038Y-82662236D01*
X161969490Y-82646204D01*
X161977685Y-82627636D01*
X161994712Y-82613734D01*
X161999899Y-82607057D01*
X162004060Y-82604184D01*
X162008419Y-82601302D01*
X162018704Y-82595687D01*
X162090137Y-82552745D01*
X162125416Y-82523978D01*
X162130601Y-82520552D01*
X162158297Y-82512032D01*
X162185006Y-82500789D01*
X162197065Y-82500107D01*
X162197383Y-82500010D01*
X162197620Y-82500076D01*
X162198971Y-82500000D01*
X168870500Y-82500000D01*
X168937539Y-82519685D01*
X168983294Y-82572489D01*
X168994500Y-82624000D01*
X168994500Y-87375989D01*
X168994566Y-87387579D01*
X168994567Y-87387593D01*
X169017481Y-87589745D01*
X169028685Y-87641246D01*
X169053217Y-87732941D01*
X169134306Y-87919524D01*
X169134310Y-87919531D01*
X169249793Y-88083830D01*
X169251300Y-88085974D01*
X169297055Y-88138778D01*
X169409532Y-88248694D01*
X169416169Y-88255180D01*
X169418567Y-88256784D01*
X169585264Y-88368308D01*
X169773671Y-88445083D01*
X169773677Y-88445085D01*
X169788687Y-88449492D01*
X169840710Y-88464768D01*
X169921594Y-88484917D01*
X170056531Y-88498639D01*
X170123999Y-88505500D01*
X170124000Y-88505500D01*
X172875990Y-88505500D01*
X172876000Y-88505500D01*
X172887588Y-88505433D01*
X173089743Y-88482519D01*
X173141254Y-88471313D01*
X173232938Y-88446784D01*
X173419527Y-88365692D01*
X173585974Y-88248700D01*
X173638778Y-88202945D01*
X173755179Y-88083832D01*
X173868308Y-87914736D01*
X173945083Y-87726329D01*
X173964768Y-87659290D01*
X173984917Y-87578406D01*
X174005500Y-87376000D01*
X174005500Y-82967853D01*
X174014144Y-82938412D01*
X174020668Y-82908426D01*
X174024422Y-82903410D01*
X174025185Y-82900814D01*
X174041819Y-82880172D01*
X174130172Y-82791819D01*
X174191495Y-82758334D01*
X174217853Y-82755500D01*
X175425500Y-82755500D01*
X175492539Y-82775185D01*
X175538294Y-82827989D01*
X175549500Y-82879500D01*
X175549500Y-87269752D01*
X175561131Y-87328229D01*
X175561132Y-87328230D01*
X175605447Y-87394552D01*
X175671769Y-87438867D01*
X175671770Y-87438868D01*
X175730247Y-87450499D01*
X175730250Y-87450500D01*
X175730252Y-87450500D01*
X178269750Y-87450500D01*
X178269751Y-87450499D01*
X178284568Y-87447552D01*
X178328229Y-87438868D01*
X178328229Y-87438867D01*
X178328231Y-87438867D01*
X178394552Y-87394552D01*
X178438867Y-87328231D01*
X178438867Y-87328229D01*
X178438868Y-87328229D01*
X178450499Y-87269752D01*
X178450500Y-87269750D01*
X178450500Y-82730249D01*
X178450499Y-82730247D01*
X178438868Y-82671771D01*
X178438738Y-82671457D01*
X178438658Y-82670715D01*
X178436485Y-82659790D01*
X178437462Y-82659595D01*
X178431266Y-82601988D01*
X178462539Y-82539508D01*
X178522626Y-82503853D01*
X178553297Y-82500000D01*
X203993907Y-82500000D01*
X204006061Y-82500597D01*
X204014025Y-82501381D01*
X204182941Y-82518018D01*
X204206769Y-82522757D01*
X204371001Y-82572576D01*
X204393453Y-82581877D01*
X204479063Y-82627636D01*
X204544798Y-82662772D01*
X204565008Y-82676276D01*
X204623195Y-82724028D01*
X204697666Y-82785145D01*
X204714854Y-82802333D01*
X204823722Y-82934989D01*
X204837227Y-82955201D01*
X204918121Y-83106543D01*
X204927424Y-83129001D01*
X204969161Y-83266589D01*
X204974500Y-83302584D01*
X204974500Y-101697414D01*
X204974390Y-101698152D01*
X204974495Y-101698521D01*
X204969161Y-101733409D01*
X204927424Y-101870998D01*
X204918121Y-101893456D01*
X204837227Y-102044798D01*
X204823722Y-102065010D01*
X204714854Y-102197666D01*
X204697666Y-102214854D01*
X204565010Y-102323722D01*
X204544798Y-102337227D01*
X204393456Y-102418121D01*
X204370998Y-102427424D01*
X204206776Y-102477240D01*
X204182934Y-102481982D01*
X204051066Y-102494969D01*
X204035874Y-102495529D01*
X204001688Y-102494690D01*
X203993907Y-102494500D01*
X185420307Y-102494500D01*
X185357694Y-102496036D01*
X185321908Y-102496915D01*
X185309742Y-102497513D01*
X185284440Y-102499379D01*
X185270099Y-102499398D01*
X185270093Y-102499579D01*
X185267881Y-102499500D01*
X184732119Y-102499500D01*
X184729544Y-102499684D01*
X184720700Y-102500000D01*
X175699061Y-102500000D01*
X175699012Y-102500001D01*
X175698726Y-102500002D01*
X166891183Y-102518466D01*
X166828924Y-102501854D01*
X166744437Y-102453076D01*
X166648702Y-102427424D01*
X166591710Y-102412153D01*
X166433596Y-102412153D01*
X166280869Y-102453076D01*
X166280864Y-102453078D01*
X166193622Y-102503446D01*
X166178230Y-102507587D01*
X166166808Y-102514962D01*
X166131884Y-102520058D01*
X165904031Y-102520536D01*
X165841772Y-102503924D01*
X165731784Y-102440423D01*
X165683271Y-102427424D01*
X165579057Y-102399500D01*
X165420943Y-102399500D01*
X165268216Y-102440423D01*
X165268215Y-102440423D01*
X165155284Y-102505623D01*
X165093545Y-102522235D01*
X130629228Y-102594487D01*
X130562147Y-102574943D01*
X130541287Y-102558168D01*
X129120272Y-101137153D01*
X140131611Y-101137153D01*
X140131611Y-101295267D01*
X140140665Y-101329055D01*
X140172534Y-101447993D01*
X140172537Y-101448000D01*
X140251586Y-101584919D01*
X140251590Y-101584924D01*
X140251591Y-101584926D01*
X140363395Y-101696730D01*
X140363397Y-101696731D01*
X140363401Y-101696734D01*
X140421928Y-101730524D01*
X140500327Y-101775787D01*
X140653054Y-101816710D01*
X140653056Y-101816710D01*
X140811166Y-101816710D01*
X140811168Y-101816710D01*
X140963895Y-101775787D01*
X141065522Y-101717112D01*
X141127522Y-101700500D01*
X156750069Y-101700500D01*
X156817108Y-101720185D01*
X156825557Y-101726125D01*
X156831281Y-101730517D01*
X156831284Y-101730520D01*
X156831287Y-101730521D01*
X156831290Y-101730524D01*
X156909689Y-101775787D01*
X156968216Y-101809577D01*
X157120943Y-101850500D01*
X157120945Y-101850500D01*
X157279055Y-101850500D01*
X157279057Y-101850500D01*
X157431784Y-101809577D01*
X157568716Y-101730520D01*
X157568721Y-101730514D01*
X157574443Y-101726125D01*
X157639612Y-101700930D01*
X157649931Y-101700500D01*
X173350069Y-101700500D01*
X173417108Y-101720185D01*
X173425557Y-101726125D01*
X173431281Y-101730517D01*
X173431284Y-101730520D01*
X173431287Y-101730521D01*
X173431290Y-101730524D01*
X173509689Y-101775787D01*
X173568216Y-101809577D01*
X173720943Y-101850500D01*
X173720945Y-101850500D01*
X173879055Y-101850500D01*
X173879057Y-101850500D01*
X174031784Y-101809577D01*
X174168716Y-101730520D01*
X174280520Y-101618716D01*
X174359577Y-101481784D01*
X174400500Y-101329057D01*
X174400500Y-101170943D01*
X174359577Y-101018216D01*
X174340069Y-100984426D01*
X174280524Y-100881290D01*
X174280518Y-100881282D01*
X174168717Y-100769481D01*
X174168709Y-100769475D01*
X174031790Y-100690426D01*
X174031786Y-100690424D01*
X174031784Y-100690423D01*
X173879057Y-100649500D01*
X173720943Y-100649500D01*
X173568216Y-100690423D01*
X173568209Y-100690426D01*
X173431290Y-100769475D01*
X173425557Y-100773875D01*
X173360388Y-100799070D01*
X173350069Y-100799500D01*
X157649931Y-100799500D01*
X157582892Y-100779815D01*
X157574443Y-100773875D01*
X157568709Y-100769475D01*
X157431790Y-100690426D01*
X157431786Y-100690424D01*
X157431784Y-100690423D01*
X157279057Y-100649500D01*
X157120943Y-100649500D01*
X156968216Y-100690423D01*
X156968209Y-100690426D01*
X156831290Y-100769475D01*
X156825557Y-100773875D01*
X156760388Y-100799070D01*
X156750069Y-100799500D01*
X141215999Y-100799500D01*
X141148960Y-100779815D01*
X141128318Y-100763181D01*
X141100828Y-100735691D01*
X141100820Y-100735685D01*
X140963901Y-100656636D01*
X140963897Y-100656634D01*
X140963895Y-100656633D01*
X140811168Y-100615710D01*
X140653054Y-100615710D01*
X140500327Y-100656633D01*
X140500320Y-100656636D01*
X140363401Y-100735685D01*
X140363393Y-100735691D01*
X140251592Y-100847492D01*
X140251586Y-100847500D01*
X140172537Y-100984419D01*
X140172534Y-100984426D01*
X140131611Y-101137153D01*
X129120272Y-101137153D01*
X124511819Y-96528700D01*
X124478334Y-96467377D01*
X124475500Y-96441019D01*
X124475500Y-92292855D01*
X124475501Y-92292842D01*
X124475501Y-92197148D01*
X124453317Y-92114359D01*
X124453316Y-92114358D01*
X124410467Y-92040141D01*
X124410466Y-92040140D01*
X124410465Y-92040138D01*
X124349862Y-91979535D01*
X124349861Y-91979534D01*
X124345531Y-91975204D01*
X124345520Y-91975194D01*
X122011629Y-89641302D01*
X121978144Y-89579979D01*
X121976994Y-89552185D01*
X121975500Y-89552185D01*
X121975500Y-89385945D01*
X121975500Y-89385943D01*
X121934577Y-89233216D01*
X121934573Y-89233209D01*
X121855524Y-89096290D01*
X121855518Y-89096282D01*
X121743717Y-88984481D01*
X121743709Y-88984475D01*
X121606790Y-88905426D01*
X121606786Y-88905424D01*
X121606784Y-88905423D01*
X121454057Y-88864500D01*
X121295943Y-88864500D01*
X121156093Y-88901972D01*
X121086243Y-88900309D01*
X121028381Y-88861146D01*
X121000877Y-88796917D01*
X121000000Y-88782197D01*
X121000000Y-83506092D01*
X121000597Y-83493938D01*
X121018018Y-83317056D01*
X121022757Y-83293232D01*
X121072577Y-83128994D01*
X121081875Y-83106549D01*
X121162775Y-82955195D01*
X121176272Y-82934995D01*
X121285149Y-82802328D01*
X121302328Y-82785149D01*
X121434995Y-82676272D01*
X121455195Y-82662775D01*
X121606549Y-82581875D01*
X121628994Y-82572577D01*
X121793232Y-82522757D01*
X121817056Y-82518018D01*
X121963346Y-82503610D01*
X122031992Y-82516629D01*
X122082702Y-82564694D01*
X122099500Y-82627013D01*
X122099500Y-87746637D01*
X122091834Y-87785179D01*
X122092527Y-87785365D01*
X122090423Y-87793214D01*
X122090423Y-87793216D01*
X122049500Y-87945943D01*
X122049500Y-88104057D01*
X122088259Y-88248705D01*
X122090423Y-88256783D01*
X122090426Y-88256790D01*
X122169475Y-88393709D01*
X122169479Y-88393714D01*
X122169480Y-88393716D01*
X122281284Y-88505520D01*
X122281286Y-88505521D01*
X122281290Y-88505524D01*
X122418209Y-88584573D01*
X122418216Y-88584577D01*
X122570943Y-88625500D01*
X122570945Y-88625500D01*
X122729055Y-88625500D01*
X122729057Y-88625500D01*
X122881784Y-88584577D01*
X123018716Y-88505520D01*
X123130520Y-88393716D01*
X123209577Y-88256784D01*
X123250500Y-88104057D01*
X123250500Y-87945943D01*
X123209577Y-87793216D01*
X123170956Y-87726322D01*
X123130524Y-87656290D01*
X123130518Y-87656282D01*
X123036819Y-87562583D01*
X123003334Y-87501260D01*
X123000500Y-87474902D01*
X123000500Y-82624000D01*
X123020185Y-82556961D01*
X123072989Y-82511206D01*
X123124500Y-82500000D01*
X135870500Y-82500000D01*
X135937539Y-82519685D01*
G37*
G04 #@! TD.AperFunction*
G04 #@! TA.AperFunction,NonConductor*
G36*
X121156087Y-90028025D02*
G01*
X121295943Y-90065500D01*
X121295945Y-90065500D01*
X121462185Y-90065500D01*
X121462185Y-90068683D01*
X121516398Y-90077102D01*
X121551302Y-90101629D01*
X123788181Y-92338507D01*
X123821666Y-92399830D01*
X123824500Y-92426188D01*
X123824500Y-92986913D01*
X123804815Y-93053952D01*
X123752011Y-93099707D01*
X123682853Y-93109651D01*
X123638503Y-93094302D01*
X123631786Y-93090424D01*
X123631785Y-93090423D01*
X123631784Y-93090423D01*
X123479057Y-93049500D01*
X123320943Y-93049500D01*
X123168216Y-93090423D01*
X123168209Y-93090426D01*
X123031290Y-93169475D01*
X123031282Y-93169481D01*
X122919481Y-93281282D01*
X122919475Y-93281290D01*
X122840426Y-93418209D01*
X122840423Y-93418216D01*
X122799500Y-93570943D01*
X122799500Y-93729056D01*
X122840423Y-93881783D01*
X122840426Y-93881790D01*
X122919475Y-94018709D01*
X122919481Y-94018717D01*
X123037031Y-94136267D01*
X123034785Y-94138512D01*
X123067179Y-94182855D01*
X123074500Y-94224830D01*
X123074500Y-96064811D01*
X123054815Y-96131850D01*
X123002011Y-96177605D01*
X122932853Y-96187549D01*
X122869297Y-96158524D01*
X122862819Y-96152492D01*
X122714864Y-96004537D01*
X122714862Y-96004535D01*
X122677750Y-95983108D01*
X122640640Y-95961682D01*
X122599246Y-95950591D01*
X122557853Y-95939500D01*
X122557852Y-95939500D01*
X121949830Y-95939500D01*
X121882791Y-95919815D01*
X121862320Y-95900977D01*
X121861267Y-95902031D01*
X121743717Y-95784481D01*
X121743709Y-95784475D01*
X121606790Y-95705426D01*
X121606786Y-95705424D01*
X121606784Y-95705423D01*
X121454057Y-95664500D01*
X121295943Y-95664500D01*
X121295941Y-95664500D01*
X121288101Y-95666601D01*
X121258043Y-95665883D01*
X121228041Y-95667627D01*
X121223483Y-95665058D01*
X121218251Y-95664934D01*
X121193352Y-95648079D01*
X121167170Y-95633326D01*
X121162908Y-95627472D01*
X121160391Y-95625768D01*
X121146401Y-95604796D01*
X121080425Y-95480036D01*
X121071287Y-95457752D01*
X121022352Y-95294877D01*
X121017694Y-95271241D01*
X121000586Y-95095939D01*
X121000000Y-95083895D01*
X121000000Y-90147802D01*
X121019685Y-90080763D01*
X121072489Y-90035008D01*
X121141647Y-90025064D01*
X121156087Y-90028025D01*
G37*
G04 #@! TD.AperFunction*
G04 #@! TA.AperFunction,Conductor*
G36*
X184729544Y-57500315D02*
G01*
X184732119Y-57500500D01*
X184732120Y-57500500D01*
X185267880Y-57500500D01*
X185267881Y-57500500D01*
X185270455Y-57500315D01*
X185279300Y-57500000D01*
X201165451Y-57500000D01*
X203989593Y-57504052D01*
X204023818Y-57503259D01*
X204038808Y-57503822D01*
X204182943Y-57518018D01*
X204206769Y-57522757D01*
X204371001Y-57572576D01*
X204393453Y-57581877D01*
X204532302Y-57656093D01*
X204544798Y-57662772D01*
X204565008Y-57676276D01*
X204594492Y-57700472D01*
X204697666Y-57785145D01*
X204714854Y-57802333D01*
X204823722Y-57934989D01*
X204837227Y-57955201D01*
X204918121Y-58106543D01*
X204927424Y-58129001D01*
X204937379Y-58161819D01*
X204965802Y-58255518D01*
X204969161Y-58266589D01*
X204974500Y-58302584D01*
X204974500Y-76697414D01*
X204974390Y-76698152D01*
X204974495Y-76698521D01*
X204969161Y-76733409D01*
X204927424Y-76870998D01*
X204918121Y-76893456D01*
X204837227Y-77044798D01*
X204823722Y-77065010D01*
X204714854Y-77197666D01*
X204697666Y-77214854D01*
X204565010Y-77323722D01*
X204544798Y-77337227D01*
X204393456Y-77418121D01*
X204370998Y-77427424D01*
X204206775Y-77477240D01*
X204182934Y-77481982D01*
X204006061Y-77499403D01*
X203993907Y-77500000D01*
X179629500Y-77500000D01*
X179562461Y-77480315D01*
X179516706Y-77427511D01*
X179505500Y-77376000D01*
X179505500Y-72624010D01*
X179505433Y-72612420D01*
X179505433Y-72612412D01*
X179482519Y-72410257D01*
X179471313Y-72358746D01*
X179446784Y-72267062D01*
X179365692Y-72080473D01*
X179365691Y-72080471D01*
X179365689Y-72080468D01*
X179248705Y-71914033D01*
X179248704Y-71914032D01*
X179248700Y-71914026D01*
X179202945Y-71861222D01*
X179083832Y-71744821D01*
X179083830Y-71744819D01*
X178914738Y-71631693D01*
X178914731Y-71631690D01*
X178726328Y-71554916D01*
X178726322Y-71554914D01*
X178659293Y-71535233D01*
X178659295Y-71535233D01*
X178659290Y-71535232D01*
X178578406Y-71515083D01*
X178578402Y-71515082D01*
X178578403Y-71515082D01*
X178376001Y-71494500D01*
X178376000Y-71494500D01*
X175624000Y-71494500D01*
X175623347Y-71494503D01*
X175612420Y-71494566D01*
X175612406Y-71494567D01*
X175410254Y-71517481D01*
X175358753Y-71528685D01*
X175267058Y-71553217D01*
X175080475Y-71634306D01*
X175080468Y-71634310D01*
X174914033Y-71751294D01*
X174914020Y-71751305D01*
X174861225Y-71797052D01*
X174744819Y-71916169D01*
X174631693Y-72085261D01*
X174631690Y-72085268D01*
X174554916Y-72273671D01*
X174554914Y-72273677D01*
X174535233Y-72340706D01*
X174515082Y-72421597D01*
X174494500Y-72623998D01*
X174494500Y-76870500D01*
X174474815Y-76937539D01*
X174422011Y-76983294D01*
X174370500Y-76994500D01*
X172520125Y-76994500D01*
X172480514Y-76995671D01*
X172460706Y-76996257D01*
X172259879Y-77028763D01*
X172259857Y-77028767D01*
X172197871Y-77045377D01*
X172140962Y-77062443D01*
X172140956Y-77062446D01*
X172115958Y-77073677D01*
X172108919Y-77074644D01*
X171858560Y-77178346D01*
X171843201Y-77183560D01*
X171701259Y-77221592D01*
X171685351Y-77224756D01*
X171523123Y-77246114D01*
X171513579Y-77246997D01*
X171443382Y-77250761D01*
X171443361Y-77250763D01*
X171417014Y-77253595D01*
X171230130Y-77291889D01*
X171042622Y-77370825D01*
X170981290Y-77404315D01*
X170909869Y-77447249D01*
X170909858Y-77447257D01*
X170879389Y-77472102D01*
X170814993Y-77499211D01*
X170801028Y-77500000D01*
X167553297Y-77500000D01*
X167486258Y-77480315D01*
X167440503Y-77427511D01*
X167430559Y-77358353D01*
X167438738Y-77328543D01*
X167438868Y-77328228D01*
X167450499Y-77269752D01*
X167450500Y-77269750D01*
X167450500Y-72730249D01*
X167450499Y-72730247D01*
X167438868Y-72671770D01*
X167438867Y-72671769D01*
X167394552Y-72605447D01*
X167328230Y-72561132D01*
X167328229Y-72561131D01*
X167269752Y-72549500D01*
X167269748Y-72549500D01*
X164730252Y-72549500D01*
X164730247Y-72549500D01*
X164671770Y-72561131D01*
X164671769Y-72561132D01*
X164605447Y-72605447D01*
X164561132Y-72671769D01*
X164561131Y-72671770D01*
X164549500Y-72730247D01*
X164549500Y-77269752D01*
X164561131Y-77328228D01*
X164561262Y-77328543D01*
X164561341Y-77329284D01*
X164563515Y-77340210D01*
X164562537Y-77340404D01*
X164568734Y-77398012D01*
X164537461Y-77460492D01*
X164477374Y-77496147D01*
X164446703Y-77500000D01*
X163129500Y-77500000D01*
X163062461Y-77480315D01*
X163016706Y-77427511D01*
X163005500Y-77376000D01*
X163005500Y-72624010D01*
X163005433Y-72612420D01*
X163005433Y-72612412D01*
X162982519Y-72410257D01*
X162971313Y-72358746D01*
X162946784Y-72267062D01*
X162865692Y-72080473D01*
X162865691Y-72080471D01*
X162865689Y-72080468D01*
X162748705Y-71914033D01*
X162748704Y-71914032D01*
X162748700Y-71914026D01*
X162702945Y-71861222D01*
X162583832Y-71744821D01*
X162583830Y-71744819D01*
X162414738Y-71631693D01*
X162414731Y-71631690D01*
X162226328Y-71554916D01*
X162226322Y-71554914D01*
X162159293Y-71535233D01*
X162159295Y-71535233D01*
X162159290Y-71535232D01*
X162078406Y-71515083D01*
X162078402Y-71515082D01*
X162078403Y-71515082D01*
X161876001Y-71494500D01*
X161876000Y-71494500D01*
X159124000Y-71494500D01*
X159123347Y-71494503D01*
X159112420Y-71494566D01*
X159112406Y-71494567D01*
X158910254Y-71517481D01*
X158858753Y-71528685D01*
X158767058Y-71553217D01*
X158580475Y-71634306D01*
X158580468Y-71634310D01*
X158414033Y-71751294D01*
X158414020Y-71751305D01*
X158361225Y-71797052D01*
X158244819Y-71916169D01*
X158131693Y-72085261D01*
X158131690Y-72085268D01*
X158054916Y-72273671D01*
X158054914Y-72273677D01*
X158035233Y-72340706D01*
X158015082Y-72421597D01*
X157994500Y-72623998D01*
X157994500Y-76870500D01*
X157974815Y-76937539D01*
X157922011Y-76983294D01*
X157870500Y-76994500D01*
X156020125Y-76994500D01*
X155980514Y-76995671D01*
X155960706Y-76996257D01*
X155759879Y-77028763D01*
X155759857Y-77028767D01*
X155697871Y-77045377D01*
X155640962Y-77062443D01*
X155640956Y-77062446D01*
X155615958Y-77073677D01*
X155608919Y-77074644D01*
X155358560Y-77178346D01*
X155343201Y-77183560D01*
X155201259Y-77221592D01*
X155185353Y-77224756D01*
X155066624Y-77240388D01*
X155039656Y-77243939D01*
X155023472Y-77245000D01*
X154876529Y-77245000D01*
X154860344Y-77243939D01*
X154726628Y-77226334D01*
X154726617Y-77226333D01*
X154726615Y-77226333D01*
X154702560Y-77225258D01*
X154553485Y-77218602D01*
X154510967Y-77220375D01*
X154458036Y-77223982D01*
X154258462Y-77263558D01*
X154070954Y-77342493D01*
X154070949Y-77342495D01*
X154009650Y-77375967D01*
X154009643Y-77375970D01*
X154009636Y-77375975D01*
X153972978Y-77398012D01*
X153938192Y-77418923D01*
X153938191Y-77418924D01*
X153872974Y-77472102D01*
X153808578Y-77499211D01*
X153794613Y-77500000D01*
X151053297Y-77500000D01*
X150986258Y-77480315D01*
X150940503Y-77427511D01*
X150930559Y-77358353D01*
X150938738Y-77328543D01*
X150938868Y-77328228D01*
X150950499Y-77269752D01*
X150950500Y-77269750D01*
X150950500Y-72730249D01*
X150950499Y-72730247D01*
X150938868Y-72671770D01*
X150938867Y-72671769D01*
X150894552Y-72605447D01*
X150828230Y-72561132D01*
X150828229Y-72561131D01*
X150769752Y-72549500D01*
X150769748Y-72549500D01*
X148230252Y-72549500D01*
X148230247Y-72549500D01*
X148171770Y-72561131D01*
X148171769Y-72561132D01*
X148105447Y-72605447D01*
X148061132Y-72671769D01*
X148061131Y-72671770D01*
X148049500Y-72730247D01*
X148049500Y-77269752D01*
X148061131Y-77328228D01*
X148061262Y-77328543D01*
X148061341Y-77329284D01*
X148063515Y-77340210D01*
X148062537Y-77340404D01*
X148068734Y-77398012D01*
X148037461Y-77460492D01*
X147977374Y-77496147D01*
X147946703Y-77500000D01*
X146629500Y-77500000D01*
X146562461Y-77480315D01*
X146516706Y-77427511D01*
X146505500Y-77376000D01*
X146505500Y-72624010D01*
X146505433Y-72612420D01*
X146505433Y-72612412D01*
X146482519Y-72410257D01*
X146471313Y-72358746D01*
X146446784Y-72267062D01*
X146365692Y-72080473D01*
X146365691Y-72080471D01*
X146365689Y-72080468D01*
X146248705Y-71914033D01*
X146248704Y-71914032D01*
X146248700Y-71914026D01*
X146202945Y-71861222D01*
X146083832Y-71744821D01*
X146083830Y-71744819D01*
X145914738Y-71631693D01*
X145914731Y-71631690D01*
X145726328Y-71554916D01*
X145726322Y-71554914D01*
X145659293Y-71535233D01*
X145659295Y-71535233D01*
X145659290Y-71535232D01*
X145578406Y-71515083D01*
X145578402Y-71515082D01*
X145578403Y-71515082D01*
X145376001Y-71494500D01*
X145376000Y-71494500D01*
X142624000Y-71494500D01*
X142623347Y-71494503D01*
X142612420Y-71494566D01*
X142612406Y-71494567D01*
X142410254Y-71517481D01*
X142358753Y-71528685D01*
X142267058Y-71553217D01*
X142080475Y-71634306D01*
X142080468Y-71634310D01*
X141914033Y-71751294D01*
X141914020Y-71751305D01*
X141861225Y-71797052D01*
X141744819Y-71916169D01*
X141631693Y-72085261D01*
X141631690Y-72085268D01*
X141554916Y-72273671D01*
X141554914Y-72273677D01*
X141535233Y-72340706D01*
X141515082Y-72421597D01*
X141494500Y-72623998D01*
X141494500Y-76870500D01*
X141474815Y-76937539D01*
X141422011Y-76983294D01*
X141370500Y-76994500D01*
X139520125Y-76994500D01*
X139480514Y-76995671D01*
X139460706Y-76996257D01*
X139259879Y-77028763D01*
X139259857Y-77028767D01*
X139197871Y-77045377D01*
X139140962Y-77062443D01*
X139140956Y-77062446D01*
X139115958Y-77073677D01*
X139108919Y-77074644D01*
X138858560Y-77178346D01*
X138843201Y-77183560D01*
X138701259Y-77221592D01*
X138685353Y-77224756D01*
X138566624Y-77240388D01*
X138539656Y-77243939D01*
X138523472Y-77245000D01*
X138376529Y-77245000D01*
X138360344Y-77243939D01*
X138226628Y-77226334D01*
X138226617Y-77226333D01*
X138226615Y-77226333D01*
X138202560Y-77225258D01*
X138053485Y-77218602D01*
X138010967Y-77220375D01*
X137958036Y-77223982D01*
X137758462Y-77263558D01*
X137570954Y-77342493D01*
X137570947Y-77342496D01*
X137527897Y-77366003D01*
X137519594Y-77367808D01*
X137512840Y-77372960D01*
X137485968Y-77375123D01*
X137459624Y-77380854D01*
X137449850Y-77378031D01*
X137443196Y-77378567D01*
X137410019Y-77366528D01*
X137355201Y-77337227D01*
X137334989Y-77323722D01*
X137202333Y-77214854D01*
X137185145Y-77197666D01*
X137169289Y-77178346D01*
X137076276Y-77065008D01*
X137062772Y-77044798D01*
X136981877Y-76893453D01*
X136972575Y-76870998D01*
X136972424Y-76870500D01*
X136922757Y-76706769D01*
X136918018Y-76682941D01*
X136900597Y-76506061D01*
X136900000Y-76493907D01*
X136900000Y-62213102D01*
X136919685Y-62146063D01*
X136936319Y-62125421D01*
X138598921Y-60462819D01*
X138660244Y-60429334D01*
X138686602Y-60426500D01*
X153579661Y-60426500D01*
X153579663Y-60426500D01*
X153662449Y-60404318D01*
X153736672Y-60361465D01*
X154061465Y-60036672D01*
X155935318Y-58162819D01*
X155996641Y-58129334D01*
X156022999Y-58126500D01*
X165879824Y-58126500D01*
X165895080Y-58125500D01*
X166149902Y-58125500D01*
X166216941Y-58145185D01*
X166237583Y-58161819D01*
X166331284Y-58255520D01*
X166331286Y-58255521D01*
X166331290Y-58255524D01*
X166375162Y-58280853D01*
X166468216Y-58334577D01*
X166620943Y-58375500D01*
X166620945Y-58375500D01*
X166779055Y-58375500D01*
X166779057Y-58375500D01*
X166931784Y-58334577D01*
X167068716Y-58255520D01*
X167180520Y-58143716D01*
X167259577Y-58006784D01*
X167300500Y-57854057D01*
X167300500Y-57695943D01*
X167289822Y-57656092D01*
X167291485Y-57586243D01*
X167330648Y-57528381D01*
X167394876Y-57500877D01*
X167409597Y-57500000D01*
X184720700Y-57500000D01*
X184729544Y-57500315D01*
G37*
G04 #@! TD.AperFunction*
M02*
