G04 #@! TF.GenerationSoftware,KiCad,Pcbnew,8.0.6-1.fc41*
G04 #@! TF.CreationDate,2024-11-09T21:04:43-05:00*
G04 #@! TF.ProjectId,three_half_bridges,74687265-655f-4686-916c-665f62726964,rev?*
G04 #@! TF.SameCoordinates,Original*
G04 #@! TF.FileFunction,Paste,Bot*
G04 #@! TF.FilePolarity,Positive*
%FSLAX46Y46*%
G04 Gerber Fmt 4.6, Leading zero omitted, Abs format (unit mm)*
G04 Created by KiCad (PCBNEW 8.0.6-1.fc41) date 2024-11-09 21:04:43*
%MOMM*%
%LPD*%
G01*
G04 APERTURE LIST*
G04 Aperture macros list*
%AMRoundRect*
0 Rectangle with rounded corners*
0 $1 Rounding radius*
0 $2 $3 $4 $5 $6 $7 $8 $9 X,Y pos of 4 corners*
0 Add a 4 corners polygon primitive as box body*
4,1,4,$2,$3,$4,$5,$6,$7,$8,$9,$2,$3,0*
0 Add four circle primitives for the rounded corners*
1,1,$1+$1,$2,$3*
1,1,$1+$1,$4,$5*
1,1,$1+$1,$6,$7*
1,1,$1+$1,$8,$9*
0 Add four rect primitives between the rounded corners*
20,1,$1+$1,$2,$3,$4,$5,0*
20,1,$1+$1,$4,$5,$6,$7,0*
20,1,$1+$1,$6,$7,$8,$9,0*
20,1,$1+$1,$8,$9,$2,$3,0*%
G04 Aperture macros list end*
%ADD10R,1.830000X1.090000*%
%ADD11RoundRect,0.054500X-0.860500X-0.490500X0.860500X-0.490500X0.860500X0.490500X-0.860500X0.490500X0*%
%ADD12RoundRect,0.250000X0.800000X-0.450000X0.800000X0.450000X-0.800000X0.450000X-0.800000X-0.450000X0*%
%ADD13RoundRect,0.250000X-0.250000X-0.475000X0.250000X-0.475000X0.250000X0.475000X-0.250000X0.475000X0*%
%ADD14RoundRect,0.250000X0.450000X0.800000X-0.450000X0.800000X-0.450000X-0.800000X0.450000X-0.800000X0*%
%ADD15RoundRect,0.250000X-0.475000X0.250000X-0.475000X-0.250000X0.475000X-0.250000X0.475000X0.250000X0*%
%ADD16RoundRect,0.249999X1.450001X-0.450001X1.450001X0.450001X-1.450001X0.450001X-1.450001X-0.450001X0*%
G04 APERTURE END LIST*
D10*
X96380000Y-124540000D03*
D11*
X96380000Y-122000000D03*
X96380000Y-119460000D03*
X107620000Y-119460000D03*
X107620000Y-122000000D03*
X107620000Y-124540000D03*
D12*
X141750000Y-123200000D03*
X141750000Y-118800000D03*
D13*
X112800000Y-122000000D03*
X114700000Y-122000000D03*
D14*
X114450000Y-119250000D03*
X110050000Y-119250000D03*
X114450000Y-124750000D03*
X110050000Y-124750000D03*
D12*
X136250000Y-123200000D03*
X136250000Y-118800000D03*
X123750000Y-123200000D03*
X123750000Y-118800000D03*
D15*
X130000000Y-119000000D03*
X130000000Y-120900000D03*
X121000000Y-119050000D03*
X121000000Y-120950000D03*
D16*
X157000000Y-82050000D03*
X157000000Y-77950000D03*
D12*
X127250000Y-123200000D03*
X127250000Y-118800000D03*
D16*
X108250000Y-81800000D03*
X108250000Y-77700000D03*
X141250000Y-82050000D03*
X141250000Y-77950000D03*
D12*
X132750000Y-123200000D03*
X132750000Y-118800000D03*
D13*
X92288912Y-121998200D03*
X94188912Y-121998200D03*
D16*
X165500000Y-82050000D03*
X165500000Y-77950000D03*
D12*
X118250000Y-123200000D03*
X118250000Y-118800000D03*
D15*
X139000000Y-119050000D03*
X139000000Y-120950000D03*
D16*
X161250000Y-82050000D03*
X161250000Y-77950000D03*
X124750000Y-82050000D03*
X124750000Y-77950000D03*
M02*
