G04 #@! TF.GenerationSoftware,KiCad,Pcbnew,6.0.2-1.fc35*
G04 #@! TF.CreationDate,2022-04-02T15:35:02-04:00*
G04 #@! TF.ProjectId,universal-half-bridge,756e6976-6572-4736-916c-2d68616c662d,rev?*
G04 #@! TF.SameCoordinates,Original*
G04 #@! TF.FileFunction,Legend,Top*
G04 #@! TF.FilePolarity,Positive*
%FSLAX46Y46*%
G04 Gerber Fmt 4.6, Leading zero omitted, Abs format (unit mm)*
G04 Created by KiCad (PCBNEW 6.0.2-1.fc35) date 2022-04-02 15:35:02*
%MOMM*%
%LPD*%
G01*
G04 APERTURE LIST*
%ADD10C,0.150000*%
%ADD11C,0.120000*%
G04 APERTURE END LIST*
D10*
X185166666Y-78147380D02*
X185500000Y-79147380D01*
X185833333Y-78147380D01*
X186738095Y-79052142D02*
X186690476Y-79099761D01*
X186547619Y-79147380D01*
X186452380Y-79147380D01*
X186309523Y-79099761D01*
X186214285Y-79004523D01*
X186166666Y-78909285D01*
X186119047Y-78718809D01*
X186119047Y-78575952D01*
X186166666Y-78385476D01*
X186214285Y-78290238D01*
X186309523Y-78195000D01*
X186452380Y-78147380D01*
X186547619Y-78147380D01*
X186690476Y-78195000D01*
X186738095Y-78242619D01*
X187738095Y-79052142D02*
X187690476Y-79099761D01*
X187547619Y-79147380D01*
X187452380Y-79147380D01*
X187309523Y-79099761D01*
X187214285Y-79004523D01*
X187166666Y-78909285D01*
X187119047Y-78718809D01*
X187119047Y-78575952D01*
X187166666Y-78385476D01*
X187214285Y-78290238D01*
X187309523Y-78195000D01*
X187452380Y-78147380D01*
X187547619Y-78147380D01*
X187690476Y-78195000D01*
X187738095Y-78242619D01*
X185738095Y-79805000D02*
X185642857Y-79757380D01*
X185500000Y-79757380D01*
X185357142Y-79805000D01*
X185261904Y-79900238D01*
X185214285Y-79995476D01*
X185166666Y-80185952D01*
X185166666Y-80328809D01*
X185214285Y-80519285D01*
X185261904Y-80614523D01*
X185357142Y-80709761D01*
X185500000Y-80757380D01*
X185595238Y-80757380D01*
X185738095Y-80709761D01*
X185785714Y-80662142D01*
X185785714Y-80328809D01*
X185595238Y-80328809D01*
X186214285Y-80757380D02*
X186214285Y-79757380D01*
X186785714Y-80757380D01*
X186785714Y-79757380D01*
X187261904Y-80757380D02*
X187261904Y-79757380D01*
X187500000Y-79757380D01*
X187642857Y-79805000D01*
X187738095Y-79900238D01*
X187785714Y-79995476D01*
X187833333Y-80185952D01*
X187833333Y-80328809D01*
X187785714Y-80519285D01*
X187738095Y-80614523D01*
X187642857Y-80709761D01*
X187500000Y-80757380D01*
X187261904Y-80757380D01*
X190904761Y-105952380D02*
X190571428Y-105476190D01*
X190333333Y-105952380D02*
X190333333Y-104952380D01*
X190714285Y-104952380D01*
X190809523Y-105000000D01*
X190857142Y-105047619D01*
X190904761Y-105142857D01*
X190904761Y-105285714D01*
X190857142Y-105380952D01*
X190809523Y-105428571D01*
X190714285Y-105476190D01*
X190333333Y-105476190D01*
X191190476Y-104952380D02*
X191761904Y-104952380D01*
X191476190Y-105952380D02*
X191476190Y-104952380D01*
X192095238Y-105952380D02*
X192095238Y-104952380D01*
X192666666Y-105952380D01*
X192666666Y-104952380D01*
X190035714Y-90952380D02*
X190035714Y-89952380D01*
X190035714Y-90428571D02*
X190607142Y-90428571D01*
X190607142Y-90952380D02*
X190607142Y-89952380D01*
X190940476Y-89952380D02*
X191273809Y-90952380D01*
X191607142Y-89952380D01*
X191940476Y-90952380D02*
X191940476Y-89952380D01*
X192178571Y-89952380D01*
X192321428Y-90000000D01*
X192416666Y-90095238D01*
X192464285Y-90190476D01*
X192511904Y-90380952D01*
X192511904Y-90523809D01*
X192464285Y-90714285D01*
X192416666Y-90809523D01*
X192321428Y-90904761D01*
X192178571Y-90952380D01*
X191940476Y-90952380D01*
X193511904Y-90857142D02*
X193464285Y-90904761D01*
X193321428Y-90952380D01*
X193226190Y-90952380D01*
X193083333Y-90904761D01*
X192988095Y-90809523D01*
X192940476Y-90714285D01*
X192892857Y-90523809D01*
X192892857Y-90380952D01*
X192940476Y-90190476D01*
X192988095Y-90095238D01*
X193083333Y-90000000D01*
X193226190Y-89952380D01*
X193321428Y-89952380D01*
X193464285Y-90000000D01*
X193511904Y-90047619D01*
X159940476Y-139752380D02*
X159940476Y-140466666D01*
X159892857Y-140609523D01*
X159797619Y-140704761D01*
X159654761Y-140752380D01*
X159559523Y-140752380D01*
X160940476Y-140752380D02*
X160369047Y-140752380D01*
X160654761Y-140752380D02*
X160654761Y-139752380D01*
X160559523Y-139895238D01*
X160464285Y-139990476D01*
X160369047Y-140038095D01*
X161273809Y-139752380D02*
X161892857Y-139752380D01*
X161559523Y-140133333D01*
X161702380Y-140133333D01*
X161797619Y-140180952D01*
X161845238Y-140228571D01*
X161892857Y-140323809D01*
X161892857Y-140561904D01*
X161845238Y-140657142D01*
X161797619Y-140704761D01*
X161702380Y-140752380D01*
X161416666Y-140752380D01*
X161321428Y-140704761D01*
X161273809Y-140657142D01*
X159940476Y-54402380D02*
X159940476Y-55116666D01*
X159892857Y-55259523D01*
X159797619Y-55354761D01*
X159654761Y-55402380D01*
X159559523Y-55402380D01*
X160940476Y-55402380D02*
X160369047Y-55402380D01*
X160654761Y-55402380D02*
X160654761Y-54402380D01*
X160559523Y-54545238D01*
X160464285Y-54640476D01*
X160369047Y-54688095D01*
X161321428Y-54497619D02*
X161369047Y-54450000D01*
X161464285Y-54402380D01*
X161702380Y-54402380D01*
X161797619Y-54450000D01*
X161845238Y-54497619D01*
X161892857Y-54592857D01*
X161892857Y-54688095D01*
X161845238Y-54830952D01*
X161273809Y-55402380D01*
X161892857Y-55402380D01*
X167190476Y-139752380D02*
X167190476Y-140466666D01*
X167142857Y-140609523D01*
X167047619Y-140704761D01*
X166904761Y-140752380D01*
X166809523Y-140752380D01*
X168190476Y-140752380D02*
X167619047Y-140752380D01*
X167904761Y-140752380D02*
X167904761Y-139752380D01*
X167809523Y-139895238D01*
X167714285Y-139990476D01*
X167619047Y-140038095D01*
X169142857Y-140752380D02*
X168571428Y-140752380D01*
X168857142Y-140752380D02*
X168857142Y-139752380D01*
X168761904Y-139895238D01*
X168666666Y-139990476D01*
X168571428Y-140038095D01*
X167190476Y-54402380D02*
X167190476Y-55116666D01*
X167142857Y-55259523D01*
X167047619Y-55354761D01*
X166904761Y-55402380D01*
X166809523Y-55402380D01*
X168190476Y-55402380D02*
X167619047Y-55402380D01*
X167904761Y-55402380D02*
X167904761Y-54402380D01*
X167809523Y-54545238D01*
X167714285Y-54640476D01*
X167619047Y-54688095D01*
X168809523Y-54402380D02*
X168904761Y-54402380D01*
X169000000Y-54450000D01*
X169047619Y-54497619D01*
X169095238Y-54592857D01*
X169142857Y-54783333D01*
X169142857Y-55021428D01*
X169095238Y-55211904D01*
X169047619Y-55307142D01*
X169000000Y-55354761D01*
X168904761Y-55402380D01*
X168809523Y-55402380D01*
X168714285Y-55354761D01*
X168666666Y-55307142D01*
X168619047Y-55211904D01*
X168571428Y-55021428D01*
X168571428Y-54783333D01*
X168619047Y-54592857D01*
X168666666Y-54497619D01*
X168714285Y-54450000D01*
X168809523Y-54402380D01*
X191166666Y-74952380D02*
X191166666Y-75666666D01*
X191119047Y-75809523D01*
X191023809Y-75904761D01*
X190880952Y-75952380D01*
X190785714Y-75952380D01*
X191690476Y-75952380D02*
X191880952Y-75952380D01*
X191976190Y-75904761D01*
X192023809Y-75857142D01*
X192119047Y-75714285D01*
X192166666Y-75523809D01*
X192166666Y-75142857D01*
X192119047Y-75047619D01*
X192071428Y-75000000D01*
X191976190Y-74952380D01*
X191785714Y-74952380D01*
X191690476Y-75000000D01*
X191642857Y-75047619D01*
X191595238Y-75142857D01*
X191595238Y-75380952D01*
X191642857Y-75476190D01*
X191690476Y-75523809D01*
X191785714Y-75571428D01*
X191976190Y-75571428D01*
X192071428Y-75523809D01*
X192119047Y-75476190D01*
X192166666Y-75380952D01*
X174916666Y-139752380D02*
X174916666Y-140466666D01*
X174869047Y-140609523D01*
X174773809Y-140704761D01*
X174630952Y-140752380D01*
X174535714Y-140752380D01*
X175535714Y-140180952D02*
X175440476Y-140133333D01*
X175392857Y-140085714D01*
X175345238Y-139990476D01*
X175345238Y-139942857D01*
X175392857Y-139847619D01*
X175440476Y-139800000D01*
X175535714Y-139752380D01*
X175726190Y-139752380D01*
X175821428Y-139800000D01*
X175869047Y-139847619D01*
X175916666Y-139942857D01*
X175916666Y-139990476D01*
X175869047Y-140085714D01*
X175821428Y-140133333D01*
X175726190Y-140180952D01*
X175535714Y-140180952D01*
X175440476Y-140228571D01*
X175392857Y-140276190D01*
X175345238Y-140371428D01*
X175345238Y-140561904D01*
X175392857Y-140657142D01*
X175440476Y-140704761D01*
X175535714Y-140752380D01*
X175726190Y-140752380D01*
X175821428Y-140704761D01*
X175869047Y-140657142D01*
X175916666Y-140561904D01*
X175916666Y-140371428D01*
X175869047Y-140276190D01*
X175821428Y-140228571D01*
X175726190Y-140180952D01*
X174916666Y-54352380D02*
X174916666Y-55066666D01*
X174869047Y-55209523D01*
X174773809Y-55304761D01*
X174630952Y-55352380D01*
X174535714Y-55352380D01*
X175821428Y-54352380D02*
X175630952Y-54352380D01*
X175535714Y-54400000D01*
X175488095Y-54447619D01*
X175392857Y-54590476D01*
X175345238Y-54780952D01*
X175345238Y-55161904D01*
X175392857Y-55257142D01*
X175440476Y-55304761D01*
X175535714Y-55352380D01*
X175726190Y-55352380D01*
X175821428Y-55304761D01*
X175869047Y-55257142D01*
X175916666Y-55161904D01*
X175916666Y-54923809D01*
X175869047Y-54828571D01*
X175821428Y-54780952D01*
X175726190Y-54733333D01*
X175535714Y-54733333D01*
X175440476Y-54780952D01*
X175392857Y-54828571D01*
X175345238Y-54923809D01*
X184952380Y-101666666D02*
X184476190Y-102000000D01*
X184952380Y-102238095D02*
X183952380Y-102238095D01*
X183952380Y-101857142D01*
X184000000Y-101761904D01*
X184047619Y-101714285D01*
X184142857Y-101666666D01*
X184285714Y-101666666D01*
X184380952Y-101714285D01*
X184428571Y-101761904D01*
X184476190Y-101857142D01*
X184476190Y-102238095D01*
X184952380Y-100714285D02*
X184952380Y-101285714D01*
X184952380Y-101000000D02*
X183952380Y-101000000D01*
X184095238Y-101095238D01*
X184190476Y-101190476D01*
X184238095Y-101285714D01*
X124916666Y-49202380D02*
X124916666Y-49916666D01*
X124869047Y-50059523D01*
X124773809Y-50154761D01*
X124630952Y-50202380D01*
X124535714Y-50202380D01*
X125345238Y-49297619D02*
X125392857Y-49250000D01*
X125488095Y-49202380D01*
X125726190Y-49202380D01*
X125821428Y-49250000D01*
X125869047Y-49297619D01*
X125916666Y-49392857D01*
X125916666Y-49488095D01*
X125869047Y-49630952D01*
X125297619Y-50202380D01*
X125916666Y-50202380D01*
X102489465Y-123607142D02*
X102441846Y-123654761D01*
X102298989Y-123702380D01*
X102203751Y-123702380D01*
X102060894Y-123654761D01*
X101965656Y-123559523D01*
X101918037Y-123464285D01*
X101870418Y-123273809D01*
X101870418Y-123130952D01*
X101918037Y-122940476D01*
X101965656Y-122845238D01*
X102060894Y-122750000D01*
X102203751Y-122702380D01*
X102298989Y-122702380D01*
X102441846Y-122750000D01*
X102489465Y-122797619D01*
X103441846Y-123702380D02*
X102870418Y-123702380D01*
X103156132Y-123702380D02*
X103156132Y-122702380D01*
X103060894Y-122845238D01*
X102965656Y-122940476D01*
X102870418Y-122988095D01*
X104346608Y-122702380D02*
X103870418Y-122702380D01*
X103822799Y-123178571D01*
X103870418Y-123130952D01*
X103965656Y-123083333D01*
X104203751Y-123083333D01*
X104298989Y-123130952D01*
X104346608Y-123178571D01*
X104394227Y-123273809D01*
X104394227Y-123511904D01*
X104346608Y-123607142D01*
X104298989Y-123654761D01*
X104203751Y-123702380D01*
X103965656Y-123702380D01*
X103870418Y-123654761D01*
X103822799Y-123607142D01*
X102489465Y-111107142D02*
X102441846Y-111154761D01*
X102298989Y-111202380D01*
X102203751Y-111202380D01*
X102060894Y-111154761D01*
X101965656Y-111059523D01*
X101918037Y-110964285D01*
X101870418Y-110773809D01*
X101870418Y-110630952D01*
X101918037Y-110440476D01*
X101965656Y-110345238D01*
X102060894Y-110250000D01*
X102203751Y-110202380D01*
X102298989Y-110202380D01*
X102441846Y-110250000D01*
X102489465Y-110297619D01*
X103441846Y-111202380D02*
X102870418Y-111202380D01*
X103156132Y-111202380D02*
X103156132Y-110202380D01*
X103060894Y-110345238D01*
X102965656Y-110440476D01*
X102870418Y-110488095D01*
X104298989Y-110535714D02*
X104298989Y-111202380D01*
X104060894Y-110154761D02*
X103822799Y-110869047D01*
X104441846Y-110869047D01*
X102489465Y-98607142D02*
X102441846Y-98654761D01*
X102298989Y-98702380D01*
X102203751Y-98702380D01*
X102060894Y-98654761D01*
X101965656Y-98559523D01*
X101918037Y-98464285D01*
X101870418Y-98273809D01*
X101870418Y-98130952D01*
X101918037Y-97940476D01*
X101965656Y-97845238D01*
X102060894Y-97750000D01*
X102203751Y-97702380D01*
X102298989Y-97702380D01*
X102441846Y-97750000D01*
X102489465Y-97797619D01*
X103441846Y-98702380D02*
X102870418Y-98702380D01*
X103156132Y-98702380D02*
X103156132Y-97702380D01*
X103060894Y-97845238D01*
X102965656Y-97940476D01*
X102870418Y-97988095D01*
X103775180Y-97702380D02*
X104394227Y-97702380D01*
X104060894Y-98083333D01*
X104203751Y-98083333D01*
X104298989Y-98130952D01*
X104346608Y-98178571D01*
X104394227Y-98273809D01*
X104394227Y-98511904D01*
X104346608Y-98607142D01*
X104298989Y-98654761D01*
X104203751Y-98702380D01*
X103918037Y-98702380D01*
X103822799Y-98654761D01*
X103775180Y-98607142D01*
X102357142Y-86357142D02*
X102309523Y-86404761D01*
X102166666Y-86452380D01*
X102071428Y-86452380D01*
X101928571Y-86404761D01*
X101833333Y-86309523D01*
X101785714Y-86214285D01*
X101738095Y-86023809D01*
X101738095Y-85880952D01*
X101785714Y-85690476D01*
X101833333Y-85595238D01*
X101928571Y-85500000D01*
X102071428Y-85452380D01*
X102166666Y-85452380D01*
X102309523Y-85500000D01*
X102357142Y-85547619D01*
X103309523Y-86452380D02*
X102738095Y-86452380D01*
X103023809Y-86452380D02*
X103023809Y-85452380D01*
X102928571Y-85595238D01*
X102833333Y-85690476D01*
X102738095Y-85738095D01*
X103690476Y-85547619D02*
X103738095Y-85500000D01*
X103833333Y-85452380D01*
X104071428Y-85452380D01*
X104166666Y-85500000D01*
X104214285Y-85547619D01*
X104261904Y-85642857D01*
X104261904Y-85738095D01*
X104214285Y-85880952D01*
X103642857Y-86452380D01*
X104261904Y-86452380D01*
X102607142Y-61357142D02*
X102559523Y-61404761D01*
X102416666Y-61452380D01*
X102321428Y-61452380D01*
X102178571Y-61404761D01*
X102083333Y-61309523D01*
X102035714Y-61214285D01*
X101988095Y-61023809D01*
X101988095Y-60880952D01*
X102035714Y-60690476D01*
X102083333Y-60595238D01*
X102178571Y-60500000D01*
X102321428Y-60452380D01*
X102416666Y-60452380D01*
X102559523Y-60500000D01*
X102607142Y-60547619D01*
X103559523Y-61452380D02*
X102988095Y-61452380D01*
X103273809Y-61452380D02*
X103273809Y-60452380D01*
X103178571Y-60595238D01*
X103083333Y-60690476D01*
X102988095Y-60738095D01*
X104178571Y-60452380D02*
X104273809Y-60452380D01*
X104369047Y-60500000D01*
X104416666Y-60547619D01*
X104464285Y-60642857D01*
X104511904Y-60833333D01*
X104511904Y-61071428D01*
X104464285Y-61261904D01*
X104416666Y-61357142D01*
X104369047Y-61404761D01*
X104273809Y-61452380D01*
X104178571Y-61452380D01*
X104083333Y-61404761D01*
X104035714Y-61357142D01*
X103988095Y-61261904D01*
X103940476Y-61071428D01*
X103940476Y-60833333D01*
X103988095Y-60642857D01*
X104035714Y-60547619D01*
X104083333Y-60500000D01*
X104178571Y-60452380D01*
X173333333Y-94857142D02*
X173285714Y-94904761D01*
X173142857Y-94952380D01*
X173047619Y-94952380D01*
X172904761Y-94904761D01*
X172809523Y-94809523D01*
X172761904Y-94714285D01*
X172714285Y-94523809D01*
X172714285Y-94380952D01*
X172761904Y-94190476D01*
X172809523Y-94095238D01*
X172904761Y-94000000D01*
X173047619Y-93952380D01*
X173142857Y-93952380D01*
X173285714Y-94000000D01*
X173333333Y-94047619D01*
X173904761Y-94380952D02*
X173809523Y-94333333D01*
X173761904Y-94285714D01*
X173714285Y-94190476D01*
X173714285Y-94142857D01*
X173761904Y-94047619D01*
X173809523Y-94000000D01*
X173904761Y-93952380D01*
X174095238Y-93952380D01*
X174190476Y-94000000D01*
X174238095Y-94047619D01*
X174285714Y-94142857D01*
X174285714Y-94190476D01*
X174238095Y-94285714D01*
X174190476Y-94333333D01*
X174095238Y-94380952D01*
X173904761Y-94380952D01*
X173809523Y-94428571D01*
X173761904Y-94476190D01*
X173714285Y-94571428D01*
X173714285Y-94761904D01*
X173761904Y-94857142D01*
X173809523Y-94904761D01*
X173904761Y-94952380D01*
X174095238Y-94952380D01*
X174190476Y-94904761D01*
X174238095Y-94857142D01*
X174285714Y-94761904D01*
X174285714Y-94571428D01*
X174238095Y-94476190D01*
X174190476Y-94428571D01*
X174095238Y-94380952D01*
X169833333Y-94857142D02*
X169785714Y-94904761D01*
X169642857Y-94952380D01*
X169547619Y-94952380D01*
X169404761Y-94904761D01*
X169309523Y-94809523D01*
X169261904Y-94714285D01*
X169214285Y-94523809D01*
X169214285Y-94380952D01*
X169261904Y-94190476D01*
X169309523Y-94095238D01*
X169404761Y-94000000D01*
X169547619Y-93952380D01*
X169642857Y-93952380D01*
X169785714Y-94000000D01*
X169833333Y-94047619D01*
X170166666Y-93952380D02*
X170833333Y-93952380D01*
X170404761Y-94952380D01*
X154333333Y-94857142D02*
X154285714Y-94904761D01*
X154142857Y-94952380D01*
X154047619Y-94952380D01*
X153904761Y-94904761D01*
X153809523Y-94809523D01*
X153761904Y-94714285D01*
X153714285Y-94523809D01*
X153714285Y-94380952D01*
X153761904Y-94190476D01*
X153809523Y-94095238D01*
X153904761Y-94000000D01*
X154047619Y-93952380D01*
X154142857Y-93952380D01*
X154285714Y-94000000D01*
X154333333Y-94047619D01*
X155238095Y-93952380D02*
X154761904Y-93952380D01*
X154714285Y-94428571D01*
X154761904Y-94380952D01*
X154857142Y-94333333D01*
X155095238Y-94333333D01*
X155190476Y-94380952D01*
X155238095Y-94428571D01*
X155285714Y-94523809D01*
X155285714Y-94761904D01*
X155238095Y-94857142D01*
X155190476Y-94904761D01*
X155095238Y-94952380D01*
X154857142Y-94952380D01*
X154761904Y-94904761D01*
X154714285Y-94857142D01*
X150833333Y-94857142D02*
X150785714Y-94904761D01*
X150642857Y-94952380D01*
X150547619Y-94952380D01*
X150404761Y-94904761D01*
X150309523Y-94809523D01*
X150261904Y-94714285D01*
X150214285Y-94523809D01*
X150214285Y-94380952D01*
X150261904Y-94190476D01*
X150309523Y-94095238D01*
X150404761Y-94000000D01*
X150547619Y-93952380D01*
X150642857Y-93952380D01*
X150785714Y-94000000D01*
X150833333Y-94047619D01*
X151690476Y-94285714D02*
X151690476Y-94952380D01*
X151452380Y-93904761D02*
X151214285Y-94619047D01*
X151833333Y-94619047D01*
X131858333Y-94857142D02*
X131810714Y-94904761D01*
X131667857Y-94952380D01*
X131572619Y-94952380D01*
X131429761Y-94904761D01*
X131334523Y-94809523D01*
X131286904Y-94714285D01*
X131239285Y-94523809D01*
X131239285Y-94380952D01*
X131286904Y-94190476D01*
X131334523Y-94095238D01*
X131429761Y-94000000D01*
X131572619Y-93952380D01*
X131667857Y-93952380D01*
X131810714Y-94000000D01*
X131858333Y-94047619D01*
X132810714Y-94952380D02*
X132239285Y-94952380D01*
X132525000Y-94952380D02*
X132525000Y-93952380D01*
X132429761Y-94095238D01*
X132334523Y-94190476D01*
X132239285Y-94238095D01*
X102857142Y-73857142D02*
X102809523Y-73904761D01*
X102666666Y-73952380D01*
X102571428Y-73952380D01*
X102428571Y-73904761D01*
X102333333Y-73809523D01*
X102285714Y-73714285D01*
X102238095Y-73523809D01*
X102238095Y-73380952D01*
X102285714Y-73190476D01*
X102333333Y-73095238D01*
X102428571Y-73000000D01*
X102571428Y-72952380D01*
X102666666Y-72952380D01*
X102809523Y-73000000D01*
X102857142Y-73047619D01*
X103809523Y-73952380D02*
X103238095Y-73952380D01*
X103523809Y-73952380D02*
X103523809Y-72952380D01*
X103428571Y-73095238D01*
X103333333Y-73190476D01*
X103238095Y-73238095D01*
X104761904Y-73952380D02*
X104190476Y-73952380D01*
X104476190Y-73952380D02*
X104476190Y-72952380D01*
X104380952Y-73095238D01*
X104285714Y-73190476D01*
X104190476Y-73238095D01*
X135333333Y-94857142D02*
X135285714Y-94904761D01*
X135142857Y-94952380D01*
X135047619Y-94952380D01*
X134904761Y-94904761D01*
X134809523Y-94809523D01*
X134761904Y-94714285D01*
X134714285Y-94523809D01*
X134714285Y-94380952D01*
X134761904Y-94190476D01*
X134809523Y-94095238D01*
X134904761Y-94000000D01*
X135047619Y-93952380D01*
X135142857Y-93952380D01*
X135285714Y-94000000D01*
X135333333Y-94047619D01*
X135714285Y-94047619D02*
X135761904Y-94000000D01*
X135857142Y-93952380D01*
X136095238Y-93952380D01*
X136190476Y-94000000D01*
X136238095Y-94047619D01*
X136285714Y-94142857D01*
X136285714Y-94238095D01*
X136238095Y-94380952D01*
X135666666Y-94952380D01*
X136285714Y-94952380D01*
X165904761Y-132197619D02*
X165809523Y-132150000D01*
X165714285Y-132054761D01*
X165571428Y-131911904D01*
X165476190Y-131864285D01*
X165380952Y-131864285D01*
X165428571Y-132102380D02*
X165333333Y-132054761D01*
X165238095Y-131959523D01*
X165190476Y-131769047D01*
X165190476Y-131435714D01*
X165238095Y-131245238D01*
X165333333Y-131150000D01*
X165428571Y-131102380D01*
X165619047Y-131102380D01*
X165714285Y-131150000D01*
X165809523Y-131245238D01*
X165857142Y-131435714D01*
X165857142Y-131769047D01*
X165809523Y-131959523D01*
X165714285Y-132054761D01*
X165619047Y-132102380D01*
X165428571Y-132102380D01*
X166714285Y-131102380D02*
X166523809Y-131102380D01*
X166428571Y-131150000D01*
X166380952Y-131197619D01*
X166285714Y-131340476D01*
X166238095Y-131530952D01*
X166238095Y-131911904D01*
X166285714Y-132007142D01*
X166333333Y-132054761D01*
X166428571Y-132102380D01*
X166619047Y-132102380D01*
X166714285Y-132054761D01*
X166761904Y-132007142D01*
X166809523Y-131911904D01*
X166809523Y-131673809D01*
X166761904Y-131578571D01*
X166714285Y-131530952D01*
X166619047Y-131483333D01*
X166428571Y-131483333D01*
X166333333Y-131530952D01*
X166285714Y-131578571D01*
X166238095Y-131673809D01*
X165904761Y-64897619D02*
X165809523Y-64850000D01*
X165714285Y-64754761D01*
X165571428Y-64611904D01*
X165476190Y-64564285D01*
X165380952Y-64564285D01*
X165428571Y-64802380D02*
X165333333Y-64754761D01*
X165238095Y-64659523D01*
X165190476Y-64469047D01*
X165190476Y-64135714D01*
X165238095Y-63945238D01*
X165333333Y-63850000D01*
X165428571Y-63802380D01*
X165619047Y-63802380D01*
X165714285Y-63850000D01*
X165809523Y-63945238D01*
X165857142Y-64135714D01*
X165857142Y-64469047D01*
X165809523Y-64659523D01*
X165714285Y-64754761D01*
X165619047Y-64802380D01*
X165428571Y-64802380D01*
X166761904Y-63802380D02*
X166285714Y-63802380D01*
X166238095Y-64278571D01*
X166285714Y-64230952D01*
X166380952Y-64183333D01*
X166619047Y-64183333D01*
X166714285Y-64230952D01*
X166761904Y-64278571D01*
X166809523Y-64373809D01*
X166809523Y-64611904D01*
X166761904Y-64707142D01*
X166714285Y-64754761D01*
X166619047Y-64802380D01*
X166380952Y-64802380D01*
X166285714Y-64754761D01*
X166238095Y-64707142D01*
X146904761Y-132197619D02*
X146809523Y-132150000D01*
X146714285Y-132054761D01*
X146571428Y-131911904D01*
X146476190Y-131864285D01*
X146380952Y-131864285D01*
X146428571Y-132102380D02*
X146333333Y-132054761D01*
X146238095Y-131959523D01*
X146190476Y-131769047D01*
X146190476Y-131435714D01*
X146238095Y-131245238D01*
X146333333Y-131150000D01*
X146428571Y-131102380D01*
X146619047Y-131102380D01*
X146714285Y-131150000D01*
X146809523Y-131245238D01*
X146857142Y-131435714D01*
X146857142Y-131769047D01*
X146809523Y-131959523D01*
X146714285Y-132054761D01*
X146619047Y-132102380D01*
X146428571Y-132102380D01*
X147714285Y-131435714D02*
X147714285Y-132102380D01*
X147476190Y-131054761D02*
X147238095Y-131769047D01*
X147857142Y-131769047D01*
X146904761Y-64897619D02*
X146809523Y-64850000D01*
X146714285Y-64754761D01*
X146571428Y-64611904D01*
X146476190Y-64564285D01*
X146380952Y-64564285D01*
X146428571Y-64802380D02*
X146333333Y-64754761D01*
X146238095Y-64659523D01*
X146190476Y-64469047D01*
X146190476Y-64135714D01*
X146238095Y-63945238D01*
X146333333Y-63850000D01*
X146428571Y-63802380D01*
X146619047Y-63802380D01*
X146714285Y-63850000D01*
X146809523Y-63945238D01*
X146857142Y-64135714D01*
X146857142Y-64469047D01*
X146809523Y-64659523D01*
X146714285Y-64754761D01*
X146619047Y-64802380D01*
X146428571Y-64802380D01*
X147190476Y-63802380D02*
X147809523Y-63802380D01*
X147476190Y-64183333D01*
X147619047Y-64183333D01*
X147714285Y-64230952D01*
X147761904Y-64278571D01*
X147809523Y-64373809D01*
X147809523Y-64611904D01*
X147761904Y-64707142D01*
X147714285Y-64754761D01*
X147619047Y-64802380D01*
X147333333Y-64802380D01*
X147238095Y-64754761D01*
X147190476Y-64707142D01*
X127904761Y-132197619D02*
X127809523Y-132150000D01*
X127714285Y-132054761D01*
X127571428Y-131911904D01*
X127476190Y-131864285D01*
X127380952Y-131864285D01*
X127428571Y-132102380D02*
X127333333Y-132054761D01*
X127238095Y-131959523D01*
X127190476Y-131769047D01*
X127190476Y-131435714D01*
X127238095Y-131245238D01*
X127333333Y-131150000D01*
X127428571Y-131102380D01*
X127619047Y-131102380D01*
X127714285Y-131150000D01*
X127809523Y-131245238D01*
X127857142Y-131435714D01*
X127857142Y-131769047D01*
X127809523Y-131959523D01*
X127714285Y-132054761D01*
X127619047Y-132102380D01*
X127428571Y-132102380D01*
X128238095Y-131197619D02*
X128285714Y-131150000D01*
X128380952Y-131102380D01*
X128619047Y-131102380D01*
X128714285Y-131150000D01*
X128761904Y-131197619D01*
X128809523Y-131292857D01*
X128809523Y-131388095D01*
X128761904Y-131530952D01*
X128190476Y-132102380D01*
X128809523Y-132102380D01*
X127904761Y-64897619D02*
X127809523Y-64850000D01*
X127714285Y-64754761D01*
X127571428Y-64611904D01*
X127476190Y-64564285D01*
X127380952Y-64564285D01*
X127428571Y-64802380D02*
X127333333Y-64754761D01*
X127238095Y-64659523D01*
X127190476Y-64469047D01*
X127190476Y-64135714D01*
X127238095Y-63945238D01*
X127333333Y-63850000D01*
X127428571Y-63802380D01*
X127619047Y-63802380D01*
X127714285Y-63850000D01*
X127809523Y-63945238D01*
X127857142Y-64135714D01*
X127857142Y-64469047D01*
X127809523Y-64659523D01*
X127714285Y-64754761D01*
X127619047Y-64802380D01*
X127428571Y-64802380D01*
X128809523Y-64802380D02*
X128238095Y-64802380D01*
X128523809Y-64802380D02*
X128523809Y-63802380D01*
X128428571Y-63945238D01*
X128333333Y-64040476D01*
X128238095Y-64088095D01*
D11*
X159150000Y-141190000D02*
X159150000Y-141390000D01*
X158300000Y-145500000D02*
X163200000Y-145500000D01*
X163200000Y-145500000D02*
X163200000Y-142000000D01*
X157690000Y-144000000D02*
X158300000Y-144000000D01*
X160850000Y-145000000D02*
X160850000Y-145500000D01*
X160250000Y-141390000D02*
X160250000Y-142000000D01*
X158300000Y-142000000D02*
X158300000Y-145500000D01*
X159450000Y-141390000D02*
X159450000Y-141190000D01*
X157690000Y-141390000D02*
X157690000Y-146110000D01*
X163810000Y-141390000D02*
X157690000Y-141390000D01*
X160250000Y-142000000D02*
X158300000Y-142000000D01*
X163810000Y-144000000D02*
X163200000Y-144000000D01*
X163200000Y-142000000D02*
X161250000Y-142000000D01*
X157690000Y-142700000D02*
X158300000Y-142700000D01*
X160750000Y-145500000D02*
X160750000Y-145000000D01*
X160650000Y-145000000D02*
X160850000Y-145000000D01*
X163810000Y-146110000D02*
X163810000Y-141390000D01*
X159450000Y-141290000D02*
X159150000Y-141290000D01*
X161250000Y-142000000D02*
X161250000Y-141390000D01*
X157390000Y-141090000D02*
X157390000Y-142340000D01*
X158640000Y-141090000D02*
X157390000Y-141090000D01*
X157690000Y-146110000D02*
X163810000Y-146110000D01*
X163810000Y-142700000D02*
X163200000Y-142700000D01*
X159450000Y-141190000D02*
X159150000Y-141190000D01*
X160650000Y-145500000D02*
X160650000Y-145000000D01*
X162350000Y-54060000D02*
X162350000Y-53860000D01*
X163200000Y-49750000D02*
X158300000Y-49750000D01*
X158300000Y-49750000D02*
X158300000Y-53250000D01*
X163810000Y-51250000D02*
X163200000Y-51250000D01*
X160650000Y-50250000D02*
X160650000Y-49750000D01*
X161250000Y-53860000D02*
X161250000Y-53250000D01*
X163200000Y-53250000D02*
X163200000Y-49750000D01*
X162050000Y-53860000D02*
X162050000Y-54060000D01*
X163810000Y-53860000D02*
X163810000Y-49140000D01*
X157690000Y-53860000D02*
X163810000Y-53860000D01*
X161250000Y-53250000D02*
X163200000Y-53250000D01*
X157690000Y-51250000D02*
X158300000Y-51250000D01*
X158300000Y-53250000D02*
X160250000Y-53250000D01*
X163810000Y-52550000D02*
X163200000Y-52550000D01*
X160750000Y-49750000D02*
X160750000Y-50250000D01*
X160850000Y-50250000D02*
X160650000Y-50250000D01*
X157690000Y-49140000D02*
X157690000Y-53860000D01*
X162050000Y-53960000D02*
X162350000Y-53960000D01*
X160250000Y-53250000D02*
X160250000Y-53860000D01*
X164110000Y-54160000D02*
X164110000Y-52910000D01*
X162860000Y-54160000D02*
X164110000Y-54160000D01*
X163810000Y-49140000D02*
X157690000Y-49140000D01*
X157690000Y-52550000D02*
X158300000Y-52550000D01*
X162050000Y-54060000D02*
X162350000Y-54060000D01*
X160850000Y-49750000D02*
X160850000Y-50250000D01*
X166400000Y-141190000D02*
X166400000Y-141390000D01*
X165550000Y-145500000D02*
X170450000Y-145500000D01*
X170450000Y-145500000D02*
X170450000Y-142000000D01*
X164940000Y-144000000D02*
X165550000Y-144000000D01*
X168100000Y-145000000D02*
X168100000Y-145500000D01*
X167500000Y-141390000D02*
X167500000Y-142000000D01*
X165550000Y-142000000D02*
X165550000Y-145500000D01*
X166700000Y-141390000D02*
X166700000Y-141190000D01*
X164940000Y-141390000D02*
X164940000Y-146110000D01*
X171060000Y-141390000D02*
X164940000Y-141390000D01*
X167500000Y-142000000D02*
X165550000Y-142000000D01*
X171060000Y-144000000D02*
X170450000Y-144000000D01*
X170450000Y-142000000D02*
X168500000Y-142000000D01*
X164940000Y-142700000D02*
X165550000Y-142700000D01*
X168000000Y-145500000D02*
X168000000Y-145000000D01*
X167900000Y-145000000D02*
X168100000Y-145000000D01*
X171060000Y-146110000D02*
X171060000Y-141390000D01*
X166700000Y-141290000D02*
X166400000Y-141290000D01*
X168500000Y-142000000D02*
X168500000Y-141390000D01*
X164640000Y-141090000D02*
X164640000Y-142340000D01*
X165890000Y-141090000D02*
X164640000Y-141090000D01*
X164940000Y-146110000D02*
X171060000Y-146110000D01*
X171060000Y-142700000D02*
X170450000Y-142700000D01*
X166700000Y-141190000D02*
X166400000Y-141190000D01*
X167900000Y-145500000D02*
X167900000Y-145000000D01*
X169600000Y-54060000D02*
X169600000Y-53860000D01*
X170450000Y-49750000D02*
X165550000Y-49750000D01*
X165550000Y-49750000D02*
X165550000Y-53250000D01*
X171060000Y-51250000D02*
X170450000Y-51250000D01*
X167900000Y-50250000D02*
X167900000Y-49750000D01*
X168500000Y-53860000D02*
X168500000Y-53250000D01*
X170450000Y-53250000D02*
X170450000Y-49750000D01*
X169300000Y-53860000D02*
X169300000Y-54060000D01*
X171060000Y-53860000D02*
X171060000Y-49140000D01*
X164940000Y-53860000D02*
X171060000Y-53860000D01*
X168500000Y-53250000D02*
X170450000Y-53250000D01*
X164940000Y-51250000D02*
X165550000Y-51250000D01*
X165550000Y-53250000D02*
X167500000Y-53250000D01*
X171060000Y-52550000D02*
X170450000Y-52550000D01*
X168000000Y-49750000D02*
X168000000Y-50250000D01*
X168100000Y-50250000D02*
X167900000Y-50250000D01*
X164940000Y-49140000D02*
X164940000Y-53860000D01*
X169300000Y-53960000D02*
X169600000Y-53960000D01*
X167500000Y-53250000D02*
X167500000Y-53860000D01*
X171360000Y-54160000D02*
X171360000Y-52910000D01*
X170110000Y-54160000D02*
X171360000Y-54160000D01*
X171060000Y-49140000D02*
X164940000Y-49140000D01*
X164940000Y-52550000D02*
X165550000Y-52550000D01*
X169300000Y-54060000D02*
X169600000Y-54060000D01*
X168100000Y-49750000D02*
X168100000Y-50250000D01*
X193560000Y-77900000D02*
X193360000Y-77900000D01*
X189250000Y-77050000D02*
X189250000Y-81950000D01*
X189250000Y-81950000D02*
X192750000Y-81950000D01*
X190750000Y-76440000D02*
X190750000Y-77050000D01*
X189750000Y-79600000D02*
X189250000Y-79600000D01*
X193360000Y-79000000D02*
X192750000Y-79000000D01*
X192750000Y-77050000D02*
X189250000Y-77050000D01*
X193360000Y-78200000D02*
X193560000Y-78200000D01*
X193360000Y-76440000D02*
X188640000Y-76440000D01*
X193360000Y-82560000D02*
X193360000Y-76440000D01*
X192750000Y-79000000D02*
X192750000Y-77050000D01*
X190750000Y-82560000D02*
X190750000Y-81950000D01*
X192750000Y-81950000D02*
X192750000Y-80000000D01*
X192050000Y-76440000D02*
X192050000Y-77050000D01*
X189250000Y-79500000D02*
X189750000Y-79500000D01*
X189750000Y-79400000D02*
X189750000Y-79600000D01*
X188640000Y-82560000D02*
X193360000Y-82560000D01*
X193460000Y-78200000D02*
X193460000Y-77900000D01*
X192750000Y-80000000D02*
X193360000Y-80000000D01*
X193660000Y-76140000D02*
X192410000Y-76140000D01*
X193660000Y-77390000D02*
X193660000Y-76140000D01*
X188640000Y-76440000D02*
X188640000Y-82560000D01*
X192050000Y-82560000D02*
X192050000Y-81950000D01*
X193560000Y-78200000D02*
X193560000Y-77900000D01*
X189250000Y-79400000D02*
X189750000Y-79400000D01*
X173650000Y-141190000D02*
X173650000Y-141390000D01*
X172800000Y-145500000D02*
X177700000Y-145500000D01*
X177700000Y-145500000D02*
X177700000Y-142000000D01*
X172190000Y-144000000D02*
X172800000Y-144000000D01*
X175350000Y-145000000D02*
X175350000Y-145500000D01*
X174750000Y-141390000D02*
X174750000Y-142000000D01*
X172800000Y-142000000D02*
X172800000Y-145500000D01*
X173950000Y-141390000D02*
X173950000Y-141190000D01*
X172190000Y-141390000D02*
X172190000Y-146110000D01*
X178310000Y-141390000D02*
X172190000Y-141390000D01*
X174750000Y-142000000D02*
X172800000Y-142000000D01*
X178310000Y-144000000D02*
X177700000Y-144000000D01*
X177700000Y-142000000D02*
X175750000Y-142000000D01*
X172190000Y-142700000D02*
X172800000Y-142700000D01*
X175250000Y-145500000D02*
X175250000Y-145000000D01*
X175150000Y-145000000D02*
X175350000Y-145000000D01*
X178310000Y-146110000D02*
X178310000Y-141390000D01*
X173950000Y-141290000D02*
X173650000Y-141290000D01*
X175750000Y-142000000D02*
X175750000Y-141390000D01*
X171890000Y-141090000D02*
X171890000Y-142340000D01*
X173140000Y-141090000D02*
X171890000Y-141090000D01*
X172190000Y-146110000D02*
X178310000Y-146110000D01*
X178310000Y-142700000D02*
X177700000Y-142700000D01*
X173950000Y-141190000D02*
X173650000Y-141190000D01*
X175150000Y-145500000D02*
X175150000Y-145000000D01*
X176850000Y-54010000D02*
X176850000Y-53810000D01*
X177700000Y-49700000D02*
X172800000Y-49700000D01*
X172800000Y-49700000D02*
X172800000Y-53200000D01*
X178310000Y-51200000D02*
X177700000Y-51200000D01*
X175150000Y-50200000D02*
X175150000Y-49700000D01*
X175750000Y-53810000D02*
X175750000Y-53200000D01*
X177700000Y-53200000D02*
X177700000Y-49700000D01*
X176550000Y-53810000D02*
X176550000Y-54010000D01*
X178310000Y-53810000D02*
X178310000Y-49090000D01*
X172190000Y-53810000D02*
X178310000Y-53810000D01*
X175750000Y-53200000D02*
X177700000Y-53200000D01*
X172190000Y-51200000D02*
X172800000Y-51200000D01*
X172800000Y-53200000D02*
X174750000Y-53200000D01*
X178310000Y-52500000D02*
X177700000Y-52500000D01*
X175250000Y-49700000D02*
X175250000Y-50200000D01*
X175350000Y-50200000D02*
X175150000Y-50200000D01*
X172190000Y-49090000D02*
X172190000Y-53810000D01*
X176550000Y-53910000D02*
X176850000Y-53910000D01*
X174750000Y-53200000D02*
X174750000Y-53810000D01*
X178610000Y-54110000D02*
X178610000Y-52860000D01*
X177360000Y-54110000D02*
X178610000Y-54110000D01*
X178310000Y-49090000D02*
X172190000Y-49090000D01*
X172190000Y-52500000D02*
X172800000Y-52500000D01*
X176550000Y-54010000D02*
X176850000Y-54010000D01*
X175350000Y-49700000D02*
X175350000Y-50200000D01*
X185410000Y-97272936D02*
X185410000Y-98727064D01*
X183590000Y-97272936D02*
X183590000Y-98727064D01*
X122792500Y-50590000D02*
X123992500Y-50590000D01*
X123992500Y-50590000D02*
X123992500Y-57610000D01*
X113152500Y-50590000D02*
X113152500Y-48890000D01*
X111752500Y-52700000D02*
X111152500Y-53000000D01*
X111152500Y-53000000D02*
X111152500Y-52400000D01*
X113152500Y-48890000D02*
X122792500Y-48890000D01*
X123992500Y-57610000D02*
X111952500Y-57610000D01*
X111952500Y-57610000D02*
X111952500Y-50590000D01*
X111952500Y-50590000D02*
X113152500Y-50590000D01*
X122792500Y-48890000D02*
X122792500Y-50590000D01*
X111152500Y-52400000D02*
X111752500Y-52700000D01*
X108252323Y-129500000D02*
G75*
G03*
X108252323Y-129500000I-5120000J0D01*
G01*
X103732323Y-124455000D02*
X103732323Y-134545000D01*
X103132323Y-124420000D02*
X103132323Y-134580000D01*
X105733323Y-130741000D02*
X105733323Y-133871000D01*
X106053323Y-130741000D02*
X106053323Y-133666000D01*
X105853323Y-130741000D02*
X105853323Y-133798000D01*
X105573323Y-125038000D02*
X105573323Y-128259000D01*
X105773323Y-130741000D02*
X105773323Y-133847000D01*
X105173323Y-130741000D02*
X105173323Y-134157000D01*
X107373323Y-126670000D02*
X107373323Y-132330000D01*
X106173323Y-125420000D02*
X106173323Y-128259000D01*
X105093323Y-124810000D02*
X105093323Y-128259000D01*
X104533323Y-124615000D02*
X104533323Y-128259000D01*
X108173323Y-128638000D02*
X108173323Y-130362000D01*
X104493323Y-124603000D02*
X104493323Y-128259000D01*
X106733323Y-125899000D02*
X106733323Y-128259000D01*
X104813323Y-124703000D02*
X104813323Y-128259000D01*
X107853323Y-127556000D02*
X107853323Y-131444000D01*
X103492323Y-124432000D02*
X103492323Y-134568000D01*
X103692323Y-124450000D02*
X103692323Y-134550000D01*
X107133323Y-126344000D02*
X107133323Y-132656000D01*
X105453323Y-130741000D02*
X105453323Y-134025000D01*
X105213323Y-124861000D02*
X105213323Y-128259000D01*
X106773323Y-130741000D02*
X106773323Y-133061000D01*
X106293323Y-130741000D02*
X106293323Y-133489000D01*
X105853323Y-125202000D02*
X105853323Y-128259000D01*
X106613323Y-125784000D02*
X106613323Y-128259000D01*
X103812323Y-124465000D02*
X103812323Y-134535000D01*
X104493323Y-130741000D02*
X104493323Y-134397000D01*
X105493323Y-124996000D02*
X105493323Y-128259000D01*
X104773323Y-124689000D02*
X104773323Y-128259000D01*
X105933323Y-130741000D02*
X105933323Y-133747000D01*
X106413323Y-130741000D02*
X106413323Y-133392000D01*
X107733323Y-127291000D02*
X107733323Y-131709000D01*
X104013323Y-124496000D02*
X104013323Y-134504000D01*
X104573323Y-124626000D02*
X104573323Y-128259000D01*
X103332323Y-124423000D02*
X103332323Y-134577000D01*
X106613323Y-130741000D02*
X106613323Y-133216000D01*
X104253323Y-124544000D02*
X104253323Y-134456000D01*
X103652323Y-124446000D02*
X103652323Y-134554000D01*
X105653323Y-130741000D02*
X105653323Y-133917000D01*
X104853323Y-124717000D02*
X104853323Y-128259000D01*
X104693323Y-130741000D02*
X104693323Y-134337000D01*
X105173323Y-124843000D02*
X105173323Y-128259000D01*
X106653323Y-130741000D02*
X106653323Y-133179000D01*
X106453323Y-125642000D02*
X106453323Y-128259000D01*
X105613323Y-130741000D02*
X105613323Y-133940000D01*
X104973323Y-124762000D02*
X104973323Y-128259000D01*
X104533323Y-130741000D02*
X104533323Y-134385000D01*
X106973323Y-126153000D02*
X106973323Y-132847000D01*
X104733323Y-124676000D02*
X104733323Y-128259000D01*
X106373323Y-125575000D02*
X106373323Y-128259000D01*
X104173323Y-124526000D02*
X104173323Y-134474000D01*
X106213323Y-130741000D02*
X106213323Y-133550000D01*
X105413323Y-124955000D02*
X105413323Y-128259000D01*
X106493323Y-130741000D02*
X106493323Y-133324000D01*
X105893323Y-130741000D02*
X105893323Y-133773000D01*
X107053323Y-126246000D02*
X107053323Y-132754000D01*
X107013323Y-126199000D02*
X107013323Y-132801000D01*
X106493323Y-125676000D02*
X106493323Y-128259000D01*
X103412323Y-124427000D02*
X103412323Y-134573000D01*
X105693323Y-130741000D02*
X105693323Y-133895000D01*
X107573323Y-126990000D02*
X107573323Y-132010000D01*
X105773323Y-125153000D02*
X105773323Y-128259000D01*
X104773323Y-130741000D02*
X104773323Y-134311000D01*
X103532323Y-124435000D02*
X103532323Y-134565000D01*
X107173323Y-126394000D02*
X107173323Y-132606000D01*
X106333323Y-130741000D02*
X106333323Y-133457000D01*
X105093323Y-130741000D02*
X105093323Y-134190000D01*
X105573323Y-130741000D02*
X105573323Y-133962000D01*
X103372323Y-124425000D02*
X103372323Y-134575000D01*
X104413323Y-124582000D02*
X104413323Y-128259000D01*
X107533323Y-126921000D02*
X107533323Y-132079000D01*
X106533323Y-130741000D02*
X106533323Y-133289000D01*
X98152677Y-126125000D02*
X98152677Y-127125000D01*
X103292323Y-124422000D02*
X103292323Y-134578000D01*
X105333323Y-124916000D02*
X105333323Y-128259000D01*
X104373323Y-124572000D02*
X104373323Y-134428000D01*
X105413323Y-130741000D02*
X105413323Y-134045000D01*
X106693323Y-130741000D02*
X106693323Y-133140000D01*
X105733323Y-125129000D02*
X105733323Y-128259000D01*
X106693323Y-125860000D02*
X106693323Y-128259000D01*
X106573323Y-125747000D02*
X106573323Y-128259000D01*
X104933323Y-130741000D02*
X104933323Y-134254000D01*
X104973323Y-130741000D02*
X104973323Y-134238000D01*
X105253323Y-130741000D02*
X105253323Y-134121000D01*
X107293323Y-126555000D02*
X107293323Y-132445000D01*
X107653323Y-127135000D02*
X107653323Y-131865000D01*
X105693323Y-125105000D02*
X105693323Y-128259000D01*
X105533323Y-125017000D02*
X105533323Y-128259000D01*
X107213323Y-126446000D02*
X107213323Y-132554000D01*
X106133323Y-125390000D02*
X106133323Y-128259000D01*
X106813323Y-130741000D02*
X106813323Y-133020000D01*
X105373323Y-124936000D02*
X105373323Y-128259000D01*
X105813323Y-130741000D02*
X105813323Y-133823000D01*
X105933323Y-125253000D02*
X105933323Y-128259000D01*
X105053323Y-124793000D02*
X105053323Y-128259000D01*
X105613323Y-125060000D02*
X105613323Y-128259000D01*
X108213323Y-128901000D02*
X108213323Y-130099000D01*
X104453323Y-130741000D02*
X104453323Y-134407000D01*
X103933323Y-124482000D02*
X103933323Y-134518000D01*
X106853323Y-130741000D02*
X106853323Y-132978000D01*
X104573323Y-130741000D02*
X104573323Y-134374000D01*
X105373323Y-130741000D02*
X105373323Y-134064000D01*
X106173323Y-130741000D02*
X106173323Y-133580000D01*
X106213323Y-125450000D02*
X106213323Y-128259000D01*
X106133323Y-130741000D02*
X106133323Y-133610000D01*
X103893323Y-124476000D02*
X103893323Y-134524000D01*
X108133323Y-128438000D02*
X108133323Y-130562000D01*
X103252323Y-124421000D02*
X103252323Y-134579000D01*
X106413323Y-125608000D02*
X106413323Y-128259000D01*
X106773323Y-125939000D02*
X106773323Y-128259000D01*
X105653323Y-125083000D02*
X105653323Y-128259000D01*
X107333323Y-126611000D02*
X107333323Y-132389000D01*
X106013323Y-130741000D02*
X106013323Y-133694000D01*
X103973323Y-124489000D02*
X103973323Y-134511000D01*
X105973323Y-130741000D02*
X105973323Y-133721000D01*
X104133323Y-124518000D02*
X104133323Y-134482000D01*
X104853323Y-130741000D02*
X104853323Y-134283000D01*
X106893323Y-126064000D02*
X106893323Y-132936000D01*
X105013323Y-130741000D02*
X105013323Y-134223000D01*
X103212323Y-124420000D02*
X103212323Y-134580000D01*
X106093323Y-125362000D02*
X106093323Y-128259000D01*
X105053323Y-130741000D02*
X105053323Y-134207000D01*
X104333323Y-124562000D02*
X104333323Y-134438000D01*
X105813323Y-125177000D02*
X105813323Y-128259000D01*
X107493323Y-126855000D02*
X107493323Y-132145000D01*
X106333323Y-125543000D02*
X106333323Y-128259000D01*
X104693323Y-124663000D02*
X104693323Y-128259000D01*
X107253323Y-126500000D02*
X107253323Y-132500000D01*
X103612323Y-124442000D02*
X103612323Y-134558000D01*
X107973323Y-127870000D02*
X107973323Y-131130000D01*
X105893323Y-125227000D02*
X105893323Y-128259000D01*
X107453323Y-126791000D02*
X107453323Y-132209000D01*
X103772323Y-124460000D02*
X103772323Y-134540000D01*
X106653323Y-125821000D02*
X106653323Y-128259000D01*
X105333323Y-130741000D02*
X105333323Y-134084000D01*
X105533323Y-130741000D02*
X105533323Y-133983000D01*
X104893323Y-130741000D02*
X104893323Y-134268000D01*
X104933323Y-124746000D02*
X104933323Y-128259000D01*
X106253323Y-125480000D02*
X106253323Y-128259000D01*
X107773323Y-127375000D02*
X107773323Y-131625000D01*
X104093323Y-124510000D02*
X104093323Y-134490000D01*
X104413323Y-130741000D02*
X104413323Y-134418000D01*
X107413323Y-126730000D02*
X107413323Y-132270000D01*
X107933323Y-127758000D02*
X107933323Y-131242000D01*
X106573323Y-130741000D02*
X106573323Y-133253000D01*
X106533323Y-125711000D02*
X106533323Y-128259000D01*
X105293323Y-130741000D02*
X105293323Y-134103000D01*
X104293323Y-124553000D02*
X104293323Y-134447000D01*
X106453323Y-130741000D02*
X106453323Y-133358000D01*
X104813323Y-130741000D02*
X104813323Y-134297000D01*
X103853323Y-124470000D02*
X103853323Y-134530000D01*
X105453323Y-124975000D02*
X105453323Y-128259000D01*
X106813323Y-125980000D02*
X106813323Y-128259000D01*
X108053323Y-128122000D02*
X108053323Y-130878000D01*
X104213323Y-124535000D02*
X104213323Y-134465000D01*
X104053323Y-124503000D02*
X104053323Y-134497000D01*
X105013323Y-124777000D02*
X105013323Y-128259000D01*
X104653323Y-130741000D02*
X104653323Y-134350000D01*
X106933323Y-126108000D02*
X106933323Y-132892000D01*
X106013323Y-125306000D02*
X106013323Y-128259000D01*
X108093323Y-128270000D02*
X108093323Y-130730000D01*
X105133323Y-124826000D02*
X105133323Y-128259000D01*
X97652677Y-126625000D02*
X98652677Y-126625000D01*
X105253323Y-124879000D02*
X105253323Y-128259000D01*
X103172323Y-124420000D02*
X103172323Y-134580000D01*
X105293323Y-124897000D02*
X105293323Y-128259000D01*
X104653323Y-124650000D02*
X104653323Y-128259000D01*
X107613323Y-127061000D02*
X107613323Y-131939000D01*
X106093323Y-130741000D02*
X106093323Y-133638000D01*
X105213323Y-130741000D02*
X105213323Y-134139000D01*
X105973323Y-125279000D02*
X105973323Y-128259000D01*
X107093323Y-126294000D02*
X107093323Y-132706000D01*
X106253323Y-130741000D02*
X106253323Y-133520000D01*
X104733323Y-130741000D02*
X104733323Y-134324000D01*
X103452323Y-124430000D02*
X103452323Y-134570000D01*
X106053323Y-125334000D02*
X106053323Y-128259000D01*
X106733323Y-130741000D02*
X106733323Y-133101000D01*
X107893323Y-127654000D02*
X107893323Y-131346000D01*
X107813323Y-127463000D02*
X107813323Y-131537000D01*
X104453323Y-124593000D02*
X104453323Y-128259000D01*
X104613323Y-124638000D02*
X104613323Y-128259000D01*
X104613323Y-130741000D02*
X104613323Y-134362000D01*
X103572323Y-124438000D02*
X103572323Y-134562000D01*
X108013323Y-127990000D02*
X108013323Y-131010000D01*
X106373323Y-130741000D02*
X106373323Y-133425000D01*
X107693323Y-127211000D02*
X107693323Y-131789000D01*
X104893323Y-124732000D02*
X104893323Y-128259000D01*
X106293323Y-125511000D02*
X106293323Y-128259000D01*
X105133323Y-130741000D02*
X105133323Y-134174000D01*
X106853323Y-126022000D02*
X106853323Y-128259000D01*
X105493323Y-130741000D02*
X105493323Y-134004000D01*
X108252323Y-117000000D02*
G75*
G03*
X108252323Y-117000000I-5120000J0D01*
G01*
X103732323Y-111955000D02*
X103732323Y-122045000D01*
X103132323Y-111920000D02*
X103132323Y-122080000D01*
X105733323Y-118241000D02*
X105733323Y-121371000D01*
X106053323Y-118241000D02*
X106053323Y-121166000D01*
X105853323Y-118241000D02*
X105853323Y-121298000D01*
X105573323Y-112538000D02*
X105573323Y-115759000D01*
X105773323Y-118241000D02*
X105773323Y-121347000D01*
X105173323Y-118241000D02*
X105173323Y-121657000D01*
X107373323Y-114170000D02*
X107373323Y-119830000D01*
X106173323Y-112920000D02*
X106173323Y-115759000D01*
X105093323Y-112310000D02*
X105093323Y-115759000D01*
X104533323Y-112115000D02*
X104533323Y-115759000D01*
X108173323Y-116138000D02*
X108173323Y-117862000D01*
X104493323Y-112103000D02*
X104493323Y-115759000D01*
X106733323Y-113399000D02*
X106733323Y-115759000D01*
X104813323Y-112203000D02*
X104813323Y-115759000D01*
X107853323Y-115056000D02*
X107853323Y-118944000D01*
X103492323Y-111932000D02*
X103492323Y-122068000D01*
X103692323Y-111950000D02*
X103692323Y-122050000D01*
X107133323Y-113844000D02*
X107133323Y-120156000D01*
X105453323Y-118241000D02*
X105453323Y-121525000D01*
X105213323Y-112361000D02*
X105213323Y-115759000D01*
X106773323Y-118241000D02*
X106773323Y-120561000D01*
X106293323Y-118241000D02*
X106293323Y-120989000D01*
X105853323Y-112702000D02*
X105853323Y-115759000D01*
X106613323Y-113284000D02*
X106613323Y-115759000D01*
X103812323Y-111965000D02*
X103812323Y-122035000D01*
X104493323Y-118241000D02*
X104493323Y-121897000D01*
X105493323Y-112496000D02*
X105493323Y-115759000D01*
X104773323Y-112189000D02*
X104773323Y-115759000D01*
X105933323Y-118241000D02*
X105933323Y-121247000D01*
X106413323Y-118241000D02*
X106413323Y-120892000D01*
X107733323Y-114791000D02*
X107733323Y-119209000D01*
X104013323Y-111996000D02*
X104013323Y-122004000D01*
X104573323Y-112126000D02*
X104573323Y-115759000D01*
X103332323Y-111923000D02*
X103332323Y-122077000D01*
X106613323Y-118241000D02*
X106613323Y-120716000D01*
X104253323Y-112044000D02*
X104253323Y-121956000D01*
X103652323Y-111946000D02*
X103652323Y-122054000D01*
X105653323Y-118241000D02*
X105653323Y-121417000D01*
X104853323Y-112217000D02*
X104853323Y-115759000D01*
X104693323Y-118241000D02*
X104693323Y-121837000D01*
X105173323Y-112343000D02*
X105173323Y-115759000D01*
X106653323Y-118241000D02*
X106653323Y-120679000D01*
X106453323Y-113142000D02*
X106453323Y-115759000D01*
X105613323Y-118241000D02*
X105613323Y-121440000D01*
X104973323Y-112262000D02*
X104973323Y-115759000D01*
X104533323Y-118241000D02*
X104533323Y-121885000D01*
X106973323Y-113653000D02*
X106973323Y-120347000D01*
X104733323Y-112176000D02*
X104733323Y-115759000D01*
X106373323Y-113075000D02*
X106373323Y-115759000D01*
X104173323Y-112026000D02*
X104173323Y-121974000D01*
X106213323Y-118241000D02*
X106213323Y-121050000D01*
X105413323Y-112455000D02*
X105413323Y-115759000D01*
X106493323Y-118241000D02*
X106493323Y-120824000D01*
X105893323Y-118241000D02*
X105893323Y-121273000D01*
X107053323Y-113746000D02*
X107053323Y-120254000D01*
X107013323Y-113699000D02*
X107013323Y-120301000D01*
X106493323Y-113176000D02*
X106493323Y-115759000D01*
X103412323Y-111927000D02*
X103412323Y-122073000D01*
X105693323Y-118241000D02*
X105693323Y-121395000D01*
X107573323Y-114490000D02*
X107573323Y-119510000D01*
X105773323Y-112653000D02*
X105773323Y-115759000D01*
X104773323Y-118241000D02*
X104773323Y-121811000D01*
X103532323Y-111935000D02*
X103532323Y-122065000D01*
X107173323Y-113894000D02*
X107173323Y-120106000D01*
X106333323Y-118241000D02*
X106333323Y-120957000D01*
X105093323Y-118241000D02*
X105093323Y-121690000D01*
X105573323Y-118241000D02*
X105573323Y-121462000D01*
X103372323Y-111925000D02*
X103372323Y-122075000D01*
X104413323Y-112082000D02*
X104413323Y-115759000D01*
X107533323Y-114421000D02*
X107533323Y-119579000D01*
X106533323Y-118241000D02*
X106533323Y-120789000D01*
X98152677Y-113625000D02*
X98152677Y-114625000D01*
X103292323Y-111922000D02*
X103292323Y-122078000D01*
X105333323Y-112416000D02*
X105333323Y-115759000D01*
X104373323Y-112072000D02*
X104373323Y-121928000D01*
X105413323Y-118241000D02*
X105413323Y-121545000D01*
X106693323Y-118241000D02*
X106693323Y-120640000D01*
X105733323Y-112629000D02*
X105733323Y-115759000D01*
X106693323Y-113360000D02*
X106693323Y-115759000D01*
X106573323Y-113247000D02*
X106573323Y-115759000D01*
X104933323Y-118241000D02*
X104933323Y-121754000D01*
X104973323Y-118241000D02*
X104973323Y-121738000D01*
X105253323Y-118241000D02*
X105253323Y-121621000D01*
X107293323Y-114055000D02*
X107293323Y-119945000D01*
X107653323Y-114635000D02*
X107653323Y-119365000D01*
X105693323Y-112605000D02*
X105693323Y-115759000D01*
X105533323Y-112517000D02*
X105533323Y-115759000D01*
X107213323Y-113946000D02*
X107213323Y-120054000D01*
X106133323Y-112890000D02*
X106133323Y-115759000D01*
X106813323Y-118241000D02*
X106813323Y-120520000D01*
X105373323Y-112436000D02*
X105373323Y-115759000D01*
X105813323Y-118241000D02*
X105813323Y-121323000D01*
X105933323Y-112753000D02*
X105933323Y-115759000D01*
X105053323Y-112293000D02*
X105053323Y-115759000D01*
X105613323Y-112560000D02*
X105613323Y-115759000D01*
X108213323Y-116401000D02*
X108213323Y-117599000D01*
X104453323Y-118241000D02*
X104453323Y-121907000D01*
X103933323Y-111982000D02*
X103933323Y-122018000D01*
X106853323Y-118241000D02*
X106853323Y-120478000D01*
X104573323Y-118241000D02*
X104573323Y-121874000D01*
X105373323Y-118241000D02*
X105373323Y-121564000D01*
X106173323Y-118241000D02*
X106173323Y-121080000D01*
X106213323Y-112950000D02*
X106213323Y-115759000D01*
X106133323Y-118241000D02*
X106133323Y-121110000D01*
X103893323Y-111976000D02*
X103893323Y-122024000D01*
X108133323Y-115938000D02*
X108133323Y-118062000D01*
X103252323Y-111921000D02*
X103252323Y-122079000D01*
X106413323Y-113108000D02*
X106413323Y-115759000D01*
X106773323Y-113439000D02*
X106773323Y-115759000D01*
X105653323Y-112583000D02*
X105653323Y-115759000D01*
X107333323Y-114111000D02*
X107333323Y-119889000D01*
X106013323Y-118241000D02*
X106013323Y-121194000D01*
X103973323Y-111989000D02*
X103973323Y-122011000D01*
X105973323Y-118241000D02*
X105973323Y-121221000D01*
X104133323Y-112018000D02*
X104133323Y-121982000D01*
X104853323Y-118241000D02*
X104853323Y-121783000D01*
X106893323Y-113564000D02*
X106893323Y-120436000D01*
X105013323Y-118241000D02*
X105013323Y-121723000D01*
X103212323Y-111920000D02*
X103212323Y-122080000D01*
X106093323Y-112862000D02*
X106093323Y-115759000D01*
X105053323Y-118241000D02*
X105053323Y-121707000D01*
X104333323Y-112062000D02*
X104333323Y-121938000D01*
X105813323Y-112677000D02*
X105813323Y-115759000D01*
X107493323Y-114355000D02*
X107493323Y-119645000D01*
X106333323Y-113043000D02*
X106333323Y-115759000D01*
X104693323Y-112163000D02*
X104693323Y-115759000D01*
X107253323Y-114000000D02*
X107253323Y-120000000D01*
X103612323Y-111942000D02*
X103612323Y-122058000D01*
X107973323Y-115370000D02*
X107973323Y-118630000D01*
X105893323Y-112727000D02*
X105893323Y-115759000D01*
X107453323Y-114291000D02*
X107453323Y-119709000D01*
X103772323Y-111960000D02*
X103772323Y-122040000D01*
X106653323Y-113321000D02*
X106653323Y-115759000D01*
X105333323Y-118241000D02*
X105333323Y-121584000D01*
X105533323Y-118241000D02*
X105533323Y-121483000D01*
X104893323Y-118241000D02*
X104893323Y-121768000D01*
X104933323Y-112246000D02*
X104933323Y-115759000D01*
X106253323Y-112980000D02*
X106253323Y-115759000D01*
X107773323Y-114875000D02*
X107773323Y-119125000D01*
X104093323Y-112010000D02*
X104093323Y-121990000D01*
X104413323Y-118241000D02*
X104413323Y-121918000D01*
X107413323Y-114230000D02*
X107413323Y-119770000D01*
X107933323Y-115258000D02*
X107933323Y-118742000D01*
X106573323Y-118241000D02*
X106573323Y-120753000D01*
X106533323Y-113211000D02*
X106533323Y-115759000D01*
X105293323Y-118241000D02*
X105293323Y-121603000D01*
X104293323Y-112053000D02*
X104293323Y-121947000D01*
X106453323Y-118241000D02*
X106453323Y-120858000D01*
X104813323Y-118241000D02*
X104813323Y-121797000D01*
X103853323Y-111970000D02*
X103853323Y-122030000D01*
X105453323Y-112475000D02*
X105453323Y-115759000D01*
X106813323Y-113480000D02*
X106813323Y-115759000D01*
X108053323Y-115622000D02*
X108053323Y-118378000D01*
X104213323Y-112035000D02*
X104213323Y-121965000D01*
X104053323Y-112003000D02*
X104053323Y-121997000D01*
X105013323Y-112277000D02*
X105013323Y-115759000D01*
X104653323Y-118241000D02*
X104653323Y-121850000D01*
X106933323Y-113608000D02*
X106933323Y-120392000D01*
X106013323Y-112806000D02*
X106013323Y-115759000D01*
X108093323Y-115770000D02*
X108093323Y-118230000D01*
X105133323Y-112326000D02*
X105133323Y-115759000D01*
X97652677Y-114125000D02*
X98652677Y-114125000D01*
X105253323Y-112379000D02*
X105253323Y-115759000D01*
X103172323Y-111920000D02*
X103172323Y-122080000D01*
X105293323Y-112397000D02*
X105293323Y-115759000D01*
X104653323Y-112150000D02*
X104653323Y-115759000D01*
X107613323Y-114561000D02*
X107613323Y-119439000D01*
X106093323Y-118241000D02*
X106093323Y-121138000D01*
X105213323Y-118241000D02*
X105213323Y-121639000D01*
X105973323Y-112779000D02*
X105973323Y-115759000D01*
X107093323Y-113794000D02*
X107093323Y-120206000D01*
X106253323Y-118241000D02*
X106253323Y-121020000D01*
X104733323Y-118241000D02*
X104733323Y-121824000D01*
X103452323Y-111930000D02*
X103452323Y-122070000D01*
X106053323Y-112834000D02*
X106053323Y-115759000D01*
X106733323Y-118241000D02*
X106733323Y-120601000D01*
X107893323Y-115154000D02*
X107893323Y-118846000D01*
X107813323Y-114963000D02*
X107813323Y-119037000D01*
X104453323Y-112093000D02*
X104453323Y-115759000D01*
X104613323Y-112138000D02*
X104613323Y-115759000D01*
X104613323Y-118241000D02*
X104613323Y-121862000D01*
X103572323Y-111938000D02*
X103572323Y-122062000D01*
X108013323Y-115490000D02*
X108013323Y-118510000D01*
X106373323Y-118241000D02*
X106373323Y-120925000D01*
X107693323Y-114711000D02*
X107693323Y-119289000D01*
X104893323Y-112232000D02*
X104893323Y-115759000D01*
X106293323Y-113011000D02*
X106293323Y-115759000D01*
X105133323Y-118241000D02*
X105133323Y-121674000D01*
X106853323Y-113522000D02*
X106853323Y-115759000D01*
X105493323Y-118241000D02*
X105493323Y-121504000D01*
X105493323Y-105741000D02*
X105493323Y-109004000D01*
X106853323Y-101022000D02*
X106853323Y-103259000D01*
X105133323Y-105741000D02*
X105133323Y-109174000D01*
X106293323Y-100511000D02*
X106293323Y-103259000D01*
X104893323Y-99732000D02*
X104893323Y-103259000D01*
X107693323Y-102211000D02*
X107693323Y-106789000D01*
X106373323Y-105741000D02*
X106373323Y-108425000D01*
X108013323Y-102990000D02*
X108013323Y-106010000D01*
X103572323Y-99438000D02*
X103572323Y-109562000D01*
X104613323Y-105741000D02*
X104613323Y-109362000D01*
X104613323Y-99638000D02*
X104613323Y-103259000D01*
X104453323Y-99593000D02*
X104453323Y-103259000D01*
X107813323Y-102463000D02*
X107813323Y-106537000D01*
X107893323Y-102654000D02*
X107893323Y-106346000D01*
X106733323Y-105741000D02*
X106733323Y-108101000D01*
X106053323Y-100334000D02*
X106053323Y-103259000D01*
X103452323Y-99430000D02*
X103452323Y-109570000D01*
X104733323Y-105741000D02*
X104733323Y-109324000D01*
X106253323Y-105741000D02*
X106253323Y-108520000D01*
X107093323Y-101294000D02*
X107093323Y-107706000D01*
X105973323Y-100279000D02*
X105973323Y-103259000D01*
X105213323Y-105741000D02*
X105213323Y-109139000D01*
X106093323Y-105741000D02*
X106093323Y-108638000D01*
X107613323Y-102061000D02*
X107613323Y-106939000D01*
X104653323Y-99650000D02*
X104653323Y-103259000D01*
X105293323Y-99897000D02*
X105293323Y-103259000D01*
X103172323Y-99420000D02*
X103172323Y-109580000D01*
X105253323Y-99879000D02*
X105253323Y-103259000D01*
X97652677Y-101625000D02*
X98652677Y-101625000D01*
X105133323Y-99826000D02*
X105133323Y-103259000D01*
X108093323Y-103270000D02*
X108093323Y-105730000D01*
X106013323Y-100306000D02*
X106013323Y-103259000D01*
X106933323Y-101108000D02*
X106933323Y-107892000D01*
X104653323Y-105741000D02*
X104653323Y-109350000D01*
X105013323Y-99777000D02*
X105013323Y-103259000D01*
X104053323Y-99503000D02*
X104053323Y-109497000D01*
X104213323Y-99535000D02*
X104213323Y-109465000D01*
X108053323Y-103122000D02*
X108053323Y-105878000D01*
X106813323Y-100980000D02*
X106813323Y-103259000D01*
X105453323Y-99975000D02*
X105453323Y-103259000D01*
X103853323Y-99470000D02*
X103853323Y-109530000D01*
X104813323Y-105741000D02*
X104813323Y-109297000D01*
X106453323Y-105741000D02*
X106453323Y-108358000D01*
X104293323Y-99553000D02*
X104293323Y-109447000D01*
X105293323Y-105741000D02*
X105293323Y-109103000D01*
X106533323Y-100711000D02*
X106533323Y-103259000D01*
X106573323Y-105741000D02*
X106573323Y-108253000D01*
X107933323Y-102758000D02*
X107933323Y-106242000D01*
X107413323Y-101730000D02*
X107413323Y-107270000D01*
X104413323Y-105741000D02*
X104413323Y-109418000D01*
X104093323Y-99510000D02*
X104093323Y-109490000D01*
X107773323Y-102375000D02*
X107773323Y-106625000D01*
X106253323Y-100480000D02*
X106253323Y-103259000D01*
X104933323Y-99746000D02*
X104933323Y-103259000D01*
X104893323Y-105741000D02*
X104893323Y-109268000D01*
X105533323Y-105741000D02*
X105533323Y-108983000D01*
X105333323Y-105741000D02*
X105333323Y-109084000D01*
X106653323Y-100821000D02*
X106653323Y-103259000D01*
X103772323Y-99460000D02*
X103772323Y-109540000D01*
X107453323Y-101791000D02*
X107453323Y-107209000D01*
X105893323Y-100227000D02*
X105893323Y-103259000D01*
X107973323Y-102870000D02*
X107973323Y-106130000D01*
X103612323Y-99442000D02*
X103612323Y-109558000D01*
X107253323Y-101500000D02*
X107253323Y-107500000D01*
X104693323Y-99663000D02*
X104693323Y-103259000D01*
X106333323Y-100543000D02*
X106333323Y-103259000D01*
X107493323Y-101855000D02*
X107493323Y-107145000D01*
X105813323Y-100177000D02*
X105813323Y-103259000D01*
X104333323Y-99562000D02*
X104333323Y-109438000D01*
X105053323Y-105741000D02*
X105053323Y-109207000D01*
X106093323Y-100362000D02*
X106093323Y-103259000D01*
X103212323Y-99420000D02*
X103212323Y-109580000D01*
X105013323Y-105741000D02*
X105013323Y-109223000D01*
X106893323Y-101064000D02*
X106893323Y-107936000D01*
X104853323Y-105741000D02*
X104853323Y-109283000D01*
X104133323Y-99518000D02*
X104133323Y-109482000D01*
X105973323Y-105741000D02*
X105973323Y-108721000D01*
X103973323Y-99489000D02*
X103973323Y-109511000D01*
X106013323Y-105741000D02*
X106013323Y-108694000D01*
X107333323Y-101611000D02*
X107333323Y-107389000D01*
X105653323Y-100083000D02*
X105653323Y-103259000D01*
X106773323Y-100939000D02*
X106773323Y-103259000D01*
X106413323Y-100608000D02*
X106413323Y-103259000D01*
X103252323Y-99421000D02*
X103252323Y-109579000D01*
X108133323Y-103438000D02*
X108133323Y-105562000D01*
X103893323Y-99476000D02*
X103893323Y-109524000D01*
X106133323Y-105741000D02*
X106133323Y-108610000D01*
X106213323Y-100450000D02*
X106213323Y-103259000D01*
X106173323Y-105741000D02*
X106173323Y-108580000D01*
X105373323Y-105741000D02*
X105373323Y-109064000D01*
X104573323Y-105741000D02*
X104573323Y-109374000D01*
X106853323Y-105741000D02*
X106853323Y-107978000D01*
X103933323Y-99482000D02*
X103933323Y-109518000D01*
X104453323Y-105741000D02*
X104453323Y-109407000D01*
X108213323Y-103901000D02*
X108213323Y-105099000D01*
X105613323Y-100060000D02*
X105613323Y-103259000D01*
X105053323Y-99793000D02*
X105053323Y-103259000D01*
X105933323Y-100253000D02*
X105933323Y-103259000D01*
X105813323Y-105741000D02*
X105813323Y-108823000D01*
X105373323Y-99936000D02*
X105373323Y-103259000D01*
X106813323Y-105741000D02*
X106813323Y-108020000D01*
X106133323Y-100390000D02*
X106133323Y-103259000D01*
X107213323Y-101446000D02*
X107213323Y-107554000D01*
X105533323Y-100017000D02*
X105533323Y-103259000D01*
X105693323Y-100105000D02*
X105693323Y-103259000D01*
X107653323Y-102135000D02*
X107653323Y-106865000D01*
X107293323Y-101555000D02*
X107293323Y-107445000D01*
X105253323Y-105741000D02*
X105253323Y-109121000D01*
X104973323Y-105741000D02*
X104973323Y-109238000D01*
X104933323Y-105741000D02*
X104933323Y-109254000D01*
X106573323Y-100747000D02*
X106573323Y-103259000D01*
X106693323Y-100860000D02*
X106693323Y-103259000D01*
X105733323Y-100129000D02*
X105733323Y-103259000D01*
X106693323Y-105741000D02*
X106693323Y-108140000D01*
X105413323Y-105741000D02*
X105413323Y-109045000D01*
X104373323Y-99572000D02*
X104373323Y-109428000D01*
X105333323Y-99916000D02*
X105333323Y-103259000D01*
X103292323Y-99422000D02*
X103292323Y-109578000D01*
X98152677Y-101125000D02*
X98152677Y-102125000D01*
X106533323Y-105741000D02*
X106533323Y-108289000D01*
X107533323Y-101921000D02*
X107533323Y-107079000D01*
X104413323Y-99582000D02*
X104413323Y-103259000D01*
X103372323Y-99425000D02*
X103372323Y-109575000D01*
X105573323Y-105741000D02*
X105573323Y-108962000D01*
X105093323Y-105741000D02*
X105093323Y-109190000D01*
X106333323Y-105741000D02*
X106333323Y-108457000D01*
X107173323Y-101394000D02*
X107173323Y-107606000D01*
X103532323Y-99435000D02*
X103532323Y-109565000D01*
X104773323Y-105741000D02*
X104773323Y-109311000D01*
X105773323Y-100153000D02*
X105773323Y-103259000D01*
X107573323Y-101990000D02*
X107573323Y-107010000D01*
X105693323Y-105741000D02*
X105693323Y-108895000D01*
X103412323Y-99427000D02*
X103412323Y-109573000D01*
X106493323Y-100676000D02*
X106493323Y-103259000D01*
X107013323Y-101199000D02*
X107013323Y-107801000D01*
X107053323Y-101246000D02*
X107053323Y-107754000D01*
X105893323Y-105741000D02*
X105893323Y-108773000D01*
X106493323Y-105741000D02*
X106493323Y-108324000D01*
X105413323Y-99955000D02*
X105413323Y-103259000D01*
X106213323Y-105741000D02*
X106213323Y-108550000D01*
X104173323Y-99526000D02*
X104173323Y-109474000D01*
X106373323Y-100575000D02*
X106373323Y-103259000D01*
X104733323Y-99676000D02*
X104733323Y-103259000D01*
X106973323Y-101153000D02*
X106973323Y-107847000D01*
X104533323Y-105741000D02*
X104533323Y-109385000D01*
X104973323Y-99762000D02*
X104973323Y-103259000D01*
X105613323Y-105741000D02*
X105613323Y-108940000D01*
X106453323Y-100642000D02*
X106453323Y-103259000D01*
X106653323Y-105741000D02*
X106653323Y-108179000D01*
X105173323Y-99843000D02*
X105173323Y-103259000D01*
X104693323Y-105741000D02*
X104693323Y-109337000D01*
X104853323Y-99717000D02*
X104853323Y-103259000D01*
X105653323Y-105741000D02*
X105653323Y-108917000D01*
X103652323Y-99446000D02*
X103652323Y-109554000D01*
X104253323Y-99544000D02*
X104253323Y-109456000D01*
X106613323Y-105741000D02*
X106613323Y-108216000D01*
X103332323Y-99423000D02*
X103332323Y-109577000D01*
X104573323Y-99626000D02*
X104573323Y-103259000D01*
X104013323Y-99496000D02*
X104013323Y-109504000D01*
X107733323Y-102291000D02*
X107733323Y-106709000D01*
X106413323Y-105741000D02*
X106413323Y-108392000D01*
X105933323Y-105741000D02*
X105933323Y-108747000D01*
X104773323Y-99689000D02*
X104773323Y-103259000D01*
X105493323Y-99996000D02*
X105493323Y-103259000D01*
X104493323Y-105741000D02*
X104493323Y-109397000D01*
X103812323Y-99465000D02*
X103812323Y-109535000D01*
X106613323Y-100784000D02*
X106613323Y-103259000D01*
X105853323Y-100202000D02*
X105853323Y-103259000D01*
X106293323Y-105741000D02*
X106293323Y-108489000D01*
X106773323Y-105741000D02*
X106773323Y-108061000D01*
X105213323Y-99861000D02*
X105213323Y-103259000D01*
X105453323Y-105741000D02*
X105453323Y-109025000D01*
X107133323Y-101344000D02*
X107133323Y-107656000D01*
X103692323Y-99450000D02*
X103692323Y-109550000D01*
X103492323Y-99432000D02*
X103492323Y-109568000D01*
X107853323Y-102556000D02*
X107853323Y-106444000D01*
X104813323Y-99703000D02*
X104813323Y-103259000D01*
X106733323Y-100899000D02*
X106733323Y-103259000D01*
X104493323Y-99603000D02*
X104493323Y-103259000D01*
X108173323Y-103638000D02*
X108173323Y-105362000D01*
X104533323Y-99615000D02*
X104533323Y-103259000D01*
X105093323Y-99810000D02*
X105093323Y-103259000D01*
X106173323Y-100420000D02*
X106173323Y-103259000D01*
X107373323Y-101670000D02*
X107373323Y-107330000D01*
X105173323Y-105741000D02*
X105173323Y-109157000D01*
X105773323Y-105741000D02*
X105773323Y-108847000D01*
X105573323Y-100038000D02*
X105573323Y-103259000D01*
X105853323Y-105741000D02*
X105853323Y-108798000D01*
X106053323Y-105741000D02*
X106053323Y-108666000D01*
X105733323Y-105741000D02*
X105733323Y-108871000D01*
X103132323Y-99420000D02*
X103132323Y-109580000D01*
X103732323Y-99455000D02*
X103732323Y-109545000D01*
X108252323Y-104500000D02*
G75*
G03*
X108252323Y-104500000I-5120000J0D01*
G01*
X100639000Y-90759000D02*
X100639000Y-87496000D01*
X99279000Y-95478000D02*
X99279000Y-93241000D01*
X100999000Y-90759000D02*
X100999000Y-87326000D01*
X99839000Y-95989000D02*
X99839000Y-93241000D01*
X101239000Y-96768000D02*
X101239000Y-93241000D01*
X98439000Y-94289000D02*
X98439000Y-89711000D01*
X99759000Y-90759000D02*
X99759000Y-88075000D01*
X98119000Y-93510000D02*
X98119000Y-90490000D01*
X102560000Y-97062000D02*
X102560000Y-86938000D01*
X101519000Y-90759000D02*
X101519000Y-87138000D01*
X101519000Y-96862000D02*
X101519000Y-93241000D01*
X101679000Y-96907000D02*
X101679000Y-93241000D01*
X98319000Y-94037000D02*
X98319000Y-89963000D01*
X98239000Y-93846000D02*
X98239000Y-90154000D01*
X99399000Y-90759000D02*
X99399000Y-88399000D01*
X100079000Y-96166000D02*
X100079000Y-93241000D01*
X102680000Y-97070000D02*
X102680000Y-86930000D01*
X101399000Y-90759000D02*
X101399000Y-87176000D01*
X99879000Y-90759000D02*
X99879000Y-87980000D01*
X99039000Y-95206000D02*
X99039000Y-88794000D01*
X100159000Y-96221000D02*
X100159000Y-93241000D01*
X100919000Y-90759000D02*
X100919000Y-87361000D01*
X100039000Y-90759000D02*
X100039000Y-87862000D01*
X98519000Y-94439000D02*
X98519000Y-89561000D01*
X101479000Y-96850000D02*
X101479000Y-93241000D01*
X100839000Y-96603000D02*
X100839000Y-93241000D01*
X102960000Y-97080000D02*
X102960000Y-86920000D01*
X100879000Y-96621000D02*
X100879000Y-93241000D01*
X108479646Y-94875000D02*
X107479646Y-94875000D01*
X100999000Y-96674000D02*
X100999000Y-93241000D01*
X98039000Y-93230000D02*
X98039000Y-90770000D01*
X100119000Y-96194000D02*
X100119000Y-93241000D01*
X99199000Y-95392000D02*
X99199000Y-88608000D01*
X101479000Y-90759000D02*
X101479000Y-87150000D01*
X101119000Y-96723000D02*
X101119000Y-93241000D01*
X102079000Y-96997000D02*
X102079000Y-87003000D01*
X101919000Y-96965000D02*
X101919000Y-87035000D01*
X98079000Y-93378000D02*
X98079000Y-90622000D01*
X99319000Y-95520000D02*
X99319000Y-93241000D01*
X100679000Y-96525000D02*
X100679000Y-93241000D01*
X102279000Y-97030000D02*
X102279000Y-86970000D01*
X101319000Y-90759000D02*
X101319000Y-87203000D01*
X99679000Y-90759000D02*
X99679000Y-88142000D01*
X101839000Y-96947000D02*
X101839000Y-87053000D01*
X100839000Y-90759000D02*
X100839000Y-87397000D01*
X99599000Y-95789000D02*
X99599000Y-93241000D01*
X99559000Y-90759000D02*
X99559000Y-88247000D01*
X98199000Y-93742000D02*
X98199000Y-90258000D01*
X98719000Y-94770000D02*
X98719000Y-89230000D01*
X101719000Y-90759000D02*
X101719000Y-87082000D01*
X102039000Y-96990000D02*
X102039000Y-87010000D01*
X98359000Y-94125000D02*
X98359000Y-89875000D01*
X99879000Y-96020000D02*
X99879000Y-93241000D01*
X101199000Y-96754000D02*
X101199000Y-93241000D01*
X101239000Y-90759000D02*
X101239000Y-87232000D01*
X100599000Y-90759000D02*
X100599000Y-87517000D01*
X100799000Y-90759000D02*
X100799000Y-87416000D01*
X99479000Y-95679000D02*
X99479000Y-93241000D01*
X102360000Y-97040000D02*
X102360000Y-86960000D01*
X98679000Y-94709000D02*
X98679000Y-89291000D01*
X100239000Y-96273000D02*
X100239000Y-93241000D01*
X98159000Y-93630000D02*
X98159000Y-90370000D01*
X102520000Y-97058000D02*
X102520000Y-86942000D01*
X98879000Y-95000000D02*
X98879000Y-89000000D01*
X101439000Y-96837000D02*
X101439000Y-93241000D01*
X99799000Y-95957000D02*
X99799000Y-93241000D01*
X98639000Y-94645000D02*
X98639000Y-89355000D01*
X100319000Y-96323000D02*
X100319000Y-93241000D01*
X101799000Y-96938000D02*
X101799000Y-87062000D01*
X101079000Y-90759000D02*
X101079000Y-87293000D01*
X100039000Y-96138000D02*
X100039000Y-93241000D01*
X102920000Y-97080000D02*
X102920000Y-86920000D01*
X101119000Y-90759000D02*
X101119000Y-87277000D01*
X99239000Y-95436000D02*
X99239000Y-88564000D01*
X101279000Y-90759000D02*
X101279000Y-87217000D01*
X101999000Y-96982000D02*
X101999000Y-87018000D01*
X100159000Y-90759000D02*
X100159000Y-87779000D01*
X102159000Y-97011000D02*
X102159000Y-86989000D01*
X100119000Y-90759000D02*
X100119000Y-87806000D01*
X98799000Y-94889000D02*
X98799000Y-89111000D01*
X100479000Y-96417000D02*
X100479000Y-93241000D01*
X99359000Y-95561000D02*
X99359000Y-93241000D01*
X99719000Y-95892000D02*
X99719000Y-93241000D01*
X102880000Y-97079000D02*
X102880000Y-86921000D01*
X97999000Y-93062000D02*
X97999000Y-90938000D01*
X102239000Y-97024000D02*
X102239000Y-86976000D01*
X99999000Y-90759000D02*
X99999000Y-87890000D01*
X99919000Y-96050000D02*
X99919000Y-93241000D01*
X99959000Y-90759000D02*
X99959000Y-87920000D01*
X100759000Y-90759000D02*
X100759000Y-87436000D01*
X101559000Y-90759000D02*
X101559000Y-87126000D01*
X99279000Y-90759000D02*
X99279000Y-88522000D01*
X102199000Y-97018000D02*
X102199000Y-86982000D01*
X101679000Y-90759000D02*
X101679000Y-87093000D01*
X97919000Y-92599000D02*
X97919000Y-91401000D01*
X100519000Y-96440000D02*
X100519000Y-93241000D01*
X101079000Y-96707000D02*
X101079000Y-93241000D01*
X100199000Y-96247000D02*
X100199000Y-93241000D01*
X100319000Y-90759000D02*
X100319000Y-87677000D01*
X100759000Y-96564000D02*
X100759000Y-93241000D01*
X99319000Y-90759000D02*
X99319000Y-88480000D01*
X99999000Y-96110000D02*
X99999000Y-93241000D01*
X98919000Y-95054000D02*
X98919000Y-88946000D01*
X100599000Y-96483000D02*
X100599000Y-93241000D01*
X100439000Y-96395000D02*
X100439000Y-93241000D01*
X98479000Y-94365000D02*
X98479000Y-89635000D01*
X98839000Y-94945000D02*
X98839000Y-89055000D01*
X100879000Y-90759000D02*
X100879000Y-87379000D01*
X101159000Y-90759000D02*
X101159000Y-87262000D01*
X101199000Y-90759000D02*
X101199000Y-87246000D01*
X99559000Y-95753000D02*
X99559000Y-93241000D01*
X99439000Y-95640000D02*
X99439000Y-93241000D01*
X100399000Y-96371000D02*
X100399000Y-93241000D01*
X99439000Y-90759000D02*
X99439000Y-88360000D01*
X100719000Y-90759000D02*
X100719000Y-87455000D01*
X101759000Y-96928000D02*
X101759000Y-87072000D01*
X100799000Y-96584000D02*
X100799000Y-93241000D01*
X102840000Y-97078000D02*
X102840000Y-86922000D01*
X107979646Y-95375000D02*
X107979646Y-94375000D01*
X99599000Y-90759000D02*
X99599000Y-88211000D01*
X98599000Y-94579000D02*
X98599000Y-89421000D01*
X101719000Y-96918000D02*
X101719000Y-93241000D01*
X102760000Y-97075000D02*
X102760000Y-86925000D01*
X100559000Y-90759000D02*
X100559000Y-87538000D01*
X101039000Y-90759000D02*
X101039000Y-87310000D01*
X99799000Y-90759000D02*
X99799000Y-88043000D01*
X98959000Y-95106000D02*
X98959000Y-88894000D01*
X102600000Y-97065000D02*
X102600000Y-86935000D01*
X101359000Y-90759000D02*
X101359000Y-87189000D01*
X100359000Y-96347000D02*
X100359000Y-93241000D01*
X98559000Y-94510000D02*
X98559000Y-89490000D01*
X100439000Y-90759000D02*
X100439000Y-87605000D01*
X102720000Y-97073000D02*
X102720000Y-86927000D01*
X99639000Y-95824000D02*
X99639000Y-93241000D01*
X99119000Y-95301000D02*
X99119000Y-88699000D01*
X99079000Y-95254000D02*
X99079000Y-88746000D01*
X100239000Y-90759000D02*
X100239000Y-87727000D01*
X99639000Y-90759000D02*
X99639000Y-88176000D01*
X100719000Y-96545000D02*
X100719000Y-93241000D01*
X99919000Y-90759000D02*
X99919000Y-87950000D01*
X101959000Y-96974000D02*
X101959000Y-87026000D01*
X99759000Y-95925000D02*
X99759000Y-93241000D01*
X101399000Y-96824000D02*
X101399000Y-93241000D01*
X99159000Y-95347000D02*
X99159000Y-88653000D01*
X101599000Y-90759000D02*
X101599000Y-87115000D01*
X101159000Y-96738000D02*
X101159000Y-93241000D01*
X100519000Y-90759000D02*
X100519000Y-87560000D01*
X99679000Y-95858000D02*
X99679000Y-93241000D01*
X99479000Y-90759000D02*
X99479000Y-88321000D01*
X100959000Y-96657000D02*
X100959000Y-93241000D01*
X101439000Y-90759000D02*
X101439000Y-87163000D01*
X101279000Y-96783000D02*
X101279000Y-93241000D01*
X100479000Y-90759000D02*
X100479000Y-87583000D01*
X102480000Y-97054000D02*
X102480000Y-86946000D01*
X101879000Y-96956000D02*
X101879000Y-87044000D01*
X99519000Y-90759000D02*
X99519000Y-88284000D01*
X102800000Y-97077000D02*
X102800000Y-86923000D01*
X101559000Y-96874000D02*
X101559000Y-93241000D01*
X102119000Y-97004000D02*
X102119000Y-86996000D01*
X98399000Y-94209000D02*
X98399000Y-89791000D01*
X99719000Y-90759000D02*
X99719000Y-88108000D01*
X100199000Y-90759000D02*
X100199000Y-87753000D01*
X101359000Y-96811000D02*
X101359000Y-93241000D01*
X100639000Y-96504000D02*
X100639000Y-93241000D01*
X101639000Y-90759000D02*
X101639000Y-87103000D01*
X102320000Y-97035000D02*
X102320000Y-86965000D01*
X99519000Y-95716000D02*
X99519000Y-93241000D01*
X100279000Y-96298000D02*
X100279000Y-93241000D01*
X99839000Y-90759000D02*
X99839000Y-88011000D01*
X99359000Y-90759000D02*
X99359000Y-88439000D01*
X100919000Y-96639000D02*
X100919000Y-93241000D01*
X100679000Y-90759000D02*
X100679000Y-87475000D01*
X98999000Y-95156000D02*
X98999000Y-88844000D01*
X102440000Y-97050000D02*
X102440000Y-86950000D01*
X102640000Y-97068000D02*
X102640000Y-86932000D01*
X98279000Y-93944000D02*
X98279000Y-90056000D01*
X101319000Y-96797000D02*
X101319000Y-93241000D01*
X99399000Y-95601000D02*
X99399000Y-93241000D01*
X101639000Y-96897000D02*
X101639000Y-93241000D01*
X97959000Y-92862000D02*
X97959000Y-91138000D01*
X101599000Y-96885000D02*
X101599000Y-93241000D01*
X101039000Y-96690000D02*
X101039000Y-93241000D01*
X99959000Y-96080000D02*
X99959000Y-93241000D01*
X98759000Y-94830000D02*
X98759000Y-89170000D01*
X100959000Y-90759000D02*
X100959000Y-87343000D01*
X100359000Y-90759000D02*
X100359000Y-87653000D01*
X100559000Y-96462000D02*
X100559000Y-93241000D01*
X100279000Y-90759000D02*
X100279000Y-87702000D01*
X100079000Y-90759000D02*
X100079000Y-87834000D01*
X100399000Y-90759000D02*
X100399000Y-87629000D01*
X103000000Y-97080000D02*
X103000000Y-86920000D01*
X102400000Y-97045000D02*
X102400000Y-86955000D01*
X108120000Y-92000000D02*
G75*
G03*
X108120000Y-92000000I-5120000J0D01*
G01*
X100889000Y-65759000D02*
X100889000Y-62496000D01*
X99529000Y-70478000D02*
X99529000Y-68241000D01*
X101249000Y-65759000D02*
X101249000Y-62326000D01*
X100089000Y-70989000D02*
X100089000Y-68241000D01*
X101489000Y-71768000D02*
X101489000Y-68241000D01*
X98689000Y-69289000D02*
X98689000Y-64711000D01*
X100009000Y-65759000D02*
X100009000Y-63075000D01*
X98369000Y-68510000D02*
X98369000Y-65490000D01*
X102810000Y-72062000D02*
X102810000Y-61938000D01*
X101769000Y-65759000D02*
X101769000Y-62138000D01*
X101769000Y-71862000D02*
X101769000Y-68241000D01*
X101929000Y-71907000D02*
X101929000Y-68241000D01*
X98569000Y-69037000D02*
X98569000Y-64963000D01*
X98489000Y-68846000D02*
X98489000Y-65154000D01*
X99649000Y-65759000D02*
X99649000Y-63399000D01*
X100329000Y-71166000D02*
X100329000Y-68241000D01*
X102930000Y-72070000D02*
X102930000Y-61930000D01*
X101649000Y-65759000D02*
X101649000Y-62176000D01*
X100129000Y-65759000D02*
X100129000Y-62980000D01*
X99289000Y-70206000D02*
X99289000Y-63794000D01*
X100409000Y-71221000D02*
X100409000Y-68241000D01*
X101169000Y-65759000D02*
X101169000Y-62361000D01*
X100289000Y-65759000D02*
X100289000Y-62862000D01*
X98769000Y-69439000D02*
X98769000Y-64561000D01*
X101729000Y-71850000D02*
X101729000Y-68241000D01*
X101089000Y-71603000D02*
X101089000Y-68241000D01*
X103210000Y-72080000D02*
X103210000Y-61920000D01*
X101129000Y-71621000D02*
X101129000Y-68241000D01*
X108729646Y-69875000D02*
X107729646Y-69875000D01*
X101249000Y-71674000D02*
X101249000Y-68241000D01*
X98289000Y-68230000D02*
X98289000Y-65770000D01*
X100369000Y-71194000D02*
X100369000Y-68241000D01*
X99449000Y-70392000D02*
X99449000Y-63608000D01*
X101729000Y-65759000D02*
X101729000Y-62150000D01*
X101369000Y-71723000D02*
X101369000Y-68241000D01*
X102329000Y-71997000D02*
X102329000Y-62003000D01*
X102169000Y-71965000D02*
X102169000Y-62035000D01*
X98329000Y-68378000D02*
X98329000Y-65622000D01*
X99569000Y-70520000D02*
X99569000Y-68241000D01*
X100929000Y-71525000D02*
X100929000Y-68241000D01*
X102529000Y-72030000D02*
X102529000Y-61970000D01*
X101569000Y-65759000D02*
X101569000Y-62203000D01*
X99929000Y-65759000D02*
X99929000Y-63142000D01*
X102089000Y-71947000D02*
X102089000Y-62053000D01*
X101089000Y-65759000D02*
X101089000Y-62397000D01*
X99849000Y-70789000D02*
X99849000Y-68241000D01*
X99809000Y-65759000D02*
X99809000Y-63247000D01*
X98449000Y-68742000D02*
X98449000Y-65258000D01*
X98969000Y-69770000D02*
X98969000Y-64230000D01*
X101969000Y-65759000D02*
X101969000Y-62082000D01*
X102289000Y-71990000D02*
X102289000Y-62010000D01*
X98609000Y-69125000D02*
X98609000Y-64875000D01*
X100129000Y-71020000D02*
X100129000Y-68241000D01*
X101449000Y-71754000D02*
X101449000Y-68241000D01*
X101489000Y-65759000D02*
X101489000Y-62232000D01*
X100849000Y-65759000D02*
X100849000Y-62517000D01*
X101049000Y-65759000D02*
X101049000Y-62416000D01*
X99729000Y-70679000D02*
X99729000Y-68241000D01*
X102610000Y-72040000D02*
X102610000Y-61960000D01*
X98929000Y-69709000D02*
X98929000Y-64291000D01*
X100489000Y-71273000D02*
X100489000Y-68241000D01*
X98409000Y-68630000D02*
X98409000Y-65370000D01*
X102770000Y-72058000D02*
X102770000Y-61942000D01*
X99129000Y-70000000D02*
X99129000Y-64000000D01*
X101689000Y-71837000D02*
X101689000Y-68241000D01*
X100049000Y-70957000D02*
X100049000Y-68241000D01*
X98889000Y-69645000D02*
X98889000Y-64355000D01*
X100569000Y-71323000D02*
X100569000Y-68241000D01*
X102049000Y-71938000D02*
X102049000Y-62062000D01*
X101329000Y-65759000D02*
X101329000Y-62293000D01*
X100289000Y-71138000D02*
X100289000Y-68241000D01*
X103170000Y-72080000D02*
X103170000Y-61920000D01*
X101369000Y-65759000D02*
X101369000Y-62277000D01*
X99489000Y-70436000D02*
X99489000Y-63564000D01*
X101529000Y-65759000D02*
X101529000Y-62217000D01*
X102249000Y-71982000D02*
X102249000Y-62018000D01*
X100409000Y-65759000D02*
X100409000Y-62779000D01*
X102409000Y-72011000D02*
X102409000Y-61989000D01*
X100369000Y-65759000D02*
X100369000Y-62806000D01*
X99049000Y-69889000D02*
X99049000Y-64111000D01*
X100729000Y-71417000D02*
X100729000Y-68241000D01*
X99609000Y-70561000D02*
X99609000Y-68241000D01*
X99969000Y-70892000D02*
X99969000Y-68241000D01*
X103130000Y-72079000D02*
X103130000Y-61921000D01*
X98249000Y-68062000D02*
X98249000Y-65938000D01*
X102489000Y-72024000D02*
X102489000Y-61976000D01*
X100249000Y-65759000D02*
X100249000Y-62890000D01*
X100169000Y-71050000D02*
X100169000Y-68241000D01*
X100209000Y-65759000D02*
X100209000Y-62920000D01*
X101009000Y-65759000D02*
X101009000Y-62436000D01*
X101809000Y-65759000D02*
X101809000Y-62126000D01*
X99529000Y-65759000D02*
X99529000Y-63522000D01*
X102449000Y-72018000D02*
X102449000Y-61982000D01*
X101929000Y-65759000D02*
X101929000Y-62093000D01*
X98169000Y-67599000D02*
X98169000Y-66401000D01*
X100769000Y-71440000D02*
X100769000Y-68241000D01*
X101329000Y-71707000D02*
X101329000Y-68241000D01*
X100449000Y-71247000D02*
X100449000Y-68241000D01*
X100569000Y-65759000D02*
X100569000Y-62677000D01*
X101009000Y-71564000D02*
X101009000Y-68241000D01*
X99569000Y-65759000D02*
X99569000Y-63480000D01*
X100249000Y-71110000D02*
X100249000Y-68241000D01*
X99169000Y-70054000D02*
X99169000Y-63946000D01*
X100849000Y-71483000D02*
X100849000Y-68241000D01*
X100689000Y-71395000D02*
X100689000Y-68241000D01*
X98729000Y-69365000D02*
X98729000Y-64635000D01*
X99089000Y-69945000D02*
X99089000Y-64055000D01*
X101129000Y-65759000D02*
X101129000Y-62379000D01*
X101409000Y-65759000D02*
X101409000Y-62262000D01*
X101449000Y-65759000D02*
X101449000Y-62246000D01*
X99809000Y-70753000D02*
X99809000Y-68241000D01*
X99689000Y-70640000D02*
X99689000Y-68241000D01*
X100649000Y-71371000D02*
X100649000Y-68241000D01*
X99689000Y-65759000D02*
X99689000Y-63360000D01*
X100969000Y-65759000D02*
X100969000Y-62455000D01*
X102009000Y-71928000D02*
X102009000Y-62072000D01*
X101049000Y-71584000D02*
X101049000Y-68241000D01*
X103090000Y-72078000D02*
X103090000Y-61922000D01*
X108229646Y-70375000D02*
X108229646Y-69375000D01*
X99849000Y-65759000D02*
X99849000Y-63211000D01*
X98849000Y-69579000D02*
X98849000Y-64421000D01*
X101969000Y-71918000D02*
X101969000Y-68241000D01*
X103010000Y-72075000D02*
X103010000Y-61925000D01*
X100809000Y-65759000D02*
X100809000Y-62538000D01*
X101289000Y-65759000D02*
X101289000Y-62310000D01*
X100049000Y-65759000D02*
X100049000Y-63043000D01*
X99209000Y-70106000D02*
X99209000Y-63894000D01*
X102850000Y-72065000D02*
X102850000Y-61935000D01*
X101609000Y-65759000D02*
X101609000Y-62189000D01*
X100609000Y-71347000D02*
X100609000Y-68241000D01*
X98809000Y-69510000D02*
X98809000Y-64490000D01*
X100689000Y-65759000D02*
X100689000Y-62605000D01*
X102970000Y-72073000D02*
X102970000Y-61927000D01*
X99889000Y-70824000D02*
X99889000Y-68241000D01*
X99369000Y-70301000D02*
X99369000Y-63699000D01*
X99329000Y-70254000D02*
X99329000Y-63746000D01*
X100489000Y-65759000D02*
X100489000Y-62727000D01*
X99889000Y-65759000D02*
X99889000Y-63176000D01*
X100969000Y-71545000D02*
X100969000Y-68241000D01*
X100169000Y-65759000D02*
X100169000Y-62950000D01*
X102209000Y-71974000D02*
X102209000Y-62026000D01*
X100009000Y-70925000D02*
X100009000Y-68241000D01*
X101649000Y-71824000D02*
X101649000Y-68241000D01*
X99409000Y-70347000D02*
X99409000Y-63653000D01*
X101849000Y-65759000D02*
X101849000Y-62115000D01*
X101409000Y-71738000D02*
X101409000Y-68241000D01*
X100769000Y-65759000D02*
X100769000Y-62560000D01*
X99929000Y-70858000D02*
X99929000Y-68241000D01*
X99729000Y-65759000D02*
X99729000Y-63321000D01*
X101209000Y-71657000D02*
X101209000Y-68241000D01*
X101689000Y-65759000D02*
X101689000Y-62163000D01*
X101529000Y-71783000D02*
X101529000Y-68241000D01*
X100729000Y-65759000D02*
X100729000Y-62583000D01*
X102730000Y-72054000D02*
X102730000Y-61946000D01*
X102129000Y-71956000D02*
X102129000Y-62044000D01*
X99769000Y-65759000D02*
X99769000Y-63284000D01*
X103050000Y-72077000D02*
X103050000Y-61923000D01*
X101809000Y-71874000D02*
X101809000Y-68241000D01*
X102369000Y-72004000D02*
X102369000Y-61996000D01*
X98649000Y-69209000D02*
X98649000Y-64791000D01*
X99969000Y-65759000D02*
X99969000Y-63108000D01*
X100449000Y-65759000D02*
X100449000Y-62753000D01*
X101609000Y-71811000D02*
X101609000Y-68241000D01*
X100889000Y-71504000D02*
X100889000Y-68241000D01*
X101889000Y-65759000D02*
X101889000Y-62103000D01*
X102570000Y-72035000D02*
X102570000Y-61965000D01*
X99769000Y-70716000D02*
X99769000Y-68241000D01*
X100529000Y-71298000D02*
X100529000Y-68241000D01*
X100089000Y-65759000D02*
X100089000Y-63011000D01*
X99609000Y-65759000D02*
X99609000Y-63439000D01*
X101169000Y-71639000D02*
X101169000Y-68241000D01*
X100929000Y-65759000D02*
X100929000Y-62475000D01*
X99249000Y-70156000D02*
X99249000Y-63844000D01*
X102690000Y-72050000D02*
X102690000Y-61950000D01*
X102890000Y-72068000D02*
X102890000Y-61932000D01*
X98529000Y-68944000D02*
X98529000Y-65056000D01*
X101569000Y-71797000D02*
X101569000Y-68241000D01*
X99649000Y-70601000D02*
X99649000Y-68241000D01*
X101889000Y-71897000D02*
X101889000Y-68241000D01*
X98209000Y-67862000D02*
X98209000Y-66138000D01*
X101849000Y-71885000D02*
X101849000Y-68241000D01*
X101289000Y-71690000D02*
X101289000Y-68241000D01*
X100209000Y-71080000D02*
X100209000Y-68241000D01*
X99009000Y-69830000D02*
X99009000Y-64170000D01*
X101209000Y-65759000D02*
X101209000Y-62343000D01*
X100609000Y-65759000D02*
X100609000Y-62653000D01*
X100809000Y-71462000D02*
X100809000Y-68241000D01*
X100529000Y-65759000D02*
X100529000Y-62702000D01*
X100329000Y-65759000D02*
X100329000Y-62834000D01*
X100649000Y-65759000D02*
X100649000Y-62629000D01*
X103250000Y-72080000D02*
X103250000Y-61920000D01*
X102650000Y-72045000D02*
X102650000Y-61955000D01*
X108370000Y-67000000D02*
G75*
G03*
X108370000Y-67000000I-5120000J0D01*
G01*
X174860000Y-98711252D02*
X174860000Y-97288748D01*
X172140000Y-98711252D02*
X172140000Y-97288748D01*
X171360000Y-98711252D02*
X171360000Y-97288748D01*
X168640000Y-98711252D02*
X168640000Y-97288748D01*
X153140000Y-98711252D02*
X153140000Y-97288748D01*
X155860000Y-98711252D02*
X155860000Y-97288748D01*
X149640000Y-98711252D02*
X149640000Y-97288748D01*
X152360000Y-98711252D02*
X152360000Y-97288748D01*
X133360000Y-98711252D02*
X133360000Y-97288748D01*
X130640000Y-98711252D02*
X130640000Y-97288748D01*
X100889000Y-78259000D02*
X100889000Y-74996000D01*
X99529000Y-82978000D02*
X99529000Y-80741000D01*
X101249000Y-78259000D02*
X101249000Y-74826000D01*
X100089000Y-83489000D02*
X100089000Y-80741000D01*
X101489000Y-84268000D02*
X101489000Y-80741000D01*
X98689000Y-81789000D02*
X98689000Y-77211000D01*
X100009000Y-78259000D02*
X100009000Y-75575000D01*
X98369000Y-81010000D02*
X98369000Y-77990000D01*
X102810000Y-84562000D02*
X102810000Y-74438000D01*
X101769000Y-78259000D02*
X101769000Y-74638000D01*
X101769000Y-84362000D02*
X101769000Y-80741000D01*
X101929000Y-84407000D02*
X101929000Y-80741000D01*
X98569000Y-81537000D02*
X98569000Y-77463000D01*
X98489000Y-81346000D02*
X98489000Y-77654000D01*
X99649000Y-78259000D02*
X99649000Y-75899000D01*
X100329000Y-83666000D02*
X100329000Y-80741000D01*
X102930000Y-84570000D02*
X102930000Y-74430000D01*
X101649000Y-78259000D02*
X101649000Y-74676000D01*
X100129000Y-78259000D02*
X100129000Y-75480000D01*
X99289000Y-82706000D02*
X99289000Y-76294000D01*
X100409000Y-83721000D02*
X100409000Y-80741000D01*
X101169000Y-78259000D02*
X101169000Y-74861000D01*
X100289000Y-78259000D02*
X100289000Y-75362000D01*
X98769000Y-81939000D02*
X98769000Y-77061000D01*
X101729000Y-84350000D02*
X101729000Y-80741000D01*
X101089000Y-84103000D02*
X101089000Y-80741000D01*
X103210000Y-84580000D02*
X103210000Y-74420000D01*
X101129000Y-84121000D02*
X101129000Y-80741000D01*
X108729646Y-82375000D02*
X107729646Y-82375000D01*
X101249000Y-84174000D02*
X101249000Y-80741000D01*
X98289000Y-80730000D02*
X98289000Y-78270000D01*
X100369000Y-83694000D02*
X100369000Y-80741000D01*
X99449000Y-82892000D02*
X99449000Y-76108000D01*
X101729000Y-78259000D02*
X101729000Y-74650000D01*
X101369000Y-84223000D02*
X101369000Y-80741000D01*
X102329000Y-84497000D02*
X102329000Y-74503000D01*
X102169000Y-84465000D02*
X102169000Y-74535000D01*
X98329000Y-80878000D02*
X98329000Y-78122000D01*
X99569000Y-83020000D02*
X99569000Y-80741000D01*
X100929000Y-84025000D02*
X100929000Y-80741000D01*
X102529000Y-84530000D02*
X102529000Y-74470000D01*
X101569000Y-78259000D02*
X101569000Y-74703000D01*
X99929000Y-78259000D02*
X99929000Y-75642000D01*
X102089000Y-84447000D02*
X102089000Y-74553000D01*
X101089000Y-78259000D02*
X101089000Y-74897000D01*
X99849000Y-83289000D02*
X99849000Y-80741000D01*
X99809000Y-78259000D02*
X99809000Y-75747000D01*
X98449000Y-81242000D02*
X98449000Y-77758000D01*
X98969000Y-82270000D02*
X98969000Y-76730000D01*
X101969000Y-78259000D02*
X101969000Y-74582000D01*
X102289000Y-84490000D02*
X102289000Y-74510000D01*
X98609000Y-81625000D02*
X98609000Y-77375000D01*
X100129000Y-83520000D02*
X100129000Y-80741000D01*
X101449000Y-84254000D02*
X101449000Y-80741000D01*
X101489000Y-78259000D02*
X101489000Y-74732000D01*
X100849000Y-78259000D02*
X100849000Y-75017000D01*
X101049000Y-78259000D02*
X101049000Y-74916000D01*
X99729000Y-83179000D02*
X99729000Y-80741000D01*
X102610000Y-84540000D02*
X102610000Y-74460000D01*
X98929000Y-82209000D02*
X98929000Y-76791000D01*
X100489000Y-83773000D02*
X100489000Y-80741000D01*
X98409000Y-81130000D02*
X98409000Y-77870000D01*
X102770000Y-84558000D02*
X102770000Y-74442000D01*
X99129000Y-82500000D02*
X99129000Y-76500000D01*
X101689000Y-84337000D02*
X101689000Y-80741000D01*
X100049000Y-83457000D02*
X100049000Y-80741000D01*
X98889000Y-82145000D02*
X98889000Y-76855000D01*
X100569000Y-83823000D02*
X100569000Y-80741000D01*
X102049000Y-84438000D02*
X102049000Y-74562000D01*
X101329000Y-78259000D02*
X101329000Y-74793000D01*
X100289000Y-83638000D02*
X100289000Y-80741000D01*
X103170000Y-84580000D02*
X103170000Y-74420000D01*
X101369000Y-78259000D02*
X101369000Y-74777000D01*
X99489000Y-82936000D02*
X99489000Y-76064000D01*
X101529000Y-78259000D02*
X101529000Y-74717000D01*
X102249000Y-84482000D02*
X102249000Y-74518000D01*
X100409000Y-78259000D02*
X100409000Y-75279000D01*
X102409000Y-84511000D02*
X102409000Y-74489000D01*
X100369000Y-78259000D02*
X100369000Y-75306000D01*
X99049000Y-82389000D02*
X99049000Y-76611000D01*
X100729000Y-83917000D02*
X100729000Y-80741000D01*
X99609000Y-83061000D02*
X99609000Y-80741000D01*
X99969000Y-83392000D02*
X99969000Y-80741000D01*
X103130000Y-84579000D02*
X103130000Y-74421000D01*
X98249000Y-80562000D02*
X98249000Y-78438000D01*
X102489000Y-84524000D02*
X102489000Y-74476000D01*
X100249000Y-78259000D02*
X100249000Y-75390000D01*
X100169000Y-83550000D02*
X100169000Y-80741000D01*
X100209000Y-78259000D02*
X100209000Y-75420000D01*
X101009000Y-78259000D02*
X101009000Y-74936000D01*
X101809000Y-78259000D02*
X101809000Y-74626000D01*
X99529000Y-78259000D02*
X99529000Y-76022000D01*
X102449000Y-84518000D02*
X102449000Y-74482000D01*
X101929000Y-78259000D02*
X101929000Y-74593000D01*
X98169000Y-80099000D02*
X98169000Y-78901000D01*
X100769000Y-83940000D02*
X100769000Y-80741000D01*
X101329000Y-84207000D02*
X101329000Y-80741000D01*
X100449000Y-83747000D02*
X100449000Y-80741000D01*
X100569000Y-78259000D02*
X100569000Y-75177000D01*
X101009000Y-84064000D02*
X101009000Y-80741000D01*
X99569000Y-78259000D02*
X99569000Y-75980000D01*
X100249000Y-83610000D02*
X100249000Y-80741000D01*
X99169000Y-82554000D02*
X99169000Y-76446000D01*
X100849000Y-83983000D02*
X100849000Y-80741000D01*
X100689000Y-83895000D02*
X100689000Y-80741000D01*
X98729000Y-81865000D02*
X98729000Y-77135000D01*
X99089000Y-82445000D02*
X99089000Y-76555000D01*
X101129000Y-78259000D02*
X101129000Y-74879000D01*
X101409000Y-78259000D02*
X101409000Y-74762000D01*
X101449000Y-78259000D02*
X101449000Y-74746000D01*
X99809000Y-83253000D02*
X99809000Y-80741000D01*
X99689000Y-83140000D02*
X99689000Y-80741000D01*
X100649000Y-83871000D02*
X100649000Y-80741000D01*
X99689000Y-78259000D02*
X99689000Y-75860000D01*
X100969000Y-78259000D02*
X100969000Y-74955000D01*
X102009000Y-84428000D02*
X102009000Y-74572000D01*
X101049000Y-84084000D02*
X101049000Y-80741000D01*
X103090000Y-84578000D02*
X103090000Y-74422000D01*
X108229646Y-82875000D02*
X108229646Y-81875000D01*
X99849000Y-78259000D02*
X99849000Y-75711000D01*
X98849000Y-82079000D02*
X98849000Y-76921000D01*
X101969000Y-84418000D02*
X101969000Y-80741000D01*
X103010000Y-84575000D02*
X103010000Y-74425000D01*
X100809000Y-78259000D02*
X100809000Y-75038000D01*
X101289000Y-78259000D02*
X101289000Y-74810000D01*
X100049000Y-78259000D02*
X100049000Y-75543000D01*
X99209000Y-82606000D02*
X99209000Y-76394000D01*
X102850000Y-84565000D02*
X102850000Y-74435000D01*
X101609000Y-78259000D02*
X101609000Y-74689000D01*
X100609000Y-83847000D02*
X100609000Y-80741000D01*
X98809000Y-82010000D02*
X98809000Y-76990000D01*
X100689000Y-78259000D02*
X100689000Y-75105000D01*
X102970000Y-84573000D02*
X102970000Y-74427000D01*
X99889000Y-83324000D02*
X99889000Y-80741000D01*
X99369000Y-82801000D02*
X99369000Y-76199000D01*
X99329000Y-82754000D02*
X99329000Y-76246000D01*
X100489000Y-78259000D02*
X100489000Y-75227000D01*
X99889000Y-78259000D02*
X99889000Y-75676000D01*
X100969000Y-84045000D02*
X100969000Y-80741000D01*
X100169000Y-78259000D02*
X100169000Y-75450000D01*
X102209000Y-84474000D02*
X102209000Y-74526000D01*
X100009000Y-83425000D02*
X100009000Y-80741000D01*
X101649000Y-84324000D02*
X101649000Y-80741000D01*
X99409000Y-82847000D02*
X99409000Y-76153000D01*
X101849000Y-78259000D02*
X101849000Y-74615000D01*
X101409000Y-84238000D02*
X101409000Y-80741000D01*
X100769000Y-78259000D02*
X100769000Y-75060000D01*
X99929000Y-83358000D02*
X99929000Y-80741000D01*
X99729000Y-78259000D02*
X99729000Y-75821000D01*
X101209000Y-84157000D02*
X101209000Y-80741000D01*
X101689000Y-78259000D02*
X101689000Y-74663000D01*
X101529000Y-84283000D02*
X101529000Y-80741000D01*
X100729000Y-78259000D02*
X100729000Y-75083000D01*
X102730000Y-84554000D02*
X102730000Y-74446000D01*
X102129000Y-84456000D02*
X102129000Y-74544000D01*
X99769000Y-78259000D02*
X99769000Y-75784000D01*
X103050000Y-84577000D02*
X103050000Y-74423000D01*
X101809000Y-84374000D02*
X101809000Y-80741000D01*
X102369000Y-84504000D02*
X102369000Y-74496000D01*
X98649000Y-81709000D02*
X98649000Y-77291000D01*
X99969000Y-78259000D02*
X99969000Y-75608000D01*
X100449000Y-78259000D02*
X100449000Y-75253000D01*
X101609000Y-84311000D02*
X101609000Y-80741000D01*
X100889000Y-84004000D02*
X100889000Y-80741000D01*
X101889000Y-78259000D02*
X101889000Y-74603000D01*
X102570000Y-84535000D02*
X102570000Y-74465000D01*
X99769000Y-83216000D02*
X99769000Y-80741000D01*
X100529000Y-83798000D02*
X100529000Y-80741000D01*
X100089000Y-78259000D02*
X100089000Y-75511000D01*
X99609000Y-78259000D02*
X99609000Y-75939000D01*
X101169000Y-84139000D02*
X101169000Y-80741000D01*
X100929000Y-78259000D02*
X100929000Y-74975000D01*
X99249000Y-82656000D02*
X99249000Y-76344000D01*
X102690000Y-84550000D02*
X102690000Y-74450000D01*
X102890000Y-84568000D02*
X102890000Y-74432000D01*
X98529000Y-81444000D02*
X98529000Y-77556000D01*
X101569000Y-84297000D02*
X101569000Y-80741000D01*
X99649000Y-83101000D02*
X99649000Y-80741000D01*
X101889000Y-84397000D02*
X101889000Y-80741000D01*
X98209000Y-80362000D02*
X98209000Y-78638000D01*
X101849000Y-84385000D02*
X101849000Y-80741000D01*
X101289000Y-84190000D02*
X101289000Y-80741000D01*
X100209000Y-83580000D02*
X100209000Y-80741000D01*
X99009000Y-82330000D02*
X99009000Y-76670000D01*
X101209000Y-78259000D02*
X101209000Y-74843000D01*
X100609000Y-78259000D02*
X100609000Y-75153000D01*
X100809000Y-83962000D02*
X100809000Y-80741000D01*
X100529000Y-78259000D02*
X100529000Y-75202000D01*
X100329000Y-78259000D02*
X100329000Y-75334000D01*
X100649000Y-78259000D02*
X100649000Y-75129000D01*
X103250000Y-84580000D02*
X103250000Y-74420000D01*
X102650000Y-84545000D02*
X102650000Y-74455000D01*
X108370000Y-79500000D02*
G75*
G03*
X108370000Y-79500000I-5120000J0D01*
G01*
X136860000Y-98711252D02*
X136860000Y-97288748D01*
X134140000Y-98711252D02*
X134140000Y-97288748D01*
X166000000Y-106900000D02*
X166000000Y-109460000D01*
X157930000Y-109460000D02*
X157930000Y-130650000D01*
X157930000Y-130650000D02*
X174070000Y-130650000D01*
X174070000Y-109460000D02*
X174070000Y-130650000D01*
X160550000Y-106900000D02*
X160550000Y-109460000D01*
X171450000Y-106900000D02*
X171450000Y-109460000D01*
X157930000Y-109460000D02*
X174070000Y-109460000D01*
X174070000Y-86540000D02*
X157930000Y-86540000D01*
X160550000Y-89100000D02*
X160550000Y-86540000D01*
X171450000Y-89100000D02*
X171450000Y-86540000D01*
X157930000Y-86540000D02*
X157930000Y-65350000D01*
X174070000Y-65350000D02*
X157930000Y-65350000D01*
X174070000Y-86540000D02*
X174070000Y-65350000D01*
X166000000Y-89100000D02*
X166000000Y-86540000D01*
X138930000Y-109460000D02*
X155070000Y-109460000D01*
X152450000Y-106900000D02*
X152450000Y-109460000D01*
X141550000Y-106900000D02*
X141550000Y-109460000D01*
X155070000Y-109460000D02*
X155070000Y-130650000D01*
X138930000Y-130650000D02*
X155070000Y-130650000D01*
X138930000Y-109460000D02*
X138930000Y-130650000D01*
X147000000Y-106900000D02*
X147000000Y-109460000D01*
X155070000Y-86540000D02*
X138930000Y-86540000D01*
X141550000Y-89100000D02*
X141550000Y-86540000D01*
X152450000Y-89100000D02*
X152450000Y-86540000D01*
X138930000Y-86540000D02*
X138930000Y-65350000D01*
X155070000Y-65350000D02*
X138930000Y-65350000D01*
X155070000Y-86540000D02*
X155070000Y-65350000D01*
X147000000Y-89100000D02*
X147000000Y-86540000D01*
X119930000Y-109460000D02*
X136070000Y-109460000D01*
X133450000Y-106900000D02*
X133450000Y-109460000D01*
X122550000Y-106900000D02*
X122550000Y-109460000D01*
X136070000Y-109460000D02*
X136070000Y-130650000D01*
X119930000Y-130650000D02*
X136070000Y-130650000D01*
X119930000Y-109460000D02*
X119930000Y-130650000D01*
X128000000Y-106900000D02*
X128000000Y-109460000D01*
X136070000Y-86540000D02*
X119930000Y-86540000D01*
X122550000Y-89100000D02*
X122550000Y-86540000D01*
X133450000Y-89100000D02*
X133450000Y-86540000D01*
X119930000Y-86540000D02*
X119930000Y-65350000D01*
X136070000Y-65350000D02*
X119930000Y-65350000D01*
X136070000Y-86540000D02*
X136070000Y-65350000D01*
X128000000Y-89100000D02*
X128000000Y-86540000D01*
M02*
