G04 #@! TF.GenerationSoftware,KiCad,Pcbnew,6.0.2-1.fc35*
G04 #@! TF.CreationDate,2022-04-02T15:35:03-04:00*
G04 #@! TF.ProjectId,universal-half-bridge,756e6976-6572-4736-916c-2d68616c662d,rev?*
G04 #@! TF.SameCoordinates,Original*
G04 #@! TF.FileFunction,Soldermask,Top*
G04 #@! TF.FilePolarity,Negative*
%FSLAX46Y46*%
G04 Gerber Fmt 4.6, Leading zero omitted, Abs format (unit mm)*
G04 Created by KiCad (PCBNEW 6.0.2-1.fc35) date 2022-04-02 15:35:03*
%MOMM*%
%LPD*%
G01*
G04 APERTURE LIST*
G04 Aperture macros list*
%AMRoundRect*
0 Rectangle with rounded corners*
0 $1 Rounding radius*
0 $2 $3 $4 $5 $6 $7 $8 $9 X,Y pos of 4 corners*
0 Add a 4 corners polygon primitive as box body*
4,1,4,$2,$3,$4,$5,$6,$7,$8,$9,$2,$3,0*
0 Add four circle primitives for the rounded corners*
1,1,$1+$1,$2,$3*
1,1,$1+$1,$4,$5*
1,1,$1+$1,$6,$7*
1,1,$1+$1,$8,$9*
0 Add four rect primitives between the rounded corners*
20,1,$1+$1,$2,$3,$4,$5,0*
20,1,$1+$1,$4,$5,$6,$7,0*
20,1,$1+$1,$6,$7,$8,$9,0*
20,1,$1+$1,$8,$9,$2,$3,0*%
G04 Aperture macros list end*
%ADD10O,8.102000X4.102000*%
%ADD11RoundRect,0.301000X-0.350000X-0.625000X0.350000X-0.625000X0.350000X0.625000X-0.350000X0.625000X0*%
%ADD12O,1.302000X1.852000*%
%ADD13RoundRect,0.301000X0.350000X0.625000X-0.350000X0.625000X-0.350000X-0.625000X0.350000X-0.625000X0*%
%ADD14RoundRect,0.301000X-0.625000X0.350000X-0.625000X-0.350000X0.625000X-0.350000X0.625000X0.350000X0*%
%ADD15O,1.852000X1.302000*%
%ADD16RoundRect,0.301000X-0.625000X0.312500X-0.625000X-0.312500X0.625000X-0.312500X0.625000X0.312500X0*%
%ADD17RoundRect,0.301001X-1.099999X-1.099999X1.099999X-1.099999X1.099999X1.099999X-1.099999X1.099999X0*%
%ADD18C,2.802000*%
%ADD19C,2.102000*%
%ADD20RoundRect,0.051000X-1.000000X-1.000000X1.000000X-1.000000X1.000000X1.000000X-1.000000X1.000000X0*%
%ADD21RoundRect,0.051000X1.000000X1.000000X-1.000000X1.000000X-1.000000X-1.000000X1.000000X-1.000000X0*%
%ADD22RoundRect,0.301000X1.100000X-0.325000X1.100000X0.325000X-1.100000X0.325000X-1.100000X-0.325000X0*%
%ADD23O,2.602000X4.602000*%
%ADD24RoundRect,0.051000X-1.250000X-2.250000X1.250000X-2.250000X1.250000X2.250000X-1.250000X2.250000X0*%
%ADD25O,3.702000X3.702000*%
%ADD26RoundRect,0.051000X1.250000X2.250000X-1.250000X2.250000X-1.250000X-2.250000X1.250000X-2.250000X0*%
%ADD27C,6.502000*%
%ADD28C,0.902000*%
%ADD29C,11.102000*%
%ADD30C,1.002000*%
G04 APERTURE END LIST*
D10*
X124000000Y-98000000D03*
X143000000Y-98000000D03*
X162000000Y-98000000D03*
X191500000Y-101500000D03*
X191500000Y-94500000D03*
D11*
X159750000Y-143200000D03*
D12*
X161750000Y-143200000D03*
D13*
X161750000Y-52050000D03*
D12*
X159750000Y-52050000D03*
D11*
X167000000Y-143200000D03*
D12*
X169000000Y-143200000D03*
D13*
X169000000Y-52050000D03*
D12*
X167000000Y-52050000D03*
D14*
X191550000Y-78500000D03*
D15*
X191550000Y-80500000D03*
D11*
X174250000Y-143200000D03*
D12*
X176250000Y-143200000D03*
D13*
X176250000Y-52000000D03*
D12*
X174250000Y-52000000D03*
D16*
X184500000Y-99462500D03*
X184500000Y-96537500D03*
D17*
X114012500Y-52700000D03*
D18*
X117972500Y-52700000D03*
X121932500Y-52700000D03*
D19*
X105632323Y-129500000D03*
D20*
X100632323Y-129500000D03*
D19*
X105632323Y-117000000D03*
D20*
X100632323Y-117000000D03*
X100632323Y-104500000D03*
D19*
X105632323Y-104500000D03*
D21*
X105500000Y-92000000D03*
D19*
X100500000Y-92000000D03*
D21*
X105750000Y-67000000D03*
D19*
X100750000Y-67000000D03*
D22*
X173500000Y-96525000D03*
X173500000Y-99475000D03*
X170000000Y-96525000D03*
X170000000Y-99475000D03*
X154500000Y-99475000D03*
X154500000Y-96525000D03*
X151000000Y-99475000D03*
X151000000Y-96525000D03*
X132000000Y-96525000D03*
X132000000Y-99475000D03*
D21*
X105750000Y-79500000D03*
D19*
X100750000Y-79500000D03*
D22*
X135500000Y-96525000D03*
X135500000Y-99475000D03*
D23*
X171450000Y-104500000D03*
X166000000Y-104500000D03*
D24*
X160550000Y-104500000D03*
D25*
X166000000Y-124360000D03*
X166000000Y-71640000D03*
D26*
X171450000Y-91500000D03*
D23*
X166000000Y-91500000D03*
X160550000Y-91500000D03*
D25*
X147000000Y-124360000D03*
D24*
X141550000Y-104500000D03*
D23*
X147000000Y-104500000D03*
X152450000Y-104500000D03*
D25*
X147000000Y-71640000D03*
D26*
X152450000Y-91500000D03*
D23*
X147000000Y-91500000D03*
X141550000Y-91500000D03*
D25*
X128000000Y-124360000D03*
D24*
X122550000Y-104500000D03*
D23*
X128000000Y-104500000D03*
X133450000Y-104500000D03*
D25*
X128000000Y-71640000D03*
D26*
X133450000Y-91500000D03*
D23*
X128000000Y-91500000D03*
X122550000Y-91500000D03*
D27*
X187000000Y-58000000D03*
D28*
X189400000Y-58000000D03*
X188697056Y-59697056D03*
X187000000Y-60400000D03*
X185302944Y-59697056D03*
X184600000Y-58000000D03*
X185302944Y-56302944D03*
X187000000Y-55600000D03*
X188697056Y-56302944D03*
D27*
X187000000Y-138000000D03*
D28*
X189400000Y-138000000D03*
X188697056Y-139697056D03*
X187000000Y-140400000D03*
X185302944Y-139697056D03*
X184600000Y-138000000D03*
X185302944Y-136302944D03*
X187000000Y-135600000D03*
X188697056Y-136302944D03*
D27*
X107000000Y-138000000D03*
D28*
X109400000Y-138000000D03*
X108697056Y-139697056D03*
X107000000Y-140400000D03*
X105302944Y-139697056D03*
X104600000Y-138000000D03*
X105302944Y-136302944D03*
X107000000Y-135600000D03*
X108697056Y-136302944D03*
D27*
X107000000Y-58000000D03*
D28*
X109400000Y-58000000D03*
X108697056Y-59697056D03*
X107000000Y-60400000D03*
X105302944Y-59697056D03*
X104600000Y-58000000D03*
X105302944Y-56302944D03*
X107000000Y-55600000D03*
X108697056Y-56302944D03*
D29*
X117000000Y-128000000D03*
D30*
X112875000Y-128000000D03*
X114073185Y-130926815D03*
X117000000Y-132125000D03*
X119926815Y-130926815D03*
X121125000Y-128000000D03*
X119926815Y-125073185D03*
X117000000Y-123875000D03*
X114073185Y-125073185D03*
D29*
X177000000Y-68000000D03*
D30*
X172875000Y-68000000D03*
X174073185Y-70926815D03*
X177000000Y-72125000D03*
X179926815Y-70926815D03*
X181125000Y-68000000D03*
X179926815Y-65073185D03*
X177000000Y-63875000D03*
X174073185Y-65073185D03*
D29*
X177000000Y-128000000D03*
D30*
X172875000Y-128000000D03*
X174073185Y-130926815D03*
X177000000Y-132125000D03*
X179926815Y-130926815D03*
X181125000Y-128000000D03*
X179926815Y-125073185D03*
X177000000Y-123875000D03*
X174073185Y-125073185D03*
D29*
X117000000Y-68000000D03*
D30*
X112875000Y-68000000D03*
X114073185Y-70926815D03*
X117000000Y-72125000D03*
X119926815Y-70926815D03*
X121125000Y-68000000D03*
X119926815Y-65073185D03*
X117000000Y-63875000D03*
X114073185Y-65073185D03*
M02*
