G04 #@! TF.GenerationSoftware,KiCad,Pcbnew,(6.0.10)*
G04 #@! TF.CreationDate,2023-01-16T22:36:07-05:00*
G04 #@! TF.ProjectId,Three-Half-Bridges,54687265-652d-4486-916c-662d42726964,rev?*
G04 #@! TF.SameCoordinates,Original*
G04 #@! TF.FileFunction,Soldermask,Bot*
G04 #@! TF.FilePolarity,Negative*
%FSLAX46Y46*%
G04 Gerber Fmt 4.6, Leading zero omitted, Abs format (unit mm)*
G04 Created by KiCad (PCBNEW (6.0.10)) date 2023-01-16 22:36:07*
%MOMM*%
%LPD*%
G01*
G04 APERTURE LIST*
G04 Aperture macros list*
%AMRoundRect*
0 Rectangle with rounded corners*
0 $1 Rounding radius*
0 $2 $3 $4 $5 $6 $7 $8 $9 X,Y pos of 4 corners*
0 Add a 4 corners polygon primitive as box body*
4,1,4,$2,$3,$4,$5,$6,$7,$8,$9,$2,$3,0*
0 Add four circle primitives for the rounded corners*
1,1,$1+$1,$2,$3*
1,1,$1+$1,$4,$5*
1,1,$1+$1,$6,$7*
1,1,$1+$1,$8,$9*
0 Add four rect primitives between the rounded corners*
20,1,$1+$1,$2,$3,$4,$5,0*
20,1,$1+$1,$4,$5,$6,$7,0*
20,1,$1+$1,$6,$7,$8,$9,0*
20,1,$1+$1,$8,$9,$2,$3,0*%
G04 Aperture macros list end*
%ADD10C,0.902000*%
%ADD11C,6.502000*%
%ADD12RoundRect,0.051000X1.000000X1.000000X-1.000000X1.000000X-1.000000X-1.000000X1.000000X-1.000000X0*%
%ADD13C,2.102000*%
%ADD14RoundRect,0.301000X-0.625000X0.350000X-0.625000X-0.350000X0.625000X-0.350000X0.625000X0.350000X0*%
%ADD15O,1.852000X1.302000*%
%ADD16RoundRect,0.051000X-1.000000X-1.000000X1.000000X-1.000000X1.000000X1.000000X-1.000000X1.000000X0*%
%ADD17RoundRect,0.301000X0.350000X0.625000X-0.350000X0.625000X-0.350000X-0.625000X0.350000X-0.625000X0*%
%ADD18O,1.302000X1.852000*%
%ADD19RoundRect,0.301000X-0.350000X-0.625000X0.350000X-0.625000X0.350000X0.625000X-0.350000X0.625000X0*%
%ADD20RoundRect,0.301001X-1.099999X-1.099999X1.099999X-1.099999X1.099999X1.099999X-1.099999X1.099999X0*%
%ADD21C,2.802000*%
%ADD22O,3.702000X3.702000*%
%ADD23RoundRect,0.051000X1.250000X2.250000X-1.250000X2.250000X-1.250000X-2.250000X1.250000X-2.250000X0*%
%ADD24O,2.602000X4.602000*%
%ADD25RoundRect,0.051000X-1.250000X-2.250000X1.250000X-2.250000X1.250000X2.250000X-1.250000X2.250000X0*%
%ADD26C,1.002000*%
%ADD27C,11.102000*%
%ADD28RoundRect,0.301000X0.262500X0.450000X-0.262500X0.450000X-0.262500X-0.450000X0.262500X-0.450000X0*%
%ADD29RoundRect,0.201000X-0.512500X-0.150000X0.512500X-0.150000X0.512500X0.150000X-0.512500X0.150000X0*%
%ADD30RoundRect,0.301000X-0.262500X-0.450000X0.262500X-0.450000X0.262500X0.450000X-0.262500X0.450000X0*%
%ADD31RoundRect,0.276000X0.250000X-0.225000X0.250000X0.225000X-0.250000X0.225000X-0.250000X-0.225000X0*%
%ADD32O,8.102000X4.102000*%
%ADD33RoundRect,0.551000X-0.500000X0.500000X-0.500000X-0.500000X0.500000X-0.500000X0.500000X0.500000X0*%
%ADD34RoundRect,0.276000X-0.250000X0.225000X-0.250000X-0.225000X0.250000X-0.225000X0.250000X0.225000X0*%
%ADD35RoundRect,0.201000X0.512500X0.150000X-0.512500X0.150000X-0.512500X-0.150000X0.512500X-0.150000X0*%
%ADD36RoundRect,0.051000X1.250000X0.900000X-1.250000X0.900000X-1.250000X-0.900000X1.250000X-0.900000X0*%
%ADD37RoundRect,0.551000X0.500000X-0.500000X0.500000X0.500000X-0.500000X0.500000X-0.500000X-0.500000X0*%
%ADD38RoundRect,0.300999X0.450001X1.425001X-0.450001X1.425001X-0.450001X-1.425001X0.450001X-1.425001X0*%
%ADD39RoundRect,0.300999X-0.450001X-1.425001X0.450001X-1.425001X0.450001X1.425001X-0.450001X1.425001X0*%
%ADD40RoundRect,0.301000X1.100000X-0.325000X1.100000X0.325000X-1.100000X0.325000X-1.100000X-0.325000X0*%
G04 APERTURE END LIST*
D10*
X109400000Y-58000000D03*
X104600000Y-58000000D03*
D11*
X107000000Y-58000000D03*
D10*
X108697056Y-56302944D03*
X107000000Y-60400000D03*
X105302944Y-56302944D03*
X107000000Y-55600000D03*
X108697056Y-59697056D03*
X105302944Y-59697056D03*
X107000000Y-135600000D03*
X109400000Y-138000000D03*
X105302944Y-136302944D03*
X108697056Y-136302944D03*
X105302944Y-139697056D03*
D11*
X107000000Y-138000000D03*
D10*
X107000000Y-140400000D03*
X108697056Y-139697056D03*
X104600000Y-138000000D03*
X189400000Y-138000000D03*
X187000000Y-135600000D03*
X185302944Y-139697056D03*
X188697056Y-136302944D03*
X188697056Y-139697056D03*
X187000000Y-140400000D03*
X184600000Y-138000000D03*
D11*
X187000000Y-138000000D03*
D10*
X185302944Y-136302944D03*
X187000000Y-55600000D03*
X188697056Y-59697056D03*
X187000000Y-60400000D03*
X185302944Y-56302944D03*
X185302944Y-59697056D03*
X189400000Y-58000000D03*
D11*
X187000000Y-58000000D03*
D10*
X184600000Y-58000000D03*
X188697056Y-56302944D03*
D12*
X105500000Y-92000000D03*
D13*
X100500000Y-92000000D03*
D14*
X191550000Y-78500000D03*
D15*
X191550000Y-80500000D03*
D16*
X100632323Y-129500000D03*
D13*
X105632323Y-129500000D03*
D17*
X169000000Y-52050000D03*
D18*
X167000000Y-52050000D03*
D19*
X167000000Y-143200000D03*
D18*
X169000000Y-143200000D03*
D20*
X114012500Y-52700000D03*
D21*
X117972500Y-52700000D03*
X121932500Y-52700000D03*
D22*
X147000000Y-71640000D03*
D23*
X152450000Y-91500000D03*
D24*
X147000000Y-91500000D03*
X141550000Y-91500000D03*
D16*
X100632323Y-117000000D03*
D13*
X105632323Y-117000000D03*
D17*
X176250000Y-52000000D03*
D18*
X174250000Y-52000000D03*
D12*
X105750000Y-79500000D03*
D13*
X100750000Y-79500000D03*
D22*
X166000000Y-71640000D03*
D23*
X171450000Y-91500000D03*
D24*
X166000000Y-91500000D03*
X160550000Y-91500000D03*
D19*
X174250000Y-143200000D03*
D18*
X176250000Y-143200000D03*
D12*
X105750000Y-67000000D03*
D13*
X100750000Y-67000000D03*
D19*
X159750000Y-143200000D03*
D18*
X161750000Y-143200000D03*
D22*
X166000000Y-124360000D03*
D25*
X160550000Y-104500000D03*
D24*
X166000000Y-104500000D03*
X171450000Y-104500000D03*
D22*
X147000000Y-124360000D03*
D25*
X141550000Y-104500000D03*
D24*
X147000000Y-104500000D03*
X152450000Y-104500000D03*
D17*
X161750000Y-52050000D03*
D18*
X159750000Y-52050000D03*
D16*
X100632323Y-104500000D03*
D13*
X105632323Y-104500000D03*
D22*
X128000000Y-71640000D03*
D23*
X133450000Y-91500000D03*
D24*
X128000000Y-91500000D03*
X122550000Y-91500000D03*
D22*
X128000000Y-124360000D03*
D25*
X122550000Y-104500000D03*
D24*
X128000000Y-104500000D03*
X133450000Y-104500000D03*
D26*
X117000000Y-72125000D03*
X121125000Y-68000000D03*
X119926815Y-70926815D03*
X114073185Y-65073185D03*
D27*
X117000000Y-68000000D03*
D26*
X117000000Y-63875000D03*
X119926815Y-65073185D03*
X112875000Y-68000000D03*
X114073185Y-70926815D03*
X177000000Y-123875000D03*
X174073185Y-130926815D03*
D27*
X177000000Y-128000000D03*
D26*
X179926815Y-125073185D03*
X172875000Y-128000000D03*
X174073185Y-125073185D03*
X177000000Y-132125000D03*
X179926815Y-130926815D03*
X181125000Y-128000000D03*
X179926815Y-65073185D03*
D27*
X177000000Y-68000000D03*
D26*
X177000000Y-63875000D03*
X174073185Y-65073185D03*
X181125000Y-68000000D03*
X174073185Y-70926815D03*
X172875000Y-68000000D03*
X179926815Y-70926815D03*
X177000000Y-72125000D03*
X114073185Y-125073185D03*
X119926815Y-130926815D03*
D27*
X117000000Y-128000000D03*
D26*
X121125000Y-128000000D03*
X119926815Y-125073185D03*
X114073185Y-130926815D03*
X117000000Y-132125000D03*
X112875000Y-128000000D03*
X117000000Y-123875000D03*
D28*
X162912500Y-82000000D03*
X161087500Y-82000000D03*
D29*
X160862500Y-87450000D03*
X160862500Y-86500000D03*
X160862500Y-85550000D03*
X163137500Y-85550000D03*
X163137500Y-87450000D03*
D30*
X172087500Y-112500000D03*
X173912500Y-112500000D03*
D31*
X135000000Y-110050000D03*
X135000000Y-108500000D03*
X154000000Y-110050000D03*
X154000000Y-108500000D03*
D30*
X166587500Y-112500000D03*
X168412500Y-112500000D03*
X147587500Y-112500000D03*
X149412500Y-112500000D03*
D31*
X155500000Y-110050000D03*
X155500000Y-108500000D03*
D28*
X166912500Y-82000000D03*
X165087500Y-82000000D03*
D32*
X143000000Y-98000000D03*
D33*
X145730000Y-54190000D03*
X148270000Y-54190000D03*
X148270000Y-61810000D03*
X145730000Y-61810000D03*
D28*
X144000000Y-82000000D03*
X142175000Y-82000000D03*
D32*
X191500000Y-94500000D03*
D34*
X159000000Y-85950000D03*
X159000000Y-87500000D03*
D32*
X124000000Y-98000000D03*
D31*
X173000000Y-110050000D03*
X173000000Y-108500000D03*
D35*
X171137500Y-108550000D03*
X171137500Y-109500000D03*
X171137500Y-110450000D03*
X168862500Y-110450000D03*
X168862500Y-108550000D03*
D36*
X138250000Y-82500000D03*
X134250000Y-82500000D03*
D37*
X142270000Y-141310000D03*
X139730000Y-141310000D03*
X139730000Y-133690000D03*
X142270000Y-133690000D03*
X154270000Y-141310000D03*
X151730000Y-141310000D03*
X151730000Y-133690000D03*
X154270000Y-133690000D03*
D38*
X133550000Y-86500000D03*
X127450000Y-86500000D03*
D31*
X138000000Y-110050000D03*
X138000000Y-108500000D03*
D39*
X122450000Y-109500000D03*
X128550000Y-109500000D03*
D30*
X153087500Y-112500000D03*
X154912500Y-112500000D03*
D34*
X119500000Y-85950000D03*
X119500000Y-87500000D03*
D33*
X139730000Y-54190000D03*
X142270000Y-54190000D03*
X142270000Y-61810000D03*
X139730000Y-61810000D03*
D31*
X174500000Y-110050000D03*
X174500000Y-108500000D03*
D38*
X152550000Y-86500000D03*
X146450000Y-86500000D03*
D31*
X136500000Y-110050000D03*
X136500000Y-108500000D03*
D36*
X119250000Y-82500000D03*
X115250000Y-82500000D03*
D30*
X128087500Y-112500000D03*
X129912500Y-112500000D03*
D35*
X152137500Y-108550000D03*
X152137500Y-109500000D03*
X152137500Y-110450000D03*
X149862500Y-110450000D03*
X149862500Y-108550000D03*
D34*
X137000000Y-85950000D03*
X137000000Y-87500000D03*
D32*
X191500000Y-101500000D03*
D29*
X141862500Y-87450000D03*
X141862500Y-86500000D03*
X141862500Y-85550000D03*
X144137500Y-85550000D03*
X144137500Y-87450000D03*
D40*
X132000000Y-99475000D03*
X132000000Y-96525000D03*
X170000000Y-99475000D03*
X170000000Y-96525000D03*
D37*
X148270000Y-141310000D03*
X145730000Y-141310000D03*
X145730000Y-133690000D03*
X148270000Y-133690000D03*
D34*
X140000000Y-85950000D03*
X140000000Y-87500000D03*
D32*
X162000000Y-98000000D03*
D29*
X122862500Y-87450000D03*
X122862500Y-86500000D03*
X122862500Y-85550000D03*
X125137500Y-85550000D03*
X125137500Y-87450000D03*
D34*
X121000000Y-85950000D03*
X121000000Y-87500000D03*
X138500000Y-85950000D03*
X138500000Y-87500000D03*
X118000000Y-85950000D03*
X118000000Y-87500000D03*
D28*
X147912500Y-82000000D03*
X146087500Y-82000000D03*
D36*
X157250000Y-82500000D03*
X153250000Y-82500000D03*
D31*
X157000000Y-110050000D03*
X157000000Y-108500000D03*
D34*
X157500000Y-85950000D03*
X157500000Y-87500000D03*
D38*
X171550000Y-86500000D03*
X165450000Y-86500000D03*
D31*
X176000000Y-110050000D03*
X176000000Y-108500000D03*
D28*
X124912500Y-82000000D03*
X123087500Y-82000000D03*
D35*
X133137500Y-108550000D03*
X133137500Y-109500000D03*
X133137500Y-110450000D03*
X130862500Y-110450000D03*
X130862500Y-108550000D03*
D30*
X134087500Y-112500000D03*
X135912500Y-112500000D03*
D33*
X151730000Y-54190000D03*
X154270000Y-54190000D03*
X154270000Y-61810000D03*
X151730000Y-61810000D03*
D39*
X141450000Y-109500000D03*
X147550000Y-109500000D03*
D34*
X156000000Y-85950000D03*
X156000000Y-87500000D03*
D40*
X151000000Y-99475000D03*
X151000000Y-96525000D03*
D28*
X129000000Y-82000000D03*
X127175000Y-82000000D03*
D39*
X160450000Y-109500000D03*
X166550000Y-109500000D03*
G36*
X152643527Y-109850000D02*
G01*
X152643527Y-109852000D01*
X152642056Y-109852983D01*
X152641817Y-109853015D01*
X152578204Y-109881154D01*
X152540070Y-109938965D01*
X152539244Y-110008220D01*
X152575983Y-110066914D01*
X152641825Y-110096985D01*
X152642068Y-110097017D01*
X152643655Y-110098235D01*
X152643394Y-110100218D01*
X152641807Y-110101000D01*
X151633205Y-110101000D01*
X151631473Y-110100000D01*
X151631473Y-110098000D01*
X151632944Y-110097017D01*
X151633183Y-110096985D01*
X151696796Y-110068846D01*
X151734930Y-110011035D01*
X151735756Y-109941780D01*
X151699017Y-109883086D01*
X151633175Y-109853015D01*
X151632932Y-109852983D01*
X151631345Y-109851765D01*
X151631606Y-109849782D01*
X151633193Y-109849000D01*
X152641795Y-109849000D01*
X152643527Y-109850000D01*
G37*
G36*
X171643527Y-109850000D02*
G01*
X171643527Y-109852000D01*
X171642056Y-109852983D01*
X171641817Y-109853015D01*
X171578204Y-109881154D01*
X171540070Y-109938965D01*
X171539244Y-110008220D01*
X171575983Y-110066914D01*
X171641825Y-110096985D01*
X171642068Y-110097017D01*
X171643655Y-110098235D01*
X171643394Y-110100218D01*
X171641807Y-110101000D01*
X170633205Y-110101000D01*
X170631473Y-110100000D01*
X170631473Y-110098000D01*
X170632944Y-110097017D01*
X170633183Y-110096985D01*
X170696796Y-110068846D01*
X170734930Y-110011035D01*
X170735756Y-109941780D01*
X170699017Y-109883086D01*
X170633175Y-109853015D01*
X170632932Y-109852983D01*
X170631345Y-109851765D01*
X170631606Y-109849782D01*
X170633193Y-109849000D01*
X171641795Y-109849000D01*
X171643527Y-109850000D01*
G37*
G36*
X133643527Y-109850000D02*
G01*
X133643527Y-109852000D01*
X133642056Y-109852983D01*
X133641817Y-109853015D01*
X133578204Y-109881154D01*
X133540070Y-109938965D01*
X133539244Y-110008220D01*
X133575983Y-110066914D01*
X133641825Y-110096985D01*
X133642068Y-110097017D01*
X133643655Y-110098235D01*
X133643394Y-110100218D01*
X133641807Y-110101000D01*
X132633205Y-110101000D01*
X132631473Y-110100000D01*
X132631473Y-110098000D01*
X132632944Y-110097017D01*
X132633183Y-110096985D01*
X132696796Y-110068846D01*
X132734930Y-110011035D01*
X132735756Y-109941780D01*
X132699017Y-109883086D01*
X132633175Y-109853015D01*
X132632932Y-109852983D01*
X132631345Y-109851765D01*
X132631606Y-109849782D01*
X132633193Y-109849000D01*
X133641795Y-109849000D01*
X133643527Y-109850000D01*
G37*
G36*
X171643527Y-108900000D02*
G01*
X171643527Y-108902000D01*
X171642056Y-108902983D01*
X171641817Y-108903015D01*
X171578204Y-108931154D01*
X171540070Y-108988965D01*
X171539244Y-109058220D01*
X171575983Y-109116914D01*
X171641825Y-109146985D01*
X171642068Y-109147017D01*
X171643655Y-109148235D01*
X171643394Y-109150218D01*
X171641807Y-109151000D01*
X170633205Y-109151000D01*
X170631473Y-109150000D01*
X170631473Y-109148000D01*
X170632944Y-109147017D01*
X170633183Y-109146985D01*
X170696796Y-109118846D01*
X170734930Y-109061035D01*
X170735756Y-108991780D01*
X170699017Y-108933086D01*
X170633175Y-108903015D01*
X170632932Y-108902983D01*
X170631345Y-108901765D01*
X170631606Y-108899782D01*
X170633193Y-108899000D01*
X171641795Y-108899000D01*
X171643527Y-108900000D01*
G37*
G36*
X133643527Y-108900000D02*
G01*
X133643527Y-108902000D01*
X133642056Y-108902983D01*
X133641817Y-108903015D01*
X133578204Y-108931154D01*
X133540070Y-108988965D01*
X133539244Y-109058220D01*
X133575983Y-109116914D01*
X133641825Y-109146985D01*
X133642068Y-109147017D01*
X133643655Y-109148235D01*
X133643394Y-109150218D01*
X133641807Y-109151000D01*
X132633205Y-109151000D01*
X132631473Y-109150000D01*
X132631473Y-109148000D01*
X132632944Y-109147017D01*
X132633183Y-109146985D01*
X132696796Y-109118846D01*
X132734930Y-109061035D01*
X132735756Y-108991780D01*
X132699017Y-108933086D01*
X132633175Y-108903015D01*
X132632932Y-108902983D01*
X132631345Y-108901765D01*
X132631606Y-108899782D01*
X132633193Y-108899000D01*
X133641795Y-108899000D01*
X133643527Y-108900000D01*
G37*
G36*
X152643527Y-108900000D02*
G01*
X152643527Y-108902000D01*
X152642056Y-108902983D01*
X152641817Y-108903015D01*
X152578204Y-108931154D01*
X152540070Y-108988965D01*
X152539244Y-109058220D01*
X152575983Y-109116914D01*
X152641825Y-109146985D01*
X152642068Y-109147017D01*
X152643655Y-109148235D01*
X152643394Y-109150218D01*
X152641807Y-109151000D01*
X151633205Y-109151000D01*
X151631473Y-109150000D01*
X151631473Y-109148000D01*
X151632944Y-109147017D01*
X151633183Y-109146985D01*
X151696796Y-109118846D01*
X151734930Y-109061035D01*
X151735756Y-108991780D01*
X151699017Y-108933086D01*
X151633175Y-108903015D01*
X151632932Y-108902983D01*
X151631345Y-108901765D01*
X151631606Y-108899782D01*
X151633193Y-108899000D01*
X152641795Y-108899000D01*
X152643527Y-108900000D01*
G37*
G36*
X123368527Y-86850000D02*
G01*
X123368527Y-86852000D01*
X123367056Y-86852983D01*
X123366817Y-86853015D01*
X123303204Y-86881154D01*
X123265070Y-86938965D01*
X123264244Y-87008220D01*
X123300983Y-87066914D01*
X123366825Y-87096985D01*
X123367068Y-87097017D01*
X123368655Y-87098235D01*
X123368394Y-87100218D01*
X123366807Y-87101000D01*
X122358205Y-87101000D01*
X122356473Y-87100000D01*
X122356473Y-87098000D01*
X122357944Y-87097017D01*
X122358183Y-87096985D01*
X122421796Y-87068846D01*
X122459930Y-87011035D01*
X122460756Y-86941780D01*
X122424017Y-86883086D01*
X122358175Y-86853015D01*
X122357932Y-86852983D01*
X122356345Y-86851765D01*
X122356606Y-86849782D01*
X122358193Y-86849000D01*
X123366795Y-86849000D01*
X123368527Y-86850000D01*
G37*
G36*
X142368527Y-86850000D02*
G01*
X142368527Y-86852000D01*
X142367056Y-86852983D01*
X142366817Y-86853015D01*
X142303204Y-86881154D01*
X142265070Y-86938965D01*
X142264244Y-87008220D01*
X142300983Y-87066914D01*
X142366825Y-87096985D01*
X142367068Y-87097017D01*
X142368655Y-87098235D01*
X142368394Y-87100218D01*
X142366807Y-87101000D01*
X141358205Y-87101000D01*
X141356473Y-87100000D01*
X141356473Y-87098000D01*
X141357944Y-87097017D01*
X141358183Y-87096985D01*
X141421796Y-87068846D01*
X141459930Y-87011035D01*
X141460756Y-86941780D01*
X141424017Y-86883086D01*
X141358175Y-86853015D01*
X141357932Y-86852983D01*
X141356345Y-86851765D01*
X141356606Y-86849782D01*
X141358193Y-86849000D01*
X142366795Y-86849000D01*
X142368527Y-86850000D01*
G37*
G36*
X161368527Y-86850000D02*
G01*
X161368527Y-86852000D01*
X161367056Y-86852983D01*
X161366817Y-86853015D01*
X161303204Y-86881154D01*
X161265070Y-86938965D01*
X161264244Y-87008220D01*
X161300983Y-87066914D01*
X161366825Y-87096985D01*
X161367068Y-87097017D01*
X161368655Y-87098235D01*
X161368394Y-87100218D01*
X161366807Y-87101000D01*
X160358205Y-87101000D01*
X160356473Y-87100000D01*
X160356473Y-87098000D01*
X160357944Y-87097017D01*
X160358183Y-87096985D01*
X160421796Y-87068846D01*
X160459930Y-87011035D01*
X160460756Y-86941780D01*
X160424017Y-86883086D01*
X160358175Y-86853015D01*
X160357932Y-86852983D01*
X160356345Y-86851765D01*
X160356606Y-86849782D01*
X160358193Y-86849000D01*
X161366795Y-86849000D01*
X161368527Y-86850000D01*
G37*
G36*
X123368527Y-85900000D02*
G01*
X123368527Y-85902000D01*
X123367056Y-85902983D01*
X123366817Y-85903015D01*
X123303204Y-85931154D01*
X123265070Y-85988965D01*
X123264244Y-86058220D01*
X123300983Y-86116914D01*
X123366825Y-86146985D01*
X123367068Y-86147017D01*
X123368655Y-86148235D01*
X123368394Y-86150218D01*
X123366807Y-86151000D01*
X122358205Y-86151000D01*
X122356473Y-86150000D01*
X122356473Y-86148000D01*
X122357944Y-86147017D01*
X122358183Y-86146985D01*
X122421796Y-86118846D01*
X122459930Y-86061035D01*
X122460756Y-85991780D01*
X122424017Y-85933086D01*
X122358175Y-85903015D01*
X122357932Y-85902983D01*
X122356345Y-85901765D01*
X122356606Y-85899782D01*
X122358193Y-85899000D01*
X123366795Y-85899000D01*
X123368527Y-85900000D01*
G37*
G36*
X142368527Y-85900000D02*
G01*
X142368527Y-85902000D01*
X142367056Y-85902983D01*
X142366817Y-85903015D01*
X142303204Y-85931154D01*
X142265070Y-85988965D01*
X142264244Y-86058220D01*
X142300983Y-86116914D01*
X142366825Y-86146985D01*
X142367068Y-86147017D01*
X142368655Y-86148235D01*
X142368394Y-86150218D01*
X142366807Y-86151000D01*
X141358205Y-86151000D01*
X141356473Y-86150000D01*
X141356473Y-86148000D01*
X141357944Y-86147017D01*
X141358183Y-86146985D01*
X141421796Y-86118846D01*
X141459930Y-86061035D01*
X141460756Y-85991780D01*
X141424017Y-85933086D01*
X141358175Y-85903015D01*
X141357932Y-85902983D01*
X141356345Y-85901765D01*
X141356606Y-85899782D01*
X141358193Y-85899000D01*
X142366795Y-85899000D01*
X142368527Y-85900000D01*
G37*
G36*
X161368527Y-85900000D02*
G01*
X161368527Y-85902000D01*
X161367056Y-85902983D01*
X161366817Y-85903015D01*
X161303204Y-85931154D01*
X161265070Y-85988965D01*
X161264244Y-86058220D01*
X161300983Y-86116914D01*
X161366825Y-86146985D01*
X161367068Y-86147017D01*
X161368655Y-86148235D01*
X161368394Y-86150218D01*
X161366807Y-86151000D01*
X160358205Y-86151000D01*
X160356473Y-86150000D01*
X160356473Y-86148000D01*
X160357944Y-86147017D01*
X160358183Y-86146985D01*
X160421796Y-86118846D01*
X160459930Y-86061035D01*
X160460756Y-85991780D01*
X160424017Y-85933086D01*
X160358175Y-85903015D01*
X160357932Y-85902983D01*
X160356345Y-85901765D01*
X160356606Y-85899782D01*
X160358193Y-85899000D01*
X161366795Y-85899000D01*
X161368527Y-85900000D01*
G37*
M02*
