G04 #@! TF.GenerationSoftware,KiCad,Pcbnew,8.0.6-1.fc40*
G04 #@! TF.CreationDate,2024-11-25T04:38:10-05:00*
G04 #@! TF.ProjectId,three_half_bridges,74687265-655f-4686-916c-665f62726964,rev?*
G04 #@! TF.SameCoordinates,Original*
G04 #@! TF.FileFunction,Soldermask,Bot*
G04 #@! TF.FilePolarity,Negative*
%FSLAX46Y46*%
G04 Gerber Fmt 4.6, Leading zero omitted, Abs format (unit mm)*
G04 Created by KiCad (PCBNEW 8.0.6-1.fc40) date 2024-11-25 04:38:10*
%MOMM*%
%LPD*%
G01*
G04 APERTURE LIST*
G04 Aperture macros list*
%AMRoundRect*
0 Rectangle with rounded corners*
0 $1 Rounding radius*
0 $2 $3 $4 $5 $6 $7 $8 $9 X,Y pos of 4 corners*
0 Add a 4 corners polygon primitive as box body*
4,1,4,$2,$3,$4,$5,$6,$7,$8,$9,$2,$3,0*
0 Add four circle primitives for the rounded corners*
1,1,$1+$1,$2,$3*
1,1,$1+$1,$4,$5*
1,1,$1+$1,$6,$7*
1,1,$1+$1,$8,$9*
0 Add four rect primitives between the rounded corners*
20,1,$1+$1,$2,$3,$4,$5,0*
20,1,$1+$1,$4,$5,$6,$7,0*
20,1,$1+$1,$6,$7,$8,$9,0*
20,1,$1+$1,$8,$9,$2,$3,0*%
G04 Aperture macros list end*
%ADD10C,0.100000*%
%ADD11O,5.102000X3.302000*%
%ADD12O,3.302000X5.102000*%
%ADD13C,0.902000*%
%ADD14C,6.502000*%
%ADD15C,1.002000*%
%ADD16C,11.102000*%
%ADD17C,1.302000*%
%ADD18RoundRect,0.265000X0.786000X-0.636000X0.786000X0.636000X-0.786000X0.636000X-0.786000X-0.636000X0*%
%ADD19O,2.102000X1.802000*%
%ADD20RoundRect,0.175500X0.175500X-0.538000X0.175500X0.538000X-0.175500X0.538000X-0.175500X-0.538000X0*%
%ADD21RoundRect,0.250500X-0.275500X0.250500X-0.275500X-0.250500X0.275500X-0.250500X0.275500X0.250500X0*%
%ADD22RoundRect,0.051000X1.250000X2.250000X-1.250000X2.250000X-1.250000X-2.250000X1.250000X-2.250000X0*%
%ADD23O,2.602000X4.602000*%
%ADD24RoundRect,0.051000X-1.250000X-2.250000X1.250000X-2.250000X1.250000X2.250000X-1.250000X2.250000X0*%
%ADD25RoundRect,0.268214X1.482786X-0.482786X1.482786X0.482786X-1.482786X0.482786X-1.482786X-0.482786X0*%
%ADD26RoundRect,0.225500X-0.475500X0.225500X-0.475500X-0.225500X0.475500X-0.225500X0.475500X0.225500X0*%
%ADD27O,1.402000X0.902000*%
G04 APERTURE END LIST*
D10*
X105100000Y-61750000D02*
X180000000Y-61750000D01*
X180000000Y-66500000D01*
X105100000Y-66500000D01*
X105100000Y-61750000D01*
G36*
X105100000Y-61750000D02*
G01*
X180000000Y-61750000D01*
X180000000Y-66500000D01*
X105100000Y-66500000D01*
X105100000Y-61750000D01*
G37*
X105000000Y-93500000D02*
X180000000Y-93500000D01*
X180000000Y-97500000D01*
X105000000Y-97500000D01*
X105000000Y-93500000D01*
G36*
X105000000Y-93500000D02*
G01*
X180000000Y-93500000D01*
X180000000Y-97500000D01*
X105000000Y-97500000D01*
X105000000Y-93500000D01*
G37*
D11*
X109500000Y-32000000D03*
X109500000Y-39000000D03*
X118800000Y-32000000D03*
X118800000Y-39000000D03*
X126000000Y-32000000D03*
X126000000Y-39000000D03*
X135300000Y-32000000D03*
X135300000Y-39000000D03*
X142500000Y-32000000D03*
X142500000Y-39000000D03*
X151800000Y-32000000D03*
X151800000Y-39000000D03*
D12*
X171250000Y-93250000D03*
X178250000Y-93250000D03*
X171250000Y-83950000D03*
X178250000Y-83950000D03*
X171250000Y-66250000D03*
X178250000Y-66250000D03*
X171250000Y-75550000D03*
X178250000Y-75550000D03*
D13*
X171600000Y-124000000D03*
X172302944Y-122302944D03*
X172302944Y-125697056D03*
X174000000Y-121600000D03*
D14*
X174000000Y-124000000D03*
D13*
X174000000Y-126400000D03*
X175697056Y-122302944D03*
X175697056Y-125697056D03*
X176400000Y-124000000D03*
D15*
X155875000Y-110000000D03*
X157073185Y-107073185D03*
X157073185Y-112926815D03*
X160000000Y-105875000D03*
D16*
X160000000Y-110000000D03*
D15*
X160000000Y-114125000D03*
X162926815Y-107073185D03*
X162926815Y-112926815D03*
X164125000Y-110000000D03*
X95875000Y-50000000D03*
X97073185Y-47073185D03*
X97073185Y-52926815D03*
X100000000Y-45875000D03*
D16*
X100000000Y-50000000D03*
D15*
X100000000Y-54125000D03*
X102926815Y-47073185D03*
X102926815Y-52926815D03*
X104125000Y-50000000D03*
D13*
X171600000Y-36000000D03*
X172302944Y-34302944D03*
X172302944Y-37697056D03*
X174000000Y-33600000D03*
D14*
X174000000Y-36000000D03*
D13*
X174000000Y-38400000D03*
X175697056Y-34302944D03*
X175697056Y-37697056D03*
X176400000Y-36000000D03*
D15*
X95875000Y-110050000D03*
X97073185Y-107123185D03*
X97073185Y-112976815D03*
D16*
X99875000Y-110050000D03*
D15*
X100000000Y-105925000D03*
X100000000Y-114175000D03*
X102926815Y-107123185D03*
X102926815Y-112976815D03*
X104125000Y-110050000D03*
D13*
X83652944Y-124000000D03*
X84355888Y-122302944D03*
X84355888Y-125697056D03*
X86052944Y-121600000D03*
D14*
X86052944Y-124000000D03*
D13*
X86052944Y-126400000D03*
X87750000Y-122302944D03*
X87750000Y-125697056D03*
X88452944Y-124000000D03*
D17*
X102000000Y-127850000D03*
D18*
X100000000Y-126250000D03*
D19*
X100000000Y-123750000D03*
D15*
X155875000Y-50000000D03*
X157073185Y-47073185D03*
X157073185Y-52926815D03*
X160000000Y-45875000D03*
D16*
X160000000Y-50000000D03*
D15*
X160000000Y-54125000D03*
X162926815Y-47073185D03*
X162926815Y-52926815D03*
X164125000Y-50000000D03*
D13*
X83600000Y-36000000D03*
X84302944Y-34302944D03*
X84302944Y-37697056D03*
X86000000Y-33600000D03*
D14*
X86000000Y-36000000D03*
D13*
X86000000Y-38400000D03*
X87697056Y-34302944D03*
X87697056Y-37697056D03*
X88400000Y-36000000D03*
D20*
X136200000Y-125887500D03*
X135250000Y-125887500D03*
X134300000Y-125887500D03*
X134300000Y-123612500D03*
X135250000Y-123612500D03*
X136200000Y-123612500D03*
D21*
X148250000Y-123225000D03*
X148250000Y-124775000D03*
D22*
X135500000Y-90000000D03*
D23*
X130050000Y-90000000D03*
X124600000Y-90000000D03*
D21*
X119750000Y-123225000D03*
X119750000Y-124775000D03*
D24*
X124500000Y-70000000D03*
D23*
X129950000Y-70000000D03*
X135400000Y-70000000D03*
D20*
X123200000Y-125887500D03*
X122250000Y-125887500D03*
X121300000Y-125887500D03*
X121300000Y-123612500D03*
X122250000Y-123612500D03*
X123200000Y-123612500D03*
D25*
X157000000Y-82050000D03*
X157000000Y-77950000D03*
D21*
X132750000Y-123225000D03*
X132750000Y-124775000D03*
D24*
X108000000Y-70000000D03*
D23*
X113450000Y-70000000D03*
X118900000Y-70000000D03*
D25*
X108250000Y-81800000D03*
X108250000Y-77700000D03*
X141250000Y-82050000D03*
X141250000Y-77950000D03*
D26*
X82700000Y-70375000D03*
D27*
X82700000Y-71625000D03*
X82700000Y-72875000D03*
X82700000Y-74125000D03*
X82700000Y-75375000D03*
X82700000Y-76625000D03*
D26*
X82700000Y-80875000D03*
D27*
X82700000Y-82125000D03*
X82700000Y-83375000D03*
X82700000Y-84625000D03*
X82700000Y-85875000D03*
X82700000Y-87125000D03*
D26*
X82700000Y-59875000D03*
D27*
X82700000Y-61125000D03*
X82700000Y-62375000D03*
X82700000Y-63625000D03*
X82700000Y-64875000D03*
X82700000Y-66125000D03*
D25*
X165000000Y-82050000D03*
X165000000Y-77950000D03*
D26*
X82750000Y-43250000D03*
D27*
X82750000Y-44500000D03*
X82750000Y-45750000D03*
X82750000Y-47000000D03*
X82750000Y-48250000D03*
X82750000Y-49500000D03*
X82750000Y-50750000D03*
X82750000Y-52000000D03*
D22*
X152000000Y-90000000D03*
D23*
X146550000Y-90000000D03*
X141100000Y-90000000D03*
D21*
X140500000Y-123225000D03*
X140500000Y-124775000D03*
D24*
X141000000Y-70000000D03*
D23*
X146450000Y-70000000D03*
X151900000Y-70000000D03*
D20*
X151700000Y-125887500D03*
X150750000Y-125887500D03*
X149800000Y-125887500D03*
X149800000Y-123612500D03*
X150750000Y-123612500D03*
X151700000Y-123612500D03*
D22*
X119000000Y-90000000D03*
D23*
X113550000Y-90000000D03*
X108100000Y-90000000D03*
D20*
X143950000Y-125887500D03*
X143000000Y-125887500D03*
X142050000Y-125887500D03*
X142050000Y-123612500D03*
X143000000Y-123612500D03*
X143950000Y-123612500D03*
D25*
X161000000Y-82050000D03*
X161000000Y-77950000D03*
X124750000Y-82050000D03*
X124750000Y-77950000D03*
M02*
