M48
; DRILL file {KiCad 8.0.6-1.fc40} date 2024-11-25T13:37:09-0500
; FORMAT={-:-/ absolute / inch / decimal}
; #@! TF.CreationDate,2024-11-25T13:37:09-05:00
; #@! TF.GenerationSoftware,Kicad,Pcbnew,8.0.6-1.fc40
; #@! TF.FileFunction,Plated,1,4,PTH
FMAT,2
INCH
; #@! TA.AperFunction,Plated,PTH,ViaDrill
T1C0.0157
; #@! TA.AperFunction,Plated,PTH,ComponentDrill
T2C0.0197
; #@! TA.AperFunction,Plated,PTH,ComponentDrill
T3C0.0236
; #@! TA.AperFunction,Plated,PTH,ComponentDrill
T4C0.0394
; #@! TA.AperFunction,Plated,PTH,ComponentDrill
T5C0.0591
; #@! TA.AperFunction,Plated,PTH,ComponentDrill
T6C0.0630
; #@! TA.AperFunction,Plated,PTH,ComponentDrill
T7C0.1260
; #@! TA.AperFunction,Plated,PTH,ComponentDrill
T8C0.2165
%
G90
G05
T1
X3.1693Y-1.2303
X3.1693Y-1.2795
X3.1693Y-1.3287
X3.1693Y-1.378
X3.1693Y-1.4272
X3.1693Y-1.4764
X3.1693Y-1.5256
X3.1693Y-1.5748
X3.1693Y-1.624
X3.1693Y-1.6732
X3.1693Y-1.7224
X3.1693Y-1.7717
X3.1693Y-1.8209
X3.1693Y-1.8701
X3.1693Y-1.9193
X3.1693Y-1.9685
X3.1693Y-2.0177
X3.1693Y-2.0669
X3.1693Y-2.1161
X3.1693Y-2.1654
X3.1693Y-2.2146
X3.1693Y-2.2638
X3.1693Y-2.313
X3.1693Y-2.3622
X3.1693Y-2.4114
X3.1693Y-2.4606
X3.1693Y-2.5098
X3.1693Y-2.5591
X3.1693Y-2.6083
X3.1693Y-2.6575
X3.1693Y-2.7067
X3.1693Y-2.7559
X3.1693Y-2.8051
X3.1693Y-2.8543
X3.1693Y-2.9035
X3.1693Y-2.9528
X3.1693Y-3.002
X3.1693Y-3.0512
X3.1693Y-3.1004
X3.1693Y-3.1496
X3.1693Y-3.1988
X3.1693Y-3.248
X3.1693Y-3.2972
X3.1693Y-3.3465
X3.1693Y-3.3957
X3.1693Y-3.4449
X3.1693Y-3.4941
X3.1693Y-3.5433
X3.1693Y-3.5925
X3.1693Y-3.6417
X3.1693Y-3.6909
X3.1693Y-3.7402
X3.1693Y-3.7894
X3.1693Y-3.8386
X3.1693Y-3.8878
X3.1693Y-3.937
X3.1693Y-3.9862
X3.1693Y-4.0354
X3.1693Y-4.0846
X3.1693Y-4.1339
X3.1693Y-4.1831
X3.1693Y-4.2323
X3.1693Y-4.2815
X3.1693Y-4.3307
X3.1693Y-4.3799
X3.1693Y-4.4291
X3.1693Y-4.4783
X3.1693Y-4.5276
X3.1693Y-4.5768
X3.1693Y-4.626
X3.1693Y-4.6752
X3.1693Y-4.7244
X3.1693Y-4.7736
X3.1693Y-4.8228
X3.1693Y-4.872
X3.1693Y-4.9213
X3.1693Y-4.9705
X3.1693Y-5.0197
X3.1693Y-5.0689
X3.1988Y-1.2008
X3.1988Y-5.0984
X3.248Y-1.2008
X3.248Y-5.0984
X3.2677Y-2.2146
X3.2677Y-2.2638
X3.2756Y-3.4803
X3.2756Y-3.5276
X3.2756Y-3.5748
X3.2756Y-3.622
X3.2756Y-3.6693
X3.2756Y-3.7244
X3.2776Y-2.1752
X3.2972Y-1.2008
X3.2972Y-2.2933
X3.2972Y-5.0984
X3.2992Y-3.7638
X3.3071Y-2.1457
X3.3071Y-2.6063
X3.3228Y-3.315
X3.3307Y-3.8031
X3.3366Y-2.1161
X3.3386Y-1.7087
X3.3465Y-1.2008
X3.3465Y-2.2933
X3.3465Y-2.6063
X3.3465Y-2.6476
X3.3465Y-2.687
X3.3465Y-2.9429
X3.3465Y-2.9921
X3.3465Y-3.0413
X3.3465Y-3.0906
X3.3465Y-5.0984
X3.3563Y-2.0768
X3.3622Y-3.2835
X3.3661Y-2.0374
X3.3701Y-3.8425
X3.378Y-2.9134
X3.3858Y-1.7028
X3.3858Y-2.0079
X3.3858Y-3.3563
X3.3858Y-3.3957
X3.3858Y-3.4941
X3.3858Y-3.5335
X3.3937Y-2.6063
X3.3957Y-1.2008
X3.3957Y-2.2933
X3.3957Y-2.6476
X3.3957Y-5.0984
X3.4016Y-3.252
X3.4094Y-2.8819
X3.4094Y-3.874
X3.4154Y-1.9783
X3.4154Y-3.6319
X3.4154Y-3.7205
X3.4252Y-1.685
X3.4252Y-3.3563
X3.4252Y-3.4941
X3.4252Y-3.5335
X3.4262Y-3.3947
X3.435Y-3.937
X3.435Y-4.0846
X3.435Y-4.1339
X3.435Y-4.1831
X3.435Y-4.2323
X3.435Y-4.2815
X3.435Y-4.3307
X3.435Y-4.3799
X3.435Y-4.4291
X3.435Y-4.4783
X3.435Y-4.5276
X3.435Y-4.5768
X3.4409Y-2.6063
X3.4439Y-2.8268
X3.4449Y-1.2008
X3.4449Y-1.9488
X3.4449Y-2.2933
X3.4449Y-5.0984
X3.4547Y-3.6319
X3.4567Y-1.6535
X3.4567Y-3.7205
X3.4567Y-3.874
X3.4646Y-2.5098
X3.4646Y-2.5591
X3.4646Y-2.7874
X3.4646Y-4.6161
X3.4744Y-1.9193
X3.4882Y-1.622
X3.4941Y-1.2008
X3.4941Y-5.0984
X3.5039Y-1.8898
X3.5039Y-4.6555
X3.5098Y-3.2215
X3.5098Y-3.2746
X3.5138Y-3.5404
X3.5142Y-3.497
X3.5197Y-1.5906
X3.5335Y-1.8602
X3.5433Y-1.2008
X3.5433Y-2.3659
X3.5433Y-2.6337
X3.5433Y-2.9014
X3.5433Y-3.1691
X3.5433Y-3.4368
X3.5433Y-4.6949
X3.5433Y-5.0984
X3.5512Y-1.5591
X3.5531Y-3.7045
X3.563Y-1.8307
X3.5827Y-1.5276
X3.5827Y-4.7343
X3.5925Y-1.2008
X3.5925Y-1.8012
X3.5925Y-2.2933
X3.5925Y-3.8878
X3.5925Y-5.0984
X3.6024Y-2.5689
X3.6024Y-3.6319
X3.6063Y-2.8346
X3.6063Y-3.1102
X3.6063Y-3.376
X3.6142Y-1.4961
X3.622Y-1.7717
X3.622Y-4.7736
X3.6417Y-1.2008
X3.6417Y-2.2146
X3.6417Y-2.2539
X3.6417Y-2.2933
X3.6417Y-3.8878
X3.6417Y-3.937
X3.6417Y-3.9862
X3.6417Y-4.0354
X3.6417Y-4.0846
X3.6417Y-4.1339
X3.6417Y-5.0984
X3.6516Y-1.4862
X3.6516Y-1.7421
X3.6614Y-2.185
X3.6614Y-4.813
X3.6811Y-1.7126
X3.6909Y-1.2008
X3.6909Y-1.4862
X3.6909Y-4.1339
X3.6909Y-5.0984
X3.7008Y-2.185
X3.7008Y-4.8524
X3.7106Y-1.6929
X3.7303Y-1.4862
X3.7402Y-1.2008
X3.7402Y-2.185
X3.7402Y-4.1339
X3.7402Y-4.8819
X3.7402Y-5.0984
X3.75Y-1.6831
X3.7697Y-1.4862
X3.7795Y-2.185
X3.7795Y-4.9016
X3.7894Y-1.2008
X3.7894Y-1.6831
X3.7894Y-5.0984
X3.7982Y-2.4159
X3.7982Y-2.4659
X3.7982Y-2.6837
X3.7982Y-2.7337
X3.7982Y-2.9514
X3.7982Y-3.0014
X3.7982Y-3.2191
X3.7982Y-3.4868
X3.7982Y-3.5368
X3.7982Y-3.7545
X3.7982Y-3.8045
X3.7992Y-3.2691
X3.8091Y-1.4862
X3.8189Y-2.185
X3.8287Y-1.6831
X3.8287Y-4.9016
X3.8386Y-1.2008
X3.8386Y-5.0984
X3.8484Y-1.4862
X3.8484Y-3.1624
X3.8484Y-3.4301
X3.8681Y-1.6831
X3.878Y-3.6516
X3.878Y-3.9173
X3.878Y-4.9016
X3.8878Y-1.2008
X3.8878Y-1.4862
X3.8878Y-5.0984
X3.9055Y-2.69
X3.9055Y-2.9577
X3.9075Y-1.6831
X3.9075Y-2.748
X3.9114Y-3.012
X3.9129Y-2.4222
X3.9272Y-1.4862
X3.9272Y-3.3191
X3.937Y-1.2008
X3.937Y-5.0984
X3.9469Y-1.6929
X3.9665Y-1.4862
X3.9665Y-3.5925
X3.9764Y-1.7224
X3.9862Y-1.2008
X3.9862Y-4.9016
X3.9862Y-5.0984
X4.0059Y-1.4862
X4.0305Y-3.7402
X4.0354Y-1.2008
X4.0354Y-1.5157
X4.0354Y-4.9016
X4.0354Y-5.0984
X4.065Y-1.5453
X4.0846Y-1.2008
X4.0846Y-4.9016
X4.0846Y-5.0984
X4.0945Y-1.5748
X4.1339Y-1.2008
X4.1339Y-1.25
X4.1339Y-1.2992
X4.1339Y-1.3484
X4.1339Y-1.3976
X4.1339Y-1.4469
X4.1339Y-1.4961
X4.1339Y-1.5453
X4.1339Y-1.5945
X4.1339Y-4.5079
X4.1339Y-4.5571
X4.1339Y-4.6063
X4.1339Y-4.6555
X4.1339Y-4.7047
X4.1339Y-4.7539
X4.1339Y-4.8031
X4.1339Y-4.8524
X4.1339Y-4.9016
X4.1339Y-5.0984
X4.1535Y-2.0866
X4.1634Y-1.8701
X4.1831Y-4.9016
X4.1831Y-5.0984
X4.1929Y-2.0866
X4.2028Y-1.8701
X4.2028Y-2.9035
X4.2028Y-3.002
X4.2283Y-3.4331
X4.2323Y-2.0866
X4.2323Y-4.9016
X4.2323Y-5.0984
X4.2421Y-1.8701
X4.2421Y-2.9035
X4.2421Y-3.002
X4.2598Y-3.4331
X4.2717Y-2.0866
X4.2815Y-1.8701
X4.2815Y-2.9035
X4.2815Y-3.002
X4.2815Y-4.9016
X4.2815Y-5.0984
X4.2913Y-3.4331
X4.31Y-1.9587
X4.31Y-2.0177
X4.3209Y-1.8701
X4.3209Y-3.002
X4.3307Y-2.127
X4.3307Y-4.9016
X4.3307Y-5.0984
X4.3406Y-3.7697
X4.3406Y-3.8091
X4.378Y-2.1516
X4.3799Y-3.7697
X4.3799Y-3.8091
X4.3799Y-4.9016
X4.3799Y-5.0984
X4.4094Y-3.9409
X4.4193Y-1.9435
X4.4193Y-1.9935
X4.4193Y-2.0435
X4.4291Y-2.8642
X4.4291Y-4.9016
X4.4291Y-5.0984
X4.437Y-3.437
X4.439Y-1.8012
X4.4587Y-2.8642
X4.4685Y-1.8307
X4.4685Y-3.437
X4.4783Y-4.9016
X4.4783Y-5.0984
X4.4921Y-2.8642
X4.498Y-1.8602
X4.5Y-3.437
X4.5276Y-4.9016
X4.5276Y-5.0984
X4.5768Y-4.9016
X4.5768Y-5.0984
X4.5965Y-1.8504
X4.6063Y-2.1585
X4.6201Y-4.1988
X4.626Y-4.9016
X4.626Y-5.0984
X4.6358Y-1.8504
X4.6555Y-2.8642
X4.6752Y-1.8504
X4.6752Y-5.0984
X4.685Y-2.8642
X4.713Y-5.0233
X4.7146Y-1.8504
X4.7146Y-2.8642
X4.7244Y-5.0984
X4.7343Y-3.8681
X4.7343Y-4.0059
X4.7539Y-1.8504
X4.7539Y-1.8898
X4.7539Y-1.9291
X4.7638Y-3.8681
X4.7638Y-4.0059
X4.7736Y-5.0984
X4.813Y-5.0233
X4.8199Y-4.1732
X4.8228Y-5.0984
X4.8425Y-2.2313
X4.8524Y-1.8012
X4.8524Y-1.8406
X4.8524Y-1.8799
X4.8524Y-1.9193
X4.8524Y-1.9587
X4.8524Y-2.9035
X4.8524Y-3.0118
X4.872Y-5.0984
X4.874Y-3.4331
X4.8917Y-1.8012
X4.8917Y-2.9035
X4.8917Y-3.0118
X4.913Y-5.0233
X4.9134Y-3.4331
X4.9213Y-5.0984
X4.9291Y-2.1762
X4.9311Y-1.8012
X4.9311Y-2.9035
X4.9311Y-3.0118
X4.9498Y-1.9587
X4.9508Y-2.0965
X4.9528Y-3.4331
X4.9705Y-1.8209
X4.9705Y-3.0118
X4.9705Y-5.0984
X4.9803Y-4.1732
X4.9902Y-3.7697
X4.9902Y-3.8091
X5.0Y-1.8504
X5.0197Y-5.0984
X5.0295Y-1.8799
X5.0295Y-3.7697
X5.0295Y-3.8091
X5.057Y-2.1633
X5.0591Y-1.7618
X5.0591Y-1.9435
X5.0591Y-1.9935
X5.0591Y-2.0472
X5.0591Y-3.937
X5.0689Y-5.0984
X5.0866Y-3.435
X5.0886Y-1.7913
X5.0886Y-2.8642
X5.1181Y-1.8209
X5.1181Y-2.8642
X5.1181Y-3.435
X5.1181Y-5.0984
X5.1476Y-1.8504
X5.1476Y-2.8642
X5.1496Y-3.435
X5.1673Y-5.0984
X5.2165Y-5.0984
X5.2248Y-5.0233
X5.2362Y-1.8406
X5.2559Y-2.1742
X5.2657Y-5.0984
X5.2756Y-1.8406
X5.3031Y-2.8642
X5.315Y-1.8406
X5.315Y-5.0984
X5.3248Y-5.0233
X5.3346Y-2.8642
X5.3543Y-1.8406
X5.3642Y-5.0984
X5.3661Y-2.8642
X5.3937Y-1.8406
X5.3937Y-1.8799
X5.3937Y-1.9193
X5.3937Y-3.8681
X5.3937Y-4.0059
X5.4134Y-5.0984
X5.4232Y-3.8681
X5.4232Y-4.0059
X5.4248Y-5.0233
X5.4626Y-4.1732
X5.4626Y-5.0984
X5.4921Y-1.7618
X5.4921Y-1.8012
X5.4921Y-1.8406
X5.4921Y-1.8799
X5.4921Y-1.9193
X5.4921Y-1.9587
X5.4921Y-1.998
X5.4921Y-2.3031
X5.502Y-2.9035
X5.5118Y-3.0118
X5.5118Y-5.0984
X5.5299Y-5.0233
X5.5315Y-1.7913
X5.5315Y-3.437
X5.5413Y-2.9035
X5.5512Y-3.0118
X5.561Y-1.8209
X5.561Y-5.0984
X5.563Y-3.437
X5.5807Y-1.7028
X5.5807Y-2.1919
X5.5807Y-2.9035
X5.5906Y-1.8504
X5.5906Y-3.0118
X5.5945Y-3.437
X5.5994Y-1.9587
X5.6004Y-2.0965
X5.6102Y-1.7323
X5.6102Y-5.0984
X5.6201Y-1.8799
X5.6299Y-4.1732
X5.6299Y-5.0233
X5.6398Y-1.7618
X5.6496Y-3.7697
X5.6496Y-3.8091
X5.6594Y-5.0984
X5.6693Y-1.7913
X5.689Y-3.7697
X5.689Y-3.8091
X5.6988Y-1.8209
X5.7087Y-1.9435
X5.7087Y-1.9935
X5.7087Y-2.0472
X5.7087Y-3.937
X5.7087Y-5.0984
X5.7165Y-2.188
X5.7185Y-2.874
X5.7283Y-1.8504
X5.7299Y-5.0233
X5.7362Y-3.437
X5.7579Y-2.874
X5.7579Y-5.0984
X5.7677Y-3.437
X5.7972Y-2.874
X5.7992Y-3.437
X5.8071Y-5.0984
X5.835Y-5.0233
X5.8563Y-5.0984
X5.8858Y-1.8406
X5.9055Y-5.0984
X5.9252Y-1.8406
X5.9291Y-2.2441
X5.935Y-5.0233
X5.9449Y-2.8642
X5.9547Y-5.0984
X5.9646Y-1.8406
X5.9843Y-2.8642
X6.0039Y-1.8406
X6.0039Y-5.0984
X6.0236Y-1.9193
X6.0236Y-2.8642
X6.0335Y-1.8799
X6.035Y-5.0233
X6.0531Y-1.8406
X6.0531Y-5.0984
X6.1024Y-4.9508
X6.1024Y-5.0
X6.1024Y-5.0492
X6.1024Y-5.0984
X6.1417Y-4.9213
X6.1516Y-1.2303
X6.1516Y-1.2795
X6.1516Y-1.3287
X6.1516Y-1.378
X6.1516Y-1.4272
X6.1516Y-1.4764
X6.1516Y-1.5256
X6.1516Y-1.5748
X6.1516Y-1.624
X6.1516Y-1.6732
X6.1516Y-1.7224
X6.1516Y-1.7717
X6.1516Y-5.0984
X6.1811Y-4.8917
X6.2008Y-1.2008
X6.2008Y-5.0984
X6.2205Y-4.8524
X6.25Y-1.2008
X6.25Y-5.0984
X6.2598Y-4.813
X6.2992Y-1.2008
X6.2992Y-4.7736
X6.2992Y-5.0984
X6.3189Y-4.5768
X6.3189Y-4.626
X6.3189Y-4.6752
X6.3189Y-4.7244
X6.3484Y-1.2008
X6.3484Y-5.0984
X6.3976Y-1.2008
X6.3976Y-5.0984
X6.4469Y-1.2008
X6.4469Y-2.1654
X6.4469Y-4.1339
X6.4469Y-5.0984
X6.4961Y-1.2008
X6.4961Y-2.1654
X6.4961Y-4.1339
X6.4961Y-5.0984
X6.5453Y-1.2008
X6.5453Y-2.1654
X6.5453Y-4.1339
X6.5453Y-5.0984
X6.5945Y-1.2008
X6.5945Y-2.1654
X6.5945Y-4.1339
X6.5945Y-5.0984
X6.6437Y-1.2008
X6.6437Y-2.1654
X6.6437Y-4.1339
X6.6437Y-5.0984
X6.6929Y-1.2008
X6.6929Y-2.1654
X6.6929Y-4.1339
X6.6929Y-5.0984
X6.7421Y-1.2008
X6.7421Y-2.1654
X6.7421Y-4.1339
X6.7421Y-5.0984
X6.7913Y-1.2008
X6.7913Y-2.1654
X6.7913Y-4.1339
X6.7913Y-5.0984
X6.8406Y-1.2008
X6.8406Y-2.1654
X6.8406Y-4.1339
X6.8406Y-5.0984
X6.8898Y-1.2008
X6.8898Y-2.1654
X6.8898Y-4.1339
X6.8898Y-5.0984
X6.939Y-1.2008
X6.939Y-2.1654
X6.939Y-4.1339
X6.939Y-5.0984
X6.9882Y-1.2008
X6.9882Y-2.1654
X6.9882Y-4.1339
X6.9882Y-5.0984
X7.0276Y-2.1654
X7.0374Y-1.2008
X7.0374Y-4.1339
X7.0374Y-5.0984
X7.0669Y-1.2303
X7.0669Y-1.2795
X7.0669Y-1.3287
X7.0669Y-1.378
X7.0669Y-1.4272
X7.0669Y-1.4764
X7.0669Y-1.5256
X7.0669Y-1.5748
X7.0669Y-1.624
X7.0669Y-1.6732
X7.0669Y-1.7224
X7.0669Y-1.7717
X7.0669Y-1.8209
X7.0669Y-1.8701
X7.0669Y-1.9193
X7.0669Y-1.9685
X7.0669Y-2.0177
X7.0669Y-2.0669
X7.0669Y-2.1161
X7.0669Y-2.1654
X7.0669Y-4.1831
X7.0669Y-4.2323
X7.0669Y-4.2815
X7.0669Y-4.3307
X7.0669Y-4.3799
X7.0669Y-4.4291
X7.0669Y-4.4783
X7.0669Y-4.5276
X7.0669Y-4.5768
X7.0669Y-4.626
X7.0669Y-4.6752
X7.0669Y-4.7244
X7.0669Y-4.7736
X7.0669Y-4.8228
X7.0669Y-4.872
X7.0669Y-4.9213
X7.0669Y-4.9705
X7.0669Y-5.0197
X7.0669Y-5.0689
T2
X3.2559Y-2.3573
X3.2559Y-2.4065
X3.2559Y-2.4557
X3.2559Y-2.5049
X3.2559Y-2.5541
X3.2559Y-2.6033
X3.2559Y-2.7707
X3.2559Y-2.8199
X3.2559Y-2.8691
X3.2559Y-2.9183
X3.2559Y-2.9675
X3.2559Y-3.0167
X3.2559Y-3.1841
X3.2559Y-3.2333
X3.2559Y-3.2825
X3.2559Y-3.3317
X3.2559Y-3.3809
X3.2559Y-3.4301
X3.2579Y-1.7028
X3.2579Y-1.752
X3.2579Y-1.8012
X3.2579Y-1.8504
X3.2579Y-1.8996
X3.2579Y-1.9488
X3.2579Y-1.998
X3.2579Y-2.0472
X3.2913Y-1.4173
X3.2934Y-4.8819
X3.319Y-1.3505
X3.319Y-1.4841
X3.3211Y-4.8151
X3.3211Y-4.9487
X3.3858Y-1.3228
X3.3858Y-1.5118
X3.3879Y-4.7874
X3.3879Y-4.9764
X3.4526Y-1.3505
X3.4526Y-1.4841
X3.4547Y-4.8151
X3.4547Y-4.9487
X3.4803Y-1.4173
X3.4824Y-4.8819
X6.7559Y-1.4173
X6.7559Y-4.8819
X6.7836Y-1.3505
X6.7836Y-1.4841
X6.7836Y-4.8151
X6.7836Y-4.9487
X6.8504Y-1.3228
X6.8504Y-1.5118
X6.8504Y-4.7874
X6.8504Y-4.9764
X6.9172Y-1.3505
X6.9172Y-1.4841
X6.9172Y-4.8151
X6.9172Y-4.9487
X6.9449Y-1.4173
X6.9449Y-4.8819
T3
X3.7746Y-1.9685
X3.7746Y-4.3327
X3.8218Y-1.8533
X3.8218Y-2.0837
X3.8218Y-4.2174
X3.8218Y-4.4479
X3.937Y-1.8061
X3.937Y-2.1309
X3.937Y-4.1703
X3.937Y-4.4951
X4.0522Y-1.8533
X4.0522Y-2.0837
X4.0522Y-4.2174
X4.0522Y-4.4479
X4.0994Y-1.9685
X4.0994Y-4.3327
X6.1368Y-1.9685
X6.1368Y-4.3307
X6.184Y-1.8533
X6.184Y-2.0837
X6.184Y-4.2155
X6.184Y-4.4459
X6.2992Y-1.8061
X6.2992Y-2.1309
X6.2992Y-4.1683
X6.2992Y-4.4931
X6.4144Y-1.8533
X6.4144Y-2.0837
X6.4144Y-4.2155
X6.4144Y-4.4459
X6.4616Y-1.9685
X6.4616Y-4.3307
T4
X3.937Y-4.872
X3.937Y-4.9705
T7
X3.3858Y-1.4173
X3.3879Y-4.8819
X6.8504Y-1.4173
X6.8504Y-4.8819
T8
X3.9321Y-4.3327
X3.937Y-1.9685
X6.2992Y-1.9685
X6.2992Y-4.3307
T5
G00X4.252Y-2.7362
M15
G01X4.252Y-2.7756
M16
G05
G00X4.2559Y-3.563
M15
G01X4.2559Y-3.5236
M16
G05
G00X4.4665Y-2.7362
M15
G01X4.4665Y-2.7756
M16
G05
G00X4.4705Y-3.563
M15
G01X4.4705Y-3.5236
M16
G05
G00X4.6811Y-2.7362
M15
G01X4.6811Y-2.7756
M16
G05
G00X4.685Y-3.563
M15
G01X4.685Y-3.5236
M16
G05
G00X4.9016Y-2.7362
M15
G01X4.9016Y-2.7756
M16
G05
G00X4.9055Y-3.563
M15
G01X4.9055Y-3.5236
M16
G05
G00X5.1161Y-2.7362
M15
G01X5.1161Y-2.7756
M16
G05
G00X5.1201Y-3.563
M15
G01X5.1201Y-3.5236
M16
G05
G00X5.3307Y-2.7362
M15
G01X5.3307Y-2.7756
M16
G05
G00X5.3346Y-3.563
M15
G01X5.3346Y-3.5236
M16
G05
G00X5.5512Y-2.7362
M15
G01X5.5512Y-2.7756
M16
G05
G00X5.5551Y-3.563
M15
G01X5.5551Y-3.5236
M16
G05
G00X5.7657Y-2.7362
M15
G01X5.7657Y-2.7756
M16
G05
G00X5.7697Y-3.563
M15
G01X5.7697Y-3.5236
M16
G05
G00X5.9803Y-2.7362
M15
G01X5.9803Y-2.7756
M16
G05
G00X5.9843Y-3.563
M15
G01X5.9843Y-3.5236
M16
G05
T6
G00X4.2697Y-1.2598
M15
G01X4.3524Y-1.2598
M16
G05
G00X4.2697Y-1.5354
M15
G01X4.3524Y-1.5354
M16
G05
G00X4.6358Y-1.2598
M15
G01X4.7185Y-1.2598
M16
G05
G00X4.6358Y-1.5354
M15
G01X4.7185Y-1.5354
M16
G05
G00X4.9193Y-1.2598
M15
G01X5.002Y-1.2598
M16
G05
G00X4.9193Y-1.5354
M15
G01X5.002Y-1.5354
M16
G05
G00X5.2854Y-1.2598
M15
G01X5.3681Y-1.2598
M16
G05
G00X5.2854Y-1.5354
M15
G01X5.3681Y-1.5354
M16
G05
G00X5.5689Y-1.2598
M15
G01X5.6516Y-1.2598
M16
G05
G00X5.5689Y-1.5354
M15
G01X5.6516Y-1.5354
M16
G05
G00X5.935Y-1.2598
M15
G01X6.0177Y-1.2598
M16
G05
G00X5.935Y-1.5354
M15
G01X6.0177Y-1.5354
M16
G05
G00X6.7421Y-2.5669
M15
G01X6.7421Y-2.6496
M16
G05
G00X6.7421Y-2.9331
M15
G01X6.7421Y-3.0157
M16
G05
G00X6.7421Y-3.3465
M15
G01X6.7421Y-3.2638
M16
G05
G00X6.7421Y-3.7126
M15
G01X6.7421Y-3.6299
M16
G05
G00X7.0177Y-2.5669
M15
G01X7.0177Y-2.6496
M16
G05
G00X7.0177Y-2.9331
M15
G01X7.0177Y-3.0157
M16
G05
G00X7.0177Y-3.3465
M15
G01X7.0177Y-3.2638
M16
G05
G00X7.0177Y-3.7126
M15
G01X7.0177Y-3.6299
M16
G05
M30
