M48
; DRILL file {KiCad 9.0.0} date 2025-03-23T13:51:44-0400
; FORMAT={-:-/ absolute / inch / decimal}
; #@! TF.CreationDate,2025-03-23T13:51:44-04:00
; #@! TF.GenerationSoftware,Kicad,Pcbnew,9.0.0
; #@! TF.FileFunction,Plated,1,4,PTH
FMAT,2
INCH
; #@! TA.AperFunction,Plated,PTH,ViaDrill
T1C0.0157
; #@! TA.AperFunction,Plated,PTH,ComponentDrill
T2C0.0197
; #@! TA.AperFunction,Plated,PTH,ComponentDrill
T3C0.0236
; #@! TA.AperFunction,Plated,PTH,ComponentDrill
T4C0.0394
; #@! TA.AperFunction,Plated,PTH,ComponentDrill
T5C0.0469
; #@! TA.AperFunction,Plated,PTH,ComponentDrill
T6C0.0591
; #@! TA.AperFunction,Plated,PTH,ComponentDrill
T7C0.0630
; #@! TA.AperFunction,Plated,PTH,ComponentDrill
T8C0.1260
; #@! TA.AperFunction,Plated,PTH,ComponentDrill
T9C0.2165
%
G90
G05
T1
X4.1535Y-1.2303
X4.1535Y-1.2795
X4.1535Y-1.3287
X4.1535Y-1.378
X4.1535Y-1.4272
X4.1535Y-1.4764
X4.1535Y-1.5256
X4.1535Y-1.5748
X4.1535Y-1.624
X4.1535Y-1.6732
X4.1535Y-1.7224
X4.1535Y-1.7717
X4.1535Y-1.8209
X4.1535Y-2.3622
X4.1535Y-2.4114
X4.1535Y-2.4606
X4.1535Y-2.5098
X4.1535Y-2.5591
X4.1535Y-2.6083
X4.1535Y-2.6575
X4.1535Y-2.7067
X4.1535Y-2.7559
X4.1535Y-2.8051
X4.1535Y-2.8543
X4.1535Y-2.9035
X4.1535Y-2.9528
X4.1535Y-3.002
X4.1535Y-3.0512
X4.1535Y-3.1004
X4.1535Y-3.1496
X4.1535Y-3.1988
X4.1535Y-3.248
X4.1535Y-3.2972
X4.1535Y-3.3465
X4.1535Y-3.3957
X4.1535Y-3.4449
X4.1535Y-3.4941
X4.1535Y-3.5433
X4.1535Y-3.5925
X4.1535Y-3.6417
X4.1535Y-3.6909
X4.1535Y-3.7402
X4.1535Y-3.7894
X4.1535Y-3.8386
X4.1535Y-3.8878
X4.1535Y-3.937
X4.1535Y-3.9862
X4.1535Y-4.0354
X4.1535Y-4.0846
X4.1535Y-4.1339
X4.1535Y-4.1831
X4.1535Y-4.2323
X4.1535Y-4.2815
X4.1535Y-4.3307
X4.1535Y-4.3799
X4.1535Y-4.4291
X4.1535Y-4.4783
X4.1535Y-4.5276
X4.1535Y-4.5768
X4.1535Y-4.626
X4.1535Y-4.6752
X4.1535Y-4.7244
X4.1535Y-4.7736
X4.1535Y-4.8228
X4.1535Y-4.872
X4.1535Y-4.9213
X4.1535Y-4.9705
X4.1535Y-5.0197
X4.1535Y-5.0689
X4.1831Y-1.2008
X4.1831Y-5.0984
X4.2323Y-1.2008
X4.2323Y-5.0984
X4.2559Y-3.5157
X4.2559Y-3.563
X4.2559Y-3.6102
X4.2559Y-3.6575
X4.2559Y-3.7047
X4.2559Y-3.7598
X4.2776Y-2.3287
X4.2795Y-3.7992
X4.2815Y-1.2008
X4.2815Y-5.0984
X4.2874Y-2.6417
X4.311Y-3.8386
X4.3268Y-2.3287
X4.3268Y-2.6417
X4.3268Y-2.6831
X4.3268Y-2.7224
X4.3268Y-2.9783
X4.3268Y-3.0276
X4.3268Y-3.0768
X4.3268Y-3.126
X4.3307Y-1.2008
X4.3307Y-5.0984
X4.3346Y-3.3583
X4.3425Y-3.3189
X4.3504Y-3.878
X4.3583Y-2.9488
X4.3661Y-3.3917
X4.3661Y-3.4311
X4.3661Y-3.5295
X4.3661Y-3.5689
X4.374Y-2.6417
X4.376Y-2.3287
X4.376Y-2.6831
X4.3799Y-1.2008
X4.3799Y-5.0984
X4.3819Y-3.2874
X4.3898Y-2.9173
X4.3898Y-3.9094
X4.3957Y-3.6673
X4.3957Y-3.7559
X4.4055Y-3.3917
X4.4055Y-3.5295
X4.4055Y-3.5689
X4.4065Y-3.4301
X4.4213Y-2.6417
X4.4242Y-2.8622
X4.4252Y-2.3287
X4.4291Y-1.2008
X4.4291Y-5.0984
X4.435Y-3.6673
X4.437Y-3.7559
X4.437Y-3.9094
X4.4449Y-2.5453
X4.4449Y-2.5945
X4.4449Y-2.8228
X4.4626Y-2.3287
X4.4783Y-1.2008
X4.4783Y-5.0984
X4.4902Y-3.2569
X4.4902Y-3.31
X4.4941Y-3.5758
X4.4945Y-3.5325
X4.5236Y-2.4014
X4.5236Y-2.6691
X4.5236Y-2.9368
X4.5236Y-3.2045
X4.5236Y-3.4722
X4.5276Y-1.2008
X4.5276Y-5.0984
X4.5335Y-3.74
X4.5728Y-3.9232
X4.5768Y-1.2008
X4.5768Y-5.0984
X4.5827Y-2.6043
X4.5827Y-3.6673
X4.5866Y-2.8701
X4.5866Y-3.1457
X4.5866Y-3.4114
X4.5984Y-2.3622
X4.626Y-1.2008
X4.626Y-3.9331
X4.626Y-3.9803
X4.626Y-4.0354
X4.626Y-4.0846
X4.626Y-4.1339
X4.626Y-5.0984
X4.6752Y-1.2008
X4.6752Y-4.1339
X4.6752Y-5.0984
X4.7244Y-1.2008
X4.7244Y-4.1339
X4.7244Y-5.0984
X4.7717Y-4.1339
X4.7736Y-1.2008
X4.7736Y-5.0984
X4.7785Y-2.4514
X4.7785Y-2.5014
X4.7785Y-2.7191
X4.7785Y-2.7691
X4.7785Y-2.9868
X4.7785Y-3.0368
X4.7785Y-3.5222
X4.7785Y-3.79
X4.8228Y-1.2008
X4.8228Y-5.0984
X4.8287Y-3.1978
X4.8287Y-3.4656
X4.8583Y-3.687
X4.8583Y-3.9528
X4.872Y-1.2008
X4.872Y-5.0984
X4.8858Y-2.7254
X4.8858Y-2.9931
X4.8878Y-2.7835
X4.8917Y-3.0475
X4.9075Y-3.3545
X4.9193Y-3.6575
X4.9213Y-1.2008
X4.9213Y-5.0984
X4.935Y-3.8071
X4.9705Y-1.2008
X4.9705Y-5.0984
X5.0197Y-1.2008
X5.0197Y-5.0984
X5.0689Y-1.2008
X5.0689Y-5.0984
X5.1102Y-3.9783
X5.1181Y-1.2008
X5.1181Y-1.25
X5.1181Y-1.2992
X5.1181Y-1.3484
X5.1181Y-1.3976
X5.1181Y-1.4469
X5.1181Y-1.4961
X5.1181Y-1.5453
X5.1181Y-1.5906
X5.1181Y-1.6417
X5.1181Y-1.6929
X5.1181Y-1.7441
X5.1181Y-1.7953
X5.1181Y-5.0984
X5.128Y-4.4587
X5.128Y-4.5079
X5.128Y-4.5571
X5.128Y-4.6063
X5.128Y-4.6555
X5.128Y-4.7047
X5.128Y-4.7539
X5.128Y-4.8031
X5.128Y-4.8524
X5.1476Y-3.9783
X5.1496Y-4.0138
X5.1673Y-4.8819
X5.1673Y-5.0984
X5.185Y-3.9783
X5.185Y-4.0138
X5.1865Y-2.4301
X5.1868Y-2.4702
X5.2165Y-4.8819
X5.2165Y-5.0984
X5.2657Y-4.8819
X5.2657Y-5.0984
X5.2853Y-1.8808
X5.315Y-4.8819
X5.315Y-5.0984
X5.3248Y-3.5827
X5.3248Y-3.622
X5.3504Y-2.0965
X5.3642Y-3.5827
X5.3642Y-3.622
X5.3642Y-4.8819
X5.3642Y-5.0984
X5.3973Y-2.008
X5.3986Y-1.9637
X5.3998Y-2.0472
X5.4134Y-4.8819
X5.4134Y-5.0984
X5.4626Y-4.8819
X5.4626Y-5.0984
X5.5118Y-4.8819
X5.5118Y-5.0984
X5.5406Y-3.9849
X5.5591Y-4.0197
X5.561Y-4.8819
X5.561Y-5.0984
X5.5827Y-1.7913
X5.6024Y-1.815
X5.6102Y-4.8819
X5.6102Y-5.0984
X5.622Y-1.7913
X5.622Y-1.8406
X5.6417Y-1.815
X5.6594Y-1.7913
X5.6594Y-4.8819
X5.6594Y-5.0984
X5.6614Y-1.8406
X5.6811Y-1.815
X5.7008Y-1.7913
X5.7008Y-1.8406
X5.7087Y-4.8819
X5.7087Y-5.0984
X5.7579Y-4.8819
X5.7579Y-5.0984
X5.8071Y-4.8819
X5.8071Y-5.0984
X5.8563Y-5.0984
X5.8696Y-2.2682
X5.876Y-4.065
X5.9039Y-5.0233
X5.9055Y-5.0984
X5.9159Y-4.0655
X5.9252Y-2.2415
X5.9341Y-1.8937
X5.9341Y-2.0866
X5.9547Y-5.0984
X5.9645Y-2.24
X5.9744Y-3.5827
X5.9744Y-3.622
X6.0039Y-5.0233
X6.0039Y-5.0984
X6.0048Y-2.2401
X6.0138Y-3.5827
X6.0138Y-3.622
X6.0221Y-1.989
X6.0394Y-1.9435
X6.0433Y-2.0472
X6.0531Y-5.0984
X6.1024Y-4.872
X6.1024Y-5.0984
X6.1039Y-5.0233
X6.1516Y-4.872
X6.1516Y-5.0984
X6.189Y-3.9862
X6.2008Y-5.0984
X6.2091Y-5.0233
X6.2205Y-1.7913
X6.2402Y-1.811
X6.25Y-5.0984
X6.2598Y-1.7913
X6.2598Y-1.8307
X6.2795Y-1.811
X6.2992Y-1.7913
X6.2992Y-1.8307
X6.2992Y-5.0984
X6.3091Y-5.0233
X6.3189Y-1.811
X6.3386Y-1.7913
X6.3386Y-1.8307
X6.3484Y-5.0984
X6.3976Y-5.0984
X6.4075Y-4.872
X6.4091Y-5.0233
X6.4469Y-5.0984
X6.4567Y-4.872
X6.4961Y-5.0984
X6.5142Y-5.0233
X6.5157Y-4.0551
X6.5453Y-5.0984
X6.5473Y-2.2175
X6.5556Y-4.0556
X6.563Y-2.2746
X6.5837Y-1.8937
X6.5837Y-2.0866
X6.5867Y-2.2165
X6.5945Y-5.0984
X6.6142Y-5.0233
X6.6266Y-2.216
X6.6339Y-3.5827
X6.6339Y-3.622
X6.6437Y-5.0984
X6.6732Y-3.5827
X6.6732Y-3.622
X6.6753Y-1.9839
X6.6929Y-1.9435
X6.6929Y-2.0472
X6.6929Y-5.0984
X6.7126Y-4.872
X6.7142Y-5.0233
X6.7421Y-5.0984
X6.7618Y-4.872
X6.7913Y-5.0984
X6.8193Y-5.0233
X6.8406Y-5.0984
X6.8425Y-3.9862
X6.8701Y-1.7913
X6.8898Y-1.811
X6.8898Y-5.0984
X6.9094Y-1.7913
X6.9094Y-1.8307
X6.9193Y-5.0233
X6.9291Y-1.811
X6.939Y-5.0984
X6.9488Y-1.7913
X6.9488Y-1.8307
X6.9685Y-1.811
X6.9882Y-1.7913
X6.9882Y-1.8307
X6.9882Y-5.0984
X7.0193Y-5.0233
X7.0374Y-5.0984
X7.0866Y-4.9508
X7.0866Y-5.0
X7.0866Y-5.0492
X7.0866Y-5.0984
X7.126Y-4.9213
X7.1358Y-1.2303
X7.1358Y-1.2795
X7.1358Y-1.3287
X7.1358Y-1.378
X7.1358Y-1.4272
X7.1358Y-1.4764
X7.1358Y-1.5256
X7.1358Y-1.5748
X7.1358Y-1.624
X7.1358Y-1.6732
X7.1358Y-1.7224
X7.1358Y-1.7717
X7.1358Y-5.0984
X7.1654Y-4.8917
X7.185Y-1.2008
X7.185Y-5.0984
X7.2047Y-4.8524
X7.2343Y-1.2008
X7.2343Y-5.0984
X7.2441Y-4.813
X7.2835Y-1.2008
X7.2835Y-4.7736
X7.2835Y-5.0984
X7.3031Y-4.5768
X7.3031Y-4.626
X7.3031Y-4.6752
X7.3031Y-4.7244
X7.3327Y-1.2008
X7.3327Y-5.0984
X7.3819Y-1.2008
X7.3819Y-5.0984
X7.4016Y-2.1654
X7.4311Y-1.2008
X7.4311Y-4.1339
X7.4311Y-5.0984
X7.4606Y-2.1654
X7.4803Y-1.2008
X7.4803Y-4.1339
X7.4803Y-5.0984
X7.5197Y-2.1654
X7.5295Y-1.2008
X7.5295Y-4.1339
X7.5295Y-5.0984
X7.5787Y-1.2008
X7.5787Y-2.1654
X7.5787Y-4.1339
X7.5787Y-5.0984
X7.628Y-1.2008
X7.628Y-4.1339
X7.628Y-5.0984
X7.6378Y-2.1654
X7.6772Y-1.2008
X7.6772Y-4.1339
X7.6772Y-5.0984
X7.6969Y-2.1654
X7.7264Y-1.2008
X7.7264Y-4.1339
X7.7264Y-5.0984
X7.7559Y-2.1654
X7.7756Y-1.2008
X7.7756Y-4.1339
X7.7756Y-5.0984
X7.8051Y-2.1654
X7.8248Y-1.2008
X7.8248Y-4.1339
X7.8248Y-5.0984
X7.8543Y-2.1654
X7.874Y-1.2008
X7.874Y-4.1339
X7.874Y-5.0984
X7.9035Y-2.1654
X7.9232Y-1.2008
X7.9232Y-4.1339
X7.9232Y-5.0984
X7.9528Y-2.1654
X7.9724Y-1.2008
X7.9724Y-4.1339
X7.9724Y-5.0984
X8.002Y-2.1654
X8.0217Y-1.2008
X8.0217Y-4.1339
X8.0217Y-5.0984
X8.0512Y-1.2303
X8.0512Y-1.2795
X8.0512Y-1.3287
X8.0512Y-1.378
X8.0512Y-1.4272
X8.0512Y-1.4764
X8.0512Y-1.5256
X8.0512Y-1.5748
X8.0512Y-1.624
X8.0512Y-1.6732
X8.0512Y-1.7224
X8.0512Y-1.7717
X8.0512Y-1.8209
X8.0512Y-1.8701
X8.0512Y-1.9193
X8.0512Y-1.9685
X8.0512Y-2.0177
X8.0512Y-2.0669
X8.0512Y-2.1161
X8.0512Y-2.1654
X8.0512Y-4.1831
X8.0512Y-4.2323
X8.0512Y-4.2815
X8.0512Y-4.3307
X8.0512Y-4.3799
X8.0512Y-4.4291
X8.0512Y-4.4783
X8.0512Y-4.5276
X8.0512Y-4.5768
X8.0512Y-4.626
X8.0512Y-4.6752
X8.0512Y-4.7244
X8.0512Y-4.7736
X8.0512Y-4.8228
X8.0512Y-4.872
X8.0512Y-4.9213
X8.0512Y-4.9705
X8.0512Y-5.0197
X8.0512Y-5.0689
T2
X4.2362Y-1.874
X4.2362Y-1.9232
X4.2362Y-1.9724
X4.2362Y-2.0217
X4.2362Y-2.0709
X4.2362Y-2.1201
X4.2362Y-2.1693
X4.2362Y-2.2185
X4.2362Y-2.3927
X4.2362Y-2.4419
X4.2362Y-2.4911
X4.2362Y-2.5404
X4.2362Y-2.5896
X4.2362Y-2.6388
X4.2362Y-2.8061
X4.2362Y-2.8553
X4.2362Y-2.9045
X4.2362Y-2.9537
X4.2362Y-3.003
X4.2362Y-3.0522
X4.2362Y-3.2195
X4.2362Y-3.2687
X4.2362Y-3.3179
X4.2362Y-3.3671
X4.2362Y-3.4163
X4.2362Y-3.4656
X4.3839Y-1.5256
X4.3859Y-4.7736
X4.4115Y-1.4588
X4.4115Y-1.5924
X4.4136Y-4.7068
X4.4136Y-4.8404
X4.4783Y-1.4311
X4.4783Y-1.6201
X4.4804Y-4.6791
X4.4804Y-4.8681
X4.5452Y-1.4588
X4.5452Y-1.5924
X4.5472Y-4.7068
X4.5472Y-4.8404
X4.5728Y-1.5256
X4.5749Y-4.7736
X7.6319Y-1.5256
X7.6319Y-4.7736
X7.6596Y-1.4588
X7.6596Y-1.5924
X7.6596Y-4.7068
X7.6596Y-4.8404
X7.7264Y-1.4311
X7.7264Y-1.6201
X7.7264Y-4.6791
X7.7264Y-4.8681
X7.7932Y-1.4588
X7.7932Y-1.5924
X7.7932Y-4.7068
X7.7932Y-4.8404
X7.8209Y-1.5256
X7.8209Y-4.7736
T3
X4.7589Y-1.9685
X4.7589Y-4.3327
X4.806Y-1.8533
X4.806Y-2.0837
X4.806Y-4.2174
X4.806Y-4.4479
X4.9213Y-1.8061
X4.9213Y-2.1309
X4.9213Y-4.1703
X4.9213Y-4.4951
X5.0365Y-1.8533
X5.0365Y-2.0837
X5.0365Y-4.2174
X5.0365Y-4.4479
X5.0837Y-1.9685
X5.0837Y-4.3327
X7.1211Y-1.9685
X7.1211Y-4.3307
X7.1682Y-1.8533
X7.1682Y-2.0837
X7.1682Y-4.2155
X7.1682Y-4.4459
X7.2835Y-1.8061
X7.2835Y-2.1309
X7.2835Y-4.1683
X7.2835Y-4.4931
X7.3987Y-1.8533
X7.3987Y-2.0837
X7.3987Y-4.2155
X7.3987Y-4.4459
X7.4459Y-1.9685
X7.4459Y-4.3307
T4
X5.4734Y-4.69
X5.5719Y-4.69
T5
X4.315Y-4.2591
X4.315Y-4.3591
X4.315Y-4.4591
X4.315Y-4.5591
T8
X4.4783Y-1.5256
X4.4804Y-4.7736
X7.7264Y-1.5256
X7.7264Y-4.7736
T9
X4.9163Y-4.3327
X4.9213Y-1.9685
X5.4823Y-1.4331
X6.1319Y-1.4331
X6.7815Y-1.4331
X7.2835Y-1.9685
X7.2835Y-4.3307
X7.811Y-2.7953
X7.811Y-3.5039
T6
G00X5.2362Y-2.9331
M15
G01X5.2362Y-2.9724
M16
G05
G00X5.2402Y-3.3661
M15
G01X5.2402Y-3.3268
M16
G05
G00X5.4508Y-2.9331
M15
G01X5.4508Y-2.9724
M16
G05
G00X5.4547Y-3.3661
M15
G01X5.4547Y-3.3268
M16
G05
G00X5.6654Y-2.9331
M15
G01X5.6654Y-2.9724
M16
G05
G00X5.6693Y-3.3661
M15
G01X5.6693Y-3.3268
M16
G05
G00X5.8858Y-2.9331
M15
G01X5.8858Y-2.9724
M16
G05
G00X5.8898Y-3.3661
M15
G01X5.8898Y-3.3268
M16
G05
G00X6.1004Y-2.9331
M15
G01X6.1004Y-2.9724
M16
G05
G00X6.1043Y-3.3661
M15
G01X6.1043Y-3.3268
M16
G05
G00X6.315Y-2.9331
M15
G01X6.315Y-2.9724
M16
G05
G00X6.3189Y-3.3661
M15
G01X6.3189Y-3.3268
M16
G05
G00X6.5354Y-2.9331
M15
G01X6.5354Y-2.9724
M16
G05
G00X6.5394Y-3.3661
M15
G01X6.5394Y-3.3268
M16
G05
G00X6.75Y-2.9331
M15
G01X6.75Y-2.9724
M16
G05
G00X6.7539Y-3.3661
M15
G01X6.7539Y-3.3268
M16
G05
G00X6.9646Y-2.9331
M15
G01X6.9646Y-2.9724
M16
G05
G00X6.9685Y-3.3661
M15
G01X6.9685Y-3.3268
M16
G05
T7
G00X5.2953Y-1.3366
M15
G01X5.2953Y-1.2539
M16
G05
G00X5.2953Y-1.6122
M15
G01X5.2953Y-1.5295
M16
G05
G00X5.6614Y-1.3366
M15
G01X5.6614Y-1.2539
M16
G05
G00X5.6614Y-1.6122
M15
G01X5.6614Y-1.5295
M16
G05
G00X5.9449Y-1.3366
M15
G01X5.9449Y-1.2539
M16
G05
G00X5.9449Y-1.6122
M15
G01X5.9449Y-1.5295
M16
G05
G00X6.311Y-1.3366
M15
G01X6.311Y-1.2539
M16
G05
G00X6.311Y-1.6122
M15
G01X6.311Y-1.5295
M16
G05
G00X6.5945Y-1.3366
M15
G01X6.5945Y-1.2539
M16
G05
G00X6.5945Y-1.6122
M15
G01X6.5945Y-1.5295
M16
G05
G00X6.9606Y-1.3366
M15
G01X6.9606Y-1.2539
M16
G05
G00X6.9606Y-1.6122
M15
G01X6.9606Y-1.5295
M16
G05
G00X7.6319Y-2.6083
M15
G01X7.7146Y-2.6083
M16
G05
G00X7.6319Y-2.9744
M15
G01X7.7146Y-2.9744
M16
G05
G00X7.7146Y-3.3248
M15
G01X7.6319Y-3.3248
M16
G05
G00X7.7146Y-3.6909
M15
G01X7.6319Y-3.6909
M16
G05
G00X7.9075Y-2.6083
M15
G01X7.9902Y-2.6083
M16
G05
G00X7.9075Y-2.9744
M15
G01X7.9902Y-2.9744
M16
G05
G00X7.9902Y-3.3248
M15
G01X7.9075Y-3.3248
M16
G05
G00X7.9902Y-3.6909
M15
G01X7.9075Y-3.6909
M16
G05
M30
