G04 #@! TF.GenerationSoftware,KiCad,Pcbnew,8.0.6-1.fc40*
G04 #@! TF.CreationDate,2024-11-25T03:31:30-05:00*
G04 #@! TF.ProjectId,three_half_bridges,74687265-655f-4686-916c-665f62726964,rev?*
G04 #@! TF.SameCoordinates,Original*
G04 #@! TF.FileFunction,Copper,L4,Bot*
G04 #@! TF.FilePolarity,Positive*
%FSLAX46Y46*%
G04 Gerber Fmt 4.6, Leading zero omitted, Abs format (unit mm)*
G04 Created by KiCad (PCBNEW 8.0.6-1.fc40) date 2024-11-25 03:31:30*
%MOMM*%
%LPD*%
G01*
G04 APERTURE LIST*
G04 Aperture macros list*
%AMRoundRect*
0 Rectangle with rounded corners*
0 $1 Rounding radius*
0 $2 $3 $4 $5 $6 $7 $8 $9 X,Y pos of 4 corners*
0 Add a 4 corners polygon primitive as box body*
4,1,4,$2,$3,$4,$5,$6,$7,$8,$9,$2,$3,0*
0 Add four circle primitives for the rounded corners*
1,1,$1+$1,$2,$3*
1,1,$1+$1,$4,$5*
1,1,$1+$1,$6,$7*
1,1,$1+$1,$8,$9*
0 Add four rect primitives between the rounded corners*
20,1,$1+$1,$2,$3,$4,$5,0*
20,1,$1+$1,$4,$5,$6,$7,0*
20,1,$1+$1,$6,$7,$8,$9,0*
20,1,$1+$1,$8,$9,$2,$3,0*%
G04 Aperture macros list end*
G04 #@! TA.AperFunction,ComponentPad*
%ADD10RoundRect,0.250000X0.750000X-0.600000X0.750000X0.600000X-0.750000X0.600000X-0.750000X-0.600000X0*%
G04 #@! TD*
G04 #@! TA.AperFunction,ComponentPad*
%ADD11O,2.000000X1.700000*%
G04 #@! TD*
G04 #@! TA.AperFunction,ComponentPad*
%ADD12C,0.800000*%
G04 #@! TD*
G04 #@! TA.AperFunction,ComponentPad*
%ADD13C,6.400000*%
G04 #@! TD*
G04 #@! TA.AperFunction,ComponentPad*
%ADD14C,3.200000*%
G04 #@! TD*
G04 #@! TA.AperFunction,ComponentPad*
%ADD15C,0.900000*%
G04 #@! TD*
G04 #@! TA.AperFunction,ComponentPad*
%ADD16C,11.000000*%
G04 #@! TD*
G04 #@! TA.AperFunction,SMDPad,CuDef*
%ADD17RoundRect,0.150000X0.150000X-0.512500X0.150000X0.512500X-0.150000X0.512500X-0.150000X-0.512500X0*%
G04 #@! TD*
G04 #@! TA.AperFunction,SMDPad,CuDef*
%ADD18RoundRect,0.225000X-0.250000X0.225000X-0.250000X-0.225000X0.250000X-0.225000X0.250000X0.225000X0*%
G04 #@! TD*
G04 #@! TA.AperFunction,ComponentPad*
%ADD19R,2.500000X4.500000*%
G04 #@! TD*
G04 #@! TA.AperFunction,ComponentPad*
%ADD20O,2.500000X4.500000*%
G04 #@! TD*
G04 #@! TA.AperFunction,SMDPad,CuDef*
%ADD21RoundRect,0.249999X1.450001X-0.450001X1.450001X0.450001X-1.450001X0.450001X-1.450001X-0.450001X0*%
G04 #@! TD*
G04 #@! TA.AperFunction,ComponentPad*
%ADD22RoundRect,0.200000X-0.450000X0.200000X-0.450000X-0.200000X0.450000X-0.200000X0.450000X0.200000X0*%
G04 #@! TD*
G04 #@! TA.AperFunction,ComponentPad*
%ADD23O,1.300000X0.800000*%
G04 #@! TD*
G04 #@! TA.AperFunction,ViaPad*
%ADD24C,0.800000*%
G04 #@! TD*
G04 #@! TA.AperFunction,Conductor*
%ADD25C,0.500000*%
G04 #@! TD*
G04 #@! TA.AperFunction,Conductor*
%ADD26C,0.250000*%
G04 #@! TD*
G04 APERTURE END LIST*
D10*
X100000000Y-126250000D03*
D11*
X100000000Y-123750000D03*
D12*
X171600000Y-124000000D03*
X172302944Y-122302944D03*
X172302944Y-125697056D03*
X174000000Y-121600000D03*
D13*
X174000000Y-124000000D03*
D12*
X174000000Y-126400000D03*
X175697056Y-122302944D03*
X175697056Y-125697056D03*
X176400000Y-124000000D03*
D14*
X126000000Y-32000000D03*
X126000000Y-40000000D03*
X134000000Y-32000000D03*
X134000000Y-40000000D03*
D15*
X155875000Y-110000000D03*
X157073185Y-107073185D03*
X157073185Y-112926815D03*
X160000000Y-105875000D03*
D16*
X160000000Y-110000000D03*
D15*
X160000000Y-114125000D03*
X162926815Y-107073185D03*
X162926815Y-112926815D03*
X164125000Y-110000000D03*
X95875000Y-50000000D03*
X97073185Y-47073185D03*
X97073185Y-52926815D03*
X100000000Y-45875000D03*
D16*
X100000000Y-50000000D03*
D15*
X100000000Y-54125000D03*
X102926815Y-47073185D03*
X102926815Y-52926815D03*
X104125000Y-50000000D03*
D12*
X171600000Y-36000000D03*
X172302944Y-34302944D03*
X172302944Y-37697056D03*
X174000000Y-33600000D03*
D13*
X174000000Y-36000000D03*
D12*
X174000000Y-38400000D03*
X175697056Y-34302944D03*
X175697056Y-37697056D03*
X176400000Y-36000000D03*
D14*
X142500000Y-32000000D03*
X142500000Y-40000000D03*
X150500000Y-32000000D03*
X150500000Y-40000000D03*
X109500000Y-32000000D03*
X109500000Y-40000000D03*
X117500000Y-32000000D03*
X117500000Y-40000000D03*
D15*
X95875000Y-110050000D03*
X97073185Y-107123185D03*
X97073185Y-112976815D03*
D16*
X99875000Y-110050000D03*
D15*
X100000000Y-105925000D03*
X100000000Y-114175000D03*
X102926815Y-107123185D03*
X102926815Y-112976815D03*
X104125000Y-110050000D03*
D12*
X83652944Y-124000000D03*
X84355888Y-122302944D03*
X84355888Y-125697056D03*
X86052944Y-121600000D03*
D13*
X86052944Y-124000000D03*
D12*
X86052944Y-126400000D03*
X87750000Y-122302944D03*
X87750000Y-125697056D03*
X88452944Y-124000000D03*
D14*
X170250000Y-68500000D03*
X170250000Y-76500000D03*
X178250000Y-68500000D03*
X178250000Y-76500000D03*
D15*
X155875000Y-50000000D03*
X157073185Y-47073185D03*
X157073185Y-52926815D03*
X160000000Y-45875000D03*
D16*
X160000000Y-50000000D03*
D15*
X160000000Y-54125000D03*
X162926815Y-47073185D03*
X162926815Y-52926815D03*
X164125000Y-50000000D03*
D12*
X83600000Y-36000000D03*
X84302944Y-34302944D03*
X84302944Y-37697056D03*
X86000000Y-33600000D03*
D13*
X86000000Y-36000000D03*
D12*
X86000000Y-38400000D03*
X87697056Y-34302944D03*
X87697056Y-37697056D03*
X88400000Y-36000000D03*
D14*
X170000000Y-83500000D03*
X170000000Y-91500000D03*
X178000000Y-83500000D03*
X178000000Y-91500000D03*
D17*
X136200000Y-125887500D03*
X135250000Y-125887500D03*
X134300000Y-125887500D03*
X134300000Y-123612500D03*
X135250000Y-123612500D03*
X136200000Y-123612500D03*
D18*
X148250000Y-123225000D03*
X148250000Y-124775000D03*
D19*
X135500000Y-90000000D03*
D20*
X130050000Y-90000000D03*
X124600000Y-90000000D03*
D18*
X119750000Y-123225000D03*
X119750000Y-124775000D03*
D19*
X124500000Y-70000000D03*
D20*
X129950000Y-70000000D03*
X135400000Y-70000000D03*
D17*
X123200000Y-125887500D03*
X122250000Y-125887500D03*
X121300000Y-125887500D03*
X121300000Y-123612500D03*
X122250000Y-123612500D03*
X123200000Y-123612500D03*
D21*
X157000000Y-82050000D03*
X157000000Y-77950000D03*
D18*
X132750000Y-123225000D03*
X132750000Y-124775000D03*
D19*
X108000000Y-70000000D03*
D20*
X113450000Y-70000000D03*
X118900000Y-70000000D03*
D21*
X108250000Y-81800000D03*
X108250000Y-77700000D03*
X141250000Y-82050000D03*
X141250000Y-77950000D03*
D22*
X82700000Y-70375000D03*
D23*
X82700000Y-71625000D03*
X82700000Y-72875000D03*
X82700000Y-74125000D03*
X82700000Y-75375000D03*
X82700000Y-76625000D03*
D22*
X82700000Y-80875000D03*
D23*
X82700000Y-82125000D03*
X82700000Y-83375000D03*
X82700000Y-84625000D03*
X82700000Y-85875000D03*
X82700000Y-87125000D03*
D22*
X82700000Y-59875000D03*
D23*
X82700000Y-61125000D03*
X82700000Y-62375000D03*
X82700000Y-63625000D03*
X82700000Y-64875000D03*
X82700000Y-66125000D03*
D21*
X165500000Y-82050000D03*
X165500000Y-77950000D03*
D22*
X82750000Y-43250000D03*
D23*
X82750000Y-44500000D03*
X82750000Y-45750000D03*
X82750000Y-47000000D03*
X82750000Y-48250000D03*
X82750000Y-49500000D03*
X82750000Y-50750000D03*
X82750000Y-52000000D03*
D19*
X152000000Y-90000000D03*
D20*
X146550000Y-90000000D03*
X141100000Y-90000000D03*
D18*
X140500000Y-123225000D03*
X140500000Y-124775000D03*
D19*
X141000000Y-70000000D03*
D20*
X146450000Y-70000000D03*
X151900000Y-70000000D03*
D17*
X151700000Y-125887500D03*
X150750000Y-125887500D03*
X149800000Y-125887500D03*
X149800000Y-123612500D03*
X150750000Y-123612500D03*
X151700000Y-123612500D03*
D19*
X119000000Y-90000000D03*
D20*
X113550000Y-90000000D03*
X108100000Y-90000000D03*
D17*
X143950000Y-125887500D03*
X143000000Y-125887500D03*
X142050000Y-125887500D03*
X142050000Y-123612500D03*
X143000000Y-123612500D03*
X143950000Y-123612500D03*
D21*
X161250000Y-82050000D03*
X161250000Y-77950000D03*
X124750000Y-82050000D03*
X124750000Y-77950000D03*
D24*
X96000000Y-124500000D03*
X97250000Y-124500000D03*
X137500000Y-129500000D03*
X92500000Y-101250000D03*
X130000000Y-46250000D03*
X80500000Y-35000000D03*
X132500000Y-129500000D03*
X125725000Y-49750000D03*
X179500000Y-38750000D03*
X80500000Y-113750000D03*
X80500000Y-88750000D03*
X179500000Y-122500000D03*
X179500000Y-37500000D03*
X80500000Y-115000000D03*
X94250000Y-43000000D03*
X80500000Y-37500000D03*
X135000000Y-129500000D03*
X95750000Y-37750000D03*
X113500000Y-46500000D03*
X85000000Y-66200000D03*
X179500000Y-126250000D03*
X142750000Y-47750000D03*
X130000000Y-129500000D03*
X91000000Y-38800000D03*
X160000000Y-121250000D03*
X103750000Y-30500000D03*
X116250000Y-129500000D03*
X106500000Y-39500000D03*
X83200000Y-93200000D03*
X105000000Y-120750000D03*
X179500000Y-123750000D03*
X173750000Y-129500000D03*
X156250000Y-31250000D03*
X163750000Y-129500000D03*
X80500000Y-110000000D03*
X173750000Y-55000000D03*
X109750000Y-47500000D03*
X179500000Y-50000000D03*
X96250000Y-42750000D03*
X80500000Y-127500000D03*
X131250000Y-129500000D03*
X96250000Y-129500000D03*
X139500000Y-47750000D03*
X128500000Y-44750000D03*
X106250000Y-124500000D03*
X163750000Y-55000000D03*
X105000000Y-129500000D03*
X80500000Y-73750000D03*
X155000000Y-129500000D03*
X87250000Y-107500000D03*
X86750000Y-92250000D03*
X101250000Y-124500000D03*
X87400000Y-66200000D03*
X142250000Y-53250000D03*
X156250000Y-42500000D03*
X172500000Y-129500000D03*
X85600000Y-97600000D03*
X86250000Y-67250000D03*
X98250000Y-42750000D03*
X87250000Y-115000000D03*
X144000000Y-45500000D03*
X179500000Y-111250000D03*
X91800000Y-38000000D03*
X108500000Y-53000000D03*
X87025000Y-86225000D03*
X80500000Y-82500000D03*
X95000000Y-30500000D03*
X141250000Y-46250000D03*
X88250000Y-48750000D03*
X130750000Y-47000000D03*
X114250000Y-47250000D03*
X80500000Y-65000000D03*
X179500000Y-48750000D03*
X105000000Y-114500000D03*
X160500000Y-118750000D03*
X88000000Y-117250000D03*
X87250000Y-106250000D03*
X179500000Y-107500000D03*
X106500000Y-53000000D03*
X86000000Y-88750000D03*
X171250000Y-30500000D03*
X105000000Y-119500000D03*
X86000000Y-89750000D03*
X80500000Y-90000000D03*
X80500000Y-76250000D03*
X80500000Y-47500000D03*
X165000000Y-129500000D03*
X100250000Y-43000000D03*
X105000000Y-118250000D03*
X91250000Y-98750000D03*
X91250000Y-129500000D03*
X100750000Y-37750000D03*
X179500000Y-121250000D03*
X87250000Y-103750000D03*
X160500000Y-120000000D03*
X170000000Y-55000000D03*
X179500000Y-110000000D03*
X85000000Y-78500000D03*
X156250000Y-40000000D03*
X140500000Y-45500000D03*
X170000000Y-129500000D03*
X111250000Y-129500000D03*
X103750000Y-129500000D03*
X87250000Y-113750000D03*
X166250000Y-30500000D03*
X102500000Y-129500000D03*
X91250000Y-45750000D03*
X93750000Y-129500000D03*
X91600000Y-79000000D03*
X163750000Y-105000000D03*
X95250000Y-42750000D03*
X83200000Y-89600000D03*
X123750000Y-129500000D03*
X105500000Y-53000000D03*
X83200000Y-94600000D03*
X121250000Y-129500000D03*
X80500000Y-50000000D03*
X158750000Y-30500000D03*
X101750000Y-37750000D03*
X80500000Y-100000000D03*
X80500000Y-40000000D03*
X161250000Y-30500000D03*
X80500000Y-48750000D03*
X123250000Y-49750000D03*
X86250000Y-30500000D03*
X86750000Y-94500000D03*
X179500000Y-125000000D03*
X144750000Y-46250000D03*
X80500000Y-77500000D03*
X80500000Y-51250000D03*
X80500000Y-58750000D03*
X87250000Y-112500000D03*
X80500000Y-120000000D03*
X176250000Y-105000000D03*
X97750000Y-37750000D03*
X179500000Y-52500000D03*
X92750000Y-44250000D03*
X166250000Y-105000000D03*
X86000000Y-85250000D03*
X83200000Y-88400000D03*
X80500000Y-63750000D03*
X113750000Y-129500000D03*
X168750000Y-30500000D03*
X133750000Y-129500000D03*
X177500000Y-30500000D03*
X143250000Y-44750000D03*
X107750000Y-47500000D03*
X155000000Y-128250000D03*
X85000000Y-30500000D03*
X98500000Y-124500000D03*
X101250000Y-129500000D03*
X87750000Y-92250000D03*
X168750000Y-129500000D03*
X103250000Y-39250000D03*
X92500000Y-30500000D03*
X170000000Y-30500000D03*
X92500000Y-100000000D03*
X175000000Y-105000000D03*
X87500000Y-58250000D03*
X87250000Y-108750000D03*
X83200000Y-92000000D03*
X97500000Y-30500000D03*
X93000000Y-122250000D03*
X80500000Y-116250000D03*
X87000000Y-42800000D03*
X143750000Y-129500000D03*
X142500000Y-129500000D03*
X97250000Y-42750000D03*
X159000000Y-122250000D03*
X105000000Y-30500000D03*
X115000000Y-129500000D03*
X156250000Y-37500000D03*
X166250000Y-55000000D03*
X102500000Y-38500000D03*
X83800000Y-95600000D03*
X177500000Y-55000000D03*
X168750000Y-105000000D03*
X91600000Y-85750000D03*
X142225000Y-49750000D03*
X81250000Y-30500000D03*
X101250000Y-30500000D03*
X80500000Y-57500000D03*
X90200000Y-39600000D03*
X80500000Y-125000000D03*
X167500000Y-105000000D03*
X97000000Y-55500000D03*
X85400000Y-83400000D03*
X87800000Y-98400000D03*
X84600000Y-96600000D03*
X172500000Y-30500000D03*
X106500000Y-40500000D03*
X86750000Y-50250000D03*
X178750000Y-105000000D03*
X83750000Y-129500000D03*
X160000000Y-30500000D03*
X87500000Y-129500000D03*
X104750000Y-40750000D03*
X87800000Y-42000000D03*
X83000000Y-56250000D03*
X83000000Y-57500000D03*
X86250000Y-129500000D03*
X178500000Y-55000000D03*
X125250000Y-45750000D03*
X99750000Y-37750000D03*
X156250000Y-36250000D03*
X99250000Y-42750000D03*
X80500000Y-87500000D03*
X142000000Y-47000000D03*
X80500000Y-33750000D03*
X171250000Y-129500000D03*
X102500000Y-30500000D03*
X103750000Y-124500000D03*
X80500000Y-46250000D03*
X179500000Y-113750000D03*
X91250000Y-58250000D03*
X82500000Y-129500000D03*
X123250000Y-46750000D03*
X142500000Y-44000000D03*
X91600000Y-72000000D03*
X92500000Y-103750000D03*
X158750000Y-129500000D03*
X84800000Y-43400000D03*
X92500000Y-56250000D03*
X80500000Y-31250000D03*
X116250000Y-124500000D03*
X80500000Y-118750000D03*
X87800000Y-94500000D03*
X106500000Y-38500000D03*
X80500000Y-71250000D03*
X80500000Y-68750000D03*
X157500000Y-30500000D03*
X179500000Y-127500000D03*
X148750000Y-129500000D03*
X118750000Y-129500000D03*
X141750000Y-43250000D03*
X80500000Y-106250000D03*
X101000000Y-43750000D03*
X126250000Y-129500000D03*
X80500000Y-41250000D03*
X176250000Y-129500000D03*
X95000000Y-129500000D03*
X115000000Y-124500000D03*
X172500000Y-55000000D03*
X152500000Y-129500000D03*
X85250000Y-52750000D03*
X92500000Y-102500000D03*
X173750000Y-105000000D03*
X80500000Y-55000000D03*
X175000000Y-55000000D03*
X80500000Y-91250000D03*
X80500000Y-95000000D03*
X158000000Y-123250000D03*
X85000000Y-68250000D03*
X87250000Y-111250000D03*
X94750000Y-37750000D03*
X179500000Y-106250000D03*
X85800000Y-74000000D03*
X176250000Y-55000000D03*
X156250000Y-41250000D03*
X106750000Y-47500000D03*
X84000000Y-66200000D03*
X117500000Y-124500000D03*
X80500000Y-61250000D03*
X139500000Y-48750000D03*
X98750000Y-30500000D03*
X84750000Y-53750000D03*
X106500000Y-32500000D03*
X93000000Y-55500000D03*
X86200000Y-66200000D03*
X104000000Y-40000000D03*
X94000000Y-55500000D03*
X163750000Y-30500000D03*
X83750000Y-58250000D03*
X86600000Y-73200000D03*
X179500000Y-40000000D03*
X106500000Y-36500000D03*
X87250000Y-100000000D03*
X88600000Y-41200000D03*
X87000000Y-89750000D03*
X80500000Y-101250000D03*
X156250000Y-43750000D03*
X92500000Y-105000000D03*
X86400000Y-82600000D03*
X156250000Y-129500000D03*
X153750000Y-129500000D03*
X92000000Y-45000000D03*
X80500000Y-32500000D03*
X160000000Y-129500000D03*
X90500000Y-46500000D03*
X113750000Y-124500000D03*
X156250000Y-38750000D03*
X175000000Y-30500000D03*
X108750000Y-47500000D03*
X173750000Y-30500000D03*
X80500000Y-56250000D03*
X98750000Y-37750000D03*
X127500000Y-129500000D03*
X110000000Y-129500000D03*
X106500000Y-34500000D03*
X80500000Y-85000000D03*
X139500000Y-50750000D03*
X85500000Y-51750000D03*
X92500000Y-129500000D03*
X86000000Y-86250000D03*
X112500000Y-124500000D03*
X179500000Y-42500000D03*
X80500000Y-45000000D03*
X179500000Y-31250000D03*
X179500000Y-41250000D03*
X112500000Y-129500000D03*
X147500000Y-129500000D03*
X108750000Y-129500000D03*
X80500000Y-111250000D03*
X95000000Y-105000000D03*
X167500000Y-55000000D03*
X80500000Y-97500000D03*
X179500000Y-128750000D03*
X155000000Y-127000000D03*
X146250000Y-129500000D03*
X107500000Y-129500000D03*
X166250000Y-129500000D03*
X87250000Y-110000000D03*
X179500000Y-45000000D03*
X86000000Y-43250000D03*
X162500000Y-129500000D03*
X85000000Y-58250000D03*
X162500000Y-30500000D03*
X100000000Y-129500000D03*
X80500000Y-108750000D03*
X85000000Y-74750000D03*
X80500000Y-128750000D03*
X167500000Y-30500000D03*
X106500000Y-31500000D03*
X102500000Y-124500000D03*
X93750000Y-105000000D03*
X80500000Y-121250000D03*
X179500000Y-112500000D03*
X90000000Y-30500000D03*
X87250000Y-105000000D03*
X105500000Y-41500000D03*
X105000000Y-123250000D03*
X98750000Y-129500000D03*
X87250000Y-116250000D03*
X171250000Y-55000000D03*
X80500000Y-86250000D03*
X80500000Y-112500000D03*
X179500000Y-35000000D03*
X168750000Y-55000000D03*
X179500000Y-117500000D03*
X93750000Y-37750000D03*
X88750000Y-129500000D03*
X80500000Y-52500000D03*
X107500000Y-53000000D03*
X123250000Y-45750000D03*
X123250000Y-47750000D03*
X80500000Y-92500000D03*
X179500000Y-33750000D03*
X179500000Y-43750000D03*
X86600000Y-98400000D03*
X120000000Y-129500000D03*
X179500000Y-118750000D03*
X80500000Y-107500000D03*
X91500000Y-92250000D03*
X112750000Y-45750000D03*
X125000000Y-129500000D03*
X123250000Y-48750000D03*
X106250000Y-42250000D03*
X100000000Y-30500000D03*
X138750000Y-129500000D03*
X179500000Y-108750000D03*
X90000000Y-119250000D03*
X109475000Y-49750000D03*
X122500000Y-129500000D03*
X84000000Y-54500000D03*
X80500000Y-96250000D03*
X145000000Y-129500000D03*
X108750000Y-124500000D03*
X111250000Y-124500000D03*
X96750000Y-37750000D03*
X80500000Y-122500000D03*
X136250000Y-129500000D03*
X156250000Y-32500000D03*
X80500000Y-42500000D03*
X80500000Y-83750000D03*
X106500000Y-30500000D03*
X110000000Y-124500000D03*
X106500000Y-35500000D03*
X127000000Y-47000000D03*
X109475000Y-51250000D03*
X105000000Y-115750000D03*
X129250000Y-45500000D03*
X165000000Y-105000000D03*
X176250000Y-30500000D03*
X105750000Y-47500000D03*
X80500000Y-102500000D03*
X106500000Y-37500000D03*
X177500000Y-129500000D03*
X80500000Y-66250000D03*
X167500000Y-129500000D03*
X92750000Y-37750000D03*
X105000000Y-122000000D03*
X80500000Y-36250000D03*
X106500000Y-33500000D03*
X156250000Y-35000000D03*
X91250000Y-30500000D03*
X80500000Y-78750000D03*
X83750000Y-30500000D03*
X87500000Y-30500000D03*
X179500000Y-120000000D03*
X80500000Y-53750000D03*
X85000000Y-77250000D03*
X178750000Y-129500000D03*
X125750000Y-53250000D03*
X80500000Y-80000000D03*
X88750000Y-30500000D03*
X81250000Y-129500000D03*
X80500000Y-62500000D03*
X80500000Y-98750000D03*
X156000000Y-125000000D03*
X124250000Y-45750000D03*
X80500000Y-67500000D03*
X172500000Y-105000000D03*
X179500000Y-47500000D03*
X86000000Y-51000000D03*
X85000000Y-129500000D03*
X96250000Y-30500000D03*
X80500000Y-117500000D03*
X89750000Y-47250000D03*
X127750000Y-47750000D03*
X92000000Y-121250000D03*
X160500000Y-117500000D03*
X179500000Y-46250000D03*
X89000000Y-48000000D03*
X139500000Y-46750000D03*
X179500000Y-53750000D03*
X156250000Y-45000000D03*
X179500000Y-55000000D03*
X87000000Y-88750000D03*
X83250000Y-55250000D03*
X83200000Y-90800000D03*
X80500000Y-81250000D03*
X96000000Y-55500000D03*
X80500000Y-105000000D03*
X106250000Y-129500000D03*
X86250000Y-58250000D03*
X105000000Y-117000000D03*
X128750000Y-129500000D03*
X175000000Y-129500000D03*
X97500000Y-129500000D03*
X91000000Y-120250000D03*
X145500000Y-47000000D03*
X80500000Y-126250000D03*
X126250000Y-46250000D03*
X95000000Y-124000000D03*
X92500000Y-58250000D03*
X80500000Y-93750000D03*
X179500000Y-51250000D03*
X161250000Y-129500000D03*
X151250000Y-129500000D03*
X80500000Y-43750000D03*
X155000000Y-125750000D03*
X165000000Y-30500000D03*
X171250000Y-105000000D03*
X160500000Y-116250000D03*
X107500000Y-124500000D03*
X92500000Y-57250000D03*
X139500000Y-44750000D03*
X92500000Y-98750000D03*
X150000000Y-129500000D03*
X140000000Y-129500000D03*
X141250000Y-129500000D03*
X105000000Y-124500000D03*
X87000000Y-85250000D03*
X94000000Y-123250000D03*
X179500000Y-115000000D03*
X80500000Y-38750000D03*
X156250000Y-33750000D03*
X139500000Y-49750000D03*
X82500000Y-30500000D03*
X178750000Y-30500000D03*
X89400000Y-40400000D03*
X157000000Y-124250000D03*
X139500000Y-45750000D03*
X157500000Y-129500000D03*
X165000000Y-55000000D03*
X80500000Y-103750000D03*
X85000000Y-76000000D03*
X91500000Y-65250000D03*
X89000000Y-118250000D03*
X84400000Y-84200000D03*
X80500000Y-72500000D03*
X80500000Y-60000000D03*
X93500000Y-43500000D03*
X93750000Y-30500000D03*
X117500000Y-129500000D03*
X80500000Y-75000000D03*
X85000000Y-67250000D03*
X90000000Y-129500000D03*
X177500000Y-105000000D03*
X179500000Y-36250000D03*
X170000000Y-105000000D03*
X179500000Y-116250000D03*
X80500000Y-70000000D03*
X106750000Y-41500000D03*
X80500000Y-123750000D03*
X95000000Y-55500000D03*
X179500000Y-32500000D03*
X87500000Y-49500000D03*
X90000000Y-66895000D03*
X122250000Y-127592500D03*
X90000000Y-73695000D03*
X145000000Y-52000000D03*
X90000000Y-60095000D03*
X90250000Y-94095000D03*
X150750000Y-127592500D03*
X112250000Y-51905000D03*
X128500000Y-52000000D03*
X135250000Y-127592500D03*
X143000000Y-127592500D03*
X90000000Y-80495000D03*
X90000000Y-87295000D03*
X130750000Y-72750000D03*
X107750000Y-73750000D03*
X112500000Y-72750000D03*
X141750000Y-73750000D03*
X113250000Y-72750000D03*
X123250000Y-76500000D03*
X124250000Y-76500000D03*
X145250000Y-73000000D03*
X140750000Y-73750000D03*
X147250000Y-73000000D03*
X126250000Y-76500000D03*
X109750000Y-76250000D03*
X142000000Y-76500000D03*
X129250000Y-72750000D03*
X139750000Y-73750000D03*
X108750000Y-73750000D03*
X123250000Y-73750000D03*
X107750000Y-76250000D03*
X140000000Y-76500000D03*
X114100000Y-72750000D03*
X124250000Y-73750000D03*
X125250000Y-73750000D03*
X130000000Y-72750000D03*
X141000000Y-76500000D03*
X106750000Y-76250000D03*
X146250000Y-73000000D03*
X106750000Y-73750000D03*
X125250000Y-76500000D03*
X108750000Y-76250000D03*
X120250000Y-101750000D03*
X137750000Y-101750000D03*
X126750000Y-96750000D03*
X111250000Y-96750000D03*
X117351041Y-106648959D03*
X127750000Y-95750000D03*
X137750000Y-98250000D03*
X144500000Y-95750000D03*
X140500000Y-87300000D03*
X141300000Y-87300000D03*
X142100000Y-87300000D03*
X127750000Y-96750000D03*
X110250000Y-96750000D03*
X109000000Y-87200000D03*
X143500000Y-95750000D03*
X123800000Y-87200000D03*
X124800000Y-87200000D03*
X102375000Y-95000000D03*
X99750000Y-84305000D03*
X107400000Y-87200000D03*
X126750000Y-95750000D03*
X137000000Y-98250000D03*
X120250000Y-98250000D03*
X143500000Y-96750000D03*
X137000000Y-101750000D03*
X111250000Y-95750000D03*
X144500000Y-96750000D03*
X108200000Y-87200000D03*
X110250000Y-95750000D03*
X121000000Y-98250000D03*
X121000000Y-101750000D03*
X125800000Y-87200000D03*
X100750000Y-91250000D03*
X145000000Y-49365000D03*
X128500000Y-49365000D03*
X112250000Y-49365000D03*
X135500000Y-72750000D03*
X129200000Y-87250000D03*
X134700000Y-72750000D03*
X133500000Y-55225000D03*
X130000000Y-87250000D03*
X136300000Y-72750000D03*
X130800000Y-87250000D03*
X99200000Y-68325000D03*
X88000000Y-70800000D03*
X89259803Y-88825000D03*
X146500000Y-87300000D03*
X145700000Y-87300000D03*
X99200000Y-75125000D03*
X153000000Y-72750000D03*
X151000000Y-72750000D03*
X147300000Y-87300000D03*
X152000000Y-72750000D03*
X150600000Y-57000000D03*
X88000000Y-63750000D03*
X89150000Y-81825000D03*
X97750000Y-87125000D03*
X97750000Y-80325000D03*
X128500000Y-100000000D03*
X112000000Y-100100000D03*
X145000000Y-100000000D03*
X113500000Y-87300000D03*
X119000000Y-72750000D03*
X114300000Y-87300000D03*
X118250000Y-72750000D03*
X117000000Y-54825000D03*
X112700000Y-87300000D03*
X119750000Y-72750000D03*
X99386702Y-61525000D03*
X128500000Y-50635000D03*
X152500000Y-46750000D03*
X151500000Y-46750000D03*
X150500000Y-46750000D03*
X153250000Y-47750000D03*
X153750000Y-46750000D03*
X149500000Y-46750000D03*
X153000000Y-48750000D03*
X137000000Y-48750000D03*
X137000000Y-46750000D03*
X135000000Y-46750000D03*
X137000000Y-47750000D03*
X136000000Y-46750000D03*
X133000000Y-46750000D03*
X134000000Y-46750000D03*
X118750000Y-47000000D03*
X119750000Y-47000000D03*
X116750000Y-47000000D03*
X120750000Y-48000000D03*
X120750000Y-49000000D03*
X117750000Y-47000000D03*
X120750000Y-47000000D03*
X145000000Y-50635000D03*
X112250000Y-50635000D03*
X96475000Y-76235000D03*
X145200000Y-55575000D03*
X96475000Y-96635000D03*
X128447550Y-54947550D03*
X96475000Y-69435000D03*
X96475000Y-89835000D03*
X111200000Y-54650000D03*
X96475000Y-62635000D03*
X96500000Y-83035000D03*
X89250000Y-89925000D03*
X87475000Y-71800000D03*
X89150000Y-83175000D03*
X88000000Y-65000000D03*
X99250000Y-69800000D03*
X123000000Y-56675000D03*
X139500000Y-58500000D03*
X99348475Y-76505909D03*
X96475000Y-88565000D03*
X122425000Y-106000000D03*
X125199847Y-55274847D03*
X96475000Y-68165000D03*
X138750000Y-106000000D03*
X96475000Y-95365000D03*
X141750000Y-55675000D03*
X96475000Y-74965000D03*
X96475000Y-81765000D03*
X110000000Y-54025000D03*
X96475000Y-61365000D03*
X140460000Y-127592500D03*
X145540000Y-127592500D03*
X124790000Y-127592500D03*
X119710000Y-127592500D03*
X153290000Y-127592500D03*
X148210000Y-127592500D03*
X132710000Y-127592500D03*
X137790000Y-127592500D03*
X126500000Y-106000000D03*
X98500000Y-92750000D03*
X98500000Y-99500000D03*
X143000000Y-106000000D03*
D25*
X148739950Y-108500000D02*
X158729900Y-108500000D01*
X90200000Y-94045000D02*
X90200000Y-87495000D01*
X90000000Y-60095000D02*
X90000000Y-66895000D01*
X111250000Y-47250000D02*
X110250000Y-46250000D01*
X140565003Y-124709997D02*
X140500000Y-124775000D01*
X83850000Y-52650000D02*
X83250000Y-53250000D01*
X127700000Y-51200000D02*
X128500000Y-52000000D01*
X123250000Y-124775000D02*
X119750000Y-124775000D01*
X145000000Y-52000000D02*
X128500000Y-52000000D01*
X150750000Y-124750000D02*
X150750000Y-123612500D01*
X136200000Y-123612500D02*
X136200000Y-124700000D01*
X110250000Y-46250000D02*
X105004848Y-46250000D01*
X135250000Y-123612500D02*
X135250000Y-127592500D01*
X136250000Y-124750000D02*
X144000000Y-124750000D01*
X133250000Y-124750000D02*
X133225000Y-124775000D01*
X143950000Y-124700000D02*
X144000000Y-124750000D01*
X150750000Y-127592500D02*
X150750000Y-125887500D01*
X133000000Y-124775000D02*
X133025000Y-124750000D01*
X143065003Y-127527497D02*
X143000000Y-127592500D01*
X133025000Y-124750000D02*
X133250000Y-124750000D01*
X90200000Y-87495000D02*
X90000000Y-87295000D01*
X112250000Y-51905000D02*
X111250000Y-50905000D01*
X133250000Y-124750000D02*
X136250000Y-124750000D01*
X81650000Y-53250000D02*
X81650000Y-43700000D01*
X112955000Y-51200000D02*
X127700000Y-51200000D01*
X89780000Y-59875000D02*
X90000000Y-60095000D01*
X143065003Y-123547497D02*
X143065003Y-127527497D01*
X123200000Y-123612500D02*
X123200000Y-124725000D01*
X151700000Y-123612500D02*
X151700000Y-124700000D01*
X90250000Y-94095000D02*
X90200000Y-94045000D01*
X112250000Y-51905000D02*
X112955000Y-51200000D01*
X90000000Y-66895000D02*
X90000000Y-73695000D01*
X143950000Y-123612500D02*
X143950000Y-124700000D01*
X151700000Y-124700000D02*
X151750000Y-124750000D01*
X82100000Y-43250000D02*
X82750000Y-43250000D01*
X90000000Y-87295000D02*
X90000000Y-80495000D01*
X133225000Y-124775000D02*
X123250000Y-124775000D01*
D26*
X128405000Y-51905000D02*
X128500000Y-52000000D01*
D25*
X144000000Y-124750000D02*
X150750000Y-124750000D01*
X135250000Y-127592500D02*
X135250000Y-125887500D01*
X148525000Y-124750000D02*
X148250000Y-125025000D01*
X150750000Y-125887500D02*
X150750000Y-124750000D01*
X81650000Y-43700000D02*
X82100000Y-43250000D01*
X83850000Y-51650000D02*
X83850000Y-52650000D01*
X122250000Y-123612500D02*
X122250000Y-127592500D01*
X111250000Y-50905000D02*
X111250000Y-47250000D01*
X93875000Y-41625000D02*
X83850000Y-51650000D01*
X90000000Y-80495000D02*
X90000000Y-73695000D01*
X136200000Y-124700000D02*
X136250000Y-124750000D01*
X81900000Y-53500000D02*
X81650000Y-53250000D01*
X123200000Y-124725000D02*
X123250000Y-124775000D01*
X151750000Y-124750000D02*
X150750000Y-124750000D01*
X100379848Y-41625000D02*
X93875000Y-41625000D01*
X105004848Y-46250000D02*
X100379848Y-41625000D01*
X83250000Y-53250000D02*
X81650000Y-53250000D01*
X148184997Y-124709997D02*
X148250000Y-124775000D01*
D26*
X92891244Y-39250000D02*
X101363604Y-39250000D01*
X86391244Y-45750000D02*
X92891244Y-39250000D01*
X82750000Y-45750000D02*
X86391244Y-45750000D01*
X140063604Y-43700000D02*
X145000000Y-48636396D01*
X145000000Y-48636396D02*
X145000000Y-49365000D01*
X101363604Y-39250000D02*
X105813604Y-43700000D01*
X105813604Y-43700000D02*
X140063604Y-43700000D01*
X93264036Y-40150000D02*
X100990812Y-40150000D01*
X82750000Y-48250000D02*
X85164036Y-48250000D01*
X128500000Y-47000000D02*
X128500000Y-49365000D01*
X100990812Y-40150000D02*
X105590812Y-44750000D01*
X126250000Y-44750000D02*
X128500000Y-47000000D01*
X85164036Y-48250000D02*
X93264036Y-40150000D01*
X105590812Y-44750000D02*
X126250000Y-44750000D01*
X93636828Y-41050000D02*
X100618020Y-41050000D01*
X100618020Y-41050000D02*
X105218020Y-45650000D01*
X105218020Y-45650000D02*
X110463172Y-45650000D01*
X83936828Y-50750000D02*
X93636828Y-41050000D01*
X112250000Y-47436828D02*
X112250000Y-49365000D01*
X110463172Y-45650000D02*
X112250000Y-47436828D01*
X82750000Y-50750000D02*
X83936828Y-50750000D01*
X100059799Y-63150000D02*
X99622792Y-63150000D01*
X114122792Y-56900000D02*
X105872792Y-56900000D01*
X126463846Y-55672550D02*
X125686549Y-56449847D01*
X99622792Y-63150000D02*
X99200000Y-63572792D01*
X99200000Y-63572792D02*
X99200000Y-68525000D01*
X101011702Y-61761090D02*
X101011702Y-62198097D01*
X118572792Y-55950000D02*
X118072792Y-56450000D01*
X125686549Y-56449847D02*
X124199847Y-56449847D01*
X118072792Y-56450000D02*
X114572792Y-56450000D01*
X101011702Y-62198097D02*
X100059799Y-63150000D01*
X128747856Y-55672550D02*
X126463846Y-55672550D01*
X123700000Y-55950000D02*
X118572792Y-55950000D01*
X133500000Y-55225000D02*
X133475000Y-55250000D01*
X129170406Y-55250000D02*
X128747856Y-55672550D01*
X105872792Y-56900000D02*
X101011702Y-61761090D01*
X133475000Y-55250000D02*
X129170406Y-55250000D01*
X114572792Y-56450000D02*
X114122792Y-56900000D01*
X124199847Y-56449847D02*
X123700000Y-55950000D01*
X89259803Y-88825000D02*
X88850000Y-88415197D01*
X87975000Y-83375000D02*
X87975000Y-81006802D01*
X88850000Y-84250000D02*
X87975000Y-83375000D01*
X87975000Y-81006802D02*
X88375000Y-80606802D01*
X88375000Y-80606802D02*
X88375000Y-71175000D01*
X88375000Y-71175000D02*
X88000000Y-70800000D01*
X88850000Y-88415197D02*
X88850000Y-84250000D01*
X150550000Y-57050000D02*
X150600000Y-57000000D01*
X101500000Y-64392094D02*
X106842094Y-59050000D01*
X115563604Y-59050000D02*
X116163604Y-58450000D01*
X129279594Y-57050000D02*
X150550000Y-57050000D01*
X106842094Y-59050000D02*
X115563604Y-59050000D01*
X124673097Y-58050000D02*
X128279594Y-58050000D01*
X101500000Y-72825000D02*
X101500000Y-64392094D01*
X116163604Y-58450000D02*
X124273097Y-58450000D01*
X99200000Y-75125000D02*
X101500000Y-72825000D01*
X124273097Y-58450000D02*
X124673097Y-58050000D01*
X128279594Y-58050000D02*
X129279594Y-57050000D01*
X89150000Y-81825000D02*
X89275000Y-81700000D01*
X89275000Y-81700000D02*
X89275000Y-65025000D01*
X89275000Y-65025000D02*
X88000000Y-63750000D01*
D25*
X97750000Y-87125000D02*
X97650000Y-87025000D01*
X97650000Y-87025000D02*
X97650000Y-80425000D01*
X97650000Y-80425000D02*
X97750000Y-80325000D01*
X112100000Y-100000000D02*
X112000000Y-100100000D01*
X128500000Y-100000000D02*
X112100000Y-100000000D01*
X145000000Y-100000000D02*
X128500000Y-100000000D01*
D26*
X105072792Y-55200000D02*
X110724695Y-55200000D01*
X112075305Y-54800000D02*
X116975000Y-54800000D01*
X110724695Y-55200000D02*
X110899695Y-55375000D01*
X99386702Y-60886090D02*
X105072792Y-55200000D01*
X110899695Y-55375000D02*
X111500305Y-55375000D01*
X116975000Y-54800000D02*
X117000000Y-54825000D01*
X111500305Y-55375000D02*
X112075305Y-54800000D01*
X99386702Y-61525000D02*
X99386702Y-60886090D01*
X129250000Y-47113604D02*
X129250000Y-49885000D01*
X105752208Y-44275000D02*
X126411396Y-44275000D01*
X101177208Y-39700000D02*
X105752208Y-44275000D01*
X82750000Y-47000000D02*
X85777640Y-47000000D01*
X129250000Y-49885000D02*
X128500000Y-50635000D01*
X85777640Y-47000000D02*
X93077640Y-39700000D01*
X126411396Y-44275000D02*
X129250000Y-47113604D01*
X93077640Y-39700000D02*
X101177208Y-39700000D01*
X145725000Y-50025000D02*
X145725000Y-48725000D01*
X92754848Y-38750000D02*
X87004848Y-44500000D01*
X101500000Y-38750000D02*
X92754848Y-38750000D01*
X145000000Y-50635000D02*
X145115000Y-50635000D01*
X145725000Y-48725000D02*
X140250000Y-43250000D01*
X145115000Y-50635000D02*
X145725000Y-50025000D01*
X87004848Y-44500000D02*
X82750000Y-44500000D01*
X140250000Y-43250000D02*
X106000000Y-43250000D01*
X106000000Y-43250000D02*
X101500000Y-38750000D01*
X93450432Y-40600000D02*
X100804416Y-40600000D01*
X113000000Y-47550432D02*
X113000000Y-49885000D01*
X84550432Y-49500000D02*
X93450432Y-40600000D01*
X113000000Y-49885000D02*
X112250000Y-50635000D01*
X110649568Y-45200000D02*
X113000000Y-47550432D01*
X100804416Y-40600000D02*
X105404416Y-45200000D01*
X105404416Y-45200000D02*
X110649568Y-45200000D01*
X82750000Y-49500000D02*
X84550432Y-49500000D01*
X101050000Y-71660000D02*
X96475000Y-76235000D01*
X145200000Y-55575000D02*
X145200000Y-55800000D01*
X115377208Y-58600000D02*
X106655698Y-58600000D01*
X128093198Y-57600000D02*
X124486701Y-57600000D01*
X101050000Y-64205698D02*
X101050000Y-71660000D01*
X115977208Y-58000000D02*
X115377208Y-58600000D01*
X129093198Y-56600000D02*
X128093198Y-57600000D01*
X106655698Y-58600000D02*
X101050000Y-64205698D01*
X144400000Y-56600000D02*
X129093198Y-56600000D01*
X145200000Y-55800000D02*
X144400000Y-56600000D01*
X124486701Y-57600000D02*
X124086701Y-58000000D01*
X124086701Y-58000000D02*
X115977208Y-58000000D01*
X100561702Y-61574694D02*
X100561702Y-62011701D01*
X128447550Y-54947550D02*
X126552450Y-54947550D01*
X100561702Y-62011701D02*
X99873403Y-62700000D01*
X126552450Y-54947550D02*
X125500153Y-55999847D01*
X125500153Y-55999847D02*
X124386243Y-55999847D01*
X99873403Y-62700000D02*
X99436396Y-62700000D01*
X97250000Y-68660000D02*
X96475000Y-69435000D01*
X113936396Y-56450000D02*
X105686396Y-56450000D01*
X97250000Y-64886396D02*
X97250000Y-68660000D01*
X124386243Y-55999847D02*
X123886396Y-55500000D01*
X114386396Y-56000000D02*
X113936396Y-56450000D01*
X123886396Y-55500000D02*
X118386396Y-55500000D01*
X118386396Y-55500000D02*
X117886396Y-56000000D01*
X117886396Y-56000000D02*
X114386396Y-56000000D01*
X105686396Y-56450000D02*
X100561702Y-61574694D01*
X99436396Y-62700000D02*
X97250000Y-64886396D01*
X97001396Y-62635000D02*
X96475000Y-62635000D01*
X104886396Y-54750000D02*
X97001396Y-62635000D01*
X111100000Y-54750000D02*
X104886396Y-54750000D01*
X111200000Y-54650000D02*
X111100000Y-54750000D01*
X87925000Y-80420406D02*
X87925000Y-72250000D01*
X87925000Y-72250000D02*
X87475000Y-71800000D01*
X89250000Y-89925000D02*
X89250000Y-89840502D01*
X88400000Y-84436396D02*
X87525000Y-83561396D01*
X88400000Y-88990502D02*
X88400000Y-84436396D01*
X87525000Y-80820406D02*
X87925000Y-80420406D01*
X87525000Y-83561396D02*
X87525000Y-80820406D01*
X89250000Y-89840502D02*
X88400000Y-88990502D01*
X88825000Y-80793198D02*
X88825000Y-65825000D01*
X88425000Y-82450000D02*
X88425000Y-81193198D01*
X88425000Y-81193198D02*
X88825000Y-80793198D01*
X88825000Y-65825000D02*
X88000000Y-65000000D01*
X89150000Y-83175000D02*
X88425000Y-82450000D01*
X118259188Y-56900000D02*
X114759188Y-56900000D01*
X114309188Y-57350000D02*
X106059188Y-57350000D01*
X101461702Y-62384493D02*
X99750000Y-64096195D01*
X118759188Y-56400000D02*
X118259188Y-56900000D01*
X123000000Y-56675000D02*
X122725000Y-56400000D01*
X122725000Y-56400000D02*
X118759188Y-56400000D01*
X99750000Y-64096195D02*
X99750000Y-67849695D01*
X99925000Y-68024695D02*
X99925000Y-69125000D01*
X114759188Y-56900000D02*
X114309188Y-57350000D01*
X101461702Y-61947486D02*
X101461702Y-62384493D01*
X99925000Y-69125000D02*
X99250000Y-69800000D01*
X99750000Y-67849695D02*
X99925000Y-68024695D01*
X106059188Y-57350000D02*
X101461702Y-61947486D01*
X116350000Y-58900000D02*
X124459493Y-58900000D01*
X129465990Y-57500000D02*
X139000000Y-57500000D01*
X107028490Y-59500000D02*
X115750000Y-59500000D01*
X99348475Y-76505909D02*
X101950000Y-73904384D01*
X124859493Y-58500000D02*
X128465990Y-58500000D01*
X101950000Y-73904384D02*
X101950000Y-64578490D01*
X124459493Y-58900000D02*
X124859493Y-58500000D01*
X139000000Y-57500000D02*
X139500000Y-58000000D01*
X115750000Y-59500000D02*
X116350000Y-58900000D01*
X128465990Y-58500000D02*
X129465990Y-57500000D01*
X101950000Y-64578490D02*
X107028490Y-59500000D01*
X139500000Y-58000000D02*
X139500000Y-58500000D01*
X113934997Y-108684997D02*
X99250000Y-94000000D01*
X99250000Y-94000000D02*
X99250000Y-91340000D01*
X122425000Y-106000000D02*
X119740003Y-108684997D01*
X99250000Y-91340000D02*
X96475000Y-88565000D01*
X119740003Y-108684997D02*
X113934997Y-108684997D01*
X105500000Y-56000000D02*
X100111702Y-61388298D01*
X96475000Y-65025000D02*
X96475000Y-68165000D01*
X114200000Y-55550000D02*
X113750000Y-56000000D01*
X124072792Y-55050000D02*
X118200000Y-55050000D01*
X124297639Y-55274847D02*
X124072792Y-55050000D01*
X99250000Y-62250000D02*
X96475000Y-65025000D01*
X125199847Y-55274847D02*
X124297639Y-55274847D01*
X99687007Y-62250000D02*
X99250000Y-62250000D01*
X100111702Y-61825305D02*
X99687007Y-62250000D01*
X100111702Y-61388298D02*
X100111702Y-61825305D01*
X113750000Y-56000000D02*
X105500000Y-56000000D01*
X118200000Y-55050000D02*
X117700000Y-55550000D01*
X117700000Y-55550000D02*
X114200000Y-55550000D01*
X134815003Y-109934997D02*
X111184997Y-109934997D01*
X96615000Y-95365000D02*
X96475000Y-95365000D01*
X111184997Y-109934997D02*
X96615000Y-95365000D01*
X138750000Y-106000000D02*
X134815003Y-109934997D01*
X127906802Y-57150000D02*
X124300305Y-57150000D01*
X106469302Y-58150000D02*
X100600000Y-64019302D01*
X141750000Y-55675000D02*
X141275000Y-56150000D01*
X100600000Y-64019302D02*
X100600000Y-71040000D01*
X115190812Y-58150000D02*
X106469302Y-58150000D01*
X124300305Y-57150000D02*
X123900305Y-57550000D01*
X115790812Y-57550000D02*
X115190812Y-58150000D01*
X100600000Y-71040000D02*
X96475000Y-75165000D01*
X141275000Y-56150000D02*
X128906802Y-56150000D01*
X123900305Y-57550000D02*
X115790812Y-57550000D01*
X128906802Y-56150000D02*
X127906802Y-57150000D01*
X104700000Y-54300000D02*
X97635000Y-61365000D01*
X97635000Y-61365000D02*
X96475000Y-61365000D01*
X109725000Y-54300000D02*
X104700000Y-54300000D01*
X110000000Y-54025000D02*
X109725000Y-54300000D01*
D25*
X140552500Y-127500000D02*
X140460000Y-127592500D01*
X142115003Y-125822497D02*
X142115003Y-127384997D01*
X142115003Y-127384997D02*
X142000000Y-127500000D01*
X142000000Y-127500000D02*
X140552500Y-127500000D01*
X144015003Y-125822497D02*
X144015003Y-127265003D01*
X144250000Y-127500000D02*
X145447500Y-127500000D01*
X144015003Y-127265003D02*
X144250000Y-127500000D01*
X145447500Y-127500000D02*
X145540000Y-127592500D01*
X123200000Y-127200000D02*
X123500000Y-127500000D01*
X123500000Y-127500000D02*
X124697500Y-127500000D01*
X123200000Y-125887500D02*
X123200000Y-127200000D01*
X124697500Y-127500000D02*
X124790000Y-127592500D01*
X119802500Y-127500000D02*
X119710000Y-127592500D01*
X121000000Y-127500000D02*
X119802500Y-127500000D01*
X121300000Y-127200000D02*
X121000000Y-127500000D01*
X121300000Y-125887500D02*
X121300000Y-127200000D01*
X151700000Y-127450000D02*
X151842500Y-127592500D01*
X151700000Y-125887500D02*
X151700000Y-127450000D01*
X151842500Y-127592500D02*
X153290000Y-127592500D01*
X149657500Y-127592500D02*
X148210000Y-127592500D01*
X149800000Y-125887500D02*
X149800000Y-127450000D01*
X149800000Y-127450000D02*
X149657500Y-127592500D01*
X134300000Y-125887500D02*
X134300000Y-127200000D01*
X133907500Y-127592500D02*
X132710000Y-127592500D01*
X134300000Y-127200000D02*
X133907500Y-127592500D01*
X136592500Y-127592500D02*
X136200000Y-127200000D01*
X137790000Y-127592500D02*
X136592500Y-127592500D01*
X136200000Y-127200000D02*
X136200000Y-125887500D01*
D26*
X98500000Y-92750000D02*
X98500000Y-93886396D01*
X98500000Y-93886396D02*
X113748601Y-109134997D01*
X123365003Y-109134997D02*
X126500000Y-106000000D01*
X113748601Y-109134997D02*
X123365003Y-109134997D01*
X100113604Y-99500000D02*
X110998601Y-110384997D01*
X110998601Y-110384997D02*
X138615003Y-110384997D01*
X138615003Y-110384997D02*
X143000000Y-106000000D01*
X98500000Y-99500000D02*
X100113604Y-99500000D01*
X138500000Y-110384997D02*
X138615003Y-110384997D01*
G04 #@! TA.AperFunction,Conductor*
G36*
X110370651Y-81267108D02*
G01*
X110437664Y-81286871D01*
X110483356Y-81339730D01*
X110494500Y-81391107D01*
X110494500Y-91493907D01*
X110495342Y-91528223D01*
X110495711Y-91543244D01*
X110496308Y-91555401D01*
X110499938Y-91604612D01*
X110517358Y-91781482D01*
X110517360Y-91781502D01*
X110531831Y-91879063D01*
X110531833Y-91879077D01*
X110536572Y-91902905D01*
X110536580Y-91902935D01*
X110560553Y-91998650D01*
X110610370Y-92162876D01*
X110643626Y-92255815D01*
X110652917Y-92278245D01*
X110652934Y-92278285D01*
X110695091Y-92367414D01*
X110695106Y-92367445D01*
X110695111Y-92367454D01*
X110775996Y-92518781D01*
X110776000Y-92518787D01*
X110826725Y-92603417D01*
X110840230Y-92623629D01*
X110899015Y-92702893D01*
X111007883Y-92835549D01*
X111074149Y-92908662D01*
X111091337Y-92925850D01*
X111164450Y-92992116D01*
X111297106Y-93100984D01*
X111376370Y-93159769D01*
X111396582Y-93173274D01*
X111451683Y-93206300D01*
X111481209Y-93223997D01*
X111481217Y-93224002D01*
X111510934Y-93239886D01*
X111632554Y-93304893D01*
X111632584Y-93304907D01*
X111721713Y-93347064D01*
X111721732Y-93347072D01*
X111744184Y-93356373D01*
X111744189Y-93356374D01*
X111744192Y-93356376D01*
X111837122Y-93389628D01*
X112001345Y-93439444D01*
X112097071Y-93463422D01*
X112097089Y-93463425D01*
X112097105Y-93463429D01*
X112101650Y-93464332D01*
X112120912Y-93468164D01*
X112218506Y-93482640D01*
X112395380Y-93500061D01*
X112444609Y-93503692D01*
X112456763Y-93504289D01*
X112506093Y-93505500D01*
X112506108Y-93505500D01*
X114743892Y-93505500D01*
X114743907Y-93505500D01*
X114793237Y-93504289D01*
X114805391Y-93503692D01*
X114854620Y-93500061D01*
X115031493Y-93482640D01*
X115129087Y-93468164D01*
X115152928Y-93463422D01*
X115248654Y-93439444D01*
X115412877Y-93389628D01*
X115505807Y-93356376D01*
X115528265Y-93347073D01*
X115528276Y-93347067D01*
X115528285Y-93347064D01*
X115564795Y-93329794D01*
X115617445Y-93304893D01*
X115768787Y-93223999D01*
X115853417Y-93173274D01*
X115873629Y-93159769D01*
X115952893Y-93100984D01*
X116085549Y-92992116D01*
X116158662Y-92925850D01*
X116175850Y-92908662D01*
X116242116Y-92835549D01*
X116350984Y-92702893D01*
X116409769Y-92623629D01*
X116423274Y-92603417D01*
X116473999Y-92518787D01*
X116533043Y-92408322D01*
X116582003Y-92358480D01*
X116650141Y-92343019D01*
X116715821Y-92366850D01*
X116758190Y-92422407D01*
X116761611Y-92432651D01*
X116816091Y-92623049D01*
X116910302Y-92803407D01*
X116936510Y-92835549D01*
X117038890Y-92961109D01*
X117132803Y-93037684D01*
X117196593Y-93089698D01*
X117376951Y-93183909D01*
X117572582Y-93239886D01*
X117691963Y-93250500D01*
X120308036Y-93250499D01*
X120427418Y-93239886D01*
X120623049Y-93183909D01*
X120803407Y-93089698D01*
X120961109Y-92961109D01*
X121089698Y-92803407D01*
X121183909Y-92623049D01*
X121239886Y-92427418D01*
X121250500Y-92308037D01*
X121250499Y-87691964D01*
X121239886Y-87572582D01*
X121183909Y-87376951D01*
X121089698Y-87196593D01*
X120987520Y-87071281D01*
X120961109Y-87038890D01*
X120803409Y-86910304D01*
X120803410Y-86910304D01*
X120803407Y-86910302D01*
X120623049Y-86816091D01*
X120623048Y-86816090D01*
X120623045Y-86816089D01*
X120495389Y-86779563D01*
X120427418Y-86760114D01*
X120427415Y-86760113D01*
X120427413Y-86760113D01*
X120347178Y-86752980D01*
X120308037Y-86749500D01*
X120308033Y-86749500D01*
X118221851Y-86749500D01*
X118154812Y-86729815D01*
X118109057Y-86677011D01*
X118099113Y-86607853D01*
X118128138Y-86544297D01*
X118134170Y-86537819D01*
X118383507Y-86288482D01*
X121413793Y-83258198D01*
X121447808Y-83222471D01*
X121455980Y-83213455D01*
X121488229Y-83176071D01*
X121600982Y-83038682D01*
X121659769Y-82959416D01*
X121673274Y-82939204D01*
X121723999Y-82854574D01*
X121804893Y-82703232D01*
X121847073Y-82614052D01*
X121856376Y-82591594D01*
X121889628Y-82498664D01*
X121939444Y-82334441D01*
X121963422Y-82238715D01*
X121968164Y-82214874D01*
X121982640Y-82117280D01*
X122000061Y-81940406D01*
X122003692Y-81891177D01*
X122004289Y-81879023D01*
X122005500Y-81829693D01*
X122005500Y-81405106D01*
X122025185Y-81338067D01*
X122077989Y-81292312D01*
X122129644Y-81281106D01*
X126870650Y-81286750D01*
X126937664Y-81306514D01*
X126983356Y-81359373D01*
X126994500Y-81410750D01*
X126994500Y-91493907D01*
X126995342Y-91528223D01*
X126995711Y-91543244D01*
X126996308Y-91555401D01*
X126999938Y-91604612D01*
X127017358Y-91781482D01*
X127017360Y-91781502D01*
X127031831Y-91879063D01*
X127031833Y-91879077D01*
X127036572Y-91902905D01*
X127036580Y-91902935D01*
X127060553Y-91998650D01*
X127110370Y-92162876D01*
X127143626Y-92255815D01*
X127152917Y-92278245D01*
X127152934Y-92278285D01*
X127195091Y-92367414D01*
X127195106Y-92367445D01*
X127195111Y-92367454D01*
X127275996Y-92518781D01*
X127276000Y-92518787D01*
X127326725Y-92603417D01*
X127340230Y-92623629D01*
X127399015Y-92702893D01*
X127507883Y-92835549D01*
X127574149Y-92908662D01*
X127591337Y-92925850D01*
X127664450Y-92992116D01*
X127797106Y-93100984D01*
X127876370Y-93159769D01*
X127896582Y-93173274D01*
X127951683Y-93206300D01*
X127981209Y-93223997D01*
X127981217Y-93224002D01*
X128010934Y-93239886D01*
X128132554Y-93304893D01*
X128132584Y-93304907D01*
X128221713Y-93347064D01*
X128221732Y-93347072D01*
X128244184Y-93356373D01*
X128244189Y-93356374D01*
X128244192Y-93356376D01*
X128337122Y-93389628D01*
X128501345Y-93439444D01*
X128597071Y-93463422D01*
X128597089Y-93463425D01*
X128597105Y-93463429D01*
X128601650Y-93464332D01*
X128620912Y-93468164D01*
X128718506Y-93482640D01*
X128895380Y-93500061D01*
X128944609Y-93503692D01*
X128956763Y-93504289D01*
X129006093Y-93505500D01*
X129006108Y-93505500D01*
X130993892Y-93505500D01*
X130993907Y-93505500D01*
X131043237Y-93504289D01*
X131055391Y-93503692D01*
X131104620Y-93500061D01*
X131281493Y-93482640D01*
X131379087Y-93468164D01*
X131402928Y-93463422D01*
X131498654Y-93439444D01*
X131662877Y-93389628D01*
X131755807Y-93356376D01*
X131778265Y-93347073D01*
X131778276Y-93347067D01*
X131778285Y-93347064D01*
X131814795Y-93329794D01*
X131867445Y-93304893D01*
X132018787Y-93223999D01*
X132103417Y-93173274D01*
X132123629Y-93159769D01*
X132202893Y-93100984D01*
X132335549Y-92992116D01*
X132408662Y-92925850D01*
X132425850Y-92908662D01*
X132492116Y-92835549D01*
X132600984Y-92702893D01*
X132659769Y-92623629D01*
X132673274Y-92603417D01*
X132723999Y-92518787D01*
X132804893Y-92367445D01*
X132832993Y-92308034D01*
X132847064Y-92278285D01*
X132847067Y-92278276D01*
X132847073Y-92278265D01*
X132856376Y-92255807D01*
X132889628Y-92162877D01*
X132939444Y-91998654D01*
X132963422Y-91902928D01*
X132968164Y-91879087D01*
X132982640Y-91781493D01*
X133000061Y-91604620D01*
X133001836Y-91580545D01*
X133026396Y-91515136D01*
X133082421Y-91473388D01*
X133152124Y-91468556D01*
X133213373Y-91502175D01*
X133246724Y-91563572D01*
X133249500Y-91589664D01*
X133249500Y-92308028D01*
X133249501Y-92308034D01*
X133260113Y-92427415D01*
X133316089Y-92623045D01*
X133316090Y-92623046D01*
X133316091Y-92623049D01*
X133410302Y-92803407D01*
X133436510Y-92835549D01*
X133538890Y-92961109D01*
X133632803Y-93037684D01*
X133696593Y-93089698D01*
X133876951Y-93183909D01*
X134072582Y-93239886D01*
X134191963Y-93250500D01*
X136808036Y-93250499D01*
X136927418Y-93239886D01*
X137123049Y-93183909D01*
X137303407Y-93089698D01*
X137461109Y-92961109D01*
X137589698Y-92803407D01*
X137683909Y-92623049D01*
X137739886Y-92427418D01*
X137750500Y-92308037D01*
X137750499Y-87691964D01*
X137739886Y-87572582D01*
X137683909Y-87376951D01*
X137589698Y-87196593D01*
X137487520Y-87071281D01*
X137461109Y-87038890D01*
X137303409Y-86910304D01*
X137303410Y-86910304D01*
X137303407Y-86910302D01*
X137123049Y-86816091D01*
X137123048Y-86816090D01*
X137123045Y-86816089D01*
X136995389Y-86779563D01*
X136927418Y-86760114D01*
X136927415Y-86760113D01*
X136927413Y-86760113D01*
X136847178Y-86752980D01*
X136808037Y-86749500D01*
X136808033Y-86749500D01*
X134471851Y-86749500D01*
X134404812Y-86729815D01*
X134359057Y-86677011D01*
X134349113Y-86607853D01*
X134378138Y-86544297D01*
X134384155Y-86537834D01*
X137913793Y-83008198D01*
X137947808Y-82972471D01*
X137955980Y-82963455D01*
X137988229Y-82926071D01*
X138100982Y-82788682D01*
X138159769Y-82709416D01*
X138173274Y-82689204D01*
X138223999Y-82604574D01*
X138304893Y-82453232D01*
X138329794Y-82400582D01*
X138347064Y-82364072D01*
X138347067Y-82364063D01*
X138347073Y-82364052D01*
X138356376Y-82341594D01*
X138389628Y-82248664D01*
X138439444Y-82084441D01*
X138463422Y-81988715D01*
X138468164Y-81964874D01*
X138482640Y-81867280D01*
X138500061Y-81690406D01*
X138503692Y-81641177D01*
X138504289Y-81629023D01*
X138505500Y-81579693D01*
X138505500Y-81424748D01*
X138525185Y-81357709D01*
X138577989Y-81311954D01*
X138629640Y-81300749D01*
X143370650Y-81306393D01*
X143437664Y-81326157D01*
X143483356Y-81379016D01*
X143494500Y-81430393D01*
X143494500Y-91493907D01*
X143495342Y-91528223D01*
X143495711Y-91543244D01*
X143496308Y-91555401D01*
X143499938Y-91604612D01*
X143517358Y-91781482D01*
X143517360Y-91781502D01*
X143531831Y-91879063D01*
X143531833Y-91879077D01*
X143536572Y-91902905D01*
X143536580Y-91902935D01*
X143560553Y-91998650D01*
X143610370Y-92162876D01*
X143643626Y-92255815D01*
X143652917Y-92278245D01*
X143652934Y-92278285D01*
X143695091Y-92367414D01*
X143695106Y-92367445D01*
X143695111Y-92367454D01*
X143775996Y-92518781D01*
X143776000Y-92518787D01*
X143826725Y-92603417D01*
X143840230Y-92623629D01*
X143899015Y-92702893D01*
X144007883Y-92835549D01*
X144074149Y-92908662D01*
X144091337Y-92925850D01*
X144164450Y-92992116D01*
X144297106Y-93100984D01*
X144376370Y-93159769D01*
X144396582Y-93173274D01*
X144451683Y-93206300D01*
X144481209Y-93223997D01*
X144481217Y-93224002D01*
X144510934Y-93239886D01*
X144632554Y-93304893D01*
X144632584Y-93304907D01*
X144721713Y-93347064D01*
X144721732Y-93347072D01*
X144744184Y-93356373D01*
X144744189Y-93356374D01*
X144744192Y-93356376D01*
X144837122Y-93389628D01*
X145001345Y-93439444D01*
X145097071Y-93463422D01*
X145097089Y-93463425D01*
X145097105Y-93463429D01*
X145101650Y-93464332D01*
X145120912Y-93468164D01*
X145218506Y-93482640D01*
X145395380Y-93500061D01*
X145444609Y-93503692D01*
X145456763Y-93504289D01*
X145506093Y-93505500D01*
X145506108Y-93505500D01*
X147493892Y-93505500D01*
X147493907Y-93505500D01*
X147543237Y-93504289D01*
X147555391Y-93503692D01*
X147604620Y-93500061D01*
X147781493Y-93482640D01*
X147879087Y-93468164D01*
X147902928Y-93463422D01*
X147998654Y-93439444D01*
X148162877Y-93389628D01*
X148255807Y-93356376D01*
X148278265Y-93347073D01*
X148278276Y-93347067D01*
X148278285Y-93347064D01*
X148314795Y-93329794D01*
X148367445Y-93304893D01*
X148518787Y-93223999D01*
X148603417Y-93173274D01*
X148623629Y-93159769D01*
X148702893Y-93100984D01*
X148835549Y-92992116D01*
X148908662Y-92925850D01*
X148925850Y-92908662D01*
X148992116Y-92835549D01*
X149100984Y-92702893D01*
X149159769Y-92623629D01*
X149173274Y-92603417D01*
X149223999Y-92518787D01*
X149304893Y-92367445D01*
X149332993Y-92308034D01*
X149347064Y-92278285D01*
X149347067Y-92278276D01*
X149347073Y-92278265D01*
X149356376Y-92255807D01*
X149389628Y-92162877D01*
X149439444Y-91998654D01*
X149463422Y-91902928D01*
X149468164Y-91879087D01*
X149482640Y-91781493D01*
X149500061Y-91604620D01*
X149501836Y-91580545D01*
X149526396Y-91515136D01*
X149582421Y-91473388D01*
X149652124Y-91468556D01*
X149713373Y-91502175D01*
X149746724Y-91563572D01*
X149749500Y-91589664D01*
X149749500Y-92308028D01*
X149749501Y-92308034D01*
X149760113Y-92427415D01*
X149816089Y-92623045D01*
X149816090Y-92623046D01*
X149816091Y-92623049D01*
X149910302Y-92803407D01*
X149936510Y-92835549D01*
X150038890Y-92961109D01*
X150132803Y-93037684D01*
X150196593Y-93089698D01*
X150376951Y-93183909D01*
X150572582Y-93239886D01*
X150691963Y-93250500D01*
X153308036Y-93250499D01*
X153427418Y-93239886D01*
X153623049Y-93183909D01*
X153803407Y-93089698D01*
X153961109Y-92961109D01*
X154089698Y-92803407D01*
X154183909Y-92623049D01*
X154239886Y-92427418D01*
X154250500Y-92308037D01*
X154250499Y-87691964D01*
X154239886Y-87572582D01*
X154183909Y-87376951D01*
X154089698Y-87196593D01*
X153987520Y-87071281D01*
X153961109Y-87038890D01*
X153803409Y-86910304D01*
X153803410Y-86910304D01*
X153803407Y-86910302D01*
X153623049Y-86816091D01*
X153623048Y-86816090D01*
X153623045Y-86816089D01*
X153495389Y-86779563D01*
X153427418Y-86760114D01*
X153427415Y-86760113D01*
X153427413Y-86760113D01*
X153347178Y-86752980D01*
X153308037Y-86749500D01*
X153308033Y-86749500D01*
X150971851Y-86749500D01*
X150904812Y-86729815D01*
X150859057Y-86677011D01*
X150849113Y-86607853D01*
X150878138Y-86544297D01*
X150884155Y-86537834D01*
X154413793Y-83008198D01*
X154447808Y-82972471D01*
X154455980Y-82963455D01*
X154488229Y-82926071D01*
X154600982Y-82788682D01*
X154659769Y-82709416D01*
X154673274Y-82689204D01*
X154723999Y-82604574D01*
X154804893Y-82453232D01*
X154829794Y-82400582D01*
X154847064Y-82364072D01*
X154847067Y-82364063D01*
X154847073Y-82364052D01*
X154856376Y-82341594D01*
X154889628Y-82248664D01*
X154939444Y-82084441D01*
X154963422Y-81988715D01*
X154968164Y-81964874D01*
X154982640Y-81867280D01*
X155000061Y-81690406D01*
X155003692Y-81641177D01*
X155004289Y-81629023D01*
X155005500Y-81579693D01*
X155005500Y-81444391D01*
X155025185Y-81377352D01*
X155077989Y-81331597D01*
X155129641Y-81320392D01*
X178995121Y-81348803D01*
X179007235Y-81349413D01*
X179183966Y-81367019D01*
X179207784Y-81371782D01*
X179363912Y-81419308D01*
X179371833Y-81421719D01*
X179394264Y-81431033D01*
X179545436Y-81511995D01*
X179565617Y-81525502D01*
X179698101Y-81634378D01*
X179715266Y-81651563D01*
X179823981Y-81784173D01*
X179837461Y-81804366D01*
X179918243Y-81955634D01*
X179927530Y-81978076D01*
X179969168Y-82115445D01*
X179974500Y-82151415D01*
X179974500Y-101697414D01*
X179969161Y-101733409D01*
X179927424Y-101870998D01*
X179918121Y-101893456D01*
X179837227Y-102044798D01*
X179823722Y-102065010D01*
X179714854Y-102197666D01*
X179697666Y-102214854D01*
X179565010Y-102323722D01*
X179544798Y-102337227D01*
X179393456Y-102418121D01*
X179370998Y-102427424D01*
X179206775Y-102477240D01*
X179182934Y-102481982D01*
X179006061Y-102499403D01*
X178993907Y-102500000D01*
X157000000Y-102500000D01*
X156707112Y-102792887D01*
X156707101Y-102792897D01*
X152286819Y-107213181D01*
X152225496Y-107246666D01*
X152199138Y-107249500D01*
X148641528Y-107249500D01*
X148447123Y-107280290D01*
X148259920Y-107341117D01*
X148084544Y-107430476D01*
X147993691Y-107496485D01*
X147925304Y-107546172D01*
X147925302Y-107546174D01*
X147925301Y-107546174D01*
X147786124Y-107685351D01*
X147786124Y-107685352D01*
X147786122Y-107685354D01*
X147736435Y-107753741D01*
X147670426Y-107844594D01*
X147581067Y-108019970D01*
X147520240Y-108207173D01*
X147490429Y-108395398D01*
X147460500Y-108458533D01*
X147401188Y-108495464D01*
X147367956Y-108500000D01*
X142391058Y-108500000D01*
X142324019Y-108480315D01*
X142278264Y-108427511D01*
X142268320Y-108358353D01*
X142297345Y-108294797D01*
X142303377Y-108288319D01*
X142723846Y-107867850D01*
X143178160Y-107413535D01*
X143239481Y-107380052D01*
X143245405Y-107378913D01*
X143344981Y-107362298D01*
X143564503Y-107286936D01*
X143768626Y-107176470D01*
X143951784Y-107033913D01*
X144108979Y-106863153D01*
X144235924Y-106668849D01*
X144329157Y-106456300D01*
X144386134Y-106231305D01*
X144405300Y-106000000D01*
X144405300Y-105999993D01*
X144386135Y-105768702D01*
X144386133Y-105768691D01*
X144329157Y-105543699D01*
X144235924Y-105331151D01*
X144108983Y-105136852D01*
X144108980Y-105136849D01*
X144108979Y-105136847D01*
X143951784Y-104966087D01*
X143951779Y-104966083D01*
X143951777Y-104966081D01*
X143768634Y-104823535D01*
X143768628Y-104823531D01*
X143564504Y-104713064D01*
X143564495Y-104713061D01*
X143344984Y-104637702D01*
X143118919Y-104599979D01*
X143116049Y-104599500D01*
X142883951Y-104599500D01*
X142881081Y-104599979D01*
X142655015Y-104637702D01*
X142435504Y-104713061D01*
X142435495Y-104713064D01*
X142231371Y-104823531D01*
X142231365Y-104823535D01*
X142048222Y-104966081D01*
X142048219Y-104966084D01*
X141891016Y-105136852D01*
X141764075Y-105331151D01*
X141670843Y-105543698D01*
X141613518Y-105770068D01*
X141580993Y-105827308D01*
X138944622Y-108463681D01*
X138883299Y-108497166D01*
X138856941Y-108500000D01*
X138141058Y-108500000D01*
X138074019Y-108480315D01*
X138028264Y-108427511D01*
X138018320Y-108358353D01*
X138047345Y-108294797D01*
X138053377Y-108288319D01*
X138473846Y-107867850D01*
X138928160Y-107413535D01*
X138989481Y-107380052D01*
X138995405Y-107378913D01*
X139094981Y-107362298D01*
X139314503Y-107286936D01*
X139518626Y-107176470D01*
X139701784Y-107033913D01*
X139858979Y-106863153D01*
X139985924Y-106668849D01*
X140079157Y-106456300D01*
X140136134Y-106231305D01*
X140155300Y-106000000D01*
X140155300Y-105999993D01*
X140136135Y-105768702D01*
X140136133Y-105768691D01*
X140079157Y-105543699D01*
X139985924Y-105331151D01*
X139858983Y-105136852D01*
X139858980Y-105136849D01*
X139858979Y-105136847D01*
X139701784Y-104966087D01*
X139701779Y-104966083D01*
X139701777Y-104966081D01*
X139518634Y-104823535D01*
X139518628Y-104823531D01*
X139314504Y-104713064D01*
X139314495Y-104713061D01*
X139094984Y-104637702D01*
X138868919Y-104599979D01*
X138866049Y-104599500D01*
X138633951Y-104599500D01*
X138631081Y-104599979D01*
X138405015Y-104637702D01*
X138185504Y-104713061D01*
X138185495Y-104713064D01*
X137981371Y-104823531D01*
X137981365Y-104823535D01*
X137798222Y-104966081D01*
X137798219Y-104966084D01*
X137641016Y-105136852D01*
X137514075Y-105331151D01*
X137420843Y-105543698D01*
X137363518Y-105770068D01*
X137330993Y-105827308D01*
X134694622Y-108463681D01*
X134633299Y-108497166D01*
X134606941Y-108500000D01*
X125891058Y-108500000D01*
X125824019Y-108480315D01*
X125778264Y-108427511D01*
X125768320Y-108358353D01*
X125797345Y-108294797D01*
X125803377Y-108288319D01*
X126223846Y-107867850D01*
X126678160Y-107413535D01*
X126739481Y-107380052D01*
X126745405Y-107378913D01*
X126844981Y-107362298D01*
X127064503Y-107286936D01*
X127268626Y-107176470D01*
X127451784Y-107033913D01*
X127608979Y-106863153D01*
X127735924Y-106668849D01*
X127829157Y-106456300D01*
X127886134Y-106231305D01*
X127905300Y-106000000D01*
X127905300Y-105999993D01*
X127886135Y-105768702D01*
X127886133Y-105768691D01*
X127829157Y-105543699D01*
X127735924Y-105331151D01*
X127608983Y-105136852D01*
X127608980Y-105136849D01*
X127608979Y-105136847D01*
X127451784Y-104966087D01*
X127451779Y-104966083D01*
X127451777Y-104966081D01*
X127268634Y-104823535D01*
X127268628Y-104823531D01*
X127064504Y-104713064D01*
X127064495Y-104713061D01*
X126844984Y-104637702D01*
X126618919Y-104599979D01*
X126616049Y-104599500D01*
X126383951Y-104599500D01*
X126381081Y-104599979D01*
X126155015Y-104637702D01*
X125935504Y-104713061D01*
X125935495Y-104713064D01*
X125731371Y-104823531D01*
X125731365Y-104823535D01*
X125548222Y-104966081D01*
X125548219Y-104966084D01*
X125391016Y-105136852D01*
X125264075Y-105331151D01*
X125170843Y-105543698D01*
X125113518Y-105770068D01*
X125080993Y-105827308D01*
X122935125Y-107973178D01*
X122873802Y-108006663D01*
X122847444Y-108009497D01*
X122306562Y-108009497D01*
X122239523Y-107989812D01*
X122193768Y-107937008D01*
X122183824Y-107867850D01*
X122212849Y-107804294D01*
X122218881Y-107797816D01*
X122493518Y-107523178D01*
X122603160Y-107413535D01*
X122664481Y-107380052D01*
X122670405Y-107378913D01*
X122769981Y-107362298D01*
X122989503Y-107286936D01*
X123193626Y-107176470D01*
X123376784Y-107033913D01*
X123533979Y-106863153D01*
X123660924Y-106668849D01*
X123754157Y-106456300D01*
X123811134Y-106231305D01*
X123830300Y-106000000D01*
X123830300Y-105999993D01*
X123811135Y-105768702D01*
X123811133Y-105768691D01*
X123754157Y-105543699D01*
X123660924Y-105331151D01*
X123533983Y-105136852D01*
X123533980Y-105136849D01*
X123533979Y-105136847D01*
X123376784Y-104966087D01*
X123376779Y-104966083D01*
X123376777Y-104966081D01*
X123193634Y-104823535D01*
X123193628Y-104823531D01*
X122989504Y-104713064D01*
X122989495Y-104713061D01*
X122769984Y-104637702D01*
X122543919Y-104599979D01*
X122541049Y-104599500D01*
X122308951Y-104599500D01*
X122306081Y-104599979D01*
X122080015Y-104637702D01*
X121860504Y-104713061D01*
X121860495Y-104713064D01*
X121656371Y-104823531D01*
X121656365Y-104823535D01*
X121473222Y-104966081D01*
X121473219Y-104966084D01*
X121316016Y-105136852D01*
X121189075Y-105331151D01*
X121095843Y-105543698D01*
X121038518Y-105770068D01*
X121005993Y-105827308D01*
X119310125Y-107523178D01*
X119248802Y-107556663D01*
X119222444Y-107559497D01*
X114452557Y-107559497D01*
X114385518Y-107539812D01*
X114364876Y-107523178D01*
X106941691Y-100099993D01*
X110594700Y-100099993D01*
X110594700Y-100100006D01*
X110613864Y-100331297D01*
X110613866Y-100331308D01*
X110670842Y-100556300D01*
X110764075Y-100768848D01*
X110891016Y-100963147D01*
X110891019Y-100963151D01*
X110891021Y-100963153D01*
X111048216Y-101133913D01*
X111048219Y-101133915D01*
X111048222Y-101133918D01*
X111231365Y-101276464D01*
X111231371Y-101276468D01*
X111231374Y-101276470D01*
X111435497Y-101386936D01*
X111475008Y-101400500D01*
X111655015Y-101462297D01*
X111655017Y-101462297D01*
X111655019Y-101462298D01*
X111883951Y-101500500D01*
X111883952Y-101500500D01*
X112116048Y-101500500D01*
X112116049Y-101500500D01*
X112344981Y-101462298D01*
X112564503Y-101386936D01*
X112768626Y-101276470D01*
X112768634Y-101276464D01*
X112772912Y-101273669D01*
X112773533Y-101274619D01*
X112833397Y-101251004D01*
X112844561Y-101250500D01*
X127836768Y-101250500D01*
X127895786Y-101265446D01*
X127916157Y-101276470D01*
X127935497Y-101286936D01*
X128045258Y-101324617D01*
X128155015Y-101362297D01*
X128155017Y-101362297D01*
X128155019Y-101362298D01*
X128383951Y-101400500D01*
X128383952Y-101400500D01*
X128616048Y-101400500D01*
X128616049Y-101400500D01*
X128844981Y-101362298D01*
X129064503Y-101286936D01*
X129089018Y-101273669D01*
X129104214Y-101265446D01*
X129163232Y-101250500D01*
X144336768Y-101250500D01*
X144395786Y-101265446D01*
X144416157Y-101276470D01*
X144435497Y-101286936D01*
X144545258Y-101324617D01*
X144655015Y-101362297D01*
X144655017Y-101362297D01*
X144655019Y-101362298D01*
X144883951Y-101400500D01*
X144883952Y-101400500D01*
X145116048Y-101400500D01*
X145116049Y-101400500D01*
X145344981Y-101362298D01*
X145564503Y-101286936D01*
X145768626Y-101176470D01*
X145951784Y-101033913D01*
X146108979Y-100863153D01*
X146235924Y-100668849D01*
X146329157Y-100456300D01*
X146386134Y-100231305D01*
X146386135Y-100231297D01*
X146405300Y-100000006D01*
X146405300Y-99999993D01*
X146386135Y-99768702D01*
X146386133Y-99768691D01*
X146329157Y-99543699D01*
X146235924Y-99331151D01*
X146108983Y-99136852D01*
X146108980Y-99136849D01*
X146108979Y-99136847D01*
X145951784Y-98966087D01*
X145951779Y-98966083D01*
X145951777Y-98966081D01*
X145768634Y-98823535D01*
X145768628Y-98823531D01*
X145564504Y-98713064D01*
X145564495Y-98713061D01*
X145344984Y-98637702D01*
X145173282Y-98609050D01*
X145116049Y-98599500D01*
X144883951Y-98599500D01*
X144838164Y-98607140D01*
X144655015Y-98637702D01*
X144435501Y-98713062D01*
X144435486Y-98713069D01*
X144395786Y-98734554D01*
X144336768Y-98749500D01*
X129163232Y-98749500D01*
X129104214Y-98734554D01*
X129064513Y-98713069D01*
X129064507Y-98713066D01*
X129064503Y-98713064D01*
X129064500Y-98713063D01*
X129064498Y-98713062D01*
X128844984Y-98637702D01*
X128673282Y-98609050D01*
X128616049Y-98599500D01*
X128383951Y-98599500D01*
X128338164Y-98607140D01*
X128155015Y-98637702D01*
X127935501Y-98713062D01*
X127935486Y-98713069D01*
X127895786Y-98734554D01*
X127836768Y-98749500D01*
X112400039Y-98749500D01*
X112359773Y-98742780D01*
X112344982Y-98737702D01*
X112230515Y-98718601D01*
X112116049Y-98699500D01*
X111883951Y-98699500D01*
X111838164Y-98707140D01*
X111655015Y-98737702D01*
X111435504Y-98813061D01*
X111435495Y-98813064D01*
X111231371Y-98923531D01*
X111231365Y-98923535D01*
X111048222Y-99066081D01*
X111048219Y-99066084D01*
X110891016Y-99236852D01*
X110764075Y-99431151D01*
X110670842Y-99643699D01*
X110613866Y-99868691D01*
X110613864Y-99868702D01*
X110594700Y-100099993D01*
X106941691Y-100099993D01*
X100411819Y-93570121D01*
X100378334Y-93508798D01*
X100375500Y-93482440D01*
X100375500Y-91251421D01*
X100367240Y-91199270D01*
X100347786Y-91076445D01*
X100293042Y-90907958D01*
X100293042Y-90907957D01*
X100212613Y-90750109D01*
X100174865Y-90698153D01*
X100137872Y-90647236D01*
X100108484Y-90606786D01*
X98156543Y-88654846D01*
X98123059Y-88593524D01*
X98128043Y-88523832D01*
X98169915Y-88467899D01*
X98203962Y-88449885D01*
X98229621Y-88441075D01*
X98314503Y-88411936D01*
X98518626Y-88301470D01*
X98701784Y-88158913D01*
X98858979Y-87988153D01*
X98985924Y-87793849D01*
X99079157Y-87581300D01*
X99136134Y-87356305D01*
X99136135Y-87356297D01*
X99155300Y-87125006D01*
X99155300Y-87124993D01*
X99136135Y-86893702D01*
X99136133Y-86893691D01*
X99079157Y-86668699D01*
X98985924Y-86456151D01*
X98920691Y-86356303D01*
X98900503Y-86289413D01*
X98900500Y-86288482D01*
X98900500Y-81377600D01*
X98920185Y-81310561D01*
X98972989Y-81264806D01*
X99024643Y-81253600D01*
X110370651Y-81267108D01*
G37*
G04 #@! TD.AperFunction*
G04 #@! TA.AperFunction,NonConductor*
G36*
X96154472Y-84397158D02*
G01*
X96154999Y-84397291D01*
X96155019Y-84397298D01*
X96295910Y-84420808D01*
X96358794Y-84451258D01*
X96395234Y-84510873D01*
X96399500Y-84543117D01*
X96399500Y-86737522D01*
X96395706Y-86767962D01*
X96363865Y-86893698D01*
X96349150Y-87071281D01*
X96323997Y-87136466D01*
X96267595Y-87177704D01*
X96245984Y-87183350D01*
X96144410Y-87200300D01*
X96075045Y-87191918D01*
X96021223Y-87147366D01*
X96000032Y-87080787D01*
X96000000Y-87077991D01*
X96000000Y-84517356D01*
X96019685Y-84450317D01*
X96072489Y-84404562D01*
X96141647Y-84394618D01*
X96154472Y-84397158D01*
G37*
G04 #@! TD.AperFunction*
G04 #@! TA.AperFunction,NonConductor*
G36*
X97351904Y-91035293D02*
G01*
X97364901Y-91046599D01*
X97722314Y-91404012D01*
X97755799Y-91465334D01*
X97750815Y-91535026D01*
X97710796Y-91589545D01*
X97548218Y-91716085D01*
X97391016Y-91886852D01*
X97264075Y-92081151D01*
X97170842Y-92293699D01*
X97113866Y-92518691D01*
X97113864Y-92518702D01*
X97094700Y-92749993D01*
X97094700Y-92750006D01*
X97113864Y-92981297D01*
X97113866Y-92981308D01*
X97170842Y-93206300D01*
X97251258Y-93389628D01*
X97264076Y-93418849D01*
X97322843Y-93508798D01*
X97354309Y-93556960D01*
X97374496Y-93623850D01*
X97374500Y-93624782D01*
X97374500Y-93974975D01*
X97374499Y-93974975D01*
X97384497Y-94038096D01*
X97375542Y-94107389D01*
X97330546Y-94160841D01*
X97263794Y-94181480D01*
X97203007Y-94166548D01*
X97039503Y-94078064D01*
X97039495Y-94078061D01*
X96819984Y-94002702D01*
X96648282Y-93974050D01*
X96591049Y-93964500D01*
X96358951Y-93964500D01*
X96144409Y-94000300D01*
X96075044Y-93991918D01*
X96021222Y-93947365D01*
X96000032Y-93880786D01*
X96000000Y-93877991D01*
X96000000Y-91322008D01*
X96019685Y-91254969D01*
X96072489Y-91209214D01*
X96141647Y-91199270D01*
X96144372Y-91199693D01*
X96358951Y-91235500D01*
X96358952Y-91235500D01*
X96591048Y-91235500D01*
X96591049Y-91235500D01*
X96819981Y-91197298D01*
X97039503Y-91121936D01*
X97039510Y-91121932D01*
X97039513Y-91121931D01*
X97123563Y-91076445D01*
X97218206Y-91025226D01*
X97286532Y-91010631D01*
X97351904Y-91035293D01*
G37*
G04 #@! TD.AperFunction*
G04 #@! TA.AperFunction,Conductor*
G36*
X179006061Y-57500597D02*
G01*
X179182941Y-57518018D01*
X179206769Y-57522757D01*
X179371001Y-57572576D01*
X179393453Y-57581877D01*
X179544798Y-57662772D01*
X179565010Y-57676277D01*
X179697666Y-57785145D01*
X179714854Y-57802333D01*
X179823722Y-57934989D01*
X179837227Y-57955201D01*
X179918121Y-58106543D01*
X179927424Y-58129001D01*
X179961490Y-58241303D01*
X179969161Y-58266589D01*
X179974500Y-58302584D01*
X179974500Y-77396103D01*
X179969151Y-77432129D01*
X179927301Y-77569962D01*
X179917984Y-77592434D01*
X179836957Y-77743874D01*
X179823430Y-77764097D01*
X179714394Y-77896800D01*
X179697180Y-77913991D01*
X179564333Y-78022849D01*
X179544093Y-78036349D01*
X179392545Y-78117175D01*
X179370059Y-78126463D01*
X179205644Y-78176143D01*
X179181776Y-78180861D01*
X179004735Y-78198074D01*
X178992573Y-78198655D01*
X155129332Y-78166838D01*
X155062322Y-78147065D01*
X155016637Y-78094200D01*
X155005500Y-78042839D01*
X155005500Y-68506107D01*
X155005500Y-68506092D01*
X155004289Y-68456762D01*
X155003692Y-68444608D01*
X155000061Y-68395379D01*
X154982640Y-68218506D01*
X154968164Y-68120912D01*
X154963422Y-68097071D01*
X154939444Y-68001345D01*
X154889628Y-67837122D01*
X154856376Y-67744192D01*
X154856367Y-67744171D01*
X154847072Y-67721732D01*
X154847064Y-67721713D01*
X154804907Y-67632584D01*
X154804901Y-67632571D01*
X154804893Y-67632554D01*
X154734764Y-67501352D01*
X154724002Y-67481217D01*
X154723997Y-67481209D01*
X154723991Y-67481199D01*
X154673274Y-67396582D01*
X154659769Y-67376370D01*
X154600984Y-67297106D01*
X154492116Y-67164450D01*
X154425850Y-67091337D01*
X154408662Y-67074149D01*
X154335549Y-67007883D01*
X154202893Y-66899015D01*
X154123629Y-66840230D01*
X154103417Y-66826725D01*
X154018785Y-66775999D01*
X153867440Y-66695104D01*
X153778279Y-66652932D01*
X153778272Y-66652929D01*
X153755838Y-66643635D01*
X153755815Y-66643626D01*
X153662867Y-66610367D01*
X153498650Y-66560553D01*
X153474713Y-66554557D01*
X153402905Y-66536572D01*
X153379077Y-66531833D01*
X153379072Y-66531832D01*
X153379075Y-66531832D01*
X153281502Y-66517360D01*
X153281482Y-66517358D01*
X153104612Y-66499938D01*
X153055401Y-66496308D01*
X153043244Y-66495711D01*
X153027541Y-66495325D01*
X152993907Y-66494500D01*
X151006093Y-66494500D01*
X150973921Y-66495289D01*
X150956755Y-66495711D01*
X150944598Y-66496308D01*
X150895388Y-66499938D01*
X150718527Y-66517357D01*
X150718483Y-66517362D01*
X150620899Y-66531836D01*
X150601950Y-66535606D01*
X150597064Y-66536578D01*
X150597059Y-66536579D01*
X150597055Y-66536580D01*
X150548643Y-66548706D01*
X150501356Y-66560552D01*
X150501353Y-66560553D01*
X150501352Y-66560553D01*
X150337119Y-66610371D01*
X150244182Y-66643625D01*
X150244145Y-66643640D01*
X150221744Y-66652920D01*
X150221721Y-66652930D01*
X150132571Y-66695097D01*
X150132566Y-66695099D01*
X150132561Y-66695102D01*
X150048475Y-66740046D01*
X149981199Y-66776006D01*
X149896575Y-66826728D01*
X149876387Y-66840216D01*
X149797107Y-66899014D01*
X149797099Y-66899021D01*
X149664453Y-67007880D01*
X149664450Y-67007882D01*
X149591334Y-67074150D01*
X149574150Y-67091334D01*
X149507882Y-67164450D01*
X149507880Y-67164453D01*
X149399021Y-67297099D01*
X149399014Y-67297107D01*
X149340216Y-67376387D01*
X149326728Y-67396575D01*
X149276006Y-67481199D01*
X149240046Y-67548475D01*
X149201329Y-67620912D01*
X149195097Y-67632571D01*
X149152930Y-67721721D01*
X149152920Y-67721744D01*
X149143640Y-67744145D01*
X149143625Y-67744182D01*
X149110371Y-67837119D01*
X149074079Y-67956762D01*
X149060552Y-68001356D01*
X149059366Y-68006092D01*
X149036580Y-68097055D01*
X149031836Y-68120899D01*
X149017362Y-68218483D01*
X149017357Y-68218527D01*
X148999938Y-68395387D01*
X148996308Y-68444597D01*
X148995711Y-68456754D01*
X148994500Y-68506107D01*
X148994500Y-74032144D01*
X148974815Y-74099183D01*
X148958181Y-74119825D01*
X144961160Y-78116845D01*
X144899837Y-78150330D01*
X144873316Y-78153163D01*
X138629332Y-78144838D01*
X138562322Y-78125065D01*
X138516637Y-78072200D01*
X138505500Y-78020839D01*
X138505500Y-72358518D01*
X138525185Y-72291479D01*
X138577989Y-72245724D01*
X138647147Y-72235780D01*
X138710703Y-72264805D01*
X138748477Y-72323583D01*
X138753012Y-72347535D01*
X138753989Y-72358518D01*
X138760113Y-72427415D01*
X138816089Y-72623045D01*
X138816090Y-72623048D01*
X138816091Y-72623049D01*
X138910302Y-72803407D01*
X138910304Y-72803409D01*
X139038890Y-72961109D01*
X139132803Y-73037684D01*
X139196593Y-73089698D01*
X139376951Y-73183909D01*
X139572582Y-73239886D01*
X139691963Y-73250500D01*
X142308036Y-73250499D01*
X142427418Y-73239886D01*
X142623049Y-73183909D01*
X142803407Y-73089698D01*
X142961109Y-72961109D01*
X143089698Y-72803407D01*
X143183909Y-72623049D01*
X143239886Y-72427418D01*
X143250500Y-72308037D01*
X143250499Y-67691964D01*
X143239886Y-67572582D01*
X143183909Y-67376951D01*
X143089698Y-67196593D01*
X143003869Y-67091332D01*
X142961109Y-67038890D01*
X142803409Y-66910304D01*
X142803410Y-66910304D01*
X142803407Y-66910302D01*
X142623049Y-66816091D01*
X142623048Y-66816090D01*
X142623045Y-66816089D01*
X142505829Y-66782550D01*
X142427418Y-66760114D01*
X142427415Y-66760113D01*
X142427413Y-66760113D01*
X142361102Y-66754217D01*
X142308037Y-66749500D01*
X142308032Y-66749500D01*
X139691971Y-66749500D01*
X139691965Y-66749500D01*
X139691964Y-66749501D01*
X139680316Y-66750536D01*
X139572584Y-66760113D01*
X139376954Y-66816089D01*
X139330739Y-66840230D01*
X139196593Y-66910302D01*
X139196591Y-66910303D01*
X139196590Y-66910304D01*
X139038890Y-67038890D01*
X138910304Y-67196590D01*
X138910302Y-67196593D01*
X138884431Y-67246120D01*
X138816089Y-67376954D01*
X138760114Y-67572583D01*
X138760113Y-67572586D01*
X138749500Y-67691966D01*
X138749500Y-67910324D01*
X138729815Y-67977363D01*
X138677011Y-68023118D01*
X138607853Y-68033062D01*
X138544297Y-68004037D01*
X138506523Y-67945259D01*
X138501836Y-67919445D01*
X138501163Y-67910324D01*
X138500061Y-67895379D01*
X138482640Y-67718506D01*
X138468164Y-67620912D01*
X138463422Y-67597071D01*
X138439444Y-67501345D01*
X138389628Y-67337122D01*
X138356376Y-67244192D01*
X138356367Y-67244171D01*
X138347072Y-67221732D01*
X138347064Y-67221713D01*
X138304907Y-67132584D01*
X138304901Y-67132571D01*
X138304893Y-67132554D01*
X138238255Y-67007883D01*
X138224002Y-66981217D01*
X138223997Y-66981209D01*
X138223991Y-66981199D01*
X138173274Y-66896582D01*
X138159769Y-66876370D01*
X138100984Y-66797106D01*
X137992116Y-66664450D01*
X137925850Y-66591337D01*
X137908662Y-66574149D01*
X137835549Y-66507883D01*
X137702893Y-66399015D01*
X137623629Y-66340230D01*
X137603417Y-66326725D01*
X137518785Y-66275999D01*
X137367440Y-66195104D01*
X137278279Y-66152932D01*
X137278272Y-66152929D01*
X137255838Y-66143635D01*
X137255815Y-66143626D01*
X137162867Y-66110367D01*
X136998650Y-66060553D01*
X136974713Y-66054557D01*
X136902905Y-66036572D01*
X136879077Y-66031833D01*
X136879072Y-66031832D01*
X136879075Y-66031832D01*
X136781502Y-66017360D01*
X136781482Y-66017358D01*
X136604612Y-65999938D01*
X136555401Y-65996308D01*
X136543244Y-65995711D01*
X136527541Y-65995325D01*
X136493907Y-65994500D01*
X134506093Y-65994500D01*
X134473921Y-65995289D01*
X134456755Y-65995711D01*
X134444598Y-65996308D01*
X134395388Y-65999938D01*
X134218527Y-66017357D01*
X134218483Y-66017362D01*
X134120899Y-66031836D01*
X134101950Y-66035606D01*
X134097064Y-66036578D01*
X134097059Y-66036579D01*
X134097055Y-66036580D01*
X134048643Y-66048706D01*
X134001356Y-66060552D01*
X134001353Y-66060553D01*
X134001352Y-66060553D01*
X133837119Y-66110371D01*
X133744182Y-66143625D01*
X133744145Y-66143640D01*
X133721744Y-66152920D01*
X133721721Y-66152930D01*
X133632571Y-66195097D01*
X133632566Y-66195099D01*
X133632561Y-66195102D01*
X133548475Y-66240046D01*
X133481199Y-66276006D01*
X133396575Y-66326728D01*
X133376387Y-66340216D01*
X133297107Y-66399014D01*
X133297099Y-66399021D01*
X133164453Y-66507880D01*
X133164450Y-66507882D01*
X133091334Y-66574150D01*
X133074150Y-66591334D01*
X133007882Y-66664450D01*
X133007880Y-66664453D01*
X132899021Y-66797099D01*
X132899014Y-66797107D01*
X132840216Y-66876387D01*
X132826728Y-66896575D01*
X132776006Y-66981199D01*
X132695097Y-67132571D01*
X132652930Y-67221721D01*
X132652920Y-67221744D01*
X132643640Y-67244145D01*
X132643625Y-67244182D01*
X132610371Y-67337119D01*
X132560553Y-67501352D01*
X132560553Y-67501353D01*
X132536580Y-67597055D01*
X132531836Y-67620899D01*
X132517362Y-67718483D01*
X132517357Y-67718527D01*
X132499938Y-67895387D01*
X132496308Y-67944597D01*
X132495711Y-67956754D01*
X132495711Y-67956762D01*
X132494551Y-68004037D01*
X132494500Y-68006107D01*
X132494500Y-74500343D01*
X132474815Y-74567382D01*
X132453911Y-74592096D01*
X128596202Y-78099102D01*
X128533356Y-78129632D01*
X128512626Y-78131349D01*
X125314838Y-78127085D01*
X122129333Y-78122838D01*
X122062322Y-78103065D01*
X122016637Y-78050200D01*
X122005500Y-77998839D01*
X122005500Y-72358518D01*
X122025185Y-72291479D01*
X122077989Y-72245724D01*
X122147147Y-72235780D01*
X122210703Y-72264805D01*
X122248477Y-72323583D01*
X122253012Y-72347535D01*
X122253989Y-72358518D01*
X122260113Y-72427415D01*
X122316089Y-72623045D01*
X122316090Y-72623048D01*
X122316091Y-72623049D01*
X122410302Y-72803407D01*
X122410304Y-72803409D01*
X122538890Y-72961109D01*
X122632803Y-73037684D01*
X122696593Y-73089698D01*
X122876951Y-73183909D01*
X123072582Y-73239886D01*
X123191963Y-73250500D01*
X125808036Y-73250499D01*
X125927418Y-73239886D01*
X126123049Y-73183909D01*
X126303407Y-73089698D01*
X126461109Y-72961109D01*
X126589698Y-72803407D01*
X126683909Y-72623049D01*
X126739886Y-72427418D01*
X126750500Y-72308037D01*
X126750499Y-67691964D01*
X126739886Y-67572582D01*
X126683909Y-67376951D01*
X126589698Y-67196593D01*
X126503869Y-67091332D01*
X126461109Y-67038890D01*
X126303409Y-66910304D01*
X126303410Y-66910304D01*
X126303407Y-66910302D01*
X126123049Y-66816091D01*
X126123048Y-66816090D01*
X126123045Y-66816089D01*
X126005829Y-66782550D01*
X125927418Y-66760114D01*
X125927415Y-66760113D01*
X125927413Y-66760113D01*
X125861102Y-66754217D01*
X125808037Y-66749500D01*
X125808032Y-66749500D01*
X123191971Y-66749500D01*
X123191965Y-66749500D01*
X123191964Y-66749501D01*
X123180316Y-66750536D01*
X123072584Y-66760113D01*
X122876954Y-66816089D01*
X122830739Y-66840230D01*
X122696593Y-66910302D01*
X122696591Y-66910303D01*
X122696590Y-66910304D01*
X122538890Y-67038890D01*
X122410304Y-67196590D01*
X122410302Y-67196593D01*
X122384431Y-67246120D01*
X122316089Y-67376954D01*
X122260114Y-67572583D01*
X122260113Y-67572586D01*
X122249500Y-67691966D01*
X122249500Y-67910324D01*
X122229815Y-67977363D01*
X122177011Y-68023118D01*
X122107853Y-68033062D01*
X122044297Y-68004037D01*
X122006523Y-67945259D01*
X122001836Y-67919445D01*
X122001163Y-67910324D01*
X122000061Y-67895379D01*
X121982640Y-67718506D01*
X121968164Y-67620912D01*
X121963422Y-67597071D01*
X121939444Y-67501345D01*
X121889628Y-67337122D01*
X121856376Y-67244192D01*
X121856367Y-67244171D01*
X121847072Y-67221732D01*
X121847064Y-67221713D01*
X121804907Y-67132584D01*
X121804901Y-67132571D01*
X121804893Y-67132554D01*
X121738255Y-67007883D01*
X121724002Y-66981217D01*
X121723997Y-66981209D01*
X121723991Y-66981199D01*
X121673274Y-66896582D01*
X121659769Y-66876370D01*
X121600984Y-66797106D01*
X121492116Y-66664450D01*
X121425850Y-66591337D01*
X121408662Y-66574149D01*
X121335549Y-66507883D01*
X121202893Y-66399015D01*
X121123629Y-66340230D01*
X121103417Y-66326725D01*
X121018785Y-66275999D01*
X120867440Y-66195104D01*
X120778279Y-66152932D01*
X120778272Y-66152929D01*
X120755838Y-66143635D01*
X120755815Y-66143626D01*
X120662867Y-66110367D01*
X120498650Y-66060553D01*
X120474713Y-66054557D01*
X120402905Y-66036572D01*
X120379077Y-66031833D01*
X120379072Y-66031832D01*
X120379075Y-66031832D01*
X120281502Y-66017360D01*
X120281482Y-66017358D01*
X120104612Y-65999938D01*
X120055401Y-65996308D01*
X120043244Y-65995711D01*
X120027541Y-65995325D01*
X119993907Y-65994500D01*
X118006093Y-65994500D01*
X117973921Y-65995289D01*
X117956755Y-65995711D01*
X117944598Y-65996308D01*
X117895388Y-65999938D01*
X117718527Y-66017357D01*
X117718483Y-66017362D01*
X117620899Y-66031836D01*
X117601950Y-66035606D01*
X117597064Y-66036578D01*
X117597059Y-66036579D01*
X117597055Y-66036580D01*
X117548643Y-66048706D01*
X117501356Y-66060552D01*
X117501353Y-66060553D01*
X117501352Y-66060553D01*
X117337119Y-66110371D01*
X117244182Y-66143625D01*
X117244145Y-66143640D01*
X117221744Y-66152920D01*
X117221721Y-66152930D01*
X117132571Y-66195097D01*
X117132566Y-66195099D01*
X117132561Y-66195102D01*
X117048475Y-66240046D01*
X116981199Y-66276006D01*
X116896575Y-66326728D01*
X116876387Y-66340216D01*
X116797107Y-66399014D01*
X116797099Y-66399021D01*
X116664453Y-66507880D01*
X116664450Y-66507882D01*
X116591334Y-66574150D01*
X116574150Y-66591334D01*
X116507882Y-66664450D01*
X116507880Y-66664453D01*
X116399021Y-66797099D01*
X116399014Y-66797107D01*
X116340216Y-66876387D01*
X116326728Y-66896575D01*
X116276006Y-66981199D01*
X116195097Y-67132571D01*
X116152930Y-67221721D01*
X116152920Y-67221744D01*
X116143640Y-67244145D01*
X116143625Y-67244182D01*
X116110371Y-67337119D01*
X116060553Y-67501352D01*
X116060553Y-67501353D01*
X116036580Y-67597055D01*
X116031836Y-67620899D01*
X116017362Y-67718483D01*
X116017357Y-67718527D01*
X115999938Y-67895387D01*
X115996308Y-67944597D01*
X115995711Y-67956754D01*
X115995711Y-67956762D01*
X115994551Y-68004037D01*
X115994500Y-68006107D01*
X115994500Y-74500343D01*
X115974815Y-74567382D01*
X115953911Y-74592096D01*
X112120366Y-78077134D01*
X112057520Y-78107664D01*
X112036790Y-78109381D01*
X109135970Y-78105514D01*
X106004739Y-78101339D01*
X105992621Y-78100728D01*
X105815906Y-78083100D01*
X105792094Y-78078334D01*
X105699706Y-78050200D01*
X105628065Y-78028383D01*
X105605636Y-78019066D01*
X105454493Y-77938101D01*
X105434309Y-77924590D01*
X105301848Y-77815715D01*
X105284686Y-77798530D01*
X105175990Y-77665926D01*
X105162506Y-77645725D01*
X105128295Y-77581657D01*
X105081739Y-77494469D01*
X105072453Y-77472029D01*
X105022718Y-77307928D01*
X105017987Y-77284118D01*
X105000596Y-77107387D01*
X105000000Y-77095244D01*
X105000000Y-67691966D01*
X105749500Y-67691966D01*
X105749500Y-72308028D01*
X105749501Y-72308034D01*
X105760113Y-72427415D01*
X105816089Y-72623045D01*
X105816090Y-72623048D01*
X105816091Y-72623049D01*
X105910302Y-72803407D01*
X105910304Y-72803409D01*
X106038890Y-72961109D01*
X106132803Y-73037684D01*
X106196593Y-73089698D01*
X106376951Y-73183909D01*
X106572582Y-73239886D01*
X106691963Y-73250500D01*
X109308036Y-73250499D01*
X109427418Y-73239886D01*
X109623049Y-73183909D01*
X109803407Y-73089698D01*
X109961109Y-72961109D01*
X110089698Y-72803407D01*
X110183909Y-72623049D01*
X110239886Y-72427418D01*
X110250500Y-72308037D01*
X110250499Y-67691964D01*
X110239886Y-67572582D01*
X110183909Y-67376951D01*
X110089698Y-67196593D01*
X110003869Y-67091332D01*
X109961109Y-67038890D01*
X109803409Y-66910304D01*
X109803410Y-66910304D01*
X109803407Y-66910302D01*
X109623049Y-66816091D01*
X109623048Y-66816090D01*
X109623045Y-66816089D01*
X109505829Y-66782550D01*
X109427418Y-66760114D01*
X109427415Y-66760113D01*
X109427413Y-66760113D01*
X109361102Y-66754217D01*
X109308037Y-66749500D01*
X109308032Y-66749500D01*
X106691971Y-66749500D01*
X106691965Y-66749500D01*
X106691964Y-66749501D01*
X106680316Y-66750536D01*
X106572584Y-66760113D01*
X106376954Y-66816089D01*
X106330739Y-66840230D01*
X106196593Y-66910302D01*
X106196591Y-66910303D01*
X106196590Y-66910304D01*
X106038890Y-67038890D01*
X105910304Y-67196590D01*
X105910302Y-67196593D01*
X105884431Y-67246120D01*
X105816089Y-67376954D01*
X105760114Y-67572583D01*
X105760113Y-67572586D01*
X105749500Y-67691966D01*
X105000000Y-67691966D01*
X105000000Y-63171549D01*
X105019685Y-63104510D01*
X105036319Y-63083868D01*
X107458368Y-60661819D01*
X107519691Y-60628334D01*
X107546049Y-60625500D01*
X115838578Y-60625500D01*
X115838579Y-60625500D01*
X116013556Y-60597786D01*
X116182042Y-60543042D01*
X116339890Y-60462614D01*
X116483214Y-60358483D01*
X116608483Y-60233214D01*
X116779878Y-60061819D01*
X116841201Y-60028334D01*
X116867559Y-60025500D01*
X124548071Y-60025500D01*
X124548072Y-60025500D01*
X124723049Y-59997786D01*
X124891535Y-59943042D01*
X125049383Y-59862614D01*
X125192707Y-59758483D01*
X125289371Y-59661819D01*
X125350694Y-59628334D01*
X125377052Y-59625500D01*
X128554568Y-59625500D01*
X128554569Y-59625500D01*
X128729546Y-59597786D01*
X128898032Y-59543042D01*
X129055880Y-59462614D01*
X129199204Y-59358483D01*
X129324473Y-59233214D01*
X129383032Y-59174655D01*
X129383042Y-59174643D01*
X129895869Y-58661819D01*
X129957192Y-58628334D01*
X129983550Y-58625500D01*
X137991187Y-58625500D01*
X138058226Y-58645185D01*
X138103981Y-58697989D01*
X138113495Y-58729087D01*
X138113863Y-58731297D01*
X138170842Y-58956300D01*
X138264075Y-59168848D01*
X138391016Y-59363147D01*
X138391019Y-59363151D01*
X138391021Y-59363153D01*
X138548216Y-59533913D01*
X138548219Y-59533915D01*
X138548222Y-59533918D01*
X138731365Y-59676464D01*
X138731371Y-59676468D01*
X138731374Y-59676470D01*
X138935497Y-59786936D01*
X139049487Y-59826068D01*
X139155015Y-59862297D01*
X139155017Y-59862297D01*
X139155019Y-59862298D01*
X139383951Y-59900500D01*
X139383952Y-59900500D01*
X139616048Y-59900500D01*
X139616049Y-59900500D01*
X139844981Y-59862298D01*
X140064503Y-59786936D01*
X140268626Y-59676470D01*
X140451784Y-59533913D01*
X140608979Y-59363153D01*
X140735924Y-59168849D01*
X140829157Y-58956300D01*
X140886134Y-58731305D01*
X140893270Y-58645185D01*
X140905300Y-58500006D01*
X140905300Y-58500004D01*
X140889535Y-58309739D01*
X140903617Y-58241303D01*
X140952462Y-58191344D01*
X141013112Y-58175500D01*
X149798181Y-58175500D01*
X149857196Y-58190444D01*
X150035497Y-58286936D01*
X150101920Y-58309739D01*
X150255015Y-58362297D01*
X150255017Y-58362297D01*
X150255019Y-58362298D01*
X150483951Y-58400500D01*
X150483952Y-58400500D01*
X150716048Y-58400500D01*
X150716049Y-58400500D01*
X150944981Y-58362298D01*
X151164503Y-58286936D01*
X151368626Y-58176470D01*
X151369873Y-58175500D01*
X151430129Y-58128600D01*
X151551784Y-58033913D01*
X151708979Y-57863153D01*
X151835924Y-57668849D01*
X151877445Y-57574188D01*
X151922401Y-57520704D01*
X151989137Y-57500014D01*
X151991001Y-57500000D01*
X178993907Y-57500000D01*
X179006061Y-57500597D01*
G37*
G04 #@! TD.AperFunction*
G04 #@! TA.AperFunction,Conductor*
G36*
X136506061Y-67000597D02*
G01*
X136682941Y-67018018D01*
X136706769Y-67022757D01*
X136871001Y-67072576D01*
X136893453Y-67081877D01*
X137044798Y-67162772D01*
X137065010Y-67176277D01*
X137197666Y-67285145D01*
X137214854Y-67302333D01*
X137323722Y-67434989D01*
X137337227Y-67455201D01*
X137418121Y-67606543D01*
X137427424Y-67629001D01*
X137477240Y-67793224D01*
X137481982Y-67817065D01*
X137499403Y-67993938D01*
X137500000Y-68006092D01*
X137500000Y-81579693D01*
X137499403Y-81591847D01*
X137481982Y-81768721D01*
X137477240Y-81792562D01*
X137427424Y-81956785D01*
X137418121Y-81979243D01*
X137337227Y-82130585D01*
X137323722Y-82150797D01*
X137210969Y-82288186D01*
X137202797Y-82297202D01*
X132292897Y-87207101D01*
X132292887Y-87207112D01*
X132000000Y-87500000D01*
X132000000Y-87914214D01*
X132000000Y-87914217D01*
X132000000Y-91493907D01*
X131999403Y-91506061D01*
X131981982Y-91682934D01*
X131977240Y-91706775D01*
X131927424Y-91870998D01*
X131918121Y-91893456D01*
X131837227Y-92044798D01*
X131823722Y-92065010D01*
X131714854Y-92197666D01*
X131697666Y-92214854D01*
X131565010Y-92323722D01*
X131544798Y-92337227D01*
X131393456Y-92418121D01*
X131370998Y-92427424D01*
X131206775Y-92477240D01*
X131182934Y-92481982D01*
X131006061Y-92499403D01*
X130993907Y-92500000D01*
X129006093Y-92500000D01*
X128993939Y-92499403D01*
X128817065Y-92481982D01*
X128793224Y-92477240D01*
X128629001Y-92427424D01*
X128606543Y-92418121D01*
X128455201Y-92337227D01*
X128434989Y-92323722D01*
X128302333Y-92214854D01*
X128285145Y-92197666D01*
X128176277Y-92065010D01*
X128162772Y-92044798D01*
X128081878Y-91893456D01*
X128072575Y-91870998D01*
X128022757Y-91706769D01*
X128018018Y-91682941D01*
X128000597Y-91506061D01*
X128000000Y-91493907D01*
X128000000Y-80448827D01*
X128000672Y-80435939D01*
X128020258Y-80248513D01*
X128025586Y-80223298D01*
X128081504Y-80050143D01*
X128091927Y-80026581D01*
X128182438Y-79868725D01*
X128197513Y-79847820D01*
X128323022Y-79707251D01*
X128332101Y-79698089D01*
X133172673Y-75297570D01*
X133500000Y-75000000D01*
X133500000Y-68006092D01*
X133500597Y-67993938D01*
X133518018Y-67817056D01*
X133522757Y-67793232D01*
X133572577Y-67628994D01*
X133581875Y-67606549D01*
X133662775Y-67455195D01*
X133676272Y-67434995D01*
X133785149Y-67302328D01*
X133802328Y-67285149D01*
X133934995Y-67176272D01*
X133955195Y-67162775D01*
X134106549Y-67081875D01*
X134128994Y-67072577D01*
X134293232Y-67022757D01*
X134317056Y-67018018D01*
X134493939Y-67000597D01*
X134506093Y-67000000D01*
X136493907Y-67000000D01*
X136506061Y-67000597D01*
G37*
G04 #@! TD.AperFunction*
G04 #@! TA.AperFunction,Conductor*
G36*
X153006061Y-67500597D02*
G01*
X153182941Y-67518018D01*
X153206769Y-67522757D01*
X153371001Y-67572576D01*
X153393453Y-67581877D01*
X153544798Y-67662772D01*
X153565010Y-67676277D01*
X153697666Y-67785145D01*
X153714854Y-67802333D01*
X153823722Y-67934989D01*
X153837227Y-67955201D01*
X153918121Y-68106543D01*
X153927424Y-68129001D01*
X153977240Y-68293224D01*
X153981982Y-68317065D01*
X153999403Y-68493938D01*
X154000000Y-68506092D01*
X154000000Y-81579693D01*
X153999403Y-81591847D01*
X153981982Y-81768721D01*
X153977240Y-81792562D01*
X153927424Y-81956785D01*
X153918121Y-81979243D01*
X153837227Y-82130585D01*
X153823722Y-82150797D01*
X153710969Y-82288186D01*
X153702797Y-82297202D01*
X148792897Y-87207101D01*
X148792887Y-87207112D01*
X148500000Y-87500000D01*
X148500000Y-87914214D01*
X148500000Y-87914217D01*
X148500000Y-91493907D01*
X148499403Y-91506061D01*
X148481982Y-91682934D01*
X148477240Y-91706775D01*
X148427424Y-91870998D01*
X148418121Y-91893456D01*
X148337227Y-92044798D01*
X148323722Y-92065010D01*
X148214854Y-92197666D01*
X148197666Y-92214854D01*
X148065010Y-92323722D01*
X148044798Y-92337227D01*
X147893456Y-92418121D01*
X147870998Y-92427424D01*
X147706775Y-92477240D01*
X147682934Y-92481982D01*
X147506061Y-92499403D01*
X147493907Y-92500000D01*
X145506093Y-92500000D01*
X145493939Y-92499403D01*
X145317065Y-92481982D01*
X145293224Y-92477240D01*
X145129001Y-92427424D01*
X145106543Y-92418121D01*
X144955201Y-92337227D01*
X144934989Y-92323722D01*
X144802333Y-92214854D01*
X144785145Y-92197666D01*
X144676277Y-92065010D01*
X144662772Y-92044798D01*
X144581878Y-91893456D01*
X144572575Y-91870998D01*
X144522757Y-91706769D01*
X144518018Y-91682941D01*
X144500597Y-91506061D01*
X144500000Y-91493907D01*
X144500000Y-80420306D01*
X144500597Y-80408152D01*
X144518018Y-80231269D01*
X144522757Y-80207445D01*
X144572577Y-80043207D01*
X144581875Y-80020762D01*
X144662775Y-79869408D01*
X144676272Y-79849208D01*
X144789039Y-79711802D01*
X144797192Y-79702807D01*
X149707107Y-74792893D01*
X150000000Y-74500000D01*
X150000000Y-68506092D01*
X150000597Y-68493938D01*
X150018018Y-68317056D01*
X150022757Y-68293232D01*
X150072577Y-68128994D01*
X150081875Y-68106549D01*
X150162775Y-67955195D01*
X150176272Y-67934995D01*
X150285149Y-67802328D01*
X150302328Y-67785149D01*
X150434995Y-67676272D01*
X150455195Y-67662775D01*
X150606549Y-67581875D01*
X150628994Y-67572577D01*
X150793232Y-67522757D01*
X150817056Y-67518018D01*
X150993939Y-67500597D01*
X151006093Y-67500000D01*
X152993907Y-67500000D01*
X153006061Y-67500597D01*
G37*
G04 #@! TD.AperFunction*
G04 #@! TA.AperFunction,Conductor*
G36*
X137282375Y-30045713D02*
G01*
X137286630Y-30046983D01*
X137335649Y-30061852D01*
X137426029Y-30099289D01*
X137512230Y-30145365D01*
X137593563Y-30199710D01*
X137669115Y-30261714D01*
X137738285Y-30330884D01*
X137800289Y-30406436D01*
X137854634Y-30487769D01*
X137900710Y-30573970D01*
X137938145Y-30664345D01*
X137966520Y-30757884D01*
X137985602Y-30853819D01*
X137997597Y-30975600D01*
X138000000Y-31024513D01*
X138000000Y-40725486D01*
X137997597Y-40774399D01*
X137985602Y-40896180D01*
X137966520Y-40992115D01*
X137938148Y-41085648D01*
X137900710Y-41176029D01*
X137854634Y-41262230D01*
X137800289Y-41343563D01*
X137738285Y-41419115D01*
X137669115Y-41488285D01*
X137593563Y-41550289D01*
X137512230Y-41604634D01*
X137426029Y-41650710D01*
X137335650Y-41688146D01*
X137291628Y-41701500D01*
X137242115Y-41716520D01*
X137146180Y-41735602D01*
X137077882Y-41742329D01*
X137024395Y-41747597D01*
X136975487Y-41750000D01*
X125274513Y-41750000D01*
X125225604Y-41747597D01*
X125159680Y-41741104D01*
X125103819Y-41735602D01*
X125007884Y-41716520D01*
X124914345Y-41688145D01*
X124823970Y-41650710D01*
X124737769Y-41604634D01*
X124656436Y-41550289D01*
X124580884Y-41488285D01*
X124511714Y-41419115D01*
X124449710Y-41343563D01*
X124395365Y-41262230D01*
X124349289Y-41176029D01*
X124311855Y-41085659D01*
X124283477Y-40992108D01*
X124264397Y-40896176D01*
X124252403Y-40774395D01*
X124250000Y-40725486D01*
X124250000Y-31024513D01*
X124252403Y-30975604D01*
X124264397Y-30853823D01*
X124283477Y-30757893D01*
X124311856Y-30664336D01*
X124349289Y-30573970D01*
X124395365Y-30487769D01*
X124449706Y-30406441D01*
X124511717Y-30330880D01*
X124580880Y-30261717D01*
X124656441Y-30199706D01*
X124737769Y-30145365D01*
X124761643Y-30132603D01*
X124823973Y-30099287D01*
X124914348Y-30061853D01*
X124963370Y-30046982D01*
X125103769Y-30025520D01*
X125108210Y-30025500D01*
X137141790Y-30025500D01*
X137282375Y-30045713D01*
G37*
G04 #@! TD.AperFunction*
G04 #@! TA.AperFunction,Conductor*
G36*
X154032375Y-30045713D02*
G01*
X154036630Y-30046983D01*
X154085649Y-30061852D01*
X154176029Y-30099289D01*
X154262230Y-30145365D01*
X154343563Y-30199710D01*
X154419115Y-30261714D01*
X154488285Y-30330884D01*
X154550289Y-30406436D01*
X154604634Y-30487769D01*
X154650710Y-30573970D01*
X154688145Y-30664345D01*
X154716520Y-30757884D01*
X154735602Y-30853819D01*
X154747597Y-30975600D01*
X154750000Y-31024513D01*
X154750000Y-40725486D01*
X154747597Y-40774399D01*
X154735602Y-40896180D01*
X154716520Y-40992115D01*
X154688148Y-41085648D01*
X154650710Y-41176029D01*
X154604634Y-41262230D01*
X154550289Y-41343563D01*
X154488285Y-41419115D01*
X154419115Y-41488285D01*
X154343563Y-41550289D01*
X154262230Y-41604634D01*
X154176029Y-41650710D01*
X154085650Y-41688146D01*
X154041628Y-41701500D01*
X153992115Y-41716520D01*
X153896180Y-41735602D01*
X153827882Y-41742329D01*
X153774395Y-41747597D01*
X153725487Y-41750000D01*
X141774513Y-41750000D01*
X141725604Y-41747597D01*
X141659680Y-41741104D01*
X141603819Y-41735602D01*
X141507884Y-41716520D01*
X141414345Y-41688145D01*
X141323970Y-41650710D01*
X141237769Y-41604634D01*
X141156436Y-41550289D01*
X141080884Y-41488285D01*
X141011714Y-41419115D01*
X140949710Y-41343563D01*
X140895365Y-41262230D01*
X140849289Y-41176029D01*
X140811855Y-41085659D01*
X140783477Y-40992108D01*
X140764397Y-40896176D01*
X140752403Y-40774395D01*
X140750000Y-40725486D01*
X140750000Y-31024513D01*
X140752403Y-30975604D01*
X140764397Y-30853823D01*
X140783477Y-30757893D01*
X140811856Y-30664336D01*
X140849289Y-30573970D01*
X140895365Y-30487769D01*
X140949706Y-30406441D01*
X141011717Y-30330880D01*
X141080880Y-30261717D01*
X141156441Y-30199706D01*
X141237769Y-30145365D01*
X141261643Y-30132603D01*
X141323973Y-30099287D01*
X141414348Y-30061853D01*
X141463370Y-30046982D01*
X141603769Y-30025520D01*
X141608210Y-30025500D01*
X153891790Y-30025500D01*
X154032375Y-30045713D01*
G37*
G04 #@! TD.AperFunction*
G04 #@! TA.AperFunction,Conductor*
G36*
X121032375Y-30045713D02*
G01*
X121036630Y-30046983D01*
X121085649Y-30061852D01*
X121176029Y-30099289D01*
X121262230Y-30145365D01*
X121343563Y-30199710D01*
X121419115Y-30261714D01*
X121488285Y-30330884D01*
X121550289Y-30406436D01*
X121604634Y-30487769D01*
X121650710Y-30573970D01*
X121688145Y-30664345D01*
X121716520Y-30757884D01*
X121735602Y-30853819D01*
X121747597Y-30975600D01*
X121750000Y-31024513D01*
X121750000Y-40725486D01*
X121747597Y-40774399D01*
X121735602Y-40896180D01*
X121716520Y-40992115D01*
X121688148Y-41085648D01*
X121650710Y-41176029D01*
X121604634Y-41262230D01*
X121550289Y-41343563D01*
X121488285Y-41419115D01*
X121419115Y-41488285D01*
X121343563Y-41550289D01*
X121262230Y-41604634D01*
X121176029Y-41650710D01*
X121085650Y-41688146D01*
X121041628Y-41701500D01*
X120992115Y-41716520D01*
X120896180Y-41735602D01*
X120827882Y-41742329D01*
X120774395Y-41747597D01*
X120725487Y-41750000D01*
X109024513Y-41750000D01*
X108975604Y-41747597D01*
X108909680Y-41741104D01*
X108853819Y-41735602D01*
X108757884Y-41716520D01*
X108664345Y-41688145D01*
X108573970Y-41650710D01*
X108487769Y-41604634D01*
X108406436Y-41550289D01*
X108330884Y-41488285D01*
X108261717Y-41419119D01*
X108205835Y-41351027D01*
X108132277Y-41229534D01*
X108107842Y-41156975D01*
X108079157Y-41043700D01*
X108046235Y-40968647D01*
X108008274Y-40831785D01*
X108006614Y-40817160D01*
X108002401Y-40774384D01*
X108000000Y-40725485D01*
X108000000Y-31024513D01*
X108002403Y-30975604D01*
X108014397Y-30853823D01*
X108033477Y-30757893D01*
X108061856Y-30664336D01*
X108099289Y-30573970D01*
X108145365Y-30487769D01*
X108199706Y-30406441D01*
X108261717Y-30330880D01*
X108330880Y-30261717D01*
X108406441Y-30199706D01*
X108487769Y-30145365D01*
X108511643Y-30132603D01*
X108573973Y-30099287D01*
X108664348Y-30061853D01*
X108713370Y-30046982D01*
X108853769Y-30025520D01*
X108858210Y-30025500D01*
X120891790Y-30025500D01*
X121032375Y-30045713D01*
G37*
G04 #@! TD.AperFunction*
G04 #@! TA.AperFunction,Conductor*
G36*
X120006061Y-67000597D02*
G01*
X120182941Y-67018018D01*
X120206769Y-67022757D01*
X120371001Y-67072576D01*
X120393453Y-67081877D01*
X120544798Y-67162772D01*
X120565010Y-67176277D01*
X120697666Y-67285145D01*
X120714854Y-67302333D01*
X120823722Y-67434989D01*
X120837227Y-67455201D01*
X120918121Y-67606543D01*
X120927424Y-67629001D01*
X120977240Y-67793224D01*
X120981982Y-67817065D01*
X120999403Y-67993938D01*
X121000000Y-68006092D01*
X121000000Y-81829693D01*
X120999403Y-81841847D01*
X120981982Y-82018721D01*
X120977240Y-82042562D01*
X120927424Y-82206785D01*
X120918121Y-82229243D01*
X120837227Y-82380585D01*
X120823722Y-82400797D01*
X120710969Y-82538186D01*
X120702797Y-82547202D01*
X116042897Y-87207101D01*
X116042887Y-87207112D01*
X115750000Y-87500000D01*
X115750000Y-87914214D01*
X115750000Y-87914217D01*
X115750000Y-91493907D01*
X115749403Y-91506061D01*
X115731982Y-91682934D01*
X115727240Y-91706775D01*
X115677424Y-91870998D01*
X115668121Y-91893456D01*
X115587227Y-92044798D01*
X115573722Y-92065010D01*
X115464854Y-92197666D01*
X115447666Y-92214854D01*
X115315010Y-92323722D01*
X115294798Y-92337227D01*
X115143456Y-92418121D01*
X115120998Y-92427424D01*
X114956775Y-92477240D01*
X114932934Y-92481982D01*
X114756061Y-92499403D01*
X114743907Y-92500000D01*
X112506093Y-92500000D01*
X112493939Y-92499403D01*
X112317065Y-92481982D01*
X112293224Y-92477240D01*
X112129001Y-92427424D01*
X112106543Y-92418121D01*
X111955201Y-92337227D01*
X111934989Y-92323722D01*
X111802333Y-92214854D01*
X111785145Y-92197666D01*
X111676277Y-92065010D01*
X111662772Y-92044798D01*
X111581878Y-91893456D01*
X111572575Y-91870998D01*
X111522757Y-91706769D01*
X111518018Y-91682941D01*
X111500597Y-91506061D01*
X111500000Y-91493907D01*
X111500000Y-80448827D01*
X111500672Y-80435939D01*
X111520258Y-80248513D01*
X111525586Y-80223298D01*
X111581504Y-80050143D01*
X111591927Y-80026581D01*
X111682438Y-79868725D01*
X111697513Y-79847820D01*
X111823022Y-79707251D01*
X111832101Y-79698089D01*
X116672673Y-75297570D01*
X117000000Y-75000000D01*
X117000000Y-68006092D01*
X117000597Y-67993938D01*
X117018018Y-67817056D01*
X117022757Y-67793232D01*
X117072577Y-67628994D01*
X117081875Y-67606549D01*
X117162775Y-67455195D01*
X117176272Y-67434995D01*
X117285149Y-67302328D01*
X117302328Y-67285149D01*
X117434995Y-67176272D01*
X117455195Y-67162775D01*
X117606549Y-67081875D01*
X117628994Y-67072577D01*
X117793232Y-67022757D01*
X117817056Y-67018018D01*
X117993939Y-67000597D01*
X118006093Y-67000000D01*
X119993907Y-67000000D01*
X120006061Y-67000597D01*
G37*
G04 #@! TD.AperFunction*
G04 #@! TA.AperFunction,Conductor*
G36*
X179282375Y-30045713D02*
G01*
X179286630Y-30046983D01*
X179335649Y-30061852D01*
X179426029Y-30099289D01*
X179512230Y-30145365D01*
X179593563Y-30199710D01*
X179669115Y-30261714D01*
X179738285Y-30330884D01*
X179800289Y-30406436D01*
X179854635Y-30487770D01*
X179900710Y-30573970D01*
X179938144Y-30664343D01*
X179953012Y-30713355D01*
X179974480Y-30853753D01*
X179974500Y-30858210D01*
X179974500Y-54641789D01*
X179954287Y-54782374D01*
X179953014Y-54786638D01*
X179938147Y-54835649D01*
X179900710Y-54926029D01*
X179854634Y-55012230D01*
X179800289Y-55093563D01*
X179738285Y-55169115D01*
X179669115Y-55238285D01*
X179593563Y-55300289D01*
X179512230Y-55354634D01*
X179426029Y-55400710D01*
X179335650Y-55438146D01*
X179314615Y-55444528D01*
X179242115Y-55466520D01*
X179146180Y-55485602D01*
X179077882Y-55492329D01*
X179024395Y-55497597D01*
X178975487Y-55500000D01*
X146481812Y-55500000D01*
X146341227Y-55479787D01*
X146212032Y-55420786D01*
X146104693Y-55327776D01*
X146041124Y-55228860D01*
X146040254Y-55229363D01*
X146029704Y-55211090D01*
X146027906Y-55208292D01*
X146027253Y-55206845D01*
X145932534Y-55042786D01*
X145932533Y-55042784D01*
X145805871Y-54902112D01*
X145805870Y-54902111D01*
X145805868Y-54902109D01*
X145652731Y-54790849D01*
X145554138Y-54746952D01*
X145479803Y-54713856D01*
X145479801Y-54713855D01*
X145479800Y-54713855D01*
X145479796Y-54713854D01*
X145294651Y-54674501D01*
X145294650Y-54674500D01*
X145294646Y-54674500D01*
X145105354Y-54674500D01*
X145105350Y-54674500D01*
X145105348Y-54674501D01*
X144920203Y-54713854D01*
X144920199Y-54713855D01*
X144747268Y-54790849D01*
X144594131Y-54902109D01*
X144467465Y-55042786D01*
X144359746Y-55229363D01*
X144358511Y-55228650D01*
X144298393Y-55324180D01*
X144191941Y-55418205D01*
X144063312Y-55478431D01*
X143922926Y-55499978D01*
X143918188Y-55500000D01*
X142976869Y-55500000D01*
X142836284Y-55479787D01*
X142707089Y-55420786D01*
X142599750Y-55327776D01*
X142544724Y-55250502D01*
X142482533Y-55142784D01*
X142355871Y-55002112D01*
X142355870Y-55002111D01*
X142355868Y-55002109D01*
X142202731Y-54890849D01*
X142078750Y-54835649D01*
X142029803Y-54813856D01*
X142029801Y-54813855D01*
X142029800Y-54813855D01*
X142029796Y-54813854D01*
X141844651Y-54774501D01*
X141844650Y-54774500D01*
X141844646Y-54774500D01*
X141655354Y-54774500D01*
X141655350Y-54774500D01*
X141655348Y-54774501D01*
X141470203Y-54813854D01*
X141470199Y-54813855D01*
X141297268Y-54890849D01*
X141144131Y-55002109D01*
X141017466Y-55142784D01*
X140980556Y-55206716D01*
X140955276Y-55250500D01*
X140867482Y-55362142D01*
X140751788Y-55444528D01*
X140617569Y-55490982D01*
X140523131Y-55500000D01*
X134883666Y-55500000D01*
X134743081Y-55479787D01*
X134613886Y-55420786D01*
X134506547Y-55327776D01*
X134429760Y-55208292D01*
X134389745Y-55072015D01*
X134387400Y-55053162D01*
X134385675Y-55036751D01*
X134385674Y-55036749D01*
X134385674Y-55036744D01*
X134327179Y-54856716D01*
X134232533Y-54692784D01*
X134105871Y-54552112D01*
X134105870Y-54552111D01*
X134105868Y-54552109D01*
X133952731Y-54440849D01*
X133803368Y-54374348D01*
X133779803Y-54363856D01*
X133779801Y-54363855D01*
X133779800Y-54363855D01*
X133779796Y-54363854D01*
X133594651Y-54324501D01*
X133594650Y-54324500D01*
X133594646Y-54324500D01*
X133405354Y-54324500D01*
X133405350Y-54324500D01*
X133405348Y-54324501D01*
X133220203Y-54363854D01*
X133220199Y-54363855D01*
X133047268Y-54440849D01*
X132925664Y-54529200D01*
X132800047Y-54595481D01*
X132660846Y-54623686D01*
X132632360Y-54624500D01*
X129586304Y-54624500D01*
X129445719Y-54604287D01*
X129316524Y-54545286D01*
X129209185Y-54452276D01*
X129182602Y-54418802D01*
X129180085Y-54415337D01*
X129180083Y-54415334D01*
X129053421Y-54274662D01*
X129053420Y-54274661D01*
X129053418Y-54274659D01*
X128900281Y-54163399D01*
X128797828Y-54117784D01*
X128727353Y-54086406D01*
X128727351Y-54086405D01*
X128727350Y-54086405D01*
X128727346Y-54086404D01*
X128542201Y-54047051D01*
X128542200Y-54047050D01*
X128542196Y-54047050D01*
X128352904Y-54047050D01*
X128352900Y-54047050D01*
X128352898Y-54047051D01*
X128167753Y-54086404D01*
X128167749Y-54086405D01*
X127994818Y-54163399D01*
X127907624Y-54226750D01*
X127782008Y-54293031D01*
X127642806Y-54321236D01*
X127614320Y-54322050D01*
X126638712Y-54322050D01*
X126638692Y-54322049D01*
X126614057Y-54322049D01*
X126490844Y-54322049D01*
X126490842Y-54322049D01*
X126490834Y-54322050D01*
X126390066Y-54342093D01*
X126390067Y-54342094D01*
X126369995Y-54346087D01*
X126353480Y-54352929D01*
X126353472Y-54352932D01*
X126256174Y-54393233D01*
X126256160Y-54393241D01*
X126156073Y-54460117D01*
X126027952Y-54521415D01*
X125887750Y-54544134D01*
X125746827Y-54526433D01*
X125675884Y-54501072D01*
X125479651Y-54413703D01*
X125479643Y-54413701D01*
X125294498Y-54374348D01*
X125294497Y-54374347D01*
X125294493Y-54374347D01*
X125105201Y-54374347D01*
X125105197Y-54374347D01*
X125105195Y-54374348D01*
X124920050Y-54413701D01*
X124920042Y-54413703D01*
X124754962Y-54487202D01*
X124618310Y-54525918D01*
X124476286Y-54524565D01*
X124361049Y-54492362D01*
X124331814Y-54480253D01*
X124287005Y-54461693D01*
X124287002Y-54461691D01*
X124255247Y-54448538D01*
X124255245Y-54448537D01*
X124255244Y-54448537D01*
X124143279Y-54426266D01*
X124143274Y-54426264D01*
X124143274Y-54426265D01*
X124134399Y-54424500D01*
X124134398Y-54424500D01*
X118261607Y-54424500D01*
X118138393Y-54424500D01*
X118138389Y-54424500D01*
X118125515Y-54425768D01*
X117983626Y-54419432D01*
X117849270Y-54373378D01*
X117733331Y-54291336D01*
X117705782Y-54263074D01*
X117605871Y-54152112D01*
X117605870Y-54152111D01*
X117605868Y-54152109D01*
X117452731Y-54040849D01*
X117309576Y-53977112D01*
X117279803Y-53963856D01*
X117279801Y-53963855D01*
X117279800Y-53963855D01*
X117279796Y-53963854D01*
X117094651Y-53924501D01*
X117094650Y-53924500D01*
X117094646Y-53924500D01*
X116905354Y-53924500D01*
X116905350Y-53924500D01*
X116905348Y-53924501D01*
X116720203Y-53963854D01*
X116720199Y-53963855D01*
X116547268Y-54040849D01*
X116494485Y-54079199D01*
X116368869Y-54145480D01*
X116229667Y-54173686D01*
X116201180Y-54174500D01*
X112205769Y-54174500D01*
X112065184Y-54154287D01*
X111935989Y-54095286D01*
X111834940Y-54009396D01*
X111805871Y-53977111D01*
X111652731Y-53865849D01*
X111536598Y-53814143D01*
X111479803Y-53788856D01*
X111479801Y-53788855D01*
X111479800Y-53788855D01*
X111479796Y-53788854D01*
X111294651Y-53749501D01*
X111294650Y-53749500D01*
X111294646Y-53749500D01*
X111168846Y-53749500D01*
X111028261Y-53729287D01*
X110899066Y-53670286D01*
X110791727Y-53577276D01*
X110736699Y-53500000D01*
X110732533Y-53492784D01*
X110605868Y-53352109D01*
X110452731Y-53240849D01*
X110354138Y-53196952D01*
X110279803Y-53163856D01*
X110279801Y-53163855D01*
X110279800Y-53163855D01*
X110279796Y-53163854D01*
X110094651Y-53124501D01*
X110094650Y-53124500D01*
X110094646Y-53124500D01*
X109905354Y-53124500D01*
X109905350Y-53124500D01*
X109905348Y-53124501D01*
X109720203Y-53163854D01*
X109720199Y-53163855D01*
X109547268Y-53240849D01*
X109394131Y-53352109D01*
X109252509Y-53509397D01*
X109143418Y-53600346D01*
X109013123Y-53656877D01*
X108881680Y-53674500D01*
X104761607Y-53674500D01*
X104638393Y-53674500D01*
X104638390Y-53674500D01*
X104638384Y-53674501D01*
X104577974Y-53686517D01*
X104577971Y-53686518D01*
X104517548Y-53698537D01*
X104517546Y-53698537D01*
X104517545Y-53698538D01*
X104498017Y-53706626D01*
X104470397Y-53718067D01*
X104470392Y-53718068D01*
X104403717Y-53745686D01*
X104403717Y-53745687D01*
X104403715Y-53745688D01*
X104403714Y-53745689D01*
X104398009Y-53749501D01*
X104301269Y-53814140D01*
X104301265Y-53814143D01*
X102761563Y-55353846D01*
X102647862Y-55438962D01*
X102514787Y-55488596D01*
X102408717Y-55500000D01*
X93350000Y-55500000D01*
X93350000Y-104450000D01*
X99558482Y-104450000D01*
X99607656Y-104452429D01*
X99730152Y-104464564D01*
X99826607Y-104483864D01*
X99920626Y-104512559D01*
X100011427Y-104550411D01*
X100097991Y-104596995D01*
X100179610Y-104651932D01*
X100274437Y-104730385D01*
X100310789Y-104763615D01*
X100489975Y-104944430D01*
X101849134Y-106315945D01*
X105203195Y-109700497D01*
X105234797Y-109735560D01*
X105309617Y-109826924D01*
X105362237Y-109905265D01*
X105407190Y-109988188D01*
X105444119Y-110075035D01*
X105472657Y-110164943D01*
X105492575Y-110257187D01*
X105506471Y-110374449D01*
X105509803Y-110421570D01*
X105727284Y-119773248D01*
X105727284Y-119773251D01*
X105727285Y-119773260D01*
X105750000Y-120750000D01*
X153500000Y-120750000D01*
X153500002Y-120750000D01*
X154500000Y-120750000D01*
X154500000Y-110438727D01*
X154502403Y-110389819D01*
X154514397Y-110268036D01*
X154533478Y-110172100D01*
X154561855Y-110078555D01*
X154599289Y-109988183D01*
X154645365Y-109901982D01*
X154699701Y-109820660D01*
X154777359Y-109726034D01*
X154810216Y-109689783D01*
X159689783Y-104810216D01*
X159726034Y-104777359D01*
X159820660Y-104699701D01*
X159901982Y-104645365D01*
X159925856Y-104632603D01*
X159988186Y-104599287D01*
X160078555Y-104561855D01*
X160172100Y-104533478D01*
X160268031Y-104514397D01*
X160342691Y-104507044D01*
X160389819Y-104502403D01*
X160438727Y-104500000D01*
X178975487Y-104500000D01*
X179024396Y-104502403D01*
X179066360Y-104506536D01*
X179146179Y-104514397D01*
X179242108Y-104533477D01*
X179335659Y-104561855D01*
X179426029Y-104599289D01*
X179512230Y-104645365D01*
X179593563Y-104699710D01*
X179669115Y-104761714D01*
X179738285Y-104830884D01*
X179800289Y-104906436D01*
X179854635Y-104987770D01*
X179900710Y-105073970D01*
X179938144Y-105164343D01*
X179953012Y-105213355D01*
X179974480Y-105353753D01*
X179974500Y-105358210D01*
X179974500Y-129141789D01*
X179954287Y-129282374D01*
X179953014Y-129286638D01*
X179938147Y-129335649D01*
X179900710Y-129426029D01*
X179854634Y-129512230D01*
X179800289Y-129593563D01*
X179738285Y-129669115D01*
X179669115Y-129738285D01*
X179593563Y-129800289D01*
X179512230Y-129854634D01*
X179426029Y-129900710D01*
X179335652Y-129938146D01*
X179286642Y-129953013D01*
X179146243Y-129974480D01*
X179141790Y-129974500D01*
X80858210Y-129974500D01*
X80717625Y-129954287D01*
X80713361Y-129953014D01*
X80664350Y-129938147D01*
X80573970Y-129900710D01*
X80487769Y-129854634D01*
X80406436Y-129800289D01*
X80330884Y-129738285D01*
X80261714Y-129669115D01*
X80199710Y-129593563D01*
X80145365Y-129512230D01*
X80099289Y-129426029D01*
X80061852Y-129335647D01*
X80050857Y-129299404D01*
X80046983Y-129286629D01*
X80025520Y-129146230D01*
X80025500Y-129141789D01*
X80025500Y-125599992D01*
X98499500Y-125599992D01*
X98499500Y-126900007D01*
X98510000Y-127002793D01*
X98510002Y-127002799D01*
X98565185Y-127169333D01*
X98599037Y-127224216D01*
X98650615Y-127307838D01*
X98657290Y-127318659D01*
X98781340Y-127442709D01*
X98781342Y-127442710D01*
X98781344Y-127442712D01*
X98930666Y-127534814D01*
X99097203Y-127589999D01*
X99199991Y-127600500D01*
X100673690Y-127600499D01*
X100814274Y-127620712D01*
X100943469Y-127679713D01*
X101050809Y-127772723D01*
X101127596Y-127892207D01*
X101163101Y-128002145D01*
X101182184Y-128098082D01*
X101182185Y-128098086D01*
X101246295Y-128252858D01*
X101246299Y-128252867D01*
X101329009Y-128376650D01*
X101339374Y-128392162D01*
X101457838Y-128510626D01*
X101527487Y-128557164D01*
X101597132Y-128603700D01*
X101597133Y-128603700D01*
X101597137Y-128603703D01*
X101751918Y-128667816D01*
X101916233Y-128700500D01*
X101916238Y-128700500D01*
X102083762Y-128700500D01*
X102083767Y-128700500D01*
X102248082Y-128667816D01*
X102402863Y-128603703D01*
X102542162Y-128510626D01*
X102660626Y-128392162D01*
X102753703Y-128252863D01*
X102817816Y-128098082D01*
X102850500Y-127933767D01*
X102850500Y-127766233D01*
X102817816Y-127601918D01*
X102753703Y-127447137D01*
X102750746Y-127442712D01*
X102660629Y-127307843D01*
X102660626Y-127307838D01*
X102542162Y-127189374D01*
X102512169Y-127169333D01*
X102402867Y-127096299D01*
X102402858Y-127096295D01*
X102248085Y-127032185D01*
X102248083Y-127032184D01*
X102248082Y-127032184D01*
X102083767Y-126999500D01*
X101999500Y-126999500D01*
X101858915Y-126979287D01*
X101729720Y-126920286D01*
X101622381Y-126827276D01*
X101545594Y-126707792D01*
X101505579Y-126571515D01*
X101500500Y-126500501D01*
X101500499Y-125599992D01*
X101492993Y-125526512D01*
X101489999Y-125497203D01*
X101434814Y-125330666D01*
X101342712Y-125181344D01*
X101342710Y-125181342D01*
X101342709Y-125181340D01*
X101218659Y-125057290D01*
X101069334Y-124965186D01*
X100902795Y-124910000D01*
X100821009Y-124901645D01*
X100800009Y-124899500D01*
X100800007Y-124899500D01*
X99199992Y-124899500D01*
X99097206Y-124910000D01*
X99097200Y-124910002D01*
X98930666Y-124965185D01*
X98781340Y-125057290D01*
X98657290Y-125181340D01*
X98565186Y-125330665D01*
X98510000Y-125497204D01*
X98499500Y-125599992D01*
X80025500Y-125599992D01*
X80025500Y-124501655D01*
X118774500Y-124501655D01*
X118774500Y-125048343D01*
X118781269Y-125114602D01*
X118784651Y-125147708D01*
X118795797Y-125181344D01*
X118837997Y-125308697D01*
X118927034Y-125453047D01*
X119046952Y-125572965D01*
X119046954Y-125572966D01*
X119046956Y-125572968D01*
X119191303Y-125662003D01*
X119352292Y-125715349D01*
X119451655Y-125725500D01*
X119451657Y-125725499D01*
X119464293Y-125726791D01*
X119464073Y-125728936D01*
X119584123Y-125752476D01*
X119710154Y-125817965D01*
X119812630Y-125916308D01*
X119883248Y-126039538D01*
X119916288Y-126177672D01*
X119909072Y-126319519D01*
X119862186Y-126453587D01*
X119779428Y-126569015D01*
X119667502Y-126656452D01*
X119535477Y-126708814D01*
X119523145Y-126711599D01*
X119430201Y-126731354D01*
X119430199Y-126731355D01*
X119257268Y-126808349D01*
X119104131Y-126919609D01*
X118977465Y-127060286D01*
X118882820Y-127224216D01*
X118882818Y-127224222D01*
X118824327Y-127404240D01*
X118824326Y-127404244D01*
X118804540Y-127592500D01*
X118821617Y-127754985D01*
X118824326Y-127780755D01*
X118824327Y-127780759D01*
X118882818Y-127960777D01*
X118882820Y-127960783D01*
X118962092Y-128098086D01*
X118977467Y-128124716D01*
X119092855Y-128252867D01*
X119104131Y-128265390D01*
X119257268Y-128376650D01*
X119257269Y-128376650D01*
X119257270Y-128376651D01*
X119430197Y-128453644D01*
X119615354Y-128493000D01*
X119615359Y-128493000D01*
X119804641Y-128493000D01*
X119804646Y-128493000D01*
X119989803Y-128453644D01*
X120162730Y-128376651D01*
X120205192Y-128345801D01*
X120330808Y-128279520D01*
X120470009Y-128251314D01*
X120498497Y-128250500D01*
X121073917Y-128250500D01*
X121073918Y-128250500D01*
X121133370Y-128238674D01*
X121218899Y-128221661D01*
X121218901Y-128221660D01*
X121218913Y-128221658D01*
X121218924Y-128221653D01*
X121238985Y-128215568D01*
X121379383Y-128194099D01*
X121520143Y-128213054D01*
X121649861Y-128270897D01*
X121677134Y-128289368D01*
X121797270Y-128376651D01*
X121970197Y-128453644D01*
X122155354Y-128493000D01*
X122155359Y-128493000D01*
X122344641Y-128493000D01*
X122344646Y-128493000D01*
X122529803Y-128453644D01*
X122702730Y-128376651D01*
X122822853Y-128289376D01*
X122948463Y-128223099D01*
X123087664Y-128194893D01*
X123229173Y-128207047D01*
X123261011Y-128215568D01*
X123281089Y-128221659D01*
X123426076Y-128250499D01*
X123426079Y-128250499D01*
X123426082Y-128250500D01*
X123426083Y-128250500D01*
X123573917Y-128250500D01*
X124001503Y-128250500D01*
X124142088Y-128270713D01*
X124271283Y-128329714D01*
X124294808Y-128345801D01*
X124337268Y-128376650D01*
X124337269Y-128376650D01*
X124337270Y-128376651D01*
X124510197Y-128453644D01*
X124695354Y-128493000D01*
X124695359Y-128493000D01*
X124884641Y-128493000D01*
X124884646Y-128493000D01*
X125069803Y-128453644D01*
X125242730Y-128376651D01*
X125395871Y-128265388D01*
X125522533Y-128124716D01*
X125617179Y-127960784D01*
X125675674Y-127780756D01*
X125695460Y-127592500D01*
X125675674Y-127404244D01*
X125617179Y-127224216D01*
X125522533Y-127060284D01*
X125395871Y-126919612D01*
X125395870Y-126919611D01*
X125395868Y-126919609D01*
X125242731Y-126808349D01*
X125144138Y-126764452D01*
X125069803Y-126731356D01*
X125069801Y-126731355D01*
X125069800Y-126731355D01*
X125069796Y-126731354D01*
X124884651Y-126692001D01*
X124884650Y-126692000D01*
X124884646Y-126692000D01*
X124695354Y-126692000D01*
X124695350Y-126692000D01*
X124603243Y-126711578D01*
X124461528Y-126721034D01*
X124322890Y-126690182D01*
X124198559Y-126621520D01*
X124098608Y-126520612D01*
X124031136Y-126395632D01*
X124001607Y-126256705D01*
X124000500Y-126223481D01*
X124000500Y-126024500D01*
X124020713Y-125883915D01*
X124079714Y-125754720D01*
X124172724Y-125647381D01*
X124292208Y-125570594D01*
X124428485Y-125530579D01*
X124499500Y-125525500D01*
X131828483Y-125525500D01*
X131969068Y-125545713D01*
X132090445Y-125599792D01*
X132191303Y-125662003D01*
X132352292Y-125715349D01*
X132451655Y-125725500D01*
X132451657Y-125725499D01*
X132464293Y-125726791D01*
X132464073Y-125728936D01*
X132584123Y-125752476D01*
X132710154Y-125817965D01*
X132812630Y-125916308D01*
X132883248Y-126039538D01*
X132916288Y-126177672D01*
X132909072Y-126319519D01*
X132862186Y-126453587D01*
X132779428Y-126569015D01*
X132667502Y-126656452D01*
X132535477Y-126708814D01*
X132523145Y-126711599D01*
X132430201Y-126731354D01*
X132430199Y-126731355D01*
X132257268Y-126808349D01*
X132104131Y-126919609D01*
X131977465Y-127060286D01*
X131882820Y-127224216D01*
X131882818Y-127224222D01*
X131824327Y-127404240D01*
X131824326Y-127404244D01*
X131804540Y-127592500D01*
X131821617Y-127754985D01*
X131824326Y-127780755D01*
X131824327Y-127780759D01*
X131882818Y-127960777D01*
X131882820Y-127960783D01*
X131962092Y-128098086D01*
X131977467Y-128124716D01*
X132092855Y-128252867D01*
X132104131Y-128265390D01*
X132257268Y-128376650D01*
X132257269Y-128376650D01*
X132257270Y-128376651D01*
X132430197Y-128453644D01*
X132615354Y-128493000D01*
X132615359Y-128493000D01*
X132804641Y-128493000D01*
X132804646Y-128493000D01*
X132989803Y-128453644D01*
X133141417Y-128386139D01*
X133278066Y-128347426D01*
X133344377Y-128343000D01*
X133981417Y-128343000D01*
X133981418Y-128343000D01*
X134076287Y-128324129D01*
X134126404Y-128314160D01*
X134126405Y-128314159D01*
X134126413Y-128314158D01*
X134240714Y-128266812D01*
X134378332Y-128231687D01*
X134520272Y-128236756D01*
X134655034Y-128281609D01*
X134724979Y-128324129D01*
X134797268Y-128376650D01*
X134797269Y-128376650D01*
X134797270Y-128376651D01*
X134970197Y-128453644D01*
X135155354Y-128493000D01*
X135155359Y-128493000D01*
X135344641Y-128493000D01*
X135344646Y-128493000D01*
X135529803Y-128453644D01*
X135702730Y-128376651D01*
X135775022Y-128324127D01*
X135900634Y-128257849D01*
X136039835Y-128229642D01*
X136181344Y-128241795D01*
X136259281Y-128266811D01*
X136373587Y-128314158D01*
X136373590Y-128314158D01*
X136373595Y-128314160D01*
X136518576Y-128342999D01*
X136518579Y-128342999D01*
X136518582Y-128343000D01*
X136518583Y-128343000D01*
X136666418Y-128343000D01*
X137155623Y-128343000D01*
X137296208Y-128363213D01*
X137358578Y-128386138D01*
X137510197Y-128453644D01*
X137695354Y-128493000D01*
X137695359Y-128493000D01*
X137884641Y-128493000D01*
X137884646Y-128493000D01*
X138069803Y-128453644D01*
X138242730Y-128376651D01*
X138395871Y-128265388D01*
X138522533Y-128124716D01*
X138617179Y-127960784D01*
X138650424Y-127858466D01*
X138713088Y-127731013D01*
X138809125Y-127626374D01*
X138864831Y-127592781D01*
X138787589Y-127539964D01*
X138697682Y-127430013D01*
X138650423Y-127326529D01*
X138617181Y-127224222D01*
X138617179Y-127224216D01*
X138522534Y-127060286D01*
X138522533Y-127060284D01*
X138395871Y-126919612D01*
X138395870Y-126919611D01*
X138395868Y-126919609D01*
X138242731Y-126808349D01*
X138144138Y-126764452D01*
X138069803Y-126731356D01*
X138069801Y-126731355D01*
X138069800Y-126731355D01*
X138069796Y-126731354D01*
X137884651Y-126692001D01*
X137884650Y-126692000D01*
X137884646Y-126692000D01*
X137695354Y-126692000D01*
X137695350Y-126692000D01*
X137603243Y-126711578D01*
X137461528Y-126721034D01*
X137322890Y-126690182D01*
X137198559Y-126621520D01*
X137098608Y-126520612D01*
X137031136Y-126395632D01*
X137001607Y-126256705D01*
X137000500Y-126223481D01*
X137000500Y-125999500D01*
X137020713Y-125858915D01*
X137079714Y-125729720D01*
X137172724Y-125622381D01*
X137292208Y-125545594D01*
X137428485Y-125505579D01*
X137499500Y-125500500D01*
X139537952Y-125500500D01*
X139678537Y-125520713D01*
X139799914Y-125574793D01*
X139941303Y-125662003D01*
X140102292Y-125715349D01*
X140201655Y-125725500D01*
X140201657Y-125725499D01*
X140214293Y-125726791D01*
X140214073Y-125728936D01*
X140334123Y-125752476D01*
X140460154Y-125817965D01*
X140562630Y-125916308D01*
X140633248Y-126039538D01*
X140666288Y-126177672D01*
X140659072Y-126319519D01*
X140612186Y-126453587D01*
X140529428Y-126569015D01*
X140417502Y-126656452D01*
X140285477Y-126708814D01*
X140273145Y-126711599D01*
X140180201Y-126731354D01*
X140180199Y-126731355D01*
X140007268Y-126808349D01*
X139854131Y-126919609D01*
X139727465Y-127060286D01*
X139632820Y-127224216D01*
X139632818Y-127224222D01*
X139599577Y-127326529D01*
X139536911Y-127453986D01*
X139440874Y-127558626D01*
X139385168Y-127592217D01*
X139462410Y-127645034D01*
X139552317Y-127754985D01*
X139599575Y-127858465D01*
X139610539Y-127892207D01*
X139632820Y-127960783D01*
X139712092Y-128098086D01*
X139727467Y-128124716D01*
X139842855Y-128252867D01*
X139854131Y-128265390D01*
X140007268Y-128376650D01*
X140007269Y-128376650D01*
X140007270Y-128376651D01*
X140180197Y-128453644D01*
X140365354Y-128493000D01*
X140365359Y-128493000D01*
X140554641Y-128493000D01*
X140554646Y-128493000D01*
X140739803Y-128453644D01*
X140912730Y-128376651D01*
X140955192Y-128345801D01*
X141080808Y-128279520D01*
X141220009Y-128251314D01*
X141248497Y-128250500D01*
X142073916Y-128250500D01*
X142073917Y-128250500D01*
X142073918Y-128250500D01*
X142095138Y-128246278D01*
X142236962Y-128238674D01*
X142375186Y-128271335D01*
X142485796Y-128331988D01*
X142547270Y-128376651D01*
X142720197Y-128453644D01*
X142905354Y-128493000D01*
X142905359Y-128493000D01*
X143094641Y-128493000D01*
X143094646Y-128493000D01*
X143279803Y-128453644D01*
X143452730Y-128376651D01*
X143572853Y-128289376D01*
X143698463Y-128223099D01*
X143837664Y-128194893D01*
X143979173Y-128207047D01*
X144011011Y-128215568D01*
X144031089Y-128221659D01*
X144176076Y-128250499D01*
X144176079Y-128250499D01*
X144176082Y-128250500D01*
X144176083Y-128250500D01*
X144323917Y-128250500D01*
X144751503Y-128250500D01*
X144892088Y-128270713D01*
X145021283Y-128329714D01*
X145044808Y-128345801D01*
X145087268Y-128376650D01*
X145087269Y-128376650D01*
X145087270Y-128376651D01*
X145260197Y-128453644D01*
X145445354Y-128493000D01*
X145445359Y-128493000D01*
X145634641Y-128493000D01*
X145634646Y-128493000D01*
X145819803Y-128453644D01*
X145992730Y-128376651D01*
X146145871Y-128265388D01*
X146272533Y-128124716D01*
X146367179Y-127960784D01*
X146400424Y-127858466D01*
X146463088Y-127731013D01*
X146559125Y-127626374D01*
X146614831Y-127592781D01*
X146537589Y-127539964D01*
X146447682Y-127430013D01*
X146400423Y-127326529D01*
X146367181Y-127224222D01*
X146367179Y-127224216D01*
X146272534Y-127060286D01*
X146272533Y-127060284D01*
X146145871Y-126919612D01*
X146145870Y-126919611D01*
X146145868Y-126919609D01*
X145992731Y-126808349D01*
X145894138Y-126764452D01*
X145819803Y-126731356D01*
X145819801Y-126731355D01*
X145819800Y-126731355D01*
X145819796Y-126731354D01*
X145634651Y-126692001D01*
X145634650Y-126692000D01*
X145634646Y-126692000D01*
X145445354Y-126692000D01*
X145445349Y-126692000D01*
X145368246Y-126708389D01*
X145226531Y-126717845D01*
X145087892Y-126686993D01*
X144963561Y-126618331D01*
X144863611Y-126517422D01*
X144796138Y-126392442D01*
X144766610Y-126253515D01*
X144765503Y-126220292D01*
X144765503Y-125999500D01*
X144785716Y-125858915D01*
X144844717Y-125729720D01*
X144937727Y-125622381D01*
X145057211Y-125545594D01*
X145193488Y-125505579D01*
X145264503Y-125500500D01*
X147287952Y-125500500D01*
X147428537Y-125520713D01*
X147549914Y-125574793D01*
X147691303Y-125662003D01*
X147852292Y-125715349D01*
X147918283Y-125722090D01*
X148012424Y-125740996D01*
X148043468Y-125750414D01*
X148172130Y-125810569D01*
X148278632Y-125904536D01*
X148354347Y-126024702D01*
X148393140Y-126161332D01*
X148391868Y-126303357D01*
X148350636Y-126439270D01*
X148272782Y-126558061D01*
X148164614Y-126650107D01*
X148034896Y-126707949D01*
X148002351Y-126716019D01*
X147930200Y-126731354D01*
X147930199Y-126731355D01*
X147757268Y-126808349D01*
X147604131Y-126919609D01*
X147477465Y-127060286D01*
X147382820Y-127224216D01*
X147382818Y-127224222D01*
X147349577Y-127326529D01*
X147286911Y-127453986D01*
X147190874Y-127558626D01*
X147135168Y-127592217D01*
X147212410Y-127645034D01*
X147302317Y-127754985D01*
X147349575Y-127858465D01*
X147360539Y-127892207D01*
X147382820Y-127960783D01*
X147462092Y-128098086D01*
X147477467Y-128124716D01*
X147592855Y-128252867D01*
X147604131Y-128265390D01*
X147757268Y-128376650D01*
X147757269Y-128376650D01*
X147757270Y-128376651D01*
X147930197Y-128453644D01*
X148115354Y-128493000D01*
X148115359Y-128493000D01*
X148304641Y-128493000D01*
X148304646Y-128493000D01*
X148489803Y-128453644D01*
X148641417Y-128386139D01*
X148778066Y-128347426D01*
X148844377Y-128343000D01*
X149731417Y-128343000D01*
X149731418Y-128343000D01*
X149733023Y-128342680D01*
X149900456Y-128309376D01*
X149900704Y-128310626D01*
X150015591Y-128293059D01*
X150156351Y-128312014D01*
X150274079Y-128364512D01*
X150274621Y-128363575D01*
X150283595Y-128368756D01*
X150286068Y-128369859D01*
X150289322Y-128372063D01*
X150297268Y-128376649D01*
X150297270Y-128376651D01*
X150470197Y-128453644D01*
X150655354Y-128493000D01*
X150655359Y-128493000D01*
X150844641Y-128493000D01*
X150844646Y-128493000D01*
X151029803Y-128453644D01*
X151202730Y-128376651D01*
X151202735Y-128376646D01*
X151225379Y-128363575D01*
X151227293Y-128366890D01*
X151312249Y-128322062D01*
X151451450Y-128293853D01*
X151592959Y-128306005D01*
X151622963Y-128314034D01*
X151768576Y-128342999D01*
X151768579Y-128342999D01*
X151768582Y-128343000D01*
X152655623Y-128343000D01*
X152796208Y-128363213D01*
X152858578Y-128386138D01*
X153010197Y-128453644D01*
X153195354Y-128493000D01*
X153195359Y-128493000D01*
X153384641Y-128493000D01*
X153384646Y-128493000D01*
X153569803Y-128453644D01*
X153742730Y-128376651D01*
X153895871Y-128265388D01*
X154022533Y-128124716D01*
X154117179Y-127960784D01*
X154175674Y-127780756D01*
X154195460Y-127592500D01*
X154175674Y-127404244D01*
X154117179Y-127224216D01*
X154022533Y-127060284D01*
X153895871Y-126919612D01*
X153895870Y-126919611D01*
X153895868Y-126919609D01*
X153742731Y-126808349D01*
X153644138Y-126764452D01*
X153569803Y-126731356D01*
X153569801Y-126731355D01*
X153569800Y-126731355D01*
X153569796Y-126731354D01*
X153384651Y-126692001D01*
X153384650Y-126692000D01*
X153384646Y-126692000D01*
X153195354Y-126692000D01*
X153195350Y-126692000D01*
X153103243Y-126711578D01*
X152961528Y-126721034D01*
X152822890Y-126690182D01*
X152698559Y-126621520D01*
X152598608Y-126520612D01*
X152531136Y-126395632D01*
X152501607Y-126256705D01*
X152500500Y-126223481D01*
X152500500Y-125309309D01*
X152500499Y-125309284D01*
X152497598Y-125272436D01*
X152497598Y-125272431D01*
X152480365Y-125213118D01*
X152460553Y-125072478D01*
X152470139Y-124976547D01*
X152471656Y-124968920D01*
X152471659Y-124968913D01*
X152500500Y-124823918D01*
X152500500Y-124676083D01*
X152471659Y-124531088D01*
X152471656Y-124531082D01*
X152470139Y-124523452D01*
X152462537Y-124381626D01*
X152480366Y-124286881D01*
X152497598Y-124227569D01*
X152498815Y-124212094D01*
X152500499Y-124190715D01*
X152500500Y-124190690D01*
X152500500Y-123034309D01*
X152500499Y-123034284D01*
X152497598Y-122997436D01*
X152497598Y-122997431D01*
X152451744Y-122839602D01*
X152368081Y-122698135D01*
X152368079Y-122698133D01*
X152368076Y-122698129D01*
X152251870Y-122581923D01*
X152251862Y-122581917D01*
X152110396Y-122498255D01*
X152110391Y-122498253D01*
X151952578Y-122452404D01*
X151952571Y-122452402D01*
X151952569Y-122452402D01*
X151952567Y-122452401D01*
X151952563Y-122452401D01*
X151915715Y-122449500D01*
X151915694Y-122449500D01*
X151484306Y-122449500D01*
X151484284Y-122449500D01*
X151447436Y-122452401D01*
X151447427Y-122452402D01*
X151364216Y-122476578D01*
X151223574Y-122496389D01*
X151085784Y-122476578D01*
X151002572Y-122452402D01*
X151002563Y-122452401D01*
X150965715Y-122449500D01*
X150965694Y-122449500D01*
X150534306Y-122449500D01*
X150534284Y-122449500D01*
X150497436Y-122452401D01*
X150497421Y-122452404D01*
X150339608Y-122498253D01*
X150339603Y-122498255D01*
X150198137Y-122581917D01*
X150198129Y-122581923D01*
X150081923Y-122698129D01*
X150081917Y-122698137D01*
X149998255Y-122839603D01*
X149998253Y-122839608D01*
X149952404Y-122997421D01*
X149952401Y-122997436D01*
X149949500Y-123034284D01*
X149949500Y-123500500D01*
X149929287Y-123641085D01*
X149870286Y-123770280D01*
X149777276Y-123877619D01*
X149657792Y-123954406D01*
X149521515Y-123994421D01*
X149450500Y-123999500D01*
X149130986Y-123999500D01*
X148990401Y-123979287D01*
X148869023Y-123925207D01*
X148808697Y-123887997D01*
X148808695Y-123887996D01*
X148700897Y-123852276D01*
X148647708Y-123834651D01*
X148548345Y-123824500D01*
X148548344Y-123824500D01*
X147951656Y-123824500D01*
X147852292Y-123834651D01*
X147852289Y-123834652D01*
X147691302Y-123887997D01*
X147691300Y-123887998D01*
X147667597Y-123902619D01*
X147630976Y-123925206D01*
X147500715Y-123981807D01*
X147369014Y-123999500D01*
X145249500Y-123999500D01*
X145108915Y-123979287D01*
X144979720Y-123920286D01*
X144872381Y-123827276D01*
X144795594Y-123707792D01*
X144755579Y-123571515D01*
X144750500Y-123500500D01*
X144750500Y-123034309D01*
X144750499Y-123034284D01*
X144747598Y-122997436D01*
X144747598Y-122997431D01*
X144701744Y-122839602D01*
X144618081Y-122698135D01*
X144618079Y-122698133D01*
X144618076Y-122698129D01*
X144501870Y-122581923D01*
X144501862Y-122581917D01*
X144360396Y-122498255D01*
X144360391Y-122498253D01*
X144202578Y-122452404D01*
X144202571Y-122452402D01*
X144202569Y-122452402D01*
X144202567Y-122452401D01*
X144202563Y-122452401D01*
X144165715Y-122449500D01*
X144165694Y-122449500D01*
X143734306Y-122449500D01*
X143734284Y-122449500D01*
X143697436Y-122452401D01*
X143697427Y-122452402D01*
X143614216Y-122476578D01*
X143473574Y-122496389D01*
X143335784Y-122476578D01*
X143252572Y-122452402D01*
X143252563Y-122452401D01*
X143215715Y-122449500D01*
X143215694Y-122449500D01*
X142784306Y-122449500D01*
X142784284Y-122449500D01*
X142747436Y-122452401D01*
X142747421Y-122452404D01*
X142589608Y-122498253D01*
X142589603Y-122498255D01*
X142448137Y-122581917D01*
X142448129Y-122581923D01*
X142331923Y-122698129D01*
X142331917Y-122698137D01*
X142248255Y-122839603D01*
X142248253Y-122839608D01*
X142202404Y-122997421D01*
X142202401Y-122997436D01*
X142199500Y-123034284D01*
X142199500Y-123500500D01*
X142179287Y-123641085D01*
X142120286Y-123770280D01*
X142027276Y-123877619D01*
X141907792Y-123954406D01*
X141771515Y-123994421D01*
X141700500Y-123999500D01*
X141380986Y-123999500D01*
X141240401Y-123979287D01*
X141119023Y-123925207D01*
X141058697Y-123887997D01*
X141058695Y-123887996D01*
X140950897Y-123852276D01*
X140897708Y-123834651D01*
X140798345Y-123824500D01*
X140798344Y-123824500D01*
X140201656Y-123824500D01*
X140102292Y-123834651D01*
X140102289Y-123834652D01*
X139941302Y-123887997D01*
X139941300Y-123887998D01*
X139917597Y-123902619D01*
X139880976Y-123925206D01*
X139750715Y-123981807D01*
X139619014Y-123999500D01*
X137499500Y-123999500D01*
X137358915Y-123979287D01*
X137229720Y-123920286D01*
X137122381Y-123827276D01*
X137045594Y-123707792D01*
X137005579Y-123571515D01*
X137000500Y-123500500D01*
X137000500Y-123034309D01*
X137000499Y-123034284D01*
X136997598Y-122997436D01*
X136997598Y-122997431D01*
X136951744Y-122839602D01*
X136868081Y-122698135D01*
X136868079Y-122698133D01*
X136868076Y-122698129D01*
X136751870Y-122581923D01*
X136751862Y-122581917D01*
X136610396Y-122498255D01*
X136610391Y-122498253D01*
X136452578Y-122452404D01*
X136452571Y-122452402D01*
X136452569Y-122452402D01*
X136452567Y-122452401D01*
X136452563Y-122452401D01*
X136415715Y-122449500D01*
X136415694Y-122449500D01*
X135984306Y-122449500D01*
X135984284Y-122449500D01*
X135947436Y-122452401D01*
X135947427Y-122452402D01*
X135864216Y-122476578D01*
X135723574Y-122496389D01*
X135585784Y-122476578D01*
X135502572Y-122452402D01*
X135502563Y-122452401D01*
X135465715Y-122449500D01*
X135465694Y-122449500D01*
X135034306Y-122449500D01*
X135034284Y-122449500D01*
X134997436Y-122452401D01*
X134997421Y-122452404D01*
X134839608Y-122498253D01*
X134839603Y-122498255D01*
X134698137Y-122581917D01*
X134698129Y-122581923D01*
X134581923Y-122698129D01*
X134581917Y-122698137D01*
X134498255Y-122839603D01*
X134498253Y-122839608D01*
X134452404Y-122997421D01*
X134452401Y-122997436D01*
X134449500Y-123034284D01*
X134449500Y-123500500D01*
X134429287Y-123641085D01*
X134370286Y-123770280D01*
X134277276Y-123877619D01*
X134157792Y-123954406D01*
X134021515Y-123994421D01*
X133950500Y-123999500D01*
X133630986Y-123999500D01*
X133490401Y-123979287D01*
X133369023Y-123925207D01*
X133308697Y-123887997D01*
X133308695Y-123887996D01*
X133200897Y-123852276D01*
X133147708Y-123834651D01*
X133048345Y-123824500D01*
X133048344Y-123824500D01*
X132451656Y-123824500D01*
X132352292Y-123834651D01*
X132352289Y-123834652D01*
X132191302Y-123887997D01*
X132191300Y-123887998D01*
X132130978Y-123925206D01*
X132090445Y-123950206D01*
X131960183Y-124006807D01*
X131828483Y-124024500D01*
X124499500Y-124024500D01*
X124358915Y-124004287D01*
X124229720Y-123945286D01*
X124122381Y-123852276D01*
X124045594Y-123732792D01*
X124005579Y-123596515D01*
X124000500Y-123525500D01*
X124000500Y-123034309D01*
X124000499Y-123034284D01*
X123997598Y-122997436D01*
X123997598Y-122997431D01*
X123951744Y-122839602D01*
X123868081Y-122698135D01*
X123868079Y-122698133D01*
X123868076Y-122698129D01*
X123751870Y-122581923D01*
X123751862Y-122581917D01*
X123610396Y-122498255D01*
X123610391Y-122498253D01*
X123452578Y-122452404D01*
X123452571Y-122452402D01*
X123452569Y-122452402D01*
X123452567Y-122452401D01*
X123452563Y-122452401D01*
X123415715Y-122449500D01*
X123415694Y-122449500D01*
X122984306Y-122449500D01*
X122984284Y-122449500D01*
X122947436Y-122452401D01*
X122947427Y-122452402D01*
X122864216Y-122476578D01*
X122723574Y-122496389D01*
X122585784Y-122476578D01*
X122502572Y-122452402D01*
X122502563Y-122452401D01*
X122465715Y-122449500D01*
X122465694Y-122449500D01*
X122034306Y-122449500D01*
X122034284Y-122449500D01*
X121997436Y-122452401D01*
X121997421Y-122452404D01*
X121839608Y-122498253D01*
X121839603Y-122498255D01*
X121698137Y-122581917D01*
X121698129Y-122581923D01*
X121581923Y-122698129D01*
X121581917Y-122698137D01*
X121498255Y-122839603D01*
X121498253Y-122839608D01*
X121452404Y-122997421D01*
X121452401Y-122997436D01*
X121449500Y-123034284D01*
X121449500Y-123525500D01*
X121429287Y-123666085D01*
X121370286Y-123795280D01*
X121277276Y-123902619D01*
X121157792Y-123979406D01*
X121021515Y-124019421D01*
X120950500Y-124024500D01*
X120671517Y-124024500D01*
X120530932Y-124004287D01*
X120409554Y-123950207D01*
X120308697Y-123887997D01*
X120308695Y-123887996D01*
X120200897Y-123852276D01*
X120147708Y-123834651D01*
X120048345Y-123824500D01*
X120048344Y-123824500D01*
X119451656Y-123824500D01*
X119352292Y-123834651D01*
X119352289Y-123834652D01*
X119191302Y-123887997D01*
X119046952Y-123977034D01*
X119046952Y-123977035D01*
X118927035Y-124096952D01*
X118927034Y-124096952D01*
X118837997Y-124241302D01*
X118837996Y-124241304D01*
X118784651Y-124402292D01*
X118774500Y-124501655D01*
X80025500Y-124501655D01*
X80025500Y-80618378D01*
X81549500Y-80618378D01*
X81549500Y-81131621D01*
X81555913Y-81202194D01*
X81606521Y-81364606D01*
X81613729Y-81380620D01*
X81652996Y-81517115D01*
X81652217Y-81659143D01*
X81619709Y-81776378D01*
X81584108Y-81862326D01*
X81584106Y-81862332D01*
X81584106Y-81862334D01*
X81549500Y-82036309D01*
X81549500Y-82213691D01*
X81584106Y-82387666D01*
X81584107Y-82387668D01*
X81584108Y-82387673D01*
X81655091Y-82559042D01*
X81690216Y-82696660D01*
X81685146Y-82838600D01*
X81655091Y-82940958D01*
X81584108Y-83112326D01*
X81584106Y-83112332D01*
X81584106Y-83112334D01*
X81549500Y-83286309D01*
X81549500Y-83463691D01*
X81584106Y-83637666D01*
X81584107Y-83637668D01*
X81584108Y-83637673D01*
X81655091Y-83809042D01*
X81690216Y-83946660D01*
X81685146Y-84088600D01*
X81655091Y-84190958D01*
X81584108Y-84362326D01*
X81584106Y-84362332D01*
X81584106Y-84362334D01*
X81549500Y-84536309D01*
X81549500Y-84713691D01*
X81584106Y-84887666D01*
X81584107Y-84887668D01*
X81584108Y-84887673D01*
X81655091Y-85059042D01*
X81690216Y-85196660D01*
X81685146Y-85338600D01*
X81655091Y-85440958D01*
X81584108Y-85612326D01*
X81584106Y-85612332D01*
X81584106Y-85612334D01*
X81549500Y-85786309D01*
X81549500Y-85963691D01*
X81584106Y-86137666D01*
X81584107Y-86137671D01*
X81647762Y-86291348D01*
X81651987Y-86301547D01*
X81750536Y-86449035D01*
X81875965Y-86574464D01*
X82023453Y-86673013D01*
X82117702Y-86712051D01*
X82187328Y-86740892D01*
X82187330Y-86740892D01*
X82187334Y-86740894D01*
X82361309Y-86775500D01*
X82361313Y-86775500D01*
X83038687Y-86775500D01*
X83038691Y-86775500D01*
X83212666Y-86740894D01*
X83376547Y-86673013D01*
X83524035Y-86574464D01*
X83649464Y-86449035D01*
X83748013Y-86301547D01*
X83815894Y-86137666D01*
X83850500Y-85963691D01*
X83850500Y-85786309D01*
X83815894Y-85612334D01*
X83810992Y-85600500D01*
X83744909Y-85440960D01*
X83709783Y-85303342D01*
X83714852Y-85161402D01*
X83744909Y-85059040D01*
X83815891Y-84887673D01*
X83815890Y-84887673D01*
X83815894Y-84887666D01*
X83850500Y-84713691D01*
X83850500Y-84536309D01*
X83815894Y-84362334D01*
X83748013Y-84198453D01*
X83748012Y-84198451D01*
X83744909Y-84190960D01*
X83709783Y-84053342D01*
X83714852Y-83911402D01*
X83744909Y-83809040D01*
X83754169Y-83786686D01*
X83815894Y-83637666D01*
X83850500Y-83463691D01*
X83850500Y-83286309D01*
X83815894Y-83112334D01*
X83807766Y-83092712D01*
X83744909Y-82940960D01*
X83709783Y-82803342D01*
X83714852Y-82661402D01*
X83744909Y-82559040D01*
X83748650Y-82550010D01*
X83815894Y-82387666D01*
X83850500Y-82213691D01*
X83850500Y-82036309D01*
X83815894Y-81862334D01*
X83780289Y-81776376D01*
X83745165Y-81638764D01*
X83750234Y-81496824D01*
X83786274Y-81380612D01*
X83793474Y-81364611D01*
X83793478Y-81364606D01*
X83844086Y-81202196D01*
X83850500Y-81131616D01*
X83850500Y-80618384D01*
X83850500Y-80618378D01*
X83844086Y-80547805D01*
X83833321Y-80513256D01*
X83793478Y-80385394D01*
X83705472Y-80239815D01*
X83585185Y-80119528D01*
X83581231Y-80117138D01*
X83439604Y-80031521D01*
X83277194Y-79980913D01*
X83206622Y-79974500D01*
X83206616Y-79974500D01*
X82193384Y-79974500D01*
X82193378Y-79974500D01*
X82122805Y-79980913D01*
X81960395Y-80031521D01*
X81814817Y-80119526D01*
X81814812Y-80119530D01*
X81694530Y-80239812D01*
X81694526Y-80239817D01*
X81606521Y-80385395D01*
X81555913Y-80547805D01*
X81549500Y-80618378D01*
X80025500Y-80618378D01*
X80025500Y-70118378D01*
X81549500Y-70118378D01*
X81549500Y-70631621D01*
X81555913Y-70702194D01*
X81606521Y-70864606D01*
X81613729Y-70880620D01*
X81652996Y-71017115D01*
X81652217Y-71159143D01*
X81619709Y-71276378D01*
X81584108Y-71362326D01*
X81584106Y-71362332D01*
X81584106Y-71362334D01*
X81549500Y-71536309D01*
X81549500Y-71713691D01*
X81584106Y-71887666D01*
X81584107Y-71887668D01*
X81584108Y-71887673D01*
X81655091Y-72059042D01*
X81690216Y-72196660D01*
X81685146Y-72338600D01*
X81655091Y-72440958D01*
X81584108Y-72612326D01*
X81584106Y-72612332D01*
X81584106Y-72612334D01*
X81549500Y-72786309D01*
X81549500Y-72963691D01*
X81584106Y-73137666D01*
X81584107Y-73137668D01*
X81584108Y-73137673D01*
X81655091Y-73309042D01*
X81690216Y-73446660D01*
X81685146Y-73588600D01*
X81655091Y-73690958D01*
X81584108Y-73862326D01*
X81584106Y-73862332D01*
X81584106Y-73862334D01*
X81549500Y-74036309D01*
X81549500Y-74213691D01*
X81584106Y-74387666D01*
X81584107Y-74387668D01*
X81584108Y-74387673D01*
X81655091Y-74559042D01*
X81690216Y-74696660D01*
X81685146Y-74838600D01*
X81655091Y-74940958D01*
X81584108Y-75112326D01*
X81584106Y-75112332D01*
X81584106Y-75112334D01*
X81549500Y-75286309D01*
X81549500Y-75463691D01*
X81556169Y-75497216D01*
X81584107Y-75637671D01*
X81630715Y-75750192D01*
X81651987Y-75801547D01*
X81750536Y-75949035D01*
X81875965Y-76074464D01*
X82023453Y-76173013D01*
X82117702Y-76212051D01*
X82187328Y-76240892D01*
X82187330Y-76240892D01*
X82187334Y-76240894D01*
X82361309Y-76275500D01*
X82361313Y-76275500D01*
X83038687Y-76275500D01*
X83038691Y-76275500D01*
X83212666Y-76240894D01*
X83376547Y-76173013D01*
X83524035Y-76074464D01*
X83649464Y-75949035D01*
X83748013Y-75801547D01*
X83815894Y-75637666D01*
X83850500Y-75463691D01*
X83850500Y-75286309D01*
X83815894Y-75112334D01*
X83748013Y-74948453D01*
X83748012Y-74948451D01*
X83744909Y-74940960D01*
X83709783Y-74803342D01*
X83714852Y-74661402D01*
X83744909Y-74559040D01*
X83755219Y-74534151D01*
X83815894Y-74387666D01*
X83850500Y-74213691D01*
X83850500Y-74036309D01*
X83815894Y-73862334D01*
X83807793Y-73842777D01*
X83744909Y-73690960D01*
X83709783Y-73553342D01*
X83714852Y-73411402D01*
X83744909Y-73309040D01*
X83815891Y-73137673D01*
X83815890Y-73137673D01*
X83815894Y-73137666D01*
X83850500Y-72963691D01*
X83850500Y-72786309D01*
X83815894Y-72612334D01*
X83811045Y-72600628D01*
X83744909Y-72440960D01*
X83709783Y-72303342D01*
X83714852Y-72161402D01*
X83744909Y-72059040D01*
X83771414Y-71995052D01*
X83815894Y-71887666D01*
X83833332Y-71800000D01*
X86569540Y-71800000D01*
X86589326Y-71988255D01*
X86589327Y-71988259D01*
X86647818Y-72168277D01*
X86647820Y-72168283D01*
X86739520Y-72327112D01*
X86742467Y-72332216D01*
X86869129Y-72472888D01*
X86869131Y-72472890D01*
X87022270Y-72584151D01*
X87044916Y-72597226D01*
X87042951Y-72600628D01*
X87123665Y-72651418D01*
X87217694Y-72757865D01*
X87277925Y-72886492D01*
X87299477Y-73026878D01*
X87299500Y-73031636D01*
X87299500Y-79954623D01*
X87279287Y-80095208D01*
X87220286Y-80224403D01*
X87153346Y-80307469D01*
X87039143Y-80421671D01*
X87039135Y-80421681D01*
X87018551Y-80452488D01*
X87018550Y-80452490D01*
X86970692Y-80524111D01*
X86970687Y-80524121D01*
X86942686Y-80591726D01*
X86942681Y-80591737D01*
X86923539Y-80637947D01*
X86923536Y-80637957D01*
X86922352Y-80643911D01*
X86922352Y-80643912D01*
X86907876Y-80716692D01*
X86907875Y-80716697D01*
X86899500Y-80758799D01*
X86899500Y-83623007D01*
X86903916Y-83645208D01*
X86923535Y-83743842D01*
X86923537Y-83743849D01*
X86929857Y-83759106D01*
X86929856Y-83759106D01*
X86970685Y-83857677D01*
X86970686Y-83857678D01*
X86970688Y-83857682D01*
X87001198Y-83903342D01*
X87001199Y-83903343D01*
X87001203Y-83903350D01*
X87039136Y-83960122D01*
X87039139Y-83960126D01*
X87143693Y-84064680D01*
X87143704Y-84064690D01*
X87628346Y-84549332D01*
X87713462Y-84663033D01*
X87763096Y-84796108D01*
X87774500Y-84902178D01*
X87774500Y-89052115D01*
X87798536Y-89172951D01*
X87806957Y-89193283D01*
X87806959Y-89193286D01*
X87845688Y-89286787D01*
X87845690Y-89286791D01*
X87856367Y-89302769D01*
X87856373Y-89302782D01*
X87856375Y-89302782D01*
X87894535Y-89359892D01*
X87914142Y-89389235D01*
X87991623Y-89466716D01*
X88029710Y-89504803D01*
X88029717Y-89504809D01*
X88207214Y-89682306D01*
X88292330Y-89796007D01*
X88341964Y-89929082D01*
X88350634Y-89982991D01*
X88364324Y-90113248D01*
X88364327Y-90113259D01*
X88422818Y-90293277D01*
X88422820Y-90293283D01*
X88477999Y-90388856D01*
X88517467Y-90457216D01*
X88625422Y-90577112D01*
X88644131Y-90597890D01*
X88797268Y-90709150D01*
X88797269Y-90709150D01*
X88797270Y-90709151D01*
X88970197Y-90786144D01*
X88970202Y-90786145D01*
X88970205Y-90786146D01*
X89054245Y-90804009D01*
X89187555Y-90853008D01*
X89301660Y-90937581D01*
X89387317Y-91050875D01*
X89437585Y-91183712D01*
X89449500Y-91292105D01*
X89449500Y-93565572D01*
X89429287Y-93706157D01*
X89425077Y-93719771D01*
X89364327Y-93906740D01*
X89364326Y-93906744D01*
X89344540Y-94095000D01*
X89364326Y-94283255D01*
X89364327Y-94283259D01*
X89422818Y-94463277D01*
X89422820Y-94463283D01*
X89422821Y-94463284D01*
X89517467Y-94627216D01*
X89575900Y-94692112D01*
X89644131Y-94767890D01*
X89797268Y-94879150D01*
X89797269Y-94879150D01*
X89797270Y-94879151D01*
X89970197Y-94956144D01*
X90155354Y-94995500D01*
X90155359Y-94995500D01*
X90344641Y-94995500D01*
X90344646Y-94995500D01*
X90529803Y-94956144D01*
X90702730Y-94879151D01*
X90855871Y-94767888D01*
X90982533Y-94627216D01*
X91077179Y-94463284D01*
X91135674Y-94283256D01*
X91155460Y-94095000D01*
X91135674Y-93906744D01*
X91077179Y-93726716D01*
X91017353Y-93623094D01*
X90964566Y-93491237D01*
X90950500Y-93373595D01*
X90950500Y-87421087D01*
X90950500Y-87421082D01*
X90940124Y-87368918D01*
X90921659Y-87276088D01*
X90921658Y-87276086D01*
X90921657Y-87276080D01*
X90914542Y-87252625D01*
X90916771Y-87251948D01*
X90889852Y-87146497D01*
X90889827Y-87146267D01*
X90885674Y-87106744D01*
X90827179Y-86926716D01*
X90824059Y-86921313D01*
X90817352Y-86909694D01*
X90764565Y-86777838D01*
X90750500Y-86660197D01*
X90750500Y-81129802D01*
X90770713Y-80989217D01*
X90817348Y-80880310D01*
X90827179Y-80863284D01*
X90885674Y-80683256D01*
X90905460Y-80495000D01*
X90885674Y-80306744D01*
X90832260Y-80142353D01*
X90827179Y-80126715D01*
X90817352Y-80109694D01*
X90764565Y-79977838D01*
X90750500Y-79860197D01*
X90750500Y-74329802D01*
X90770713Y-74189217D01*
X90817348Y-74080310D01*
X90827179Y-74063284D01*
X90885674Y-73883256D01*
X90905460Y-73695000D01*
X90885674Y-73506744D01*
X90827179Y-73326716D01*
X90827179Y-73326715D01*
X90817352Y-73309694D01*
X90764565Y-73177838D01*
X90750500Y-73060197D01*
X90750500Y-67529802D01*
X90770713Y-67389217D01*
X90817348Y-67280310D01*
X90827179Y-67263284D01*
X90829576Y-67255909D01*
X90857517Y-67169913D01*
X90885674Y-67083256D01*
X90905460Y-66895000D01*
X90885674Y-66706744D01*
X90828691Y-66531368D01*
X90827179Y-66526715D01*
X90817352Y-66509694D01*
X90764565Y-66377838D01*
X90750500Y-66260197D01*
X90750500Y-60729802D01*
X90770713Y-60589217D01*
X90817348Y-60480310D01*
X90827179Y-60463284D01*
X90885674Y-60283256D01*
X90905460Y-60095000D01*
X90885674Y-59906744D01*
X90827179Y-59726716D01*
X90732533Y-59562784D01*
X90605871Y-59422112D01*
X90605870Y-59422111D01*
X90605868Y-59422109D01*
X90452730Y-59310848D01*
X90279805Y-59233856D01*
X90279801Y-59233855D01*
X90146950Y-59205617D01*
X90059736Y-59178536D01*
X89998917Y-59153343D01*
X89998904Y-59153339D01*
X89853922Y-59124500D01*
X89853917Y-59124500D01*
X89706083Y-59124500D01*
X89706077Y-59124500D01*
X89561096Y-59153339D01*
X89561086Y-59153342D01*
X89424501Y-59209917D01*
X89301588Y-59292044D01*
X89301581Y-59292050D01*
X89197050Y-59396581D01*
X89197044Y-59396588D01*
X89114917Y-59519501D01*
X89058342Y-59656086D01*
X89058339Y-59656096D01*
X89029500Y-59801077D01*
X89029500Y-59948922D01*
X89058339Y-60093903D01*
X89058341Y-60093910D01*
X89058342Y-60093912D01*
X89073961Y-60131621D01*
X89079007Y-60143801D01*
X89108111Y-60257835D01*
X89108887Y-60257671D01*
X89112960Y-60276833D01*
X89114131Y-60281420D01*
X89114256Y-60282597D01*
X89114324Y-60283252D01*
X89114325Y-60283255D01*
X89172817Y-60463276D01*
X89172820Y-60463281D01*
X89172821Y-60463284D01*
X89182650Y-60480309D01*
X89235434Y-60612160D01*
X89249500Y-60729802D01*
X89249500Y-62565393D01*
X89229287Y-62705978D01*
X89170286Y-62835173D01*
X89077276Y-62942512D01*
X88957792Y-63019299D01*
X88821515Y-63059314D01*
X88679485Y-63059314D01*
X88543208Y-63019299D01*
X88457200Y-62969096D01*
X88452731Y-62965849D01*
X88354138Y-62921952D01*
X88279803Y-62888856D01*
X88279801Y-62888855D01*
X88279800Y-62888855D01*
X88279796Y-62888854D01*
X88094651Y-62849501D01*
X88094650Y-62849500D01*
X88094646Y-62849500D01*
X87905354Y-62849500D01*
X87905350Y-62849500D01*
X87905348Y-62849501D01*
X87720203Y-62888854D01*
X87720199Y-62888855D01*
X87547268Y-62965849D01*
X87394131Y-63077109D01*
X87267465Y-63217786D01*
X87172820Y-63381716D01*
X87172818Y-63381722D01*
X87114327Y-63561740D01*
X87114326Y-63561744D01*
X87094540Y-63750000D01*
X87114326Y-63938255D01*
X87114327Y-63938259D01*
X87172818Y-64118277D01*
X87172822Y-64118286D01*
X87176993Y-64125511D01*
X87229777Y-64257368D01*
X87243274Y-64398756D01*
X87216391Y-64538219D01*
X87176993Y-64624489D01*
X87172822Y-64631713D01*
X87172818Y-64631722D01*
X87141304Y-64728714D01*
X87114326Y-64811744D01*
X87094540Y-65000000D01*
X87109009Y-65137671D01*
X87114326Y-65188255D01*
X87114327Y-65188259D01*
X87172818Y-65368277D01*
X87172820Y-65368283D01*
X87219443Y-65449036D01*
X87267467Y-65532216D01*
X87394129Y-65672888D01*
X87394131Y-65672890D01*
X87547268Y-65784150D01*
X87547269Y-65784150D01*
X87547270Y-65784151D01*
X87720197Y-65861144D01*
X87720202Y-65861145D01*
X87720205Y-65861146D01*
X87804245Y-65879009D01*
X87937555Y-65928008D01*
X88051660Y-66012581D01*
X88137317Y-66125875D01*
X88187585Y-66258712D01*
X88199500Y-66367105D01*
X88199500Y-69432894D01*
X88179287Y-69573479D01*
X88120286Y-69702674D01*
X88027276Y-69810013D01*
X87907792Y-69886800D01*
X87804249Y-69920989D01*
X87720208Y-69938852D01*
X87720199Y-69938855D01*
X87547268Y-70015849D01*
X87394131Y-70127109D01*
X87267465Y-70267786D01*
X87172820Y-70431716D01*
X87172818Y-70431722D01*
X87114327Y-70611740D01*
X87114324Y-70611753D01*
X87099175Y-70755892D01*
X87064378Y-70893594D01*
X86992195Y-71015914D01*
X86896219Y-71107429D01*
X86869131Y-71127109D01*
X86742465Y-71267786D01*
X86647820Y-71431716D01*
X86647818Y-71431722D01*
X86589327Y-71611740D01*
X86589326Y-71611744D01*
X86569540Y-71800000D01*
X83833332Y-71800000D01*
X83850500Y-71713691D01*
X83850500Y-71536309D01*
X83815894Y-71362334D01*
X83780289Y-71276376D01*
X83745165Y-71138764D01*
X83750234Y-70996824D01*
X83786274Y-70880612D01*
X83793474Y-70864611D01*
X83793478Y-70864606D01*
X83844086Y-70702196D01*
X83850500Y-70631616D01*
X83850500Y-70118384D01*
X83850500Y-70118378D01*
X83844086Y-70047805D01*
X83841252Y-70038708D01*
X83793478Y-69885394D01*
X83705472Y-69739815D01*
X83585185Y-69619528D01*
X83439606Y-69531522D01*
X83439605Y-69531521D01*
X83439604Y-69531521D01*
X83277194Y-69480913D01*
X83206622Y-69474500D01*
X83206616Y-69474500D01*
X82193384Y-69474500D01*
X82193378Y-69474500D01*
X82122805Y-69480913D01*
X81960395Y-69531521D01*
X81814817Y-69619526D01*
X81814812Y-69619530D01*
X81694530Y-69739812D01*
X81694526Y-69739817D01*
X81606521Y-69885395D01*
X81555913Y-70047805D01*
X81549500Y-70118378D01*
X80025500Y-70118378D01*
X80025500Y-59618378D01*
X81549500Y-59618378D01*
X81549500Y-60131621D01*
X81555913Y-60202194D01*
X81606521Y-60364606D01*
X81613729Y-60380620D01*
X81652996Y-60517115D01*
X81652217Y-60659143D01*
X81619709Y-60776378D01*
X81584108Y-60862326D01*
X81584106Y-60862332D01*
X81584106Y-60862334D01*
X81549500Y-61036309D01*
X81549500Y-61213691D01*
X81584106Y-61387666D01*
X81584107Y-61387668D01*
X81584108Y-61387673D01*
X81655091Y-61559042D01*
X81690216Y-61696660D01*
X81685146Y-61838600D01*
X81655091Y-61940958D01*
X81584108Y-62112326D01*
X81584106Y-62112332D01*
X81584106Y-62112334D01*
X81549500Y-62286309D01*
X81549500Y-62463691D01*
X81584106Y-62637666D01*
X81584107Y-62637668D01*
X81584108Y-62637673D01*
X81655091Y-62809042D01*
X81690216Y-62946660D01*
X81685146Y-63088600D01*
X81655091Y-63190958D01*
X81584108Y-63362326D01*
X81584106Y-63362332D01*
X81584106Y-63362334D01*
X81549500Y-63536309D01*
X81549500Y-63713691D01*
X81584106Y-63887666D01*
X81584107Y-63887668D01*
X81584108Y-63887673D01*
X81655091Y-64059042D01*
X81690216Y-64196660D01*
X81685146Y-64338600D01*
X81655091Y-64440958D01*
X81584108Y-64612326D01*
X81584106Y-64612332D01*
X81584106Y-64612334D01*
X81549500Y-64786309D01*
X81549500Y-64963691D01*
X81584106Y-65137666D01*
X81584107Y-65137671D01*
X81647762Y-65291348D01*
X81651987Y-65301547D01*
X81750536Y-65449035D01*
X81875965Y-65574464D01*
X82023453Y-65673013D01*
X82117702Y-65712051D01*
X82187328Y-65740892D01*
X82187330Y-65740892D01*
X82187334Y-65740894D01*
X82361309Y-65775500D01*
X82361313Y-65775500D01*
X83038687Y-65775500D01*
X83038691Y-65775500D01*
X83212666Y-65740894D01*
X83376547Y-65673013D01*
X83524035Y-65574464D01*
X83649464Y-65449035D01*
X83748013Y-65301547D01*
X83815894Y-65137666D01*
X83850500Y-64963691D01*
X83850500Y-64786309D01*
X83815894Y-64612334D01*
X83748013Y-64448453D01*
X83748012Y-64448451D01*
X83744909Y-64440960D01*
X83709783Y-64303342D01*
X83714852Y-64161402D01*
X83744909Y-64059040D01*
X83794940Y-63938255D01*
X83815894Y-63887666D01*
X83850500Y-63713691D01*
X83850500Y-63536309D01*
X83815894Y-63362334D01*
X83748013Y-63198453D01*
X83748012Y-63198451D01*
X83744909Y-63190960D01*
X83709783Y-63053342D01*
X83714852Y-62911402D01*
X83744909Y-62809040D01*
X83787599Y-62705978D01*
X83815894Y-62637666D01*
X83850500Y-62463691D01*
X83850500Y-62286309D01*
X83815894Y-62112334D01*
X83811938Y-62102784D01*
X83744909Y-61940960D01*
X83709783Y-61803342D01*
X83714852Y-61661402D01*
X83744909Y-61559040D01*
X83815891Y-61387673D01*
X83815890Y-61387673D01*
X83815894Y-61387666D01*
X83850500Y-61213691D01*
X83850500Y-61036309D01*
X83815894Y-60862334D01*
X83780289Y-60776376D01*
X83745165Y-60638764D01*
X83750234Y-60496824D01*
X83786274Y-60380612D01*
X83793474Y-60364611D01*
X83793478Y-60364606D01*
X83844086Y-60202196D01*
X83850500Y-60131616D01*
X83850500Y-59618384D01*
X83850500Y-59618378D01*
X83844086Y-59547805D01*
X83835267Y-59519501D01*
X83793478Y-59385394D01*
X83705472Y-59239815D01*
X83585185Y-59119528D01*
X83572080Y-59111606D01*
X83439604Y-59031521D01*
X83277194Y-58980913D01*
X83206622Y-58974500D01*
X83206616Y-58974500D01*
X82193384Y-58974500D01*
X82193378Y-58974500D01*
X82122805Y-58980913D01*
X81960395Y-59031521D01*
X81814817Y-59119526D01*
X81814812Y-59119530D01*
X81694530Y-59239812D01*
X81694526Y-59239817D01*
X81606521Y-59385395D01*
X81555913Y-59547805D01*
X81549500Y-59618378D01*
X80025500Y-59618378D01*
X80025500Y-53797902D01*
X80045713Y-53657317D01*
X80104714Y-53528122D01*
X80197724Y-53420783D01*
X80317208Y-53343996D01*
X80453485Y-53303981D01*
X80595515Y-53303981D01*
X80731792Y-53343996D01*
X80851276Y-53420783D01*
X80944286Y-53528122D01*
X80977498Y-53591616D01*
X80984916Y-53605495D01*
X81017813Y-53654729D01*
X81028208Y-53670286D01*
X81067047Y-53728415D01*
X81421582Y-54082949D01*
X81421581Y-54082949D01*
X81544505Y-54165084D01*
X81544511Y-54165087D01*
X81612796Y-54193371D01*
X81681087Y-54221658D01*
X81681092Y-54221659D01*
X81681095Y-54221660D01*
X81826076Y-54250499D01*
X81826079Y-54250499D01*
X81826082Y-54250500D01*
X81826083Y-54250500D01*
X81973916Y-54250500D01*
X81973917Y-54250500D01*
X81977570Y-54249773D01*
X82118903Y-54221660D01*
X82118904Y-54221659D01*
X82118912Y-54221658D01*
X82255494Y-54165084D01*
X82375953Y-54084596D01*
X82504073Y-54023299D01*
X82644274Y-54000579D01*
X82653181Y-54000500D01*
X83323917Y-54000500D01*
X83323918Y-54000500D01*
X83441500Y-53977111D01*
X83468904Y-53971660D01*
X83468905Y-53971659D01*
X83468913Y-53971658D01*
X83568649Y-53930345D01*
X83605491Y-53915086D01*
X83605492Y-53915085D01*
X83605495Y-53915084D01*
X83679181Y-53865849D01*
X83728416Y-53832952D01*
X84432951Y-53128416D01*
X84497983Y-53031088D01*
X84515084Y-53005495D01*
X84571658Y-52868913D01*
X84573204Y-52861144D01*
X84600499Y-52723923D01*
X84600500Y-52723917D01*
X84600500Y-52167560D01*
X84620713Y-52026975D01*
X84679714Y-51897780D01*
X84746654Y-51814714D01*
X94039714Y-42521654D01*
X94153415Y-42436538D01*
X94286490Y-42386904D01*
X94392560Y-42375500D01*
X99862288Y-42375500D01*
X100002873Y-42395713D01*
X100132068Y-42454714D01*
X100215134Y-42521654D01*
X104526429Y-46832950D01*
X104526432Y-46832952D01*
X104600118Y-46882186D01*
X104649353Y-46915084D01*
X104675894Y-46926077D01*
X104675905Y-46926084D01*
X104675906Y-46926083D01*
X104785929Y-46971657D01*
X104785933Y-46971657D01*
X104785936Y-46971659D01*
X104902089Y-46994763D01*
X104930930Y-47000500D01*
X104930931Y-47000500D01*
X105078766Y-47000500D01*
X109732439Y-47000500D01*
X109873024Y-47020713D01*
X110002219Y-47079714D01*
X110085285Y-47146653D01*
X110353346Y-47414713D01*
X110438461Y-47528414D01*
X110488096Y-47661489D01*
X110499500Y-47767560D01*
X110499500Y-50978923D01*
X110528339Y-51123904D01*
X110528344Y-51123918D01*
X110584913Y-51260491D01*
X110584916Y-51260495D01*
X110607831Y-51294790D01*
X110629428Y-51327112D01*
X110667049Y-51383417D01*
X111273568Y-51989935D01*
X111358684Y-52103636D01*
X111395299Y-52188582D01*
X111422818Y-52273279D01*
X111422820Y-52273283D01*
X111477669Y-52368284D01*
X111517467Y-52437216D01*
X111573548Y-52499500D01*
X111644131Y-52577890D01*
X111797268Y-52689150D01*
X111797269Y-52689150D01*
X111797270Y-52689151D01*
X111970197Y-52766144D01*
X112155354Y-52805500D01*
X112155359Y-52805500D01*
X112344641Y-52805500D01*
X112344646Y-52805500D01*
X112529803Y-52766144D01*
X112702730Y-52689151D01*
X112855871Y-52577888D01*
X112982533Y-52437216D01*
X113077179Y-52273284D01*
X113077181Y-52273279D01*
X113087819Y-52249387D01*
X113091740Y-52251133D01*
X113132695Y-52167839D01*
X113228733Y-52063200D01*
X113350361Y-51989857D01*
X113487726Y-51953752D01*
X113544603Y-51950500D01*
X127174530Y-51950500D01*
X127315115Y-51970713D01*
X127444310Y-52029714D01*
X127551649Y-52122724D01*
X127628436Y-52242208D01*
X127649108Y-52295302D01*
X127672820Y-52368283D01*
X127748578Y-52499500D01*
X127767467Y-52532216D01*
X127894129Y-52672888D01*
X127894131Y-52672890D01*
X128047268Y-52784150D01*
X128047269Y-52784150D01*
X128047270Y-52784151D01*
X128220197Y-52861144D01*
X128405354Y-52900500D01*
X128405359Y-52900500D01*
X128594641Y-52900500D01*
X128594646Y-52900500D01*
X128779803Y-52861144D01*
X128931417Y-52793639D01*
X129068066Y-52754926D01*
X129134377Y-52750500D01*
X144365623Y-52750500D01*
X144506208Y-52770713D01*
X144568578Y-52793638D01*
X144720197Y-52861144D01*
X144905354Y-52900500D01*
X144905359Y-52900500D01*
X145094641Y-52900500D01*
X145094646Y-52900500D01*
X145279803Y-52861144D01*
X145452730Y-52784151D01*
X145605871Y-52672888D01*
X145732533Y-52532216D01*
X145827179Y-52368284D01*
X145885674Y-52188256D01*
X145905460Y-52000000D01*
X145885674Y-51811744D01*
X145827179Y-51631716D01*
X145789813Y-51566996D01*
X145737027Y-51435145D01*
X145723526Y-51293758D01*
X145750405Y-51154295D01*
X145789811Y-51068006D01*
X145827179Y-51003284D01*
X145884437Y-50827062D01*
X145947101Y-50699612D01*
X146006161Y-50628427D01*
X146095286Y-50539302D01*
X146095294Y-50539296D01*
X146123731Y-50510859D01*
X146123733Y-50510858D01*
X146210858Y-50423733D01*
X146210860Y-50423729D01*
X146210865Y-50423724D01*
X146251892Y-50362320D01*
X146279311Y-50321286D01*
X146326463Y-50207452D01*
X146335263Y-50163211D01*
X146350499Y-50086614D01*
X146350500Y-50086604D01*
X146350500Y-48663394D01*
X146344674Y-48634107D01*
X146344672Y-48634095D01*
X146330281Y-48561741D01*
X146330281Y-48561740D01*
X146330278Y-48561731D01*
X146326462Y-48542543D01*
X146326461Y-48542542D01*
X146279315Y-48428724D01*
X146279311Y-48428714D01*
X146247908Y-48381716D01*
X146210863Y-48326273D01*
X146210856Y-48326265D01*
X146111218Y-48226627D01*
X146111203Y-48226613D01*
X144634590Y-46750000D01*
X148594540Y-46750000D01*
X148613579Y-46931153D01*
X148614326Y-46938255D01*
X148614327Y-46938259D01*
X148672818Y-47118277D01*
X148672820Y-47118283D01*
X148751260Y-47254145D01*
X148767467Y-47282216D01*
X148872380Y-47398733D01*
X148894131Y-47422890D01*
X149047268Y-47534150D01*
X149047269Y-47534150D01*
X149047270Y-47534151D01*
X149220197Y-47611144D01*
X149405354Y-47650500D01*
X149405359Y-47650500D01*
X149594641Y-47650500D01*
X149594646Y-47650500D01*
X149779803Y-47611144D01*
X149797037Y-47603470D01*
X149933680Y-47564755D01*
X150075704Y-47566104D01*
X150202961Y-47603470D01*
X150220197Y-47611144D01*
X150405354Y-47650500D01*
X150405359Y-47650500D01*
X150594641Y-47650500D01*
X150594646Y-47650500D01*
X150779803Y-47611144D01*
X150797037Y-47603470D01*
X150933680Y-47564755D01*
X151075704Y-47566104D01*
X151202961Y-47603470D01*
X151220197Y-47611144D01*
X151405354Y-47650500D01*
X151405359Y-47650500D01*
X151594641Y-47650500D01*
X151594646Y-47650500D01*
X151638645Y-47641147D01*
X151780357Y-47631691D01*
X151918996Y-47662542D01*
X152043328Y-47731202D01*
X152143279Y-47832110D01*
X152210753Y-47957089D01*
X152240282Y-48096016D01*
X152229476Y-48237634D01*
X152179208Y-48370472D01*
X152174542Y-48378735D01*
X152172821Y-48381715D01*
X152172818Y-48381722D01*
X152114330Y-48561731D01*
X152114326Y-48561744D01*
X152094540Y-48750000D01*
X152101029Y-48811745D01*
X152114326Y-48938255D01*
X152114327Y-48938259D01*
X152172818Y-49118277D01*
X152172820Y-49118283D01*
X152213219Y-49188256D01*
X152267467Y-49282216D01*
X152394129Y-49422888D01*
X152394131Y-49422890D01*
X152547268Y-49534150D01*
X152547269Y-49534150D01*
X152547270Y-49534151D01*
X152720197Y-49611144D01*
X152905354Y-49650500D01*
X152905359Y-49650500D01*
X153094641Y-49650500D01*
X153094646Y-49650500D01*
X153279803Y-49611144D01*
X153452730Y-49534151D01*
X153605871Y-49422888D01*
X153732533Y-49282216D01*
X153827179Y-49118284D01*
X153885674Y-48938256D01*
X153905460Y-48750000D01*
X153892270Y-48624503D01*
X153897678Y-48482581D01*
X153942852Y-48347926D01*
X153975877Y-48293743D01*
X153982530Y-48282218D01*
X153982533Y-48282216D01*
X154077179Y-48118284D01*
X154135674Y-47938256D01*
X154152891Y-47774436D01*
X154187687Y-47636742D01*
X154259869Y-47514421D01*
X154336933Y-47440942D01*
X154336435Y-47440389D01*
X154355839Y-47422916D01*
X154355868Y-47422890D01*
X154355871Y-47422888D01*
X154482533Y-47282216D01*
X154577179Y-47118284D01*
X154635674Y-46938256D01*
X154655460Y-46750000D01*
X154635674Y-46561744D01*
X154577179Y-46381716D01*
X154482533Y-46217784D01*
X154355871Y-46077112D01*
X154355870Y-46077111D01*
X154355868Y-46077109D01*
X154202731Y-45965849D01*
X154093468Y-45917202D01*
X154029803Y-45888856D01*
X154029801Y-45888855D01*
X154029800Y-45888855D01*
X154029796Y-45888854D01*
X153844651Y-45849501D01*
X153844650Y-45849500D01*
X153844646Y-45849500D01*
X153655354Y-45849500D01*
X153655350Y-45849500D01*
X153655348Y-45849501D01*
X153470203Y-45888854D01*
X153470199Y-45888855D01*
X153327960Y-45952184D01*
X153191308Y-45990899D01*
X153049285Y-45989546D01*
X152922040Y-45952184D01*
X152823182Y-45908170D01*
X152779803Y-45888856D01*
X152779801Y-45888855D01*
X152779800Y-45888855D01*
X152779796Y-45888854D01*
X152594651Y-45849501D01*
X152594650Y-45849500D01*
X152594646Y-45849500D01*
X152405354Y-45849500D01*
X152405350Y-45849500D01*
X152405348Y-45849501D01*
X152220203Y-45888854D01*
X152220195Y-45888856D01*
X152202961Y-45896530D01*
X152066310Y-45935246D01*
X151924286Y-45933893D01*
X151797039Y-45896530D01*
X151779804Y-45888856D01*
X151779796Y-45888854D01*
X151594651Y-45849501D01*
X151594650Y-45849500D01*
X151594646Y-45849500D01*
X151405354Y-45849500D01*
X151405350Y-45849500D01*
X151405348Y-45849501D01*
X151220203Y-45888854D01*
X151220195Y-45888856D01*
X151202961Y-45896530D01*
X151066310Y-45935246D01*
X150924286Y-45933893D01*
X150797039Y-45896530D01*
X150779804Y-45888856D01*
X150779796Y-45888854D01*
X150594651Y-45849501D01*
X150594650Y-45849500D01*
X150594646Y-45849500D01*
X150405354Y-45849500D01*
X150405350Y-45849500D01*
X150405348Y-45849501D01*
X150220203Y-45888854D01*
X150220195Y-45888856D01*
X150202961Y-45896530D01*
X150066310Y-45935246D01*
X149924286Y-45933893D01*
X149797039Y-45896530D01*
X149779804Y-45888856D01*
X149779796Y-45888854D01*
X149594651Y-45849501D01*
X149594650Y-45849500D01*
X149594646Y-45849500D01*
X149405354Y-45849500D01*
X149405350Y-45849500D01*
X149405348Y-45849501D01*
X149220203Y-45888854D01*
X149220199Y-45888855D01*
X149047268Y-45965849D01*
X148894131Y-46077109D01*
X148767465Y-46217786D01*
X148672820Y-46381716D01*
X148672818Y-46381722D01*
X148614327Y-46561740D01*
X148614326Y-46561744D01*
X148594540Y-46750000D01*
X144634590Y-46750000D01*
X141491936Y-43607346D01*
X141406820Y-43493645D01*
X141357186Y-43360570D01*
X141347053Y-43218902D01*
X141377244Y-43080117D01*
X141445312Y-42955460D01*
X141545742Y-42855030D01*
X141670399Y-42786962D01*
X141809184Y-42756771D01*
X141844782Y-42755500D01*
X153725473Y-42755500D01*
X153725487Y-42755500D01*
X153774831Y-42754289D01*
X153823739Y-42751886D01*
X153872951Y-42748255D01*
X153914249Y-42744187D01*
X153914257Y-42744187D01*
X153926440Y-42742987D01*
X153926442Y-42742987D01*
X153994740Y-42736260D01*
X154092337Y-42721783D01*
X154188272Y-42702701D01*
X154217482Y-42695384D01*
X154235033Y-42693575D01*
X154283984Y-42678725D01*
X154284003Y-42678721D01*
X154333510Y-42663702D01*
X154333511Y-42663703D01*
X154377533Y-42650349D01*
X154470436Y-42617108D01*
X154560815Y-42579672D01*
X154650023Y-42537479D01*
X154736224Y-42491403D01*
X154778540Y-42466040D01*
X154820838Y-42440688D01*
X154820843Y-42440684D01*
X154820856Y-42440677D01*
X154902189Y-42386332D01*
X154981446Y-42327551D01*
X155056998Y-42265547D01*
X155130111Y-42199281D01*
X155199281Y-42130111D01*
X155265547Y-42056998D01*
X155327551Y-41981446D01*
X155386332Y-41902189D01*
X155440677Y-41820856D01*
X155491403Y-41736224D01*
X155537479Y-41650023D01*
X155579667Y-41560826D01*
X155617105Y-41470445D01*
X155650354Y-41377521D01*
X155678726Y-41283988D01*
X155702701Y-41188272D01*
X155721783Y-41092337D01*
X155736260Y-40994741D01*
X155748255Y-40872960D01*
X155751886Y-40823738D01*
X155754289Y-40774825D01*
X155755500Y-40725486D01*
X155755500Y-31024513D01*
X155754289Y-30975174D01*
X155751886Y-30926261D01*
X155748255Y-30877039D01*
X155736260Y-30755258D01*
X155721783Y-30657662D01*
X155720294Y-30650176D01*
X155714659Y-30621842D01*
X155707059Y-30480015D01*
X155739724Y-30341792D01*
X155810008Y-30218371D01*
X155912217Y-30119751D01*
X156038070Y-30053921D01*
X156177372Y-30026215D01*
X156204072Y-30025500D01*
X179141790Y-30025500D01*
X179282375Y-30045713D01*
G37*
G04 #@! TD.AperFunction*
G04 #@! TA.AperFunction,Conductor*
G36*
X139738407Y-44345713D02*
G01*
X139867602Y-44404714D01*
X139950668Y-44471654D01*
X144030880Y-48551866D01*
X144115996Y-48665567D01*
X144165630Y-48798642D01*
X144175763Y-48940310D01*
X144152613Y-49058907D01*
X144114326Y-49176744D01*
X144094540Y-49365000D01*
X144114326Y-49553255D01*
X144114327Y-49553259D01*
X144172818Y-49733277D01*
X144172820Y-49733283D01*
X144182763Y-49750504D01*
X144235549Y-49882361D01*
X144249049Y-50023748D01*
X144222168Y-50163211D01*
X144182763Y-50249496D01*
X144172820Y-50266716D01*
X144172818Y-50266722D01*
X144114327Y-50446740D01*
X144114326Y-50446744D01*
X144095232Y-50628422D01*
X144094540Y-50635003D01*
X144101197Y-50698340D01*
X144095790Y-50840267D01*
X144050617Y-50974922D01*
X143969336Y-51091396D01*
X143858534Y-51180252D01*
X143727186Y-51234292D01*
X143604931Y-51249500D01*
X129974784Y-51249500D01*
X129834199Y-51229287D01*
X129705004Y-51170286D01*
X129597665Y-51077276D01*
X129520878Y-50957792D01*
X129480863Y-50821515D01*
X129480863Y-50679485D01*
X129520878Y-50543208D01*
X129597665Y-50423724D01*
X129621936Y-50397655D01*
X129654518Y-50365073D01*
X129735858Y-50283733D01*
X129737791Y-50280841D01*
X129786829Y-50207449D01*
X129804311Y-50181286D01*
X129851463Y-50067452D01*
X129869173Y-49978416D01*
X129875500Y-49946607D01*
X129875500Y-49823393D01*
X129875500Y-47051998D01*
X129875500Y-47051996D01*
X129872733Y-47038086D01*
X129872731Y-47038079D01*
X129852876Y-46938256D01*
X129851463Y-46931153D01*
X129848886Y-46924932D01*
X129804311Y-46817318D01*
X129804309Y-46817315D01*
X129804309Y-46817314D01*
X129759331Y-46750000D01*
X132094540Y-46750000D01*
X132113579Y-46931153D01*
X132114326Y-46938255D01*
X132114327Y-46938259D01*
X132172818Y-47118277D01*
X132172820Y-47118283D01*
X132251260Y-47254145D01*
X132267467Y-47282216D01*
X132372380Y-47398733D01*
X132394131Y-47422890D01*
X132547268Y-47534150D01*
X132547269Y-47534150D01*
X132547270Y-47534151D01*
X132720197Y-47611144D01*
X132905354Y-47650500D01*
X132905359Y-47650500D01*
X133094641Y-47650500D01*
X133094646Y-47650500D01*
X133279803Y-47611144D01*
X133297037Y-47603470D01*
X133433680Y-47564755D01*
X133575704Y-47566104D01*
X133702961Y-47603470D01*
X133720197Y-47611144D01*
X133905354Y-47650500D01*
X133905359Y-47650500D01*
X134094641Y-47650500D01*
X134094646Y-47650500D01*
X134279803Y-47611144D01*
X134297037Y-47603470D01*
X134433680Y-47564755D01*
X134575704Y-47566104D01*
X134702961Y-47603470D01*
X134720197Y-47611144D01*
X134905354Y-47650500D01*
X134905359Y-47650500D01*
X135094641Y-47650500D01*
X135094646Y-47650500D01*
X135279803Y-47611144D01*
X135297037Y-47603470D01*
X135433680Y-47564755D01*
X135575704Y-47566104D01*
X135702961Y-47603470D01*
X135720197Y-47611144D01*
X135720203Y-47611145D01*
X135720205Y-47611146D01*
X135747589Y-47616967D01*
X135880900Y-47665966D01*
X135995005Y-47750539D01*
X136080662Y-47863833D01*
X136118422Y-47950863D01*
X136165515Y-48095800D01*
X136189734Y-48235750D01*
X136173544Y-48376855D01*
X136165516Y-48404198D01*
X136114326Y-48561744D01*
X136094540Y-48750000D01*
X136101029Y-48811745D01*
X136114326Y-48938255D01*
X136114327Y-48938259D01*
X136172818Y-49118277D01*
X136172820Y-49118283D01*
X136213219Y-49188256D01*
X136267467Y-49282216D01*
X136394129Y-49422888D01*
X136394131Y-49422890D01*
X136547268Y-49534150D01*
X136547269Y-49534150D01*
X136547270Y-49534151D01*
X136720197Y-49611144D01*
X136905354Y-49650500D01*
X136905359Y-49650500D01*
X137094641Y-49650500D01*
X137094646Y-49650500D01*
X137279803Y-49611144D01*
X137452730Y-49534151D01*
X137605871Y-49422888D01*
X137732533Y-49282216D01*
X137827179Y-49118284D01*
X137885674Y-48938256D01*
X137905460Y-48750000D01*
X137885674Y-48561744D01*
X137834483Y-48404195D01*
X137810265Y-48264251D01*
X137826454Y-48123146D01*
X137834475Y-48095826D01*
X137885674Y-47938256D01*
X137905460Y-47750000D01*
X137885674Y-47561744D01*
X137834483Y-47404195D01*
X137810265Y-47264251D01*
X137826454Y-47123146D01*
X137834475Y-47095826D01*
X137885674Y-46938256D01*
X137905460Y-46750000D01*
X137885674Y-46561744D01*
X137827179Y-46381716D01*
X137732533Y-46217784D01*
X137605871Y-46077112D01*
X137605870Y-46077111D01*
X137605868Y-46077109D01*
X137452731Y-45965849D01*
X137343468Y-45917202D01*
X137279803Y-45888856D01*
X137279801Y-45888855D01*
X137279800Y-45888855D01*
X137279796Y-45888854D01*
X137094651Y-45849501D01*
X137094650Y-45849500D01*
X137094646Y-45849500D01*
X136905354Y-45849500D01*
X136905350Y-45849500D01*
X136905348Y-45849501D01*
X136720203Y-45888854D01*
X136720195Y-45888856D01*
X136702961Y-45896530D01*
X136566310Y-45935246D01*
X136424286Y-45933893D01*
X136297039Y-45896530D01*
X136279804Y-45888856D01*
X136279796Y-45888854D01*
X136094651Y-45849501D01*
X136094650Y-45849500D01*
X136094646Y-45849500D01*
X135905354Y-45849500D01*
X135905350Y-45849500D01*
X135905348Y-45849501D01*
X135720203Y-45888854D01*
X135720195Y-45888856D01*
X135702961Y-45896530D01*
X135566310Y-45935246D01*
X135424286Y-45933893D01*
X135297039Y-45896530D01*
X135279804Y-45888856D01*
X135279796Y-45888854D01*
X135094651Y-45849501D01*
X135094650Y-45849500D01*
X135094646Y-45849500D01*
X134905354Y-45849500D01*
X134905350Y-45849500D01*
X134905348Y-45849501D01*
X134720203Y-45888854D01*
X134720195Y-45888856D01*
X134702961Y-45896530D01*
X134566310Y-45935246D01*
X134424286Y-45933893D01*
X134297039Y-45896530D01*
X134279804Y-45888856D01*
X134279796Y-45888854D01*
X134094651Y-45849501D01*
X134094650Y-45849500D01*
X134094646Y-45849500D01*
X133905354Y-45849500D01*
X133905350Y-45849500D01*
X133905348Y-45849501D01*
X133720203Y-45888854D01*
X133720195Y-45888856D01*
X133702961Y-45896530D01*
X133566310Y-45935246D01*
X133424286Y-45933893D01*
X133297039Y-45896530D01*
X133279804Y-45888856D01*
X133279796Y-45888854D01*
X133094651Y-45849501D01*
X133094650Y-45849500D01*
X133094646Y-45849500D01*
X132905354Y-45849500D01*
X132905350Y-45849500D01*
X132905348Y-45849501D01*
X132720203Y-45888854D01*
X132720199Y-45888855D01*
X132547268Y-45965849D01*
X132394131Y-46077109D01*
X132267465Y-46217786D01*
X132172820Y-46381716D01*
X132172818Y-46381722D01*
X132114327Y-46561740D01*
X132114326Y-46561744D01*
X132094540Y-46750000D01*
X129759331Y-46750000D01*
X129735862Y-46714876D01*
X129735856Y-46714869D01*
X129636218Y-46615231D01*
X129636203Y-46615217D01*
X128198332Y-45177346D01*
X128113216Y-45063645D01*
X128063582Y-44930570D01*
X128053449Y-44788902D01*
X128083640Y-44650117D01*
X128151708Y-44525460D01*
X128252138Y-44425030D01*
X128376795Y-44356962D01*
X128515580Y-44326771D01*
X128551178Y-44325500D01*
X139597822Y-44325500D01*
X139738407Y-44345713D01*
G37*
G04 #@! TD.AperFunction*
G04 #@! TA.AperFunction,Conductor*
G36*
X116058731Y-45395713D02*
G01*
X116187926Y-45454714D01*
X116295265Y-45547724D01*
X116372052Y-45667208D01*
X116412067Y-45803485D01*
X116412067Y-45945515D01*
X116372052Y-46081792D01*
X116295265Y-46201276D01*
X116211451Y-46278200D01*
X116144129Y-46327111D01*
X116017465Y-46467786D01*
X115922820Y-46631716D01*
X115922818Y-46631722D01*
X115864327Y-46811740D01*
X115864326Y-46811744D01*
X115844540Y-47000000D01*
X115860484Y-47151705D01*
X115864326Y-47188255D01*
X115864327Y-47188259D01*
X115922818Y-47368277D01*
X115922820Y-47368283D01*
X115998867Y-47500000D01*
X116017467Y-47532216D01*
X116144129Y-47672888D01*
X116144131Y-47672890D01*
X116297268Y-47784150D01*
X116297269Y-47784150D01*
X116297270Y-47784151D01*
X116470197Y-47861144D01*
X116655354Y-47900500D01*
X116655359Y-47900500D01*
X116844641Y-47900500D01*
X116844646Y-47900500D01*
X117029803Y-47861144D01*
X117047037Y-47853470D01*
X117183680Y-47814755D01*
X117325704Y-47816104D01*
X117452961Y-47853470D01*
X117470197Y-47861144D01*
X117655354Y-47900500D01*
X117655359Y-47900500D01*
X117844641Y-47900500D01*
X117844646Y-47900500D01*
X118029803Y-47861144D01*
X118047037Y-47853470D01*
X118183680Y-47814755D01*
X118325704Y-47816104D01*
X118452961Y-47853470D01*
X118470197Y-47861144D01*
X118655354Y-47900500D01*
X118655359Y-47900500D01*
X118844641Y-47900500D01*
X118844646Y-47900500D01*
X119029803Y-47861144D01*
X119047037Y-47853470D01*
X119183680Y-47814755D01*
X119325704Y-47816104D01*
X119452961Y-47853470D01*
X119470197Y-47861144D01*
X119470203Y-47861145D01*
X119470205Y-47861146D01*
X119497589Y-47866967D01*
X119630900Y-47915966D01*
X119745005Y-48000539D01*
X119830662Y-48113833D01*
X119868422Y-48200863D01*
X119915515Y-48345800D01*
X119939734Y-48485750D01*
X119923544Y-48626855D01*
X119915516Y-48654198D01*
X119864326Y-48811744D01*
X119851029Y-48938256D01*
X119844540Y-49000000D01*
X119864326Y-49188255D01*
X119864327Y-49188259D01*
X119922818Y-49368277D01*
X119922820Y-49368283D01*
X120017465Y-49532213D01*
X120017467Y-49532216D01*
X120093450Y-49616603D01*
X120172498Y-49734603D01*
X120215100Y-49870093D01*
X120217804Y-50012098D01*
X120180392Y-50149112D01*
X120105894Y-50270036D01*
X120000345Y-50365073D01*
X119872296Y-50426523D01*
X119732122Y-50449410D01*
X119722621Y-50449500D01*
X114124500Y-50449500D01*
X113983915Y-50429287D01*
X113854720Y-50370286D01*
X113747381Y-50277276D01*
X113670594Y-50157792D01*
X113630579Y-50021515D01*
X113625500Y-49950500D01*
X113625500Y-47488827D01*
X113624911Y-47485869D01*
X113624909Y-47485857D01*
X113607580Y-47398733D01*
X113601463Y-47367980D01*
X113581932Y-47320829D01*
X113554312Y-47254147D01*
X113554311Y-47254145D01*
X113554311Y-47254144D01*
X113530769Y-47218912D01*
X113530766Y-47218908D01*
X113485863Y-47151705D01*
X113485856Y-47151697D01*
X113386218Y-47052059D01*
X113386203Y-47052045D01*
X112561504Y-46227346D01*
X112476388Y-46113645D01*
X112426754Y-45980570D01*
X112416621Y-45838902D01*
X112446812Y-45700117D01*
X112514880Y-45575460D01*
X112615310Y-45475030D01*
X112739967Y-45406962D01*
X112878752Y-45376771D01*
X112914350Y-45375500D01*
X115918146Y-45375500D01*
X116058731Y-45395713D01*
G37*
G04 #@! TD.AperFunction*
G04 #@! TA.AperFunction,Conductor*
G36*
X125924803Y-45395713D02*
G01*
X126053998Y-45454714D01*
X126137064Y-45521654D01*
X127728346Y-47112936D01*
X127813462Y-47226637D01*
X127863096Y-47359712D01*
X127874500Y-47465782D01*
X127874500Y-48523330D01*
X127854287Y-48663915D01*
X127795286Y-48793110D01*
X127779202Y-48816632D01*
X127767465Y-48832786D01*
X127672820Y-48996716D01*
X127672818Y-48996722D01*
X127614327Y-49176740D01*
X127614326Y-49176744D01*
X127594540Y-49365000D01*
X127614326Y-49553255D01*
X127614327Y-49553259D01*
X127672816Y-49733273D01*
X127679163Y-49747526D01*
X127717882Y-49884177D01*
X127716533Y-50026201D01*
X127675227Y-50162092D01*
X127597309Y-50280841D01*
X127489091Y-50372828D01*
X127359342Y-50430600D01*
X127223309Y-50449500D01*
X121777379Y-50449500D01*
X121636794Y-50429287D01*
X121507599Y-50370286D01*
X121400260Y-50277276D01*
X121323473Y-50157792D01*
X121283458Y-50021515D01*
X121283458Y-49879485D01*
X121323473Y-49743208D01*
X121400260Y-49623724D01*
X121406550Y-49616603D01*
X121482533Y-49532216D01*
X121577179Y-49368284D01*
X121635674Y-49188256D01*
X121655460Y-49000000D01*
X121635674Y-48811744D01*
X121584483Y-48654195D01*
X121560265Y-48514251D01*
X121576454Y-48373146D01*
X121584475Y-48345826D01*
X121635674Y-48188256D01*
X121655460Y-48000000D01*
X121635674Y-47811744D01*
X121584483Y-47654195D01*
X121560265Y-47514251D01*
X121576454Y-47373146D01*
X121584475Y-47345826D01*
X121635674Y-47188256D01*
X121655460Y-47000000D01*
X121635674Y-46811744D01*
X121577179Y-46631716D01*
X121482533Y-46467784D01*
X121355871Y-46327112D01*
X121288548Y-46278199D01*
X121186695Y-46179213D01*
X121116854Y-46055541D01*
X121084684Y-45917202D01*
X121092793Y-45775403D01*
X121140522Y-45641633D01*
X121224005Y-45526728D01*
X121336479Y-45439998D01*
X121468832Y-45388468D01*
X121581854Y-45375500D01*
X125784218Y-45375500D01*
X125924803Y-45395713D01*
G37*
G04 #@! TD.AperFunction*
G04 #@! TA.AperFunction,Conductor*
G36*
X106686513Y-30045713D02*
G01*
X106815708Y-30104714D01*
X106923047Y-30197724D01*
X106999834Y-30317208D01*
X107039849Y-30453485D01*
X107039849Y-30595515D01*
X107035345Y-30621818D01*
X107028310Y-30657191D01*
X107028212Y-30657686D01*
X107028211Y-30657693D01*
X107013739Y-30755255D01*
X107013736Y-30755278D01*
X107001746Y-30877026D01*
X106998114Y-30926261D01*
X106995711Y-30975163D01*
X106994500Y-31024527D01*
X106994500Y-40725482D01*
X106995710Y-40774819D01*
X106998110Y-40823695D01*
X107001739Y-40872901D01*
X107001743Y-40872939D01*
X107005956Y-40915715D01*
X107005963Y-40915778D01*
X107007524Y-40930513D01*
X107009190Y-40945195D01*
X107039351Y-41100520D01*
X107039354Y-41100532D01*
X107077313Y-41237388D01*
X107077319Y-41237405D01*
X107116761Y-41348214D01*
X107130380Y-41393030D01*
X107133112Y-41403817D01*
X107154923Y-41477874D01*
X107179341Y-41550383D01*
X107184922Y-41566505D01*
X107272137Y-41750291D01*
X107272143Y-41750303D01*
X107342833Y-41867059D01*
X107398353Y-41997788D01*
X107414794Y-42138864D01*
X107390823Y-42278856D01*
X107328383Y-42406425D01*
X107232532Y-42511235D01*
X107111035Y-42584795D01*
X106973735Y-42621146D01*
X106915973Y-42624500D01*
X106465782Y-42624500D01*
X106325197Y-42604287D01*
X106196002Y-42545286D01*
X106112936Y-42478346D01*
X102003294Y-38368704D01*
X102003286Y-38368695D01*
X101985858Y-38351267D01*
X101898733Y-38264142D01*
X101847509Y-38229915D01*
X101847505Y-38229912D01*
X101847505Y-38229911D01*
X101796292Y-38195691D01*
X101796288Y-38195689D01*
X101796286Y-38195688D01*
X101715792Y-38162347D01*
X101715791Y-38162346D01*
X101715787Y-38162345D01*
X101682452Y-38148537D01*
X101682450Y-38148536D01*
X101628561Y-38137817D01*
X101592471Y-38130639D01*
X101592469Y-38130638D01*
X101561610Y-38124500D01*
X101561607Y-38124500D01*
X101561606Y-38124500D01*
X92816455Y-38124500D01*
X92693241Y-38124500D01*
X92693237Y-38124500D01*
X92662372Y-38130640D01*
X92662371Y-38130639D01*
X92572404Y-38148535D01*
X92572400Y-38148536D01*
X92572396Y-38148537D01*
X92572390Y-38148539D01*
X92572385Y-38148541D01*
X92539055Y-38162345D01*
X92539056Y-38162346D01*
X92458571Y-38195683D01*
X92458557Y-38195691D01*
X92407339Y-38229913D01*
X92407338Y-38229915D01*
X92394402Y-38238558D01*
X92356118Y-38264139D01*
X92356109Y-38264147D01*
X92268990Y-38351267D01*
X92268987Y-38351270D01*
X89519726Y-41100532D01*
X86891912Y-43728346D01*
X86778211Y-43813462D01*
X86645136Y-43863096D01*
X86539066Y-43874500D01*
X84399500Y-43874500D01*
X84258915Y-43854287D01*
X84129720Y-43795286D01*
X84022381Y-43702276D01*
X83945594Y-43582792D01*
X83905579Y-43446515D01*
X83900500Y-43375500D01*
X83900500Y-42993378D01*
X83894086Y-42922805D01*
X83871796Y-42851270D01*
X83843478Y-42760394D01*
X83755472Y-42614815D01*
X83635185Y-42494528D01*
X83629997Y-42491392D01*
X83489604Y-42406521D01*
X83327194Y-42355913D01*
X83256622Y-42349500D01*
X83256616Y-42349500D01*
X82243384Y-42349500D01*
X82243378Y-42349500D01*
X82172805Y-42355913D01*
X82010396Y-42406520D01*
X81864816Y-42494527D01*
X81864808Y-42494533D01*
X81861119Y-42498223D01*
X81764425Y-42570604D01*
X81764887Y-42571296D01*
X81751984Y-42579917D01*
X81747416Y-42583337D01*
X81744545Y-42584887D01*
X81626600Y-42663695D01*
X81626601Y-42663696D01*
X81621591Y-42667043D01*
X81621580Y-42667052D01*
X81067049Y-43221582D01*
X81067048Y-43221584D01*
X81017813Y-43295270D01*
X81017812Y-43295272D01*
X80984915Y-43344505D01*
X80973362Y-43366121D01*
X80972200Y-43365499D01*
X80913041Y-43465206D01*
X80809090Y-43561988D01*
X80682082Y-43625563D01*
X80542309Y-43650780D01*
X80401092Y-43635597D01*
X80269874Y-43581244D01*
X80159283Y-43492124D01*
X80078281Y-43375457D01*
X80033428Y-43240695D01*
X80025500Y-43152098D01*
X80025500Y-30858210D01*
X80045713Y-30717625D01*
X80046985Y-30713364D01*
X80061852Y-30664352D01*
X80099289Y-30573970D01*
X80145364Y-30487770D01*
X80199706Y-30406441D01*
X80261717Y-30330880D01*
X80330880Y-30261717D01*
X80406441Y-30199706D01*
X80487769Y-30145365D01*
X80563821Y-30104714D01*
X80573973Y-30099287D01*
X80664348Y-30061853D01*
X80713370Y-30046982D01*
X80853769Y-30025520D01*
X80858210Y-30025500D01*
X106545928Y-30025500D01*
X106686513Y-30045713D01*
G37*
G04 #@! TD.AperFunction*
M02*
