G04 #@! TF.GenerationSoftware,KiCad,Pcbnew,9.0.0*
G04 #@! TF.CreationDate,2025-03-23T13:51:46-04:00*
G04 #@! TF.ProjectId,three_half_bridges,74687265-655f-4686-916c-665f62726964,rev?*
G04 #@! TF.SameCoordinates,Original*
G04 #@! TF.FileFunction,Legend,Bot*
G04 #@! TF.FilePolarity,Positive*
%FSLAX46Y46*%
G04 Gerber Fmt 4.6, Leading zero omitted, Abs format (unit mm)*
G04 Created by KiCad (PCBNEW 9.0.0) date 2025-03-23 13:51:46*
%MOMM*%
%LPD*%
G01*
G04 APERTURE LIST*
%ADD10C,0.120000*%
%ADD11C,0.500000*%
%ADD12C,0.150000*%
%ADD13C,0.153000*%
G04 APERTURE END LIST*
D10*
X195000000Y-120000000D02*
X195000000Y-40000000D01*
X195000000Y-40000000D02*
X115000000Y-40000000D01*
X119500000Y-120000000D02*
X195000000Y-120000000D01*
D11*
X148850761Y-38952381D02*
X148850761Y-38571428D01*
X148850761Y-38571428D02*
X148755523Y-38380952D01*
X148755523Y-38380952D02*
X148565047Y-38190476D01*
X148565047Y-38190476D02*
X148184095Y-38095238D01*
X148184095Y-38095238D02*
X147517428Y-38095238D01*
X147517428Y-38095238D02*
X147136476Y-38190476D01*
X147136476Y-38190476D02*
X146946000Y-38380952D01*
X146946000Y-38380952D02*
X146850761Y-38571428D01*
X146850761Y-38571428D02*
X146850761Y-38952381D01*
X146850761Y-38952381D02*
X146946000Y-39142857D01*
X146946000Y-39142857D02*
X147136476Y-39333333D01*
X147136476Y-39333333D02*
X147517428Y-39428571D01*
X147517428Y-39428571D02*
X148184095Y-39428571D01*
X148184095Y-39428571D02*
X148565047Y-39333333D01*
X148565047Y-39333333D02*
X148755523Y-39142857D01*
X148755523Y-39142857D02*
X148850761Y-38952381D01*
X148850761Y-37238095D02*
X147231714Y-37238095D01*
X147231714Y-37238095D02*
X147041238Y-37142857D01*
X147041238Y-37142857D02*
X146946000Y-37047619D01*
X146946000Y-37047619D02*
X146850761Y-36857143D01*
X146850761Y-36857143D02*
X146850761Y-36476190D01*
X146850761Y-36476190D02*
X146946000Y-36285714D01*
X146946000Y-36285714D02*
X147041238Y-36190476D01*
X147041238Y-36190476D02*
X147231714Y-36095238D01*
X147231714Y-36095238D02*
X148850761Y-36095238D01*
X148850761Y-35428571D02*
X148850761Y-34285714D01*
X146850761Y-34857143D02*
X148850761Y-34857143D01*
X148660285Y-33714285D02*
X148755523Y-33619047D01*
X148755523Y-33619047D02*
X148850761Y-33428571D01*
X148850761Y-33428571D02*
X148850761Y-32952380D01*
X148850761Y-32952380D02*
X148755523Y-32761904D01*
X148755523Y-32761904D02*
X148660285Y-32666666D01*
X148660285Y-32666666D02*
X148469809Y-32571428D01*
X148469809Y-32571428D02*
X148279333Y-32571428D01*
X148279333Y-32571428D02*
X147993619Y-32666666D01*
X147993619Y-32666666D02*
X146850761Y-33809523D01*
X146850761Y-33809523D02*
X146850761Y-32571428D01*
X132400761Y-38952381D02*
X132400761Y-38571428D01*
X132400761Y-38571428D02*
X132305523Y-38380952D01*
X132305523Y-38380952D02*
X132115047Y-38190476D01*
X132115047Y-38190476D02*
X131734095Y-38095238D01*
X131734095Y-38095238D02*
X131067428Y-38095238D01*
X131067428Y-38095238D02*
X130686476Y-38190476D01*
X130686476Y-38190476D02*
X130496000Y-38380952D01*
X130496000Y-38380952D02*
X130400761Y-38571428D01*
X130400761Y-38571428D02*
X130400761Y-38952381D01*
X130400761Y-38952381D02*
X130496000Y-39142857D01*
X130496000Y-39142857D02*
X130686476Y-39333333D01*
X130686476Y-39333333D02*
X131067428Y-39428571D01*
X131067428Y-39428571D02*
X131734095Y-39428571D01*
X131734095Y-39428571D02*
X132115047Y-39333333D01*
X132115047Y-39333333D02*
X132305523Y-39142857D01*
X132305523Y-39142857D02*
X132400761Y-38952381D01*
X132400761Y-37238095D02*
X130781714Y-37238095D01*
X130781714Y-37238095D02*
X130591238Y-37142857D01*
X130591238Y-37142857D02*
X130496000Y-37047619D01*
X130496000Y-37047619D02*
X130400761Y-36857143D01*
X130400761Y-36857143D02*
X130400761Y-36476190D01*
X130400761Y-36476190D02*
X130496000Y-36285714D01*
X130496000Y-36285714D02*
X130591238Y-36190476D01*
X130591238Y-36190476D02*
X130781714Y-36095238D01*
X130781714Y-36095238D02*
X132400761Y-36095238D01*
X132400761Y-35428571D02*
X132400761Y-34285714D01*
X130400761Y-34857143D02*
X132400761Y-34857143D01*
X130400761Y-32571428D02*
X130400761Y-33714285D01*
X130400761Y-33142857D02*
X132400761Y-33142857D01*
X132400761Y-33142857D02*
X132115047Y-33333333D01*
X132115047Y-33333333D02*
X131924571Y-33523809D01*
X131924571Y-33523809D02*
X131829333Y-33714285D01*
X165350761Y-38952381D02*
X165350761Y-38571428D01*
X165350761Y-38571428D02*
X165255523Y-38380952D01*
X165255523Y-38380952D02*
X165065047Y-38190476D01*
X165065047Y-38190476D02*
X164684095Y-38095238D01*
X164684095Y-38095238D02*
X164017428Y-38095238D01*
X164017428Y-38095238D02*
X163636476Y-38190476D01*
X163636476Y-38190476D02*
X163446000Y-38380952D01*
X163446000Y-38380952D02*
X163350761Y-38571428D01*
X163350761Y-38571428D02*
X163350761Y-38952381D01*
X163350761Y-38952381D02*
X163446000Y-39142857D01*
X163446000Y-39142857D02*
X163636476Y-39333333D01*
X163636476Y-39333333D02*
X164017428Y-39428571D01*
X164017428Y-39428571D02*
X164684095Y-39428571D01*
X164684095Y-39428571D02*
X165065047Y-39333333D01*
X165065047Y-39333333D02*
X165255523Y-39142857D01*
X165255523Y-39142857D02*
X165350761Y-38952381D01*
X165350761Y-37238095D02*
X163731714Y-37238095D01*
X163731714Y-37238095D02*
X163541238Y-37142857D01*
X163541238Y-37142857D02*
X163446000Y-37047619D01*
X163446000Y-37047619D02*
X163350761Y-36857143D01*
X163350761Y-36857143D02*
X163350761Y-36476190D01*
X163350761Y-36476190D02*
X163446000Y-36285714D01*
X163446000Y-36285714D02*
X163541238Y-36190476D01*
X163541238Y-36190476D02*
X163731714Y-36095238D01*
X163731714Y-36095238D02*
X165350761Y-36095238D01*
X165350761Y-35428571D02*
X165350761Y-34285714D01*
X163350761Y-34857143D02*
X165350761Y-34857143D01*
X165350761Y-33809523D02*
X165350761Y-32571428D01*
X165350761Y-32571428D02*
X164588857Y-33238095D01*
X164588857Y-33238095D02*
X164588857Y-32952380D01*
X164588857Y-32952380D02*
X164493619Y-32761904D01*
X164493619Y-32761904D02*
X164398380Y-32666666D01*
X164398380Y-32666666D02*
X164207904Y-32571428D01*
X164207904Y-32571428D02*
X163731714Y-32571428D01*
X163731714Y-32571428D02*
X163541238Y-32666666D01*
X163541238Y-32666666D02*
X163446000Y-32761904D01*
X163446000Y-32761904D02*
X163350761Y-32952380D01*
X163350761Y-32952380D02*
X163350761Y-33523809D01*
X163350761Y-33523809D02*
X163446000Y-33714285D01*
X163446000Y-33714285D02*
X163541238Y-33809523D01*
D12*
X159704819Y-120738095D02*
X160514342Y-120738095D01*
X160514342Y-120738095D02*
X160609580Y-120785714D01*
X160609580Y-120785714D02*
X160657200Y-120833333D01*
X160657200Y-120833333D02*
X160704819Y-120928571D01*
X160704819Y-120928571D02*
X160704819Y-121119047D01*
X160704819Y-121119047D02*
X160657200Y-121214285D01*
X160657200Y-121214285D02*
X160609580Y-121261904D01*
X160609580Y-121261904D02*
X160514342Y-121309523D01*
X160514342Y-121309523D02*
X159704819Y-121309523D01*
X159704819Y-121690476D02*
X159704819Y-122357142D01*
X159704819Y-122357142D02*
X160704819Y-121928571D01*
X154354819Y-123988095D02*
X155164342Y-123988095D01*
X155164342Y-123988095D02*
X155259580Y-124035714D01*
X155259580Y-124035714D02*
X155307200Y-124083333D01*
X155307200Y-124083333D02*
X155354819Y-124178571D01*
X155354819Y-124178571D02*
X155354819Y-124369047D01*
X155354819Y-124369047D02*
X155307200Y-124464285D01*
X155307200Y-124464285D02*
X155259580Y-124511904D01*
X155259580Y-124511904D02*
X155164342Y-124559523D01*
X155164342Y-124559523D02*
X154354819Y-124559523D01*
X154783390Y-125178571D02*
X154735771Y-125083333D01*
X154735771Y-125083333D02*
X154688152Y-125035714D01*
X154688152Y-125035714D02*
X154592914Y-124988095D01*
X154592914Y-124988095D02*
X154545295Y-124988095D01*
X154545295Y-124988095D02*
X154450057Y-125035714D01*
X154450057Y-125035714D02*
X154402438Y-125083333D01*
X154402438Y-125083333D02*
X154354819Y-125178571D01*
X154354819Y-125178571D02*
X154354819Y-125369047D01*
X154354819Y-125369047D02*
X154402438Y-125464285D01*
X154402438Y-125464285D02*
X154450057Y-125511904D01*
X154450057Y-125511904D02*
X154545295Y-125559523D01*
X154545295Y-125559523D02*
X154592914Y-125559523D01*
X154592914Y-125559523D02*
X154688152Y-125511904D01*
X154688152Y-125511904D02*
X154735771Y-125464285D01*
X154735771Y-125464285D02*
X154783390Y-125369047D01*
X154783390Y-125369047D02*
X154783390Y-125178571D01*
X154783390Y-125178571D02*
X154831009Y-125083333D01*
X154831009Y-125083333D02*
X154878628Y-125035714D01*
X154878628Y-125035714D02*
X154973866Y-124988095D01*
X154973866Y-124988095D02*
X155164342Y-124988095D01*
X155164342Y-124988095D02*
X155259580Y-125035714D01*
X155259580Y-125035714D02*
X155307200Y-125083333D01*
X155307200Y-125083333D02*
X155354819Y-125178571D01*
X155354819Y-125178571D02*
X155354819Y-125369047D01*
X155354819Y-125369047D02*
X155307200Y-125464285D01*
X155307200Y-125464285D02*
X155259580Y-125511904D01*
X155259580Y-125511904D02*
X155164342Y-125559523D01*
X155164342Y-125559523D02*
X154973866Y-125559523D01*
X154973866Y-125559523D02*
X154878628Y-125511904D01*
X154878628Y-125511904D02*
X154831009Y-125464285D01*
X154831009Y-125464285D02*
X154783390Y-125369047D01*
X135584523Y-115629819D02*
X135584523Y-116344104D01*
X135584523Y-116344104D02*
X135632142Y-116486961D01*
X135632142Y-116486961D02*
X135727380Y-116582200D01*
X135727380Y-116582200D02*
X135870237Y-116629819D01*
X135870237Y-116629819D02*
X135965475Y-116629819D01*
X134584523Y-116629819D02*
X135155951Y-116629819D01*
X134870237Y-116629819D02*
X134870237Y-115629819D01*
X134870237Y-115629819D02*
X134965475Y-115772676D01*
X134965475Y-115772676D02*
X135060713Y-115867914D01*
X135060713Y-115867914D02*
X135155951Y-115915533D01*
X133965475Y-115629819D02*
X133870237Y-115629819D01*
X133870237Y-115629819D02*
X133774999Y-115677438D01*
X133774999Y-115677438D02*
X133727380Y-115725057D01*
X133727380Y-115725057D02*
X133679761Y-115820295D01*
X133679761Y-115820295D02*
X133632142Y-116010771D01*
X133632142Y-116010771D02*
X133632142Y-116248866D01*
X133632142Y-116248866D02*
X133679761Y-116439342D01*
X133679761Y-116439342D02*
X133727380Y-116534580D01*
X133727380Y-116534580D02*
X133774999Y-116582200D01*
X133774999Y-116582200D02*
X133870237Y-116629819D01*
X133870237Y-116629819D02*
X133965475Y-116629819D01*
X133965475Y-116629819D02*
X134060713Y-116582200D01*
X134060713Y-116582200D02*
X134108332Y-116534580D01*
X134108332Y-116534580D02*
X134155951Y-116439342D01*
X134155951Y-116439342D02*
X134203570Y-116248866D01*
X134203570Y-116248866D02*
X134203570Y-116010771D01*
X134203570Y-116010771D02*
X134155951Y-115820295D01*
X134155951Y-115820295D02*
X134108332Y-115725057D01*
X134108332Y-115725057D02*
X134060713Y-115677438D01*
X134060713Y-115677438D02*
X133965475Y-115629819D01*
X173609580Y-120287142D02*
X173657200Y-120239523D01*
X173657200Y-120239523D02*
X173704819Y-120096666D01*
X173704819Y-120096666D02*
X173704819Y-120001428D01*
X173704819Y-120001428D02*
X173657200Y-119858571D01*
X173657200Y-119858571D02*
X173561961Y-119763333D01*
X173561961Y-119763333D02*
X173466723Y-119715714D01*
X173466723Y-119715714D02*
X173276247Y-119668095D01*
X173276247Y-119668095D02*
X173133390Y-119668095D01*
X173133390Y-119668095D02*
X172942914Y-119715714D01*
X172942914Y-119715714D02*
X172847676Y-119763333D01*
X172847676Y-119763333D02*
X172752438Y-119858571D01*
X172752438Y-119858571D02*
X172704819Y-120001428D01*
X172704819Y-120001428D02*
X172704819Y-120096666D01*
X172704819Y-120096666D02*
X172752438Y-120239523D01*
X172752438Y-120239523D02*
X172800057Y-120287142D01*
X172704819Y-121191904D02*
X172704819Y-120715714D01*
X172704819Y-120715714D02*
X173181009Y-120668095D01*
X173181009Y-120668095D02*
X173133390Y-120715714D01*
X173133390Y-120715714D02*
X173085771Y-120810952D01*
X173085771Y-120810952D02*
X173085771Y-121049047D01*
X173085771Y-121049047D02*
X173133390Y-121144285D01*
X173133390Y-121144285D02*
X173181009Y-121191904D01*
X173181009Y-121191904D02*
X173276247Y-121239523D01*
X173276247Y-121239523D02*
X173514342Y-121239523D01*
X173514342Y-121239523D02*
X173609580Y-121191904D01*
X173609580Y-121191904D02*
X173657200Y-121144285D01*
X173657200Y-121144285D02*
X173704819Y-121049047D01*
X173704819Y-121049047D02*
X173704819Y-120810952D01*
X173704819Y-120810952D02*
X173657200Y-120715714D01*
X173657200Y-120715714D02*
X173609580Y-120668095D01*
X172704819Y-121858571D02*
X172704819Y-121953809D01*
X172704819Y-121953809D02*
X172752438Y-122049047D01*
X172752438Y-122049047D02*
X172800057Y-122096666D01*
X172800057Y-122096666D02*
X172895295Y-122144285D01*
X172895295Y-122144285D02*
X173085771Y-122191904D01*
X173085771Y-122191904D02*
X173323866Y-122191904D01*
X173323866Y-122191904D02*
X173514342Y-122144285D01*
X173514342Y-122144285D02*
X173609580Y-122096666D01*
X173609580Y-122096666D02*
X173657200Y-122049047D01*
X173657200Y-122049047D02*
X173704819Y-121953809D01*
X173704819Y-121953809D02*
X173704819Y-121858571D01*
X173704819Y-121858571D02*
X173657200Y-121763333D01*
X173657200Y-121763333D02*
X173609580Y-121715714D01*
X173609580Y-121715714D02*
X173514342Y-121668095D01*
X173514342Y-121668095D02*
X173323866Y-121620476D01*
X173323866Y-121620476D02*
X173085771Y-121620476D01*
X173085771Y-121620476D02*
X172895295Y-121668095D01*
X172895295Y-121668095D02*
X172800057Y-121715714D01*
X172800057Y-121715714D02*
X172752438Y-121763333D01*
X172752438Y-121763333D02*
X172704819Y-121858571D01*
X110469523Y-106374819D02*
X110469523Y-105374819D01*
X110469523Y-105374819D02*
X110136190Y-106089104D01*
X110136190Y-106089104D02*
X109802857Y-105374819D01*
X109802857Y-105374819D02*
X109802857Y-106374819D01*
X108802857Y-106374819D02*
X109374285Y-106374819D01*
X109088571Y-106374819D02*
X109088571Y-105374819D01*
X109088571Y-105374819D02*
X109183809Y-105517676D01*
X109183809Y-105517676D02*
X109279047Y-105612914D01*
X109279047Y-105612914D02*
X109374285Y-105660533D01*
X150429580Y-120357142D02*
X150477200Y-120309523D01*
X150477200Y-120309523D02*
X150524819Y-120166666D01*
X150524819Y-120166666D02*
X150524819Y-120071428D01*
X150524819Y-120071428D02*
X150477200Y-119928571D01*
X150477200Y-119928571D02*
X150381961Y-119833333D01*
X150381961Y-119833333D02*
X150286723Y-119785714D01*
X150286723Y-119785714D02*
X150096247Y-119738095D01*
X150096247Y-119738095D02*
X149953390Y-119738095D01*
X149953390Y-119738095D02*
X149762914Y-119785714D01*
X149762914Y-119785714D02*
X149667676Y-119833333D01*
X149667676Y-119833333D02*
X149572438Y-119928571D01*
X149572438Y-119928571D02*
X149524819Y-120071428D01*
X149524819Y-120071428D02*
X149524819Y-120166666D01*
X149524819Y-120166666D02*
X149572438Y-120309523D01*
X149572438Y-120309523D02*
X149620057Y-120357142D01*
X149620057Y-120738095D02*
X149572438Y-120785714D01*
X149572438Y-120785714D02*
X149524819Y-120880952D01*
X149524819Y-120880952D02*
X149524819Y-121119047D01*
X149524819Y-121119047D02*
X149572438Y-121214285D01*
X149572438Y-121214285D02*
X149620057Y-121261904D01*
X149620057Y-121261904D02*
X149715295Y-121309523D01*
X149715295Y-121309523D02*
X149810533Y-121309523D01*
X149810533Y-121309523D02*
X149953390Y-121261904D01*
X149953390Y-121261904D02*
X150524819Y-120690476D01*
X150524819Y-120690476D02*
X150524819Y-121309523D01*
X149524819Y-122214285D02*
X149524819Y-121738095D01*
X149524819Y-121738095D02*
X150001009Y-121690476D01*
X150001009Y-121690476D02*
X149953390Y-121738095D01*
X149953390Y-121738095D02*
X149905771Y-121833333D01*
X149905771Y-121833333D02*
X149905771Y-122071428D01*
X149905771Y-122071428D02*
X149953390Y-122166666D01*
X149953390Y-122166666D02*
X150001009Y-122214285D01*
X150001009Y-122214285D02*
X150096247Y-122261904D01*
X150096247Y-122261904D02*
X150334342Y-122261904D01*
X150334342Y-122261904D02*
X150429580Y-122214285D01*
X150429580Y-122214285D02*
X150477200Y-122166666D01*
X150477200Y-122166666D02*
X150524819Y-122071428D01*
X150524819Y-122071428D02*
X150524819Y-121833333D01*
X150524819Y-121833333D02*
X150477200Y-121738095D01*
X150477200Y-121738095D02*
X150429580Y-121690476D01*
X156345238Y-112550057D02*
X156440476Y-112502438D01*
X156440476Y-112502438D02*
X156535714Y-112407200D01*
X156535714Y-112407200D02*
X156678571Y-112264342D01*
X156678571Y-112264342D02*
X156773809Y-112216723D01*
X156773809Y-112216723D02*
X156869047Y-112216723D01*
X156821428Y-112454819D02*
X156916666Y-112407200D01*
X156916666Y-112407200D02*
X157011904Y-112311961D01*
X157011904Y-112311961D02*
X157059523Y-112121485D01*
X157059523Y-112121485D02*
X157059523Y-111788152D01*
X157059523Y-111788152D02*
X157011904Y-111597676D01*
X157011904Y-111597676D02*
X156916666Y-111502438D01*
X156916666Y-111502438D02*
X156821428Y-111454819D01*
X156821428Y-111454819D02*
X156630952Y-111454819D01*
X156630952Y-111454819D02*
X156535714Y-111502438D01*
X156535714Y-111502438D02*
X156440476Y-111597676D01*
X156440476Y-111597676D02*
X156392857Y-111788152D01*
X156392857Y-111788152D02*
X156392857Y-112121485D01*
X156392857Y-112121485D02*
X156440476Y-112311961D01*
X156440476Y-112311961D02*
X156535714Y-112407200D01*
X156535714Y-112407200D02*
X156630952Y-112454819D01*
X156630952Y-112454819D02*
X156821428Y-112454819D01*
X155535714Y-111788152D02*
X155535714Y-112454819D01*
X155773809Y-111407200D02*
X156011904Y-112121485D01*
X156011904Y-112121485D02*
X155392857Y-112121485D01*
X155045238Y-48400057D02*
X155140476Y-48352438D01*
X155140476Y-48352438D02*
X155235714Y-48257200D01*
X155235714Y-48257200D02*
X155378571Y-48114342D01*
X155378571Y-48114342D02*
X155473809Y-48066723D01*
X155473809Y-48066723D02*
X155569047Y-48066723D01*
X155521428Y-48304819D02*
X155616666Y-48257200D01*
X155616666Y-48257200D02*
X155711904Y-48161961D01*
X155711904Y-48161961D02*
X155759523Y-47971485D01*
X155759523Y-47971485D02*
X155759523Y-47638152D01*
X155759523Y-47638152D02*
X155711904Y-47447676D01*
X155711904Y-47447676D02*
X155616666Y-47352438D01*
X155616666Y-47352438D02*
X155521428Y-47304819D01*
X155521428Y-47304819D02*
X155330952Y-47304819D01*
X155330952Y-47304819D02*
X155235714Y-47352438D01*
X155235714Y-47352438D02*
X155140476Y-47447676D01*
X155140476Y-47447676D02*
X155092857Y-47638152D01*
X155092857Y-47638152D02*
X155092857Y-47971485D01*
X155092857Y-47971485D02*
X155140476Y-48161961D01*
X155140476Y-48161961D02*
X155235714Y-48257200D01*
X155235714Y-48257200D02*
X155330952Y-48304819D01*
X155330952Y-48304819D02*
X155521428Y-48304819D01*
X154759523Y-47304819D02*
X154140476Y-47304819D01*
X154140476Y-47304819D02*
X154473809Y-47685771D01*
X154473809Y-47685771D02*
X154330952Y-47685771D01*
X154330952Y-47685771D02*
X154235714Y-47733390D01*
X154235714Y-47733390D02*
X154188095Y-47781009D01*
X154188095Y-47781009D02*
X154140476Y-47876247D01*
X154140476Y-47876247D02*
X154140476Y-48114342D01*
X154140476Y-48114342D02*
X154188095Y-48209580D01*
X154188095Y-48209580D02*
X154235714Y-48257200D01*
X154235714Y-48257200D02*
X154330952Y-48304819D01*
X154330952Y-48304819D02*
X154616666Y-48304819D01*
X154616666Y-48304819D02*
X154711904Y-48257200D01*
X154711904Y-48257200D02*
X154759523Y-48209580D01*
X182642857Y-76609580D02*
X182690476Y-76657200D01*
X182690476Y-76657200D02*
X182833333Y-76704819D01*
X182833333Y-76704819D02*
X182928571Y-76704819D01*
X182928571Y-76704819D02*
X183071428Y-76657200D01*
X183071428Y-76657200D02*
X183166666Y-76561961D01*
X183166666Y-76561961D02*
X183214285Y-76466723D01*
X183214285Y-76466723D02*
X183261904Y-76276247D01*
X183261904Y-76276247D02*
X183261904Y-76133390D01*
X183261904Y-76133390D02*
X183214285Y-75942914D01*
X183214285Y-75942914D02*
X183166666Y-75847676D01*
X183166666Y-75847676D02*
X183071428Y-75752438D01*
X183071428Y-75752438D02*
X182928571Y-75704819D01*
X182928571Y-75704819D02*
X182833333Y-75704819D01*
X182833333Y-75704819D02*
X182690476Y-75752438D01*
X182690476Y-75752438D02*
X182642857Y-75800057D01*
X182261904Y-75800057D02*
X182214285Y-75752438D01*
X182214285Y-75752438D02*
X182119047Y-75704819D01*
X182119047Y-75704819D02*
X181880952Y-75704819D01*
X181880952Y-75704819D02*
X181785714Y-75752438D01*
X181785714Y-75752438D02*
X181738095Y-75800057D01*
X181738095Y-75800057D02*
X181690476Y-75895295D01*
X181690476Y-75895295D02*
X181690476Y-75990533D01*
X181690476Y-75990533D02*
X181738095Y-76133390D01*
X181738095Y-76133390D02*
X182309523Y-76704819D01*
X182309523Y-76704819D02*
X181690476Y-76704819D01*
X181309523Y-75800057D02*
X181261904Y-75752438D01*
X181261904Y-75752438D02*
X181166666Y-75704819D01*
X181166666Y-75704819D02*
X180928571Y-75704819D01*
X180928571Y-75704819D02*
X180833333Y-75752438D01*
X180833333Y-75752438D02*
X180785714Y-75800057D01*
X180785714Y-75800057D02*
X180738095Y-75895295D01*
X180738095Y-75895295D02*
X180738095Y-75990533D01*
X180738095Y-75990533D02*
X180785714Y-76133390D01*
X180785714Y-76133390D02*
X181357142Y-76704819D01*
X181357142Y-76704819D02*
X180738095Y-76704819D01*
X158179580Y-120357142D02*
X158227200Y-120309523D01*
X158227200Y-120309523D02*
X158274819Y-120166666D01*
X158274819Y-120166666D02*
X158274819Y-120071428D01*
X158274819Y-120071428D02*
X158227200Y-119928571D01*
X158227200Y-119928571D02*
X158131961Y-119833333D01*
X158131961Y-119833333D02*
X158036723Y-119785714D01*
X158036723Y-119785714D02*
X157846247Y-119738095D01*
X157846247Y-119738095D02*
X157703390Y-119738095D01*
X157703390Y-119738095D02*
X157512914Y-119785714D01*
X157512914Y-119785714D02*
X157417676Y-119833333D01*
X157417676Y-119833333D02*
X157322438Y-119928571D01*
X157322438Y-119928571D02*
X157274819Y-120071428D01*
X157274819Y-120071428D02*
X157274819Y-120166666D01*
X157274819Y-120166666D02*
X157322438Y-120309523D01*
X157322438Y-120309523D02*
X157370057Y-120357142D01*
X157274819Y-121261904D02*
X157274819Y-120785714D01*
X157274819Y-120785714D02*
X157751009Y-120738095D01*
X157751009Y-120738095D02*
X157703390Y-120785714D01*
X157703390Y-120785714D02*
X157655771Y-120880952D01*
X157655771Y-120880952D02*
X157655771Y-121119047D01*
X157655771Y-121119047D02*
X157703390Y-121214285D01*
X157703390Y-121214285D02*
X157751009Y-121261904D01*
X157751009Y-121261904D02*
X157846247Y-121309523D01*
X157846247Y-121309523D02*
X158084342Y-121309523D01*
X158084342Y-121309523D02*
X158179580Y-121261904D01*
X158179580Y-121261904D02*
X158227200Y-121214285D01*
X158227200Y-121214285D02*
X158274819Y-121119047D01*
X158274819Y-121119047D02*
X158274819Y-120880952D01*
X158274819Y-120880952D02*
X158227200Y-120785714D01*
X158227200Y-120785714D02*
X158179580Y-120738095D01*
X157274819Y-121642857D02*
X157274819Y-122261904D01*
X157274819Y-122261904D02*
X157655771Y-121928571D01*
X157655771Y-121928571D02*
X157655771Y-122071428D01*
X157655771Y-122071428D02*
X157703390Y-122166666D01*
X157703390Y-122166666D02*
X157751009Y-122214285D01*
X157751009Y-122214285D02*
X157846247Y-122261904D01*
X157846247Y-122261904D02*
X158084342Y-122261904D01*
X158084342Y-122261904D02*
X158179580Y-122214285D01*
X158179580Y-122214285D02*
X158227200Y-122166666D01*
X158227200Y-122166666D02*
X158274819Y-122071428D01*
X158274819Y-122071428D02*
X158274819Y-121785714D01*
X158274819Y-121785714D02*
X158227200Y-121690476D01*
X158227200Y-121690476D02*
X158179580Y-121642857D01*
X138545238Y-48400057D02*
X138640476Y-48352438D01*
X138640476Y-48352438D02*
X138735714Y-48257200D01*
X138735714Y-48257200D02*
X138878571Y-48114342D01*
X138878571Y-48114342D02*
X138973809Y-48066723D01*
X138973809Y-48066723D02*
X139069047Y-48066723D01*
X139021428Y-48304819D02*
X139116666Y-48257200D01*
X139116666Y-48257200D02*
X139211904Y-48161961D01*
X139211904Y-48161961D02*
X139259523Y-47971485D01*
X139259523Y-47971485D02*
X139259523Y-47638152D01*
X139259523Y-47638152D02*
X139211904Y-47447676D01*
X139211904Y-47447676D02*
X139116666Y-47352438D01*
X139116666Y-47352438D02*
X139021428Y-47304819D01*
X139021428Y-47304819D02*
X138830952Y-47304819D01*
X138830952Y-47304819D02*
X138735714Y-47352438D01*
X138735714Y-47352438D02*
X138640476Y-47447676D01*
X138640476Y-47447676D02*
X138592857Y-47638152D01*
X138592857Y-47638152D02*
X138592857Y-47971485D01*
X138592857Y-47971485D02*
X138640476Y-48161961D01*
X138640476Y-48161961D02*
X138735714Y-48257200D01*
X138735714Y-48257200D02*
X138830952Y-48304819D01*
X138830952Y-48304819D02*
X139021428Y-48304819D01*
X138259523Y-47304819D02*
X137592857Y-47304819D01*
X137592857Y-47304819D02*
X138021428Y-48304819D01*
X138392857Y-80359580D02*
X138440476Y-80407200D01*
X138440476Y-80407200D02*
X138583333Y-80454819D01*
X138583333Y-80454819D02*
X138678571Y-80454819D01*
X138678571Y-80454819D02*
X138821428Y-80407200D01*
X138821428Y-80407200D02*
X138916666Y-80311961D01*
X138916666Y-80311961D02*
X138964285Y-80216723D01*
X138964285Y-80216723D02*
X139011904Y-80026247D01*
X139011904Y-80026247D02*
X139011904Y-79883390D01*
X139011904Y-79883390D02*
X138964285Y-79692914D01*
X138964285Y-79692914D02*
X138916666Y-79597676D01*
X138916666Y-79597676D02*
X138821428Y-79502438D01*
X138821428Y-79502438D02*
X138678571Y-79454819D01*
X138678571Y-79454819D02*
X138583333Y-79454819D01*
X138583333Y-79454819D02*
X138440476Y-79502438D01*
X138440476Y-79502438D02*
X138392857Y-79550057D01*
X138059523Y-79454819D02*
X137440476Y-79454819D01*
X137440476Y-79454819D02*
X137773809Y-79835771D01*
X137773809Y-79835771D02*
X137630952Y-79835771D01*
X137630952Y-79835771D02*
X137535714Y-79883390D01*
X137535714Y-79883390D02*
X137488095Y-79931009D01*
X137488095Y-79931009D02*
X137440476Y-80026247D01*
X137440476Y-80026247D02*
X137440476Y-80264342D01*
X137440476Y-80264342D02*
X137488095Y-80359580D01*
X137488095Y-80359580D02*
X137535714Y-80407200D01*
X137535714Y-80407200D02*
X137630952Y-80454819D01*
X137630952Y-80454819D02*
X137916666Y-80454819D01*
X137916666Y-80454819D02*
X138011904Y-80407200D01*
X138011904Y-80407200D02*
X138059523Y-80359580D01*
X136583333Y-79454819D02*
X136773809Y-79454819D01*
X136773809Y-79454819D02*
X136869047Y-79502438D01*
X136869047Y-79502438D02*
X136916666Y-79550057D01*
X136916666Y-79550057D02*
X137011904Y-79692914D01*
X137011904Y-79692914D02*
X137059523Y-79883390D01*
X137059523Y-79883390D02*
X137059523Y-80264342D01*
X137059523Y-80264342D02*
X137011904Y-80359580D01*
X137011904Y-80359580D02*
X136964285Y-80407200D01*
X136964285Y-80407200D02*
X136869047Y-80454819D01*
X136869047Y-80454819D02*
X136678571Y-80454819D01*
X136678571Y-80454819D02*
X136583333Y-80407200D01*
X136583333Y-80407200D02*
X136535714Y-80359580D01*
X136535714Y-80359580D02*
X136488095Y-80264342D01*
X136488095Y-80264342D02*
X136488095Y-80026247D01*
X136488095Y-80026247D02*
X136535714Y-79931009D01*
X136535714Y-79931009D02*
X136583333Y-79883390D01*
X136583333Y-79883390D02*
X136678571Y-79835771D01*
X136678571Y-79835771D02*
X136869047Y-79835771D01*
X136869047Y-79835771D02*
X136964285Y-79883390D01*
X136964285Y-79883390D02*
X137011904Y-79931009D01*
X137011904Y-79931009D02*
X137059523Y-80026247D01*
X154642857Y-80359580D02*
X154690476Y-80407200D01*
X154690476Y-80407200D02*
X154833333Y-80454819D01*
X154833333Y-80454819D02*
X154928571Y-80454819D01*
X154928571Y-80454819D02*
X155071428Y-80407200D01*
X155071428Y-80407200D02*
X155166666Y-80311961D01*
X155166666Y-80311961D02*
X155214285Y-80216723D01*
X155214285Y-80216723D02*
X155261904Y-80026247D01*
X155261904Y-80026247D02*
X155261904Y-79883390D01*
X155261904Y-79883390D02*
X155214285Y-79692914D01*
X155214285Y-79692914D02*
X155166666Y-79597676D01*
X155166666Y-79597676D02*
X155071428Y-79502438D01*
X155071428Y-79502438D02*
X154928571Y-79454819D01*
X154928571Y-79454819D02*
X154833333Y-79454819D01*
X154833333Y-79454819D02*
X154690476Y-79502438D01*
X154690476Y-79502438D02*
X154642857Y-79550057D01*
X154309523Y-79454819D02*
X153690476Y-79454819D01*
X153690476Y-79454819D02*
X154023809Y-79835771D01*
X154023809Y-79835771D02*
X153880952Y-79835771D01*
X153880952Y-79835771D02*
X153785714Y-79883390D01*
X153785714Y-79883390D02*
X153738095Y-79931009D01*
X153738095Y-79931009D02*
X153690476Y-80026247D01*
X153690476Y-80026247D02*
X153690476Y-80264342D01*
X153690476Y-80264342D02*
X153738095Y-80359580D01*
X153738095Y-80359580D02*
X153785714Y-80407200D01*
X153785714Y-80407200D02*
X153880952Y-80454819D01*
X153880952Y-80454819D02*
X154166666Y-80454819D01*
X154166666Y-80454819D02*
X154261904Y-80407200D01*
X154261904Y-80407200D02*
X154309523Y-80359580D01*
X153309523Y-79550057D02*
X153261904Y-79502438D01*
X153261904Y-79502438D02*
X153166666Y-79454819D01*
X153166666Y-79454819D02*
X152928571Y-79454819D01*
X152928571Y-79454819D02*
X152833333Y-79502438D01*
X152833333Y-79502438D02*
X152785714Y-79550057D01*
X152785714Y-79550057D02*
X152738095Y-79645295D01*
X152738095Y-79645295D02*
X152738095Y-79740533D01*
X152738095Y-79740533D02*
X152785714Y-79883390D01*
X152785714Y-79883390D02*
X153357142Y-80454819D01*
X153357142Y-80454819D02*
X152738095Y-80454819D01*
X109604819Y-69816666D02*
X110319104Y-69816666D01*
X110319104Y-69816666D02*
X110461961Y-69769047D01*
X110461961Y-69769047D02*
X110557200Y-69673809D01*
X110557200Y-69673809D02*
X110604819Y-69530952D01*
X110604819Y-69530952D02*
X110604819Y-69435714D01*
X109700057Y-70245238D02*
X109652438Y-70292857D01*
X109652438Y-70292857D02*
X109604819Y-70388095D01*
X109604819Y-70388095D02*
X109604819Y-70626190D01*
X109604819Y-70626190D02*
X109652438Y-70721428D01*
X109652438Y-70721428D02*
X109700057Y-70769047D01*
X109700057Y-70769047D02*
X109795295Y-70816666D01*
X109795295Y-70816666D02*
X109890533Y-70816666D01*
X109890533Y-70816666D02*
X110033390Y-70769047D01*
X110033390Y-70769047D02*
X110604819Y-70197619D01*
X110604819Y-70197619D02*
X110604819Y-70816666D01*
X109604819Y-80316666D02*
X110319104Y-80316666D01*
X110319104Y-80316666D02*
X110461961Y-80269047D01*
X110461961Y-80269047D02*
X110557200Y-80173809D01*
X110557200Y-80173809D02*
X110604819Y-80030952D01*
X110604819Y-80030952D02*
X110604819Y-79935714D01*
X110604819Y-81316666D02*
X110604819Y-80745238D01*
X110604819Y-81030952D02*
X109604819Y-81030952D01*
X109604819Y-81030952D02*
X109747676Y-80935714D01*
X109747676Y-80935714D02*
X109842914Y-80840476D01*
X109842914Y-80840476D02*
X109890533Y-80745238D01*
X109604819Y-59066666D02*
X110319104Y-59066666D01*
X110319104Y-59066666D02*
X110461961Y-59019047D01*
X110461961Y-59019047D02*
X110557200Y-58923809D01*
X110557200Y-58923809D02*
X110604819Y-58780952D01*
X110604819Y-58780952D02*
X110604819Y-58685714D01*
X109604819Y-59447619D02*
X109604819Y-60066666D01*
X109604819Y-60066666D02*
X109985771Y-59733333D01*
X109985771Y-59733333D02*
X109985771Y-59876190D01*
X109985771Y-59876190D02*
X110033390Y-59971428D01*
X110033390Y-59971428D02*
X110081009Y-60019047D01*
X110081009Y-60019047D02*
X110176247Y-60066666D01*
X110176247Y-60066666D02*
X110414342Y-60066666D01*
X110414342Y-60066666D02*
X110509580Y-60019047D01*
X110509580Y-60019047D02*
X110557200Y-59971428D01*
X110557200Y-59971428D02*
X110604819Y-59876190D01*
X110604819Y-59876190D02*
X110604819Y-59590476D01*
X110604819Y-59590476D02*
X110557200Y-59495238D01*
X110557200Y-59495238D02*
X110509580Y-59447619D01*
X190642857Y-76609580D02*
X190690476Y-76657200D01*
X190690476Y-76657200D02*
X190833333Y-76704819D01*
X190833333Y-76704819D02*
X190928571Y-76704819D01*
X190928571Y-76704819D02*
X191071428Y-76657200D01*
X191071428Y-76657200D02*
X191166666Y-76561961D01*
X191166666Y-76561961D02*
X191214285Y-76466723D01*
X191214285Y-76466723D02*
X191261904Y-76276247D01*
X191261904Y-76276247D02*
X191261904Y-76133390D01*
X191261904Y-76133390D02*
X191214285Y-75942914D01*
X191214285Y-75942914D02*
X191166666Y-75847676D01*
X191166666Y-75847676D02*
X191071428Y-75752438D01*
X191071428Y-75752438D02*
X190928571Y-75704819D01*
X190928571Y-75704819D02*
X190833333Y-75704819D01*
X190833333Y-75704819D02*
X190690476Y-75752438D01*
X190690476Y-75752438D02*
X190642857Y-75800057D01*
X189690476Y-76704819D02*
X190261904Y-76704819D01*
X189976190Y-76704819D02*
X189976190Y-75704819D01*
X189976190Y-75704819D02*
X190071428Y-75847676D01*
X190071428Y-75847676D02*
X190166666Y-75942914D01*
X190166666Y-75942914D02*
X190261904Y-75990533D01*
X189119047Y-76133390D02*
X189214285Y-76085771D01*
X189214285Y-76085771D02*
X189261904Y-76038152D01*
X189261904Y-76038152D02*
X189309523Y-75942914D01*
X189309523Y-75942914D02*
X189309523Y-75895295D01*
X189309523Y-75895295D02*
X189261904Y-75800057D01*
X189261904Y-75800057D02*
X189214285Y-75752438D01*
X189214285Y-75752438D02*
X189119047Y-75704819D01*
X189119047Y-75704819D02*
X188928571Y-75704819D01*
X188928571Y-75704819D02*
X188833333Y-75752438D01*
X188833333Y-75752438D02*
X188785714Y-75800057D01*
X188785714Y-75800057D02*
X188738095Y-75895295D01*
X188738095Y-75895295D02*
X188738095Y-75942914D01*
X188738095Y-75942914D02*
X188785714Y-76038152D01*
X188785714Y-76038152D02*
X188833333Y-76085771D01*
X188833333Y-76085771D02*
X188928571Y-76133390D01*
X188928571Y-76133390D02*
X189119047Y-76133390D01*
X189119047Y-76133390D02*
X189214285Y-76181009D01*
X189214285Y-76181009D02*
X189261904Y-76228628D01*
X189261904Y-76228628D02*
X189309523Y-76323866D01*
X189309523Y-76323866D02*
X189309523Y-76514342D01*
X189309523Y-76514342D02*
X189261904Y-76609580D01*
X189261904Y-76609580D02*
X189214285Y-76657200D01*
X189214285Y-76657200D02*
X189119047Y-76704819D01*
X189119047Y-76704819D02*
X188928571Y-76704819D01*
X188928571Y-76704819D02*
X188833333Y-76657200D01*
X188833333Y-76657200D02*
X188785714Y-76609580D01*
X188785714Y-76609580D02*
X188738095Y-76514342D01*
X188738095Y-76514342D02*
X188738095Y-76323866D01*
X188738095Y-76323866D02*
X188785714Y-76228628D01*
X188785714Y-76228628D02*
X188833333Y-76181009D01*
X188833333Y-76181009D02*
X188928571Y-76133390D01*
D13*
X109454663Y-46266666D02*
X110168948Y-46266666D01*
X110168948Y-46266666D02*
X110311805Y-46219047D01*
X110311805Y-46219047D02*
X110407044Y-46123809D01*
X110407044Y-46123809D02*
X110454663Y-45980952D01*
X110454663Y-45980952D02*
X110454663Y-45885714D01*
X109787996Y-47171428D02*
X110454663Y-47171428D01*
X109407044Y-46933333D02*
X110121329Y-46695238D01*
X110121329Y-46695238D02*
X110121329Y-47314285D01*
D12*
X171595238Y-112550057D02*
X171690476Y-112502438D01*
X171690476Y-112502438D02*
X171785714Y-112407200D01*
X171785714Y-112407200D02*
X171928571Y-112264342D01*
X171928571Y-112264342D02*
X172023809Y-112216723D01*
X172023809Y-112216723D02*
X172119047Y-112216723D01*
X172071428Y-112454819D02*
X172166666Y-112407200D01*
X172166666Y-112407200D02*
X172261904Y-112311961D01*
X172261904Y-112311961D02*
X172309523Y-112121485D01*
X172309523Y-112121485D02*
X172309523Y-111788152D01*
X172309523Y-111788152D02*
X172261904Y-111597676D01*
X172261904Y-111597676D02*
X172166666Y-111502438D01*
X172166666Y-111502438D02*
X172071428Y-111454819D01*
X172071428Y-111454819D02*
X171880952Y-111454819D01*
X171880952Y-111454819D02*
X171785714Y-111502438D01*
X171785714Y-111502438D02*
X171690476Y-111597676D01*
X171690476Y-111597676D02*
X171642857Y-111788152D01*
X171642857Y-111788152D02*
X171642857Y-112121485D01*
X171642857Y-112121485D02*
X171690476Y-112311961D01*
X171690476Y-112311961D02*
X171785714Y-112407200D01*
X171785714Y-112407200D02*
X171880952Y-112454819D01*
X171880952Y-112454819D02*
X172071428Y-112454819D01*
X170785714Y-111454819D02*
X170976190Y-111454819D01*
X170976190Y-111454819D02*
X171071428Y-111502438D01*
X171071428Y-111502438D02*
X171119047Y-111550057D01*
X171119047Y-111550057D02*
X171214285Y-111692914D01*
X171214285Y-111692914D02*
X171261904Y-111883390D01*
X171261904Y-111883390D02*
X171261904Y-112264342D01*
X171261904Y-112264342D02*
X171214285Y-112359580D01*
X171214285Y-112359580D02*
X171166666Y-112407200D01*
X171166666Y-112407200D02*
X171071428Y-112454819D01*
X171071428Y-112454819D02*
X170880952Y-112454819D01*
X170880952Y-112454819D02*
X170785714Y-112407200D01*
X170785714Y-112407200D02*
X170738095Y-112359580D01*
X170738095Y-112359580D02*
X170690476Y-112264342D01*
X170690476Y-112264342D02*
X170690476Y-112026247D01*
X170690476Y-112026247D02*
X170738095Y-111931009D01*
X170738095Y-111931009D02*
X170785714Y-111883390D01*
X170785714Y-111883390D02*
X170880952Y-111835771D01*
X170880952Y-111835771D02*
X171071428Y-111835771D01*
X171071428Y-111835771D02*
X171166666Y-111883390D01*
X171166666Y-111883390D02*
X171214285Y-111931009D01*
X171214285Y-111931009D02*
X171261904Y-112026247D01*
X165929580Y-120357142D02*
X165977200Y-120309523D01*
X165977200Y-120309523D02*
X166024819Y-120166666D01*
X166024819Y-120166666D02*
X166024819Y-120071428D01*
X166024819Y-120071428D02*
X165977200Y-119928571D01*
X165977200Y-119928571D02*
X165881961Y-119833333D01*
X165881961Y-119833333D02*
X165786723Y-119785714D01*
X165786723Y-119785714D02*
X165596247Y-119738095D01*
X165596247Y-119738095D02*
X165453390Y-119738095D01*
X165453390Y-119738095D02*
X165262914Y-119785714D01*
X165262914Y-119785714D02*
X165167676Y-119833333D01*
X165167676Y-119833333D02*
X165072438Y-119928571D01*
X165072438Y-119928571D02*
X165024819Y-120071428D01*
X165024819Y-120071428D02*
X165024819Y-120166666D01*
X165024819Y-120166666D02*
X165072438Y-120309523D01*
X165072438Y-120309523D02*
X165120057Y-120357142D01*
X165358152Y-121214285D02*
X166024819Y-121214285D01*
X164977200Y-120976190D02*
X165691485Y-120738095D01*
X165691485Y-120738095D02*
X165691485Y-121357142D01*
X165453390Y-121880952D02*
X165405771Y-121785714D01*
X165405771Y-121785714D02*
X165358152Y-121738095D01*
X165358152Y-121738095D02*
X165262914Y-121690476D01*
X165262914Y-121690476D02*
X165215295Y-121690476D01*
X165215295Y-121690476D02*
X165120057Y-121738095D01*
X165120057Y-121738095D02*
X165072438Y-121785714D01*
X165072438Y-121785714D02*
X165024819Y-121880952D01*
X165024819Y-121880952D02*
X165024819Y-122071428D01*
X165024819Y-122071428D02*
X165072438Y-122166666D01*
X165072438Y-122166666D02*
X165120057Y-122214285D01*
X165120057Y-122214285D02*
X165215295Y-122261904D01*
X165215295Y-122261904D02*
X165262914Y-122261904D01*
X165262914Y-122261904D02*
X165358152Y-122214285D01*
X165358152Y-122214285D02*
X165405771Y-122166666D01*
X165405771Y-122166666D02*
X165453390Y-122071428D01*
X165453390Y-122071428D02*
X165453390Y-121880952D01*
X165453390Y-121880952D02*
X165501009Y-121785714D01*
X165501009Y-121785714D02*
X165548628Y-121738095D01*
X165548628Y-121738095D02*
X165643866Y-121690476D01*
X165643866Y-121690476D02*
X165834342Y-121690476D01*
X165834342Y-121690476D02*
X165929580Y-121738095D01*
X165929580Y-121738095D02*
X165977200Y-121785714D01*
X165977200Y-121785714D02*
X166024819Y-121880952D01*
X166024819Y-121880952D02*
X166024819Y-122071428D01*
X166024819Y-122071428D02*
X165977200Y-122166666D01*
X165977200Y-122166666D02*
X165929580Y-122214285D01*
X165929580Y-122214285D02*
X165834342Y-122261904D01*
X165834342Y-122261904D02*
X165643866Y-122261904D01*
X165643866Y-122261904D02*
X165548628Y-122214285D01*
X165548628Y-122214285D02*
X165501009Y-122166666D01*
X165501009Y-122166666D02*
X165453390Y-122071428D01*
X171545238Y-48400057D02*
X171640476Y-48352438D01*
X171640476Y-48352438D02*
X171735714Y-48257200D01*
X171735714Y-48257200D02*
X171878571Y-48114342D01*
X171878571Y-48114342D02*
X171973809Y-48066723D01*
X171973809Y-48066723D02*
X172069047Y-48066723D01*
X172021428Y-48304819D02*
X172116666Y-48257200D01*
X172116666Y-48257200D02*
X172211904Y-48161961D01*
X172211904Y-48161961D02*
X172259523Y-47971485D01*
X172259523Y-47971485D02*
X172259523Y-47638152D01*
X172259523Y-47638152D02*
X172211904Y-47447676D01*
X172211904Y-47447676D02*
X172116666Y-47352438D01*
X172116666Y-47352438D02*
X172021428Y-47304819D01*
X172021428Y-47304819D02*
X171830952Y-47304819D01*
X171830952Y-47304819D02*
X171735714Y-47352438D01*
X171735714Y-47352438D02*
X171640476Y-47447676D01*
X171640476Y-47447676D02*
X171592857Y-47638152D01*
X171592857Y-47638152D02*
X171592857Y-47971485D01*
X171592857Y-47971485D02*
X171640476Y-48161961D01*
X171640476Y-48161961D02*
X171735714Y-48257200D01*
X171735714Y-48257200D02*
X171830952Y-48304819D01*
X171830952Y-48304819D02*
X172021428Y-48304819D01*
X170688095Y-47304819D02*
X171164285Y-47304819D01*
X171164285Y-47304819D02*
X171211904Y-47781009D01*
X171211904Y-47781009D02*
X171164285Y-47733390D01*
X171164285Y-47733390D02*
X171069047Y-47685771D01*
X171069047Y-47685771D02*
X170830952Y-47685771D01*
X170830952Y-47685771D02*
X170735714Y-47733390D01*
X170735714Y-47733390D02*
X170688095Y-47781009D01*
X170688095Y-47781009D02*
X170640476Y-47876247D01*
X170640476Y-47876247D02*
X170640476Y-48114342D01*
X170640476Y-48114342D02*
X170688095Y-48209580D01*
X170688095Y-48209580D02*
X170735714Y-48257200D01*
X170735714Y-48257200D02*
X170830952Y-48304819D01*
X170830952Y-48304819D02*
X171069047Y-48304819D01*
X171069047Y-48304819D02*
X171164285Y-48257200D01*
X171164285Y-48257200D02*
X171211904Y-48209580D01*
X175204819Y-120738095D02*
X176014342Y-120738095D01*
X176014342Y-120738095D02*
X176109580Y-120785714D01*
X176109580Y-120785714D02*
X176157200Y-120833333D01*
X176157200Y-120833333D02*
X176204819Y-120928571D01*
X176204819Y-120928571D02*
X176204819Y-121119047D01*
X176204819Y-121119047D02*
X176157200Y-121214285D01*
X176157200Y-121214285D02*
X176109580Y-121261904D01*
X176109580Y-121261904D02*
X176014342Y-121309523D01*
X176014342Y-121309523D02*
X175204819Y-121309523D01*
X175204819Y-122214285D02*
X175204819Y-122023809D01*
X175204819Y-122023809D02*
X175252438Y-121928571D01*
X175252438Y-121928571D02*
X175300057Y-121880952D01*
X175300057Y-121880952D02*
X175442914Y-121785714D01*
X175442914Y-121785714D02*
X175633390Y-121738095D01*
X175633390Y-121738095D02*
X176014342Y-121738095D01*
X176014342Y-121738095D02*
X176109580Y-121785714D01*
X176109580Y-121785714D02*
X176157200Y-121833333D01*
X176157200Y-121833333D02*
X176204819Y-121928571D01*
X176204819Y-121928571D02*
X176204819Y-122119047D01*
X176204819Y-122119047D02*
X176157200Y-122214285D01*
X176157200Y-122214285D02*
X176109580Y-122261904D01*
X176109580Y-122261904D02*
X176014342Y-122309523D01*
X176014342Y-122309523D02*
X175776247Y-122309523D01*
X175776247Y-122309523D02*
X175681009Y-122261904D01*
X175681009Y-122261904D02*
X175633390Y-122214285D01*
X175633390Y-122214285D02*
X175585771Y-122119047D01*
X175585771Y-122119047D02*
X175585771Y-121928571D01*
X175585771Y-121928571D02*
X175633390Y-121833333D01*
X175633390Y-121833333D02*
X175681009Y-121785714D01*
X175681009Y-121785714D02*
X175776247Y-121738095D01*
X137845238Y-112550057D02*
X137940476Y-112502438D01*
X137940476Y-112502438D02*
X138035714Y-112407200D01*
X138035714Y-112407200D02*
X138178571Y-112264342D01*
X138178571Y-112264342D02*
X138273809Y-112216723D01*
X138273809Y-112216723D02*
X138369047Y-112216723D01*
X138321428Y-112454819D02*
X138416666Y-112407200D01*
X138416666Y-112407200D02*
X138511904Y-112311961D01*
X138511904Y-112311961D02*
X138559523Y-112121485D01*
X138559523Y-112121485D02*
X138559523Y-111788152D01*
X138559523Y-111788152D02*
X138511904Y-111597676D01*
X138511904Y-111597676D02*
X138416666Y-111502438D01*
X138416666Y-111502438D02*
X138321428Y-111454819D01*
X138321428Y-111454819D02*
X138130952Y-111454819D01*
X138130952Y-111454819D02*
X138035714Y-111502438D01*
X138035714Y-111502438D02*
X137940476Y-111597676D01*
X137940476Y-111597676D02*
X137892857Y-111788152D01*
X137892857Y-111788152D02*
X137892857Y-112121485D01*
X137892857Y-112121485D02*
X137940476Y-112311961D01*
X137940476Y-112311961D02*
X138035714Y-112407200D01*
X138035714Y-112407200D02*
X138130952Y-112454819D01*
X138130952Y-112454819D02*
X138321428Y-112454819D01*
X137321428Y-111883390D02*
X137416666Y-111835771D01*
X137416666Y-111835771D02*
X137464285Y-111788152D01*
X137464285Y-111788152D02*
X137511904Y-111692914D01*
X137511904Y-111692914D02*
X137511904Y-111645295D01*
X137511904Y-111645295D02*
X137464285Y-111550057D01*
X137464285Y-111550057D02*
X137416666Y-111502438D01*
X137416666Y-111502438D02*
X137321428Y-111454819D01*
X137321428Y-111454819D02*
X137130952Y-111454819D01*
X137130952Y-111454819D02*
X137035714Y-111502438D01*
X137035714Y-111502438D02*
X136988095Y-111550057D01*
X136988095Y-111550057D02*
X136940476Y-111645295D01*
X136940476Y-111645295D02*
X136940476Y-111692914D01*
X136940476Y-111692914D02*
X136988095Y-111788152D01*
X136988095Y-111788152D02*
X137035714Y-111835771D01*
X137035714Y-111835771D02*
X137130952Y-111883390D01*
X137130952Y-111883390D02*
X137321428Y-111883390D01*
X137321428Y-111883390D02*
X137416666Y-111931009D01*
X137416666Y-111931009D02*
X137464285Y-111978628D01*
X137464285Y-111978628D02*
X137511904Y-112073866D01*
X137511904Y-112073866D02*
X137511904Y-112264342D01*
X137511904Y-112264342D02*
X137464285Y-112359580D01*
X137464285Y-112359580D02*
X137416666Y-112407200D01*
X137416666Y-112407200D02*
X137321428Y-112454819D01*
X137321428Y-112454819D02*
X137130952Y-112454819D01*
X137130952Y-112454819D02*
X137035714Y-112407200D01*
X137035714Y-112407200D02*
X136988095Y-112359580D01*
X136988095Y-112359580D02*
X136940476Y-112264342D01*
X136940476Y-112264342D02*
X136940476Y-112073866D01*
X136940476Y-112073866D02*
X136988095Y-111978628D01*
X136988095Y-111978628D02*
X137035714Y-111931009D01*
X137035714Y-111931009D02*
X137130952Y-111883390D01*
X167454819Y-120738095D02*
X168264342Y-120738095D01*
X168264342Y-120738095D02*
X168359580Y-120785714D01*
X168359580Y-120785714D02*
X168407200Y-120833333D01*
X168407200Y-120833333D02*
X168454819Y-120928571D01*
X168454819Y-120928571D02*
X168454819Y-121119047D01*
X168454819Y-121119047D02*
X168407200Y-121214285D01*
X168407200Y-121214285D02*
X168359580Y-121261904D01*
X168359580Y-121261904D02*
X168264342Y-121309523D01*
X168264342Y-121309523D02*
X167454819Y-121309523D01*
X167454819Y-121690476D02*
X167454819Y-122309523D01*
X167454819Y-122309523D02*
X167835771Y-121976190D01*
X167835771Y-121976190D02*
X167835771Y-122119047D01*
X167835771Y-122119047D02*
X167883390Y-122214285D01*
X167883390Y-122214285D02*
X167931009Y-122261904D01*
X167931009Y-122261904D02*
X168026247Y-122309523D01*
X168026247Y-122309523D02*
X168264342Y-122309523D01*
X168264342Y-122309523D02*
X168359580Y-122261904D01*
X168359580Y-122261904D02*
X168407200Y-122214285D01*
X168407200Y-122214285D02*
X168454819Y-122119047D01*
X168454819Y-122119047D02*
X168454819Y-121833333D01*
X168454819Y-121833333D02*
X168407200Y-121738095D01*
X168407200Y-121738095D02*
X168359580Y-121690476D01*
X186642857Y-76609580D02*
X186690476Y-76657200D01*
X186690476Y-76657200D02*
X186833333Y-76704819D01*
X186833333Y-76704819D02*
X186928571Y-76704819D01*
X186928571Y-76704819D02*
X187071428Y-76657200D01*
X187071428Y-76657200D02*
X187166666Y-76561961D01*
X187166666Y-76561961D02*
X187214285Y-76466723D01*
X187214285Y-76466723D02*
X187261904Y-76276247D01*
X187261904Y-76276247D02*
X187261904Y-76133390D01*
X187261904Y-76133390D02*
X187214285Y-75942914D01*
X187214285Y-75942914D02*
X187166666Y-75847676D01*
X187166666Y-75847676D02*
X187071428Y-75752438D01*
X187071428Y-75752438D02*
X186928571Y-75704819D01*
X186928571Y-75704819D02*
X186833333Y-75704819D01*
X186833333Y-75704819D02*
X186690476Y-75752438D01*
X186690476Y-75752438D02*
X186642857Y-75800057D01*
X185690476Y-76704819D02*
X186261904Y-76704819D01*
X185976190Y-76704819D02*
X185976190Y-75704819D01*
X185976190Y-75704819D02*
X186071428Y-75847676D01*
X186071428Y-75847676D02*
X186166666Y-75942914D01*
X186166666Y-75942914D02*
X186261904Y-75990533D01*
X185214285Y-76704819D02*
X185023809Y-76704819D01*
X185023809Y-76704819D02*
X184928571Y-76657200D01*
X184928571Y-76657200D02*
X184880952Y-76609580D01*
X184880952Y-76609580D02*
X184785714Y-76466723D01*
X184785714Y-76466723D02*
X184738095Y-76276247D01*
X184738095Y-76276247D02*
X184738095Y-75895295D01*
X184738095Y-75895295D02*
X184785714Y-75800057D01*
X184785714Y-75800057D02*
X184833333Y-75752438D01*
X184833333Y-75752438D02*
X184928571Y-75704819D01*
X184928571Y-75704819D02*
X185119047Y-75704819D01*
X185119047Y-75704819D02*
X185214285Y-75752438D01*
X185214285Y-75752438D02*
X185261904Y-75800057D01*
X185261904Y-75800057D02*
X185309523Y-75895295D01*
X185309523Y-75895295D02*
X185309523Y-76133390D01*
X185309523Y-76133390D02*
X185261904Y-76228628D01*
X185261904Y-76228628D02*
X185214285Y-76276247D01*
X185214285Y-76276247D02*
X185119047Y-76323866D01*
X185119047Y-76323866D02*
X184928571Y-76323866D01*
X184928571Y-76323866D02*
X184833333Y-76276247D01*
X184833333Y-76276247D02*
X184785714Y-76228628D01*
X184785714Y-76228628D02*
X184738095Y-76133390D01*
X171142857Y-80359580D02*
X171190476Y-80407200D01*
X171190476Y-80407200D02*
X171333333Y-80454819D01*
X171333333Y-80454819D02*
X171428571Y-80454819D01*
X171428571Y-80454819D02*
X171571428Y-80407200D01*
X171571428Y-80407200D02*
X171666666Y-80311961D01*
X171666666Y-80311961D02*
X171714285Y-80216723D01*
X171714285Y-80216723D02*
X171761904Y-80026247D01*
X171761904Y-80026247D02*
X171761904Y-79883390D01*
X171761904Y-79883390D02*
X171714285Y-79692914D01*
X171714285Y-79692914D02*
X171666666Y-79597676D01*
X171666666Y-79597676D02*
X171571428Y-79502438D01*
X171571428Y-79502438D02*
X171428571Y-79454819D01*
X171428571Y-79454819D02*
X171333333Y-79454819D01*
X171333333Y-79454819D02*
X171190476Y-79502438D01*
X171190476Y-79502438D02*
X171142857Y-79550057D01*
X170809523Y-79454819D02*
X170190476Y-79454819D01*
X170190476Y-79454819D02*
X170523809Y-79835771D01*
X170523809Y-79835771D02*
X170380952Y-79835771D01*
X170380952Y-79835771D02*
X170285714Y-79883390D01*
X170285714Y-79883390D02*
X170238095Y-79931009D01*
X170238095Y-79931009D02*
X170190476Y-80026247D01*
X170190476Y-80026247D02*
X170190476Y-80264342D01*
X170190476Y-80264342D02*
X170238095Y-80359580D01*
X170238095Y-80359580D02*
X170285714Y-80407200D01*
X170285714Y-80407200D02*
X170380952Y-80454819D01*
X170380952Y-80454819D02*
X170666666Y-80454819D01*
X170666666Y-80454819D02*
X170761904Y-80407200D01*
X170761904Y-80407200D02*
X170809523Y-80359580D01*
X169285714Y-79454819D02*
X169761904Y-79454819D01*
X169761904Y-79454819D02*
X169809523Y-79931009D01*
X169809523Y-79931009D02*
X169761904Y-79883390D01*
X169761904Y-79883390D02*
X169666666Y-79835771D01*
X169666666Y-79835771D02*
X169428571Y-79835771D01*
X169428571Y-79835771D02*
X169333333Y-79883390D01*
X169333333Y-79883390D02*
X169285714Y-79931009D01*
X169285714Y-79931009D02*
X169238095Y-80026247D01*
X169238095Y-80026247D02*
X169238095Y-80264342D01*
X169238095Y-80264342D02*
X169285714Y-80359580D01*
X169285714Y-80359580D02*
X169333333Y-80407200D01*
X169333333Y-80407200D02*
X169428571Y-80454819D01*
X169428571Y-80454819D02*
X169666666Y-80454819D01*
X169666666Y-80454819D02*
X169761904Y-80407200D01*
X169761904Y-80407200D02*
X169809523Y-80359580D01*
D10*
X158690000Y-123950000D02*
X158690000Y-124750000D01*
X158690000Y-125550000D02*
X158690000Y-124750000D01*
X161810000Y-123950000D02*
X161810000Y-124750000D01*
X161810000Y-125550000D02*
X161810000Y-124750000D01*
X162090000Y-126290000D02*
X161760000Y-126050000D01*
X162090000Y-125810000D01*
X162090000Y-126290000D01*
G36*
X162090000Y-126290000D02*
G01*
X161760000Y-126050000D01*
X162090000Y-125810000D01*
X162090000Y-126290000D01*
G37*
X150940000Y-123950000D02*
X150940000Y-124750000D01*
X150940000Y-125550000D02*
X150940000Y-124750000D01*
X154060000Y-123950000D02*
X154060000Y-124750000D01*
X154060000Y-125550000D02*
X154060000Y-124750000D01*
X154340000Y-126290000D02*
X154010000Y-126050000D01*
X154340000Y-125810000D01*
X154340000Y-126290000D01*
G36*
X154340000Y-126290000D02*
G01*
X154010000Y-126050000D01*
X154340000Y-125810000D01*
X154340000Y-126290000D01*
G37*
X136175000Y-120625000D02*
X136175000Y-121875000D01*
X136175000Y-121875000D02*
X137425000Y-121875000D01*
X136465000Y-115615000D02*
X136465000Y-121585000D01*
X136465000Y-121585000D02*
X144085000Y-121585000D01*
X136475000Y-120825000D02*
X136475000Y-121575000D01*
X136475000Y-121575000D02*
X138275000Y-121575000D01*
X137225000Y-116375000D02*
X137225000Y-119325000D01*
X137225000Y-119325000D02*
X136475000Y-119325000D01*
X138275000Y-120825000D02*
X136475000Y-120825000D01*
X138275000Y-121575000D02*
X138275000Y-120825000D01*
X139775000Y-120825000D02*
X139775000Y-121575000D01*
X139775000Y-121575000D02*
X140775000Y-121575000D01*
X140275000Y-116375000D02*
X137225000Y-116375000D01*
X140275000Y-116375000D02*
X143325000Y-116375000D01*
X140775000Y-120825000D02*
X139775000Y-120825000D01*
X140775000Y-121575000D02*
X140775000Y-120825000D01*
X142275000Y-120825000D02*
X142275000Y-121575000D01*
X142275000Y-121575000D02*
X144075000Y-121575000D01*
X143325000Y-116375000D02*
X143325000Y-119325000D01*
X143325000Y-119325000D02*
X144075000Y-119325000D01*
X144075000Y-120825000D02*
X142275000Y-120825000D01*
X144075000Y-121575000D02*
X144075000Y-120825000D01*
X144085000Y-115615000D02*
X136465000Y-115615000D01*
X144085000Y-121585000D02*
X144085000Y-115615000D01*
X172740000Y-124140580D02*
X172740000Y-123859420D01*
X173760000Y-124140580D02*
X173760000Y-123859420D01*
X106610000Y-106800000D02*
X106610000Y-117180000D01*
X106610000Y-108180000D02*
X107610000Y-108180000D01*
X106610000Y-117180000D02*
X112630000Y-117180000D01*
X107600000Y-117470000D02*
X111600000Y-117470000D01*
X107610000Y-108180000D02*
X107610000Y-115800000D01*
X107610000Y-108180000D02*
X108140000Y-108430000D01*
X107610000Y-108430000D02*
X106610000Y-108430000D01*
X107610000Y-115550000D02*
X106610000Y-115550000D01*
X107610000Y-115800000D02*
X106610000Y-115800000D01*
X108140000Y-108430000D02*
X108140000Y-115550000D01*
X108140000Y-115550000D02*
X107610000Y-115800000D01*
X112030000Y-107380000D02*
X112030000Y-108980000D01*
X112030000Y-108980000D02*
X112630000Y-108980000D01*
X112030000Y-109920000D02*
X112030000Y-111520000D01*
X112030000Y-111520000D02*
X112630000Y-111520000D01*
X112030000Y-112460000D02*
X112030000Y-114060000D01*
X112030000Y-114060000D02*
X112630000Y-114060000D01*
X112030000Y-115000000D02*
X112030000Y-116600000D01*
X112030000Y-116600000D02*
X112630000Y-116600000D01*
X112630000Y-106800000D02*
X106610000Y-106800000D01*
X112630000Y-107380000D02*
X112030000Y-107380000D01*
X112630000Y-109920000D02*
X112030000Y-109920000D01*
X112630000Y-112460000D02*
X112030000Y-112460000D01*
X112630000Y-115000000D02*
X112030000Y-115000000D01*
X112630000Y-117180000D02*
X112630000Y-106800000D01*
X149490000Y-124140580D02*
X149490000Y-123859420D01*
X150510000Y-124140580D02*
X150510000Y-123859420D01*
X146980000Y-89960000D02*
X163120000Y-89960000D01*
X146980000Y-111150000D02*
X146980000Y-89960000D01*
X146980000Y-111150000D02*
X163120000Y-111150000D01*
X149600000Y-89960000D02*
X149600000Y-87400000D01*
X155050000Y-89960000D02*
X155050000Y-87400000D01*
X160500000Y-89960000D02*
X160500000Y-87400000D01*
X163120000Y-111150000D02*
X163120000Y-89960000D01*
X146880000Y-48850000D02*
X146880000Y-70040000D01*
X149500000Y-70040000D02*
X149500000Y-72600000D01*
X154950000Y-70040000D02*
X154950000Y-72600000D01*
X160400000Y-70040000D02*
X160400000Y-72600000D01*
X163020000Y-48850000D02*
X146880000Y-48850000D01*
X163020000Y-48850000D02*
X163020000Y-70040000D01*
X163020000Y-70040000D02*
X146880000Y-70040000D01*
X180290000Y-78838748D02*
X180290000Y-81161252D01*
X183710000Y-78838748D02*
X183710000Y-81161252D01*
X157240000Y-124140580D02*
X157240000Y-123859420D01*
X158260000Y-124140580D02*
X158260000Y-123859420D01*
X130380000Y-48850000D02*
X130380000Y-70040000D01*
X133000000Y-70040000D02*
X133000000Y-72600000D01*
X138450000Y-70040000D02*
X138450000Y-72600000D01*
X143900000Y-70040000D02*
X143900000Y-72600000D01*
X146520000Y-48850000D02*
X130380000Y-48850000D01*
X146520000Y-48850000D02*
X146520000Y-70040000D01*
X146520000Y-70040000D02*
X130380000Y-70040000D01*
X134161252Y-78290000D02*
X131838748Y-78290000D01*
X134161252Y-81710000D02*
X131838748Y-81710000D01*
X150661252Y-78290000D02*
X148338748Y-78290000D01*
X150661252Y-81710000D02*
X148338748Y-81710000D01*
X105440000Y-69665000D02*
X105440000Y-79135000D01*
X105440000Y-79135000D02*
X108860000Y-79135000D01*
X105950000Y-70175000D02*
X106800000Y-70175000D01*
X105950000Y-74400000D02*
X105950000Y-70175000D01*
X105950000Y-74400000D02*
X105950000Y-78625000D01*
X105950000Y-78625000D02*
X106800000Y-78625000D01*
X106800000Y-69975000D02*
X107600000Y-69975000D01*
X106800000Y-70175000D02*
X106800000Y-69975000D01*
X106800000Y-78625000D02*
X106800000Y-78825000D01*
X106800000Y-78825000D02*
X107600000Y-78825000D01*
X107600000Y-69975000D02*
X107600000Y-70175000D01*
X107600000Y-70175000D02*
X108350000Y-70175000D01*
X107600000Y-78625000D02*
X108350000Y-78625000D01*
X107600000Y-78825000D02*
X107600000Y-78625000D01*
X108150000Y-69375000D02*
X109150000Y-69375000D01*
X108350000Y-70175000D02*
X108350000Y-74400000D01*
X108350000Y-78625000D02*
X108350000Y-74400000D01*
X108860000Y-69665000D02*
X105440000Y-69665000D01*
X108860000Y-79135000D02*
X108860000Y-69665000D01*
X109150000Y-70375000D02*
X109150000Y-69375000D01*
X105440000Y-80165000D02*
X105440000Y-89635000D01*
X105440000Y-89635000D02*
X108860000Y-89635000D01*
X105950000Y-80675000D02*
X106800000Y-80675000D01*
X105950000Y-84900000D02*
X105950000Y-80675000D01*
X105950000Y-84900000D02*
X105950000Y-89125000D01*
X105950000Y-89125000D02*
X106800000Y-89125000D01*
X106800000Y-80475000D02*
X107600000Y-80475000D01*
X106800000Y-80675000D02*
X106800000Y-80475000D01*
X106800000Y-89125000D02*
X106800000Y-89325000D01*
X106800000Y-89325000D02*
X107600000Y-89325000D01*
X107600000Y-80475000D02*
X107600000Y-80675000D01*
X107600000Y-80675000D02*
X108350000Y-80675000D01*
X107600000Y-89125000D02*
X108350000Y-89125000D01*
X107600000Y-89325000D02*
X107600000Y-89125000D01*
X108150000Y-79875000D02*
X109150000Y-79875000D01*
X108350000Y-80675000D02*
X108350000Y-84900000D01*
X108350000Y-89125000D02*
X108350000Y-84900000D01*
X108860000Y-80165000D02*
X105440000Y-80165000D01*
X108860000Y-89635000D02*
X108860000Y-80165000D01*
X109150000Y-80875000D02*
X109150000Y-79875000D01*
X105440000Y-59165000D02*
X105440000Y-68635000D01*
X105440000Y-68635000D02*
X108860000Y-68635000D01*
X105950000Y-59675000D02*
X106800000Y-59675000D01*
X105950000Y-63900000D02*
X105950000Y-59675000D01*
X105950000Y-63900000D02*
X105950000Y-68125000D01*
X105950000Y-68125000D02*
X106800000Y-68125000D01*
X106800000Y-59475000D02*
X107600000Y-59475000D01*
X106800000Y-59675000D02*
X106800000Y-59475000D01*
X106800000Y-68125000D02*
X106800000Y-68325000D01*
X106800000Y-68325000D02*
X107600000Y-68325000D01*
X107600000Y-59475000D02*
X107600000Y-59675000D01*
X107600000Y-59675000D02*
X108350000Y-59675000D01*
X107600000Y-68125000D02*
X108350000Y-68125000D01*
X107600000Y-68325000D02*
X107600000Y-68125000D01*
X108150000Y-58875000D02*
X109150000Y-58875000D01*
X108350000Y-59675000D02*
X108350000Y-63900000D01*
X108350000Y-68125000D02*
X108350000Y-63900000D01*
X108860000Y-59165000D02*
X105440000Y-59165000D01*
X108860000Y-68635000D02*
X108860000Y-59165000D01*
X109150000Y-59875000D02*
X109150000Y-58875000D01*
X188290000Y-78838748D02*
X188290000Y-81161252D01*
X191710000Y-78838748D02*
X191710000Y-81161252D01*
X105440000Y-45990000D02*
X105440000Y-57960000D01*
X105440000Y-57960000D02*
X108860000Y-57960000D01*
X105950000Y-46500000D02*
X106800000Y-46500000D01*
X105950000Y-51975000D02*
X105950000Y-46500000D01*
X105950000Y-51975000D02*
X105950000Y-57450000D01*
X105950000Y-57450000D02*
X106800000Y-57450000D01*
X106800000Y-46300000D02*
X107600000Y-46300000D01*
X106800000Y-46500000D02*
X106800000Y-46300000D01*
X106800000Y-57450000D02*
X106800000Y-57650000D01*
X106800000Y-57650000D02*
X107600000Y-57650000D01*
X107600000Y-46300000D02*
X107600000Y-46500000D01*
X107600000Y-46500000D02*
X108350000Y-46500000D01*
X107600000Y-57450000D02*
X108350000Y-57450000D01*
X107600000Y-57650000D02*
X107600000Y-57450000D01*
X108150000Y-45700000D02*
X109150000Y-45700000D01*
X108350000Y-46500000D02*
X108350000Y-51975000D01*
X108350000Y-57450000D02*
X108350000Y-51975000D01*
X108860000Y-45990000D02*
X105440000Y-45990000D01*
X108860000Y-57960000D02*
X108860000Y-45990000D01*
X109150000Y-46700000D02*
X109150000Y-45700000D01*
X163480000Y-89960000D02*
X179620000Y-89960000D01*
X163480000Y-111150000D02*
X163480000Y-89960000D01*
X163480000Y-111150000D02*
X179620000Y-111150000D01*
X166100000Y-89960000D02*
X166100000Y-87400000D01*
X171550000Y-89960000D02*
X171550000Y-87400000D01*
X177000000Y-89960000D02*
X177000000Y-87400000D01*
X179620000Y-111150000D02*
X179620000Y-89960000D01*
X164990000Y-124140580D02*
X164990000Y-123859420D01*
X166010000Y-124140580D02*
X166010000Y-123859420D01*
X163380000Y-48850000D02*
X163380000Y-70040000D01*
X166000000Y-70040000D02*
X166000000Y-72600000D01*
X171450000Y-70040000D02*
X171450000Y-72600000D01*
X176900000Y-70040000D02*
X176900000Y-72600000D01*
X179520000Y-48850000D02*
X163380000Y-48850000D01*
X179520000Y-48850000D02*
X179520000Y-70040000D01*
X179520000Y-70040000D02*
X163380000Y-70040000D01*
X174190000Y-123950000D02*
X174190000Y-124750000D01*
X174190000Y-125550000D02*
X174190000Y-124750000D01*
X177310000Y-123950000D02*
X177310000Y-124750000D01*
X177310000Y-125550000D02*
X177310000Y-124750000D01*
X177590000Y-126290000D02*
X177260000Y-126050000D01*
X177590000Y-125810000D01*
X177590000Y-126290000D01*
G36*
X177590000Y-126290000D02*
G01*
X177260000Y-126050000D01*
X177590000Y-125810000D01*
X177590000Y-126290000D01*
G37*
X130480000Y-89960000D02*
X146620000Y-89960000D01*
X130480000Y-111150000D02*
X130480000Y-89960000D01*
X130480000Y-111150000D02*
X146620000Y-111150000D01*
X133100000Y-89960000D02*
X133100000Y-87400000D01*
X138550000Y-89960000D02*
X138550000Y-87400000D01*
X144000000Y-89960000D02*
X144000000Y-87400000D01*
X146620000Y-111150000D02*
X146620000Y-89960000D01*
X166440000Y-123950000D02*
X166440000Y-124750000D01*
X166440000Y-125550000D02*
X166440000Y-124750000D01*
X169560000Y-123950000D02*
X169560000Y-124750000D01*
X169560000Y-125550000D02*
X169560000Y-124750000D01*
X169840000Y-126290000D02*
X169510000Y-126050000D01*
X169840000Y-125810000D01*
X169840000Y-126290000D01*
G36*
X169840000Y-126290000D02*
G01*
X169510000Y-126050000D01*
X169840000Y-125810000D01*
X169840000Y-126290000D01*
G37*
X184290000Y-78838748D02*
X184290000Y-81161252D01*
X187710000Y-78838748D02*
X187710000Y-81161252D01*
X167161252Y-78290000D02*
X164838748Y-78290000D01*
X167161252Y-81710000D02*
X164838748Y-81710000D01*
M02*
