G04 #@! TF.GenerationSoftware,KiCad,Pcbnew,6.0.2-1.fc35*
G04 #@! TF.CreationDate,2022-04-02T15:35:02-04:00*
G04 #@! TF.ProjectId,universal-half-bridge,756e6976-6572-4736-916c-2d68616c662d,rev?*
G04 #@! TF.SameCoordinates,Original*
G04 #@! TF.FileFunction,Copper,L2,Bot*
G04 #@! TF.FilePolarity,Positive*
%FSLAX46Y46*%
G04 Gerber Fmt 4.6, Leading zero omitted, Abs format (unit mm)*
G04 Created by KiCad (PCBNEW 6.0.2-1.fc35) date 2022-04-02 15:35:02*
%MOMM*%
%LPD*%
G01*
G04 APERTURE LIST*
G04 Aperture macros list*
%AMRoundRect*
0 Rectangle with rounded corners*
0 $1 Rounding radius*
0 $2 $3 $4 $5 $6 $7 $8 $9 X,Y pos of 4 corners*
0 Add a 4 corners polygon primitive as box body*
4,1,4,$2,$3,$4,$5,$6,$7,$8,$9,$2,$3,0*
0 Add four circle primitives for the rounded corners*
1,1,$1+$1,$2,$3*
1,1,$1+$1,$4,$5*
1,1,$1+$1,$6,$7*
1,1,$1+$1,$8,$9*
0 Add four rect primitives between the rounded corners*
20,1,$1+$1,$2,$3,$4,$5,0*
20,1,$1+$1,$4,$5,$6,$7,0*
20,1,$1+$1,$6,$7,$8,$9,0*
20,1,$1+$1,$8,$9,$2,$3,0*%
G04 Aperture macros list end*
G04 #@! TA.AperFunction,ComponentPad*
%ADD10O,8.000000X4.000000*%
G04 #@! TD*
G04 #@! TA.AperFunction,ComponentPad*
%ADD11RoundRect,0.250000X-0.350000X-0.625000X0.350000X-0.625000X0.350000X0.625000X-0.350000X0.625000X0*%
G04 #@! TD*
G04 #@! TA.AperFunction,ComponentPad*
%ADD12O,1.200000X1.750000*%
G04 #@! TD*
G04 #@! TA.AperFunction,ComponentPad*
%ADD13RoundRect,0.250000X0.350000X0.625000X-0.350000X0.625000X-0.350000X-0.625000X0.350000X-0.625000X0*%
G04 #@! TD*
G04 #@! TA.AperFunction,ComponentPad*
%ADD14RoundRect,0.250000X-0.625000X0.350000X-0.625000X-0.350000X0.625000X-0.350000X0.625000X0.350000X0*%
G04 #@! TD*
G04 #@! TA.AperFunction,ComponentPad*
%ADD15O,1.750000X1.200000*%
G04 #@! TD*
G04 #@! TA.AperFunction,SMDPad,CuDef*
%ADD16RoundRect,0.500000X0.500000X-0.500000X0.500000X0.500000X-0.500000X0.500000X-0.500000X-0.500000X0*%
G04 #@! TD*
G04 #@! TA.AperFunction,SMDPad,CuDef*
%ADD17RoundRect,0.500000X-0.500000X0.500000X-0.500000X-0.500000X0.500000X-0.500000X0.500000X0.500000X0*%
G04 #@! TD*
G04 #@! TA.AperFunction,ComponentPad*
%ADD18RoundRect,0.250001X-1.099999X-1.099999X1.099999X-1.099999X1.099999X1.099999X-1.099999X1.099999X0*%
G04 #@! TD*
G04 #@! TA.AperFunction,ComponentPad*
%ADD19C,2.700000*%
G04 #@! TD*
G04 #@! TA.AperFunction,SMDPad,CuDef*
%ADD20RoundRect,0.225000X0.250000X-0.225000X0.250000X0.225000X-0.250000X0.225000X-0.250000X-0.225000X0*%
G04 #@! TD*
G04 #@! TA.AperFunction,SMDPad,CuDef*
%ADD21RoundRect,0.225000X-0.250000X0.225000X-0.250000X-0.225000X0.250000X-0.225000X0.250000X0.225000X0*%
G04 #@! TD*
G04 #@! TA.AperFunction,ComponentPad*
%ADD22C,2.000000*%
G04 #@! TD*
G04 #@! TA.AperFunction,ComponentPad*
%ADD23R,2.000000X2.000000*%
G04 #@! TD*
G04 #@! TA.AperFunction,SMDPad,CuDef*
%ADD24RoundRect,0.250000X1.100000X-0.325000X1.100000X0.325000X-1.100000X0.325000X-1.100000X-0.325000X0*%
G04 #@! TD*
G04 #@! TA.AperFunction,SMDPad,CuDef*
%ADD25RoundRect,0.250000X0.262500X0.450000X-0.262500X0.450000X-0.262500X-0.450000X0.262500X-0.450000X0*%
G04 #@! TD*
G04 #@! TA.AperFunction,SMDPad,CuDef*
%ADD26RoundRect,0.250000X-0.262500X-0.450000X0.262500X-0.450000X0.262500X0.450000X-0.262500X0.450000X0*%
G04 #@! TD*
G04 #@! TA.AperFunction,SMDPad,CuDef*
%ADD27RoundRect,0.249999X0.450001X1.425001X-0.450001X1.425001X-0.450001X-1.425001X0.450001X-1.425001X0*%
G04 #@! TD*
G04 #@! TA.AperFunction,SMDPad,CuDef*
%ADD28RoundRect,0.249999X-0.450001X-1.425001X0.450001X-1.425001X0.450001X1.425001X-0.450001X1.425001X0*%
G04 #@! TD*
G04 #@! TA.AperFunction,SMDPad,CuDef*
%ADD29R,2.500000X1.800000*%
G04 #@! TD*
G04 #@! TA.AperFunction,SMDPad,CuDef*
%ADD30RoundRect,0.150000X0.512500X0.150000X-0.512500X0.150000X-0.512500X-0.150000X0.512500X-0.150000X0*%
G04 #@! TD*
G04 #@! TA.AperFunction,SMDPad,CuDef*
%ADD31RoundRect,0.150000X-0.512500X-0.150000X0.512500X-0.150000X0.512500X0.150000X-0.512500X0.150000X0*%
G04 #@! TD*
G04 #@! TA.AperFunction,ComponentPad*
%ADD32O,2.500000X4.500000*%
G04 #@! TD*
G04 #@! TA.AperFunction,ComponentPad*
%ADD33R,2.500000X4.500000*%
G04 #@! TD*
G04 #@! TA.AperFunction,ComponentPad*
%ADD34C,6.400000*%
G04 #@! TD*
G04 #@! TA.AperFunction,ComponentPad*
%ADD35C,0.800000*%
G04 #@! TD*
G04 #@! TA.AperFunction,ComponentPad*
%ADD36C,11.000000*%
G04 #@! TD*
G04 #@! TA.AperFunction,ComponentPad*
%ADD37C,0.900000*%
G04 #@! TD*
G04 #@! TA.AperFunction,ViaPad*
%ADD38C,0.800000*%
G04 #@! TD*
G04 #@! TA.AperFunction,Conductor*
%ADD39C,5.000000*%
G04 #@! TD*
G04 #@! TA.AperFunction,Conductor*
%ADD40C,2.500000*%
G04 #@! TD*
G04 #@! TA.AperFunction,Conductor*
%ADD41C,0.200000*%
G04 #@! TD*
G04 #@! TA.AperFunction,Conductor*
%ADD42C,0.500000*%
G04 #@! TD*
G04 #@! TA.AperFunction,Conductor*
%ADD43C,1.000000*%
G04 #@! TD*
G04 APERTURE END LIST*
D10*
X124000000Y-98000000D03*
X143000000Y-98000000D03*
X162000000Y-98000000D03*
X191500000Y-101500000D03*
X191500000Y-94500000D03*
D11*
X159750000Y-143200000D03*
D12*
X161750000Y-143200000D03*
D13*
X161750000Y-52050000D03*
D12*
X159750000Y-52050000D03*
D11*
X167000000Y-143200000D03*
D12*
X169000000Y-143200000D03*
D13*
X169000000Y-52050000D03*
D12*
X167000000Y-52050000D03*
D14*
X191550000Y-78500000D03*
D15*
X191550000Y-80500000D03*
D11*
X174250000Y-143200000D03*
D12*
X176250000Y-143200000D03*
D13*
X176250000Y-52000000D03*
D12*
X174250000Y-52000000D03*
D16*
X142270000Y-141310000D03*
X139730000Y-141310000D03*
X139730000Y-133690000D03*
X142270000Y-133690000D03*
D17*
X151730000Y-54190000D03*
X154270000Y-54190000D03*
X154270000Y-61810000D03*
X151730000Y-61810000D03*
D16*
X154270000Y-141310000D03*
X151730000Y-141310000D03*
X151730000Y-133690000D03*
X154270000Y-133690000D03*
X148270000Y-141310000D03*
X145730000Y-141310000D03*
X145730000Y-133690000D03*
X148270000Y-133690000D03*
D17*
X145730000Y-61810000D03*
X148270000Y-61810000D03*
X148270000Y-54190000D03*
X145730000Y-54190000D03*
X139730000Y-54190000D03*
X142270000Y-54190000D03*
X142270000Y-61810000D03*
X139730000Y-61810000D03*
D18*
X114012500Y-52700000D03*
D19*
X117972500Y-52700000D03*
X121932500Y-52700000D03*
D20*
X173000000Y-110050000D03*
X173000000Y-108500000D03*
X174500000Y-110050000D03*
X174500000Y-108500000D03*
X176000000Y-110050000D03*
X176000000Y-108500000D03*
D21*
X159000000Y-85950000D03*
X159000000Y-87500000D03*
X157500000Y-85950000D03*
X157500000Y-87500000D03*
X156000000Y-85950000D03*
X156000000Y-87500000D03*
D20*
X154000000Y-110050000D03*
X154000000Y-108500000D03*
X155500000Y-108500000D03*
X155500000Y-110050000D03*
X157000000Y-108500000D03*
X157000000Y-110050000D03*
D21*
X140000000Y-87500000D03*
X140000000Y-85950000D03*
X138500000Y-87500000D03*
X138500000Y-85950000D03*
X137000000Y-87500000D03*
X137000000Y-85950000D03*
D20*
X135000000Y-108500000D03*
X135000000Y-110050000D03*
X136500000Y-108500000D03*
X136500000Y-110050000D03*
X138000000Y-108500000D03*
X138000000Y-110050000D03*
D21*
X121000000Y-87500000D03*
X121000000Y-85950000D03*
X119500000Y-87500000D03*
X119500000Y-85950000D03*
X118000000Y-87500000D03*
X118000000Y-85950000D03*
D22*
X105632323Y-129500000D03*
D23*
X100632323Y-129500000D03*
D22*
X105632323Y-117000000D03*
D23*
X100632323Y-117000000D03*
X100632323Y-104500000D03*
D22*
X105632323Y-104500000D03*
D23*
X105500000Y-92000000D03*
D22*
X100500000Y-92000000D03*
D23*
X105750000Y-67000000D03*
D22*
X100750000Y-67000000D03*
D24*
X170000000Y-96525000D03*
X170000000Y-99475000D03*
X151000000Y-99475000D03*
X151000000Y-96525000D03*
D23*
X105750000Y-79500000D03*
D22*
X100750000Y-79500000D03*
D24*
X132000000Y-96525000D03*
X132000000Y-99475000D03*
D25*
X123087500Y-82000000D03*
X124912500Y-82000000D03*
D26*
X129912500Y-112500000D03*
X128087500Y-112500000D03*
D27*
X127450000Y-86500000D03*
X133550000Y-86500000D03*
D28*
X128550000Y-109500000D03*
X122450000Y-109500000D03*
D25*
X142175000Y-82000000D03*
X144000000Y-82000000D03*
D26*
X149412500Y-112500000D03*
X147587500Y-112500000D03*
D27*
X146450000Y-86500000D03*
X152550000Y-86500000D03*
D28*
X147550000Y-109500000D03*
X141450000Y-109500000D03*
D26*
X172087500Y-112500000D03*
X173912500Y-112500000D03*
D28*
X160450000Y-109500000D03*
X166550000Y-109500000D03*
D27*
X171550000Y-86500000D03*
X165450000Y-86500000D03*
D26*
X166587500Y-112500000D03*
X168412500Y-112500000D03*
D25*
X166912500Y-82000000D03*
X165087500Y-82000000D03*
D29*
X157250000Y-82500000D03*
X153250000Y-82500000D03*
X134250000Y-82500000D03*
X138250000Y-82500000D03*
D26*
X134087500Y-112500000D03*
X135912500Y-112500000D03*
D30*
X168862500Y-108550000D03*
X168862500Y-110450000D03*
X171137500Y-110450000D03*
X171137500Y-109500000D03*
X171137500Y-108550000D03*
D31*
X163137500Y-87450000D03*
X163137500Y-85550000D03*
X160862500Y-85550000D03*
X160862500Y-86500000D03*
X160862500Y-87450000D03*
D30*
X152137500Y-108550000D03*
X152137500Y-109500000D03*
X152137500Y-110450000D03*
X149862500Y-110450000D03*
X149862500Y-108550000D03*
D31*
X144137500Y-87450000D03*
X144137500Y-85550000D03*
X141862500Y-85550000D03*
X141862500Y-86500000D03*
X141862500Y-87450000D03*
D30*
X133137500Y-108550000D03*
X133137500Y-109500000D03*
X133137500Y-110450000D03*
X130862500Y-110450000D03*
X130862500Y-108550000D03*
D31*
X122862500Y-87450000D03*
X122862500Y-86500000D03*
X122862500Y-85550000D03*
X125137500Y-85550000D03*
X125137500Y-87450000D03*
D25*
X161087500Y-82000000D03*
X162912500Y-82000000D03*
X147912500Y-82000000D03*
X146087500Y-82000000D03*
D26*
X154912500Y-112500000D03*
X153087500Y-112500000D03*
D25*
X129000000Y-82000000D03*
X127175000Y-82000000D03*
D32*
X171450000Y-104500000D03*
X166000000Y-104500000D03*
D33*
X160550000Y-104500000D03*
X171450000Y-91500000D03*
D32*
X166000000Y-91500000D03*
X160550000Y-91500000D03*
D33*
X141550000Y-104500000D03*
D32*
X147000000Y-104500000D03*
X152450000Y-104500000D03*
D33*
X152450000Y-91500000D03*
D32*
X147000000Y-91500000D03*
X141550000Y-91500000D03*
D33*
X122550000Y-104500000D03*
D32*
X128000000Y-104500000D03*
X133450000Y-104500000D03*
D33*
X133450000Y-91500000D03*
D32*
X128000000Y-91500000D03*
X122550000Y-91500000D03*
D29*
X115250000Y-82500000D03*
X119250000Y-82500000D03*
D34*
X187000000Y-58000000D03*
D35*
X189400000Y-58000000D03*
X188697056Y-59697056D03*
X187000000Y-60400000D03*
X185302944Y-59697056D03*
X184600000Y-58000000D03*
X185302944Y-56302944D03*
X187000000Y-55600000D03*
X188697056Y-56302944D03*
D34*
X187000000Y-138000000D03*
D35*
X189400000Y-138000000D03*
X188697056Y-139697056D03*
X187000000Y-140400000D03*
X185302944Y-139697056D03*
X184600000Y-138000000D03*
X185302944Y-136302944D03*
X187000000Y-135600000D03*
X188697056Y-136302944D03*
D34*
X107000000Y-138000000D03*
D35*
X109400000Y-138000000D03*
X108697056Y-139697056D03*
X107000000Y-140400000D03*
X105302944Y-139697056D03*
X104600000Y-138000000D03*
X105302944Y-136302944D03*
X107000000Y-135600000D03*
X108697056Y-136302944D03*
D34*
X107000000Y-58000000D03*
D35*
X109400000Y-58000000D03*
X108697056Y-59697056D03*
X107000000Y-60400000D03*
X105302944Y-59697056D03*
X104600000Y-58000000D03*
X105302944Y-56302944D03*
X107000000Y-55600000D03*
X108697056Y-56302944D03*
D36*
X117000000Y-128000000D03*
D37*
X112875000Y-128000000D03*
X114073185Y-130926815D03*
X117000000Y-132125000D03*
X119926815Y-130926815D03*
X121125000Y-128000000D03*
X119926815Y-125073185D03*
X117000000Y-123875000D03*
X114073185Y-125073185D03*
D36*
X177000000Y-68000000D03*
D37*
X172875000Y-68000000D03*
X174073185Y-70926815D03*
X177000000Y-72125000D03*
X179926815Y-70926815D03*
X181125000Y-68000000D03*
X179926815Y-65073185D03*
X177000000Y-63875000D03*
X174073185Y-65073185D03*
D36*
X177000000Y-128000000D03*
D37*
X172875000Y-128000000D03*
X174073185Y-130926815D03*
X177000000Y-132125000D03*
X179926815Y-130926815D03*
X181125000Y-128000000D03*
X179926815Y-125073185D03*
X177000000Y-123875000D03*
X174073185Y-125073185D03*
D36*
X117000000Y-68000000D03*
D37*
X112875000Y-68000000D03*
X114073185Y-70926815D03*
X117000000Y-72125000D03*
X119926815Y-70926815D03*
X121125000Y-68000000D03*
X119926815Y-65073185D03*
X117000000Y-63875000D03*
X114073185Y-65073185D03*
D38*
X176849500Y-100500000D03*
X168500000Y-93500000D03*
X168500000Y-92500000D03*
X168500000Y-91500000D03*
X168500000Y-90500000D03*
X149500000Y-93500000D03*
X149500000Y-92500000D03*
X149500000Y-91500000D03*
X149500000Y-90500000D03*
X130500000Y-93500000D03*
X130500000Y-92500000D03*
X130500000Y-91500000D03*
X130500000Y-90500000D03*
X131000000Y-95500000D03*
X132000000Y-95500000D03*
X133000000Y-95500000D03*
X134500000Y-95500000D03*
X135500000Y-95500000D03*
X136500000Y-95500000D03*
X150000000Y-95500000D03*
X151000000Y-95500000D03*
X152000000Y-95500000D03*
X153500000Y-95500000D03*
X154500000Y-95500000D03*
X155500000Y-95500000D03*
X169000000Y-95500000D03*
X170000000Y-95500000D03*
X171000000Y-95500000D03*
X172500000Y-95500000D03*
X173500000Y-95500000D03*
X174500000Y-95500000D03*
X131500000Y-103000000D03*
X132000000Y-102000000D03*
X131000000Y-102000000D03*
X133000000Y-101000000D03*
X132000000Y-101000000D03*
X131000000Y-101000000D03*
X136500000Y-103000000D03*
X135500000Y-103000000D03*
X135000000Y-102000000D03*
X136000000Y-102000000D03*
X134500000Y-101000000D03*
X135500000Y-101000000D03*
X136500000Y-101000000D03*
X174500000Y-103000000D03*
X173500000Y-103000000D03*
X174000000Y-102000000D03*
X173000000Y-102000000D03*
X169500000Y-103000000D03*
X170000000Y-102000000D03*
X169000000Y-102000000D03*
X174500000Y-101000000D03*
X173500000Y-101000000D03*
X172500000Y-101000000D03*
X171000000Y-101000000D03*
X170000000Y-101000000D03*
X169000000Y-101000000D03*
X150500000Y-103000000D03*
X155500000Y-103000000D03*
X154500000Y-103000000D03*
X154000000Y-102000000D03*
X151000000Y-102000000D03*
X150000000Y-102000000D03*
X155000000Y-102000000D03*
X153500000Y-101000000D03*
X154500000Y-101000000D03*
X155500000Y-101000000D03*
X152000000Y-101000000D03*
X151000000Y-101000000D03*
X150000000Y-101000000D03*
D39*
X100750000Y-67000000D02*
X100750000Y-96000000D01*
X100750000Y-96000000D02*
X105632323Y-100882323D01*
X105632323Y-100882323D02*
X105632323Y-104500000D01*
D40*
X117972500Y-52700000D02*
X117972500Y-52056517D01*
X100750000Y-54750000D02*
X100750000Y-67000000D01*
X117972500Y-52056517D02*
X115816463Y-49900480D01*
X115816463Y-49900480D02*
X105599520Y-49900480D01*
X105599520Y-49900480D02*
X100750000Y-54750000D01*
D41*
X154270000Y-54190000D02*
X156494982Y-54190000D01*
X156494982Y-54190000D02*
X158704500Y-56399518D01*
X158704500Y-56399518D02*
X171850481Y-56399519D01*
X171850481Y-56399519D02*
X176250000Y-52000000D01*
D42*
X176849500Y-80650500D02*
X176849500Y-100500000D01*
X177000000Y-80500000D02*
X176849500Y-80650500D01*
X191550000Y-80500000D02*
X177000000Y-80500000D01*
X191550000Y-78500000D02*
X176112015Y-78500000D01*
X176112015Y-78500000D02*
X176000000Y-78387985D01*
D41*
X176250000Y-143200000D02*
X176002138Y-143200000D01*
X176002138Y-143200000D02*
X172302138Y-139500000D01*
X172302138Y-139500000D02*
X158250000Y-139500000D01*
X154960000Y-142000000D02*
X154270000Y-141310000D01*
X158250000Y-139500000D02*
X155750000Y-142000000D01*
X155750000Y-142000000D02*
X154960000Y-142000000D01*
X161750000Y-143200000D02*
X160575480Y-142025480D01*
X160575480Y-142025480D02*
X159172382Y-142025480D01*
X159172382Y-142025480D02*
X158850480Y-142347382D01*
X157084514Y-145850480D02*
X144850480Y-145850480D01*
X158850480Y-142347382D02*
X158850480Y-144084514D01*
X158850480Y-144084514D02*
X157084514Y-145850480D01*
X144850480Y-145850480D02*
X142270000Y-143270000D01*
X142270000Y-143270000D02*
X142270000Y-141310000D01*
X151730000Y-141310000D02*
X151730000Y-141480000D01*
X158535474Y-139899520D02*
X172136652Y-139899520D01*
X151730000Y-141480000D02*
X153000000Y-142750000D01*
X153000000Y-142750000D02*
X155684994Y-142750000D01*
X155684994Y-142750000D02*
X158535474Y-139899520D01*
X172136652Y-139899520D02*
X174250000Y-142012868D01*
X174250000Y-142012868D02*
X174250000Y-143200000D01*
X145730000Y-141310000D02*
X149170000Y-144750000D01*
X149170000Y-144750000D02*
X155500000Y-144750000D01*
X155500000Y-144750000D02*
X159350480Y-140899520D01*
X159350480Y-140899520D02*
X166134514Y-140899520D01*
X166134514Y-140899520D02*
X167000000Y-141765006D01*
X167000000Y-141765006D02*
X167000000Y-143200000D01*
X169000000Y-143200000D02*
X166300000Y-140500000D01*
X159184994Y-140500000D02*
X155334514Y-144350480D01*
X166300000Y-140500000D02*
X159184994Y-140500000D01*
X155334514Y-144350480D02*
X149350480Y-144350480D01*
X149350480Y-144350480D02*
X148270000Y-143270000D01*
X148270000Y-143270000D02*
X148270000Y-141310000D01*
X159750000Y-143200000D02*
X159750000Y-143750000D01*
X159750000Y-143750000D02*
X157250000Y-146250000D01*
X157250000Y-146250000D02*
X144670000Y-146250000D01*
X144670000Y-146250000D02*
X139730000Y-141310000D01*
X167000000Y-52050000D02*
X167000000Y-53484994D01*
X167000000Y-53484994D02*
X166234994Y-54250000D01*
X145730000Y-53454994D02*
X145730000Y-54190000D01*
X166234994Y-54250000D02*
X158750000Y-54250000D01*
X158750000Y-54250000D02*
X155250000Y-50750000D01*
X155250000Y-50750000D02*
X148434994Y-50750000D01*
X148434994Y-50750000D02*
X145730000Y-53454994D01*
X174250000Y-52000000D02*
X174250000Y-53434994D01*
X158869987Y-55999999D02*
X155619988Y-52750000D01*
X174250000Y-53434994D02*
X171684995Y-55999999D01*
X171684995Y-55999999D02*
X158869987Y-55999999D01*
X155619988Y-52750000D02*
X153525000Y-52750000D01*
X153525000Y-52750000D02*
X152085000Y-54190000D01*
X152085000Y-54190000D02*
X151730000Y-54190000D01*
X161750000Y-52050000D02*
X160550000Y-53250000D01*
X160550000Y-53250000D02*
X159402887Y-53250000D01*
X142270000Y-52230000D02*
X142270000Y-54190000D01*
X159402887Y-53250000D02*
X158850480Y-52697593D01*
X158850480Y-52697593D02*
X158850480Y-51715486D01*
X158850480Y-51715486D02*
X157284514Y-50149520D01*
X157284514Y-50149520D02*
X144350480Y-50149520D01*
X144350480Y-50149520D02*
X142270000Y-52230000D01*
X148270000Y-54190000D02*
X148270000Y-51480000D01*
X148600480Y-51149520D02*
X155084514Y-51149520D01*
X148270000Y-51480000D02*
X148600480Y-51149520D01*
X155084514Y-51149520D02*
X158584513Y-54649519D01*
X158584513Y-54649519D02*
X166400480Y-54649520D01*
X166400480Y-54649520D02*
X169000000Y-52050000D01*
X159750000Y-52050000D02*
X157450000Y-49750000D01*
X157450000Y-49750000D02*
X144170000Y-49750000D01*
X144170000Y-49750000D02*
X139730000Y-54190000D01*
D42*
X150000000Y-58500000D02*
X144000000Y-58500000D01*
X176000000Y-108500000D02*
X176000000Y-78387985D01*
X156112015Y-58500000D02*
X150000000Y-58500000D01*
X176000000Y-78387985D02*
X156112015Y-58500000D01*
X150000000Y-58500000D02*
X150000000Y-79250000D01*
X150000000Y-79250000D02*
X153250000Y-82500000D01*
X153250000Y-82500000D02*
X154250000Y-83500000D01*
X154250000Y-87500000D02*
X157000000Y-90250000D01*
X154250000Y-83500000D02*
X154250000Y-87500000D01*
X157000000Y-90250000D02*
X157000000Y-108500000D01*
X134250000Y-82500000D02*
X135250000Y-83500000D01*
X135250000Y-83500000D02*
X135250000Y-87500000D01*
X135250000Y-87500000D02*
X138000000Y-90250000D01*
X138000000Y-90250000D02*
X138000000Y-108500000D01*
X144000000Y-58500000D02*
X144000000Y-63250000D01*
X144000000Y-63250000D02*
X134250000Y-73000000D01*
X134250000Y-73000000D02*
X134250000Y-82500000D01*
X144000000Y-58500000D02*
X137887985Y-58500000D01*
X137887985Y-58500000D02*
X115250000Y-81137985D01*
X115250000Y-81137985D02*
X115250000Y-82500000D01*
X122000000Y-83576076D02*
X121000000Y-84576076D01*
X121000000Y-84576076D02*
X121000000Y-85950000D01*
X122000000Y-80892015D02*
X122000000Y-83576076D01*
X142105000Y-61810000D02*
X123087500Y-80827500D01*
X139730000Y-63162015D02*
X122000000Y-80892015D01*
X142270000Y-61810000D02*
X142105000Y-61810000D01*
X123087500Y-80827500D02*
X123087500Y-82000000D01*
X139730000Y-61810000D02*
X139730000Y-63162015D01*
X159500000Y-85450000D02*
X159000000Y-85950000D01*
X154270000Y-61810000D02*
X154750000Y-62290000D01*
X151730000Y-61810000D02*
X154000000Y-64080000D01*
X154750000Y-62290000D02*
X154750000Y-75662500D01*
X154000000Y-64080000D02*
X154000000Y-75901770D01*
X154750000Y-75662500D02*
X161087500Y-82000000D01*
X154000000Y-75901770D02*
X159500000Y-81401770D01*
X159500000Y-81401770D02*
X159500000Y-85450000D01*
X138000000Y-112000000D02*
X140929520Y-114929520D01*
X140230000Y-133190000D02*
X140230000Y-115230000D01*
X139730000Y-133690000D02*
X140230000Y-133190000D01*
X140230000Y-115230000D02*
X137500000Y-112500000D01*
X137500000Y-112500000D02*
X135912500Y-112500000D01*
X138000000Y-110050000D02*
X138000000Y-112000000D01*
X140929520Y-114929520D02*
X140929520Y-132349520D01*
X140929520Y-132349520D02*
X142270000Y-133690000D01*
X175000000Y-113500000D02*
X175000000Y-110550000D01*
X173250000Y-115250000D02*
X175000000Y-113500000D01*
X170659270Y-115250000D02*
X173250000Y-115250000D01*
X154270000Y-131639270D02*
X170659270Y-115250000D01*
X154270000Y-133690000D02*
X154270000Y-131639270D01*
X151730000Y-133190000D02*
X151730000Y-133690000D01*
X171912500Y-114500000D02*
X170420000Y-114500000D01*
X173912500Y-112500000D02*
X171912500Y-114500000D01*
X170420000Y-114500000D02*
X151730000Y-133190000D01*
X175000000Y-110550000D02*
X174500000Y-110050000D01*
X174500000Y-110050000D02*
X176000000Y-110050000D01*
X145730000Y-133690000D02*
X155250000Y-124170000D01*
X155250000Y-124170000D02*
X155250000Y-112837500D01*
X155250000Y-112837500D02*
X154912500Y-112500000D01*
X148270000Y-133690000D02*
X148270000Y-132139270D01*
X148270000Y-132139270D02*
X156000000Y-124409270D01*
X156000000Y-124409270D02*
X156000000Y-111050000D01*
X156000000Y-111050000D02*
X157000000Y-110050000D01*
X148270000Y-61810000D02*
X148270000Y-62980000D01*
X141699520Y-81524520D02*
X142175000Y-82000000D01*
X148270000Y-62980000D02*
X141699520Y-69550480D01*
X141699520Y-69550480D02*
X141699520Y-81524520D01*
X145730000Y-61810000D02*
X145730000Y-64520000D01*
X145730000Y-64520000D02*
X141000000Y-69250000D01*
X141000000Y-69250000D02*
X141000000Y-83076076D01*
X141000000Y-83076076D02*
X140000000Y-84076076D01*
X140000000Y-84076076D02*
X140000000Y-85950000D01*
X156000000Y-87500000D02*
X155075480Y-86575480D01*
X155075480Y-86575480D02*
X155075480Y-84674520D01*
X155075480Y-84674520D02*
X157250000Y-82500000D01*
X137000000Y-87500000D02*
X136500000Y-87500000D01*
X136500000Y-87500000D02*
X136075480Y-87075480D01*
X136075480Y-87075480D02*
X136075480Y-84674520D01*
X136075480Y-84674520D02*
X138250000Y-82500000D01*
X117075480Y-87075480D02*
X117500000Y-87500000D01*
X119250000Y-82500000D02*
X117470605Y-84279395D01*
X117470605Y-84279395D02*
X117470605Y-85050480D01*
X117470605Y-85050480D02*
X117075480Y-85445605D01*
X117075480Y-85445605D02*
X117075480Y-87075480D01*
X117500000Y-87500000D02*
X118000000Y-87500000D01*
D39*
X105632323Y-104500000D02*
X105632323Y-129500000D01*
D42*
X131812500Y-109500000D02*
X131974520Y-109337980D01*
X131974520Y-109337980D02*
X131974520Y-105975480D01*
X131974520Y-105975480D02*
X133450000Y-104500000D01*
X150812500Y-109500000D02*
X150974520Y-109337980D01*
X150974520Y-109337980D02*
X150974520Y-105975480D01*
X150974520Y-105975480D02*
X152450000Y-104500000D01*
X169812500Y-109500000D02*
X169974520Y-109337980D01*
X169974520Y-109337980D02*
X169974520Y-105975480D01*
X169974520Y-105975480D02*
X171450000Y-104500000D01*
X162187500Y-86500000D02*
X162025480Y-86662020D01*
X162025480Y-86662020D02*
X162025480Y-90024520D01*
X162025480Y-90024520D02*
X160550000Y-91500000D01*
X143187500Y-86500000D02*
X143025480Y-86662020D01*
X143025480Y-86662020D02*
X143025480Y-90024520D01*
X143025480Y-90024520D02*
X141550000Y-91500000D01*
X124187500Y-86500000D02*
X124025480Y-86662020D01*
X124025480Y-86662020D02*
X124025480Y-90024520D01*
X124025480Y-90024520D02*
X122550000Y-91500000D01*
X122862500Y-86500000D02*
X124187500Y-86500000D01*
X124187500Y-86500000D02*
X125137500Y-85550000D01*
X125137500Y-87450000D02*
X126500000Y-87450000D01*
X126500000Y-87450000D02*
X127450000Y-86500000D01*
X129000000Y-82000000D02*
X129000000Y-84950000D01*
X129000000Y-84950000D02*
X127450000Y-86500000D01*
X147912500Y-82000000D02*
X147912500Y-85037500D01*
X147912500Y-85037500D02*
X146450000Y-86500000D01*
X166912500Y-82000000D02*
X166912500Y-85037500D01*
X166912500Y-85037500D02*
X165450000Y-86500000D01*
X124912500Y-82000000D02*
X124912500Y-83500000D01*
X124912500Y-83500000D02*
X122862500Y-85550000D01*
X124912500Y-82000000D02*
X127175000Y-82000000D01*
X144000000Y-82000000D02*
X146087500Y-82000000D01*
X165087500Y-82000000D02*
X162912500Y-82000000D01*
X162912500Y-82000000D02*
X162912500Y-83500000D01*
X162912500Y-83500000D02*
X160862500Y-85550000D01*
X144000000Y-82000000D02*
X144000000Y-83412500D01*
X144000000Y-83412500D02*
X141862500Y-85550000D01*
X122862500Y-87450000D02*
X118050000Y-87450000D01*
X118050000Y-87450000D02*
X118000000Y-87500000D01*
X121000000Y-85950000D02*
X121550000Y-86500000D01*
X121550000Y-86500000D02*
X122862500Y-86500000D01*
X118000000Y-85950000D02*
X121000000Y-85950000D01*
X137000000Y-85950000D02*
X140000000Y-85950000D01*
X141862500Y-86500000D02*
X140550000Y-86500000D01*
X140550000Y-86500000D02*
X140000000Y-85950000D01*
X141862500Y-87450000D02*
X137050000Y-87450000D01*
X137050000Y-87450000D02*
X137000000Y-87500000D01*
X144137500Y-85550000D02*
X143187500Y-86500000D01*
X143187500Y-86500000D02*
X141862500Y-86500000D01*
X160862500Y-87450000D02*
X156050000Y-87450000D01*
X156050000Y-87450000D02*
X156000000Y-87500000D01*
X159000000Y-85950000D02*
X156000000Y-85950000D01*
X160862500Y-86500000D02*
X159550000Y-86500000D01*
X159550000Y-86500000D02*
X159000000Y-85950000D01*
X163137500Y-85550000D02*
X162187500Y-86500000D01*
X162187500Y-86500000D02*
X160862500Y-86500000D01*
X163137500Y-87450000D02*
X164500000Y-87450000D01*
X164500000Y-87450000D02*
X165450000Y-86500000D01*
X144137500Y-87450000D02*
X145500000Y-87450000D01*
X145500000Y-87450000D02*
X146450000Y-86500000D01*
X168412500Y-112500000D02*
X171000000Y-112500000D01*
X171000000Y-112500000D02*
X172087500Y-112500000D01*
X171137500Y-110450000D02*
X171137500Y-112362500D01*
X171137500Y-112362500D02*
X171000000Y-112500000D01*
X166550000Y-109500000D02*
X166550000Y-112462500D01*
X166550000Y-112462500D02*
X166587500Y-112500000D01*
X147550000Y-109500000D02*
X147550000Y-112462500D01*
X147550000Y-112462500D02*
X147587500Y-112500000D01*
X149412500Y-112500000D02*
X152000000Y-112500000D01*
X152000000Y-112500000D02*
X153087500Y-112500000D01*
X152137500Y-110450000D02*
X152137500Y-112362500D01*
X152137500Y-112362500D02*
X152000000Y-112500000D01*
X129912500Y-112500000D02*
X133000000Y-112500000D01*
X133137500Y-110450000D02*
X133137500Y-112362500D01*
X133000000Y-112500000D02*
X134087500Y-112500000D01*
X133137500Y-112362500D02*
X133000000Y-112500000D01*
X128550000Y-109500000D02*
X128550000Y-112037500D01*
X128550000Y-112037500D02*
X128087500Y-112500000D01*
X128550000Y-109500000D02*
X129912500Y-109500000D01*
X129912500Y-109500000D02*
X130862500Y-108550000D01*
X133137500Y-108550000D02*
X137950000Y-108550000D01*
X137950000Y-108550000D02*
X138000000Y-108500000D01*
X135000000Y-110050000D02*
X138000000Y-110050000D01*
X133137500Y-109500000D02*
X134450000Y-109500000D01*
X134450000Y-109500000D02*
X135000000Y-110050000D01*
X130862500Y-110450000D02*
X131812500Y-109500000D01*
X131812500Y-109500000D02*
X133137500Y-109500000D01*
X173000000Y-110050000D02*
X176000000Y-110050000D01*
X171137500Y-109500000D02*
X172450000Y-109500000D01*
X172450000Y-109500000D02*
X173000000Y-110050000D01*
X168862500Y-110450000D02*
X169812500Y-109500000D01*
X169812500Y-109500000D02*
X171137500Y-109500000D01*
X171137500Y-108550000D02*
X175950000Y-108550000D01*
X175950000Y-108550000D02*
X176000000Y-108500000D01*
X166550000Y-109500000D02*
X167912500Y-109500000D01*
X167912500Y-109500000D02*
X168862500Y-108550000D01*
X149862500Y-110450000D02*
X150812500Y-109500000D01*
X150812500Y-109500000D02*
X152137500Y-109500000D01*
X147550000Y-109500000D02*
X148912500Y-109500000D01*
X148912500Y-109500000D02*
X149862500Y-108550000D01*
X157000000Y-110050000D02*
X154000000Y-110050000D01*
X152137500Y-109500000D02*
X153450000Y-109500000D01*
X153450000Y-109500000D02*
X154000000Y-110050000D01*
X157000000Y-108500000D02*
X152187500Y-108500000D01*
X152187500Y-108500000D02*
X152137500Y-108550000D01*
D43*
X160450000Y-109500000D02*
X160450000Y-104600000D01*
X160450000Y-104600000D02*
X160550000Y-104500000D01*
X141450000Y-109500000D02*
X141450000Y-104600000D01*
X141450000Y-104600000D02*
X141550000Y-104500000D01*
X122450000Y-109500000D02*
X122450000Y-104600000D01*
X122450000Y-104600000D02*
X122550000Y-104500000D01*
X133550000Y-86500000D02*
X133550000Y-91400000D01*
X133550000Y-91400000D02*
X133450000Y-91500000D01*
X152550000Y-86500000D02*
X152550000Y-91400000D01*
X152550000Y-91400000D02*
X152450000Y-91500000D01*
X171550000Y-86500000D02*
X171550000Y-91400000D01*
X171550000Y-91400000D02*
X171450000Y-91500000D01*
G04 #@! TA.AperFunction,Conductor*
G36*
X125015931Y-89020002D02*
G01*
X125036905Y-89036905D01*
X125463095Y-89463095D01*
X125497121Y-89525407D01*
X125500000Y-89552190D01*
X125500000Y-94500000D01*
X129463095Y-98463095D01*
X129497121Y-98525407D01*
X129500000Y-98552190D01*
X129500000Y-105947810D01*
X129479998Y-106015931D01*
X129463095Y-106036905D01*
X128536905Y-106963095D01*
X128474593Y-106997121D01*
X128447810Y-107000000D01*
X126052190Y-107000000D01*
X125984069Y-106979998D01*
X125963095Y-106963095D01*
X125036905Y-106036905D01*
X125002879Y-105974593D01*
X125000000Y-105947810D01*
X125000000Y-102000000D01*
X124000000Y-101000000D01*
X121052190Y-101000000D01*
X120984069Y-100979998D01*
X120963095Y-100963095D01*
X120036905Y-100036905D01*
X120002879Y-99974593D01*
X120000000Y-99947810D01*
X120000000Y-89552190D01*
X120020002Y-89484069D01*
X120036905Y-89463095D01*
X120463095Y-89036905D01*
X120525407Y-89002879D01*
X120552190Y-89000000D01*
X124947810Y-89000000D01*
X125015931Y-89020002D01*
G37*
G04 #@! TD.AperFunction*
G04 #@! TA.AperFunction,Conductor*
G36*
X144015931Y-89020002D02*
G01*
X144036905Y-89036905D01*
X144463095Y-89463095D01*
X144497121Y-89525407D01*
X144500000Y-89552190D01*
X144500000Y-94500000D01*
X144507339Y-94506880D01*
X144507339Y-94506881D01*
X148460177Y-98212666D01*
X148496193Y-98273849D01*
X148500000Y-98304588D01*
X148500000Y-105947810D01*
X148479998Y-106015931D01*
X148463095Y-106036905D01*
X147536905Y-106963095D01*
X147474593Y-106997121D01*
X147447810Y-107000000D01*
X145052190Y-107000000D01*
X144984069Y-106979998D01*
X144963095Y-106963095D01*
X144036905Y-106036905D01*
X144002879Y-105974593D01*
X144000000Y-105947810D01*
X144000000Y-102000000D01*
X143000000Y-101000000D01*
X140052190Y-101000000D01*
X139984069Y-100979998D01*
X139963095Y-100963095D01*
X139036905Y-100036905D01*
X139002879Y-99974593D01*
X139000000Y-99947810D01*
X139000000Y-89552190D01*
X139020002Y-89484069D01*
X139036905Y-89463095D01*
X139463095Y-89036905D01*
X139525407Y-89002879D01*
X139552190Y-89000000D01*
X143947810Y-89000000D01*
X144015931Y-89020002D01*
G37*
G04 #@! TD.AperFunction*
G04 #@! TA.AperFunction,Conductor*
G36*
X163015931Y-89020002D02*
G01*
X163036905Y-89036905D01*
X163463095Y-89463095D01*
X163497121Y-89525407D01*
X163500000Y-89552190D01*
X163500000Y-94500000D01*
X167463095Y-98463095D01*
X167497121Y-98525407D01*
X167500000Y-98552190D01*
X167500000Y-105947810D01*
X167479998Y-106015931D01*
X167463095Y-106036905D01*
X166536905Y-106963095D01*
X166474593Y-106997121D01*
X166447810Y-107000000D01*
X164052190Y-107000000D01*
X163984069Y-106979998D01*
X163963095Y-106963095D01*
X163036905Y-106036905D01*
X163002879Y-105974593D01*
X163000000Y-105947810D01*
X163000000Y-102000000D01*
X162000000Y-101000000D01*
X159052190Y-101000000D01*
X158984069Y-100979998D01*
X158963095Y-100963095D01*
X158036905Y-100036905D01*
X158002879Y-99974593D01*
X158000000Y-99947810D01*
X158000000Y-89552190D01*
X158020002Y-89484069D01*
X158036905Y-89463095D01*
X158463095Y-89036905D01*
X158525407Y-89002879D01*
X158552190Y-89000000D01*
X162947810Y-89000000D01*
X163015931Y-89020002D01*
G37*
G04 #@! TD.AperFunction*
G04 #@! TA.AperFunction,Conductor*
G36*
X130015931Y-89020002D02*
G01*
X130036905Y-89036905D01*
X130963095Y-89963095D01*
X130997121Y-90025407D01*
X131000000Y-90052190D01*
X131000000Y-94000000D01*
X132000000Y-95000000D01*
X136874000Y-95000000D01*
X136942121Y-95020002D01*
X136988614Y-95073658D01*
X137000000Y-95126000D01*
X137000000Y-97374000D01*
X136979998Y-97442121D01*
X136926342Y-97488614D01*
X136874000Y-97500000D01*
X130054754Y-97500000D01*
X129986633Y-97479998D01*
X129962641Y-97459972D01*
X126533887Y-93786308D01*
X126502030Y-93722860D01*
X126500000Y-93700336D01*
X126500000Y-90052190D01*
X126520002Y-89984069D01*
X126536905Y-89963095D01*
X127463095Y-89036905D01*
X127525407Y-89002879D01*
X127552190Y-89000000D01*
X129947810Y-89000000D01*
X130015931Y-89020002D01*
G37*
G04 #@! TD.AperFunction*
G04 #@! TA.AperFunction,Conductor*
G36*
X149015931Y-89020002D02*
G01*
X149036905Y-89036905D01*
X149963095Y-89963095D01*
X149997121Y-90025407D01*
X150000000Y-90052190D01*
X150000000Y-94000000D01*
X151000000Y-95000000D01*
X155874000Y-95000000D01*
X155942121Y-95020002D01*
X155988614Y-95073658D01*
X156000000Y-95126000D01*
X156000000Y-97374000D01*
X155979998Y-97442121D01*
X155926342Y-97488614D01*
X155874000Y-97500000D01*
X149054754Y-97500000D01*
X148986633Y-97479998D01*
X148962641Y-97459972D01*
X145533887Y-93786308D01*
X145502030Y-93722860D01*
X145500000Y-93700336D01*
X145500000Y-90052190D01*
X145520002Y-89984069D01*
X145536905Y-89963095D01*
X146463095Y-89036905D01*
X146525407Y-89002879D01*
X146552190Y-89000000D01*
X148947810Y-89000000D01*
X149015931Y-89020002D01*
G37*
G04 #@! TD.AperFunction*
G04 #@! TA.AperFunction,Conductor*
G36*
X168015931Y-89020002D02*
G01*
X168036905Y-89036905D01*
X168963095Y-89963095D01*
X168997121Y-90025407D01*
X169000000Y-90052190D01*
X169000000Y-94000000D01*
X170000000Y-95000000D01*
X174874000Y-95000000D01*
X174942121Y-95020002D01*
X174988614Y-95073658D01*
X175000000Y-95126000D01*
X175000000Y-97374000D01*
X174979998Y-97442121D01*
X174926342Y-97488614D01*
X174874000Y-97500000D01*
X168052190Y-97500000D01*
X167984069Y-97479998D01*
X167963095Y-97463095D01*
X164536905Y-94036905D01*
X164502879Y-93974593D01*
X164500000Y-93947810D01*
X164500000Y-90052190D01*
X164520002Y-89984069D01*
X164536905Y-89963095D01*
X165463095Y-89036905D01*
X165525407Y-89002879D01*
X165552190Y-89000000D01*
X167947810Y-89000000D01*
X168015931Y-89020002D01*
G37*
G04 #@! TD.AperFunction*
G04 #@! TA.AperFunction,Conductor*
G36*
X136942121Y-98520002D02*
G01*
X136988614Y-98573658D01*
X137000000Y-98626000D01*
X137000000Y-105947810D01*
X136979998Y-106015931D01*
X136963095Y-106036905D01*
X136036905Y-106963095D01*
X135974593Y-106997121D01*
X135947810Y-107000000D01*
X131552190Y-107000000D01*
X131484069Y-106979998D01*
X131463095Y-106963095D01*
X130536905Y-106036905D01*
X130502879Y-105974593D01*
X130500000Y-105947810D01*
X130500000Y-98626000D01*
X130520002Y-98557879D01*
X130573658Y-98511386D01*
X130626000Y-98500000D01*
X136874000Y-98500000D01*
X136942121Y-98520002D01*
G37*
G04 #@! TD.AperFunction*
G04 #@! TA.AperFunction,Conductor*
G36*
X155942121Y-98520002D02*
G01*
X155988614Y-98573658D01*
X156000000Y-98626000D01*
X156000000Y-105947810D01*
X155979998Y-106015931D01*
X155963095Y-106036905D01*
X155036905Y-106963095D01*
X154974593Y-106997121D01*
X154947810Y-107000000D01*
X150552190Y-107000000D01*
X150484069Y-106979998D01*
X150463095Y-106963095D01*
X149536905Y-106036905D01*
X149502879Y-105974593D01*
X149500000Y-105947810D01*
X149500000Y-98626000D01*
X149520002Y-98557879D01*
X149573658Y-98511386D01*
X149626000Y-98500000D01*
X155874000Y-98500000D01*
X155942121Y-98520002D01*
G37*
G04 #@! TD.AperFunction*
G04 #@! TA.AperFunction,Conductor*
G36*
X174942121Y-98520002D02*
G01*
X174988614Y-98573658D01*
X175000000Y-98626000D01*
X175000000Y-105947810D01*
X174979998Y-106015931D01*
X174963095Y-106036905D01*
X174036905Y-106963095D01*
X173974593Y-106997121D01*
X173947810Y-107000000D01*
X169552190Y-107000000D01*
X169484069Y-106979998D01*
X169463095Y-106963095D01*
X168536905Y-106036905D01*
X168502879Y-105974593D01*
X168500000Y-105947810D01*
X168500000Y-98626000D01*
X168520002Y-98557879D01*
X168573658Y-98511386D01*
X168626000Y-98500000D01*
X174874000Y-98500000D01*
X174942121Y-98520002D01*
G37*
G04 #@! TD.AperFunction*
M02*
