G04 #@! TF.GenerationSoftware,KiCad,Pcbnew,8.0.6-1.fc41*
G04 #@! TF.CreationDate,2024-11-09T21:04:43-05:00*
G04 #@! TF.ProjectId,three_half_bridges,74687265-655f-4686-916c-665f62726964,rev?*
G04 #@! TF.SameCoordinates,Original*
G04 #@! TF.FileFunction,Legend,Bot*
G04 #@! TF.FilePolarity,Positive*
%FSLAX46Y46*%
G04 Gerber Fmt 4.6, Leading zero omitted, Abs format (unit mm)*
G04 Created by KiCad (PCBNEW 8.0.6-1.fc41) date 2024-11-09 21:04:43*
%MOMM*%
%LPD*%
G01*
G04 APERTURE LIST*
%ADD10C,0.120000*%
%ADD11C,0.500000*%
%ADD12C,0.150000*%
%ADD13C,0.153000*%
G04 APERTURE END LIST*
D10*
X170000000Y-120000000D02*
X170000000Y-40000000D01*
X116250000Y-120000000D02*
X90000000Y-120000000D01*
X90000000Y-40000000D02*
X90000000Y-120000000D01*
X170000000Y-40000000D02*
X90000000Y-40000000D01*
X143750000Y-120000000D02*
X170000000Y-120000000D01*
D11*
X167469000Y-88642857D02*
X167469000Y-86357143D01*
X123850761Y-38952381D02*
X123850761Y-38571428D01*
X123850761Y-38571428D02*
X123755523Y-38380952D01*
X123755523Y-38380952D02*
X123565047Y-38190476D01*
X123565047Y-38190476D02*
X123184095Y-38095238D01*
X123184095Y-38095238D02*
X122517428Y-38095238D01*
X122517428Y-38095238D02*
X122136476Y-38190476D01*
X122136476Y-38190476D02*
X121946000Y-38380952D01*
X121946000Y-38380952D02*
X121850761Y-38571428D01*
X121850761Y-38571428D02*
X121850761Y-38952381D01*
X121850761Y-38952381D02*
X121946000Y-39142857D01*
X121946000Y-39142857D02*
X122136476Y-39333333D01*
X122136476Y-39333333D02*
X122517428Y-39428571D01*
X122517428Y-39428571D02*
X123184095Y-39428571D01*
X123184095Y-39428571D02*
X123565047Y-39333333D01*
X123565047Y-39333333D02*
X123755523Y-39142857D01*
X123755523Y-39142857D02*
X123850761Y-38952381D01*
X123850761Y-37238095D02*
X122231714Y-37238095D01*
X122231714Y-37238095D02*
X122041238Y-37142857D01*
X122041238Y-37142857D02*
X121946000Y-37047619D01*
X121946000Y-37047619D02*
X121850761Y-36857143D01*
X121850761Y-36857143D02*
X121850761Y-36476190D01*
X121850761Y-36476190D02*
X121946000Y-36285714D01*
X121946000Y-36285714D02*
X122041238Y-36190476D01*
X122041238Y-36190476D02*
X122231714Y-36095238D01*
X122231714Y-36095238D02*
X123850761Y-36095238D01*
X123850761Y-35428571D02*
X123850761Y-34285714D01*
X121850761Y-34857143D02*
X123850761Y-34857143D01*
X123660285Y-33714285D02*
X123755523Y-33619047D01*
X123755523Y-33619047D02*
X123850761Y-33428571D01*
X123850761Y-33428571D02*
X123850761Y-32952380D01*
X123850761Y-32952380D02*
X123755523Y-32761904D01*
X123755523Y-32761904D02*
X123660285Y-32666666D01*
X123660285Y-32666666D02*
X123469809Y-32571428D01*
X123469809Y-32571428D02*
X123279333Y-32571428D01*
X123279333Y-32571428D02*
X122993619Y-32666666D01*
X122993619Y-32666666D02*
X121850761Y-33809523D01*
X121850761Y-33809523D02*
X121850761Y-32571428D01*
X107600761Y-38952381D02*
X107600761Y-38571428D01*
X107600761Y-38571428D02*
X107505523Y-38380952D01*
X107505523Y-38380952D02*
X107315047Y-38190476D01*
X107315047Y-38190476D02*
X106934095Y-38095238D01*
X106934095Y-38095238D02*
X106267428Y-38095238D01*
X106267428Y-38095238D02*
X105886476Y-38190476D01*
X105886476Y-38190476D02*
X105696000Y-38380952D01*
X105696000Y-38380952D02*
X105600761Y-38571428D01*
X105600761Y-38571428D02*
X105600761Y-38952381D01*
X105600761Y-38952381D02*
X105696000Y-39142857D01*
X105696000Y-39142857D02*
X105886476Y-39333333D01*
X105886476Y-39333333D02*
X106267428Y-39428571D01*
X106267428Y-39428571D02*
X106934095Y-39428571D01*
X106934095Y-39428571D02*
X107315047Y-39333333D01*
X107315047Y-39333333D02*
X107505523Y-39142857D01*
X107505523Y-39142857D02*
X107600761Y-38952381D01*
X107600761Y-37238095D02*
X105981714Y-37238095D01*
X105981714Y-37238095D02*
X105791238Y-37142857D01*
X105791238Y-37142857D02*
X105696000Y-37047619D01*
X105696000Y-37047619D02*
X105600761Y-36857143D01*
X105600761Y-36857143D02*
X105600761Y-36476190D01*
X105600761Y-36476190D02*
X105696000Y-36285714D01*
X105696000Y-36285714D02*
X105791238Y-36190476D01*
X105791238Y-36190476D02*
X105981714Y-36095238D01*
X105981714Y-36095238D02*
X107600761Y-36095238D01*
X107600761Y-35428571D02*
X107600761Y-34285714D01*
X105600761Y-34857143D02*
X107600761Y-34857143D01*
X105600761Y-32571428D02*
X105600761Y-33714285D01*
X105600761Y-33142857D02*
X107600761Y-33142857D01*
X107600761Y-33142857D02*
X107315047Y-33333333D01*
X107315047Y-33333333D02*
X107124571Y-33523809D01*
X107124571Y-33523809D02*
X107029333Y-33714285D01*
X140350761Y-38952381D02*
X140350761Y-38571428D01*
X140350761Y-38571428D02*
X140255523Y-38380952D01*
X140255523Y-38380952D02*
X140065047Y-38190476D01*
X140065047Y-38190476D02*
X139684095Y-38095238D01*
X139684095Y-38095238D02*
X139017428Y-38095238D01*
X139017428Y-38095238D02*
X138636476Y-38190476D01*
X138636476Y-38190476D02*
X138446000Y-38380952D01*
X138446000Y-38380952D02*
X138350761Y-38571428D01*
X138350761Y-38571428D02*
X138350761Y-38952381D01*
X138350761Y-38952381D02*
X138446000Y-39142857D01*
X138446000Y-39142857D02*
X138636476Y-39333333D01*
X138636476Y-39333333D02*
X139017428Y-39428571D01*
X139017428Y-39428571D02*
X139684095Y-39428571D01*
X139684095Y-39428571D02*
X140065047Y-39333333D01*
X140065047Y-39333333D02*
X140255523Y-39142857D01*
X140255523Y-39142857D02*
X140350761Y-38952381D01*
X140350761Y-37238095D02*
X138731714Y-37238095D01*
X138731714Y-37238095D02*
X138541238Y-37142857D01*
X138541238Y-37142857D02*
X138446000Y-37047619D01*
X138446000Y-37047619D02*
X138350761Y-36857143D01*
X138350761Y-36857143D02*
X138350761Y-36476190D01*
X138350761Y-36476190D02*
X138446000Y-36285714D01*
X138446000Y-36285714D02*
X138541238Y-36190476D01*
X138541238Y-36190476D02*
X138731714Y-36095238D01*
X138731714Y-36095238D02*
X140350761Y-36095238D01*
X140350761Y-35428571D02*
X140350761Y-34285714D01*
X138350761Y-34857143D02*
X140350761Y-34857143D01*
X140350761Y-33809523D02*
X140350761Y-32571428D01*
X140350761Y-32571428D02*
X139588857Y-33238095D01*
X139588857Y-33238095D02*
X139588857Y-32952380D01*
X139588857Y-32952380D02*
X139493619Y-32761904D01*
X139493619Y-32761904D02*
X139398380Y-32666666D01*
X139398380Y-32666666D02*
X139207904Y-32571428D01*
X139207904Y-32571428D02*
X138731714Y-32571428D01*
X138731714Y-32571428D02*
X138541238Y-32666666D01*
X138541238Y-32666666D02*
X138446000Y-32761904D01*
X138446000Y-32761904D02*
X138350761Y-32952380D01*
X138350761Y-32952380D02*
X138350761Y-33523809D01*
X138350761Y-33523809D02*
X138446000Y-33714285D01*
X138446000Y-33714285D02*
X138541238Y-33809523D01*
X169023809Y-72550666D02*
X165976190Y-72550666D01*
X167499999Y-74074476D02*
X167499999Y-71026857D01*
D12*
X103250816Y-116453019D02*
X102679388Y-116453019D01*
X102965102Y-117453019D02*
X102965102Y-116453019D01*
X101774626Y-117453019D02*
X102107959Y-116976828D01*
X102346054Y-117453019D02*
X102346054Y-116453019D01*
X102346054Y-116453019D02*
X101965102Y-116453019D01*
X101965102Y-116453019D02*
X101869864Y-116500638D01*
X101869864Y-116500638D02*
X101822245Y-116548257D01*
X101822245Y-116548257D02*
X101774626Y-116643495D01*
X101774626Y-116643495D02*
X101774626Y-116786352D01*
X101774626Y-116786352D02*
X101822245Y-116881590D01*
X101822245Y-116881590D02*
X101869864Y-116929209D01*
X101869864Y-116929209D02*
X101965102Y-116976828D01*
X101965102Y-116976828D02*
X102346054Y-116976828D01*
X101393673Y-116548257D02*
X101346054Y-116500638D01*
X101346054Y-116500638D02*
X101250816Y-116453019D01*
X101250816Y-116453019D02*
X101012721Y-116453019D01*
X101012721Y-116453019D02*
X100917483Y-116500638D01*
X100917483Y-116500638D02*
X100869864Y-116548257D01*
X100869864Y-116548257D02*
X100822245Y-116643495D01*
X100822245Y-116643495D02*
X100822245Y-116738733D01*
X100822245Y-116738733D02*
X100869864Y-116881590D01*
X100869864Y-116881590D02*
X101441292Y-117453019D01*
X101441292Y-117453019D02*
X100822245Y-117453019D01*
D13*
X142204663Y-124588752D02*
X141204663Y-124588752D01*
X141204663Y-124588752D02*
X141204663Y-124826847D01*
X141204663Y-124826847D02*
X141252282Y-124969704D01*
X141252282Y-124969704D02*
X141347520Y-125064942D01*
X141347520Y-125064942D02*
X141442758Y-125112561D01*
X141442758Y-125112561D02*
X141633234Y-125160180D01*
X141633234Y-125160180D02*
X141776091Y-125160180D01*
X141776091Y-125160180D02*
X141966567Y-125112561D01*
X141966567Y-125112561D02*
X142061805Y-125064942D01*
X142061805Y-125064942D02*
X142157044Y-124969704D01*
X142157044Y-124969704D02*
X142204663Y-124826847D01*
X142204663Y-124826847D02*
X142204663Y-124588752D01*
X142204663Y-126112561D02*
X142204663Y-125541133D01*
X142204663Y-125826847D02*
X141204663Y-125826847D01*
X141204663Y-125826847D02*
X141347520Y-125731609D01*
X141347520Y-125731609D02*
X141442758Y-125636371D01*
X141442758Y-125636371D02*
X141490377Y-125541133D01*
X141537996Y-126969704D02*
X142204663Y-126969704D01*
X141157044Y-126731609D02*
X141871329Y-126493514D01*
X141871329Y-126493514D02*
X141871329Y-127112561D01*
X111078731Y-122359424D02*
X111126350Y-122407044D01*
X111126350Y-122407044D02*
X111269207Y-122454663D01*
X111269207Y-122454663D02*
X111364445Y-122454663D01*
X111364445Y-122454663D02*
X111507302Y-122407044D01*
X111507302Y-122407044D02*
X111602540Y-122311805D01*
X111602540Y-122311805D02*
X111650159Y-122216567D01*
X111650159Y-122216567D02*
X111697778Y-122026091D01*
X111697778Y-122026091D02*
X111697778Y-121883234D01*
X111697778Y-121883234D02*
X111650159Y-121692758D01*
X111650159Y-121692758D02*
X111602540Y-121597520D01*
X111602540Y-121597520D02*
X111507302Y-121502282D01*
X111507302Y-121502282D02*
X111364445Y-121454663D01*
X111364445Y-121454663D02*
X111269207Y-121454663D01*
X111269207Y-121454663D02*
X111126350Y-121502282D01*
X111126350Y-121502282D02*
X111078731Y-121549901D01*
X110697778Y-121549901D02*
X110650159Y-121502282D01*
X110650159Y-121502282D02*
X110554921Y-121454663D01*
X110554921Y-121454663D02*
X110316826Y-121454663D01*
X110316826Y-121454663D02*
X110221588Y-121502282D01*
X110221588Y-121502282D02*
X110173969Y-121549901D01*
X110173969Y-121549901D02*
X110126350Y-121645139D01*
X110126350Y-121645139D02*
X110126350Y-121740377D01*
X110126350Y-121740377D02*
X110173969Y-121883234D01*
X110173969Y-121883234D02*
X110745397Y-122454663D01*
X110745397Y-122454663D02*
X110126350Y-122454663D01*
X109269207Y-121454663D02*
X109459683Y-121454663D01*
X109459683Y-121454663D02*
X109554921Y-121502282D01*
X109554921Y-121502282D02*
X109602540Y-121549901D01*
X109602540Y-121549901D02*
X109697778Y-121692758D01*
X109697778Y-121692758D02*
X109745397Y-121883234D01*
X109745397Y-121883234D02*
X109745397Y-122264186D01*
X109745397Y-122264186D02*
X109697778Y-122359424D01*
X109697778Y-122359424D02*
X109650159Y-122407044D01*
X109650159Y-122407044D02*
X109554921Y-122454663D01*
X109554921Y-122454663D02*
X109364445Y-122454663D01*
X109364445Y-122454663D02*
X109269207Y-122407044D01*
X109269207Y-122407044D02*
X109221588Y-122359424D01*
X109221588Y-122359424D02*
X109173969Y-122264186D01*
X109173969Y-122264186D02*
X109173969Y-122026091D01*
X109173969Y-122026091D02*
X109221588Y-121930853D01*
X109221588Y-121930853D02*
X109269207Y-121883234D01*
X109269207Y-121883234D02*
X109364445Y-121835615D01*
X109364445Y-121835615D02*
X109554921Y-121835615D01*
X109554921Y-121835615D02*
X109650159Y-121883234D01*
X109650159Y-121883234D02*
X109697778Y-121930853D01*
X109697778Y-121930853D02*
X109745397Y-122026091D01*
X112977006Y-117452863D02*
X112977006Y-116452863D01*
X112977006Y-116452863D02*
X112738911Y-116452863D01*
X112738911Y-116452863D02*
X112596054Y-116500482D01*
X112596054Y-116500482D02*
X112500816Y-116595720D01*
X112500816Y-116595720D02*
X112453197Y-116690958D01*
X112453197Y-116690958D02*
X112405578Y-116881434D01*
X112405578Y-116881434D02*
X112405578Y-117024291D01*
X112405578Y-117024291D02*
X112453197Y-117214767D01*
X112453197Y-117214767D02*
X112500816Y-117310005D01*
X112500816Y-117310005D02*
X112596054Y-117405244D01*
X112596054Y-117405244D02*
X112738911Y-117452863D01*
X112738911Y-117452863D02*
X112977006Y-117452863D01*
X111834149Y-116881434D02*
X111929387Y-116833815D01*
X111929387Y-116833815D02*
X111977006Y-116786196D01*
X111977006Y-116786196D02*
X112024625Y-116690958D01*
X112024625Y-116690958D02*
X112024625Y-116643339D01*
X112024625Y-116643339D02*
X111977006Y-116548101D01*
X111977006Y-116548101D02*
X111929387Y-116500482D01*
X111929387Y-116500482D02*
X111834149Y-116452863D01*
X111834149Y-116452863D02*
X111643673Y-116452863D01*
X111643673Y-116452863D02*
X111548435Y-116500482D01*
X111548435Y-116500482D02*
X111500816Y-116548101D01*
X111500816Y-116548101D02*
X111453197Y-116643339D01*
X111453197Y-116643339D02*
X111453197Y-116690958D01*
X111453197Y-116690958D02*
X111500816Y-116786196D01*
X111500816Y-116786196D02*
X111548435Y-116833815D01*
X111548435Y-116833815D02*
X111643673Y-116881434D01*
X111643673Y-116881434D02*
X111834149Y-116881434D01*
X111834149Y-116881434D02*
X111929387Y-116929053D01*
X111929387Y-116929053D02*
X111977006Y-116976672D01*
X111977006Y-116976672D02*
X112024625Y-117071910D01*
X112024625Y-117071910D02*
X112024625Y-117262386D01*
X112024625Y-117262386D02*
X111977006Y-117357624D01*
X111977006Y-117357624D02*
X111929387Y-117405244D01*
X111929387Y-117405244D02*
X111834149Y-117452863D01*
X111834149Y-117452863D02*
X111643673Y-117452863D01*
X111643673Y-117452863D02*
X111548435Y-117405244D01*
X111548435Y-117405244D02*
X111500816Y-117357624D01*
X111500816Y-117357624D02*
X111453197Y-117262386D01*
X111453197Y-117262386D02*
X111453197Y-117071910D01*
X111453197Y-117071910D02*
X111500816Y-116976672D01*
X111500816Y-116976672D02*
X111548435Y-116929053D01*
X111548435Y-116929053D02*
X111643673Y-116881434D01*
X113227006Y-127452863D02*
X113227006Y-126452863D01*
X113227006Y-126452863D02*
X112988911Y-126452863D01*
X112988911Y-126452863D02*
X112846054Y-126500482D01*
X112846054Y-126500482D02*
X112750816Y-126595720D01*
X112750816Y-126595720D02*
X112703197Y-126690958D01*
X112703197Y-126690958D02*
X112655578Y-126881434D01*
X112655578Y-126881434D02*
X112655578Y-127024291D01*
X112655578Y-127024291D02*
X112703197Y-127214767D01*
X112703197Y-127214767D02*
X112750816Y-127310005D01*
X112750816Y-127310005D02*
X112846054Y-127405244D01*
X112846054Y-127405244D02*
X112988911Y-127452863D01*
X112988911Y-127452863D02*
X113227006Y-127452863D01*
X112322244Y-126452863D02*
X111655578Y-126452863D01*
X111655578Y-126452863D02*
X112084149Y-127452863D01*
D12*
X119295238Y-117750057D02*
X119390476Y-117702438D01*
X119390476Y-117702438D02*
X119485714Y-117607200D01*
X119485714Y-117607200D02*
X119628571Y-117464342D01*
X119628571Y-117464342D02*
X119723809Y-117416723D01*
X119723809Y-117416723D02*
X119819047Y-117416723D01*
X119771428Y-117654819D02*
X119866666Y-117607200D01*
X119866666Y-117607200D02*
X119961904Y-117511961D01*
X119961904Y-117511961D02*
X120009523Y-117321485D01*
X120009523Y-117321485D02*
X120009523Y-116988152D01*
X120009523Y-116988152D02*
X119961904Y-116797676D01*
X119961904Y-116797676D02*
X119866666Y-116702438D01*
X119866666Y-116702438D02*
X119771428Y-116654819D01*
X119771428Y-116654819D02*
X119580952Y-116654819D01*
X119580952Y-116654819D02*
X119485714Y-116702438D01*
X119485714Y-116702438D02*
X119390476Y-116797676D01*
X119390476Y-116797676D02*
X119342857Y-116988152D01*
X119342857Y-116988152D02*
X119342857Y-117321485D01*
X119342857Y-117321485D02*
X119390476Y-117511961D01*
X119390476Y-117511961D02*
X119485714Y-117607200D01*
X119485714Y-117607200D02*
X119580952Y-117654819D01*
X119580952Y-117654819D02*
X119771428Y-117654819D01*
X118485714Y-116988152D02*
X118485714Y-117654819D01*
X118723809Y-116607200D02*
X118961904Y-117321485D01*
X118961904Y-117321485D02*
X118342857Y-117321485D01*
D13*
X136704663Y-124588752D02*
X135704663Y-124588752D01*
X135704663Y-124588752D02*
X135704663Y-124826847D01*
X135704663Y-124826847D02*
X135752282Y-124969704D01*
X135752282Y-124969704D02*
X135847520Y-125064942D01*
X135847520Y-125064942D02*
X135942758Y-125112561D01*
X135942758Y-125112561D02*
X136133234Y-125160180D01*
X136133234Y-125160180D02*
X136276091Y-125160180D01*
X136276091Y-125160180D02*
X136466567Y-125112561D01*
X136466567Y-125112561D02*
X136561805Y-125064942D01*
X136561805Y-125064942D02*
X136657044Y-124969704D01*
X136657044Y-124969704D02*
X136704663Y-124826847D01*
X136704663Y-124826847D02*
X136704663Y-124588752D01*
X136704663Y-126112561D02*
X136704663Y-125541133D01*
X136704663Y-125826847D02*
X135704663Y-125826847D01*
X135704663Y-125826847D02*
X135847520Y-125731609D01*
X135847520Y-125731609D02*
X135942758Y-125636371D01*
X135942758Y-125636371D02*
X135990377Y-125541133D01*
X135704663Y-126445895D02*
X135704663Y-127064942D01*
X135704663Y-127064942D02*
X136085615Y-126731609D01*
X136085615Y-126731609D02*
X136085615Y-126874466D01*
X136085615Y-126874466D02*
X136133234Y-126969704D01*
X136133234Y-126969704D02*
X136180853Y-127017323D01*
X136180853Y-127017323D02*
X136276091Y-127064942D01*
X136276091Y-127064942D02*
X136514186Y-127064942D01*
X136514186Y-127064942D02*
X136609424Y-127017323D01*
X136609424Y-127017323D02*
X136657044Y-126969704D01*
X136657044Y-126969704D02*
X136704663Y-126874466D01*
X136704663Y-126874466D02*
X136704663Y-126588752D01*
X136704663Y-126588752D02*
X136657044Y-126493514D01*
X136657044Y-126493514D02*
X136609424Y-126445895D01*
D12*
X130045238Y-43400057D02*
X130140476Y-43352438D01*
X130140476Y-43352438D02*
X130235714Y-43257200D01*
X130235714Y-43257200D02*
X130378571Y-43114342D01*
X130378571Y-43114342D02*
X130473809Y-43066723D01*
X130473809Y-43066723D02*
X130569047Y-43066723D01*
X130521428Y-43304819D02*
X130616666Y-43257200D01*
X130616666Y-43257200D02*
X130711904Y-43161961D01*
X130711904Y-43161961D02*
X130759523Y-42971485D01*
X130759523Y-42971485D02*
X130759523Y-42638152D01*
X130759523Y-42638152D02*
X130711904Y-42447676D01*
X130711904Y-42447676D02*
X130616666Y-42352438D01*
X130616666Y-42352438D02*
X130521428Y-42304819D01*
X130521428Y-42304819D02*
X130330952Y-42304819D01*
X130330952Y-42304819D02*
X130235714Y-42352438D01*
X130235714Y-42352438D02*
X130140476Y-42447676D01*
X130140476Y-42447676D02*
X130092857Y-42638152D01*
X130092857Y-42638152D02*
X130092857Y-42971485D01*
X130092857Y-42971485D02*
X130140476Y-43161961D01*
X130140476Y-43161961D02*
X130235714Y-43257200D01*
X130235714Y-43257200D02*
X130330952Y-43304819D01*
X130330952Y-43304819D02*
X130521428Y-43304819D01*
X129759523Y-42304819D02*
X129140476Y-42304819D01*
X129140476Y-42304819D02*
X129473809Y-42685771D01*
X129473809Y-42685771D02*
X129330952Y-42685771D01*
X129330952Y-42685771D02*
X129235714Y-42733390D01*
X129235714Y-42733390D02*
X129188095Y-42781009D01*
X129188095Y-42781009D02*
X129140476Y-42876247D01*
X129140476Y-42876247D02*
X129140476Y-43114342D01*
X129140476Y-43114342D02*
X129188095Y-43209580D01*
X129188095Y-43209580D02*
X129235714Y-43257200D01*
X129235714Y-43257200D02*
X129330952Y-43304819D01*
X129330952Y-43304819D02*
X129616666Y-43304819D01*
X129616666Y-43304819D02*
X129711904Y-43257200D01*
X129711904Y-43257200D02*
X129759523Y-43209580D01*
D13*
X124204663Y-124588752D02*
X123204663Y-124588752D01*
X123204663Y-124588752D02*
X123204663Y-124826847D01*
X123204663Y-124826847D02*
X123252282Y-124969704D01*
X123252282Y-124969704D02*
X123347520Y-125064942D01*
X123347520Y-125064942D02*
X123442758Y-125112561D01*
X123442758Y-125112561D02*
X123633234Y-125160180D01*
X123633234Y-125160180D02*
X123776091Y-125160180D01*
X123776091Y-125160180D02*
X123966567Y-125112561D01*
X123966567Y-125112561D02*
X124061805Y-125064942D01*
X124061805Y-125064942D02*
X124157044Y-124969704D01*
X124157044Y-124969704D02*
X124204663Y-124826847D01*
X124204663Y-124826847D02*
X124204663Y-124588752D01*
X123299901Y-125541133D02*
X123252282Y-125588752D01*
X123252282Y-125588752D02*
X123204663Y-125683990D01*
X123204663Y-125683990D02*
X123204663Y-125922085D01*
X123204663Y-125922085D02*
X123252282Y-126017323D01*
X123252282Y-126017323D02*
X123299901Y-126064942D01*
X123299901Y-126064942D02*
X123395139Y-126112561D01*
X123395139Y-126112561D02*
X123490377Y-126112561D01*
X123490377Y-126112561D02*
X123633234Y-126064942D01*
X123633234Y-126064942D02*
X124204663Y-125493514D01*
X124204663Y-125493514D02*
X124204663Y-126112561D01*
X124204663Y-126588752D02*
X124204663Y-126779228D01*
X124204663Y-126779228D02*
X124157044Y-126874466D01*
X124157044Y-126874466D02*
X124109424Y-126922085D01*
X124109424Y-126922085D02*
X123966567Y-127017323D01*
X123966567Y-127017323D02*
X123776091Y-127064942D01*
X123776091Y-127064942D02*
X123395139Y-127064942D01*
X123395139Y-127064942D02*
X123299901Y-127017323D01*
X123299901Y-127017323D02*
X123252282Y-126969704D01*
X123252282Y-126969704D02*
X123204663Y-126874466D01*
X123204663Y-126874466D02*
X123204663Y-126683990D01*
X123204663Y-126683990D02*
X123252282Y-126588752D01*
X123252282Y-126588752D02*
X123299901Y-126541133D01*
X123299901Y-126541133D02*
X123395139Y-126493514D01*
X123395139Y-126493514D02*
X123633234Y-126493514D01*
X123633234Y-126493514D02*
X123728472Y-126541133D01*
X123728472Y-126541133D02*
X123776091Y-126588752D01*
X123776091Y-126588752D02*
X123823710Y-126683990D01*
X123823710Y-126683990D02*
X123823710Y-126874466D01*
X123823710Y-126874466D02*
X123776091Y-126969704D01*
X123776091Y-126969704D02*
X123728472Y-127017323D01*
X123728472Y-127017323D02*
X123633234Y-127064942D01*
X130359424Y-122610180D02*
X130407044Y-122562561D01*
X130407044Y-122562561D02*
X130454663Y-122419704D01*
X130454663Y-122419704D02*
X130454663Y-122324466D01*
X130454663Y-122324466D02*
X130407044Y-122181609D01*
X130407044Y-122181609D02*
X130311805Y-122086371D01*
X130311805Y-122086371D02*
X130216567Y-122038752D01*
X130216567Y-122038752D02*
X130026091Y-121991133D01*
X130026091Y-121991133D02*
X129883234Y-121991133D01*
X129883234Y-121991133D02*
X129692758Y-122038752D01*
X129692758Y-122038752D02*
X129597520Y-122086371D01*
X129597520Y-122086371D02*
X129502282Y-122181609D01*
X129502282Y-122181609D02*
X129454663Y-122324466D01*
X129454663Y-122324466D02*
X129454663Y-122419704D01*
X129454663Y-122419704D02*
X129502282Y-122562561D01*
X129502282Y-122562561D02*
X129549901Y-122610180D01*
X130454663Y-123562561D02*
X130454663Y-122991133D01*
X130454663Y-123276847D02*
X129454663Y-123276847D01*
X129454663Y-123276847D02*
X129597520Y-123181609D01*
X129597520Y-123181609D02*
X129692758Y-123086371D01*
X129692758Y-123086371D02*
X129740377Y-122991133D01*
X129454663Y-124419704D02*
X129454663Y-124229228D01*
X129454663Y-124229228D02*
X129502282Y-124133990D01*
X129502282Y-124133990D02*
X129549901Y-124086371D01*
X129549901Y-124086371D02*
X129692758Y-123991133D01*
X129692758Y-123991133D02*
X129883234Y-123943514D01*
X129883234Y-123943514D02*
X130264186Y-123943514D01*
X130264186Y-123943514D02*
X130359424Y-123991133D01*
X130359424Y-123991133D02*
X130407044Y-124038752D01*
X130407044Y-124038752D02*
X130454663Y-124133990D01*
X130454663Y-124133990D02*
X130454663Y-124324466D01*
X130454663Y-124324466D02*
X130407044Y-124419704D01*
X130407044Y-124419704D02*
X130359424Y-124467323D01*
X130359424Y-124467323D02*
X130264186Y-124514942D01*
X130264186Y-124514942D02*
X130026091Y-124514942D01*
X130026091Y-124514942D02*
X129930853Y-124467323D01*
X129930853Y-124467323D02*
X129883234Y-124419704D01*
X129883234Y-124419704D02*
X129835615Y-124324466D01*
X129835615Y-124324466D02*
X129835615Y-124133990D01*
X129835615Y-124133990D02*
X129883234Y-124038752D01*
X129883234Y-124038752D02*
X129930853Y-123991133D01*
X129930853Y-123991133D02*
X130026091Y-123943514D01*
X121359424Y-122660180D02*
X121407044Y-122612561D01*
X121407044Y-122612561D02*
X121454663Y-122469704D01*
X121454663Y-122469704D02*
X121454663Y-122374466D01*
X121454663Y-122374466D02*
X121407044Y-122231609D01*
X121407044Y-122231609D02*
X121311805Y-122136371D01*
X121311805Y-122136371D02*
X121216567Y-122088752D01*
X121216567Y-122088752D02*
X121026091Y-122041133D01*
X121026091Y-122041133D02*
X120883234Y-122041133D01*
X120883234Y-122041133D02*
X120692758Y-122088752D01*
X120692758Y-122088752D02*
X120597520Y-122136371D01*
X120597520Y-122136371D02*
X120502282Y-122231609D01*
X120502282Y-122231609D02*
X120454663Y-122374466D01*
X120454663Y-122374466D02*
X120454663Y-122469704D01*
X120454663Y-122469704D02*
X120502282Y-122612561D01*
X120502282Y-122612561D02*
X120549901Y-122660180D01*
X120454663Y-123564942D02*
X120454663Y-123088752D01*
X120454663Y-123088752D02*
X120930853Y-123041133D01*
X120930853Y-123041133D02*
X120883234Y-123088752D01*
X120883234Y-123088752D02*
X120835615Y-123183990D01*
X120835615Y-123183990D02*
X120835615Y-123422085D01*
X120835615Y-123422085D02*
X120883234Y-123517323D01*
X120883234Y-123517323D02*
X120930853Y-123564942D01*
X120930853Y-123564942D02*
X121026091Y-123612561D01*
X121026091Y-123612561D02*
X121264186Y-123612561D01*
X121264186Y-123612561D02*
X121359424Y-123564942D01*
X121359424Y-123564942D02*
X121407044Y-123517323D01*
X121407044Y-123517323D02*
X121454663Y-123422085D01*
X121454663Y-123422085D02*
X121454663Y-123183990D01*
X121454663Y-123183990D02*
X121407044Y-123088752D01*
X121407044Y-123088752D02*
X121359424Y-123041133D01*
X121454663Y-124564942D02*
X121454663Y-123993514D01*
X121454663Y-124279228D02*
X120454663Y-124279228D01*
X120454663Y-124279228D02*
X120597520Y-124183990D01*
X120597520Y-124183990D02*
X120692758Y-124088752D01*
X120692758Y-124088752D02*
X120740377Y-123993514D01*
D12*
X157642857Y-76609580D02*
X157690476Y-76657200D01*
X157690476Y-76657200D02*
X157833333Y-76704819D01*
X157833333Y-76704819D02*
X157928571Y-76704819D01*
X157928571Y-76704819D02*
X158071428Y-76657200D01*
X158071428Y-76657200D02*
X158166666Y-76561961D01*
X158166666Y-76561961D02*
X158214285Y-76466723D01*
X158214285Y-76466723D02*
X158261904Y-76276247D01*
X158261904Y-76276247D02*
X158261904Y-76133390D01*
X158261904Y-76133390D02*
X158214285Y-75942914D01*
X158214285Y-75942914D02*
X158166666Y-75847676D01*
X158166666Y-75847676D02*
X158071428Y-75752438D01*
X158071428Y-75752438D02*
X157928571Y-75704819D01*
X157928571Y-75704819D02*
X157833333Y-75704819D01*
X157833333Y-75704819D02*
X157690476Y-75752438D01*
X157690476Y-75752438D02*
X157642857Y-75800057D01*
X157261904Y-75800057D02*
X157214285Y-75752438D01*
X157214285Y-75752438D02*
X157119047Y-75704819D01*
X157119047Y-75704819D02*
X156880952Y-75704819D01*
X156880952Y-75704819D02*
X156785714Y-75752438D01*
X156785714Y-75752438D02*
X156738095Y-75800057D01*
X156738095Y-75800057D02*
X156690476Y-75895295D01*
X156690476Y-75895295D02*
X156690476Y-75990533D01*
X156690476Y-75990533D02*
X156738095Y-76133390D01*
X156738095Y-76133390D02*
X157309523Y-76704819D01*
X157309523Y-76704819D02*
X156690476Y-76704819D01*
X156309523Y-75800057D02*
X156261904Y-75752438D01*
X156261904Y-75752438D02*
X156166666Y-75704819D01*
X156166666Y-75704819D02*
X155928571Y-75704819D01*
X155928571Y-75704819D02*
X155833333Y-75752438D01*
X155833333Y-75752438D02*
X155785714Y-75800057D01*
X155785714Y-75800057D02*
X155738095Y-75895295D01*
X155738095Y-75895295D02*
X155738095Y-75990533D01*
X155738095Y-75990533D02*
X155785714Y-76133390D01*
X155785714Y-76133390D02*
X156357142Y-76704819D01*
X156357142Y-76704819D02*
X155738095Y-76704819D01*
D13*
X127704663Y-124588752D02*
X126704663Y-124588752D01*
X126704663Y-124588752D02*
X126704663Y-124826847D01*
X126704663Y-124826847D02*
X126752282Y-124969704D01*
X126752282Y-124969704D02*
X126847520Y-125064942D01*
X126847520Y-125064942D02*
X126942758Y-125112561D01*
X126942758Y-125112561D02*
X127133234Y-125160180D01*
X127133234Y-125160180D02*
X127276091Y-125160180D01*
X127276091Y-125160180D02*
X127466567Y-125112561D01*
X127466567Y-125112561D02*
X127561805Y-125064942D01*
X127561805Y-125064942D02*
X127657044Y-124969704D01*
X127657044Y-124969704D02*
X127704663Y-124826847D01*
X127704663Y-124826847D02*
X127704663Y-124588752D01*
X127704663Y-126112561D02*
X127704663Y-125541133D01*
X127704663Y-125826847D02*
X126704663Y-125826847D01*
X126704663Y-125826847D02*
X126847520Y-125731609D01*
X126847520Y-125731609D02*
X126942758Y-125636371D01*
X126942758Y-125636371D02*
X126990377Y-125541133D01*
X126704663Y-126445895D02*
X126704663Y-127112561D01*
X126704663Y-127112561D02*
X127704663Y-126683990D01*
D12*
X113545238Y-43400057D02*
X113640476Y-43352438D01*
X113640476Y-43352438D02*
X113735714Y-43257200D01*
X113735714Y-43257200D02*
X113878571Y-43114342D01*
X113878571Y-43114342D02*
X113973809Y-43066723D01*
X113973809Y-43066723D02*
X114069047Y-43066723D01*
X114021428Y-43304819D02*
X114116666Y-43257200D01*
X114116666Y-43257200D02*
X114211904Y-43161961D01*
X114211904Y-43161961D02*
X114259523Y-42971485D01*
X114259523Y-42971485D02*
X114259523Y-42638152D01*
X114259523Y-42638152D02*
X114211904Y-42447676D01*
X114211904Y-42447676D02*
X114116666Y-42352438D01*
X114116666Y-42352438D02*
X114021428Y-42304819D01*
X114021428Y-42304819D02*
X113830952Y-42304819D01*
X113830952Y-42304819D02*
X113735714Y-42352438D01*
X113735714Y-42352438D02*
X113640476Y-42447676D01*
X113640476Y-42447676D02*
X113592857Y-42638152D01*
X113592857Y-42638152D02*
X113592857Y-42971485D01*
X113592857Y-42971485D02*
X113640476Y-43161961D01*
X113640476Y-43161961D02*
X113735714Y-43257200D01*
X113735714Y-43257200D02*
X113830952Y-43304819D01*
X113830952Y-43304819D02*
X114021428Y-43304819D01*
X113259523Y-42304819D02*
X112592857Y-42304819D01*
X112592857Y-42304819D02*
X113021428Y-43304819D01*
X106109580Y-79107142D02*
X106157200Y-79059523D01*
X106157200Y-79059523D02*
X106204819Y-78916666D01*
X106204819Y-78916666D02*
X106204819Y-78821428D01*
X106204819Y-78821428D02*
X106157200Y-78678571D01*
X106157200Y-78678571D02*
X106061961Y-78583333D01*
X106061961Y-78583333D02*
X105966723Y-78535714D01*
X105966723Y-78535714D02*
X105776247Y-78488095D01*
X105776247Y-78488095D02*
X105633390Y-78488095D01*
X105633390Y-78488095D02*
X105442914Y-78535714D01*
X105442914Y-78535714D02*
X105347676Y-78583333D01*
X105347676Y-78583333D02*
X105252438Y-78678571D01*
X105252438Y-78678571D02*
X105204819Y-78821428D01*
X105204819Y-78821428D02*
X105204819Y-78916666D01*
X105204819Y-78916666D02*
X105252438Y-79059523D01*
X105252438Y-79059523D02*
X105300057Y-79107142D01*
X105204819Y-79440476D02*
X105204819Y-80059523D01*
X105204819Y-80059523D02*
X105585771Y-79726190D01*
X105585771Y-79726190D02*
X105585771Y-79869047D01*
X105585771Y-79869047D02*
X105633390Y-79964285D01*
X105633390Y-79964285D02*
X105681009Y-80011904D01*
X105681009Y-80011904D02*
X105776247Y-80059523D01*
X105776247Y-80059523D02*
X106014342Y-80059523D01*
X106014342Y-80059523D02*
X106109580Y-80011904D01*
X106109580Y-80011904D02*
X106157200Y-79964285D01*
X106157200Y-79964285D02*
X106204819Y-79869047D01*
X106204819Y-79869047D02*
X106204819Y-79583333D01*
X106204819Y-79583333D02*
X106157200Y-79488095D01*
X106157200Y-79488095D02*
X106109580Y-79440476D01*
X105204819Y-80916666D02*
X105204819Y-80726190D01*
X105204819Y-80726190D02*
X105252438Y-80630952D01*
X105252438Y-80630952D02*
X105300057Y-80583333D01*
X105300057Y-80583333D02*
X105442914Y-80488095D01*
X105442914Y-80488095D02*
X105633390Y-80440476D01*
X105633390Y-80440476D02*
X106014342Y-80440476D01*
X106014342Y-80440476D02*
X106109580Y-80488095D01*
X106109580Y-80488095D02*
X106157200Y-80535714D01*
X106157200Y-80535714D02*
X106204819Y-80630952D01*
X106204819Y-80630952D02*
X106204819Y-80821428D01*
X106204819Y-80821428D02*
X106157200Y-80916666D01*
X106157200Y-80916666D02*
X106109580Y-80964285D01*
X106109580Y-80964285D02*
X106014342Y-81011904D01*
X106014342Y-81011904D02*
X105776247Y-81011904D01*
X105776247Y-81011904D02*
X105681009Y-80964285D01*
X105681009Y-80964285D02*
X105633390Y-80916666D01*
X105633390Y-80916666D02*
X105585771Y-80821428D01*
X105585771Y-80821428D02*
X105585771Y-80630952D01*
X105585771Y-80630952D02*
X105633390Y-80535714D01*
X105633390Y-80535714D02*
X105681009Y-80488095D01*
X105681009Y-80488095D02*
X105776247Y-80440476D01*
X139109580Y-79357142D02*
X139157200Y-79309523D01*
X139157200Y-79309523D02*
X139204819Y-79166666D01*
X139204819Y-79166666D02*
X139204819Y-79071428D01*
X139204819Y-79071428D02*
X139157200Y-78928571D01*
X139157200Y-78928571D02*
X139061961Y-78833333D01*
X139061961Y-78833333D02*
X138966723Y-78785714D01*
X138966723Y-78785714D02*
X138776247Y-78738095D01*
X138776247Y-78738095D02*
X138633390Y-78738095D01*
X138633390Y-78738095D02*
X138442914Y-78785714D01*
X138442914Y-78785714D02*
X138347676Y-78833333D01*
X138347676Y-78833333D02*
X138252438Y-78928571D01*
X138252438Y-78928571D02*
X138204819Y-79071428D01*
X138204819Y-79071428D02*
X138204819Y-79166666D01*
X138204819Y-79166666D02*
X138252438Y-79309523D01*
X138252438Y-79309523D02*
X138300057Y-79357142D01*
X138204819Y-79690476D02*
X138204819Y-80309523D01*
X138204819Y-80309523D02*
X138585771Y-79976190D01*
X138585771Y-79976190D02*
X138585771Y-80119047D01*
X138585771Y-80119047D02*
X138633390Y-80214285D01*
X138633390Y-80214285D02*
X138681009Y-80261904D01*
X138681009Y-80261904D02*
X138776247Y-80309523D01*
X138776247Y-80309523D02*
X139014342Y-80309523D01*
X139014342Y-80309523D02*
X139109580Y-80261904D01*
X139109580Y-80261904D02*
X139157200Y-80214285D01*
X139157200Y-80214285D02*
X139204819Y-80119047D01*
X139204819Y-80119047D02*
X139204819Y-79833333D01*
X139204819Y-79833333D02*
X139157200Y-79738095D01*
X139157200Y-79738095D02*
X139109580Y-79690476D01*
X138300057Y-80690476D02*
X138252438Y-80738095D01*
X138252438Y-80738095D02*
X138204819Y-80833333D01*
X138204819Y-80833333D02*
X138204819Y-81071428D01*
X138204819Y-81071428D02*
X138252438Y-81166666D01*
X138252438Y-81166666D02*
X138300057Y-81214285D01*
X138300057Y-81214285D02*
X138395295Y-81261904D01*
X138395295Y-81261904D02*
X138490533Y-81261904D01*
X138490533Y-81261904D02*
X138633390Y-81214285D01*
X138633390Y-81214285D02*
X139204819Y-80642857D01*
X139204819Y-80642857D02*
X139204819Y-81261904D01*
D13*
X133204663Y-124588752D02*
X132204663Y-124588752D01*
X132204663Y-124588752D02*
X132204663Y-124826847D01*
X132204663Y-124826847D02*
X132252282Y-124969704D01*
X132252282Y-124969704D02*
X132347520Y-125064942D01*
X132347520Y-125064942D02*
X132442758Y-125112561D01*
X132442758Y-125112561D02*
X132633234Y-125160180D01*
X132633234Y-125160180D02*
X132776091Y-125160180D01*
X132776091Y-125160180D02*
X132966567Y-125112561D01*
X132966567Y-125112561D02*
X133061805Y-125064942D01*
X133061805Y-125064942D02*
X133157044Y-124969704D01*
X133157044Y-124969704D02*
X133204663Y-124826847D01*
X133204663Y-124826847D02*
X133204663Y-124588752D01*
X133204663Y-126112561D02*
X133204663Y-125541133D01*
X133204663Y-125826847D02*
X132204663Y-125826847D01*
X132204663Y-125826847D02*
X132347520Y-125731609D01*
X132347520Y-125731609D02*
X132442758Y-125636371D01*
X132442758Y-125636371D02*
X132490377Y-125541133D01*
X132633234Y-126683990D02*
X132585615Y-126588752D01*
X132585615Y-126588752D02*
X132537996Y-126541133D01*
X132537996Y-126541133D02*
X132442758Y-126493514D01*
X132442758Y-126493514D02*
X132395139Y-126493514D01*
X132395139Y-126493514D02*
X132299901Y-126541133D01*
X132299901Y-126541133D02*
X132252282Y-126588752D01*
X132252282Y-126588752D02*
X132204663Y-126683990D01*
X132204663Y-126683990D02*
X132204663Y-126874466D01*
X132204663Y-126874466D02*
X132252282Y-126969704D01*
X132252282Y-126969704D02*
X132299901Y-127017323D01*
X132299901Y-127017323D02*
X132395139Y-127064942D01*
X132395139Y-127064942D02*
X132442758Y-127064942D01*
X132442758Y-127064942D02*
X132537996Y-127017323D01*
X132537996Y-127017323D02*
X132585615Y-126969704D01*
X132585615Y-126969704D02*
X132633234Y-126874466D01*
X132633234Y-126874466D02*
X132633234Y-126683990D01*
X132633234Y-126683990D02*
X132680853Y-126588752D01*
X132680853Y-126588752D02*
X132728472Y-126541133D01*
X132728472Y-126541133D02*
X132823710Y-126493514D01*
X132823710Y-126493514D02*
X133014186Y-126493514D01*
X133014186Y-126493514D02*
X133109424Y-126541133D01*
X133109424Y-126541133D02*
X133157044Y-126588752D01*
X133157044Y-126588752D02*
X133204663Y-126683990D01*
X133204663Y-126683990D02*
X133204663Y-126874466D01*
X133204663Y-126874466D02*
X133157044Y-126969704D01*
X133157044Y-126969704D02*
X133109424Y-127017323D01*
X133109424Y-127017323D02*
X133014186Y-127064942D01*
X133014186Y-127064942D02*
X132823710Y-127064942D01*
X132823710Y-127064942D02*
X132728472Y-127017323D01*
X132728472Y-127017323D02*
X132680853Y-126969704D01*
X132680853Y-126969704D02*
X132633234Y-126874466D01*
D12*
X90655578Y-122357780D02*
X90703197Y-122405400D01*
X90703197Y-122405400D02*
X90846054Y-122453019D01*
X90846054Y-122453019D02*
X90941292Y-122453019D01*
X90941292Y-122453019D02*
X91084149Y-122405400D01*
X91084149Y-122405400D02*
X91179387Y-122310161D01*
X91179387Y-122310161D02*
X91227006Y-122214923D01*
X91227006Y-122214923D02*
X91274625Y-122024447D01*
X91274625Y-122024447D02*
X91274625Y-121881590D01*
X91274625Y-121881590D02*
X91227006Y-121691114D01*
X91227006Y-121691114D02*
X91179387Y-121595876D01*
X91179387Y-121595876D02*
X91084149Y-121500638D01*
X91084149Y-121500638D02*
X90941292Y-121453019D01*
X90941292Y-121453019D02*
X90846054Y-121453019D01*
X90846054Y-121453019D02*
X90703197Y-121500638D01*
X90703197Y-121500638D02*
X90655578Y-121548257D01*
X89703197Y-122453019D02*
X90274625Y-122453019D01*
X89988911Y-122453019D02*
X89988911Y-121453019D01*
X89988911Y-121453019D02*
X90084149Y-121595876D01*
X90084149Y-121595876D02*
X90179387Y-121691114D01*
X90179387Y-121691114D02*
X90274625Y-121738733D01*
X84704819Y-68916666D02*
X85419104Y-68916666D01*
X85419104Y-68916666D02*
X85561961Y-68869047D01*
X85561961Y-68869047D02*
X85657200Y-68773809D01*
X85657200Y-68773809D02*
X85704819Y-68630952D01*
X85704819Y-68630952D02*
X85704819Y-68535714D01*
X84800057Y-69345238D02*
X84752438Y-69392857D01*
X84752438Y-69392857D02*
X84704819Y-69488095D01*
X84704819Y-69488095D02*
X84704819Y-69726190D01*
X84704819Y-69726190D02*
X84752438Y-69821428D01*
X84752438Y-69821428D02*
X84800057Y-69869047D01*
X84800057Y-69869047D02*
X84895295Y-69916666D01*
X84895295Y-69916666D02*
X84990533Y-69916666D01*
X84990533Y-69916666D02*
X85133390Y-69869047D01*
X85133390Y-69869047D02*
X85704819Y-69297619D01*
X85704819Y-69297619D02*
X85704819Y-69916666D01*
X84704819Y-79416666D02*
X85419104Y-79416666D01*
X85419104Y-79416666D02*
X85561961Y-79369047D01*
X85561961Y-79369047D02*
X85657200Y-79273809D01*
X85657200Y-79273809D02*
X85704819Y-79130952D01*
X85704819Y-79130952D02*
X85704819Y-79035714D01*
X85704819Y-80416666D02*
X85704819Y-79845238D01*
X85704819Y-80130952D02*
X84704819Y-80130952D01*
X84704819Y-80130952D02*
X84847676Y-80035714D01*
X84847676Y-80035714D02*
X84942914Y-79940476D01*
X84942914Y-79940476D02*
X84990533Y-79845238D01*
X84704819Y-58166666D02*
X85419104Y-58166666D01*
X85419104Y-58166666D02*
X85561961Y-58119047D01*
X85561961Y-58119047D02*
X85657200Y-58023809D01*
X85657200Y-58023809D02*
X85704819Y-57880952D01*
X85704819Y-57880952D02*
X85704819Y-57785714D01*
X84704819Y-58547619D02*
X84704819Y-59166666D01*
X84704819Y-59166666D02*
X85085771Y-58833333D01*
X85085771Y-58833333D02*
X85085771Y-58976190D01*
X85085771Y-58976190D02*
X85133390Y-59071428D01*
X85133390Y-59071428D02*
X85181009Y-59119047D01*
X85181009Y-59119047D02*
X85276247Y-59166666D01*
X85276247Y-59166666D02*
X85514342Y-59166666D01*
X85514342Y-59166666D02*
X85609580Y-59119047D01*
X85609580Y-59119047D02*
X85657200Y-59071428D01*
X85657200Y-59071428D02*
X85704819Y-58976190D01*
X85704819Y-58976190D02*
X85704819Y-58690476D01*
X85704819Y-58690476D02*
X85657200Y-58595238D01*
X85657200Y-58595238D02*
X85609580Y-58547619D01*
X166142857Y-76609580D02*
X166190476Y-76657200D01*
X166190476Y-76657200D02*
X166333333Y-76704819D01*
X166333333Y-76704819D02*
X166428571Y-76704819D01*
X166428571Y-76704819D02*
X166571428Y-76657200D01*
X166571428Y-76657200D02*
X166666666Y-76561961D01*
X166666666Y-76561961D02*
X166714285Y-76466723D01*
X166714285Y-76466723D02*
X166761904Y-76276247D01*
X166761904Y-76276247D02*
X166761904Y-76133390D01*
X166761904Y-76133390D02*
X166714285Y-75942914D01*
X166714285Y-75942914D02*
X166666666Y-75847676D01*
X166666666Y-75847676D02*
X166571428Y-75752438D01*
X166571428Y-75752438D02*
X166428571Y-75704819D01*
X166428571Y-75704819D02*
X166333333Y-75704819D01*
X166333333Y-75704819D02*
X166190476Y-75752438D01*
X166190476Y-75752438D02*
X166142857Y-75800057D01*
X165190476Y-76704819D02*
X165761904Y-76704819D01*
X165476190Y-76704819D02*
X165476190Y-75704819D01*
X165476190Y-75704819D02*
X165571428Y-75847676D01*
X165571428Y-75847676D02*
X165666666Y-75942914D01*
X165666666Y-75942914D02*
X165761904Y-75990533D01*
X164619047Y-76133390D02*
X164714285Y-76085771D01*
X164714285Y-76085771D02*
X164761904Y-76038152D01*
X164761904Y-76038152D02*
X164809523Y-75942914D01*
X164809523Y-75942914D02*
X164809523Y-75895295D01*
X164809523Y-75895295D02*
X164761904Y-75800057D01*
X164761904Y-75800057D02*
X164714285Y-75752438D01*
X164714285Y-75752438D02*
X164619047Y-75704819D01*
X164619047Y-75704819D02*
X164428571Y-75704819D01*
X164428571Y-75704819D02*
X164333333Y-75752438D01*
X164333333Y-75752438D02*
X164285714Y-75800057D01*
X164285714Y-75800057D02*
X164238095Y-75895295D01*
X164238095Y-75895295D02*
X164238095Y-75942914D01*
X164238095Y-75942914D02*
X164285714Y-76038152D01*
X164285714Y-76038152D02*
X164333333Y-76085771D01*
X164333333Y-76085771D02*
X164428571Y-76133390D01*
X164428571Y-76133390D02*
X164619047Y-76133390D01*
X164619047Y-76133390D02*
X164714285Y-76181009D01*
X164714285Y-76181009D02*
X164761904Y-76228628D01*
X164761904Y-76228628D02*
X164809523Y-76323866D01*
X164809523Y-76323866D02*
X164809523Y-76514342D01*
X164809523Y-76514342D02*
X164761904Y-76609580D01*
X164761904Y-76609580D02*
X164714285Y-76657200D01*
X164714285Y-76657200D02*
X164619047Y-76704819D01*
X164619047Y-76704819D02*
X164428571Y-76704819D01*
X164428571Y-76704819D02*
X164333333Y-76657200D01*
X164333333Y-76657200D02*
X164285714Y-76609580D01*
X164285714Y-76609580D02*
X164238095Y-76514342D01*
X164238095Y-76514342D02*
X164238095Y-76323866D01*
X164238095Y-76323866D02*
X164285714Y-76228628D01*
X164285714Y-76228628D02*
X164333333Y-76181009D01*
X164333333Y-76181009D02*
X164428571Y-76133390D01*
D13*
X118704663Y-124588752D02*
X117704663Y-124588752D01*
X117704663Y-124588752D02*
X117704663Y-124826847D01*
X117704663Y-124826847D02*
X117752282Y-124969704D01*
X117752282Y-124969704D02*
X117847520Y-125064942D01*
X117847520Y-125064942D02*
X117942758Y-125112561D01*
X117942758Y-125112561D02*
X118133234Y-125160180D01*
X118133234Y-125160180D02*
X118276091Y-125160180D01*
X118276091Y-125160180D02*
X118466567Y-125112561D01*
X118466567Y-125112561D02*
X118561805Y-125064942D01*
X118561805Y-125064942D02*
X118657044Y-124969704D01*
X118657044Y-124969704D02*
X118704663Y-124826847D01*
X118704663Y-124826847D02*
X118704663Y-124588752D01*
X117799901Y-125541133D02*
X117752282Y-125588752D01*
X117752282Y-125588752D02*
X117704663Y-125683990D01*
X117704663Y-125683990D02*
X117704663Y-125922085D01*
X117704663Y-125922085D02*
X117752282Y-126017323D01*
X117752282Y-126017323D02*
X117799901Y-126064942D01*
X117799901Y-126064942D02*
X117895139Y-126112561D01*
X117895139Y-126112561D02*
X117990377Y-126112561D01*
X117990377Y-126112561D02*
X118133234Y-126064942D01*
X118133234Y-126064942D02*
X118704663Y-125493514D01*
X118704663Y-125493514D02*
X118704663Y-126112561D01*
X118133234Y-126683990D02*
X118085615Y-126588752D01*
X118085615Y-126588752D02*
X118037996Y-126541133D01*
X118037996Y-126541133D02*
X117942758Y-126493514D01*
X117942758Y-126493514D02*
X117895139Y-126493514D01*
X117895139Y-126493514D02*
X117799901Y-126541133D01*
X117799901Y-126541133D02*
X117752282Y-126588752D01*
X117752282Y-126588752D02*
X117704663Y-126683990D01*
X117704663Y-126683990D02*
X117704663Y-126874466D01*
X117704663Y-126874466D02*
X117752282Y-126969704D01*
X117752282Y-126969704D02*
X117799901Y-127017323D01*
X117799901Y-127017323D02*
X117895139Y-127064942D01*
X117895139Y-127064942D02*
X117942758Y-127064942D01*
X117942758Y-127064942D02*
X118037996Y-127017323D01*
X118037996Y-127017323D02*
X118085615Y-126969704D01*
X118085615Y-126969704D02*
X118133234Y-126874466D01*
X118133234Y-126874466D02*
X118133234Y-126683990D01*
X118133234Y-126683990D02*
X118180853Y-126588752D01*
X118180853Y-126588752D02*
X118228472Y-126541133D01*
X118228472Y-126541133D02*
X118323710Y-126493514D01*
X118323710Y-126493514D02*
X118514186Y-126493514D01*
X118514186Y-126493514D02*
X118609424Y-126541133D01*
X118609424Y-126541133D02*
X118657044Y-126588752D01*
X118657044Y-126588752D02*
X118704663Y-126683990D01*
X118704663Y-126683990D02*
X118704663Y-126874466D01*
X118704663Y-126874466D02*
X118657044Y-126969704D01*
X118657044Y-126969704D02*
X118609424Y-127017323D01*
X118609424Y-127017323D02*
X118514186Y-127064942D01*
X118514186Y-127064942D02*
X118323710Y-127064942D01*
X118323710Y-127064942D02*
X118228472Y-127017323D01*
X118228472Y-127017323D02*
X118180853Y-126969704D01*
X118180853Y-126969704D02*
X118133234Y-126874466D01*
X139359424Y-122660180D02*
X139407044Y-122612561D01*
X139407044Y-122612561D02*
X139454663Y-122469704D01*
X139454663Y-122469704D02*
X139454663Y-122374466D01*
X139454663Y-122374466D02*
X139407044Y-122231609D01*
X139407044Y-122231609D02*
X139311805Y-122136371D01*
X139311805Y-122136371D02*
X139216567Y-122088752D01*
X139216567Y-122088752D02*
X139026091Y-122041133D01*
X139026091Y-122041133D02*
X138883234Y-122041133D01*
X138883234Y-122041133D02*
X138692758Y-122088752D01*
X138692758Y-122088752D02*
X138597520Y-122136371D01*
X138597520Y-122136371D02*
X138502282Y-122231609D01*
X138502282Y-122231609D02*
X138454663Y-122374466D01*
X138454663Y-122374466D02*
X138454663Y-122469704D01*
X138454663Y-122469704D02*
X138502282Y-122612561D01*
X138502282Y-122612561D02*
X138549901Y-122660180D01*
X138454663Y-122993514D02*
X138454663Y-123612561D01*
X138454663Y-123612561D02*
X138835615Y-123279228D01*
X138835615Y-123279228D02*
X138835615Y-123422085D01*
X138835615Y-123422085D02*
X138883234Y-123517323D01*
X138883234Y-123517323D02*
X138930853Y-123564942D01*
X138930853Y-123564942D02*
X139026091Y-123612561D01*
X139026091Y-123612561D02*
X139264186Y-123612561D01*
X139264186Y-123612561D02*
X139359424Y-123564942D01*
X139359424Y-123564942D02*
X139407044Y-123517323D01*
X139407044Y-123517323D02*
X139454663Y-123422085D01*
X139454663Y-123422085D02*
X139454663Y-123136371D01*
X139454663Y-123136371D02*
X139407044Y-123041133D01*
X139407044Y-123041133D02*
X139359424Y-122993514D01*
X138454663Y-124231609D02*
X138454663Y-124326847D01*
X138454663Y-124326847D02*
X138502282Y-124422085D01*
X138502282Y-124422085D02*
X138549901Y-124469704D01*
X138549901Y-124469704D02*
X138645139Y-124517323D01*
X138645139Y-124517323D02*
X138835615Y-124564942D01*
X138835615Y-124564942D02*
X139073710Y-124564942D01*
X139073710Y-124564942D02*
X139264186Y-124517323D01*
X139264186Y-124517323D02*
X139359424Y-124469704D01*
X139359424Y-124469704D02*
X139407044Y-124422085D01*
X139407044Y-124422085D02*
X139454663Y-124326847D01*
X139454663Y-124326847D02*
X139454663Y-124231609D01*
X139454663Y-124231609D02*
X139407044Y-124136371D01*
X139407044Y-124136371D02*
X139359424Y-124088752D01*
X139359424Y-124088752D02*
X139264186Y-124041133D01*
X139264186Y-124041133D02*
X139073710Y-123993514D01*
X139073710Y-123993514D02*
X138835615Y-123993514D01*
X138835615Y-123993514D02*
X138645139Y-124041133D01*
X138645139Y-124041133D02*
X138549901Y-124088752D01*
X138549901Y-124088752D02*
X138502282Y-124136371D01*
X138502282Y-124136371D02*
X138454663Y-124231609D01*
X82204663Y-39916666D02*
X82918948Y-39916666D01*
X82918948Y-39916666D02*
X83061805Y-39869047D01*
X83061805Y-39869047D02*
X83157044Y-39773809D01*
X83157044Y-39773809D02*
X83204663Y-39630952D01*
X83204663Y-39630952D02*
X83204663Y-39535714D01*
X82537996Y-40821428D02*
X83204663Y-40821428D01*
X82157044Y-40583333D02*
X82871329Y-40345238D01*
X82871329Y-40345238D02*
X82871329Y-40964285D01*
D12*
X136695238Y-117950057D02*
X136790476Y-117902438D01*
X136790476Y-117902438D02*
X136885714Y-117807200D01*
X136885714Y-117807200D02*
X137028571Y-117664342D01*
X137028571Y-117664342D02*
X137123809Y-117616723D01*
X137123809Y-117616723D02*
X137219047Y-117616723D01*
X137171428Y-117854819D02*
X137266666Y-117807200D01*
X137266666Y-117807200D02*
X137361904Y-117711961D01*
X137361904Y-117711961D02*
X137409523Y-117521485D01*
X137409523Y-117521485D02*
X137409523Y-117188152D01*
X137409523Y-117188152D02*
X137361904Y-116997676D01*
X137361904Y-116997676D02*
X137266666Y-116902438D01*
X137266666Y-116902438D02*
X137171428Y-116854819D01*
X137171428Y-116854819D02*
X136980952Y-116854819D01*
X136980952Y-116854819D02*
X136885714Y-116902438D01*
X136885714Y-116902438D02*
X136790476Y-116997676D01*
X136790476Y-116997676D02*
X136742857Y-117188152D01*
X136742857Y-117188152D02*
X136742857Y-117521485D01*
X136742857Y-117521485D02*
X136790476Y-117711961D01*
X136790476Y-117711961D02*
X136885714Y-117807200D01*
X136885714Y-117807200D02*
X136980952Y-117854819D01*
X136980952Y-117854819D02*
X137171428Y-117854819D01*
X135885714Y-116854819D02*
X136076190Y-116854819D01*
X136076190Y-116854819D02*
X136171428Y-116902438D01*
X136171428Y-116902438D02*
X136219047Y-116950057D01*
X136219047Y-116950057D02*
X136314285Y-117092914D01*
X136314285Y-117092914D02*
X136361904Y-117283390D01*
X136361904Y-117283390D02*
X136361904Y-117664342D01*
X136361904Y-117664342D02*
X136314285Y-117759580D01*
X136314285Y-117759580D02*
X136266666Y-117807200D01*
X136266666Y-117807200D02*
X136171428Y-117854819D01*
X136171428Y-117854819D02*
X135980952Y-117854819D01*
X135980952Y-117854819D02*
X135885714Y-117807200D01*
X135885714Y-117807200D02*
X135838095Y-117759580D01*
X135838095Y-117759580D02*
X135790476Y-117664342D01*
X135790476Y-117664342D02*
X135790476Y-117426247D01*
X135790476Y-117426247D02*
X135838095Y-117331009D01*
X135838095Y-117331009D02*
X135885714Y-117283390D01*
X135885714Y-117283390D02*
X135980952Y-117235771D01*
X135980952Y-117235771D02*
X136171428Y-117235771D01*
X136171428Y-117235771D02*
X136266666Y-117283390D01*
X136266666Y-117283390D02*
X136314285Y-117331009D01*
X136314285Y-117331009D02*
X136361904Y-117426247D01*
X146545238Y-43400057D02*
X146640476Y-43352438D01*
X146640476Y-43352438D02*
X146735714Y-43257200D01*
X146735714Y-43257200D02*
X146878571Y-43114342D01*
X146878571Y-43114342D02*
X146973809Y-43066723D01*
X146973809Y-43066723D02*
X147069047Y-43066723D01*
X147021428Y-43304819D02*
X147116666Y-43257200D01*
X147116666Y-43257200D02*
X147211904Y-43161961D01*
X147211904Y-43161961D02*
X147259523Y-42971485D01*
X147259523Y-42971485D02*
X147259523Y-42638152D01*
X147259523Y-42638152D02*
X147211904Y-42447676D01*
X147211904Y-42447676D02*
X147116666Y-42352438D01*
X147116666Y-42352438D02*
X147021428Y-42304819D01*
X147021428Y-42304819D02*
X146830952Y-42304819D01*
X146830952Y-42304819D02*
X146735714Y-42352438D01*
X146735714Y-42352438D02*
X146640476Y-42447676D01*
X146640476Y-42447676D02*
X146592857Y-42638152D01*
X146592857Y-42638152D02*
X146592857Y-42971485D01*
X146592857Y-42971485D02*
X146640476Y-43161961D01*
X146640476Y-43161961D02*
X146735714Y-43257200D01*
X146735714Y-43257200D02*
X146830952Y-43304819D01*
X146830952Y-43304819D02*
X147021428Y-43304819D01*
X145688095Y-42304819D02*
X146164285Y-42304819D01*
X146164285Y-42304819D02*
X146211904Y-42781009D01*
X146211904Y-42781009D02*
X146164285Y-42733390D01*
X146164285Y-42733390D02*
X146069047Y-42685771D01*
X146069047Y-42685771D02*
X145830952Y-42685771D01*
X145830952Y-42685771D02*
X145735714Y-42733390D01*
X145735714Y-42733390D02*
X145688095Y-42781009D01*
X145688095Y-42781009D02*
X145640476Y-42876247D01*
X145640476Y-42876247D02*
X145640476Y-43114342D01*
X145640476Y-43114342D02*
X145688095Y-43209580D01*
X145688095Y-43209580D02*
X145735714Y-43257200D01*
X145735714Y-43257200D02*
X145830952Y-43304819D01*
X145830952Y-43304819D02*
X146069047Y-43304819D01*
X146069047Y-43304819D02*
X146164285Y-43257200D01*
X146164285Y-43257200D02*
X146211904Y-43209580D01*
X99400057Y-86454761D02*
X99352438Y-86359523D01*
X99352438Y-86359523D02*
X99257200Y-86264285D01*
X99257200Y-86264285D02*
X99114342Y-86121428D01*
X99114342Y-86121428D02*
X99066723Y-86026190D01*
X99066723Y-86026190D02*
X99066723Y-85930952D01*
X99304819Y-85978571D02*
X99257200Y-85883333D01*
X99257200Y-85883333D02*
X99161961Y-85788095D01*
X99161961Y-85788095D02*
X98971485Y-85740476D01*
X98971485Y-85740476D02*
X98638152Y-85740476D01*
X98638152Y-85740476D02*
X98447676Y-85788095D01*
X98447676Y-85788095D02*
X98352438Y-85883333D01*
X98352438Y-85883333D02*
X98304819Y-85978571D01*
X98304819Y-85978571D02*
X98304819Y-86169047D01*
X98304819Y-86169047D02*
X98352438Y-86264285D01*
X98352438Y-86264285D02*
X98447676Y-86359523D01*
X98447676Y-86359523D02*
X98638152Y-86407142D01*
X98638152Y-86407142D02*
X98971485Y-86407142D01*
X98971485Y-86407142D02*
X99161961Y-86359523D01*
X99161961Y-86359523D02*
X99257200Y-86264285D01*
X99257200Y-86264285D02*
X99304819Y-86169047D01*
X99304819Y-86169047D02*
X99304819Y-85978571D01*
X98733390Y-86978571D02*
X98685771Y-86883333D01*
X98685771Y-86883333D02*
X98638152Y-86835714D01*
X98638152Y-86835714D02*
X98542914Y-86788095D01*
X98542914Y-86788095D02*
X98495295Y-86788095D01*
X98495295Y-86788095D02*
X98400057Y-86835714D01*
X98400057Y-86835714D02*
X98352438Y-86883333D01*
X98352438Y-86883333D02*
X98304819Y-86978571D01*
X98304819Y-86978571D02*
X98304819Y-87169047D01*
X98304819Y-87169047D02*
X98352438Y-87264285D01*
X98352438Y-87264285D02*
X98400057Y-87311904D01*
X98400057Y-87311904D02*
X98495295Y-87359523D01*
X98495295Y-87359523D02*
X98542914Y-87359523D01*
X98542914Y-87359523D02*
X98638152Y-87311904D01*
X98638152Y-87311904D02*
X98685771Y-87264285D01*
X98685771Y-87264285D02*
X98733390Y-87169047D01*
X98733390Y-87169047D02*
X98733390Y-86978571D01*
X98733390Y-86978571D02*
X98781009Y-86883333D01*
X98781009Y-86883333D02*
X98828628Y-86835714D01*
X98828628Y-86835714D02*
X98923866Y-86788095D01*
X98923866Y-86788095D02*
X99114342Y-86788095D01*
X99114342Y-86788095D02*
X99209580Y-86835714D01*
X99209580Y-86835714D02*
X99257200Y-86883333D01*
X99257200Y-86883333D02*
X99304819Y-86978571D01*
X99304819Y-86978571D02*
X99304819Y-87169047D01*
X99304819Y-87169047D02*
X99257200Y-87264285D01*
X99257200Y-87264285D02*
X99209580Y-87311904D01*
X99209580Y-87311904D02*
X99114342Y-87359523D01*
X99114342Y-87359523D02*
X98923866Y-87359523D01*
X98923866Y-87359523D02*
X98828628Y-87311904D01*
X98828628Y-87311904D02*
X98781009Y-87264285D01*
X98781009Y-87264285D02*
X98733390Y-87169047D01*
X161892857Y-76609580D02*
X161940476Y-76657200D01*
X161940476Y-76657200D02*
X162083333Y-76704819D01*
X162083333Y-76704819D02*
X162178571Y-76704819D01*
X162178571Y-76704819D02*
X162321428Y-76657200D01*
X162321428Y-76657200D02*
X162416666Y-76561961D01*
X162416666Y-76561961D02*
X162464285Y-76466723D01*
X162464285Y-76466723D02*
X162511904Y-76276247D01*
X162511904Y-76276247D02*
X162511904Y-76133390D01*
X162511904Y-76133390D02*
X162464285Y-75942914D01*
X162464285Y-75942914D02*
X162416666Y-75847676D01*
X162416666Y-75847676D02*
X162321428Y-75752438D01*
X162321428Y-75752438D02*
X162178571Y-75704819D01*
X162178571Y-75704819D02*
X162083333Y-75704819D01*
X162083333Y-75704819D02*
X161940476Y-75752438D01*
X161940476Y-75752438D02*
X161892857Y-75800057D01*
X160940476Y-76704819D02*
X161511904Y-76704819D01*
X161226190Y-76704819D02*
X161226190Y-75704819D01*
X161226190Y-75704819D02*
X161321428Y-75847676D01*
X161321428Y-75847676D02*
X161416666Y-75942914D01*
X161416666Y-75942914D02*
X161511904Y-75990533D01*
X160464285Y-76704819D02*
X160273809Y-76704819D01*
X160273809Y-76704819D02*
X160178571Y-76657200D01*
X160178571Y-76657200D02*
X160130952Y-76609580D01*
X160130952Y-76609580D02*
X160035714Y-76466723D01*
X160035714Y-76466723D02*
X159988095Y-76276247D01*
X159988095Y-76276247D02*
X159988095Y-75895295D01*
X159988095Y-75895295D02*
X160035714Y-75800057D01*
X160035714Y-75800057D02*
X160083333Y-75752438D01*
X160083333Y-75752438D02*
X160178571Y-75704819D01*
X160178571Y-75704819D02*
X160369047Y-75704819D01*
X160369047Y-75704819D02*
X160464285Y-75752438D01*
X160464285Y-75752438D02*
X160511904Y-75800057D01*
X160511904Y-75800057D02*
X160559523Y-75895295D01*
X160559523Y-75895295D02*
X160559523Y-76133390D01*
X160559523Y-76133390D02*
X160511904Y-76228628D01*
X160511904Y-76228628D02*
X160464285Y-76276247D01*
X160464285Y-76276247D02*
X160369047Y-76323866D01*
X160369047Y-76323866D02*
X160178571Y-76323866D01*
X160178571Y-76323866D02*
X160083333Y-76276247D01*
X160083333Y-76276247D02*
X160035714Y-76228628D01*
X160035714Y-76228628D02*
X159988095Y-76133390D01*
X122359580Y-79357142D02*
X122407200Y-79309523D01*
X122407200Y-79309523D02*
X122454819Y-79166666D01*
X122454819Y-79166666D02*
X122454819Y-79071428D01*
X122454819Y-79071428D02*
X122407200Y-78928571D01*
X122407200Y-78928571D02*
X122311961Y-78833333D01*
X122311961Y-78833333D02*
X122216723Y-78785714D01*
X122216723Y-78785714D02*
X122026247Y-78738095D01*
X122026247Y-78738095D02*
X121883390Y-78738095D01*
X121883390Y-78738095D02*
X121692914Y-78785714D01*
X121692914Y-78785714D02*
X121597676Y-78833333D01*
X121597676Y-78833333D02*
X121502438Y-78928571D01*
X121502438Y-78928571D02*
X121454819Y-79071428D01*
X121454819Y-79071428D02*
X121454819Y-79166666D01*
X121454819Y-79166666D02*
X121502438Y-79309523D01*
X121502438Y-79309523D02*
X121550057Y-79357142D01*
X121454819Y-79690476D02*
X121454819Y-80309523D01*
X121454819Y-80309523D02*
X121835771Y-79976190D01*
X121835771Y-79976190D02*
X121835771Y-80119047D01*
X121835771Y-80119047D02*
X121883390Y-80214285D01*
X121883390Y-80214285D02*
X121931009Y-80261904D01*
X121931009Y-80261904D02*
X122026247Y-80309523D01*
X122026247Y-80309523D02*
X122264342Y-80309523D01*
X122264342Y-80309523D02*
X122359580Y-80261904D01*
X122359580Y-80261904D02*
X122407200Y-80214285D01*
X122407200Y-80214285D02*
X122454819Y-80119047D01*
X122454819Y-80119047D02*
X122454819Y-79833333D01*
X122454819Y-79833333D02*
X122407200Y-79738095D01*
X122407200Y-79738095D02*
X122359580Y-79690476D01*
X121454819Y-81214285D02*
X121454819Y-80738095D01*
X121454819Y-80738095D02*
X121931009Y-80690476D01*
X121931009Y-80690476D02*
X121883390Y-80738095D01*
X121883390Y-80738095D02*
X121835771Y-80833333D01*
X121835771Y-80833333D02*
X121835771Y-81071428D01*
X121835771Y-81071428D02*
X121883390Y-81166666D01*
X121883390Y-81166666D02*
X121931009Y-81214285D01*
X121931009Y-81214285D02*
X122026247Y-81261904D01*
X122026247Y-81261904D02*
X122264342Y-81261904D01*
X122264342Y-81261904D02*
X122359580Y-81214285D01*
X122359580Y-81214285D02*
X122407200Y-81166666D01*
X122407200Y-81166666D02*
X122454819Y-81071428D01*
X122454819Y-81071428D02*
X122454819Y-80833333D01*
X122454819Y-80833333D02*
X122407200Y-80738095D01*
X122407200Y-80738095D02*
X122359580Y-80690476D01*
D10*
X97375000Y-117750000D02*
X106625000Y-117750000D01*
X106625000Y-126250000D02*
X97375000Y-126250000D01*
X96640000Y-125680000D02*
X96160000Y-125680000D01*
X96400000Y-125350000D01*
X96640000Y-125680000D01*
G36*
X96640000Y-125680000D02*
G01*
X96160000Y-125680000D01*
X96400000Y-125350000D01*
X96640000Y-125680000D01*
G37*
X140390000Y-119100000D02*
X140390000Y-124160000D01*
X140390000Y-124160000D02*
X143110000Y-124160000D01*
X143110000Y-119100000D02*
X143110000Y-124160000D01*
X114011252Y-121265000D02*
X113488748Y-121265000D01*
X114011252Y-122735000D02*
X113488748Y-122735000D01*
X110350000Y-117890000D02*
X115410000Y-117890000D01*
X110350000Y-120610000D02*
X115410000Y-120610000D01*
X115410000Y-120610000D02*
X115410000Y-117890000D01*
X110350000Y-123390000D02*
X115410000Y-123390000D01*
X110350000Y-126110000D02*
X115410000Y-126110000D01*
X115410000Y-126110000D02*
X115410000Y-123390000D01*
X121980000Y-94960000D02*
X138120000Y-94960000D01*
X121980000Y-116150000D02*
X121980000Y-94960000D01*
X121980000Y-116150000D02*
X138120000Y-116150000D01*
X124600000Y-94960000D02*
X124600000Y-92400000D01*
X130050000Y-94960000D02*
X130050000Y-92400000D01*
X135500000Y-94960000D02*
X135500000Y-92400000D01*
X138120000Y-116150000D02*
X138120000Y-94960000D01*
X134890000Y-119100000D02*
X134890000Y-124160000D01*
X134890000Y-124160000D02*
X137610000Y-124160000D01*
X137610000Y-119100000D02*
X137610000Y-124160000D01*
X121880000Y-43850000D02*
X121880000Y-65040000D01*
X124500000Y-65040000D02*
X124500000Y-67600000D01*
X129950000Y-65040000D02*
X129950000Y-67600000D01*
X135400000Y-65040000D02*
X135400000Y-67600000D01*
X138020000Y-43850000D02*
X121880000Y-43850000D01*
X138020000Y-43850000D02*
X138020000Y-65040000D01*
X138020000Y-65040000D02*
X121880000Y-65040000D01*
X122390000Y-119100000D02*
X122390000Y-124160000D01*
X122390000Y-124160000D02*
X125110000Y-124160000D01*
X125110000Y-119100000D02*
X125110000Y-124160000D01*
X129265000Y-120211252D02*
X129265000Y-119688748D01*
X130735000Y-120211252D02*
X130735000Y-119688748D01*
X120265000Y-120261252D02*
X120265000Y-119738748D01*
X121735000Y-120261252D02*
X121735000Y-119738748D01*
X155290000Y-78838748D02*
X155290000Y-81161252D01*
X158710000Y-78838748D02*
X158710000Y-81161252D01*
X125890000Y-119100000D02*
X125890000Y-124160000D01*
X125890000Y-124160000D02*
X128610000Y-124160000D01*
X128610000Y-119100000D02*
X128610000Y-124160000D01*
X105380000Y-43850000D02*
X105380000Y-65040000D01*
X108000000Y-65040000D02*
X108000000Y-67600000D01*
X113450000Y-65040000D02*
X113450000Y-67600000D01*
X118900000Y-65040000D02*
X118900000Y-67600000D01*
X121520000Y-43850000D02*
X105380000Y-43850000D01*
X121520000Y-43850000D02*
X121520000Y-65040000D01*
X121520000Y-65040000D02*
X105380000Y-65040000D01*
X106540000Y-78588748D02*
X106540000Y-80911252D01*
X109960000Y-78588748D02*
X109960000Y-80911252D01*
X139540000Y-78838748D02*
X139540000Y-81161252D01*
X142960000Y-78838748D02*
X142960000Y-81161252D01*
X131390000Y-119100000D02*
X131390000Y-124160000D01*
X131390000Y-124160000D02*
X134110000Y-124160000D01*
X134110000Y-119100000D02*
X134110000Y-124160000D01*
X93500164Y-121263200D02*
X92977660Y-121263200D01*
X93500164Y-122733200D02*
X92977660Y-122733200D01*
X80540000Y-68765000D02*
X80540000Y-78235000D01*
X80540000Y-78235000D02*
X83960000Y-78235000D01*
X81050000Y-69275000D02*
X81900000Y-69275000D01*
X81050000Y-73500000D02*
X81050000Y-69275000D01*
X81050000Y-73500000D02*
X81050000Y-77725000D01*
X81050000Y-77725000D02*
X81900000Y-77725000D01*
X81900000Y-69075000D02*
X82700000Y-69075000D01*
X81900000Y-69275000D02*
X81900000Y-69075000D01*
X81900000Y-77725000D02*
X81900000Y-77925000D01*
X81900000Y-77925000D02*
X82700000Y-77925000D01*
X82700000Y-69075000D02*
X82700000Y-69275000D01*
X82700000Y-69275000D02*
X83450000Y-69275000D01*
X82700000Y-77725000D02*
X83450000Y-77725000D01*
X82700000Y-77925000D02*
X82700000Y-77725000D01*
X83250000Y-68475000D02*
X84250000Y-68475000D01*
X83450000Y-69275000D02*
X83450000Y-73500000D01*
X83450000Y-77725000D02*
X83450000Y-73500000D01*
X83960000Y-68765000D02*
X80540000Y-68765000D01*
X83960000Y-78235000D02*
X83960000Y-68765000D01*
X84250000Y-69475000D02*
X84250000Y-68475000D01*
X80540000Y-79265000D02*
X80540000Y-88735000D01*
X80540000Y-88735000D02*
X83960000Y-88735000D01*
X81050000Y-79775000D02*
X81900000Y-79775000D01*
X81050000Y-84000000D02*
X81050000Y-79775000D01*
X81050000Y-84000000D02*
X81050000Y-88225000D01*
X81050000Y-88225000D02*
X81900000Y-88225000D01*
X81900000Y-79575000D02*
X82700000Y-79575000D01*
X81900000Y-79775000D02*
X81900000Y-79575000D01*
X81900000Y-88225000D02*
X81900000Y-88425000D01*
X81900000Y-88425000D02*
X82700000Y-88425000D01*
X82700000Y-79575000D02*
X82700000Y-79775000D01*
X82700000Y-79775000D02*
X83450000Y-79775000D01*
X82700000Y-88225000D02*
X83450000Y-88225000D01*
X82700000Y-88425000D02*
X82700000Y-88225000D01*
X83250000Y-78975000D02*
X84250000Y-78975000D01*
X83450000Y-79775000D02*
X83450000Y-84000000D01*
X83450000Y-88225000D02*
X83450000Y-84000000D01*
X83960000Y-79265000D02*
X80540000Y-79265000D01*
X83960000Y-88735000D02*
X83960000Y-79265000D01*
X84250000Y-79975000D02*
X84250000Y-78975000D01*
X80540000Y-58265000D02*
X80540000Y-67735000D01*
X80540000Y-67735000D02*
X83960000Y-67735000D01*
X81050000Y-58775000D02*
X81900000Y-58775000D01*
X81050000Y-63000000D02*
X81050000Y-58775000D01*
X81050000Y-63000000D02*
X81050000Y-67225000D01*
X81050000Y-67225000D02*
X81900000Y-67225000D01*
X81900000Y-58575000D02*
X82700000Y-58575000D01*
X81900000Y-58775000D02*
X81900000Y-58575000D01*
X81900000Y-67225000D02*
X81900000Y-67425000D01*
X81900000Y-67425000D02*
X82700000Y-67425000D01*
X82700000Y-58575000D02*
X82700000Y-58775000D01*
X82700000Y-58775000D02*
X83450000Y-58775000D01*
X82700000Y-67225000D02*
X83450000Y-67225000D01*
X82700000Y-67425000D02*
X82700000Y-67225000D01*
X83250000Y-57975000D02*
X84250000Y-57975000D01*
X83450000Y-58775000D02*
X83450000Y-63000000D01*
X83450000Y-67225000D02*
X83450000Y-63000000D01*
X83960000Y-58265000D02*
X80540000Y-58265000D01*
X83960000Y-67735000D02*
X83960000Y-58265000D01*
X84250000Y-58975000D02*
X84250000Y-57975000D01*
X163790000Y-78838748D02*
X163790000Y-81161252D01*
X167210000Y-78838748D02*
X167210000Y-81161252D01*
X116890000Y-119100000D02*
X116890000Y-124160000D01*
X116890000Y-124160000D02*
X119610000Y-124160000D01*
X119610000Y-119100000D02*
X119610000Y-124160000D01*
X138265000Y-120261252D02*
X138265000Y-119738748D01*
X139735000Y-120261252D02*
X139735000Y-119738748D01*
X80590000Y-41640000D02*
X80590000Y-53610000D01*
X80590000Y-53610000D02*
X84010000Y-53610000D01*
X81100000Y-42150000D02*
X81950000Y-42150000D01*
X81100000Y-47625000D02*
X81100000Y-42150000D01*
X81100000Y-47625000D02*
X81100000Y-53100000D01*
X81100000Y-53100000D02*
X81950000Y-53100000D01*
X81950000Y-41950000D02*
X82750000Y-41950000D01*
X81950000Y-42150000D02*
X81950000Y-41950000D01*
X81950000Y-53100000D02*
X81950000Y-53300000D01*
X81950000Y-53300000D02*
X82750000Y-53300000D01*
X82750000Y-41950000D02*
X82750000Y-42150000D01*
X82750000Y-42150000D02*
X83500000Y-42150000D01*
X82750000Y-53100000D02*
X83500000Y-53100000D01*
X82750000Y-53300000D02*
X82750000Y-53100000D01*
X83300000Y-41350000D02*
X84300000Y-41350000D01*
X83500000Y-42150000D02*
X83500000Y-47625000D01*
X83500000Y-53100000D02*
X83500000Y-47625000D01*
X84010000Y-41640000D02*
X80590000Y-41640000D01*
X84010000Y-53610000D02*
X84010000Y-41640000D01*
X84300000Y-42350000D02*
X84300000Y-41350000D01*
X138480000Y-94960000D02*
X154620000Y-94960000D01*
X138480000Y-116150000D02*
X138480000Y-94960000D01*
X138480000Y-116150000D02*
X154620000Y-116150000D01*
X141100000Y-94960000D02*
X141100000Y-92400000D01*
X146550000Y-94960000D02*
X146550000Y-92400000D01*
X152000000Y-94960000D02*
X152000000Y-92400000D01*
X154620000Y-116150000D02*
X154620000Y-94960000D01*
X138380000Y-43850000D02*
X138380000Y-65040000D01*
X141000000Y-65040000D02*
X141000000Y-67600000D01*
X146450000Y-65040000D02*
X146450000Y-67600000D01*
X151900000Y-65040000D02*
X151900000Y-67600000D01*
X154520000Y-43850000D02*
X138380000Y-43850000D01*
X154520000Y-43850000D02*
X154520000Y-65040000D01*
X154520000Y-65040000D02*
X138380000Y-65040000D01*
X105480000Y-94960000D02*
X121620000Y-94960000D01*
X105480000Y-116150000D02*
X105480000Y-94960000D01*
X105480000Y-116150000D02*
X121620000Y-116150000D01*
X108100000Y-94960000D02*
X108100000Y-92400000D01*
X113550000Y-94960000D02*
X113550000Y-92400000D01*
X119000000Y-94960000D02*
X119000000Y-92400000D01*
X121620000Y-116150000D02*
X121620000Y-94960000D01*
X159540000Y-78838748D02*
X159540000Y-81161252D01*
X162960000Y-78838748D02*
X162960000Y-81161252D01*
X123040000Y-78838748D02*
X123040000Y-81161252D01*
X126460000Y-78838748D02*
X126460000Y-81161252D01*
M02*
