G04 #@! TF.GenerationSoftware,KiCad,Pcbnew,6.0.2-1.fc35*
G04 #@! TF.CreationDate,2022-04-02T15:35:02-04:00*
G04 #@! TF.ProjectId,universal-half-bridge,756e6976-6572-4736-916c-2d68616c662d,rev?*
G04 #@! TF.SameCoordinates,Original*
G04 #@! TF.FileFunction,Legend,Bot*
G04 #@! TF.FilePolarity,Positive*
%FSLAX46Y46*%
G04 Gerber Fmt 4.6, Leading zero omitted, Abs format (unit mm)*
G04 Created by KiCad (PCBNEW 6.0.2-1.fc35) date 2022-04-02 15:35:02*
%MOMM*%
%LPD*%
G01*
G04 APERTURE LIST*
%ADD10C,0.150000*%
%ADD11C,0.120000*%
G04 APERTURE END LIST*
D10*
X192095238Y-105952380D02*
X192428571Y-105476190D01*
X192666666Y-105952380D02*
X192666666Y-104952380D01*
X192285714Y-104952380D01*
X192190476Y-105000000D01*
X192142857Y-105047619D01*
X192095238Y-105142857D01*
X192095238Y-105285714D01*
X192142857Y-105380952D01*
X192190476Y-105428571D01*
X192285714Y-105476190D01*
X192666666Y-105476190D01*
X191809523Y-104952380D02*
X191238095Y-104952380D01*
X191523809Y-105952380D02*
X191523809Y-104952380D01*
X190904761Y-105952380D02*
X190904761Y-104952380D01*
X190333333Y-105952380D01*
X190333333Y-104952380D01*
X193464285Y-90952380D02*
X193464285Y-89952380D01*
X193464285Y-90428571D02*
X192892857Y-90428571D01*
X192892857Y-90952380D02*
X192892857Y-89952380D01*
X192559523Y-89952380D02*
X192226190Y-90952380D01*
X191892857Y-89952380D01*
X191559523Y-90952380D02*
X191559523Y-89952380D01*
X191321428Y-89952380D01*
X191178571Y-90000000D01*
X191083333Y-90095238D01*
X191035714Y-90190476D01*
X190988095Y-90380952D01*
X190988095Y-90523809D01*
X191035714Y-90714285D01*
X191083333Y-90809523D01*
X191178571Y-90904761D01*
X191321428Y-90952380D01*
X191559523Y-90952380D01*
X189988095Y-90857142D02*
X190035714Y-90904761D01*
X190178571Y-90952380D01*
X190273809Y-90952380D01*
X190416666Y-90904761D01*
X190511904Y-90809523D01*
X190559523Y-90714285D01*
X190607142Y-90523809D01*
X190607142Y-90380952D01*
X190559523Y-90190476D01*
X190511904Y-90095238D01*
X190416666Y-90000000D01*
X190273809Y-89952380D01*
X190178571Y-89952380D01*
X190035714Y-90000000D01*
X189988095Y-90047619D01*
X141761904Y-142702380D02*
X141190476Y-142702380D01*
X141476190Y-143702380D02*
X141476190Y-142702380D01*
X140904761Y-142797619D02*
X140857142Y-142750000D01*
X140761904Y-142702380D01*
X140523809Y-142702380D01*
X140428571Y-142750000D01*
X140380952Y-142797619D01*
X140333333Y-142892857D01*
X140333333Y-142988095D01*
X140380952Y-143130952D01*
X140952380Y-143702380D01*
X140333333Y-143702380D01*
X153761904Y-51702380D02*
X153190476Y-51702380D01*
X153476190Y-52702380D02*
X153476190Y-51702380D01*
X152380952Y-51702380D02*
X152857142Y-51702380D01*
X152904761Y-52178571D01*
X152857142Y-52130952D01*
X152761904Y-52083333D01*
X152523809Y-52083333D01*
X152428571Y-52130952D01*
X152380952Y-52178571D01*
X152333333Y-52273809D01*
X152333333Y-52511904D01*
X152380952Y-52607142D01*
X152428571Y-52654761D01*
X152523809Y-52702380D01*
X152761904Y-52702380D01*
X152857142Y-52654761D01*
X152904761Y-52607142D01*
X153761904Y-142702380D02*
X153190476Y-142702380D01*
X153476190Y-143702380D02*
X153476190Y-142702380D01*
X152428571Y-142702380D02*
X152619047Y-142702380D01*
X152714285Y-142750000D01*
X152761904Y-142797619D01*
X152857142Y-142940476D01*
X152904761Y-143130952D01*
X152904761Y-143511904D01*
X152857142Y-143607142D01*
X152809523Y-143654761D01*
X152714285Y-143702380D01*
X152523809Y-143702380D01*
X152428571Y-143654761D01*
X152380952Y-143607142D01*
X152333333Y-143511904D01*
X152333333Y-143273809D01*
X152380952Y-143178571D01*
X152428571Y-143130952D01*
X152523809Y-143083333D01*
X152714285Y-143083333D01*
X152809523Y-143130952D01*
X152857142Y-143178571D01*
X152904761Y-143273809D01*
X147761904Y-142702380D02*
X147190476Y-142702380D01*
X147476190Y-143702380D02*
X147476190Y-142702380D01*
X146428571Y-143035714D02*
X146428571Y-143702380D01*
X146666666Y-142654761D02*
X146904761Y-143369047D01*
X146285714Y-143369047D01*
X147761904Y-51702380D02*
X147190476Y-51702380D01*
X147476190Y-52702380D02*
X147476190Y-51702380D01*
X146952380Y-51702380D02*
X146333333Y-51702380D01*
X146666666Y-52083333D01*
X146523809Y-52083333D01*
X146428571Y-52130952D01*
X146380952Y-52178571D01*
X146333333Y-52273809D01*
X146333333Y-52511904D01*
X146380952Y-52607142D01*
X146428571Y-52654761D01*
X146523809Y-52702380D01*
X146809523Y-52702380D01*
X146904761Y-52654761D01*
X146952380Y-52607142D01*
X141761904Y-51702380D02*
X141190476Y-51702380D01*
X141476190Y-52702380D02*
X141476190Y-51702380D01*
X140333333Y-52702380D02*
X140904761Y-52702380D01*
X140619047Y-52702380D02*
X140619047Y-51702380D01*
X140714285Y-51845238D01*
X140809523Y-51940476D01*
X140904761Y-51988095D01*
X174357142Y-105357142D02*
X174404761Y-105309523D01*
X174452380Y-105166666D01*
X174452380Y-105071428D01*
X174404761Y-104928571D01*
X174309523Y-104833333D01*
X174214285Y-104785714D01*
X174023809Y-104738095D01*
X173880952Y-104738095D01*
X173690476Y-104785714D01*
X173595238Y-104833333D01*
X173500000Y-104928571D01*
X173452380Y-105071428D01*
X173452380Y-105166666D01*
X173500000Y-105309523D01*
X173547619Y-105357142D01*
X173452380Y-105690476D02*
X173452380Y-106309523D01*
X173833333Y-105976190D01*
X173833333Y-106119047D01*
X173880952Y-106214285D01*
X173928571Y-106261904D01*
X174023809Y-106309523D01*
X174261904Y-106309523D01*
X174357142Y-106261904D01*
X174404761Y-106214285D01*
X174452380Y-106119047D01*
X174452380Y-105833333D01*
X174404761Y-105738095D01*
X174357142Y-105690476D01*
X173452380Y-106642857D02*
X173452380Y-107261904D01*
X173833333Y-106928571D01*
X173833333Y-107071428D01*
X173880952Y-107166666D01*
X173928571Y-107214285D01*
X174023809Y-107261904D01*
X174261904Y-107261904D01*
X174357142Y-107214285D01*
X174404761Y-107166666D01*
X174452380Y-107071428D01*
X174452380Y-106785714D01*
X174404761Y-106690476D01*
X174357142Y-106642857D01*
X175857142Y-105357142D02*
X175904761Y-105309523D01*
X175952380Y-105166666D01*
X175952380Y-105071428D01*
X175904761Y-104928571D01*
X175809523Y-104833333D01*
X175714285Y-104785714D01*
X175523809Y-104738095D01*
X175380952Y-104738095D01*
X175190476Y-104785714D01*
X175095238Y-104833333D01*
X175000000Y-104928571D01*
X174952380Y-105071428D01*
X174952380Y-105166666D01*
X175000000Y-105309523D01*
X175047619Y-105357142D01*
X174952380Y-105690476D02*
X174952380Y-106309523D01*
X175333333Y-105976190D01*
X175333333Y-106119047D01*
X175380952Y-106214285D01*
X175428571Y-106261904D01*
X175523809Y-106309523D01*
X175761904Y-106309523D01*
X175857142Y-106261904D01*
X175904761Y-106214285D01*
X175952380Y-106119047D01*
X175952380Y-105833333D01*
X175904761Y-105738095D01*
X175857142Y-105690476D01*
X175047619Y-106690476D02*
X175000000Y-106738095D01*
X174952380Y-106833333D01*
X174952380Y-107071428D01*
X175000000Y-107166666D01*
X175047619Y-107214285D01*
X175142857Y-107261904D01*
X175238095Y-107261904D01*
X175380952Y-107214285D01*
X175952380Y-106642857D01*
X175952380Y-107261904D01*
X177357142Y-105357142D02*
X177404761Y-105309523D01*
X177452380Y-105166666D01*
X177452380Y-105071428D01*
X177404761Y-104928571D01*
X177309523Y-104833333D01*
X177214285Y-104785714D01*
X177023809Y-104738095D01*
X176880952Y-104738095D01*
X176690476Y-104785714D01*
X176595238Y-104833333D01*
X176500000Y-104928571D01*
X176452380Y-105071428D01*
X176452380Y-105166666D01*
X176500000Y-105309523D01*
X176547619Y-105357142D01*
X176452380Y-105690476D02*
X176452380Y-106309523D01*
X176833333Y-105976190D01*
X176833333Y-106119047D01*
X176880952Y-106214285D01*
X176928571Y-106261904D01*
X177023809Y-106309523D01*
X177261904Y-106309523D01*
X177357142Y-106261904D01*
X177404761Y-106214285D01*
X177452380Y-106119047D01*
X177452380Y-105833333D01*
X177404761Y-105738095D01*
X177357142Y-105690476D01*
X177452380Y-107261904D02*
X177452380Y-106690476D01*
X177452380Y-106976190D02*
X176452380Y-106976190D01*
X176595238Y-106880952D01*
X176690476Y-106785714D01*
X176738095Y-106690476D01*
X158357142Y-89357142D02*
X158404761Y-89309523D01*
X158452380Y-89166666D01*
X158452380Y-89071428D01*
X158404761Y-88928571D01*
X158309523Y-88833333D01*
X158214285Y-88785714D01*
X158023809Y-88738095D01*
X157880952Y-88738095D01*
X157690476Y-88785714D01*
X157595238Y-88833333D01*
X157500000Y-88928571D01*
X157452380Y-89071428D01*
X157452380Y-89166666D01*
X157500000Y-89309523D01*
X157547619Y-89357142D01*
X157452380Y-89690476D02*
X157452380Y-90309523D01*
X157833333Y-89976190D01*
X157833333Y-90119047D01*
X157880952Y-90214285D01*
X157928571Y-90261904D01*
X158023809Y-90309523D01*
X158261904Y-90309523D01*
X158357142Y-90261904D01*
X158404761Y-90214285D01*
X158452380Y-90119047D01*
X158452380Y-89833333D01*
X158404761Y-89738095D01*
X158357142Y-89690476D01*
X157452380Y-90928571D02*
X157452380Y-91023809D01*
X157500000Y-91119047D01*
X157547619Y-91166666D01*
X157642857Y-91214285D01*
X157833333Y-91261904D01*
X158071428Y-91261904D01*
X158261904Y-91214285D01*
X158357142Y-91166666D01*
X158404761Y-91119047D01*
X158452380Y-91023809D01*
X158452380Y-90928571D01*
X158404761Y-90833333D01*
X158357142Y-90785714D01*
X158261904Y-90738095D01*
X158071428Y-90690476D01*
X157833333Y-90690476D01*
X157642857Y-90738095D01*
X157547619Y-90785714D01*
X157500000Y-90833333D01*
X157452380Y-90928571D01*
X156857142Y-89357142D02*
X156904761Y-89309523D01*
X156952380Y-89166666D01*
X156952380Y-89071428D01*
X156904761Y-88928571D01*
X156809523Y-88833333D01*
X156714285Y-88785714D01*
X156523809Y-88738095D01*
X156380952Y-88738095D01*
X156190476Y-88785714D01*
X156095238Y-88833333D01*
X156000000Y-88928571D01*
X155952380Y-89071428D01*
X155952380Y-89166666D01*
X156000000Y-89309523D01*
X156047619Y-89357142D01*
X156047619Y-89738095D02*
X156000000Y-89785714D01*
X155952380Y-89880952D01*
X155952380Y-90119047D01*
X156000000Y-90214285D01*
X156047619Y-90261904D01*
X156142857Y-90309523D01*
X156238095Y-90309523D01*
X156380952Y-90261904D01*
X156952380Y-89690476D01*
X156952380Y-90309523D01*
X156952380Y-90785714D02*
X156952380Y-90976190D01*
X156904761Y-91071428D01*
X156857142Y-91119047D01*
X156714285Y-91214285D01*
X156523809Y-91261904D01*
X156142857Y-91261904D01*
X156047619Y-91214285D01*
X156000000Y-91166666D01*
X155952380Y-91071428D01*
X155952380Y-90880952D01*
X156000000Y-90785714D01*
X156047619Y-90738095D01*
X156142857Y-90690476D01*
X156380952Y-90690476D01*
X156476190Y-90738095D01*
X156523809Y-90785714D01*
X156571428Y-90880952D01*
X156571428Y-91071428D01*
X156523809Y-91166666D01*
X156476190Y-91214285D01*
X156380952Y-91261904D01*
X155357142Y-89357142D02*
X155404761Y-89309523D01*
X155452380Y-89166666D01*
X155452380Y-89071428D01*
X155404761Y-88928571D01*
X155309523Y-88833333D01*
X155214285Y-88785714D01*
X155023809Y-88738095D01*
X154880952Y-88738095D01*
X154690476Y-88785714D01*
X154595238Y-88833333D01*
X154500000Y-88928571D01*
X154452380Y-89071428D01*
X154452380Y-89166666D01*
X154500000Y-89309523D01*
X154547619Y-89357142D01*
X154547619Y-89738095D02*
X154500000Y-89785714D01*
X154452380Y-89880952D01*
X154452380Y-90119047D01*
X154500000Y-90214285D01*
X154547619Y-90261904D01*
X154642857Y-90309523D01*
X154738095Y-90309523D01*
X154880952Y-90261904D01*
X155452380Y-89690476D01*
X155452380Y-90309523D01*
X154880952Y-90880952D02*
X154833333Y-90785714D01*
X154785714Y-90738095D01*
X154690476Y-90690476D01*
X154642857Y-90690476D01*
X154547619Y-90738095D01*
X154500000Y-90785714D01*
X154452380Y-90880952D01*
X154452380Y-91071428D01*
X154500000Y-91166666D01*
X154547619Y-91214285D01*
X154642857Y-91261904D01*
X154690476Y-91261904D01*
X154785714Y-91214285D01*
X154833333Y-91166666D01*
X154880952Y-91071428D01*
X154880952Y-90880952D01*
X154928571Y-90785714D01*
X154976190Y-90738095D01*
X155071428Y-90690476D01*
X155261904Y-90690476D01*
X155357142Y-90738095D01*
X155404761Y-90785714D01*
X155452380Y-90880952D01*
X155452380Y-91071428D01*
X155404761Y-91166666D01*
X155357142Y-91214285D01*
X155261904Y-91261904D01*
X155071428Y-91261904D01*
X154976190Y-91214285D01*
X154928571Y-91166666D01*
X154880952Y-91071428D01*
X155357142Y-105357142D02*
X155404761Y-105309523D01*
X155452380Y-105166666D01*
X155452380Y-105071428D01*
X155404761Y-104928571D01*
X155309523Y-104833333D01*
X155214285Y-104785714D01*
X155023809Y-104738095D01*
X154880952Y-104738095D01*
X154690476Y-104785714D01*
X154595238Y-104833333D01*
X154500000Y-104928571D01*
X154452380Y-105071428D01*
X154452380Y-105166666D01*
X154500000Y-105309523D01*
X154547619Y-105357142D01*
X154547619Y-105738095D02*
X154500000Y-105785714D01*
X154452380Y-105880952D01*
X154452380Y-106119047D01*
X154500000Y-106214285D01*
X154547619Y-106261904D01*
X154642857Y-106309523D01*
X154738095Y-106309523D01*
X154880952Y-106261904D01*
X155452380Y-105690476D01*
X155452380Y-106309523D01*
X154452380Y-106642857D02*
X154452380Y-107309523D01*
X155452380Y-106880952D01*
X156857142Y-105357142D02*
X156904761Y-105309523D01*
X156952380Y-105166666D01*
X156952380Y-105071428D01*
X156904761Y-104928571D01*
X156809523Y-104833333D01*
X156714285Y-104785714D01*
X156523809Y-104738095D01*
X156380952Y-104738095D01*
X156190476Y-104785714D01*
X156095238Y-104833333D01*
X156000000Y-104928571D01*
X155952380Y-105071428D01*
X155952380Y-105166666D01*
X156000000Y-105309523D01*
X156047619Y-105357142D01*
X156047619Y-105738095D02*
X156000000Y-105785714D01*
X155952380Y-105880952D01*
X155952380Y-106119047D01*
X156000000Y-106214285D01*
X156047619Y-106261904D01*
X156142857Y-106309523D01*
X156238095Y-106309523D01*
X156380952Y-106261904D01*
X156952380Y-105690476D01*
X156952380Y-106309523D01*
X155952380Y-107166666D02*
X155952380Y-106976190D01*
X156000000Y-106880952D01*
X156047619Y-106833333D01*
X156190476Y-106738095D01*
X156380952Y-106690476D01*
X156761904Y-106690476D01*
X156857142Y-106738095D01*
X156904761Y-106785714D01*
X156952380Y-106880952D01*
X156952380Y-107071428D01*
X156904761Y-107166666D01*
X156857142Y-107214285D01*
X156761904Y-107261904D01*
X156523809Y-107261904D01*
X156428571Y-107214285D01*
X156380952Y-107166666D01*
X156333333Y-107071428D01*
X156333333Y-106880952D01*
X156380952Y-106785714D01*
X156428571Y-106738095D01*
X156523809Y-106690476D01*
X158357142Y-105357142D02*
X158404761Y-105309523D01*
X158452380Y-105166666D01*
X158452380Y-105071428D01*
X158404761Y-104928571D01*
X158309523Y-104833333D01*
X158214285Y-104785714D01*
X158023809Y-104738095D01*
X157880952Y-104738095D01*
X157690476Y-104785714D01*
X157595238Y-104833333D01*
X157500000Y-104928571D01*
X157452380Y-105071428D01*
X157452380Y-105166666D01*
X157500000Y-105309523D01*
X157547619Y-105357142D01*
X157547619Y-105738095D02*
X157500000Y-105785714D01*
X157452380Y-105880952D01*
X157452380Y-106119047D01*
X157500000Y-106214285D01*
X157547619Y-106261904D01*
X157642857Y-106309523D01*
X157738095Y-106309523D01*
X157880952Y-106261904D01*
X158452380Y-105690476D01*
X158452380Y-106309523D01*
X157452380Y-107214285D02*
X157452380Y-106738095D01*
X157928571Y-106690476D01*
X157880952Y-106738095D01*
X157833333Y-106833333D01*
X157833333Y-107071428D01*
X157880952Y-107166666D01*
X157928571Y-107214285D01*
X158023809Y-107261904D01*
X158261904Y-107261904D01*
X158357142Y-107214285D01*
X158404761Y-107166666D01*
X158452380Y-107071428D01*
X158452380Y-106833333D01*
X158404761Y-106738095D01*
X158357142Y-106690476D01*
X139357142Y-89357142D02*
X139404761Y-89309523D01*
X139452380Y-89166666D01*
X139452380Y-89071428D01*
X139404761Y-88928571D01*
X139309523Y-88833333D01*
X139214285Y-88785714D01*
X139023809Y-88738095D01*
X138880952Y-88738095D01*
X138690476Y-88785714D01*
X138595238Y-88833333D01*
X138500000Y-88928571D01*
X138452380Y-89071428D01*
X138452380Y-89166666D01*
X138500000Y-89309523D01*
X138547619Y-89357142D01*
X138547619Y-89738095D02*
X138500000Y-89785714D01*
X138452380Y-89880952D01*
X138452380Y-90119047D01*
X138500000Y-90214285D01*
X138547619Y-90261904D01*
X138642857Y-90309523D01*
X138738095Y-90309523D01*
X138880952Y-90261904D01*
X139452380Y-89690476D01*
X139452380Y-90309523D01*
X138785714Y-91166666D02*
X139452380Y-91166666D01*
X138404761Y-90928571D02*
X139119047Y-90690476D01*
X139119047Y-91309523D01*
X137857142Y-89357142D02*
X137904761Y-89309523D01*
X137952380Y-89166666D01*
X137952380Y-89071428D01*
X137904761Y-88928571D01*
X137809523Y-88833333D01*
X137714285Y-88785714D01*
X137523809Y-88738095D01*
X137380952Y-88738095D01*
X137190476Y-88785714D01*
X137095238Y-88833333D01*
X137000000Y-88928571D01*
X136952380Y-89071428D01*
X136952380Y-89166666D01*
X137000000Y-89309523D01*
X137047619Y-89357142D01*
X137047619Y-89738095D02*
X137000000Y-89785714D01*
X136952380Y-89880952D01*
X136952380Y-90119047D01*
X137000000Y-90214285D01*
X137047619Y-90261904D01*
X137142857Y-90309523D01*
X137238095Y-90309523D01*
X137380952Y-90261904D01*
X137952380Y-89690476D01*
X137952380Y-90309523D01*
X136952380Y-90642857D02*
X136952380Y-91261904D01*
X137333333Y-90928571D01*
X137333333Y-91071428D01*
X137380952Y-91166666D01*
X137428571Y-91214285D01*
X137523809Y-91261904D01*
X137761904Y-91261904D01*
X137857142Y-91214285D01*
X137904761Y-91166666D01*
X137952380Y-91071428D01*
X137952380Y-90785714D01*
X137904761Y-90690476D01*
X137857142Y-90642857D01*
X136357142Y-89357142D02*
X136404761Y-89309523D01*
X136452380Y-89166666D01*
X136452380Y-89071428D01*
X136404761Y-88928571D01*
X136309523Y-88833333D01*
X136214285Y-88785714D01*
X136023809Y-88738095D01*
X135880952Y-88738095D01*
X135690476Y-88785714D01*
X135595238Y-88833333D01*
X135500000Y-88928571D01*
X135452380Y-89071428D01*
X135452380Y-89166666D01*
X135500000Y-89309523D01*
X135547619Y-89357142D01*
X135547619Y-89738095D02*
X135500000Y-89785714D01*
X135452380Y-89880952D01*
X135452380Y-90119047D01*
X135500000Y-90214285D01*
X135547619Y-90261904D01*
X135642857Y-90309523D01*
X135738095Y-90309523D01*
X135880952Y-90261904D01*
X136452380Y-89690476D01*
X136452380Y-90309523D01*
X135547619Y-90690476D02*
X135500000Y-90738095D01*
X135452380Y-90833333D01*
X135452380Y-91071428D01*
X135500000Y-91166666D01*
X135547619Y-91214285D01*
X135642857Y-91261904D01*
X135738095Y-91261904D01*
X135880952Y-91214285D01*
X136452380Y-90642857D01*
X136452380Y-91261904D01*
X136357142Y-105357142D02*
X136404761Y-105309523D01*
X136452380Y-105166666D01*
X136452380Y-105071428D01*
X136404761Y-104928571D01*
X136309523Y-104833333D01*
X136214285Y-104785714D01*
X136023809Y-104738095D01*
X135880952Y-104738095D01*
X135690476Y-104785714D01*
X135595238Y-104833333D01*
X135500000Y-104928571D01*
X135452380Y-105071428D01*
X135452380Y-105166666D01*
X135500000Y-105309523D01*
X135547619Y-105357142D01*
X135547619Y-105738095D02*
X135500000Y-105785714D01*
X135452380Y-105880952D01*
X135452380Y-106119047D01*
X135500000Y-106214285D01*
X135547619Y-106261904D01*
X135642857Y-106309523D01*
X135738095Y-106309523D01*
X135880952Y-106261904D01*
X136452380Y-105690476D01*
X136452380Y-106309523D01*
X136452380Y-107261904D02*
X136452380Y-106690476D01*
X136452380Y-106976190D02*
X135452380Y-106976190D01*
X135595238Y-106880952D01*
X135690476Y-106785714D01*
X135738095Y-106690476D01*
X137857142Y-105357142D02*
X137904761Y-105309523D01*
X137952380Y-105166666D01*
X137952380Y-105071428D01*
X137904761Y-104928571D01*
X137809523Y-104833333D01*
X137714285Y-104785714D01*
X137523809Y-104738095D01*
X137380952Y-104738095D01*
X137190476Y-104785714D01*
X137095238Y-104833333D01*
X137000000Y-104928571D01*
X136952380Y-105071428D01*
X136952380Y-105166666D01*
X137000000Y-105309523D01*
X137047619Y-105357142D01*
X137047619Y-105738095D02*
X137000000Y-105785714D01*
X136952380Y-105880952D01*
X136952380Y-106119047D01*
X137000000Y-106214285D01*
X137047619Y-106261904D01*
X137142857Y-106309523D01*
X137238095Y-106309523D01*
X137380952Y-106261904D01*
X137952380Y-105690476D01*
X137952380Y-106309523D01*
X136952380Y-106928571D02*
X136952380Y-107023809D01*
X137000000Y-107119047D01*
X137047619Y-107166666D01*
X137142857Y-107214285D01*
X137333333Y-107261904D01*
X137571428Y-107261904D01*
X137761904Y-107214285D01*
X137857142Y-107166666D01*
X137904761Y-107119047D01*
X137952380Y-107023809D01*
X137952380Y-106928571D01*
X137904761Y-106833333D01*
X137857142Y-106785714D01*
X137761904Y-106738095D01*
X137571428Y-106690476D01*
X137333333Y-106690476D01*
X137142857Y-106738095D01*
X137047619Y-106785714D01*
X137000000Y-106833333D01*
X136952380Y-106928571D01*
X139357142Y-105357142D02*
X139404761Y-105309523D01*
X139452380Y-105166666D01*
X139452380Y-105071428D01*
X139404761Y-104928571D01*
X139309523Y-104833333D01*
X139214285Y-104785714D01*
X139023809Y-104738095D01*
X138880952Y-104738095D01*
X138690476Y-104785714D01*
X138595238Y-104833333D01*
X138500000Y-104928571D01*
X138452380Y-105071428D01*
X138452380Y-105166666D01*
X138500000Y-105309523D01*
X138547619Y-105357142D01*
X139452380Y-106309523D02*
X139452380Y-105738095D01*
X139452380Y-106023809D02*
X138452380Y-106023809D01*
X138595238Y-105928571D01*
X138690476Y-105833333D01*
X138738095Y-105738095D01*
X139452380Y-106785714D02*
X139452380Y-106976190D01*
X139404761Y-107071428D01*
X139357142Y-107119047D01*
X139214285Y-107214285D01*
X139023809Y-107261904D01*
X138642857Y-107261904D01*
X138547619Y-107214285D01*
X138500000Y-107166666D01*
X138452380Y-107071428D01*
X138452380Y-106880952D01*
X138500000Y-106785714D01*
X138547619Y-106738095D01*
X138642857Y-106690476D01*
X138880952Y-106690476D01*
X138976190Y-106738095D01*
X139023809Y-106785714D01*
X139071428Y-106880952D01*
X139071428Y-107071428D01*
X139023809Y-107166666D01*
X138976190Y-107214285D01*
X138880952Y-107261904D01*
X120857142Y-89357142D02*
X120904761Y-89309523D01*
X120952380Y-89166666D01*
X120952380Y-89071428D01*
X120904761Y-88928571D01*
X120809523Y-88833333D01*
X120714285Y-88785714D01*
X120523809Y-88738095D01*
X120380952Y-88738095D01*
X120190476Y-88785714D01*
X120095238Y-88833333D01*
X120000000Y-88928571D01*
X119952380Y-89071428D01*
X119952380Y-89166666D01*
X120000000Y-89309523D01*
X120047619Y-89357142D01*
X120952380Y-90309523D02*
X120952380Y-89738095D01*
X120952380Y-90023809D02*
X119952380Y-90023809D01*
X120095238Y-89928571D01*
X120190476Y-89833333D01*
X120238095Y-89738095D01*
X120380952Y-90880952D02*
X120333333Y-90785714D01*
X120285714Y-90738095D01*
X120190476Y-90690476D01*
X120142857Y-90690476D01*
X120047619Y-90738095D01*
X120000000Y-90785714D01*
X119952380Y-90880952D01*
X119952380Y-91071428D01*
X120000000Y-91166666D01*
X120047619Y-91214285D01*
X120142857Y-91261904D01*
X120190476Y-91261904D01*
X120285714Y-91214285D01*
X120333333Y-91166666D01*
X120380952Y-91071428D01*
X120380952Y-90880952D01*
X120428571Y-90785714D01*
X120476190Y-90738095D01*
X120571428Y-90690476D01*
X120761904Y-90690476D01*
X120857142Y-90738095D01*
X120904761Y-90785714D01*
X120952380Y-90880952D01*
X120952380Y-91071428D01*
X120904761Y-91166666D01*
X120857142Y-91214285D01*
X120761904Y-91261904D01*
X120571428Y-91261904D01*
X120476190Y-91214285D01*
X120428571Y-91166666D01*
X120380952Y-91071428D01*
X119357142Y-89357142D02*
X119404761Y-89309523D01*
X119452380Y-89166666D01*
X119452380Y-89071428D01*
X119404761Y-88928571D01*
X119309523Y-88833333D01*
X119214285Y-88785714D01*
X119023809Y-88738095D01*
X118880952Y-88738095D01*
X118690476Y-88785714D01*
X118595238Y-88833333D01*
X118500000Y-88928571D01*
X118452380Y-89071428D01*
X118452380Y-89166666D01*
X118500000Y-89309523D01*
X118547619Y-89357142D01*
X119452380Y-90309523D02*
X119452380Y-89738095D01*
X119452380Y-90023809D02*
X118452380Y-90023809D01*
X118595238Y-89928571D01*
X118690476Y-89833333D01*
X118738095Y-89738095D01*
X118452380Y-90642857D02*
X118452380Y-91309523D01*
X119452380Y-90880952D01*
X117857142Y-89357142D02*
X117904761Y-89309523D01*
X117952380Y-89166666D01*
X117952380Y-89071428D01*
X117904761Y-88928571D01*
X117809523Y-88833333D01*
X117714285Y-88785714D01*
X117523809Y-88738095D01*
X117380952Y-88738095D01*
X117190476Y-88785714D01*
X117095238Y-88833333D01*
X117000000Y-88928571D01*
X116952380Y-89071428D01*
X116952380Y-89166666D01*
X117000000Y-89309523D01*
X117047619Y-89357142D01*
X117952380Y-90309523D02*
X117952380Y-89738095D01*
X117952380Y-90023809D02*
X116952380Y-90023809D01*
X117095238Y-89928571D01*
X117190476Y-89833333D01*
X117238095Y-89738095D01*
X116952380Y-91166666D02*
X116952380Y-90976190D01*
X117000000Y-90880952D01*
X117047619Y-90833333D01*
X117190476Y-90738095D01*
X117380952Y-90690476D01*
X117761904Y-90690476D01*
X117857142Y-90738095D01*
X117904761Y-90785714D01*
X117952380Y-90880952D01*
X117952380Y-91071428D01*
X117904761Y-91166666D01*
X117857142Y-91214285D01*
X117761904Y-91261904D01*
X117523809Y-91261904D01*
X117428571Y-91214285D01*
X117380952Y-91166666D01*
X117333333Y-91071428D01*
X117333333Y-90880952D01*
X117380952Y-90785714D01*
X117428571Y-90738095D01*
X117523809Y-90690476D01*
X170166666Y-94857142D02*
X170214285Y-94904761D01*
X170357142Y-94952380D01*
X170452380Y-94952380D01*
X170595238Y-94904761D01*
X170690476Y-94809523D01*
X170738095Y-94714285D01*
X170785714Y-94523809D01*
X170785714Y-94380952D01*
X170738095Y-94190476D01*
X170690476Y-94095238D01*
X170595238Y-94000000D01*
X170452380Y-93952380D01*
X170357142Y-93952380D01*
X170214285Y-94000000D01*
X170166666Y-94047619D01*
X169690476Y-94952380D02*
X169500000Y-94952380D01*
X169404761Y-94904761D01*
X169357142Y-94857142D01*
X169261904Y-94714285D01*
X169214285Y-94523809D01*
X169214285Y-94142857D01*
X169261904Y-94047619D01*
X169309523Y-94000000D01*
X169404761Y-93952380D01*
X169595238Y-93952380D01*
X169690476Y-94000000D01*
X169738095Y-94047619D01*
X169785714Y-94142857D01*
X169785714Y-94380952D01*
X169738095Y-94476190D01*
X169690476Y-94523809D01*
X169595238Y-94571428D01*
X169404761Y-94571428D01*
X169309523Y-94523809D01*
X169261904Y-94476190D01*
X169214285Y-94380952D01*
X151166666Y-94857142D02*
X151214285Y-94904761D01*
X151357142Y-94952380D01*
X151452380Y-94952380D01*
X151595238Y-94904761D01*
X151690476Y-94809523D01*
X151738095Y-94714285D01*
X151785714Y-94523809D01*
X151785714Y-94380952D01*
X151738095Y-94190476D01*
X151690476Y-94095238D01*
X151595238Y-94000000D01*
X151452380Y-93952380D01*
X151357142Y-93952380D01*
X151214285Y-94000000D01*
X151166666Y-94047619D01*
X150309523Y-93952380D02*
X150500000Y-93952380D01*
X150595238Y-94000000D01*
X150642857Y-94047619D01*
X150738095Y-94190476D01*
X150785714Y-94380952D01*
X150785714Y-94761904D01*
X150738095Y-94857142D01*
X150690476Y-94904761D01*
X150595238Y-94952380D01*
X150404761Y-94952380D01*
X150309523Y-94904761D01*
X150261904Y-94857142D01*
X150214285Y-94761904D01*
X150214285Y-94523809D01*
X150261904Y-94428571D01*
X150309523Y-94380952D01*
X150404761Y-94333333D01*
X150595238Y-94333333D01*
X150690476Y-94380952D01*
X150738095Y-94428571D01*
X150785714Y-94523809D01*
X132166666Y-94857142D02*
X132214285Y-94904761D01*
X132357142Y-94952380D01*
X132452380Y-94952380D01*
X132595238Y-94904761D01*
X132690476Y-94809523D01*
X132738095Y-94714285D01*
X132785714Y-94523809D01*
X132785714Y-94380952D01*
X132738095Y-94190476D01*
X132690476Y-94095238D01*
X132595238Y-94000000D01*
X132452380Y-93952380D01*
X132357142Y-93952380D01*
X132214285Y-94000000D01*
X132166666Y-94047619D01*
X131833333Y-93952380D02*
X131214285Y-93952380D01*
X131547619Y-94333333D01*
X131404761Y-94333333D01*
X131309523Y-94380952D01*
X131261904Y-94428571D01*
X131214285Y-94523809D01*
X131214285Y-94761904D01*
X131261904Y-94857142D01*
X131309523Y-94904761D01*
X131404761Y-94952380D01*
X131690476Y-94952380D01*
X131785714Y-94904761D01*
X131833333Y-94857142D01*
X124166666Y-80452380D02*
X124500000Y-79976190D01*
X124738095Y-80452380D02*
X124738095Y-79452380D01*
X124357142Y-79452380D01*
X124261904Y-79500000D01*
X124214285Y-79547619D01*
X124166666Y-79642857D01*
X124166666Y-79785714D01*
X124214285Y-79880952D01*
X124261904Y-79928571D01*
X124357142Y-79976190D01*
X124738095Y-79976190D01*
X123785714Y-79547619D02*
X123738095Y-79500000D01*
X123642857Y-79452380D01*
X123404761Y-79452380D01*
X123309523Y-79500000D01*
X123261904Y-79547619D01*
X123214285Y-79642857D01*
X123214285Y-79738095D01*
X123261904Y-79880952D01*
X123833333Y-80452380D01*
X123214285Y-80452380D01*
X129166666Y-114952380D02*
X129500000Y-114476190D01*
X129738095Y-114952380D02*
X129738095Y-113952380D01*
X129357142Y-113952380D01*
X129261904Y-114000000D01*
X129214285Y-114047619D01*
X129166666Y-114142857D01*
X129166666Y-114285714D01*
X129214285Y-114380952D01*
X129261904Y-114428571D01*
X129357142Y-114476190D01*
X129738095Y-114476190D01*
X128309523Y-113952380D02*
X128500000Y-113952380D01*
X128595238Y-114000000D01*
X128642857Y-114047619D01*
X128738095Y-114190476D01*
X128785714Y-114380952D01*
X128785714Y-114761904D01*
X128738095Y-114857142D01*
X128690476Y-114904761D01*
X128595238Y-114952380D01*
X128404761Y-114952380D01*
X128309523Y-114904761D01*
X128261904Y-114857142D01*
X128214285Y-114761904D01*
X128214285Y-114523809D01*
X128261904Y-114428571D01*
X128309523Y-114380952D01*
X128404761Y-114333333D01*
X128595238Y-114333333D01*
X128690476Y-114380952D01*
X128738095Y-114428571D01*
X128785714Y-114523809D01*
X130666666Y-84332380D02*
X131000000Y-83856190D01*
X131238095Y-84332380D02*
X131238095Y-83332380D01*
X130857142Y-83332380D01*
X130761904Y-83380000D01*
X130714285Y-83427619D01*
X130666666Y-83522857D01*
X130666666Y-83665714D01*
X130714285Y-83760952D01*
X130761904Y-83808571D01*
X130857142Y-83856190D01*
X131238095Y-83856190D01*
X129809523Y-83665714D02*
X129809523Y-84332380D01*
X130047619Y-83284761D02*
X130285714Y-83999047D01*
X129666666Y-83999047D01*
X125666666Y-112572380D02*
X126000000Y-112096190D01*
X126238095Y-112572380D02*
X126238095Y-111572380D01*
X125857142Y-111572380D01*
X125761904Y-111620000D01*
X125714285Y-111667619D01*
X125666666Y-111762857D01*
X125666666Y-111905714D01*
X125714285Y-112000952D01*
X125761904Y-112048571D01*
X125857142Y-112096190D01*
X126238095Y-112096190D01*
X125333333Y-111572380D02*
X124666666Y-111572380D01*
X125095238Y-112572380D01*
X143254166Y-80952380D02*
X143587500Y-80476190D01*
X143825595Y-80952380D02*
X143825595Y-79952380D01*
X143444642Y-79952380D01*
X143349404Y-80000000D01*
X143301785Y-80047619D01*
X143254166Y-80142857D01*
X143254166Y-80285714D01*
X143301785Y-80380952D01*
X143349404Y-80428571D01*
X143444642Y-80476190D01*
X143825595Y-80476190D01*
X142682738Y-80380952D02*
X142777976Y-80333333D01*
X142825595Y-80285714D01*
X142873214Y-80190476D01*
X142873214Y-80142857D01*
X142825595Y-80047619D01*
X142777976Y-80000000D01*
X142682738Y-79952380D01*
X142492261Y-79952380D01*
X142397023Y-80000000D01*
X142349404Y-80047619D01*
X142301785Y-80142857D01*
X142301785Y-80190476D01*
X142349404Y-80285714D01*
X142397023Y-80333333D01*
X142492261Y-80380952D01*
X142682738Y-80380952D01*
X142777976Y-80428571D01*
X142825595Y-80476190D01*
X142873214Y-80571428D01*
X142873214Y-80761904D01*
X142825595Y-80857142D01*
X142777976Y-80904761D01*
X142682738Y-80952380D01*
X142492261Y-80952380D01*
X142397023Y-80904761D01*
X142349404Y-80857142D01*
X142301785Y-80761904D01*
X142301785Y-80571428D01*
X142349404Y-80476190D01*
X142397023Y-80428571D01*
X142492261Y-80380952D01*
X149142857Y-114602380D02*
X149476190Y-114126190D01*
X149714285Y-114602380D02*
X149714285Y-113602380D01*
X149333333Y-113602380D01*
X149238095Y-113650000D01*
X149190476Y-113697619D01*
X149142857Y-113792857D01*
X149142857Y-113935714D01*
X149190476Y-114030952D01*
X149238095Y-114078571D01*
X149333333Y-114126190D01*
X149714285Y-114126190D01*
X148190476Y-114602380D02*
X148761904Y-114602380D01*
X148476190Y-114602380D02*
X148476190Y-113602380D01*
X148571428Y-113745238D01*
X148666666Y-113840476D01*
X148761904Y-113888095D01*
X147809523Y-113697619D02*
X147761904Y-113650000D01*
X147666666Y-113602380D01*
X147428571Y-113602380D01*
X147333333Y-113650000D01*
X147285714Y-113697619D01*
X147238095Y-113792857D01*
X147238095Y-113888095D01*
X147285714Y-114030952D01*
X147857142Y-114602380D01*
X147238095Y-114602380D01*
X150142857Y-84332380D02*
X150476190Y-83856190D01*
X150714285Y-84332380D02*
X150714285Y-83332380D01*
X150333333Y-83332380D01*
X150238095Y-83380000D01*
X150190476Y-83427619D01*
X150142857Y-83522857D01*
X150142857Y-83665714D01*
X150190476Y-83760952D01*
X150238095Y-83808571D01*
X150333333Y-83856190D01*
X150714285Y-83856190D01*
X149190476Y-84332380D02*
X149761904Y-84332380D01*
X149476190Y-84332380D02*
X149476190Y-83332380D01*
X149571428Y-83475238D01*
X149666666Y-83570476D01*
X149761904Y-83618095D01*
X148571428Y-83332380D02*
X148476190Y-83332380D01*
X148380952Y-83380000D01*
X148333333Y-83427619D01*
X148285714Y-83522857D01*
X148238095Y-83713333D01*
X148238095Y-83951428D01*
X148285714Y-84141904D01*
X148333333Y-84237142D01*
X148380952Y-84284761D01*
X148476190Y-84332380D01*
X148571428Y-84332380D01*
X148666666Y-84284761D01*
X148714285Y-84237142D01*
X148761904Y-84141904D01*
X148809523Y-83951428D01*
X148809523Y-83713333D01*
X148761904Y-83522857D01*
X148714285Y-83427619D01*
X148666666Y-83380000D01*
X148571428Y-83332380D01*
X145142857Y-112452380D02*
X145476190Y-111976190D01*
X145714285Y-112452380D02*
X145714285Y-111452380D01*
X145333333Y-111452380D01*
X145238095Y-111500000D01*
X145190476Y-111547619D01*
X145142857Y-111642857D01*
X145142857Y-111785714D01*
X145190476Y-111880952D01*
X145238095Y-111928571D01*
X145333333Y-111976190D01*
X145714285Y-111976190D01*
X144190476Y-112452380D02*
X144761904Y-112452380D01*
X144476190Y-112452380D02*
X144476190Y-111452380D01*
X144571428Y-111595238D01*
X144666666Y-111690476D01*
X144761904Y-111738095D01*
X143857142Y-111452380D02*
X143238095Y-111452380D01*
X143571428Y-111833333D01*
X143428571Y-111833333D01*
X143333333Y-111880952D01*
X143285714Y-111928571D01*
X143238095Y-112023809D01*
X143238095Y-112261904D01*
X143285714Y-112357142D01*
X143333333Y-112404761D01*
X143428571Y-112452380D01*
X143714285Y-112452380D01*
X143809523Y-112404761D01*
X143857142Y-112357142D01*
X173642857Y-114952380D02*
X173976190Y-114476190D01*
X174214285Y-114952380D02*
X174214285Y-113952380D01*
X173833333Y-113952380D01*
X173738095Y-114000000D01*
X173690476Y-114047619D01*
X173642857Y-114142857D01*
X173642857Y-114285714D01*
X173690476Y-114380952D01*
X173738095Y-114428571D01*
X173833333Y-114476190D01*
X174214285Y-114476190D01*
X172690476Y-114952380D02*
X173261904Y-114952380D01*
X172976190Y-114952380D02*
X172976190Y-113952380D01*
X173071428Y-114095238D01*
X173166666Y-114190476D01*
X173261904Y-114238095D01*
X172357142Y-113952380D02*
X171690476Y-113952380D01*
X172119047Y-114952380D01*
X164142857Y-112572380D02*
X164476190Y-112096190D01*
X164714285Y-112572380D02*
X164714285Y-111572380D01*
X164333333Y-111572380D01*
X164238095Y-111620000D01*
X164190476Y-111667619D01*
X164142857Y-111762857D01*
X164142857Y-111905714D01*
X164190476Y-112000952D01*
X164238095Y-112048571D01*
X164333333Y-112096190D01*
X164714285Y-112096190D01*
X163190476Y-112572380D02*
X163761904Y-112572380D01*
X163476190Y-112572380D02*
X163476190Y-111572380D01*
X163571428Y-111715238D01*
X163666666Y-111810476D01*
X163761904Y-111858095D01*
X162714285Y-112572380D02*
X162523809Y-112572380D01*
X162428571Y-112524761D01*
X162380952Y-112477142D01*
X162285714Y-112334285D01*
X162238095Y-112143809D01*
X162238095Y-111762857D01*
X162285714Y-111667619D01*
X162333333Y-111620000D01*
X162428571Y-111572380D01*
X162619047Y-111572380D01*
X162714285Y-111620000D01*
X162761904Y-111667619D01*
X162809523Y-111762857D01*
X162809523Y-112000952D01*
X162761904Y-112096190D01*
X162714285Y-112143809D01*
X162619047Y-112191428D01*
X162428571Y-112191428D01*
X162333333Y-112143809D01*
X162285714Y-112096190D01*
X162238095Y-112000952D01*
X169142857Y-84332380D02*
X169476190Y-83856190D01*
X169714285Y-84332380D02*
X169714285Y-83332380D01*
X169333333Y-83332380D01*
X169238095Y-83380000D01*
X169190476Y-83427619D01*
X169142857Y-83522857D01*
X169142857Y-83665714D01*
X169190476Y-83760952D01*
X169238095Y-83808571D01*
X169333333Y-83856190D01*
X169714285Y-83856190D01*
X168190476Y-84332380D02*
X168761904Y-84332380D01*
X168476190Y-84332380D02*
X168476190Y-83332380D01*
X168571428Y-83475238D01*
X168666666Y-83570476D01*
X168761904Y-83618095D01*
X167333333Y-83332380D02*
X167523809Y-83332380D01*
X167619047Y-83380000D01*
X167666666Y-83427619D01*
X167761904Y-83570476D01*
X167809523Y-83760952D01*
X167809523Y-84141904D01*
X167761904Y-84237142D01*
X167714285Y-84284761D01*
X167619047Y-84332380D01*
X167428571Y-84332380D01*
X167333333Y-84284761D01*
X167285714Y-84237142D01*
X167238095Y-84141904D01*
X167238095Y-83903809D01*
X167285714Y-83808571D01*
X167333333Y-83760952D01*
X167428571Y-83713333D01*
X167619047Y-83713333D01*
X167714285Y-83760952D01*
X167761904Y-83808571D01*
X167809523Y-83903809D01*
X168142857Y-114952380D02*
X168476190Y-114476190D01*
X168714285Y-114952380D02*
X168714285Y-113952380D01*
X168333333Y-113952380D01*
X168238095Y-114000000D01*
X168190476Y-114047619D01*
X168142857Y-114142857D01*
X168142857Y-114285714D01*
X168190476Y-114380952D01*
X168238095Y-114428571D01*
X168333333Y-114476190D01*
X168714285Y-114476190D01*
X167190476Y-114952380D02*
X167761904Y-114952380D01*
X167476190Y-114952380D02*
X167476190Y-113952380D01*
X167571428Y-114095238D01*
X167666666Y-114190476D01*
X167761904Y-114238095D01*
X166619047Y-114380952D02*
X166714285Y-114333333D01*
X166761904Y-114285714D01*
X166809523Y-114190476D01*
X166809523Y-114142857D01*
X166761904Y-114047619D01*
X166714285Y-114000000D01*
X166619047Y-113952380D01*
X166428571Y-113952380D01*
X166333333Y-114000000D01*
X166285714Y-114047619D01*
X166238095Y-114142857D01*
X166238095Y-114190476D01*
X166285714Y-114285714D01*
X166333333Y-114333333D01*
X166428571Y-114380952D01*
X166619047Y-114380952D01*
X166714285Y-114428571D01*
X166761904Y-114476190D01*
X166809523Y-114571428D01*
X166809523Y-114761904D01*
X166761904Y-114857142D01*
X166714285Y-114904761D01*
X166619047Y-114952380D01*
X166428571Y-114952380D01*
X166333333Y-114904761D01*
X166285714Y-114857142D01*
X166238095Y-114761904D01*
X166238095Y-114571428D01*
X166285714Y-114476190D01*
X166333333Y-114428571D01*
X166428571Y-114380952D01*
X166642857Y-80802380D02*
X166976190Y-80326190D01*
X167214285Y-80802380D02*
X167214285Y-79802380D01*
X166833333Y-79802380D01*
X166738095Y-79850000D01*
X166690476Y-79897619D01*
X166642857Y-79992857D01*
X166642857Y-80135714D01*
X166690476Y-80230952D01*
X166738095Y-80278571D01*
X166833333Y-80326190D01*
X167214285Y-80326190D01*
X165690476Y-80802380D02*
X166261904Y-80802380D01*
X165976190Y-80802380D02*
X165976190Y-79802380D01*
X166071428Y-79945238D01*
X166166666Y-80040476D01*
X166261904Y-80088095D01*
X164785714Y-79802380D02*
X165261904Y-79802380D01*
X165309523Y-80278571D01*
X165261904Y-80230952D01*
X165166666Y-80183333D01*
X164928571Y-80183333D01*
X164833333Y-80230952D01*
X164785714Y-80278571D01*
X164738095Y-80373809D01*
X164738095Y-80611904D01*
X164785714Y-80707142D01*
X164833333Y-80754761D01*
X164928571Y-80802380D01*
X165166666Y-80802380D01*
X165261904Y-80754761D01*
X165309523Y-80707142D01*
X155988095Y-80452380D02*
X155988095Y-79452380D01*
X155750000Y-79452380D01*
X155607142Y-79500000D01*
X155511904Y-79595238D01*
X155464285Y-79690476D01*
X155416666Y-79880952D01*
X155416666Y-80023809D01*
X155464285Y-80214285D01*
X155511904Y-80309523D01*
X155607142Y-80404761D01*
X155750000Y-80452380D01*
X155988095Y-80452380D01*
X155083333Y-79452380D02*
X154464285Y-79452380D01*
X154797619Y-79833333D01*
X154654761Y-79833333D01*
X154559523Y-79880952D01*
X154511904Y-79928571D01*
X154464285Y-80023809D01*
X154464285Y-80261904D01*
X154511904Y-80357142D01*
X154559523Y-80404761D01*
X154654761Y-80452380D01*
X154940476Y-80452380D01*
X155035714Y-80404761D01*
X155083333Y-80357142D01*
X136988095Y-80452380D02*
X136988095Y-79452380D01*
X136750000Y-79452380D01*
X136607142Y-79500000D01*
X136511904Y-79595238D01*
X136464285Y-79690476D01*
X136416666Y-79880952D01*
X136416666Y-80023809D01*
X136464285Y-80214285D01*
X136511904Y-80309523D01*
X136607142Y-80404761D01*
X136750000Y-80452380D01*
X136988095Y-80452380D01*
X136035714Y-79547619D02*
X135988095Y-79500000D01*
X135892857Y-79452380D01*
X135654761Y-79452380D01*
X135559523Y-79500000D01*
X135511904Y-79547619D01*
X135464285Y-79642857D01*
X135464285Y-79738095D01*
X135511904Y-79880952D01*
X136083333Y-80452380D01*
X135464285Y-80452380D01*
X135166666Y-114952380D02*
X135500000Y-114476190D01*
X135738095Y-114952380D02*
X135738095Y-113952380D01*
X135357142Y-113952380D01*
X135261904Y-114000000D01*
X135214285Y-114047619D01*
X135166666Y-114142857D01*
X135166666Y-114285714D01*
X135214285Y-114380952D01*
X135261904Y-114428571D01*
X135357142Y-114476190D01*
X135738095Y-114476190D01*
X134261904Y-113952380D02*
X134738095Y-113952380D01*
X134785714Y-114428571D01*
X134738095Y-114380952D01*
X134642857Y-114333333D01*
X134404761Y-114333333D01*
X134309523Y-114380952D01*
X134261904Y-114428571D01*
X134214285Y-114523809D01*
X134214285Y-114761904D01*
X134261904Y-114857142D01*
X134309523Y-114904761D01*
X134404761Y-114952380D01*
X134642857Y-114952380D01*
X134738095Y-114904761D01*
X134785714Y-114857142D01*
X170761904Y-111452380D02*
X170761904Y-112261904D01*
X170714285Y-112357142D01*
X170666666Y-112404761D01*
X170571428Y-112452380D01*
X170380952Y-112452380D01*
X170285714Y-112404761D01*
X170238095Y-112357142D01*
X170190476Y-112261904D01*
X170190476Y-111452380D01*
X169285714Y-111452380D02*
X169476190Y-111452380D01*
X169571428Y-111500000D01*
X169619047Y-111547619D01*
X169714285Y-111690476D01*
X169761904Y-111880952D01*
X169761904Y-112261904D01*
X169714285Y-112357142D01*
X169666666Y-112404761D01*
X169571428Y-112452380D01*
X169380952Y-112452380D01*
X169285714Y-112404761D01*
X169238095Y-112357142D01*
X169190476Y-112261904D01*
X169190476Y-112023809D01*
X169238095Y-111928571D01*
X169285714Y-111880952D01*
X169380952Y-111833333D01*
X169571428Y-111833333D01*
X169666666Y-111880952D01*
X169714285Y-111928571D01*
X169761904Y-112023809D01*
X162761904Y-83452380D02*
X162761904Y-84261904D01*
X162714285Y-84357142D01*
X162666666Y-84404761D01*
X162571428Y-84452380D01*
X162380952Y-84452380D01*
X162285714Y-84404761D01*
X162238095Y-84357142D01*
X162190476Y-84261904D01*
X162190476Y-83452380D01*
X161238095Y-83452380D02*
X161714285Y-83452380D01*
X161761904Y-83928571D01*
X161714285Y-83880952D01*
X161619047Y-83833333D01*
X161380952Y-83833333D01*
X161285714Y-83880952D01*
X161238095Y-83928571D01*
X161190476Y-84023809D01*
X161190476Y-84261904D01*
X161238095Y-84357142D01*
X161285714Y-84404761D01*
X161380952Y-84452380D01*
X161619047Y-84452380D01*
X161714285Y-84404761D01*
X161761904Y-84357142D01*
X151761904Y-111452380D02*
X151761904Y-112261904D01*
X151714285Y-112357142D01*
X151666666Y-112404761D01*
X151571428Y-112452380D01*
X151380952Y-112452380D01*
X151285714Y-112404761D01*
X151238095Y-112357142D01*
X151190476Y-112261904D01*
X151190476Y-111452380D01*
X150285714Y-111785714D02*
X150285714Y-112452380D01*
X150523809Y-111404761D02*
X150761904Y-112119047D01*
X150142857Y-112119047D01*
X143761904Y-83452380D02*
X143761904Y-84261904D01*
X143714285Y-84357142D01*
X143666666Y-84404761D01*
X143571428Y-84452380D01*
X143380952Y-84452380D01*
X143285714Y-84404761D01*
X143238095Y-84357142D01*
X143190476Y-84261904D01*
X143190476Y-83452380D01*
X142809523Y-83452380D02*
X142190476Y-83452380D01*
X142523809Y-83833333D01*
X142380952Y-83833333D01*
X142285714Y-83880952D01*
X142238095Y-83928571D01*
X142190476Y-84023809D01*
X142190476Y-84261904D01*
X142238095Y-84357142D01*
X142285714Y-84404761D01*
X142380952Y-84452380D01*
X142666666Y-84452380D01*
X142761904Y-84404761D01*
X142809523Y-84357142D01*
X132761904Y-111452380D02*
X132761904Y-112261904D01*
X132714285Y-112357142D01*
X132666666Y-112404761D01*
X132571428Y-112452380D01*
X132380952Y-112452380D01*
X132285714Y-112404761D01*
X132238095Y-112357142D01*
X132190476Y-112261904D01*
X132190476Y-111452380D01*
X131761904Y-111547619D02*
X131714285Y-111500000D01*
X131619047Y-111452380D01*
X131380952Y-111452380D01*
X131285714Y-111500000D01*
X131238095Y-111547619D01*
X131190476Y-111642857D01*
X131190476Y-111738095D01*
X131238095Y-111880952D01*
X131809523Y-112452380D01*
X131190476Y-112452380D01*
X124761904Y-83452380D02*
X124761904Y-84261904D01*
X124714285Y-84357142D01*
X124666666Y-84404761D01*
X124571428Y-84452380D01*
X124380952Y-84452380D01*
X124285714Y-84404761D01*
X124238095Y-84357142D01*
X124190476Y-84261904D01*
X124190476Y-83452380D01*
X123190476Y-84452380D02*
X123761904Y-84452380D01*
X123476190Y-84452380D02*
X123476190Y-83452380D01*
X123571428Y-83595238D01*
X123666666Y-83690476D01*
X123761904Y-83738095D01*
X162642857Y-80802380D02*
X162976190Y-80326190D01*
X163214285Y-80802380D02*
X163214285Y-79802380D01*
X162833333Y-79802380D01*
X162738095Y-79850000D01*
X162690476Y-79897619D01*
X162642857Y-79992857D01*
X162642857Y-80135714D01*
X162690476Y-80230952D01*
X162738095Y-80278571D01*
X162833333Y-80326190D01*
X163214285Y-80326190D01*
X161690476Y-80802380D02*
X162261904Y-80802380D01*
X161976190Y-80802380D02*
X161976190Y-79802380D01*
X162071428Y-79945238D01*
X162166666Y-80040476D01*
X162261904Y-80088095D01*
X160833333Y-80135714D02*
X160833333Y-80802380D01*
X161071428Y-79754761D02*
X161309523Y-80469047D01*
X160690476Y-80469047D01*
X147166666Y-80952380D02*
X147500000Y-80476190D01*
X147738095Y-80952380D02*
X147738095Y-79952380D01*
X147357142Y-79952380D01*
X147261904Y-80000000D01*
X147214285Y-80047619D01*
X147166666Y-80142857D01*
X147166666Y-80285714D01*
X147214285Y-80380952D01*
X147261904Y-80428571D01*
X147357142Y-80476190D01*
X147738095Y-80476190D01*
X146690476Y-80952380D02*
X146500000Y-80952380D01*
X146404761Y-80904761D01*
X146357142Y-80857142D01*
X146261904Y-80714285D01*
X146214285Y-80523809D01*
X146214285Y-80142857D01*
X146261904Y-80047619D01*
X146309523Y-80000000D01*
X146404761Y-79952380D01*
X146595238Y-79952380D01*
X146690476Y-80000000D01*
X146738095Y-80047619D01*
X146785714Y-80142857D01*
X146785714Y-80380952D01*
X146738095Y-80476190D01*
X146690476Y-80523809D01*
X146595238Y-80571428D01*
X146404761Y-80571428D01*
X146309523Y-80523809D01*
X146261904Y-80476190D01*
X146214285Y-80380952D01*
X154642857Y-114602380D02*
X154976190Y-114126190D01*
X155214285Y-114602380D02*
X155214285Y-113602380D01*
X154833333Y-113602380D01*
X154738095Y-113650000D01*
X154690476Y-113697619D01*
X154642857Y-113792857D01*
X154642857Y-113935714D01*
X154690476Y-114030952D01*
X154738095Y-114078571D01*
X154833333Y-114126190D01*
X155214285Y-114126190D01*
X153690476Y-114602380D02*
X154261904Y-114602380D01*
X153976190Y-114602380D02*
X153976190Y-113602380D01*
X154071428Y-113745238D01*
X154166666Y-113840476D01*
X154261904Y-113888095D01*
X152738095Y-114602380D02*
X153309523Y-114602380D01*
X153023809Y-114602380D02*
X153023809Y-113602380D01*
X153119047Y-113745238D01*
X153214285Y-113840476D01*
X153309523Y-113888095D01*
X128254166Y-80452380D02*
X128587500Y-79976190D01*
X128825595Y-80452380D02*
X128825595Y-79452380D01*
X128444642Y-79452380D01*
X128349404Y-79500000D01*
X128301785Y-79547619D01*
X128254166Y-79642857D01*
X128254166Y-79785714D01*
X128301785Y-79880952D01*
X128349404Y-79928571D01*
X128444642Y-79976190D01*
X128825595Y-79976190D01*
X127920833Y-79452380D02*
X127301785Y-79452380D01*
X127635119Y-79833333D01*
X127492261Y-79833333D01*
X127397023Y-79880952D01*
X127349404Y-79928571D01*
X127301785Y-80023809D01*
X127301785Y-80261904D01*
X127349404Y-80357142D01*
X127397023Y-80404761D01*
X127492261Y-80452380D01*
X127777976Y-80452380D01*
X127873214Y-80404761D01*
X127920833Y-80357142D01*
X117988095Y-80452380D02*
X117988095Y-79452380D01*
X117750000Y-79452380D01*
X117607142Y-79500000D01*
X117511904Y-79595238D01*
X117464285Y-79690476D01*
X117416666Y-79880952D01*
X117416666Y-80023809D01*
X117464285Y-80214285D01*
X117511904Y-80309523D01*
X117607142Y-80404761D01*
X117750000Y-80452380D01*
X117988095Y-80452380D01*
X116464285Y-80452380D02*
X117035714Y-80452380D01*
X116750000Y-80452380D02*
X116750000Y-79452380D01*
X116845238Y-79595238D01*
X116940476Y-79690476D01*
X117035714Y-79738095D01*
D11*
X127000000Y-101000000D02*
X127000000Y-100000000D01*
X121000000Y-95000000D02*
X127000000Y-95000000D01*
X127000000Y-95000000D02*
X127000000Y-96000000D01*
X121000000Y-101000000D02*
X121000000Y-100000000D01*
X127000000Y-101000000D02*
X121000000Y-101000000D01*
X121000000Y-95000000D02*
X121000000Y-96000000D01*
X146000000Y-101000000D02*
X146000000Y-100000000D01*
X140000000Y-95000000D02*
X146000000Y-95000000D01*
X146000000Y-95000000D02*
X146000000Y-96000000D01*
X140000000Y-101000000D02*
X140000000Y-100000000D01*
X146000000Y-101000000D02*
X140000000Y-101000000D01*
X140000000Y-95000000D02*
X140000000Y-96000000D01*
X165000000Y-101000000D02*
X165000000Y-100000000D01*
X159000000Y-95000000D02*
X165000000Y-95000000D01*
X165000000Y-95000000D02*
X165000000Y-96000000D01*
X159000000Y-101000000D02*
X159000000Y-100000000D01*
X165000000Y-101000000D02*
X159000000Y-101000000D01*
X159000000Y-95000000D02*
X159000000Y-96000000D01*
X194500000Y-104500000D02*
X194500000Y-103500000D01*
X188500000Y-98500000D02*
X194500000Y-98500000D01*
X194500000Y-98500000D02*
X194500000Y-99500000D01*
X188500000Y-104500000D02*
X188500000Y-103500000D01*
X194500000Y-104500000D02*
X188500000Y-104500000D01*
X188500000Y-98500000D02*
X188500000Y-99500000D01*
X194500000Y-97500000D02*
X194500000Y-96500000D01*
X188500000Y-91500000D02*
X194500000Y-91500000D01*
X194500000Y-91500000D02*
X194500000Y-92500000D01*
X188500000Y-97500000D02*
X188500000Y-96500000D01*
X194500000Y-97500000D02*
X188500000Y-97500000D01*
X188500000Y-91500000D02*
X188500000Y-92500000D01*
X139730000Y-136230000D02*
X139730000Y-134960000D01*
X142270000Y-136230000D02*
X142270000Y-134960000D01*
X138460000Y-141310000D02*
X138460000Y-133690000D01*
X142270000Y-140040000D02*
X142270000Y-138770000D01*
X139730000Y-140040000D02*
X139730000Y-138770000D01*
X143540000Y-141310000D02*
X143540000Y-133690000D01*
X141254000Y-138770000D02*
G75*
G03*
X140746000Y-138770000I-254000J0D01*
G01*
X140238000Y-136230000D02*
G75*
G03*
X140746000Y-136230000I254000J0D01*
G01*
X141762000Y-136230000D02*
G75*
G03*
X142270000Y-136230000I254000J0D01*
G01*
X141762000Y-138770000D02*
G75*
G03*
X141254000Y-138770000I-254000J0D01*
G01*
X140746000Y-138770000D02*
G75*
G03*
X140238000Y-138770000I-254000J0D01*
G01*
X140746000Y-136230000D02*
G75*
G03*
X141254000Y-136230000I254000J0D01*
G01*
X141254000Y-136230000D02*
G75*
G03*
X141762000Y-136230000I254000J0D01*
G01*
X142270000Y-138770000D02*
G75*
G03*
X141762000Y-138770000I-254000J0D01*
G01*
X140238000Y-138770000D02*
G75*
G03*
X139730000Y-138770000I-254000J0D01*
G01*
X139730000Y-136230000D02*
G75*
G03*
X140238000Y-136230000I254000J0D01*
G01*
X154270000Y-59270000D02*
X154270000Y-60540000D01*
X151730000Y-59270000D02*
X151730000Y-60540000D01*
X155540000Y-54190000D02*
X155540000Y-61810000D01*
X151730000Y-55460000D02*
X151730000Y-56730000D01*
X154270000Y-55460000D02*
X154270000Y-56730000D01*
X150460000Y-54190000D02*
X150460000Y-61810000D01*
X152746000Y-56730000D02*
G75*
G03*
X153254000Y-56730000I254000J0D01*
G01*
X153762000Y-59270000D02*
G75*
G03*
X153254000Y-59270000I-254000J0D01*
G01*
X152238000Y-59270000D02*
G75*
G03*
X151730000Y-59270000I-254000J0D01*
G01*
X152238000Y-56730000D02*
G75*
G03*
X152746000Y-56730000I254000J0D01*
G01*
X153254000Y-56730000D02*
G75*
G03*
X153762000Y-56730000I254000J0D01*
G01*
X153254000Y-59270000D02*
G75*
G03*
X152746000Y-59270000I-254000J0D01*
G01*
X152746000Y-59270000D02*
G75*
G03*
X152238000Y-59270000I-254000J0D01*
G01*
X151730000Y-56730000D02*
G75*
G03*
X152238000Y-56730000I254000J0D01*
G01*
X153762000Y-56730000D02*
G75*
G03*
X154270000Y-56730000I254000J0D01*
G01*
X154270000Y-59270000D02*
G75*
G03*
X153762000Y-59270000I-254000J0D01*
G01*
X151730000Y-136230000D02*
X151730000Y-134960000D01*
X154270000Y-136230000D02*
X154270000Y-134960000D01*
X150460000Y-141310000D02*
X150460000Y-133690000D01*
X154270000Y-140040000D02*
X154270000Y-138770000D01*
X151730000Y-140040000D02*
X151730000Y-138770000D01*
X155540000Y-141310000D02*
X155540000Y-133690000D01*
X153254000Y-138770000D02*
G75*
G03*
X152746000Y-138770000I-254000J0D01*
G01*
X152238000Y-136230000D02*
G75*
G03*
X152746000Y-136230000I254000J0D01*
G01*
X153762000Y-136230000D02*
G75*
G03*
X154270000Y-136230000I254000J0D01*
G01*
X153762000Y-138770000D02*
G75*
G03*
X153254000Y-138770000I-254000J0D01*
G01*
X152746000Y-138770000D02*
G75*
G03*
X152238000Y-138770000I-254000J0D01*
G01*
X152746000Y-136230000D02*
G75*
G03*
X153254000Y-136230000I254000J0D01*
G01*
X153254000Y-136230000D02*
G75*
G03*
X153762000Y-136230000I254000J0D01*
G01*
X154270000Y-138770000D02*
G75*
G03*
X153762000Y-138770000I-254000J0D01*
G01*
X152238000Y-138770000D02*
G75*
G03*
X151730000Y-138770000I-254000J0D01*
G01*
X151730000Y-136230000D02*
G75*
G03*
X152238000Y-136230000I254000J0D01*
G01*
X145730000Y-136230000D02*
X145730000Y-134960000D01*
X148270000Y-136230000D02*
X148270000Y-134960000D01*
X144460000Y-141310000D02*
X144460000Y-133690000D01*
X148270000Y-140040000D02*
X148270000Y-138770000D01*
X145730000Y-140040000D02*
X145730000Y-138770000D01*
X149540000Y-141310000D02*
X149540000Y-133690000D01*
X147254000Y-138770000D02*
G75*
G03*
X146746000Y-138770000I-254000J0D01*
G01*
X146238000Y-136230000D02*
G75*
G03*
X146746000Y-136230000I254000J0D01*
G01*
X147762000Y-136230000D02*
G75*
G03*
X148270000Y-136230000I254000J0D01*
G01*
X147762000Y-138770000D02*
G75*
G03*
X147254000Y-138770000I-254000J0D01*
G01*
X146746000Y-138770000D02*
G75*
G03*
X146238000Y-138770000I-254000J0D01*
G01*
X146746000Y-136230000D02*
G75*
G03*
X147254000Y-136230000I254000J0D01*
G01*
X147254000Y-136230000D02*
G75*
G03*
X147762000Y-136230000I254000J0D01*
G01*
X148270000Y-138770000D02*
G75*
G03*
X147762000Y-138770000I-254000J0D01*
G01*
X146238000Y-138770000D02*
G75*
G03*
X145730000Y-138770000I-254000J0D01*
G01*
X145730000Y-136230000D02*
G75*
G03*
X146238000Y-136230000I254000J0D01*
G01*
X148270000Y-59270000D02*
G75*
G03*
X147762000Y-59270000I-254000J0D01*
G01*
X147762000Y-56730000D02*
G75*
G03*
X148270000Y-56730000I254000J0D01*
G01*
X145730000Y-56730000D02*
G75*
G03*
X146238000Y-56730000I254000J0D01*
G01*
X146746000Y-59270000D02*
G75*
G03*
X146238000Y-59270000I-254000J0D01*
G01*
X147254000Y-59270000D02*
G75*
G03*
X146746000Y-59270000I-254000J0D01*
G01*
X147254000Y-56730000D02*
G75*
G03*
X147762000Y-56730000I254000J0D01*
G01*
X146238000Y-56730000D02*
G75*
G03*
X146746000Y-56730000I254000J0D01*
G01*
X146238000Y-59270000D02*
G75*
G03*
X145730000Y-59270000I-254000J0D01*
G01*
X147762000Y-59270000D02*
G75*
G03*
X147254000Y-59270000I-254000J0D01*
G01*
X146746000Y-56730000D02*
G75*
G03*
X147254000Y-56730000I254000J0D01*
G01*
X144460000Y-54190000D02*
X144460000Y-61810000D01*
X148270000Y-55460000D02*
X148270000Y-56730000D01*
X145730000Y-55460000D02*
X145730000Y-56730000D01*
X149540000Y-54190000D02*
X149540000Y-61810000D01*
X145730000Y-59270000D02*
X145730000Y-60540000D01*
X148270000Y-59270000D02*
X148270000Y-60540000D01*
X142270000Y-59270000D02*
X142270000Y-60540000D01*
X139730000Y-59270000D02*
X139730000Y-60540000D01*
X143540000Y-54190000D02*
X143540000Y-61810000D01*
X139730000Y-55460000D02*
X139730000Y-56730000D01*
X142270000Y-55460000D02*
X142270000Y-56730000D01*
X138460000Y-54190000D02*
X138460000Y-61810000D01*
X140746000Y-56730000D02*
G75*
G03*
X141254000Y-56730000I254000J0D01*
G01*
X141762000Y-59270000D02*
G75*
G03*
X141254000Y-59270000I-254000J0D01*
G01*
X140238000Y-59270000D02*
G75*
G03*
X139730000Y-59270000I-254000J0D01*
G01*
X140238000Y-56730000D02*
G75*
G03*
X140746000Y-56730000I254000J0D01*
G01*
X141254000Y-56730000D02*
G75*
G03*
X141762000Y-56730000I254000J0D01*
G01*
X141254000Y-59270000D02*
G75*
G03*
X140746000Y-59270000I-254000J0D01*
G01*
X140746000Y-59270000D02*
G75*
G03*
X140238000Y-59270000I-254000J0D01*
G01*
X139730000Y-56730000D02*
G75*
G03*
X140238000Y-56730000I254000J0D01*
G01*
X141762000Y-56730000D02*
G75*
G03*
X142270000Y-56730000I254000J0D01*
G01*
X142270000Y-59270000D02*
G75*
G03*
X141762000Y-59270000I-254000J0D01*
G01*
X172490000Y-109415580D02*
X172490000Y-109134420D01*
X173510000Y-109415580D02*
X173510000Y-109134420D01*
X173990000Y-109415580D02*
X173990000Y-109134420D01*
X175010000Y-109415580D02*
X175010000Y-109134420D01*
X175490000Y-109415580D02*
X175490000Y-109134420D01*
X176510000Y-109415580D02*
X176510000Y-109134420D01*
X159510000Y-86584420D02*
X159510000Y-86865580D01*
X158490000Y-86584420D02*
X158490000Y-86865580D01*
X158010000Y-86584420D02*
X158010000Y-86865580D01*
X156990000Y-86584420D02*
X156990000Y-86865580D01*
X156510000Y-86584420D02*
X156510000Y-86865580D01*
X155490000Y-86584420D02*
X155490000Y-86865580D01*
X153490000Y-109415580D02*
X153490000Y-109134420D01*
X154510000Y-109415580D02*
X154510000Y-109134420D01*
X156010000Y-109415580D02*
X156010000Y-109134420D01*
X154990000Y-109415580D02*
X154990000Y-109134420D01*
X157510000Y-109415580D02*
X157510000Y-109134420D01*
X156490000Y-109415580D02*
X156490000Y-109134420D01*
X139490000Y-86584420D02*
X139490000Y-86865580D01*
X140510000Y-86584420D02*
X140510000Y-86865580D01*
X137990000Y-86584420D02*
X137990000Y-86865580D01*
X139010000Y-86584420D02*
X139010000Y-86865580D01*
X136490000Y-86584420D02*
X136490000Y-86865580D01*
X137510000Y-86584420D02*
X137510000Y-86865580D01*
X135510000Y-109415580D02*
X135510000Y-109134420D01*
X134490000Y-109415580D02*
X134490000Y-109134420D01*
X137010000Y-109415580D02*
X137010000Y-109134420D01*
X135990000Y-109415580D02*
X135990000Y-109134420D01*
X138510000Y-109415580D02*
X138510000Y-109134420D01*
X137490000Y-109415580D02*
X137490000Y-109134420D01*
X120490000Y-86584420D02*
X120490000Y-86865580D01*
X121510000Y-86584420D02*
X121510000Y-86865580D01*
X118990000Y-86584420D02*
X118990000Y-86865580D01*
X120010000Y-86584420D02*
X120010000Y-86865580D01*
X117490000Y-86584420D02*
X117490000Y-86865580D01*
X118510000Y-86584420D02*
X118510000Y-86865580D01*
X168640000Y-98711252D02*
X168640000Y-97288748D01*
X171360000Y-98711252D02*
X171360000Y-97288748D01*
X152360000Y-98711252D02*
X152360000Y-97288748D01*
X149640000Y-98711252D02*
X149640000Y-97288748D01*
X130640000Y-98711252D02*
X130640000Y-97288748D01*
X133360000Y-98711252D02*
X133360000Y-97288748D01*
X124227064Y-82735000D02*
X123772936Y-82735000D01*
X124227064Y-81265000D02*
X123772936Y-81265000D01*
X128772936Y-111765000D02*
X129227064Y-111765000D01*
X128772936Y-113235000D02*
X129227064Y-113235000D01*
X132677064Y-88210000D02*
X128322936Y-88210000D01*
X132677064Y-84790000D02*
X128322936Y-84790000D01*
X123322936Y-107790000D02*
X127677064Y-107790000D01*
X123322936Y-111210000D02*
X127677064Y-111210000D01*
X143314564Y-82735000D02*
X142860436Y-82735000D01*
X143314564Y-81265000D02*
X142860436Y-81265000D01*
X148272936Y-111765000D02*
X148727064Y-111765000D01*
X148272936Y-113235000D02*
X148727064Y-113235000D01*
X151677064Y-88210000D02*
X147322936Y-88210000D01*
X151677064Y-84790000D02*
X147322936Y-84790000D01*
X142322936Y-107790000D02*
X146677064Y-107790000D01*
X142322936Y-111210000D02*
X146677064Y-111210000D01*
X172772936Y-113235000D02*
X173227064Y-113235000D01*
X172772936Y-111765000D02*
X173227064Y-111765000D01*
X161322936Y-111210000D02*
X165677064Y-111210000D01*
X161322936Y-107790000D02*
X165677064Y-107790000D01*
X170677064Y-84790000D02*
X166322936Y-84790000D01*
X170677064Y-88210000D02*
X166322936Y-88210000D01*
X167272936Y-113235000D02*
X167727064Y-113235000D01*
X167272936Y-111765000D02*
X167727064Y-111765000D01*
X166227064Y-81265000D02*
X165772936Y-81265000D01*
X166227064Y-82735000D02*
X165772936Y-82735000D01*
X158650000Y-80850000D02*
X153250000Y-80850000D01*
X158650000Y-84150000D02*
X153250000Y-84150000D01*
X158650000Y-80850000D02*
X158650000Y-84150000D01*
X139650000Y-80850000D02*
X139650000Y-84150000D01*
X139650000Y-84150000D02*
X134250000Y-84150000D01*
X139650000Y-80850000D02*
X134250000Y-80850000D01*
X134772936Y-113235000D02*
X135227064Y-113235000D01*
X134772936Y-111765000D02*
X135227064Y-111765000D01*
X170000000Y-111060000D02*
X169200000Y-111060000D01*
X170000000Y-107940000D02*
X169200000Y-107940000D01*
X170000000Y-107940000D02*
X171800000Y-107940000D01*
X170000000Y-111060000D02*
X170800000Y-111060000D01*
X162000000Y-84940000D02*
X162800000Y-84940000D01*
X162000000Y-88060000D02*
X162800000Y-88060000D01*
X162000000Y-88060000D02*
X160200000Y-88060000D01*
X162000000Y-84940000D02*
X161200000Y-84940000D01*
X151000000Y-111060000D02*
X151800000Y-111060000D01*
X151000000Y-107940000D02*
X152800000Y-107940000D01*
X151000000Y-107940000D02*
X150200000Y-107940000D01*
X151000000Y-111060000D02*
X150200000Y-111060000D01*
X143000000Y-84940000D02*
X143800000Y-84940000D01*
X143000000Y-88060000D02*
X143800000Y-88060000D01*
X143000000Y-88060000D02*
X141200000Y-88060000D01*
X143000000Y-84940000D02*
X142200000Y-84940000D01*
X132000000Y-111060000D02*
X132800000Y-111060000D01*
X132000000Y-107940000D02*
X133800000Y-107940000D01*
X132000000Y-107940000D02*
X131200000Y-107940000D01*
X132000000Y-111060000D02*
X131200000Y-111060000D01*
X124000000Y-84940000D02*
X123200000Y-84940000D01*
X124000000Y-88060000D02*
X122200000Y-88060000D01*
X124000000Y-88060000D02*
X124800000Y-88060000D01*
X124000000Y-84940000D02*
X124800000Y-84940000D01*
X162227064Y-82735000D02*
X161772936Y-82735000D01*
X162227064Y-81265000D02*
X161772936Y-81265000D01*
X147227064Y-81265000D02*
X146772936Y-81265000D01*
X147227064Y-82735000D02*
X146772936Y-82735000D01*
X153772936Y-111765000D02*
X154227064Y-111765000D01*
X153772936Y-113235000D02*
X154227064Y-113235000D01*
X128314564Y-81265000D02*
X127860436Y-81265000D01*
X128314564Y-82735000D02*
X127860436Y-82735000D01*
X120650000Y-80850000D02*
X120650000Y-84150000D01*
X120650000Y-84150000D02*
X115250000Y-84150000D01*
X120650000Y-80850000D02*
X115250000Y-80850000D01*
M02*
