G04 #@! TF.GenerationSoftware,KiCad,Pcbnew,9.0.0*
G04 #@! TF.CreationDate,2025-03-23T13:51:46-04:00*
G04 #@! TF.ProjectId,three_half_bridges,74687265-655f-4686-916c-665f62726964,rev?*
G04 #@! TF.SameCoordinates,Original*
G04 #@! TF.FileFunction,Paste,Top*
G04 #@! TF.FilePolarity,Positive*
%FSLAX46Y46*%
G04 Gerber Fmt 4.6, Leading zero omitted, Abs format (unit mm)*
G04 Created by KiCad (PCBNEW 9.0.0) date 2025-03-23 13:51:46*
%MOMM*%
%LPD*%
G01*
G04 APERTURE LIST*
G04 Aperture macros list*
%AMRoundRect*
0 Rectangle with rounded corners*
0 $1 Rounding radius*
0 $2 $3 $4 $5 $6 $7 $8 $9 X,Y pos of 4 corners*
0 Add a 4 corners polygon primitive as box body*
4,1,4,$2,$3,$4,$5,$6,$7,$8,$9,$2,$3,0*
0 Add four circle primitives for the rounded corners*
1,1,$1+$1,$2,$3*
1,1,$1+$1,$4,$5*
1,1,$1+$1,$6,$7*
1,1,$1+$1,$8,$9*
0 Add four rect primitives between the rounded corners*
20,1,$1+$1,$2,$3,$4,$5,0*
20,1,$1+$1,$4,$5,$6,$7,0*
20,1,$1+$1,$6,$7,$8,$9,0*
20,1,$1+$1,$8,$9,$2,$3,0*%
%AMFreePoly0*
4,1,9,3.862500,-0.866500,0.737500,-0.866500,0.737500,-0.450000,-0.737500,-0.450000,-0.737500,0.450000,0.737500,0.450000,0.737500,0.866500,3.862500,0.866500,3.862500,-0.866500,3.862500,-0.866500,$1*%
G04 Aperture macros list end*
%ADD10RoundRect,0.250000X-0.312500X-0.625000X0.312500X-0.625000X0.312500X0.625000X-0.312500X0.625000X0*%
%ADD11RoundRect,0.200000X-0.200000X-0.275000X0.200000X-0.275000X0.200000X0.275000X-0.200000X0.275000X0*%
%ADD12RoundRect,0.250000X0.450000X0.800000X-0.450000X0.800000X-0.450000X-0.800000X0.450000X-0.800000X0*%
%ADD13RoundRect,0.225000X0.225000X0.250000X-0.225000X0.250000X-0.225000X-0.250000X0.225000X-0.250000X0*%
%ADD14RoundRect,0.112500X0.112500X0.237500X-0.112500X0.237500X-0.112500X-0.237500X0.112500X-0.237500X0*%
%ADD15RoundRect,0.250000X0.312500X0.625000X-0.312500X0.625000X-0.312500X-0.625000X0.312500X-0.625000X0*%
%ADD16RoundRect,0.225000X0.250000X-0.225000X0.250000X0.225000X-0.250000X0.225000X-0.250000X-0.225000X0*%
%ADD17RoundRect,0.225000X0.375000X-0.225000X0.375000X0.225000X-0.375000X0.225000X-0.375000X-0.225000X0*%
%ADD18R,1.780000X1.585000*%
%ADD19RoundRect,0.243750X0.456250X-0.243750X0.456250X0.243750X-0.456250X0.243750X-0.456250X-0.243750X0*%
%ADD20RoundRect,0.225000X-0.225000X-0.250000X0.225000X-0.250000X0.225000X0.250000X-0.225000X0.250000X0*%
%ADD21RoundRect,0.250000X-0.925000X0.787500X-0.925000X-0.787500X0.925000X-0.787500X0.925000X0.787500X0*%
%ADD22RoundRect,0.200000X0.200000X0.275000X-0.200000X0.275000X-0.200000X-0.275000X0.200000X-0.275000X0*%
%ADD23RoundRect,0.225000X-0.375000X0.225000X-0.375000X-0.225000X0.375000X-0.225000X0.375000X0.225000X0*%
%ADD24RoundRect,0.200000X-0.275000X0.200000X-0.275000X-0.200000X0.275000X-0.200000X0.275000X0.200000X0*%
%ADD25RoundRect,0.250000X-0.475000X0.250000X-0.475000X-0.250000X0.475000X-0.250000X0.475000X0.250000X0*%
%ADD26RoundRect,0.225000X-0.250000X0.225000X-0.250000X-0.225000X0.250000X-0.225000X0.250000X0.225000X0*%
%ADD27RoundRect,0.150000X0.725000X0.150000X-0.725000X0.150000X-0.725000X-0.150000X0.725000X-0.150000X0*%
%ADD28RoundRect,0.200000X0.275000X-0.200000X0.275000X0.200000X-0.275000X0.200000X-0.275000X-0.200000X0*%
%ADD29RoundRect,0.225000X-0.425000X-0.225000X0.425000X-0.225000X0.425000X0.225000X-0.425000X0.225000X0*%
%ADD30FreePoly0,0.000000*%
%ADD31RoundRect,0.150000X-0.725000X-0.150000X0.725000X-0.150000X0.725000X0.150000X-0.725000X0.150000X0*%
%ADD32RoundRect,0.150000X0.825000X0.150000X-0.825000X0.150000X-0.825000X-0.150000X0.825000X-0.150000X0*%
%ADD33RoundRect,0.250000X0.250000X0.475000X-0.250000X0.475000X-0.250000X-0.475000X0.250000X-0.475000X0*%
%ADD34RoundRect,0.150000X-0.825000X-0.150000X0.825000X-0.150000X0.825000X0.150000X-0.825000X0.150000X0*%
%ADD35RoundRect,0.243750X-0.456250X0.243750X-0.456250X-0.243750X0.456250X-0.243750X0.456250X0.243750X0*%
G04 APERTURE END LIST*
D10*
X164287500Y-66750000D03*
X167212500Y-66750000D03*
D11*
X153175000Y-63250000D03*
X154825000Y-63250000D03*
D12*
X160450000Y-101250000D03*
X156050000Y-101250000D03*
D13*
X155025000Y-118000000D03*
X153475000Y-118000000D03*
D14*
X175400000Y-116000000D03*
X174100000Y-116000000D03*
X174750000Y-118000000D03*
D15*
X160462500Y-92750000D03*
X157537500Y-92750000D03*
D16*
X114150000Y-68175000D03*
X114150000Y-66625000D03*
D17*
X167750000Y-64650000D03*
X167750000Y-61350000D03*
D18*
X157710000Y-127592500D03*
X160250000Y-127592500D03*
X162790000Y-127592500D03*
X162790000Y-119907500D03*
X160250000Y-119907500D03*
X157710000Y-119907500D03*
D19*
X156500000Y-64687500D03*
X156500000Y-62812500D03*
D18*
X173210000Y-127592500D03*
X175750000Y-127592500D03*
X178290000Y-127592500D03*
X178290000Y-119907500D03*
X175750000Y-119907500D03*
X173210000Y-119907500D03*
D20*
X136725000Y-64750000D03*
X138275000Y-64750000D03*
D21*
X146425000Y-115522725D03*
X146425000Y-120447725D03*
D22*
X170325000Y-98750000D03*
X168675000Y-98750000D03*
D20*
X153225000Y-64750000D03*
X154775000Y-64750000D03*
D13*
X168775000Y-52000000D03*
X167225000Y-52000000D03*
D23*
X139000000Y-95350000D03*
X139000000Y-98650000D03*
X172250000Y-95350000D03*
X172250000Y-98650000D03*
D22*
X153575000Y-98750000D03*
X151925000Y-98750000D03*
X154825000Y-61750000D03*
X153175000Y-61750000D03*
D24*
X114150000Y-70075000D03*
X114150000Y-71725000D03*
D25*
X134250000Y-101550000D03*
X134250000Y-103450000D03*
D16*
X172500000Y-117525000D03*
X172500000Y-115975000D03*
D10*
X147787500Y-66750000D03*
X150712500Y-66750000D03*
D26*
X123400000Y-88025000D03*
X123400000Y-89575000D03*
D24*
X114200000Y-98125000D03*
X114200000Y-99775000D03*
D27*
X157825000Y-70155000D03*
X157825000Y-68885000D03*
X157825000Y-67615000D03*
X157825000Y-66345000D03*
X152675000Y-66345000D03*
X152675000Y-67615000D03*
X152675000Y-68885000D03*
X152675000Y-70155000D03*
D17*
X151250000Y-64650000D03*
X151250000Y-61350000D03*
D16*
X164750000Y-117525000D03*
X164750000Y-115975000D03*
D28*
X123400000Y-99475000D03*
X123400000Y-97825000D03*
D13*
X136025000Y-52000000D03*
X134475000Y-52000000D03*
D20*
X169725000Y-64750000D03*
X171275000Y-64750000D03*
D24*
X114150000Y-77075000D03*
X114150000Y-78725000D03*
D29*
X125200000Y-60900000D03*
D30*
X125287500Y-62400000D03*
D29*
X125200000Y-63900000D03*
D14*
X167650000Y-116000000D03*
X166350000Y-116000000D03*
X167000000Y-118000000D03*
D31*
X166925000Y-89845000D03*
X166925000Y-91115000D03*
X166925000Y-92385000D03*
X166925000Y-93655000D03*
X172075000Y-93655000D03*
X172075000Y-92385000D03*
X172075000Y-91115000D03*
X172075000Y-89845000D03*
D13*
X163025000Y-118000000D03*
X161475000Y-118000000D03*
D32*
X143725000Y-51905000D03*
X143725000Y-50635000D03*
X143725000Y-49365000D03*
X143725000Y-48095000D03*
X138775000Y-48095000D03*
X138775000Y-49365000D03*
X138775000Y-50635000D03*
X138775000Y-51905000D03*
D22*
X137075000Y-98750000D03*
X135425000Y-98750000D03*
D33*
X130100000Y-97900000D03*
X128200000Y-97900000D03*
D15*
X176962500Y-92750000D03*
X174037500Y-92750000D03*
D34*
X116425000Y-81395000D03*
X116425000Y-82665000D03*
X116425000Y-83935000D03*
X116425000Y-85205000D03*
X121375000Y-85205000D03*
X121375000Y-83935000D03*
X121375000Y-82665000D03*
X121375000Y-81395000D03*
D19*
X173000000Y-64687500D03*
X173000000Y-62812500D03*
D26*
X123400000Y-94825000D03*
X123400000Y-96375000D03*
D12*
X176950000Y-101250000D03*
X172550000Y-101250000D03*
D13*
X178525000Y-118000000D03*
X176975000Y-118000000D03*
D34*
X116425000Y-67795000D03*
X116425000Y-69065000D03*
X116425000Y-70335000D03*
X116425000Y-71605000D03*
X121375000Y-71605000D03*
X121375000Y-70335000D03*
X121375000Y-69065000D03*
X121375000Y-67795000D03*
D16*
X114150000Y-88675000D03*
X114150000Y-87125000D03*
D23*
X155500000Y-95350000D03*
X155500000Y-98650000D03*
D22*
X171325000Y-60250000D03*
X169675000Y-60250000D03*
D34*
X116425000Y-74595000D03*
X116425000Y-75865000D03*
X116425000Y-77135000D03*
X116425000Y-78405000D03*
X121375000Y-78405000D03*
X121375000Y-77135000D03*
X121375000Y-75865000D03*
X121375000Y-74595000D03*
D35*
X133500000Y-95312500D03*
X133500000Y-97187500D03*
D11*
X136675000Y-63250000D03*
X138325000Y-63250000D03*
D35*
X150000000Y-95312500D03*
X150000000Y-97187500D03*
D20*
X135475000Y-95250000D03*
X137025000Y-95250000D03*
D10*
X164287500Y-69000000D03*
X167212500Y-69000000D03*
D34*
X116425000Y-60995000D03*
X116425000Y-62265000D03*
X116425000Y-63535000D03*
X116425000Y-64805000D03*
X121375000Y-64805000D03*
X121375000Y-63535000D03*
X121375000Y-62265000D03*
X121375000Y-60995000D03*
D26*
X123400000Y-67675000D03*
X123400000Y-69225000D03*
D17*
X134750000Y-64650000D03*
X134750000Y-61350000D03*
D22*
X153575000Y-97000000D03*
X151925000Y-97000000D03*
D24*
X114150000Y-63575000D03*
X114150000Y-65225000D03*
D28*
X123400000Y-92675000D03*
X123400000Y-91025000D03*
D13*
X152275000Y-50500000D03*
X150725000Y-50500000D03*
X136025000Y-49000000D03*
X134475000Y-49000000D03*
D14*
X159900000Y-116000000D03*
X158600000Y-116000000D03*
X159250000Y-118000000D03*
D29*
X125200000Y-67700000D03*
D30*
X125287500Y-69200000D03*
D29*
X125200000Y-70700000D03*
D27*
X141325000Y-70155000D03*
X141325000Y-68885000D03*
X141325000Y-67615000D03*
X141325000Y-66345000D03*
X136175000Y-66345000D03*
X136175000Y-67615000D03*
X136175000Y-68885000D03*
X136175000Y-70155000D03*
D16*
X157000000Y-117525000D03*
X157000000Y-115975000D03*
D13*
X170775000Y-118000000D03*
X169225000Y-118000000D03*
D22*
X170325000Y-97000000D03*
X168675000Y-97000000D03*
D14*
X151900000Y-116000000D03*
X150600000Y-116000000D03*
X151250000Y-118000000D03*
D22*
X137075000Y-97000000D03*
X135425000Y-97000000D03*
D15*
X143962500Y-92750000D03*
X141037500Y-92750000D03*
D32*
X176475000Y-51905000D03*
X176475000Y-50635000D03*
X176475000Y-49365000D03*
X176475000Y-48095000D03*
X171525000Y-48095000D03*
X171525000Y-49365000D03*
X171525000Y-50635000D03*
X171525000Y-51905000D03*
D16*
X114150000Y-81675000D03*
X114150000Y-80125000D03*
D15*
X143962500Y-90250000D03*
X141037500Y-90250000D03*
D26*
X123400000Y-81225000D03*
X123400000Y-82775000D03*
D10*
X147787500Y-69000000D03*
X150712500Y-69000000D03*
D19*
X140000000Y-64687500D03*
X140000000Y-62812500D03*
D27*
X174325000Y-70155000D03*
X174325000Y-68885000D03*
X174325000Y-67615000D03*
X174325000Y-66345000D03*
X169175000Y-66345000D03*
X169175000Y-67615000D03*
X169175000Y-68885000D03*
X169175000Y-70155000D03*
D28*
X123400000Y-85875000D03*
X123400000Y-84225000D03*
D26*
X123400000Y-60875000D03*
X123400000Y-62425000D03*
D16*
X114150000Y-95675000D03*
X114150000Y-94125000D03*
D13*
X168775000Y-50500000D03*
X167225000Y-50500000D03*
X136025000Y-50500000D03*
X134475000Y-50500000D03*
D32*
X159975000Y-51905000D03*
X159975000Y-50635000D03*
X159975000Y-49365000D03*
X159975000Y-48095000D03*
X155025000Y-48095000D03*
X155025000Y-49365000D03*
X155025000Y-50635000D03*
X155025000Y-51905000D03*
D16*
X149000000Y-117525000D03*
X149000000Y-115975000D03*
X114150000Y-60925000D03*
X114150000Y-59375000D03*
D24*
X114150000Y-84075000D03*
X114150000Y-85725000D03*
D20*
X151975000Y-95250000D03*
X153525000Y-95250000D03*
D15*
X176962500Y-90250000D03*
X174037500Y-90250000D03*
D22*
X138325000Y-61750000D03*
X136675000Y-61750000D03*
D20*
X168725000Y-95250000D03*
X170275000Y-95250000D03*
D29*
X125200000Y-74500000D03*
D30*
X125287500Y-76000000D03*
D29*
X125200000Y-77500000D03*
D16*
X114150000Y-74675000D03*
X114150000Y-73125000D03*
D22*
X171325000Y-61750000D03*
X169675000Y-61750000D03*
D31*
X133675000Y-89845000D03*
X133675000Y-91115000D03*
X133675000Y-92385000D03*
X133675000Y-93655000D03*
X138825000Y-93655000D03*
X138825000Y-92385000D03*
X138825000Y-91115000D03*
X138825000Y-89845000D03*
D34*
X116425000Y-88195000D03*
X116425000Y-89465000D03*
X116425000Y-90735000D03*
X116425000Y-92005000D03*
X121375000Y-92005000D03*
X121375000Y-90735000D03*
X121375000Y-89465000D03*
X121375000Y-88195000D03*
D13*
X152275000Y-52000000D03*
X150725000Y-52000000D03*
D29*
X128925000Y-100000000D03*
D30*
X129012500Y-101500000D03*
D29*
X128925000Y-103000000D03*
D11*
X169675000Y-63250000D03*
X171325000Y-63250000D03*
D18*
X149960000Y-127592500D03*
X152500000Y-127592500D03*
X155040000Y-127592500D03*
X155040000Y-119907500D03*
X152500000Y-119907500D03*
X149960000Y-119907500D03*
D13*
X168775000Y-49000000D03*
X167225000Y-49000000D03*
D22*
X154825000Y-60250000D03*
X153175000Y-60250000D03*
D10*
X131287500Y-69000000D03*
X134212500Y-69000000D03*
D18*
X165460000Y-127592500D03*
X168000000Y-127592500D03*
X170540000Y-127592500D03*
X170540000Y-119907500D03*
X168000000Y-119907500D03*
X165460000Y-119907500D03*
D22*
X138325000Y-60250000D03*
X136675000Y-60250000D03*
D26*
X123400000Y-74475000D03*
X123400000Y-76025000D03*
D10*
X131287500Y-66750000D03*
X134212500Y-66750000D03*
D24*
X114150000Y-90825000D03*
X114150000Y-92475000D03*
D12*
X143950000Y-101250000D03*
X139550000Y-101250000D03*
D35*
X166750000Y-95312500D03*
X166750000Y-97187500D03*
D34*
X116425000Y-94995000D03*
X116425000Y-96265000D03*
X116425000Y-97535000D03*
X116425000Y-98805000D03*
X121375000Y-98805000D03*
X121375000Y-97535000D03*
X121375000Y-96265000D03*
X121375000Y-94995000D03*
D31*
X150175000Y-89845000D03*
X150175000Y-91115000D03*
X150175000Y-92385000D03*
X150175000Y-93655000D03*
X155325000Y-93655000D03*
X155325000Y-92385000D03*
X155325000Y-91115000D03*
X155325000Y-89845000D03*
D13*
X152275000Y-49000000D03*
X150725000Y-49000000D03*
D15*
X160462500Y-90250000D03*
X157537500Y-90250000D03*
M02*
