G04 #@! TF.GenerationSoftware,KiCad,Pcbnew,9.0.0*
G04 #@! TF.CreationDate,2025-03-23T13:51:47-04:00*
G04 #@! TF.ProjectId,three_half_bridges,74687265-655f-4686-916c-665f62726964,rev?*
G04 #@! TF.SameCoordinates,Original*
G04 #@! TF.FileFunction,Soldermask,Bot*
G04 #@! TF.FilePolarity,Negative*
%FSLAX46Y46*%
G04 Gerber Fmt 4.6, Leading zero omitted, Abs format (unit mm)*
G04 Created by KiCad (PCBNEW 9.0.0) date 2025-03-23 13:51:47*
%MOMM*%
%LPD*%
G01*
G04 APERTURE LIST*
G04 Aperture macros list*
%AMRoundRect*
0 Rectangle with rounded corners*
0 $1 Rounding radius*
0 $2 $3 $4 $5 $6 $7 $8 $9 X,Y pos of 4 corners*
0 Add a 4 corners polygon primitive as box body*
4,1,4,$2,$3,$4,$5,$6,$7,$8,$9,$2,$3,0*
0 Add four circle primitives for the rounded corners*
1,1,$1+$1,$2,$3*
1,1,$1+$1,$4,$5*
1,1,$1+$1,$6,$7*
1,1,$1+$1,$8,$9*
0 Add four rect primitives between the rounded corners*
20,1,$1+$1,$2,$3,$4,$5,0*
20,1,$1+$1,$4,$5,$6,$7,0*
20,1,$1+$1,$6,$7,$8,$9,0*
20,1,$1+$1,$8,$9,$2,$3,0*%
G04 Aperture macros list end*
%ADD10C,0.100000*%
%ADD11C,0.902000*%
%ADD12C,6.502000*%
%ADD13O,3.302000X5.102000*%
%ADD14C,6.602000*%
%ADD15C,1.002000*%
%ADD16C,11.102000*%
%ADD17O,5.102000X3.302000*%
%ADD18RoundRect,0.175500X0.175500X-0.538000X0.175500X0.538000X-0.175500X0.538000X-0.175500X-0.538000X0*%
%ADD19RoundRect,0.265000X-0.636000X-0.786000X0.636000X-0.786000X0.636000X0.786000X-0.636000X0.786000X0*%
%ADD20O,1.802000X2.102000*%
%ADD21RoundRect,0.250500X-0.275500X0.250500X-0.275500X-0.250500X0.275500X-0.250500X0.275500X0.250500X0*%
%ADD22RoundRect,0.264655X0.881345X-0.656345X0.881345X0.656345X-0.881345X0.656345X-0.881345X-0.656345X0*%
%ADD23O,2.292000X1.842000*%
%ADD24RoundRect,0.051000X1.250000X2.250000X-1.250000X2.250000X-1.250000X-2.250000X1.250000X-2.250000X0*%
%ADD25O,2.602000X4.602000*%
%ADD26RoundRect,0.051000X-1.250000X-2.250000X1.250000X-2.250000X1.250000X2.250000X-1.250000X2.250000X0*%
%ADD27RoundRect,0.268214X1.482786X-0.482786X1.482786X0.482786X-1.482786X0.482786X-1.482786X-0.482786X0*%
%ADD28RoundRect,0.268214X-0.482786X-1.482786X0.482786X-1.482786X0.482786X1.482786X-0.482786X1.482786X0*%
%ADD29RoundRect,0.225500X-0.475500X0.225500X-0.475500X-0.225500X0.475500X-0.225500X0.475500X0.225500X0*%
%ADD30O,1.402000X0.902000*%
G04 APERTURE END LIST*
D10*
X137000000Y-66250000D02*
X205000000Y-66250000D01*
X205000000Y-71000000D01*
X137000000Y-71000000D01*
X137000000Y-66250000D01*
G36*
X137000000Y-66250000D02*
G01*
X205000000Y-66250000D01*
X205000000Y-71000000D01*
X137000000Y-71000000D01*
X137000000Y-66250000D01*
G37*
X130000000Y-89000000D02*
X205000000Y-89000000D01*
X205000000Y-93000000D01*
X130000000Y-93000000D01*
X130000000Y-89000000D01*
G36*
X130000000Y-89000000D02*
G01*
X205000000Y-89000000D01*
X205000000Y-93000000D01*
X130000000Y-93000000D01*
X130000000Y-89000000D01*
G37*
D11*
X193850000Y-121250000D03*
X194552944Y-119552944D03*
X194552944Y-122947056D03*
X196250000Y-118850000D03*
D12*
X196250000Y-121250000D03*
D11*
X196250000Y-123650000D03*
X197947056Y-119552944D03*
X197947056Y-122947056D03*
X198650000Y-121250000D03*
D13*
X151000000Y-32900000D03*
X151000000Y-39900000D03*
D14*
X155750000Y-36400000D03*
D13*
X160300000Y-32900000D03*
X160300000Y-39900000D03*
D15*
X180875000Y-110000000D03*
X182073185Y-107073185D03*
X182073185Y-112926815D03*
X185000000Y-105875000D03*
D16*
X185000000Y-110000000D03*
D15*
X185000000Y-114125000D03*
X187926815Y-107073185D03*
X187926815Y-112926815D03*
X189125000Y-110000000D03*
X120875000Y-50000000D03*
X122073185Y-47073185D03*
X122073185Y-52926815D03*
X125000000Y-45875000D03*
D16*
X125000000Y-50000000D03*
D15*
X125000000Y-54125000D03*
X127926815Y-47073185D03*
X127926815Y-52926815D03*
X129125000Y-50000000D03*
D11*
X193850000Y-38750000D03*
X194552944Y-37052944D03*
X194552944Y-40447056D03*
X196250000Y-36350000D03*
D12*
X196250000Y-38750000D03*
D11*
X196250000Y-41150000D03*
X197947056Y-37052944D03*
X197947056Y-40447056D03*
X198650000Y-38750000D03*
D13*
X167500000Y-32900000D03*
X167500000Y-39900000D03*
D14*
X172250000Y-36400000D03*
D13*
X176800000Y-32900000D03*
X176800000Y-39900000D03*
X134500000Y-32900000D03*
X134500000Y-39900000D03*
D14*
X139250000Y-36400000D03*
D13*
X143800000Y-32900000D03*
X143800000Y-39900000D03*
D15*
X120875000Y-110050000D03*
X122073185Y-107123185D03*
X122073185Y-112976815D03*
D16*
X124875000Y-110050000D03*
D15*
X125000000Y-105925000D03*
X125000000Y-114175000D03*
X127926815Y-107123185D03*
X127926815Y-112976815D03*
X129125000Y-110050000D03*
D11*
X111402944Y-121250000D03*
X112105888Y-119552944D03*
X112105888Y-122947056D03*
X113802944Y-118850000D03*
D12*
X113802944Y-121250000D03*
D11*
X113802944Y-123650000D03*
X115500000Y-119552944D03*
X115500000Y-122947056D03*
X116202944Y-121250000D03*
D17*
X201900000Y-66250000D03*
X194900000Y-66250000D03*
D14*
X198400000Y-71000000D03*
D17*
X201900000Y-75550000D03*
X194900000Y-75550000D03*
D15*
X180875000Y-50000000D03*
X182073185Y-47073185D03*
X182073185Y-52926815D03*
X185000000Y-45875000D03*
D16*
X185000000Y-50000000D03*
D15*
X185000000Y-54125000D03*
X187926815Y-47073185D03*
X187926815Y-52926815D03*
X189125000Y-50000000D03*
D11*
X111350000Y-38750000D03*
X112052944Y-37052944D03*
X112052944Y-40447056D03*
X113750000Y-36350000D03*
D12*
X113750000Y-38750000D03*
D11*
X113750000Y-41150000D03*
X115447056Y-37052944D03*
X115447056Y-40447056D03*
X116150000Y-38750000D03*
D17*
X194900000Y-93750000D03*
X201900000Y-93750000D03*
D14*
X198400000Y-89000000D03*
D17*
X194900000Y-84450000D03*
X201900000Y-84450000D03*
D18*
X161200000Y-125887500D03*
X160250000Y-125887500D03*
X159300000Y-125887500D03*
X159300000Y-123612500D03*
X160250000Y-123612500D03*
X161200000Y-123612500D03*
X153450000Y-125887500D03*
X152500000Y-125887500D03*
X151550000Y-125887500D03*
X151550000Y-123612500D03*
X152500000Y-123612500D03*
X153450000Y-123612500D03*
D19*
X139025000Y-119125000D03*
D20*
X141525000Y-119125000D03*
D21*
X173250000Y-123225000D03*
X173250000Y-124775000D03*
D22*
X109600000Y-115800000D03*
D23*
X109600000Y-113260000D03*
X109600000Y-110720000D03*
X109600000Y-108180000D03*
D21*
X150000000Y-123225000D03*
X150000000Y-124775000D03*
D24*
X160500000Y-85000000D03*
D25*
X155050000Y-85000000D03*
X149600000Y-85000000D03*
D26*
X149500000Y-75000000D03*
D25*
X154950000Y-75000000D03*
X160400000Y-75000000D03*
D27*
X182000000Y-82050000D03*
X182000000Y-77950000D03*
D21*
X157750000Y-123225000D03*
X157750000Y-124775000D03*
D26*
X133000000Y-75000000D03*
D25*
X138450000Y-75000000D03*
X143900000Y-75000000D03*
D28*
X130950000Y-80000000D03*
X135050000Y-80000000D03*
X147450000Y-80000000D03*
X151550000Y-80000000D03*
D29*
X107600000Y-71275000D03*
D30*
X107600000Y-72525000D03*
X107600000Y-73775000D03*
X107600000Y-75025000D03*
X107600000Y-76275000D03*
X107600000Y-77525000D03*
D29*
X107600000Y-81775000D03*
D30*
X107600000Y-83025000D03*
X107600000Y-84275000D03*
X107600000Y-85525000D03*
X107600000Y-86775000D03*
X107600000Y-88025000D03*
D29*
X107600000Y-60775000D03*
D30*
X107600000Y-62025000D03*
X107600000Y-63275000D03*
X107600000Y-64525000D03*
X107600000Y-65775000D03*
X107600000Y-67025000D03*
D27*
X190000000Y-82050000D03*
X190000000Y-77950000D03*
D29*
X107600000Y-47600000D03*
D30*
X107600000Y-48850000D03*
X107600000Y-50100000D03*
X107600000Y-51350000D03*
X107600000Y-52600000D03*
X107600000Y-53850000D03*
X107600000Y-55100000D03*
X107600000Y-56350000D03*
D24*
X177000000Y-85000000D03*
D25*
X171550000Y-85000000D03*
X166100000Y-85000000D03*
D21*
X165500000Y-123225000D03*
X165500000Y-124775000D03*
D26*
X166000000Y-75000000D03*
D25*
X171450000Y-75000000D03*
X176900000Y-75000000D03*
D18*
X176700000Y-125887500D03*
X175750000Y-125887500D03*
X174800000Y-125887500D03*
X174800000Y-123612500D03*
X175750000Y-123612500D03*
X176700000Y-123612500D03*
D24*
X144000000Y-85000000D03*
D25*
X138550000Y-85000000D03*
X133100000Y-85000000D03*
D18*
X168950000Y-125887500D03*
X168000000Y-125887500D03*
X167050000Y-125887500D03*
X167050000Y-123612500D03*
X168000000Y-123612500D03*
X168950000Y-123612500D03*
D27*
X186000000Y-82050000D03*
X186000000Y-77950000D03*
D28*
X163950000Y-80000000D03*
X168050000Y-80000000D03*
M02*
