G04 #@! TF.GenerationSoftware,KiCad,Pcbnew,9.0.0*
G04 #@! TF.CreationDate,2025-03-23T13:51:46-04:00*
G04 #@! TF.ProjectId,three_half_bridges,74687265-655f-4686-916c-665f62726964,rev?*
G04 #@! TF.SameCoordinates,Original*
G04 #@! TF.FileFunction,Copper,L3,Inr*
G04 #@! TF.FilePolarity,Positive*
%FSLAX46Y46*%
G04 Gerber Fmt 4.6, Leading zero omitted, Abs format (unit mm)*
G04 Created by KiCad (PCBNEW 9.0.0) date 2025-03-23 13:51:46*
%MOMM*%
%LPD*%
G01*
G04 APERTURE LIST*
G04 Aperture macros list*
%AMRoundRect*
0 Rectangle with rounded corners*
0 $1 Rounding radius*
0 $2 $3 $4 $5 $6 $7 $8 $9 X,Y pos of 4 corners*
0 Add a 4 corners polygon primitive as box body*
4,1,4,$2,$3,$4,$5,$6,$7,$8,$9,$2,$3,0*
0 Add four circle primitives for the rounded corners*
1,1,$1+$1,$2,$3*
1,1,$1+$1,$4,$5*
1,1,$1+$1,$6,$7*
1,1,$1+$1,$8,$9*
0 Add four rect primitives between the rounded corners*
20,1,$1+$1,$2,$3,$4,$5,0*
20,1,$1+$1,$4,$5,$6,$7,0*
20,1,$1+$1,$6,$7,$8,$9,0*
20,1,$1+$1,$8,$9,$2,$3,0*%
G04 Aperture macros list end*
G04 #@! TA.AperFunction,ComponentPad*
%ADD10C,0.800000*%
G04 #@! TD*
G04 #@! TA.AperFunction,ComponentPad*
%ADD11C,6.400000*%
G04 #@! TD*
G04 #@! TA.AperFunction,ComponentPad*
%ADD12O,3.200000X5.000000*%
G04 #@! TD*
G04 #@! TA.AperFunction,ComponentPad*
%ADD13C,6.500000*%
G04 #@! TD*
G04 #@! TA.AperFunction,ComponentPad*
%ADD14C,0.900000*%
G04 #@! TD*
G04 #@! TA.AperFunction,ComponentPad*
%ADD15C,11.000000*%
G04 #@! TD*
G04 #@! TA.AperFunction,ComponentPad*
%ADD16O,5.000000X3.200000*%
G04 #@! TD*
G04 #@! TA.AperFunction,ComponentPad*
%ADD17RoundRect,0.250000X-0.600000X-0.750000X0.600000X-0.750000X0.600000X0.750000X-0.600000X0.750000X0*%
G04 #@! TD*
G04 #@! TA.AperFunction,ComponentPad*
%ADD18O,1.700000X2.000000*%
G04 #@! TD*
G04 #@! TA.AperFunction,ComponentPad*
%ADD19RoundRect,0.250000X0.845000X-0.620000X0.845000X0.620000X-0.845000X0.620000X-0.845000X-0.620000X0*%
G04 #@! TD*
G04 #@! TA.AperFunction,ComponentPad*
%ADD20O,2.190000X1.740000*%
G04 #@! TD*
G04 #@! TA.AperFunction,ComponentPad*
%ADD21R,2.500000X4.500000*%
G04 #@! TD*
G04 #@! TA.AperFunction,ComponentPad*
%ADD22O,2.500000X4.500000*%
G04 #@! TD*
G04 #@! TA.AperFunction,ComponentPad*
%ADD23RoundRect,0.200000X-0.450000X0.200000X-0.450000X-0.200000X0.450000X-0.200000X0.450000X0.200000X0*%
G04 #@! TD*
G04 #@! TA.AperFunction,ComponentPad*
%ADD24O,1.300000X0.800000*%
G04 #@! TD*
G04 #@! TA.AperFunction,ViaPad*
%ADD25C,0.800000*%
G04 #@! TD*
G04 APERTURE END LIST*
D10*
X193850000Y-121250000D03*
X194552944Y-119552944D03*
X194552944Y-122947056D03*
X196250000Y-118850000D03*
D11*
X196250000Y-121250000D03*
D10*
X196250000Y-123650000D03*
X197947056Y-119552944D03*
X197947056Y-122947056D03*
X198650000Y-121250000D03*
D12*
X151000000Y-32900000D03*
X151000000Y-39900000D03*
D13*
X155750000Y-36400000D03*
D12*
X160300000Y-32900000D03*
X160300000Y-39900000D03*
D14*
X180875000Y-110000000D03*
X182073185Y-107073185D03*
X182073185Y-112926815D03*
X185000000Y-105875000D03*
D15*
X185000000Y-110000000D03*
D14*
X185000000Y-114125000D03*
X187926815Y-107073185D03*
X187926815Y-112926815D03*
X189125000Y-110000000D03*
X120875000Y-50000000D03*
X122073185Y-47073185D03*
X122073185Y-52926815D03*
X125000000Y-45875000D03*
D15*
X125000000Y-50000000D03*
D14*
X125000000Y-54125000D03*
X127926815Y-47073185D03*
X127926815Y-52926815D03*
X129125000Y-50000000D03*
D10*
X193850000Y-38750000D03*
X194552944Y-37052944D03*
X194552944Y-40447056D03*
X196250000Y-36350000D03*
D11*
X196250000Y-38750000D03*
D10*
X196250000Y-41150000D03*
X197947056Y-37052944D03*
X197947056Y-40447056D03*
X198650000Y-38750000D03*
D12*
X167500000Y-32900000D03*
X167500000Y-39900000D03*
D13*
X172250000Y-36400000D03*
D12*
X176800000Y-32900000D03*
X176800000Y-39900000D03*
X134500000Y-32900000D03*
X134500000Y-39900000D03*
D13*
X139250000Y-36400000D03*
D12*
X143800000Y-32900000D03*
X143800000Y-39900000D03*
D14*
X120875000Y-110050000D03*
X122073185Y-107123185D03*
X122073185Y-112976815D03*
D15*
X124875000Y-110050000D03*
D14*
X125000000Y-105925000D03*
X125000000Y-114175000D03*
X127926815Y-107123185D03*
X127926815Y-112976815D03*
X129125000Y-110050000D03*
D10*
X111402944Y-121250000D03*
X112105888Y-119552944D03*
X112105888Y-122947056D03*
X113802944Y-118850000D03*
D11*
X113802944Y-121250000D03*
D10*
X113802944Y-123650000D03*
X115500000Y-119552944D03*
X115500000Y-122947056D03*
X116202944Y-121250000D03*
D16*
X201900000Y-66250000D03*
X194900000Y-66250000D03*
D13*
X198400000Y-71000000D03*
D16*
X201900000Y-75550000D03*
X194900000Y-75550000D03*
D14*
X180875000Y-50000000D03*
X182073185Y-47073185D03*
X182073185Y-52926815D03*
X185000000Y-45875000D03*
D15*
X185000000Y-50000000D03*
D14*
X185000000Y-54125000D03*
X187926815Y-47073185D03*
X187926815Y-52926815D03*
X189125000Y-50000000D03*
D10*
X111350000Y-38750000D03*
X112052944Y-37052944D03*
X112052944Y-40447056D03*
X113750000Y-36350000D03*
D11*
X113750000Y-38750000D03*
D10*
X113750000Y-41150000D03*
X115447056Y-37052944D03*
X115447056Y-40447056D03*
X116150000Y-38750000D03*
D16*
X194900000Y-93750000D03*
X201900000Y-93750000D03*
D13*
X198400000Y-89000000D03*
D16*
X194900000Y-84450000D03*
X201900000Y-84450000D03*
D17*
X139025000Y-119125000D03*
D18*
X141525000Y-119125000D03*
D19*
X109600000Y-115800000D03*
D20*
X109600000Y-113260000D03*
X109600000Y-110720000D03*
X109600000Y-108180000D03*
D21*
X160500000Y-85000000D03*
D22*
X155050000Y-85000000D03*
X149600000Y-85000000D03*
D21*
X149500000Y-75000000D03*
D22*
X154950000Y-75000000D03*
X160400000Y-75000000D03*
D21*
X133000000Y-75000000D03*
D22*
X138450000Y-75000000D03*
X143900000Y-75000000D03*
D23*
X107600000Y-71275000D03*
D24*
X107600000Y-72525000D03*
X107600000Y-73775000D03*
X107600000Y-75025000D03*
X107600000Y-76275000D03*
X107600000Y-77525000D03*
D23*
X107600000Y-81775000D03*
D24*
X107600000Y-83025000D03*
X107600000Y-84275000D03*
X107600000Y-85525000D03*
X107600000Y-86775000D03*
X107600000Y-88025000D03*
D23*
X107600000Y-60775000D03*
D24*
X107600000Y-62025000D03*
X107600000Y-63275000D03*
X107600000Y-64525000D03*
X107600000Y-65775000D03*
X107600000Y-67025000D03*
D23*
X107600000Y-47600000D03*
D24*
X107600000Y-48850000D03*
X107600000Y-50100000D03*
X107600000Y-51350000D03*
X107600000Y-52600000D03*
X107600000Y-53850000D03*
X107600000Y-55100000D03*
X107600000Y-56350000D03*
D21*
X177000000Y-85000000D03*
D22*
X171550000Y-85000000D03*
X166100000Y-85000000D03*
D21*
X166000000Y-75000000D03*
D22*
X171450000Y-75000000D03*
X176900000Y-75000000D03*
D21*
X144000000Y-85000000D03*
D22*
X138550000Y-85000000D03*
X133100000Y-85000000D03*
D25*
X162500000Y-129500000D03*
X117500000Y-102500000D03*
X105500000Y-35000000D03*
X157500000Y-129500000D03*
X204500000Y-38750000D03*
X105500000Y-113750000D03*
X105500000Y-88750000D03*
X204500000Y-122500000D03*
X204500000Y-37500000D03*
X105500000Y-115000000D03*
X105500000Y-37500000D03*
X160000000Y-129500000D03*
X109900000Y-67100000D03*
X204500000Y-126250000D03*
X155000000Y-129500000D03*
X185000000Y-121250000D03*
X128750000Y-30500000D03*
X141250000Y-129500000D03*
X130000000Y-39250000D03*
X108100000Y-94100000D03*
X130250000Y-122000000D03*
X204500000Y-123750000D03*
X198750000Y-129500000D03*
X181250000Y-31250000D03*
X188750000Y-129500000D03*
X105500000Y-110000000D03*
X199500000Y-55000000D03*
X204500000Y-50000000D03*
X105500000Y-127500000D03*
X156250000Y-129500000D03*
X121250000Y-129500000D03*
X188000000Y-55000000D03*
X130000000Y-129500000D03*
X105500000Y-73750000D03*
X180000000Y-129500000D03*
X111650000Y-93150000D03*
X170500000Y-123750000D03*
X112300000Y-67100000D03*
X167225000Y-53000000D03*
X181250000Y-42500000D03*
X197500000Y-129500000D03*
X110500000Y-98500000D03*
X111150000Y-68150000D03*
X121200000Y-105000000D03*
X204500000Y-111250000D03*
X111925000Y-87125000D03*
X105500000Y-82500000D03*
X120000000Y-30500000D03*
X105500000Y-65000000D03*
X204500000Y-48750000D03*
X130250000Y-115750000D03*
X185500000Y-118750000D03*
X204500000Y-107500000D03*
X110900000Y-89650000D03*
X196250000Y-30500000D03*
X130250000Y-120750000D03*
X110900000Y-90650000D03*
X105500000Y-90000000D03*
X105500000Y-76250000D03*
X198250000Y-55000000D03*
X190000000Y-129500000D03*
X130250000Y-119500000D03*
X116150000Y-99650000D03*
X116250000Y-129500000D03*
X204500000Y-121250000D03*
X185500000Y-120000000D03*
X195500000Y-55000000D03*
X204500000Y-110000000D03*
X109900000Y-79400000D03*
X181250000Y-40000000D03*
X195000000Y-129500000D03*
X136250000Y-129500000D03*
X128750000Y-129500000D03*
X191250000Y-30500000D03*
X138750000Y-124000000D03*
X127500000Y-129500000D03*
X118750000Y-129500000D03*
X116500000Y-79900000D03*
X188750000Y-105000000D03*
X162750000Y-123750000D03*
X108100000Y-90500000D03*
X141250000Y-124000000D03*
X148750000Y-129500000D03*
X108100000Y-95500000D03*
X146250000Y-129500000D03*
X183750000Y-30500000D03*
X105500000Y-100000000D03*
X130000000Y-34250000D03*
X105500000Y-40000000D03*
X186250000Y-30500000D03*
X111250000Y-30500000D03*
X146250000Y-124000000D03*
X111650000Y-95400000D03*
X156250000Y-123750000D03*
X204500000Y-125000000D03*
X105500000Y-77500000D03*
X105500000Y-120000000D03*
X201250000Y-105000000D03*
X204500000Y-52500000D03*
X130250000Y-113250000D03*
X191250000Y-105000000D03*
X110900000Y-86150000D03*
X108100000Y-89300000D03*
X105500000Y-63750000D03*
X138750000Y-129500000D03*
X193750000Y-30500000D03*
X136250000Y-124000000D03*
X158750000Y-129500000D03*
X202500000Y-30500000D03*
X137500000Y-124000000D03*
X180000000Y-128250000D03*
X110000000Y-30500000D03*
X126250000Y-129500000D03*
X112650000Y-93150000D03*
X130250000Y-114500000D03*
X193750000Y-129500000D03*
X117500000Y-30500000D03*
X195000000Y-30500000D03*
X117500000Y-101100000D03*
X200000000Y-105000000D03*
X112400000Y-59150000D03*
X155000000Y-123750000D03*
X108100000Y-92900000D03*
X122500000Y-30500000D03*
X105500000Y-116250000D03*
X168750000Y-129500000D03*
X143750000Y-124000000D03*
X167500000Y-129500000D03*
X184000000Y-122250000D03*
X130000000Y-30500000D03*
X140000000Y-129500000D03*
X181250000Y-37500000D03*
X191000000Y-55000000D03*
X108700000Y-96500000D03*
X203250000Y-55000000D03*
X193750000Y-105000000D03*
X116500000Y-86650000D03*
X167225000Y-48100000D03*
X106250000Y-30500000D03*
X126250000Y-30500000D03*
X105500000Y-125000000D03*
X192500000Y-105000000D03*
X140000000Y-124000000D03*
X110300000Y-84300000D03*
X112700000Y-99300000D03*
X109500000Y-97500000D03*
X197500000Y-30500000D03*
X203750000Y-105000000D03*
X108750000Y-129500000D03*
X185000000Y-30500000D03*
X112500000Y-129500000D03*
X130000000Y-40400000D03*
X111250000Y-129500000D03*
X105500000Y-46250000D03*
X181250000Y-36250000D03*
X105500000Y-87500000D03*
X105500000Y-33750000D03*
X196250000Y-129500000D03*
X127500000Y-30500000D03*
X204500000Y-113750000D03*
X107500000Y-129500000D03*
X116500000Y-72900000D03*
X117500000Y-103750000D03*
X183750000Y-129500000D03*
X105500000Y-31250000D03*
X105500000Y-118750000D03*
X112700000Y-95400000D03*
X105500000Y-71250000D03*
X105500000Y-68750000D03*
X182500000Y-30500000D03*
X204500000Y-127500000D03*
X173750000Y-129500000D03*
X143750000Y-129500000D03*
X105500000Y-106250000D03*
X151250000Y-129500000D03*
X130000000Y-33000000D03*
X145000000Y-124000000D03*
X105500000Y-41250000D03*
X201250000Y-129500000D03*
X120000000Y-129500000D03*
X177500000Y-129500000D03*
X198750000Y-105000000D03*
X200750000Y-55000000D03*
X130000000Y-43000000D03*
X105500000Y-91250000D03*
X105500000Y-95000000D03*
X183000000Y-123250000D03*
X109900000Y-69150000D03*
X204500000Y-106250000D03*
X110700000Y-74900000D03*
X202000000Y-55000000D03*
X181250000Y-41250000D03*
X108900000Y-67100000D03*
X105500000Y-61250000D03*
X123750000Y-30500000D03*
X111100000Y-67100000D03*
X130000000Y-41700000D03*
X188750000Y-30500000D03*
X108650000Y-59150000D03*
X111500000Y-74100000D03*
X204500000Y-40000000D03*
X111900000Y-90650000D03*
X105500000Y-101250000D03*
X181250000Y-43750000D03*
X117500000Y-105000000D03*
X111300000Y-83500000D03*
X181250000Y-129500000D03*
X178750000Y-129500000D03*
X105500000Y-32500000D03*
X185000000Y-129500000D03*
X181250000Y-38750000D03*
X200000000Y-30500000D03*
X198750000Y-30500000D03*
X116800000Y-60000000D03*
X152500000Y-129500000D03*
X135000000Y-129500000D03*
X105500000Y-85000000D03*
X131250000Y-124000000D03*
X117500000Y-129500000D03*
X110900000Y-87150000D03*
X130000000Y-45600000D03*
X204500000Y-42500000D03*
X105500000Y-45000000D03*
X204500000Y-31250000D03*
X204500000Y-41250000D03*
X137500000Y-129500000D03*
X172500000Y-129500000D03*
X133750000Y-129500000D03*
X105500000Y-111250000D03*
X130000000Y-38000000D03*
X120000000Y-105000000D03*
X192500000Y-55000000D03*
X105500000Y-97500000D03*
X134246903Y-47771903D03*
X204500000Y-128750000D03*
X180000000Y-127000000D03*
X171250000Y-129500000D03*
X132500000Y-129500000D03*
X130250000Y-123250000D03*
X191250000Y-129500000D03*
X204500000Y-45000000D03*
X187500000Y-129500000D03*
X109900000Y-59150000D03*
X187500000Y-30500000D03*
X125000000Y-129500000D03*
X105500000Y-108750000D03*
X109900000Y-75650000D03*
X105500000Y-128750000D03*
X192500000Y-30500000D03*
X130000000Y-44300000D03*
X130000000Y-35500000D03*
X118750000Y-105000000D03*
X105500000Y-121250000D03*
X204500000Y-112500000D03*
X115000000Y-30500000D03*
X123750000Y-129500000D03*
X197000000Y-55000000D03*
X105500000Y-86250000D03*
X105500000Y-112500000D03*
X204500000Y-35000000D03*
X194000000Y-55000000D03*
X204500000Y-117500000D03*
X113750000Y-129500000D03*
X105500000Y-92500000D03*
X204500000Y-33750000D03*
X204500000Y-43750000D03*
X111500000Y-99300000D03*
X145000000Y-129500000D03*
X147500000Y-124000000D03*
X204500000Y-118750000D03*
X105500000Y-107500000D03*
X116400000Y-93150000D03*
X135900000Y-53250000D03*
X150000000Y-129500000D03*
X125000000Y-30500000D03*
X163750000Y-129500000D03*
X204500000Y-108750000D03*
X147500000Y-129500000D03*
X105500000Y-96250000D03*
X170000000Y-129500000D03*
X105500000Y-122500000D03*
X161250000Y-129500000D03*
X181250000Y-32500000D03*
X105500000Y-42500000D03*
X105500000Y-83750000D03*
X130250000Y-117000000D03*
X190000000Y-105000000D03*
X201250000Y-30500000D03*
X105500000Y-102500000D03*
X202500000Y-129500000D03*
X105500000Y-66250000D03*
X192500000Y-129500000D03*
X105500000Y-36250000D03*
X135000000Y-124000000D03*
X181250000Y-35000000D03*
X113350000Y-59150000D03*
X116250000Y-30500000D03*
X105500000Y-78750000D03*
X108750000Y-30500000D03*
X112500000Y-30500000D03*
X204500000Y-120000000D03*
X109900000Y-78150000D03*
X203750000Y-129500000D03*
X130000000Y-31750000D03*
X150725000Y-53000000D03*
X105500000Y-80000000D03*
X113750000Y-30500000D03*
X106250000Y-129500000D03*
X105500000Y-62500000D03*
X105500000Y-98750000D03*
X181000000Y-125000000D03*
X105500000Y-67500000D03*
X197500000Y-105000000D03*
X204500000Y-47500000D03*
X110000000Y-129500000D03*
X121250000Y-30500000D03*
X105500000Y-117500000D03*
X164000000Y-123750000D03*
X132500000Y-124000000D03*
X185500000Y-117500000D03*
X204500000Y-46250000D03*
X204500000Y-53750000D03*
X181250000Y-45000000D03*
X130000000Y-36750000D03*
X204500000Y-55000000D03*
X111900000Y-89650000D03*
X108100000Y-91700000D03*
X105500000Y-81250000D03*
X105500000Y-105000000D03*
X131250000Y-129500000D03*
X111150000Y-59150000D03*
X130250000Y-118250000D03*
X153750000Y-129500000D03*
X200000000Y-129500000D03*
X122500000Y-129500000D03*
X142500000Y-124000000D03*
X105500000Y-126250000D03*
X150725000Y-48100000D03*
X105500000Y-93750000D03*
X204500000Y-51250000D03*
X186250000Y-129500000D03*
X133750000Y-124000000D03*
X176250000Y-129500000D03*
X105500000Y-43750000D03*
X180000000Y-125750000D03*
X190000000Y-30500000D03*
X196250000Y-105000000D03*
X185500000Y-116250000D03*
X117500000Y-99900000D03*
X175000000Y-129500000D03*
X165000000Y-129500000D03*
X166250000Y-129500000D03*
X111900000Y-86150000D03*
X204500000Y-115000000D03*
X105500000Y-38750000D03*
X181250000Y-33750000D03*
X107500000Y-30500000D03*
X203750000Y-30500000D03*
X182000000Y-124250000D03*
X182500000Y-129500000D03*
X189500000Y-55000000D03*
X105500000Y-103750000D03*
X109900000Y-76900000D03*
X116400000Y-66150000D03*
X110100000Y-85300000D03*
X105500000Y-72500000D03*
X105500000Y-60000000D03*
X118750000Y-30500000D03*
X142500000Y-129500000D03*
X171750000Y-123750000D03*
X105500000Y-75000000D03*
X109900000Y-68150000D03*
X115000000Y-129500000D03*
X202500000Y-105000000D03*
X204500000Y-36250000D03*
X195000000Y-105000000D03*
X204500000Y-116250000D03*
X105500000Y-70000000D03*
X105500000Y-123750000D03*
X204500000Y-32500000D03*
X114900000Y-67795000D03*
X152500000Y-127592500D03*
X114900000Y-74595000D03*
X170000000Y-52000000D03*
X114900000Y-60995000D03*
X115150000Y-94995000D03*
X175750000Y-127592500D03*
X137155000Y-52000000D03*
X153500000Y-52000000D03*
X160250000Y-127592500D03*
X168000000Y-127592500D03*
X114900000Y-81395000D03*
X114900000Y-88195000D03*
X151750000Y-92000000D03*
X136250000Y-92000000D03*
X152750000Y-91000000D03*
X141200001Y-102100000D03*
X169500000Y-91000000D03*
X130800000Y-101950000D03*
X152750000Y-92000000D03*
X135250000Y-92000000D03*
X131700000Y-101050000D03*
X129800000Y-101050000D03*
X168500000Y-91000000D03*
X125350000Y-96700000D03*
X124650000Y-85205000D03*
X151750000Y-91000000D03*
X168500000Y-92000000D03*
X130750000Y-101050000D03*
X131700000Y-101950000D03*
X136250000Y-91000000D03*
X169500000Y-92000000D03*
X135250000Y-91000000D03*
X124950000Y-92900000D03*
X170000000Y-49365000D03*
X153400000Y-49365000D03*
X137125437Y-49878472D03*
X152522856Y-56897550D03*
X124100000Y-69225000D03*
X112900000Y-71700000D03*
X114159803Y-89725000D03*
X124100000Y-76025000D03*
X168315451Y-56287147D03*
X112900000Y-64650000D03*
X114050000Y-82725000D03*
X122650000Y-88025000D03*
X122650000Y-81225000D03*
X152961530Y-50521530D03*
X177500000Y-46500000D03*
X176500000Y-46500000D03*
X177500000Y-45500000D03*
X175500000Y-46500000D03*
X174500000Y-45500000D03*
X175000000Y-46000000D03*
X176000000Y-46000000D03*
X176500000Y-45500000D03*
X175500000Y-45500000D03*
X177000000Y-46000000D03*
X161000000Y-45500000D03*
X160000000Y-45500000D03*
X160500000Y-46000000D03*
X159000000Y-45500000D03*
X160000000Y-46500000D03*
X158000000Y-45500000D03*
X161000000Y-46500000D03*
X159500000Y-46000000D03*
X158500000Y-46000000D03*
X159000000Y-46500000D03*
X143800000Y-46750000D03*
X142300000Y-46100000D03*
X142800000Y-45500000D03*
X144800000Y-46750000D03*
X143300000Y-46100000D03*
X144300000Y-46100000D03*
X143750000Y-45500000D03*
X142800000Y-46750000D03*
X144800000Y-45500000D03*
X141800000Y-45500000D03*
X169552429Y-50391204D03*
X137090429Y-51002084D03*
X121375000Y-77135000D03*
X166302115Y-56325000D03*
X150500000Y-56935050D03*
X121375000Y-70335000D03*
X131743661Y-62743661D03*
X121375000Y-63535000D03*
X114150000Y-90825000D03*
X112375000Y-72700000D03*
X114050000Y-84075000D03*
X112900000Y-65900000D03*
X173800000Y-101250000D03*
X140732111Y-101216210D03*
X157200000Y-101250000D03*
X124150000Y-70700000D03*
X149087347Y-57612653D03*
X166700000Y-57775000D03*
X124248475Y-77405909D03*
X121375000Y-89465000D03*
X149250000Y-103250000D03*
X151499233Y-56895868D03*
X121375000Y-69065000D03*
X165500000Y-103000000D03*
X121375000Y-96265000D03*
X167301774Y-56298775D03*
X121375000Y-75865000D03*
X131737018Y-61725000D03*
X121375000Y-62265000D03*
X165460000Y-127592500D03*
X170540000Y-127592500D03*
X178290000Y-127592500D03*
X173210000Y-127592500D03*
X157710000Y-127592500D03*
X162790000Y-127592500D03*
X150262653Y-103262653D03*
X123400000Y-93650000D03*
X123400000Y-100400000D03*
X166512653Y-103012653D03*
X155040000Y-127592500D03*
X149960000Y-127592500D03*
G04 #@! TA.AperFunction,Conductor*
G36*
X137849456Y-82519685D02*
G01*
X137895211Y-82572489D01*
X137905155Y-82641647D01*
X137876130Y-82705203D01*
X137838712Y-82734485D01*
X137789771Y-82759421D01*
X137605061Y-82893622D01*
X137443622Y-83055061D01*
X137309421Y-83239771D01*
X137205770Y-83443196D01*
X137135215Y-83660339D01*
X137099500Y-83885837D01*
X137099500Y-86114162D01*
X137135215Y-86339660D01*
X137205770Y-86556803D01*
X137309421Y-86760228D01*
X137443621Y-86944937D01*
X137605063Y-87106379D01*
X137789772Y-87240579D01*
X137885884Y-87289550D01*
X137993196Y-87344229D01*
X137993198Y-87344229D01*
X137993201Y-87344231D01*
X138109592Y-87382049D01*
X138210339Y-87414784D01*
X138435838Y-87450500D01*
X138435843Y-87450500D01*
X138664162Y-87450500D01*
X138889660Y-87414784D01*
X138951927Y-87394552D01*
X139106799Y-87344231D01*
X139310228Y-87240579D01*
X139494937Y-87106379D01*
X139656379Y-86944937D01*
X139790579Y-86760228D01*
X139894231Y-86556799D01*
X139964784Y-86339660D01*
X140000500Y-86114162D01*
X140000500Y-83885837D01*
X139964784Y-83660339D01*
X139932049Y-83559592D01*
X139894231Y-83443201D01*
X139894229Y-83443198D01*
X139894229Y-83443196D01*
X139790578Y-83239771D01*
X139656379Y-83055063D01*
X139494937Y-82893621D01*
X139310228Y-82759421D01*
X139261287Y-82734484D01*
X139210492Y-82686510D01*
X139193697Y-82618690D01*
X139216234Y-82552555D01*
X139270949Y-82509103D01*
X139317583Y-82500000D01*
X142446703Y-82500000D01*
X142513742Y-82519685D01*
X142559497Y-82572489D01*
X142569441Y-82641647D01*
X142561262Y-82671457D01*
X142561131Y-82671771D01*
X142549500Y-82730247D01*
X142549500Y-87269752D01*
X142561131Y-87328229D01*
X142561132Y-87328230D01*
X142605447Y-87394552D01*
X142671769Y-87438867D01*
X142671770Y-87438868D01*
X142730247Y-87450499D01*
X142730250Y-87450500D01*
X142730252Y-87450500D01*
X145269750Y-87450500D01*
X145269751Y-87450499D01*
X145284568Y-87447552D01*
X145328229Y-87438868D01*
X145328229Y-87438867D01*
X145328231Y-87438867D01*
X145394552Y-87394552D01*
X145438867Y-87328231D01*
X145438867Y-87328229D01*
X145438868Y-87328229D01*
X145450499Y-87269752D01*
X145450500Y-87269750D01*
X145450500Y-82730249D01*
X145450499Y-82730247D01*
X145438868Y-82671771D01*
X145438738Y-82671457D01*
X145438658Y-82670715D01*
X145436485Y-82659790D01*
X145437462Y-82659595D01*
X145431266Y-82601988D01*
X145462539Y-82539508D01*
X145522626Y-82503853D01*
X145553297Y-82500000D01*
X154282417Y-82500000D01*
X154349456Y-82519685D01*
X154395211Y-82572489D01*
X154405155Y-82641647D01*
X154376130Y-82705203D01*
X154338712Y-82734485D01*
X154289771Y-82759421D01*
X154105061Y-82893622D01*
X153943622Y-83055061D01*
X153809421Y-83239771D01*
X153705770Y-83443196D01*
X153635215Y-83660339D01*
X153599500Y-83885837D01*
X153599500Y-86114162D01*
X153635215Y-86339660D01*
X153705770Y-86556803D01*
X153809421Y-86760228D01*
X153943621Y-86944937D01*
X154105063Y-87106379D01*
X154289772Y-87240579D01*
X154385884Y-87289550D01*
X154493196Y-87344229D01*
X154493198Y-87344229D01*
X154493201Y-87344231D01*
X154609592Y-87382049D01*
X154710339Y-87414784D01*
X154935838Y-87450500D01*
X154935843Y-87450500D01*
X155164162Y-87450500D01*
X155389660Y-87414784D01*
X155451927Y-87394552D01*
X155606799Y-87344231D01*
X155810228Y-87240579D01*
X155994937Y-87106379D01*
X156156379Y-86944937D01*
X156290579Y-86760228D01*
X156394231Y-86556799D01*
X156464784Y-86339660D01*
X156500500Y-86114162D01*
X156500500Y-83885837D01*
X156464784Y-83660339D01*
X156432049Y-83559592D01*
X156394231Y-83443201D01*
X156394229Y-83443198D01*
X156394229Y-83443196D01*
X156290578Y-83239771D01*
X156156379Y-83055063D01*
X155994937Y-82893621D01*
X155810228Y-82759421D01*
X155761287Y-82734484D01*
X155710492Y-82686510D01*
X155693697Y-82618690D01*
X155716234Y-82552555D01*
X155770949Y-82509103D01*
X155817583Y-82500000D01*
X158946703Y-82500000D01*
X159013742Y-82519685D01*
X159059497Y-82572489D01*
X159069441Y-82641647D01*
X159061262Y-82671457D01*
X159061131Y-82671771D01*
X159049500Y-82730247D01*
X159049500Y-87269752D01*
X159061131Y-87328229D01*
X159061132Y-87328230D01*
X159105447Y-87394552D01*
X159171769Y-87438867D01*
X159171770Y-87438868D01*
X159230247Y-87450499D01*
X159230250Y-87450500D01*
X159230252Y-87450500D01*
X161769750Y-87450500D01*
X161769751Y-87450499D01*
X161784568Y-87447552D01*
X161828229Y-87438868D01*
X161828229Y-87438867D01*
X161828231Y-87438867D01*
X161894552Y-87394552D01*
X161938867Y-87328231D01*
X161938867Y-87328229D01*
X161938868Y-87328229D01*
X161950499Y-87269752D01*
X161950500Y-87269750D01*
X161950500Y-82730249D01*
X161950499Y-82730247D01*
X161938868Y-82671771D01*
X161938738Y-82671457D01*
X161938658Y-82670715D01*
X161936485Y-82659790D01*
X161937462Y-82659595D01*
X161931266Y-82601988D01*
X161962539Y-82539508D01*
X162022626Y-82503853D01*
X162053297Y-82500000D01*
X170782417Y-82500000D01*
X170849456Y-82519685D01*
X170895211Y-82572489D01*
X170905155Y-82641647D01*
X170876130Y-82705203D01*
X170838712Y-82734485D01*
X170789771Y-82759421D01*
X170605061Y-82893622D01*
X170443622Y-83055061D01*
X170309421Y-83239771D01*
X170205770Y-83443196D01*
X170135215Y-83660339D01*
X170099500Y-83885837D01*
X170099500Y-86114162D01*
X170135215Y-86339660D01*
X170205770Y-86556803D01*
X170309421Y-86760228D01*
X170443621Y-86944937D01*
X170605063Y-87106379D01*
X170789772Y-87240579D01*
X170885884Y-87289550D01*
X170993196Y-87344229D01*
X170993198Y-87344229D01*
X170993201Y-87344231D01*
X171109592Y-87382049D01*
X171210339Y-87414784D01*
X171435838Y-87450500D01*
X171435843Y-87450500D01*
X171664162Y-87450500D01*
X171889660Y-87414784D01*
X171951927Y-87394552D01*
X172106799Y-87344231D01*
X172310228Y-87240579D01*
X172494937Y-87106379D01*
X172656379Y-86944937D01*
X172790579Y-86760228D01*
X172894231Y-86556799D01*
X172964784Y-86339660D01*
X173000500Y-86114162D01*
X173000500Y-83885837D01*
X172964784Y-83660339D01*
X172932049Y-83559592D01*
X172894231Y-83443201D01*
X172894229Y-83443198D01*
X172894229Y-83443196D01*
X172790578Y-83239771D01*
X172656379Y-83055063D01*
X172494937Y-82893621D01*
X172310228Y-82759421D01*
X172261287Y-82734484D01*
X172210492Y-82686510D01*
X172193697Y-82618690D01*
X172216234Y-82552555D01*
X172270949Y-82509103D01*
X172317583Y-82500000D01*
X175446703Y-82500000D01*
X175513742Y-82519685D01*
X175559497Y-82572489D01*
X175569441Y-82641647D01*
X175561262Y-82671457D01*
X175561131Y-82671771D01*
X175549500Y-82730247D01*
X175549500Y-87269752D01*
X175561131Y-87328229D01*
X175561132Y-87328230D01*
X175605447Y-87394552D01*
X175671769Y-87438867D01*
X175671770Y-87438868D01*
X175730247Y-87450499D01*
X175730250Y-87450500D01*
X175730252Y-87450500D01*
X178269750Y-87450500D01*
X178269751Y-87450499D01*
X178284568Y-87447552D01*
X178328229Y-87438868D01*
X178328229Y-87438867D01*
X178328231Y-87438867D01*
X178394552Y-87394552D01*
X178438867Y-87328231D01*
X178438867Y-87328229D01*
X178438868Y-87328229D01*
X178450499Y-87269752D01*
X178450500Y-87269750D01*
X178450500Y-82730249D01*
X178450499Y-82730247D01*
X178438868Y-82671771D01*
X178438738Y-82671457D01*
X178438658Y-82670715D01*
X178436485Y-82659790D01*
X178437462Y-82659595D01*
X178431266Y-82601988D01*
X178462539Y-82539508D01*
X178522626Y-82503853D01*
X178553297Y-82500000D01*
X203993907Y-82500000D01*
X204006061Y-82500597D01*
X204182941Y-82518018D01*
X204206769Y-82522757D01*
X204371001Y-82572576D01*
X204393453Y-82581877D01*
X204538854Y-82659595D01*
X204544798Y-82662772D01*
X204565010Y-82676277D01*
X204697666Y-82785145D01*
X204714854Y-82802333D01*
X204823722Y-82934989D01*
X204837227Y-82955201D01*
X204918121Y-83106543D01*
X204927424Y-83129001D01*
X204969161Y-83266589D01*
X204974500Y-83302584D01*
X204974500Y-101697414D01*
X204974390Y-101698152D01*
X204974495Y-101698521D01*
X204969161Y-101733409D01*
X204927424Y-101870998D01*
X204918121Y-101893456D01*
X204837227Y-102044798D01*
X204823722Y-102065010D01*
X204714854Y-102197666D01*
X204697666Y-102214854D01*
X204565010Y-102323722D01*
X204544798Y-102337227D01*
X204393456Y-102418121D01*
X204370998Y-102427424D01*
X204206775Y-102477240D01*
X204182934Y-102481982D01*
X204006061Y-102499403D01*
X203993907Y-102500000D01*
X185279300Y-102500000D01*
X185270455Y-102499684D01*
X185267881Y-102499500D01*
X184732119Y-102499500D01*
X184729544Y-102499684D01*
X184720700Y-102500000D01*
X175699061Y-102500000D01*
X175699012Y-102500001D01*
X175698726Y-102500002D01*
X166891183Y-102518466D01*
X166828924Y-102501854D01*
X166744437Y-102453076D01*
X166697215Y-102440423D01*
X166591710Y-102412153D01*
X166433596Y-102412153D01*
X166280869Y-102453076D01*
X166280864Y-102453078D01*
X166193622Y-102503446D01*
X166178230Y-102507587D01*
X166166808Y-102514962D01*
X166131884Y-102520058D01*
X165904031Y-102520536D01*
X165841772Y-102503924D01*
X165731784Y-102440423D01*
X165683271Y-102427424D01*
X165579057Y-102399500D01*
X165420943Y-102399500D01*
X165268216Y-102440423D01*
X165268215Y-102440423D01*
X165155284Y-102505623D01*
X165093545Y-102522235D01*
X128425761Y-102599107D01*
X128413464Y-102598521D01*
X128234523Y-102581068D01*
X128210404Y-102576266D01*
X128044338Y-102525645D01*
X128021643Y-102516178D01*
X127868833Y-102433782D01*
X127848451Y-102420021D01*
X127710146Y-102305135D01*
X127701078Y-102296808D01*
X127612640Y-102207107D01*
X127145614Y-101733409D01*
X126557756Y-101137153D01*
X140131611Y-101137153D01*
X140131611Y-101295267D01*
X140140665Y-101329055D01*
X140172534Y-101447993D01*
X140172537Y-101448000D01*
X140251586Y-101584919D01*
X140251590Y-101584924D01*
X140251591Y-101584926D01*
X140363395Y-101696730D01*
X140363397Y-101696731D01*
X140363401Y-101696734D01*
X140421928Y-101730524D01*
X140500327Y-101775787D01*
X140653054Y-101816710D01*
X140653056Y-101816710D01*
X140811166Y-101816710D01*
X140811168Y-101816710D01*
X140963895Y-101775787D01*
X141100827Y-101696730D01*
X141212631Y-101584926D01*
X141291688Y-101447994D01*
X141332611Y-101295267D01*
X141332611Y-101170943D01*
X156599500Y-101170943D01*
X156599500Y-101329056D01*
X156640423Y-101481783D01*
X156640426Y-101481790D01*
X156719475Y-101618709D01*
X156719479Y-101618714D01*
X156719480Y-101618716D01*
X156831284Y-101730520D01*
X156831286Y-101730521D01*
X156831290Y-101730524D01*
X156909689Y-101775787D01*
X156968216Y-101809577D01*
X157120943Y-101850500D01*
X157120945Y-101850500D01*
X157279055Y-101850500D01*
X157279057Y-101850500D01*
X157431784Y-101809577D01*
X157568716Y-101730520D01*
X157680520Y-101618716D01*
X157759577Y-101481784D01*
X157800500Y-101329057D01*
X157800500Y-101170943D01*
X173199500Y-101170943D01*
X173199500Y-101329056D01*
X173240423Y-101481783D01*
X173240426Y-101481790D01*
X173319475Y-101618709D01*
X173319479Y-101618714D01*
X173319480Y-101618716D01*
X173431284Y-101730520D01*
X173431286Y-101730521D01*
X173431290Y-101730524D01*
X173509689Y-101775787D01*
X173568216Y-101809577D01*
X173720943Y-101850500D01*
X173720945Y-101850500D01*
X173879055Y-101850500D01*
X173879057Y-101850500D01*
X174031784Y-101809577D01*
X174168716Y-101730520D01*
X174280520Y-101618716D01*
X174359577Y-101481784D01*
X174400500Y-101329057D01*
X174400500Y-101170943D01*
X174359577Y-101018216D01*
X174340069Y-100984426D01*
X174280524Y-100881290D01*
X174280518Y-100881282D01*
X174168717Y-100769481D01*
X174168709Y-100769475D01*
X174031790Y-100690426D01*
X174031786Y-100690424D01*
X174031784Y-100690423D01*
X173879057Y-100649500D01*
X173720943Y-100649500D01*
X173568216Y-100690423D01*
X173568209Y-100690426D01*
X173431290Y-100769475D01*
X173431282Y-100769481D01*
X173319481Y-100881282D01*
X173319475Y-100881290D01*
X173240426Y-101018209D01*
X173240423Y-101018216D01*
X173199500Y-101170943D01*
X157800500Y-101170943D01*
X157759577Y-101018216D01*
X157740069Y-100984426D01*
X157680524Y-100881290D01*
X157680518Y-100881282D01*
X157568717Y-100769481D01*
X157568709Y-100769475D01*
X157431790Y-100690426D01*
X157431786Y-100690424D01*
X157431784Y-100690423D01*
X157279057Y-100649500D01*
X157120943Y-100649500D01*
X156968216Y-100690423D01*
X156968209Y-100690426D01*
X156831290Y-100769475D01*
X156831282Y-100769481D01*
X156719481Y-100881282D01*
X156719475Y-100881290D01*
X156640426Y-101018209D01*
X156640423Y-101018216D01*
X156599500Y-101170943D01*
X141332611Y-101170943D01*
X141332611Y-101137153D01*
X141291688Y-100984426D01*
X141232143Y-100881290D01*
X141212635Y-100847500D01*
X141212629Y-100847492D01*
X141100828Y-100735691D01*
X141100820Y-100735685D01*
X140963901Y-100656636D01*
X140963897Y-100656634D01*
X140963895Y-100656633D01*
X140811168Y-100615710D01*
X140653054Y-100615710D01*
X140500327Y-100656633D01*
X140500320Y-100656636D01*
X140363401Y-100735685D01*
X140363393Y-100735691D01*
X140251592Y-100847492D01*
X140251586Y-100847500D01*
X140172537Y-100984419D01*
X140172534Y-100984426D01*
X140131611Y-101137153D01*
X126557756Y-101137153D01*
X121994720Y-96508930D01*
X121961672Y-96447372D01*
X121963247Y-96389782D01*
X121975500Y-96344057D01*
X121975500Y-96185943D01*
X121934577Y-96033216D01*
X121934573Y-96033209D01*
X121855524Y-95896290D01*
X121855518Y-95896282D01*
X121743717Y-95784481D01*
X121743709Y-95784475D01*
X121606790Y-95705426D01*
X121606786Y-95705424D01*
X121606784Y-95705423D01*
X121454057Y-95664500D01*
X121295943Y-95664500D01*
X121295941Y-95664500D01*
X121288101Y-95666601D01*
X121258043Y-95665883D01*
X121228041Y-95667627D01*
X121223483Y-95665058D01*
X121218251Y-95664934D01*
X121193352Y-95648079D01*
X121167170Y-95633326D01*
X121162908Y-95627472D01*
X121160391Y-95625768D01*
X121146401Y-95604796D01*
X121080425Y-95480036D01*
X121071287Y-95457752D01*
X121022352Y-95294877D01*
X121017694Y-95271241D01*
X121000586Y-95095939D01*
X121000000Y-95083895D01*
X121000000Y-93570943D01*
X122799500Y-93570943D01*
X122799500Y-93729056D01*
X122840423Y-93881783D01*
X122840426Y-93881790D01*
X122919475Y-94018709D01*
X122919479Y-94018714D01*
X122919480Y-94018716D01*
X123031284Y-94130520D01*
X123031286Y-94130521D01*
X123031290Y-94130524D01*
X123168209Y-94209573D01*
X123168216Y-94209577D01*
X123320943Y-94250500D01*
X123320945Y-94250500D01*
X123479055Y-94250500D01*
X123479057Y-94250500D01*
X123631784Y-94209577D01*
X123768716Y-94130520D01*
X123880520Y-94018716D01*
X123959577Y-93881784D01*
X124000500Y-93729057D01*
X124000500Y-93570943D01*
X123959577Y-93418216D01*
X123959573Y-93418209D01*
X123880524Y-93281290D01*
X123880518Y-93281282D01*
X123768717Y-93169481D01*
X123768709Y-93169475D01*
X123631790Y-93090426D01*
X123631786Y-93090424D01*
X123631784Y-93090423D01*
X123479057Y-93049500D01*
X123320943Y-93049500D01*
X123168216Y-93090423D01*
X123168209Y-93090426D01*
X123031290Y-93169475D01*
X123031282Y-93169481D01*
X122919481Y-93281282D01*
X122919475Y-93281290D01*
X122840426Y-93418209D01*
X122840423Y-93418216D01*
X122799500Y-93570943D01*
X121000000Y-93570943D01*
X121000000Y-90147802D01*
X121019685Y-90080763D01*
X121072489Y-90035008D01*
X121141647Y-90025064D01*
X121156087Y-90028025D01*
X121295943Y-90065500D01*
X121295945Y-90065500D01*
X121454055Y-90065500D01*
X121454057Y-90065500D01*
X121606784Y-90024577D01*
X121743716Y-89945520D01*
X121855520Y-89833716D01*
X121934577Y-89696784D01*
X121975500Y-89544057D01*
X121975500Y-89385943D01*
X121934577Y-89233216D01*
X121934573Y-89233209D01*
X121855524Y-89096290D01*
X121855518Y-89096282D01*
X121743717Y-88984481D01*
X121743709Y-88984475D01*
X121606790Y-88905426D01*
X121606786Y-88905424D01*
X121606784Y-88905423D01*
X121454057Y-88864500D01*
X121295943Y-88864500D01*
X121156093Y-88901972D01*
X121086243Y-88900309D01*
X121028381Y-88861146D01*
X121000877Y-88796917D01*
X121000000Y-88782197D01*
X121000000Y-87945943D01*
X122049500Y-87945943D01*
X122049500Y-88104056D01*
X122090423Y-88256783D01*
X122090426Y-88256790D01*
X122169475Y-88393709D01*
X122169479Y-88393714D01*
X122169480Y-88393716D01*
X122281284Y-88505520D01*
X122281286Y-88505521D01*
X122281290Y-88505524D01*
X122418209Y-88584573D01*
X122418216Y-88584577D01*
X122570943Y-88625500D01*
X122570945Y-88625500D01*
X122729055Y-88625500D01*
X122729057Y-88625500D01*
X122881784Y-88584577D01*
X123018716Y-88505520D01*
X123130520Y-88393716D01*
X123209577Y-88256784D01*
X123250500Y-88104057D01*
X123250500Y-87945943D01*
X123209577Y-87793216D01*
X123209573Y-87793209D01*
X123130524Y-87656290D01*
X123130518Y-87656282D01*
X123018717Y-87544481D01*
X123018709Y-87544475D01*
X122881790Y-87465426D01*
X122881786Y-87465424D01*
X122881784Y-87465423D01*
X122729057Y-87424500D01*
X122570943Y-87424500D01*
X122418216Y-87465423D01*
X122418209Y-87465426D01*
X122281290Y-87544475D01*
X122281282Y-87544481D01*
X122169481Y-87656282D01*
X122169475Y-87656290D01*
X122090426Y-87793209D01*
X122090423Y-87793216D01*
X122049500Y-87945943D01*
X121000000Y-87945943D01*
X121000000Y-83506092D01*
X121000597Y-83493938D01*
X121005595Y-83443196D01*
X121018018Y-83317056D01*
X121022757Y-83293232D01*
X121072577Y-83128994D01*
X121081875Y-83106549D01*
X121162775Y-82955195D01*
X121176272Y-82934995D01*
X121285149Y-82802328D01*
X121302328Y-82785149D01*
X121434995Y-82676272D01*
X121455195Y-82662775D01*
X121606549Y-82581875D01*
X121628994Y-82572577D01*
X121793232Y-82522757D01*
X121817056Y-82518018D01*
X121993939Y-82500597D01*
X122006093Y-82500000D01*
X137782417Y-82500000D01*
X137849456Y-82519685D01*
G37*
G04 #@! TD.AperFunction*
G04 #@! TA.AperFunction,Conductor*
G36*
X148429886Y-57519685D02*
G01*
X148475641Y-57572489D01*
X148486847Y-57624000D01*
X148486847Y-57691710D01*
X148516489Y-57802333D01*
X148527770Y-57844436D01*
X148527773Y-57844443D01*
X148606822Y-57981362D01*
X148606826Y-57981367D01*
X148606827Y-57981369D01*
X148718631Y-58093173D01*
X148718633Y-58093174D01*
X148718637Y-58093177D01*
X148855556Y-58172226D01*
X148855563Y-58172230D01*
X149008290Y-58213153D01*
X149008292Y-58213153D01*
X149166402Y-58213153D01*
X149166404Y-58213153D01*
X149319131Y-58172230D01*
X149456063Y-58093173D01*
X149567867Y-57981369D01*
X149646924Y-57844437D01*
X149687847Y-57691710D01*
X149687847Y-57624000D01*
X149707532Y-57556961D01*
X149760336Y-57511206D01*
X149811847Y-57500000D01*
X150271943Y-57500000D01*
X150304036Y-57504225D01*
X150420943Y-57535550D01*
X150420945Y-57535550D01*
X150579055Y-57535550D01*
X150579057Y-57535550D01*
X150695964Y-57504225D01*
X150728057Y-57500000D01*
X165990403Y-57500000D01*
X166057442Y-57519685D01*
X166103197Y-57572489D01*
X166113141Y-57641647D01*
X166110178Y-57656089D01*
X166099500Y-57695943D01*
X166099500Y-57854057D01*
X166133614Y-57981370D01*
X166140423Y-58006783D01*
X166140426Y-58006790D01*
X166219475Y-58143709D01*
X166219479Y-58143714D01*
X166219480Y-58143716D01*
X166331284Y-58255520D01*
X166331286Y-58255521D01*
X166331290Y-58255524D01*
X166412802Y-58302584D01*
X166468216Y-58334577D01*
X166620943Y-58375500D01*
X166620945Y-58375500D01*
X166779055Y-58375500D01*
X166779057Y-58375500D01*
X166931784Y-58334577D01*
X167068716Y-58255520D01*
X167180520Y-58143716D01*
X167259577Y-58006784D01*
X167300500Y-57854057D01*
X167300500Y-57695943D01*
X167289822Y-57656092D01*
X167291485Y-57586243D01*
X167330648Y-57528381D01*
X167394876Y-57500877D01*
X167409597Y-57500000D01*
X184720700Y-57500000D01*
X184729544Y-57500315D01*
X184732119Y-57500500D01*
X184732120Y-57500500D01*
X185267880Y-57500500D01*
X185267881Y-57500500D01*
X185270455Y-57500315D01*
X185279300Y-57500000D01*
X203993907Y-57500000D01*
X204006061Y-57500597D01*
X204182941Y-57518018D01*
X204206769Y-57522757D01*
X204371001Y-57572576D01*
X204393453Y-57581877D01*
X204532302Y-57656093D01*
X204544798Y-57662772D01*
X204565008Y-57676276D01*
X204687684Y-57776953D01*
X204697666Y-57785145D01*
X204714854Y-57802333D01*
X204823722Y-57934989D01*
X204837227Y-57955201D01*
X204918121Y-58106543D01*
X204927424Y-58129001D01*
X204965802Y-58255518D01*
X204969161Y-58266589D01*
X204974500Y-58302584D01*
X204974500Y-76697414D01*
X204974390Y-76698152D01*
X204974495Y-76698521D01*
X204969161Y-76733409D01*
X204927424Y-76870998D01*
X204918121Y-76893456D01*
X204837227Y-77044798D01*
X204823722Y-77065010D01*
X204714854Y-77197666D01*
X204697666Y-77214854D01*
X204565010Y-77323722D01*
X204544798Y-77337227D01*
X204393456Y-77418121D01*
X204370998Y-77427424D01*
X204206775Y-77477240D01*
X204182934Y-77481982D01*
X204006061Y-77499403D01*
X203993907Y-77500000D01*
X177667583Y-77500000D01*
X177600544Y-77480315D01*
X177554789Y-77427511D01*
X177544845Y-77358353D01*
X177573870Y-77294797D01*
X177611288Y-77265515D01*
X177660228Y-77240579D01*
X177844937Y-77106379D01*
X178006379Y-76944937D01*
X178140579Y-76760228D01*
X178244231Y-76556799D01*
X178314784Y-76339660D01*
X178350500Y-76114162D01*
X178350500Y-73885837D01*
X178314784Y-73660339D01*
X178244229Y-73443196D01*
X178140578Y-73239771D01*
X178006379Y-73055063D01*
X177844937Y-72893621D01*
X177660228Y-72759421D01*
X177456803Y-72655770D01*
X177239660Y-72585215D01*
X177014162Y-72549500D01*
X177014157Y-72549500D01*
X176785843Y-72549500D01*
X176785838Y-72549500D01*
X176560339Y-72585215D01*
X176343196Y-72655770D01*
X176139771Y-72759421D01*
X175955061Y-72893622D01*
X175793622Y-73055061D01*
X175659421Y-73239771D01*
X175555770Y-73443196D01*
X175485215Y-73660339D01*
X175449500Y-73885837D01*
X175449500Y-76114162D01*
X175485215Y-76339660D01*
X175555770Y-76556803D01*
X175632182Y-76706769D01*
X175659421Y-76760228D01*
X175793621Y-76944937D01*
X175955063Y-77106379D01*
X176139772Y-77240579D01*
X176188712Y-77265515D01*
X176239508Y-77313490D01*
X176256303Y-77381310D01*
X176233766Y-77447445D01*
X176179051Y-77490897D01*
X176132417Y-77500000D01*
X167553297Y-77500000D01*
X167486258Y-77480315D01*
X167440503Y-77427511D01*
X167430559Y-77358353D01*
X167438738Y-77328543D01*
X167438868Y-77328228D01*
X167450499Y-77269752D01*
X167450500Y-77269750D01*
X167450500Y-72730249D01*
X167450499Y-72730247D01*
X167438868Y-72671770D01*
X167438867Y-72671769D01*
X167394552Y-72605447D01*
X167328230Y-72561132D01*
X167328229Y-72561131D01*
X167269752Y-72549500D01*
X167269748Y-72549500D01*
X164730252Y-72549500D01*
X164730247Y-72549500D01*
X164671770Y-72561131D01*
X164671769Y-72561132D01*
X164605447Y-72605447D01*
X164561132Y-72671769D01*
X164561131Y-72671770D01*
X164549500Y-72730247D01*
X164549500Y-77269752D01*
X164561131Y-77328228D01*
X164561262Y-77328543D01*
X164561341Y-77329284D01*
X164563515Y-77340210D01*
X164562537Y-77340404D01*
X164568734Y-77398012D01*
X164537461Y-77460492D01*
X164477374Y-77496147D01*
X164446703Y-77500000D01*
X161167583Y-77500000D01*
X161100544Y-77480315D01*
X161054789Y-77427511D01*
X161044845Y-77358353D01*
X161073870Y-77294797D01*
X161111288Y-77265515D01*
X161160228Y-77240579D01*
X161344937Y-77106379D01*
X161506379Y-76944937D01*
X161640579Y-76760228D01*
X161744231Y-76556799D01*
X161814784Y-76339660D01*
X161850500Y-76114162D01*
X161850500Y-73885837D01*
X161814784Y-73660339D01*
X161744229Y-73443196D01*
X161640578Y-73239771D01*
X161506379Y-73055063D01*
X161344937Y-72893621D01*
X161160228Y-72759421D01*
X160956803Y-72655770D01*
X160739660Y-72585215D01*
X160514162Y-72549500D01*
X160514157Y-72549500D01*
X160285843Y-72549500D01*
X160285838Y-72549500D01*
X160060339Y-72585215D01*
X159843196Y-72655770D01*
X159639771Y-72759421D01*
X159455061Y-72893622D01*
X159293622Y-73055061D01*
X159159421Y-73239771D01*
X159055770Y-73443196D01*
X158985215Y-73660339D01*
X158949500Y-73885837D01*
X158949500Y-76114162D01*
X158985215Y-76339660D01*
X159055770Y-76556803D01*
X159132182Y-76706769D01*
X159159421Y-76760228D01*
X159293621Y-76944937D01*
X159455063Y-77106379D01*
X159639772Y-77240579D01*
X159688712Y-77265515D01*
X159739508Y-77313490D01*
X159756303Y-77381310D01*
X159733766Y-77447445D01*
X159679051Y-77490897D01*
X159632417Y-77500000D01*
X151053297Y-77500000D01*
X150986258Y-77480315D01*
X150940503Y-77427511D01*
X150930559Y-77358353D01*
X150938738Y-77328543D01*
X150938868Y-77328228D01*
X150950499Y-77269752D01*
X150950500Y-77269750D01*
X150950500Y-72730249D01*
X150950499Y-72730247D01*
X150938868Y-72671770D01*
X150938867Y-72671769D01*
X150894552Y-72605447D01*
X150828230Y-72561132D01*
X150828229Y-72561131D01*
X150769752Y-72549500D01*
X150769748Y-72549500D01*
X148230252Y-72549500D01*
X148230247Y-72549500D01*
X148171770Y-72561131D01*
X148171769Y-72561132D01*
X148105447Y-72605447D01*
X148061132Y-72671769D01*
X148061131Y-72671770D01*
X148049500Y-72730247D01*
X148049500Y-77269752D01*
X148061131Y-77328228D01*
X148061262Y-77328543D01*
X148061341Y-77329284D01*
X148063515Y-77340210D01*
X148062537Y-77340404D01*
X148068734Y-77398012D01*
X148037461Y-77460492D01*
X147977374Y-77496147D01*
X147946703Y-77500000D01*
X144667583Y-77500000D01*
X144600544Y-77480315D01*
X144554789Y-77427511D01*
X144544845Y-77358353D01*
X144573870Y-77294797D01*
X144611288Y-77265515D01*
X144660228Y-77240579D01*
X144844937Y-77106379D01*
X145006379Y-76944937D01*
X145140579Y-76760228D01*
X145244231Y-76556799D01*
X145314784Y-76339660D01*
X145350500Y-76114162D01*
X145350500Y-73885837D01*
X145314784Y-73660339D01*
X145244229Y-73443196D01*
X145140578Y-73239771D01*
X145006379Y-73055063D01*
X144844937Y-72893621D01*
X144660228Y-72759421D01*
X144456803Y-72655770D01*
X144239660Y-72585215D01*
X144014162Y-72549500D01*
X144014157Y-72549500D01*
X143785843Y-72549500D01*
X143785838Y-72549500D01*
X143560339Y-72585215D01*
X143343196Y-72655770D01*
X143139771Y-72759421D01*
X142955061Y-72893622D01*
X142793622Y-73055061D01*
X142659421Y-73239771D01*
X142555770Y-73443196D01*
X142485215Y-73660339D01*
X142449500Y-73885837D01*
X142449500Y-76114162D01*
X142485215Y-76339660D01*
X142555770Y-76556803D01*
X142632182Y-76706769D01*
X142659421Y-76760228D01*
X142793621Y-76944937D01*
X142955063Y-77106379D01*
X143139772Y-77240579D01*
X143188712Y-77265515D01*
X143239508Y-77313490D01*
X143256303Y-77381310D01*
X143233766Y-77447445D01*
X143179051Y-77490897D01*
X143132417Y-77500000D01*
X137906093Y-77500000D01*
X137893939Y-77499403D01*
X137717065Y-77481982D01*
X137693224Y-77477240D01*
X137529001Y-77427424D01*
X137506543Y-77418121D01*
X137355201Y-77337227D01*
X137334989Y-77323722D01*
X137202333Y-77214854D01*
X137185145Y-77197666D01*
X137076277Y-77065010D01*
X137062772Y-77044798D01*
X136981878Y-76893456D01*
X136972575Y-76870998D01*
X136938974Y-76760228D01*
X136922757Y-76706769D01*
X136918018Y-76682941D01*
X136900597Y-76506061D01*
X136900000Y-76493907D01*
X136900000Y-58506092D01*
X136900597Y-58493938D01*
X136912262Y-58375499D01*
X136918018Y-58317056D01*
X136922757Y-58293232D01*
X136972577Y-58128994D01*
X136981875Y-58106549D01*
X137062775Y-57955195D01*
X137076272Y-57934995D01*
X137185149Y-57802328D01*
X137202328Y-57785149D01*
X137334995Y-57676272D01*
X137355195Y-57662775D01*
X137506549Y-57581875D01*
X137528994Y-57572577D01*
X137693232Y-57522757D01*
X137717056Y-57518018D01*
X137893939Y-57500597D01*
X137906093Y-57500000D01*
X148362847Y-57500000D01*
X148429886Y-57519685D01*
G37*
G04 #@! TD.AperFunction*
G04 #@! TA.AperFunction,Conductor*
G36*
X131332986Y-30045185D02*
G01*
X131378741Y-30097989D01*
X131388685Y-30167147D01*
X131375305Y-30207953D01*
X131241264Y-30458723D01*
X131241262Y-30458728D01*
X131105882Y-30785563D01*
X131003188Y-31124104D01*
X131003185Y-31124115D01*
X130934176Y-31471053D01*
X130934173Y-31471070D01*
X130899500Y-31823122D01*
X130899500Y-33976877D01*
X130934173Y-34328929D01*
X130934176Y-34328946D01*
X131003185Y-34675884D01*
X131003188Y-34675895D01*
X131105882Y-35014436D01*
X131241262Y-35341271D01*
X131241264Y-35341276D01*
X131408017Y-35653247D01*
X131408028Y-35653265D01*
X131604558Y-35947393D01*
X131604568Y-35947407D01*
X131828992Y-36220869D01*
X131920442Y-36312319D01*
X131953927Y-36373642D01*
X131948943Y-36443334D01*
X131920442Y-36487681D01*
X131828992Y-36579130D01*
X131604568Y-36852592D01*
X131604558Y-36852606D01*
X131408028Y-37146734D01*
X131408017Y-37146752D01*
X131241264Y-37458723D01*
X131241262Y-37458728D01*
X131105882Y-37785563D01*
X131003188Y-38124104D01*
X131003185Y-38124115D01*
X130934176Y-38471053D01*
X130934173Y-38471070D01*
X130899500Y-38823122D01*
X130899500Y-40976877D01*
X130934173Y-41328929D01*
X130934176Y-41328946D01*
X131003185Y-41675884D01*
X131003188Y-41675895D01*
X131105882Y-42014436D01*
X131241262Y-42341271D01*
X131241264Y-42341276D01*
X131408017Y-42653247D01*
X131408028Y-42653265D01*
X131604558Y-42947393D01*
X131604568Y-42947407D01*
X131828992Y-43220869D01*
X132079130Y-43471007D01*
X132079135Y-43471011D01*
X132079136Y-43471012D01*
X132352598Y-43695436D01*
X132646741Y-43891976D01*
X132646750Y-43891981D01*
X132646752Y-43891982D01*
X132958723Y-44058735D01*
X132958725Y-44058735D01*
X132958731Y-44058739D01*
X133285565Y-44194118D01*
X133624095Y-44296809D01*
X133624101Y-44296810D01*
X133624104Y-44296811D01*
X133624115Y-44296814D01*
X133841674Y-44340088D01*
X133971060Y-44365825D01*
X134323119Y-44400500D01*
X134323122Y-44400500D01*
X134676878Y-44400500D01*
X134676881Y-44400500D01*
X135028940Y-44365825D01*
X135200679Y-44331663D01*
X135375884Y-44296814D01*
X135375895Y-44296811D01*
X135375895Y-44296810D01*
X135375905Y-44296809D01*
X135714435Y-44194118D01*
X136041269Y-44058739D01*
X136353259Y-43891976D01*
X136647402Y-43695436D01*
X136920864Y-43471012D01*
X137171012Y-43220864D01*
X137395436Y-42947402D01*
X137591976Y-42653259D01*
X137758739Y-42341269D01*
X137894118Y-42014435D01*
X137996809Y-41675905D01*
X138004921Y-41635123D01*
X138037303Y-41573213D01*
X138098018Y-41538637D01*
X138148066Y-41537197D01*
X138564019Y-41610540D01*
X139020756Y-41650499D01*
X139020757Y-41650500D01*
X139020758Y-41650500D01*
X139479243Y-41650500D01*
X139479243Y-41650499D01*
X139935981Y-41610540D01*
X140158707Y-41571267D01*
X140228144Y-41579011D01*
X140282374Y-41623067D01*
X140301853Y-41669182D01*
X140303191Y-41675905D01*
X140354536Y-41845170D01*
X140405882Y-42014436D01*
X140541262Y-42341271D01*
X140541264Y-42341276D01*
X140708017Y-42653247D01*
X140708028Y-42653265D01*
X140904558Y-42947393D01*
X140904568Y-42947407D01*
X140997786Y-43060993D01*
X141025099Y-43125303D01*
X141013308Y-43194171D01*
X140966156Y-43245731D01*
X140942889Y-43256699D01*
X140879922Y-43278732D01*
X140879913Y-43278736D01*
X140637005Y-43395714D01*
X140408712Y-43539161D01*
X140197915Y-43707265D01*
X140007265Y-43897915D01*
X139839161Y-44108712D01*
X139695714Y-44337005D01*
X139578734Y-44579917D01*
X139489687Y-44834397D01*
X139489684Y-44834405D01*
X139429688Y-45097268D01*
X139429686Y-45097280D01*
X139399500Y-45365186D01*
X139399500Y-45634813D01*
X139429686Y-45902719D01*
X139429688Y-45902731D01*
X139489684Y-46165594D01*
X139489687Y-46165602D01*
X139578734Y-46420082D01*
X139695714Y-46662994D01*
X139695716Y-46662997D01*
X139839162Y-46891289D01*
X139939292Y-47016848D01*
X140007265Y-47102084D01*
X140197911Y-47292731D01*
X140214483Y-47305946D01*
X140242167Y-47336923D01*
X140339162Y-47491289D01*
X140427518Y-47602084D01*
X140507265Y-47702084D01*
X140659952Y-47854771D01*
X140683989Y-47888646D01*
X140685261Y-47891287D01*
X140695718Y-47913001D01*
X140749746Y-47998985D01*
X140839162Y-48141289D01*
X140872542Y-48183146D01*
X140983996Y-48322906D01*
X141007266Y-48352085D01*
X141197915Y-48542734D01*
X141408711Y-48710838D01*
X141627179Y-48848111D01*
X141637005Y-48854285D01*
X141670288Y-48870313D01*
X141879921Y-48971267D01*
X142067910Y-49037047D01*
X142134397Y-49060312D01*
X142134405Y-49060315D01*
X142134408Y-49060315D01*
X142134409Y-49060316D01*
X142397268Y-49120312D01*
X142665187Y-49150499D01*
X142665188Y-49150500D01*
X142665191Y-49150500D01*
X142934812Y-49150500D01*
X142934812Y-49150499D01*
X143202732Y-49120312D01*
X143272411Y-49104408D01*
X143327589Y-49104408D01*
X143397268Y-49120312D01*
X143665187Y-49150499D01*
X143665188Y-49150500D01*
X143665191Y-49150500D01*
X143934812Y-49150500D01*
X143934812Y-49150499D01*
X144202732Y-49120312D01*
X144272411Y-49104408D01*
X144327589Y-49104408D01*
X144397268Y-49120312D01*
X144665187Y-49150499D01*
X144665188Y-49150500D01*
X144665191Y-49150500D01*
X144934812Y-49150500D01*
X144934812Y-49150499D01*
X145202732Y-49120312D01*
X145465591Y-49060316D01*
X145720079Y-48971267D01*
X145962997Y-48854284D01*
X146191289Y-48710838D01*
X146402085Y-48542734D01*
X146592734Y-48352085D01*
X146760838Y-48141289D01*
X146904284Y-47912997D01*
X147021267Y-47670079D01*
X147110316Y-47415591D01*
X147170312Y-47152732D01*
X147200500Y-46884809D01*
X147200500Y-46615191D01*
X147170312Y-46347268D01*
X147125877Y-46152588D01*
X147125877Y-46097411D01*
X147170312Y-45902732D01*
X147200500Y-45634809D01*
X147200500Y-45365191D01*
X147170312Y-45097268D01*
X147110316Y-44834409D01*
X147021267Y-44579921D01*
X146904284Y-44337003D01*
X146760838Y-44108711D01*
X146592734Y-43897915D01*
X146402085Y-43707266D01*
X146402084Y-43707265D01*
X146402078Y-43707259D01*
X146278312Y-43608560D01*
X146238171Y-43551372D01*
X146235321Y-43481560D01*
X146267940Y-43423935D01*
X146471012Y-43220864D01*
X146695436Y-42947402D01*
X146891976Y-42653259D01*
X147058739Y-42341269D01*
X147194118Y-42014435D01*
X147281340Y-41726899D01*
X147319637Y-41668462D01*
X147383449Y-41640006D01*
X147452516Y-41650566D01*
X147504909Y-41696790D01*
X147518658Y-41726896D01*
X147578867Y-41925379D01*
X147605882Y-42014436D01*
X147741262Y-42341271D01*
X147741264Y-42341276D01*
X147908017Y-42653247D01*
X147908028Y-42653265D01*
X148104558Y-42947393D01*
X148104568Y-42947407D01*
X148328992Y-43220869D01*
X148579130Y-43471007D01*
X148579135Y-43471011D01*
X148579136Y-43471012D01*
X148852598Y-43695436D01*
X149146741Y-43891976D01*
X149146750Y-43891981D01*
X149146752Y-43891982D01*
X149458723Y-44058735D01*
X149458725Y-44058735D01*
X149458731Y-44058739D01*
X149785565Y-44194118D01*
X150124095Y-44296809D01*
X150124101Y-44296810D01*
X150124104Y-44296811D01*
X150124115Y-44296814D01*
X150341674Y-44340088D01*
X150471060Y-44365825D01*
X150823119Y-44400500D01*
X150823122Y-44400500D01*
X151176878Y-44400500D01*
X151176881Y-44400500D01*
X151528940Y-44365825D01*
X151700679Y-44331663D01*
X151875884Y-44296814D01*
X151875895Y-44296811D01*
X151875895Y-44296810D01*
X151875905Y-44296809D01*
X152214435Y-44194118D01*
X152541269Y-44058739D01*
X152853259Y-43891976D01*
X153147402Y-43695436D01*
X153420864Y-43471012D01*
X153671012Y-43220864D01*
X153895436Y-42947402D01*
X154091976Y-42653259D01*
X154258739Y-42341269D01*
X154394118Y-42014435D01*
X154496809Y-41675905D01*
X154504921Y-41635123D01*
X154537303Y-41573213D01*
X154598018Y-41538637D01*
X154648066Y-41537197D01*
X155064019Y-41610540D01*
X155520756Y-41650499D01*
X155520757Y-41650500D01*
X155520758Y-41650500D01*
X155979243Y-41650500D01*
X155979243Y-41650499D01*
X156435981Y-41610540D01*
X156658707Y-41571267D01*
X156728144Y-41579011D01*
X156782374Y-41623067D01*
X156801853Y-41669182D01*
X156803191Y-41675905D01*
X156854536Y-41845170D01*
X156905882Y-42014436D01*
X157041262Y-42341271D01*
X157041264Y-42341276D01*
X157208017Y-42653247D01*
X157208021Y-42653254D01*
X157208024Y-42653259D01*
X157404564Y-42947402D01*
X157433797Y-42983022D01*
X157461110Y-43047331D01*
X157449319Y-43116199D01*
X157402167Y-43167759D01*
X157365540Y-43182577D01*
X157334416Y-43189681D01*
X157334397Y-43189687D01*
X157079917Y-43278734D01*
X156837005Y-43395714D01*
X156608712Y-43539161D01*
X156397915Y-43707265D01*
X156207265Y-43897915D01*
X156039161Y-44108712D01*
X155895714Y-44337005D01*
X155778734Y-44579917D01*
X155689687Y-44834397D01*
X155689684Y-44834405D01*
X155629688Y-45097268D01*
X155629686Y-45097280D01*
X155599500Y-45365186D01*
X155599500Y-45634813D01*
X155629686Y-45902719D01*
X155629688Y-45902731D01*
X155689684Y-46165594D01*
X155689687Y-46165602D01*
X155778734Y-46420082D01*
X155895714Y-46662994D01*
X155895716Y-46662997D01*
X156039162Y-46891289D01*
X156139292Y-47016848D01*
X156207265Y-47102084D01*
X156397915Y-47292734D01*
X156559094Y-47421270D01*
X156578728Y-47440904D01*
X156707265Y-47602084D01*
X156897915Y-47792734D01*
X157059094Y-47921270D01*
X157078728Y-47940904D01*
X157179370Y-48067105D01*
X157207266Y-48102085D01*
X157397915Y-48292734D01*
X157608711Y-48460838D01*
X157837003Y-48604284D01*
X158079921Y-48721267D01*
X158271049Y-48788145D01*
X158334397Y-48810312D01*
X158334405Y-48810315D01*
X158334408Y-48810315D01*
X158334409Y-48810316D01*
X158597268Y-48870312D01*
X158865187Y-48900499D01*
X158865188Y-48900500D01*
X158865191Y-48900500D01*
X159134812Y-48900500D01*
X159134812Y-48900499D01*
X159402732Y-48870312D01*
X159472411Y-48854408D01*
X159527589Y-48854408D01*
X159597268Y-48870312D01*
X159865187Y-48900499D01*
X159865188Y-48900500D01*
X159865191Y-48900500D01*
X160134812Y-48900500D01*
X160134812Y-48900499D01*
X160402732Y-48870312D01*
X160472411Y-48854408D01*
X160527589Y-48854408D01*
X160597268Y-48870312D01*
X160865187Y-48900499D01*
X160865188Y-48900500D01*
X160865191Y-48900500D01*
X161134812Y-48900500D01*
X161134812Y-48900499D01*
X161402732Y-48870312D01*
X161665591Y-48810316D01*
X161920079Y-48721267D01*
X162162997Y-48604284D01*
X162391289Y-48460838D01*
X162602085Y-48292734D01*
X162792734Y-48102085D01*
X162960838Y-47891289D01*
X163104284Y-47662997D01*
X163221267Y-47420079D01*
X163310316Y-47165591D01*
X163370312Y-46902732D01*
X163400500Y-46634809D01*
X163400500Y-46365191D01*
X163370312Y-46097268D01*
X163354408Y-46027588D01*
X163354408Y-45972411D01*
X163370312Y-45902732D01*
X163400500Y-45634809D01*
X163400500Y-45365191D01*
X163370312Y-45097268D01*
X163310316Y-44834409D01*
X163221267Y-44579921D01*
X163104284Y-44337003D01*
X162960838Y-44108711D01*
X162792734Y-43897915D01*
X162622604Y-43727785D01*
X162589119Y-43666462D01*
X162594103Y-43596770D01*
X162631618Y-43544252D01*
X162720864Y-43471012D01*
X162971012Y-43220864D01*
X163195436Y-42947402D01*
X163391976Y-42653259D01*
X163558739Y-42341269D01*
X163694118Y-42014435D01*
X163781340Y-41726899D01*
X163819637Y-41668462D01*
X163883449Y-41640006D01*
X163952516Y-41650566D01*
X164004909Y-41696790D01*
X164018658Y-41726896D01*
X164078867Y-41925379D01*
X164105882Y-42014436D01*
X164241262Y-42341271D01*
X164241264Y-42341276D01*
X164408017Y-42653247D01*
X164408028Y-42653265D01*
X164604558Y-42947393D01*
X164604568Y-42947407D01*
X164828992Y-43220869D01*
X165079130Y-43471007D01*
X165079135Y-43471011D01*
X165079136Y-43471012D01*
X165352598Y-43695436D01*
X165646741Y-43891976D01*
X165646750Y-43891981D01*
X165646752Y-43891982D01*
X165958723Y-44058735D01*
X165958725Y-44058735D01*
X165958731Y-44058739D01*
X166285565Y-44194118D01*
X166624095Y-44296809D01*
X166624101Y-44296810D01*
X166624104Y-44296811D01*
X166624115Y-44296814D01*
X166841674Y-44340088D01*
X166971060Y-44365825D01*
X167323119Y-44400500D01*
X167323122Y-44400500D01*
X167676878Y-44400500D01*
X167676881Y-44400500D01*
X168028940Y-44365825D01*
X168200679Y-44331663D01*
X168375884Y-44296814D01*
X168375895Y-44296811D01*
X168375895Y-44296810D01*
X168375905Y-44296809D01*
X168714435Y-44194118D01*
X169041269Y-44058739D01*
X169353259Y-43891976D01*
X169647402Y-43695436D01*
X169920864Y-43471012D01*
X170171012Y-43220864D01*
X170395436Y-42947402D01*
X170591976Y-42653259D01*
X170758739Y-42341269D01*
X170894118Y-42014435D01*
X170996809Y-41675905D01*
X171004921Y-41635123D01*
X171037303Y-41573213D01*
X171098018Y-41538637D01*
X171148066Y-41537197D01*
X171564019Y-41610540D01*
X172020756Y-41650499D01*
X172020757Y-41650500D01*
X172020758Y-41650500D01*
X172479243Y-41650500D01*
X172479243Y-41650499D01*
X172935981Y-41610540D01*
X173158707Y-41571267D01*
X173228144Y-41579011D01*
X173282374Y-41623067D01*
X173301853Y-41669182D01*
X173303191Y-41675905D01*
X173354536Y-41845170D01*
X173405882Y-42014436D01*
X173541262Y-42341271D01*
X173541264Y-42341276D01*
X173708017Y-42653247D01*
X173708021Y-42653254D01*
X173708024Y-42653259D01*
X173904564Y-42947402D01*
X173933797Y-42983022D01*
X173961110Y-43047331D01*
X173949319Y-43116199D01*
X173902167Y-43167759D01*
X173865540Y-43182577D01*
X173834416Y-43189681D01*
X173834397Y-43189687D01*
X173579917Y-43278734D01*
X173337005Y-43395714D01*
X173108712Y-43539161D01*
X172897915Y-43707265D01*
X172707265Y-43897915D01*
X172539161Y-44108712D01*
X172395714Y-44337005D01*
X172278734Y-44579917D01*
X172189687Y-44834397D01*
X172189684Y-44834405D01*
X172129688Y-45097268D01*
X172129686Y-45097280D01*
X172099500Y-45365186D01*
X172099500Y-45634813D01*
X172129686Y-45902719D01*
X172129688Y-45902731D01*
X172189684Y-46165594D01*
X172189687Y-46165602D01*
X172278734Y-46420082D01*
X172395714Y-46662994D01*
X172395716Y-46662997D01*
X172539162Y-46891289D01*
X172639292Y-47016848D01*
X172707265Y-47102084D01*
X172897915Y-47292734D01*
X173059094Y-47421270D01*
X173078728Y-47440904D01*
X173207265Y-47602084D01*
X173397915Y-47792734D01*
X173559094Y-47921270D01*
X173578728Y-47940904D01*
X173679370Y-48067105D01*
X173707266Y-48102085D01*
X173897915Y-48292734D01*
X174108711Y-48460838D01*
X174337003Y-48604284D01*
X174579921Y-48721267D01*
X174771049Y-48788145D01*
X174834397Y-48810312D01*
X174834405Y-48810315D01*
X174834408Y-48810315D01*
X174834409Y-48810316D01*
X175097268Y-48870312D01*
X175365187Y-48900499D01*
X175365188Y-48900500D01*
X175365191Y-48900500D01*
X175634812Y-48900500D01*
X175634812Y-48900499D01*
X175902732Y-48870312D01*
X175972411Y-48854408D01*
X176027589Y-48854408D01*
X176097268Y-48870312D01*
X176365187Y-48900499D01*
X176365188Y-48900500D01*
X176365191Y-48900500D01*
X176634812Y-48900500D01*
X176634812Y-48900499D01*
X176902732Y-48870312D01*
X176972411Y-48854408D01*
X177027589Y-48854408D01*
X177097268Y-48870312D01*
X177365187Y-48900499D01*
X177365188Y-48900500D01*
X177365191Y-48900500D01*
X177634812Y-48900500D01*
X177634812Y-48900499D01*
X177902732Y-48870312D01*
X178165591Y-48810316D01*
X178420079Y-48721267D01*
X178662997Y-48604284D01*
X178891289Y-48460838D01*
X179102085Y-48292734D01*
X179292734Y-48102085D01*
X179460838Y-47891289D01*
X179604284Y-47662997D01*
X179721267Y-47420079D01*
X179810316Y-47165591D01*
X179870312Y-46902732D01*
X179900500Y-46634809D01*
X179900500Y-46365191D01*
X179870312Y-46097268D01*
X179854408Y-46027588D01*
X179854408Y-45972411D01*
X179870312Y-45902732D01*
X179900500Y-45634809D01*
X179900500Y-45365191D01*
X179870312Y-45097268D01*
X179810316Y-44834409D01*
X179721267Y-44579921D01*
X179604284Y-44337003D01*
X179460838Y-44108711D01*
X179292734Y-43897915D01*
X179122604Y-43727785D01*
X179089119Y-43666462D01*
X179094103Y-43596770D01*
X179131618Y-43544252D01*
X179220864Y-43471012D01*
X179471012Y-43220864D01*
X179695436Y-42947402D01*
X179891976Y-42653259D01*
X180058739Y-42341269D01*
X180194118Y-42014435D01*
X180296809Y-41675905D01*
X180296811Y-41675895D01*
X180296814Y-41675884D01*
X180331663Y-41500679D01*
X180365825Y-41328940D01*
X180400500Y-40976881D01*
X180400500Y-38823119D01*
X180365825Y-38471060D01*
X180303950Y-38159993D01*
X180296814Y-38124115D01*
X180296811Y-38124104D01*
X180296810Y-38124101D01*
X180296809Y-38124095D01*
X180194118Y-37785565D01*
X180058739Y-37458731D01*
X179891976Y-37146741D01*
X179695436Y-36852598D01*
X179471012Y-36579136D01*
X179379555Y-36487679D01*
X179346072Y-36426359D01*
X179351056Y-36356667D01*
X179379555Y-36312320D01*
X179471012Y-36220864D01*
X179695436Y-35947402D01*
X179891976Y-35653259D01*
X180058739Y-35341269D01*
X180194118Y-35014435D01*
X180296809Y-34675905D01*
X180296811Y-34675895D01*
X180296814Y-34675884D01*
X180331663Y-34500679D01*
X180365825Y-34328940D01*
X180400500Y-33976881D01*
X180400500Y-31823119D01*
X180365825Y-31471060D01*
X180330042Y-31291168D01*
X180296814Y-31124115D01*
X180296811Y-31124104D01*
X180296809Y-31124096D01*
X180296809Y-31124095D01*
X180194118Y-30785565D01*
X180058739Y-30458731D01*
X179924695Y-30207953D01*
X179910453Y-30139551D01*
X179935453Y-30074307D01*
X179991758Y-30032936D01*
X180034053Y-30025500D01*
X204850500Y-30025500D01*
X204917539Y-30045185D01*
X204963294Y-30097989D01*
X204974500Y-30149500D01*
X204974500Y-55492708D01*
X204954815Y-55559747D01*
X204902011Y-55605502D01*
X204832853Y-55615446D01*
X204814507Y-55611369D01*
X204788960Y-55603619D01*
X204788939Y-55603614D01*
X204788936Y-55603613D01*
X204788932Y-55603612D01*
X204726871Y-55588067D01*
X204597994Y-55555787D01*
X204597977Y-55555783D01*
X204597968Y-55555781D01*
X204574140Y-55551042D01*
X204574127Y-55551039D01*
X204379518Y-55522175D01*
X204379499Y-55522173D01*
X204202628Y-55504753D01*
X204104462Y-55497512D01*
X204092305Y-55496915D01*
X204059501Y-55496110D01*
X203993907Y-55494500D01*
X185279300Y-55494500D01*
X185279283Y-55494500D01*
X185252344Y-55494980D01*
X185250135Y-55495000D01*
X184749867Y-55495000D01*
X184747659Y-55494980D01*
X184746621Y-55494961D01*
X184720718Y-55494500D01*
X184720700Y-55494500D01*
X170669291Y-55494500D01*
X170602252Y-55474815D01*
X170556497Y-55422011D01*
X170552249Y-55411454D01*
X170549961Y-55404914D01*
X170536718Y-55367068D01*
X170419735Y-55124150D01*
X170276289Y-54895858D01*
X170108185Y-54685062D01*
X169917536Y-54494413D01*
X169706740Y-54326309D01*
X169478448Y-54182863D01*
X169478445Y-54182861D01*
X169235533Y-54065881D01*
X168981053Y-53976834D01*
X168981045Y-53976831D01*
X168769124Y-53928462D01*
X168718183Y-53916835D01*
X168718179Y-53916834D01*
X168718170Y-53916833D01*
X168450264Y-53886647D01*
X168450260Y-53886647D01*
X168180642Y-53886647D01*
X168180637Y-53886647D01*
X167912724Y-53916833D01*
X167912721Y-53916834D01*
X167810729Y-53940112D01*
X167755547Y-53940112D01*
X167704503Y-53928462D01*
X167704500Y-53928461D01*
X167436587Y-53898275D01*
X167436583Y-53898275D01*
X167166965Y-53898275D01*
X167166960Y-53898275D01*
X166899054Y-53928461D01*
X166899037Y-53928463D01*
X166772086Y-53957439D01*
X166716906Y-53957440D01*
X166704840Y-53954686D01*
X166704841Y-53954686D01*
X166436928Y-53924500D01*
X166436924Y-53924500D01*
X166167306Y-53924500D01*
X166167301Y-53924500D01*
X165899395Y-53954686D01*
X165899383Y-53954688D01*
X165636520Y-54014684D01*
X165636512Y-54014687D01*
X165382032Y-54103734D01*
X165139120Y-54220714D01*
X164910827Y-54364161D01*
X164700030Y-54532265D01*
X164509380Y-54722915D01*
X164341276Y-54933712D01*
X164197829Y-55162005D01*
X164080850Y-55404914D01*
X164080848Y-55404921D01*
X164078561Y-55411454D01*
X164037842Y-55468230D01*
X163972890Y-55493978D01*
X163961521Y-55494500D01*
X154534030Y-55494500D01*
X154466991Y-55474815D01*
X154437083Y-55447813D01*
X154421244Y-55427952D01*
X154315590Y-55295465D01*
X154124941Y-55104816D01*
X153914145Y-54936712D01*
X153685853Y-54793266D01*
X153685850Y-54793264D01*
X153442938Y-54676284D01*
X153188458Y-54587237D01*
X153188450Y-54587234D01*
X152991302Y-54542237D01*
X152925588Y-54527238D01*
X152925584Y-54527237D01*
X152925575Y-54527236D01*
X152657669Y-54497050D01*
X152657665Y-54497050D01*
X152388047Y-54497050D01*
X152388042Y-54497050D01*
X152120129Y-54527236D01*
X152120126Y-54527237D01*
X152042320Y-54544995D01*
X151987138Y-54544995D01*
X151901962Y-54525555D01*
X151901959Y-54525554D01*
X151634046Y-54495368D01*
X151634042Y-54495368D01*
X151364424Y-54495368D01*
X151364419Y-54495368D01*
X151096513Y-54525554D01*
X151096496Y-54525556D01*
X150938068Y-54561716D01*
X150896593Y-54564045D01*
X150634815Y-54534550D01*
X150634809Y-54534550D01*
X150365191Y-54534550D01*
X150365186Y-54534550D01*
X150097280Y-54564736D01*
X150097268Y-54564738D01*
X149834405Y-54624734D01*
X149834397Y-54624737D01*
X149579917Y-54713784D01*
X149337005Y-54830764D01*
X149108712Y-54974211D01*
X148897910Y-55142319D01*
X148842952Y-55197277D01*
X148781629Y-55230761D01*
X148769156Y-55232815D01*
X148684627Y-55242339D01*
X148684615Y-55242341D01*
X148421752Y-55302337D01*
X148421744Y-55302340D01*
X148167264Y-55391387D01*
X148052908Y-55446458D01*
X147978647Y-55482220D01*
X147924848Y-55494500D01*
X137906093Y-55494500D01*
X137843480Y-55496036D01*
X137807694Y-55496915D01*
X137795537Y-55497512D01*
X137697374Y-55504753D01*
X137520513Y-55522172D01*
X137520496Y-55522174D01*
X137520488Y-55522175D01*
X137520475Y-55522177D01*
X137325804Y-55551052D01*
X137306951Y-55554802D01*
X137301969Y-55555794D01*
X137301964Y-55555795D01*
X137301955Y-55555797D01*
X137111065Y-55603613D01*
X136946828Y-55653433D01*
X136761453Y-55719764D01*
X136739027Y-55729055D01*
X136739003Y-55729065D01*
X136561176Y-55813175D01*
X136561171Y-55813177D01*
X136561166Y-55813180D01*
X136522168Y-55834025D01*
X136409797Y-55894088D01*
X136241022Y-55995247D01*
X136220796Y-56008762D01*
X136062713Y-56126004D01*
X136062705Y-56126011D01*
X135930046Y-56234881D01*
X135784230Y-56367041D01*
X135784227Y-56367043D01*
X135767043Y-56384227D01*
X135767041Y-56384230D01*
X135634881Y-56530046D01*
X135526011Y-56662705D01*
X135526004Y-56662713D01*
X135408762Y-56820796D01*
X135395247Y-56841022D01*
X135294088Y-57009797D01*
X135294080Y-57009812D01*
X135220450Y-57147566D01*
X135213175Y-57161176D01*
X135129065Y-57339003D01*
X135129055Y-57339027D01*
X135119764Y-57361453D01*
X135053433Y-57546828D01*
X135003613Y-57711065D01*
X134955797Y-57901955D01*
X134951052Y-57925804D01*
X134922177Y-58120475D01*
X134922172Y-58120512D01*
X134904753Y-58297372D01*
X134897512Y-58395536D01*
X134896915Y-58407693D01*
X134894500Y-58506105D01*
X134894500Y-70689040D01*
X134874815Y-70756079D01*
X134822011Y-70801834D01*
X134752853Y-70811778D01*
X134744142Y-70810206D01*
X134535433Y-70764804D01*
X134321450Y-70749500D01*
X134321448Y-70749500D01*
X131678552Y-70749500D01*
X131678549Y-70749500D01*
X131464566Y-70764804D01*
X131184962Y-70825628D01*
X130916833Y-70925635D01*
X130665690Y-71062770D01*
X130665682Y-71062775D01*
X130436612Y-71234254D01*
X130436594Y-71234270D01*
X130234270Y-71436594D01*
X130234254Y-71436612D01*
X130062775Y-71665682D01*
X130062770Y-71665690D01*
X129925635Y-71916833D01*
X129825628Y-72184962D01*
X129764804Y-72464566D01*
X129749500Y-72678549D01*
X129749500Y-77321450D01*
X129764804Y-77535433D01*
X129825628Y-77815037D01*
X129825630Y-77815043D01*
X129825631Y-77815046D01*
X129876457Y-77951316D01*
X129925635Y-78083166D01*
X130062770Y-78334309D01*
X130062775Y-78334317D01*
X130234254Y-78563387D01*
X130234270Y-78563405D01*
X130436594Y-78765729D01*
X130436612Y-78765745D01*
X130665682Y-78937224D01*
X130665690Y-78937229D01*
X130916833Y-79074364D01*
X130916832Y-79074364D01*
X130916836Y-79074365D01*
X130916839Y-79074367D01*
X131184954Y-79174369D01*
X131184960Y-79174370D01*
X131184962Y-79174371D01*
X131464566Y-79235195D01*
X131464568Y-79235195D01*
X131464572Y-79235196D01*
X131678552Y-79250500D01*
X134321448Y-79250500D01*
X134535428Y-79235196D01*
X134815046Y-79174369D01*
X135083161Y-79074367D01*
X135334315Y-78937226D01*
X135563395Y-78765739D01*
X135654561Y-78674572D01*
X135715883Y-78641087D01*
X135785574Y-78646071D01*
X135825514Y-78670374D01*
X135862515Y-78703910D01*
X135930052Y-78765122D01*
X135930057Y-78765126D01*
X136062713Y-78873994D01*
X136220806Y-78991243D01*
X136241018Y-79004748D01*
X136357171Y-79074367D01*
X136409812Y-79105918D01*
X136409820Y-79105923D01*
X136460262Y-79132884D01*
X136561157Y-79186814D01*
X136561187Y-79186828D01*
X136739009Y-79270935D01*
X136739028Y-79270943D01*
X136761480Y-79280244D01*
X136761485Y-79280245D01*
X136761488Y-79280247D01*
X136946840Y-79346569D01*
X137111063Y-79396385D01*
X137301992Y-79444209D01*
X137302022Y-79444215D01*
X137302031Y-79444217D01*
X137306660Y-79445137D01*
X137325833Y-79448951D01*
X137520487Y-79477824D01*
X137697361Y-79495245D01*
X137795548Y-79502488D01*
X137807702Y-79503085D01*
X137906093Y-79505500D01*
X137906107Y-79505500D01*
X143132429Y-79505500D01*
X143199208Y-79503830D01*
X143232604Y-79502996D01*
X143516641Y-79468350D01*
X143563275Y-79459247D01*
X143661149Y-79437589D01*
X143867398Y-79370572D01*
X143937237Y-79368578D01*
X143949036Y-79372318D01*
X144035514Y-79404574D01*
X144102553Y-79424259D01*
X144102568Y-79424263D01*
X144254441Y-79457301D01*
X144382165Y-79485086D01*
X144382167Y-79485086D01*
X144382171Y-79485087D01*
X144667583Y-79505500D01*
X147946688Y-79505500D01*
X147946703Y-79505500D01*
X148196676Y-79489860D01*
X148202955Y-79489071D01*
X148227327Y-79486010D01*
X148227333Y-79486008D01*
X148227347Y-79486007D01*
X148473437Y-79439328D01*
X148744931Y-79348952D01*
X148833577Y-79304574D01*
X148915387Y-79263619D01*
X148970896Y-79250500D01*
X150022450Y-79250500D01*
X150081877Y-79265668D01*
X150153127Y-79304574D01*
X150153136Y-79304578D01*
X150421218Y-79404571D01*
X150421227Y-79404573D01*
X150421228Y-79404574D01*
X150488267Y-79424259D01*
X150488282Y-79424263D01*
X150640155Y-79457301D01*
X150767879Y-79485086D01*
X150767881Y-79485086D01*
X150767885Y-79485087D01*
X151053297Y-79505500D01*
X159632429Y-79505500D01*
X159699208Y-79503830D01*
X159732604Y-79502996D01*
X160016641Y-79468350D01*
X160063275Y-79459247D01*
X160161149Y-79437589D01*
X160367398Y-79370572D01*
X160437237Y-79368578D01*
X160449036Y-79372318D01*
X160535514Y-79404574D01*
X160602553Y-79424259D01*
X160602568Y-79424263D01*
X160754441Y-79457301D01*
X160882165Y-79485086D01*
X160882167Y-79485086D01*
X160882171Y-79485087D01*
X161167583Y-79505500D01*
X164446688Y-79505500D01*
X164446703Y-79505500D01*
X164696676Y-79489860D01*
X164702955Y-79489071D01*
X164727327Y-79486010D01*
X164727333Y-79486008D01*
X164727347Y-79486007D01*
X164973437Y-79439328D01*
X165244931Y-79348952D01*
X165333577Y-79304574D01*
X165415387Y-79263619D01*
X165470896Y-79250500D01*
X166522450Y-79250500D01*
X166581877Y-79265668D01*
X166653127Y-79304574D01*
X166653136Y-79304578D01*
X166921218Y-79404571D01*
X166921227Y-79404573D01*
X166921228Y-79404574D01*
X166988267Y-79424259D01*
X166988282Y-79424263D01*
X167140155Y-79457301D01*
X167267879Y-79485086D01*
X167267881Y-79485086D01*
X167267885Y-79485087D01*
X167553297Y-79505500D01*
X176132429Y-79505500D01*
X176199208Y-79503830D01*
X176232604Y-79502996D01*
X176516641Y-79468350D01*
X176563275Y-79459247D01*
X176661149Y-79437589D01*
X176867398Y-79370572D01*
X176937237Y-79368578D01*
X176949036Y-79372318D01*
X177035514Y-79404574D01*
X177102553Y-79424259D01*
X177102568Y-79424263D01*
X177254441Y-79457301D01*
X177382165Y-79485086D01*
X177382167Y-79485086D01*
X177382171Y-79485087D01*
X177667583Y-79505500D01*
X203993893Y-79505500D01*
X203993907Y-79505500D01*
X204092298Y-79503085D01*
X204104452Y-79502488D01*
X204202640Y-79495245D01*
X204379513Y-79477824D01*
X204574166Y-79448951D01*
X204598007Y-79444209D01*
X204788936Y-79396385D01*
X204814507Y-79388627D01*
X204884371Y-79388005D01*
X204943484Y-79425253D01*
X204973075Y-79488547D01*
X204974500Y-79507289D01*
X204974500Y-80492708D01*
X204954815Y-80559747D01*
X204902011Y-80605502D01*
X204832853Y-80615446D01*
X204814507Y-80611369D01*
X204788960Y-80603619D01*
X204788939Y-80603614D01*
X204788936Y-80603613D01*
X204788932Y-80603612D01*
X204726871Y-80588067D01*
X204597994Y-80555787D01*
X204597977Y-80555783D01*
X204597968Y-80555781D01*
X204574140Y-80551042D01*
X204574127Y-80551039D01*
X204379518Y-80522175D01*
X204379499Y-80522173D01*
X204202628Y-80504753D01*
X204104462Y-80497512D01*
X204092305Y-80496915D01*
X204059501Y-80496110D01*
X203993907Y-80494500D01*
X178553297Y-80494500D01*
X178553280Y-80494500D01*
X178303324Y-80510139D01*
X178272672Y-80513989D01*
X178272662Y-80513991D01*
X178026564Y-80560671D01*
X177755072Y-80651047D01*
X177755057Y-80651053D01*
X177584613Y-80736381D01*
X177529104Y-80749500D01*
X176477550Y-80749500D01*
X176418123Y-80734332D01*
X176346872Y-80695425D01*
X176346863Y-80695421D01*
X176078781Y-80595428D01*
X176011745Y-80575744D01*
X176011715Y-80575736D01*
X175732120Y-80514913D01*
X175446705Y-80494500D01*
X175446703Y-80494500D01*
X172317583Y-80494500D01*
X172317571Y-80494500D01*
X172217401Y-80497003D01*
X171933363Y-80531649D01*
X171933353Y-80531650D01*
X171886729Y-80540751D01*
X171788850Y-80562411D01*
X171582601Y-80629425D01*
X171512759Y-80631420D01*
X171500953Y-80627677D01*
X171414486Y-80595426D01*
X171414476Y-80595423D01*
X171347459Y-80575744D01*
X171347429Y-80575736D01*
X171067834Y-80514913D01*
X170782419Y-80494500D01*
X170782417Y-80494500D01*
X162053297Y-80494500D01*
X162053280Y-80494500D01*
X161803324Y-80510139D01*
X161772672Y-80513989D01*
X161772662Y-80513991D01*
X161526564Y-80560671D01*
X161255072Y-80651047D01*
X161255057Y-80651053D01*
X161084613Y-80736381D01*
X161029104Y-80749500D01*
X159977550Y-80749500D01*
X159918123Y-80734332D01*
X159846872Y-80695425D01*
X159846863Y-80695421D01*
X159578781Y-80595428D01*
X159511745Y-80575744D01*
X159511715Y-80575736D01*
X159232120Y-80514913D01*
X158946705Y-80494500D01*
X158946703Y-80494500D01*
X155817583Y-80494500D01*
X155817571Y-80494500D01*
X155717401Y-80497003D01*
X155433363Y-80531649D01*
X155433353Y-80531650D01*
X155386729Y-80540751D01*
X155288850Y-80562411D01*
X155082601Y-80629425D01*
X155012759Y-80631420D01*
X155000953Y-80627677D01*
X154914486Y-80595426D01*
X154914476Y-80595423D01*
X154847459Y-80575744D01*
X154847429Y-80575736D01*
X154567834Y-80514913D01*
X154282419Y-80494500D01*
X154282417Y-80494500D01*
X145553297Y-80494500D01*
X145553280Y-80494500D01*
X145303324Y-80510139D01*
X145272672Y-80513989D01*
X145272662Y-80513991D01*
X145026564Y-80560671D01*
X144755072Y-80651047D01*
X144755057Y-80651053D01*
X144584613Y-80736381D01*
X144529104Y-80749500D01*
X143477550Y-80749500D01*
X143418123Y-80734332D01*
X143346872Y-80695425D01*
X143346863Y-80695421D01*
X143078781Y-80595428D01*
X143011745Y-80575744D01*
X143011715Y-80575736D01*
X142732120Y-80514913D01*
X142446705Y-80494500D01*
X142446703Y-80494500D01*
X139317583Y-80494500D01*
X139317571Y-80494500D01*
X139217401Y-80497003D01*
X138933363Y-80531649D01*
X138933353Y-80531650D01*
X138886729Y-80540751D01*
X138788850Y-80562411D01*
X138582601Y-80629425D01*
X138512759Y-80631420D01*
X138500953Y-80627677D01*
X138414486Y-80595426D01*
X138414476Y-80595423D01*
X138347459Y-80575744D01*
X138347429Y-80575736D01*
X138067834Y-80514913D01*
X137782419Y-80494500D01*
X137782417Y-80494500D01*
X125025586Y-80494500D01*
X124958547Y-80474815D01*
X124912792Y-80422011D01*
X124908544Y-80411454D01*
X124897860Y-80380920D01*
X124871267Y-80304921D01*
X124754284Y-80062003D01*
X124677286Y-79939463D01*
X124658287Y-79872228D01*
X124678655Y-79805392D01*
X124731922Y-79760178D01*
X124754680Y-79752603D01*
X124914066Y-79716225D01*
X125168554Y-79627176D01*
X125411472Y-79510193D01*
X125639764Y-79366747D01*
X125850560Y-79198643D01*
X126041209Y-79007994D01*
X126209313Y-78797198D01*
X126352759Y-78568906D01*
X126469742Y-78325988D01*
X126558791Y-78071500D01*
X126618787Y-77808641D01*
X126648975Y-77540718D01*
X126648975Y-77271100D01*
X126618787Y-77003177D01*
X126558791Y-76740318D01*
X126558787Y-76740306D01*
X126473860Y-76497598D01*
X126470138Y-76431224D01*
X126469943Y-76431191D01*
X126469923Y-76431189D01*
X126469923Y-76431187D01*
X126469730Y-76431155D01*
X126470034Y-76429366D01*
X126470015Y-76429031D01*
X126470312Y-76427732D01*
X126500500Y-76159809D01*
X126500500Y-75890191D01*
X126470312Y-75622268D01*
X126410316Y-75359409D01*
X126321267Y-75104921D01*
X126204284Y-74862003D01*
X126060838Y-74633711D01*
X125892734Y-74422915D01*
X125702085Y-74232266D01*
X125491289Y-74064162D01*
X125333613Y-73965087D01*
X125262994Y-73920714D01*
X125020082Y-73803734D01*
X124765602Y-73714687D01*
X124765594Y-73714684D01*
X124546939Y-73664778D01*
X124502732Y-73654688D01*
X124502728Y-73654687D01*
X124502719Y-73654686D01*
X124234813Y-73624500D01*
X124234809Y-73624500D01*
X123965191Y-73624500D01*
X123965186Y-73624500D01*
X123697280Y-73654686D01*
X123697268Y-73654688D01*
X123434405Y-73714684D01*
X123434397Y-73714687D01*
X123179917Y-73803734D01*
X122937003Y-73920715D01*
X122927623Y-73926609D01*
X122860385Y-73945605D01*
X122793551Y-73925235D01*
X122784345Y-73918561D01*
X122766285Y-73904159D01*
X122537994Y-73760714D01*
X122295082Y-73643734D01*
X122040602Y-73554687D01*
X122040594Y-73554684D01*
X121843446Y-73509687D01*
X121777732Y-73494688D01*
X121777728Y-73494687D01*
X121777719Y-73494686D01*
X121509813Y-73464500D01*
X121509809Y-73464500D01*
X121240191Y-73464500D01*
X121240186Y-73464500D01*
X120972280Y-73494686D01*
X120972268Y-73494688D01*
X120709405Y-73554684D01*
X120709397Y-73554687D01*
X120454917Y-73643734D01*
X120212005Y-73760714D01*
X119983712Y-73904161D01*
X119772915Y-74072265D01*
X119582265Y-74262915D01*
X119414161Y-74473712D01*
X119270714Y-74702005D01*
X119153734Y-74944917D01*
X119064687Y-75199397D01*
X119064684Y-75199405D01*
X119004688Y-75462268D01*
X119004686Y-75462280D01*
X118974500Y-75730186D01*
X118974500Y-75999813D01*
X119004686Y-76267719D01*
X119004688Y-76267735D01*
X119051403Y-76472408D01*
X119051403Y-76527592D01*
X119004688Y-76732264D01*
X119004686Y-76732280D01*
X118974500Y-77000186D01*
X118974500Y-77269813D01*
X119004686Y-77537719D01*
X119004687Y-77537728D01*
X119004688Y-77537732D01*
X119012007Y-77569797D01*
X119064684Y-77800594D01*
X119064687Y-77800602D01*
X119153734Y-78055082D01*
X119270714Y-78297994D01*
X119270716Y-78297997D01*
X119414162Y-78526289D01*
X119582266Y-78737085D01*
X119772915Y-78927734D01*
X119983711Y-79095838D01*
X120212003Y-79239284D01*
X120454921Y-79356267D01*
X120592975Y-79404574D01*
X120709397Y-79445312D01*
X120709409Y-79445316D01*
X120761920Y-79457301D01*
X120822898Y-79491409D01*
X120855757Y-79553070D01*
X120850062Y-79622707D01*
X120831276Y-79655504D01*
X120689160Y-79833713D01*
X120545714Y-80062005D01*
X120428734Y-80304917D01*
X120339687Y-80559397D01*
X120339684Y-80559405D01*
X120279688Y-80822268D01*
X120279686Y-80822280D01*
X120259048Y-81005446D01*
X120231981Y-81069860D01*
X120209696Y-81091159D01*
X120162702Y-81126012D01*
X120030047Y-81234880D01*
X119884230Y-81367041D01*
X119884227Y-81367043D01*
X119867043Y-81384227D01*
X119867041Y-81384230D01*
X119734881Y-81530046D01*
X119626011Y-81662705D01*
X119626004Y-81662713D01*
X119508762Y-81820796D01*
X119495247Y-81841022D01*
X119394088Y-82009797D01*
X119394080Y-82009812D01*
X119323651Y-82141577D01*
X119313175Y-82161176D01*
X119229065Y-82339003D01*
X119229055Y-82339027D01*
X119219764Y-82361453D01*
X119153433Y-82546828D01*
X119103613Y-82711065D01*
X119055797Y-82901955D01*
X119051052Y-82925804D01*
X119022177Y-83120475D01*
X119022172Y-83120512D01*
X119004753Y-83297372D01*
X118997512Y-83395536D01*
X118996915Y-83407693D01*
X118994500Y-83506105D01*
X118994500Y-88782200D01*
X118998049Y-88901457D01*
X118998928Y-88916217D01*
X119008192Y-89019724D01*
X119005579Y-89058360D01*
X119004690Y-89062253D01*
X119004686Y-89062277D01*
X118974500Y-89330186D01*
X118974500Y-89599813D01*
X119004686Y-89867726D01*
X119004687Y-89867729D01*
X119008071Y-89882555D01*
X119010864Y-89918992D01*
X118994500Y-90147799D01*
X118994500Y-95083909D01*
X118996869Y-95181352D01*
X118997455Y-95193394D01*
X119004567Y-95290713D01*
X119021677Y-95466036D01*
X119021679Y-95466049D01*
X119047069Y-95638807D01*
X119045278Y-95684429D01*
X119004688Y-95862264D01*
X119004686Y-95862280D01*
X118974500Y-96130186D01*
X118974500Y-96399813D01*
X119004686Y-96667719D01*
X119004688Y-96667731D01*
X119064684Y-96930594D01*
X119064687Y-96930602D01*
X119153734Y-97185082D01*
X119270714Y-97427994D01*
X119270716Y-97427997D01*
X119414162Y-97656289D01*
X119582266Y-97867085D01*
X119772915Y-98057734D01*
X119983711Y-98225838D01*
X120212003Y-98369284D01*
X120454921Y-98486267D01*
X120646049Y-98553145D01*
X120709397Y-98575312D01*
X120709405Y-98575315D01*
X120709408Y-98575315D01*
X120709409Y-98575316D01*
X120972268Y-98635312D01*
X121240187Y-98665499D01*
X121240188Y-98665500D01*
X121240191Y-98665500D01*
X121252735Y-98665500D01*
X121282578Y-98674262D01*
X121312932Y-98681092D01*
X121317403Y-98684488D01*
X121319774Y-98685185D01*
X121341034Y-98702441D01*
X121453062Y-98816070D01*
X121486111Y-98877628D01*
X121480633Y-98947282D01*
X121461710Y-98980437D01*
X121439156Y-99008718D01*
X121295714Y-99237005D01*
X121178734Y-99479917D01*
X121089687Y-99734397D01*
X121089684Y-99734405D01*
X121029688Y-99997268D01*
X121029686Y-99997280D01*
X120999500Y-100265186D01*
X120999500Y-100534813D01*
X121029686Y-100802719D01*
X121029688Y-100802731D01*
X121089684Y-101065594D01*
X121089687Y-101065602D01*
X121178734Y-101320082D01*
X121295714Y-101562994D01*
X121295716Y-101562997D01*
X121439162Y-101791289D01*
X121564573Y-101948549D01*
X121606893Y-102001618D01*
X121607266Y-102002085D01*
X121797915Y-102192734D01*
X122008711Y-102360838D01*
X122237003Y-102504284D01*
X122479921Y-102621267D01*
X122671049Y-102688145D01*
X122734397Y-102710312D01*
X122734405Y-102710315D01*
X122734408Y-102710315D01*
X122734409Y-102710316D01*
X122997268Y-102770312D01*
X123265187Y-102800499D01*
X123265188Y-102800500D01*
X123265191Y-102800500D01*
X123534812Y-102800500D01*
X123534812Y-102800499D01*
X123802732Y-102770312D01*
X124065591Y-102710316D01*
X124320079Y-102621267D01*
X124562997Y-102504284D01*
X124791289Y-102360838D01*
X124791693Y-102360515D01*
X124791812Y-102360466D01*
X124794122Y-102358828D01*
X124794504Y-102359367D01*
X124856374Y-102334096D01*
X124925071Y-102346839D01*
X124957323Y-102370392D01*
X125129632Y-102545163D01*
X126272949Y-103704813D01*
X126344632Y-103773996D01*
X126353656Y-103782283D01*
X126428696Y-103847834D01*
X126460189Y-103873994D01*
X126566986Y-103962707D01*
X126726252Y-104082158D01*
X126746634Y-104095919D01*
X126746644Y-104095925D01*
X126746656Y-104095933D01*
X126839065Y-104151852D01*
X126917008Y-104199018D01*
X127069818Y-104281414D01*
X127069840Y-104281424D01*
X127069841Y-104281425D01*
X127249556Y-104367100D01*
X127272220Y-104376554D01*
X127272227Y-104376556D01*
X127272245Y-104376564D01*
X127459576Y-104444000D01*
X127625642Y-104494621D01*
X127818803Y-104543162D01*
X127826577Y-104544709D01*
X127842913Y-104547963D01*
X127889452Y-104554847D01*
X128039840Y-104577096D01*
X128218781Y-104594549D01*
X128318002Y-104601748D01*
X128330299Y-104602334D01*
X128429965Y-104604603D01*
X147172629Y-104565310D01*
X147239710Y-104584854D01*
X147277879Y-104623333D01*
X147289162Y-104641289D01*
X147457266Y-104852085D01*
X147647915Y-105042734D01*
X147858711Y-105210838D01*
X148087003Y-105354284D01*
X148087005Y-105354285D01*
X148120288Y-105370313D01*
X148329921Y-105471267D01*
X148521049Y-105538145D01*
X148584397Y-105560312D01*
X148584405Y-105560315D01*
X148584408Y-105560315D01*
X148584409Y-105560316D01*
X148847268Y-105620312D01*
X149115187Y-105650499D01*
X149115188Y-105650500D01*
X149115191Y-105650500D01*
X149384812Y-105650500D01*
X149384812Y-105650499D01*
X149578302Y-105628698D01*
X149652725Y-105620313D01*
X149652726Y-105620312D01*
X149652732Y-105620312D01*
X149701016Y-105609291D01*
X149756201Y-105609291D01*
X149859921Y-105632965D01*
X150127840Y-105663152D01*
X150127841Y-105663153D01*
X150127844Y-105663153D01*
X150397465Y-105663153D01*
X150397465Y-105663152D01*
X150665385Y-105632965D01*
X150928244Y-105572969D01*
X151182732Y-105483920D01*
X151425650Y-105366937D01*
X151653942Y-105223491D01*
X151864738Y-105055387D01*
X152055387Y-104864738D01*
X152223491Y-104653942D01*
X152249546Y-104612474D01*
X152301879Y-104566184D01*
X152354276Y-104554446D01*
X163590515Y-104530890D01*
X163657595Y-104550434D01*
X163687720Y-104577576D01*
X163701256Y-104594549D01*
X163707266Y-104602085D01*
X163897915Y-104792734D01*
X164108711Y-104960838D01*
X164337003Y-105104284D01*
X164579921Y-105221267D01*
X164771049Y-105288145D01*
X164834397Y-105310312D01*
X164834405Y-105310315D01*
X164834408Y-105310315D01*
X164834409Y-105310316D01*
X165097268Y-105370312D01*
X165365187Y-105400499D01*
X165365188Y-105400500D01*
X165365191Y-105400500D01*
X165634812Y-105400500D01*
X165634812Y-105400499D01*
X165828302Y-105378698D01*
X165902725Y-105370313D01*
X165902726Y-105370312D01*
X165902732Y-105370312D01*
X165951016Y-105359291D01*
X166006201Y-105359291D01*
X166109921Y-105382965D01*
X166377840Y-105413152D01*
X166377841Y-105413153D01*
X166377844Y-105413153D01*
X166647465Y-105413153D01*
X166647465Y-105413152D01*
X166915385Y-105382965D01*
X167178244Y-105322969D01*
X167432732Y-105233920D01*
X167675650Y-105116937D01*
X167903942Y-104973491D01*
X168114738Y-104805387D01*
X168305387Y-104614738D01*
X168343128Y-104567412D01*
X168400316Y-104527271D01*
X168439814Y-104520724D01*
X175701785Y-104505500D01*
X184720700Y-104505500D01*
X184720711Y-104505500D01*
X184747575Y-104505020D01*
X184749790Y-104505000D01*
X185250212Y-104505000D01*
X185252427Y-104505020D01*
X185279289Y-104505500D01*
X185279300Y-104505500D01*
X203993893Y-104505500D01*
X203993907Y-104505500D01*
X204092298Y-104503085D01*
X204104452Y-104502488D01*
X204202640Y-104495245D01*
X204379513Y-104477824D01*
X204574166Y-104448951D01*
X204598007Y-104444209D01*
X204788936Y-104396385D01*
X204814507Y-104388627D01*
X204884371Y-104388005D01*
X204943484Y-104425253D01*
X204973075Y-104488547D01*
X204974500Y-104507289D01*
X204974500Y-129850500D01*
X204954815Y-129917539D01*
X204902011Y-129963294D01*
X204850500Y-129974500D01*
X105149500Y-129974500D01*
X105082461Y-129954815D01*
X105036706Y-129902011D01*
X105025500Y-129850500D01*
X105025500Y-127482278D01*
X148559500Y-127482278D01*
X148559500Y-127702721D01*
X148593985Y-127920452D01*
X148662103Y-128130103D01*
X148662104Y-128130106D01*
X148709602Y-128223324D01*
X148757129Y-128316600D01*
X148762187Y-128326525D01*
X148891752Y-128504858D01*
X148891756Y-128504863D01*
X149047636Y-128660743D01*
X149047641Y-128660747D01*
X149203192Y-128773760D01*
X149225978Y-128790315D01*
X149354375Y-128855737D01*
X149422393Y-128890395D01*
X149422396Y-128890396D01*
X149527221Y-128924455D01*
X149632049Y-128958515D01*
X149849778Y-128993000D01*
X149849779Y-128993000D01*
X150070221Y-128993000D01*
X150070222Y-128993000D01*
X150287951Y-128958515D01*
X150497606Y-128890395D01*
X150694022Y-128790315D01*
X150872365Y-128660742D01*
X151028242Y-128504865D01*
X151038804Y-128490326D01*
X151129682Y-128365245D01*
X151185011Y-128322579D01*
X151254625Y-128316600D01*
X151316420Y-128349205D01*
X151330318Y-128365245D01*
X151431752Y-128504858D01*
X151431756Y-128504863D01*
X151587636Y-128660743D01*
X151587641Y-128660747D01*
X151743192Y-128773760D01*
X151765978Y-128790315D01*
X151894375Y-128855737D01*
X151962393Y-128890395D01*
X151962396Y-128890396D01*
X152067221Y-128924455D01*
X152172049Y-128958515D01*
X152389778Y-128993000D01*
X152389779Y-128993000D01*
X152610221Y-128993000D01*
X152610222Y-128993000D01*
X152827951Y-128958515D01*
X153037606Y-128890395D01*
X153234022Y-128790315D01*
X153412365Y-128660742D01*
X153568242Y-128504865D01*
X153578804Y-128490326D01*
X153669682Y-128365245D01*
X153725011Y-128322579D01*
X153794625Y-128316600D01*
X153856420Y-128349205D01*
X153870318Y-128365245D01*
X153971752Y-128504858D01*
X153971756Y-128504863D01*
X154127636Y-128660743D01*
X154127641Y-128660747D01*
X154283192Y-128773760D01*
X154305978Y-128790315D01*
X154434375Y-128855737D01*
X154502393Y-128890395D01*
X154502396Y-128890396D01*
X154607221Y-128924455D01*
X154712049Y-128958515D01*
X154929778Y-128993000D01*
X154929779Y-128993000D01*
X155150221Y-128993000D01*
X155150222Y-128993000D01*
X155367951Y-128958515D01*
X155577606Y-128890395D01*
X155774022Y-128790315D01*
X155952365Y-128660742D01*
X156108242Y-128504865D01*
X156237815Y-128326522D01*
X156264515Y-128274119D01*
X156312490Y-128223324D01*
X156380311Y-128206529D01*
X156446445Y-128229066D01*
X156485485Y-128274120D01*
X156512187Y-128326526D01*
X156641752Y-128504858D01*
X156641756Y-128504863D01*
X156797636Y-128660743D01*
X156797641Y-128660747D01*
X156953192Y-128773760D01*
X156975978Y-128790315D01*
X157104375Y-128855737D01*
X157172393Y-128890395D01*
X157172396Y-128890396D01*
X157277221Y-128924455D01*
X157382049Y-128958515D01*
X157599778Y-128993000D01*
X157599779Y-128993000D01*
X157820221Y-128993000D01*
X157820222Y-128993000D01*
X158037951Y-128958515D01*
X158247606Y-128890395D01*
X158444022Y-128790315D01*
X158622365Y-128660742D01*
X158778242Y-128504865D01*
X158788804Y-128490326D01*
X158879682Y-128365245D01*
X158935011Y-128322579D01*
X159004625Y-128316600D01*
X159066420Y-128349205D01*
X159080318Y-128365245D01*
X159181752Y-128504858D01*
X159181756Y-128504863D01*
X159337636Y-128660743D01*
X159337641Y-128660747D01*
X159493192Y-128773760D01*
X159515978Y-128790315D01*
X159644375Y-128855737D01*
X159712393Y-128890395D01*
X159712396Y-128890396D01*
X159817221Y-128924455D01*
X159922049Y-128958515D01*
X160139778Y-128993000D01*
X160139779Y-128993000D01*
X160360221Y-128993000D01*
X160360222Y-128993000D01*
X160577951Y-128958515D01*
X160787606Y-128890395D01*
X160984022Y-128790315D01*
X161162365Y-128660742D01*
X161318242Y-128504865D01*
X161328804Y-128490326D01*
X161419682Y-128365245D01*
X161475011Y-128322579D01*
X161544625Y-128316600D01*
X161606420Y-128349205D01*
X161620318Y-128365245D01*
X161721752Y-128504858D01*
X161721756Y-128504863D01*
X161877636Y-128660743D01*
X161877641Y-128660747D01*
X162033192Y-128773760D01*
X162055978Y-128790315D01*
X162184375Y-128855737D01*
X162252393Y-128890395D01*
X162252396Y-128890396D01*
X162357221Y-128924455D01*
X162462049Y-128958515D01*
X162679778Y-128993000D01*
X162679779Y-128993000D01*
X162900221Y-128993000D01*
X162900222Y-128993000D01*
X163117951Y-128958515D01*
X163327606Y-128890395D01*
X163524022Y-128790315D01*
X163702365Y-128660742D01*
X163858242Y-128504865D01*
X163987815Y-128326522D01*
X164014515Y-128274119D01*
X164062490Y-128223324D01*
X164130311Y-128206529D01*
X164196445Y-128229066D01*
X164235485Y-128274120D01*
X164262187Y-128326526D01*
X164391752Y-128504858D01*
X164391756Y-128504863D01*
X164547636Y-128660743D01*
X164547641Y-128660747D01*
X164703192Y-128773760D01*
X164725978Y-128790315D01*
X164854375Y-128855737D01*
X164922393Y-128890395D01*
X164922396Y-128890396D01*
X165027221Y-128924455D01*
X165132049Y-128958515D01*
X165349778Y-128993000D01*
X165349779Y-128993000D01*
X165570221Y-128993000D01*
X165570222Y-128993000D01*
X165787951Y-128958515D01*
X165997606Y-128890395D01*
X166194022Y-128790315D01*
X166372365Y-128660742D01*
X166528242Y-128504865D01*
X166538804Y-128490326D01*
X166629682Y-128365245D01*
X166685011Y-128322579D01*
X166754625Y-128316600D01*
X166816420Y-128349205D01*
X166830318Y-128365245D01*
X166931752Y-128504858D01*
X166931756Y-128504863D01*
X167087636Y-128660743D01*
X167087641Y-128660747D01*
X167243192Y-128773760D01*
X167265978Y-128790315D01*
X167394375Y-128855737D01*
X167462393Y-128890395D01*
X167462396Y-128890396D01*
X167567221Y-128924455D01*
X167672049Y-128958515D01*
X167889778Y-128993000D01*
X167889779Y-128993000D01*
X168110221Y-128993000D01*
X168110222Y-128993000D01*
X168327951Y-128958515D01*
X168537606Y-128890395D01*
X168734022Y-128790315D01*
X168912365Y-128660742D01*
X169068242Y-128504865D01*
X169078804Y-128490326D01*
X169169682Y-128365245D01*
X169225011Y-128322579D01*
X169294625Y-128316600D01*
X169356420Y-128349205D01*
X169370318Y-128365245D01*
X169471752Y-128504858D01*
X169471756Y-128504863D01*
X169627636Y-128660743D01*
X169627641Y-128660747D01*
X169783192Y-128773760D01*
X169805978Y-128790315D01*
X169934375Y-128855737D01*
X170002393Y-128890395D01*
X170002396Y-128890396D01*
X170107221Y-128924455D01*
X170212049Y-128958515D01*
X170429778Y-128993000D01*
X170429779Y-128993000D01*
X170650221Y-128993000D01*
X170650222Y-128993000D01*
X170867951Y-128958515D01*
X171077606Y-128890395D01*
X171274022Y-128790315D01*
X171452365Y-128660742D01*
X171608242Y-128504865D01*
X171737815Y-128326522D01*
X171764515Y-128274119D01*
X171812490Y-128223324D01*
X171880311Y-128206529D01*
X171946445Y-128229066D01*
X171985485Y-128274120D01*
X172012187Y-128326526D01*
X172141752Y-128504858D01*
X172141756Y-128504863D01*
X172297636Y-128660743D01*
X172297641Y-128660747D01*
X172453192Y-128773760D01*
X172475978Y-128790315D01*
X172604375Y-128855737D01*
X172672393Y-128890395D01*
X172672396Y-128890396D01*
X172777221Y-128924455D01*
X172882049Y-128958515D01*
X173099778Y-128993000D01*
X173099779Y-128993000D01*
X173320221Y-128993000D01*
X173320222Y-128993000D01*
X173537951Y-128958515D01*
X173747606Y-128890395D01*
X173944022Y-128790315D01*
X174122365Y-128660742D01*
X174278242Y-128504865D01*
X174288804Y-128490326D01*
X174379682Y-128365245D01*
X174435011Y-128322579D01*
X174504625Y-128316600D01*
X174566420Y-128349205D01*
X174580318Y-128365245D01*
X174681752Y-128504858D01*
X174681756Y-128504863D01*
X174837636Y-128660743D01*
X174837641Y-128660747D01*
X174993192Y-128773760D01*
X175015978Y-128790315D01*
X175144375Y-128855737D01*
X175212393Y-128890395D01*
X175212396Y-128890396D01*
X175317221Y-128924455D01*
X175422049Y-128958515D01*
X175639778Y-128993000D01*
X175639779Y-128993000D01*
X175860221Y-128993000D01*
X175860222Y-128993000D01*
X176077951Y-128958515D01*
X176287606Y-128890395D01*
X176484022Y-128790315D01*
X176662365Y-128660742D01*
X176818242Y-128504865D01*
X176828804Y-128490326D01*
X176919682Y-128365245D01*
X176975011Y-128322579D01*
X177044625Y-128316600D01*
X177106420Y-128349205D01*
X177120318Y-128365245D01*
X177221752Y-128504858D01*
X177221756Y-128504863D01*
X177377636Y-128660743D01*
X177377641Y-128660747D01*
X177533192Y-128773760D01*
X177555978Y-128790315D01*
X177684375Y-128855737D01*
X177752393Y-128890395D01*
X177752396Y-128890396D01*
X177857221Y-128924455D01*
X177962049Y-128958515D01*
X178179778Y-128993000D01*
X178179779Y-128993000D01*
X178400221Y-128993000D01*
X178400222Y-128993000D01*
X178617951Y-128958515D01*
X178827606Y-128890395D01*
X179024022Y-128790315D01*
X179202365Y-128660742D01*
X179358242Y-128504865D01*
X179487815Y-128326522D01*
X179587895Y-128130106D01*
X179656015Y-127920451D01*
X179690500Y-127702722D01*
X179690500Y-127482278D01*
X179656015Y-127264549D01*
X179587895Y-127054894D01*
X179587895Y-127054893D01*
X179514515Y-126910880D01*
X179487815Y-126858478D01*
X179459681Y-126819754D01*
X179358247Y-126680141D01*
X179358243Y-126680136D01*
X179202363Y-126524256D01*
X179202358Y-126524252D01*
X179024025Y-126394687D01*
X179024024Y-126394686D01*
X179024022Y-126394685D01*
X178961096Y-126362622D01*
X178827606Y-126294604D01*
X178827603Y-126294603D01*
X178617952Y-126226485D01*
X178509086Y-126209242D01*
X178400222Y-126192000D01*
X178179778Y-126192000D01*
X178107201Y-126203495D01*
X177962047Y-126226485D01*
X177752396Y-126294603D01*
X177752393Y-126294604D01*
X177555974Y-126394687D01*
X177377641Y-126524252D01*
X177377636Y-126524256D01*
X177221756Y-126680136D01*
X177221752Y-126680141D01*
X177120318Y-126819754D01*
X177064988Y-126862420D01*
X176995375Y-126868399D01*
X176933580Y-126835793D01*
X176919682Y-126819754D01*
X176818247Y-126680141D01*
X176818243Y-126680136D01*
X176662363Y-126524256D01*
X176662358Y-126524252D01*
X176484025Y-126394687D01*
X176484024Y-126394686D01*
X176484022Y-126394685D01*
X176421096Y-126362622D01*
X176287606Y-126294604D01*
X176287603Y-126294603D01*
X176077952Y-126226485D01*
X175969086Y-126209242D01*
X175860222Y-126192000D01*
X175639778Y-126192000D01*
X175567201Y-126203495D01*
X175422047Y-126226485D01*
X175212396Y-126294603D01*
X175212393Y-126294604D01*
X175015974Y-126394687D01*
X174837641Y-126524252D01*
X174837636Y-126524256D01*
X174681756Y-126680136D01*
X174681752Y-126680141D01*
X174580318Y-126819754D01*
X174524988Y-126862420D01*
X174455375Y-126868399D01*
X174393580Y-126835793D01*
X174379682Y-126819754D01*
X174278247Y-126680141D01*
X174278243Y-126680136D01*
X174122363Y-126524256D01*
X174122358Y-126524252D01*
X173944025Y-126394687D01*
X173944024Y-126394686D01*
X173944022Y-126394685D01*
X173881096Y-126362622D01*
X173747606Y-126294604D01*
X173747603Y-126294603D01*
X173537952Y-126226485D01*
X173429086Y-126209242D01*
X173320222Y-126192000D01*
X173099778Y-126192000D01*
X173027201Y-126203495D01*
X172882047Y-126226485D01*
X172672396Y-126294603D01*
X172672393Y-126294604D01*
X172475974Y-126394687D01*
X172297641Y-126524252D01*
X172297636Y-126524256D01*
X172141756Y-126680136D01*
X172141752Y-126680141D01*
X172012185Y-126858476D01*
X171985484Y-126910880D01*
X171937510Y-126961675D01*
X171869689Y-126978470D01*
X171803554Y-126955932D01*
X171764516Y-126910880D01*
X171737814Y-126858476D01*
X171608247Y-126680141D01*
X171608243Y-126680136D01*
X171452363Y-126524256D01*
X171452358Y-126524252D01*
X171274025Y-126394687D01*
X171274024Y-126394686D01*
X171274022Y-126394685D01*
X171211096Y-126362622D01*
X171077606Y-126294604D01*
X171077603Y-126294603D01*
X170867952Y-126226485D01*
X170759086Y-126209242D01*
X170650222Y-126192000D01*
X170429778Y-126192000D01*
X170357201Y-126203495D01*
X170212047Y-126226485D01*
X170002396Y-126294603D01*
X170002393Y-126294604D01*
X169805974Y-126394687D01*
X169627641Y-126524252D01*
X169627636Y-126524256D01*
X169471756Y-126680136D01*
X169471752Y-126680141D01*
X169370318Y-126819754D01*
X169314988Y-126862420D01*
X169245375Y-126868399D01*
X169183580Y-126835793D01*
X169169682Y-126819754D01*
X169068247Y-126680141D01*
X169068243Y-126680136D01*
X168912363Y-126524256D01*
X168912358Y-126524252D01*
X168734025Y-126394687D01*
X168734024Y-126394686D01*
X168734022Y-126394685D01*
X168671096Y-126362622D01*
X168537606Y-126294604D01*
X168537603Y-126294603D01*
X168327952Y-126226485D01*
X168219086Y-126209242D01*
X168110222Y-126192000D01*
X167889778Y-126192000D01*
X167817201Y-126203495D01*
X167672047Y-126226485D01*
X167462396Y-126294603D01*
X167462393Y-126294604D01*
X167265974Y-126394687D01*
X167087641Y-126524252D01*
X167087636Y-126524256D01*
X166931756Y-126680136D01*
X166931752Y-126680141D01*
X166830318Y-126819754D01*
X166774988Y-126862420D01*
X166705375Y-126868399D01*
X166643580Y-126835793D01*
X166629682Y-126819754D01*
X166528247Y-126680141D01*
X166528243Y-126680136D01*
X166372363Y-126524256D01*
X166372358Y-126524252D01*
X166194025Y-126394687D01*
X166194024Y-126394686D01*
X166194022Y-126394685D01*
X166131096Y-126362622D01*
X165997606Y-126294604D01*
X165997603Y-126294603D01*
X165787952Y-126226485D01*
X165679086Y-126209242D01*
X165570222Y-126192000D01*
X165349778Y-126192000D01*
X165277201Y-126203495D01*
X165132047Y-126226485D01*
X164922396Y-126294603D01*
X164922393Y-126294604D01*
X164725974Y-126394687D01*
X164547641Y-126524252D01*
X164547636Y-126524256D01*
X164391756Y-126680136D01*
X164391752Y-126680141D01*
X164262185Y-126858476D01*
X164235484Y-126910880D01*
X164187510Y-126961675D01*
X164119689Y-126978470D01*
X164053554Y-126955932D01*
X164014516Y-126910880D01*
X163987814Y-126858476D01*
X163858247Y-126680141D01*
X163858243Y-126680136D01*
X163702363Y-126524256D01*
X163702358Y-126524252D01*
X163524025Y-126394687D01*
X163524024Y-126394686D01*
X163524022Y-126394685D01*
X163461096Y-126362622D01*
X163327606Y-126294604D01*
X163327603Y-126294603D01*
X163117952Y-126226485D01*
X163009086Y-126209242D01*
X162900222Y-126192000D01*
X162679778Y-126192000D01*
X162607201Y-126203495D01*
X162462047Y-126226485D01*
X162252396Y-126294603D01*
X162252393Y-126294604D01*
X162055974Y-126394687D01*
X161877641Y-126524252D01*
X161877636Y-126524256D01*
X161721756Y-126680136D01*
X161721752Y-126680141D01*
X161620318Y-126819754D01*
X161564988Y-126862420D01*
X161495375Y-126868399D01*
X161433580Y-126835793D01*
X161419682Y-126819754D01*
X161318247Y-126680141D01*
X161318243Y-126680136D01*
X161162363Y-126524256D01*
X161162358Y-126524252D01*
X160984025Y-126394687D01*
X160984024Y-126394686D01*
X160984022Y-126394685D01*
X160921096Y-126362622D01*
X160787606Y-126294604D01*
X160787603Y-126294603D01*
X160577952Y-126226485D01*
X160469086Y-126209242D01*
X160360222Y-126192000D01*
X160139778Y-126192000D01*
X160067201Y-126203495D01*
X159922047Y-126226485D01*
X159712396Y-126294603D01*
X159712393Y-126294604D01*
X159515974Y-126394687D01*
X159337641Y-126524252D01*
X159337636Y-126524256D01*
X159181756Y-126680136D01*
X159181752Y-126680141D01*
X159080318Y-126819754D01*
X159024988Y-126862420D01*
X158955375Y-126868399D01*
X158893580Y-126835793D01*
X158879682Y-126819754D01*
X158778247Y-126680141D01*
X158778243Y-126680136D01*
X158622363Y-126524256D01*
X158622358Y-126524252D01*
X158444025Y-126394687D01*
X158444024Y-126394686D01*
X158444022Y-126394685D01*
X158381096Y-126362622D01*
X158247606Y-126294604D01*
X158247603Y-126294603D01*
X158037952Y-126226485D01*
X157929086Y-126209242D01*
X157820222Y-126192000D01*
X157599778Y-126192000D01*
X157527201Y-126203495D01*
X157382047Y-126226485D01*
X157172396Y-126294603D01*
X157172393Y-126294604D01*
X156975974Y-126394687D01*
X156797641Y-126524252D01*
X156797636Y-126524256D01*
X156641756Y-126680136D01*
X156641752Y-126680141D01*
X156512185Y-126858476D01*
X156485484Y-126910880D01*
X156437510Y-126961675D01*
X156369689Y-126978470D01*
X156303554Y-126955932D01*
X156264516Y-126910880D01*
X156237814Y-126858476D01*
X156108247Y-126680141D01*
X156108243Y-126680136D01*
X155952363Y-126524256D01*
X155952358Y-126524252D01*
X155774025Y-126394687D01*
X155774024Y-126394686D01*
X155774022Y-126394685D01*
X155711096Y-126362622D01*
X155577606Y-126294604D01*
X155577603Y-126294603D01*
X155367952Y-126226485D01*
X155259086Y-126209242D01*
X155150222Y-126192000D01*
X154929778Y-126192000D01*
X154857201Y-126203495D01*
X154712047Y-126226485D01*
X154502396Y-126294603D01*
X154502393Y-126294604D01*
X154305974Y-126394687D01*
X154127641Y-126524252D01*
X154127636Y-126524256D01*
X153971756Y-126680136D01*
X153971752Y-126680141D01*
X153870318Y-126819754D01*
X153814988Y-126862420D01*
X153745375Y-126868399D01*
X153683580Y-126835793D01*
X153669682Y-126819754D01*
X153568247Y-126680141D01*
X153568243Y-126680136D01*
X153412363Y-126524256D01*
X153412358Y-126524252D01*
X153234025Y-126394687D01*
X153234024Y-126394686D01*
X153234022Y-126394685D01*
X153171096Y-126362622D01*
X153037606Y-126294604D01*
X153037603Y-126294603D01*
X152827952Y-126226485D01*
X152719086Y-126209242D01*
X152610222Y-126192000D01*
X152389778Y-126192000D01*
X152317201Y-126203495D01*
X152172047Y-126226485D01*
X151962396Y-126294603D01*
X151962393Y-126294604D01*
X151765974Y-126394687D01*
X151587641Y-126524252D01*
X151587636Y-126524256D01*
X151431756Y-126680136D01*
X151431752Y-126680141D01*
X151330318Y-126819754D01*
X151274988Y-126862420D01*
X151205375Y-126868399D01*
X151143580Y-126835793D01*
X151129682Y-126819754D01*
X151028247Y-126680141D01*
X151028243Y-126680136D01*
X150872363Y-126524256D01*
X150872358Y-126524252D01*
X150694025Y-126394687D01*
X150694024Y-126394686D01*
X150694022Y-126394685D01*
X150631096Y-126362622D01*
X150497606Y-126294604D01*
X150497603Y-126294603D01*
X150287952Y-126226485D01*
X150179086Y-126209242D01*
X150070222Y-126192000D01*
X149849778Y-126192000D01*
X149777201Y-126203495D01*
X149632047Y-126226485D01*
X149422396Y-126294603D01*
X149422393Y-126294604D01*
X149225974Y-126394687D01*
X149047641Y-126524252D01*
X149047636Y-126524256D01*
X148891756Y-126680136D01*
X148891752Y-126680141D01*
X148762187Y-126858474D01*
X148662104Y-127054893D01*
X148662103Y-127054896D01*
X148593985Y-127264547D01*
X148559500Y-127482278D01*
X105025500Y-127482278D01*
X105025500Y-118288978D01*
X136174500Y-118288978D01*
X136174500Y-119961020D01*
X136184876Y-120138233D01*
X136239950Y-120434469D01*
X136239952Y-120434479D01*
X136334013Y-120720708D01*
X136334018Y-120720720D01*
X136465393Y-120991866D01*
X136465396Y-120991871D01*
X136631743Y-121243093D01*
X136830093Y-121469906D01*
X137056906Y-121668256D01*
X137308128Y-121834603D01*
X137308133Y-121834606D01*
X137439971Y-121898484D01*
X137579284Y-121965984D01*
X137673225Y-121996855D01*
X137865520Y-122060047D01*
X137865524Y-122060047D01*
X137865531Y-122060050D01*
X138161762Y-122115123D01*
X138338979Y-122125500D01*
X139711020Y-122125499D01*
X139888238Y-122115123D01*
X140184469Y-122060050D01*
X140184476Y-122060047D01*
X140184479Y-122060047D01*
X140470710Y-121965986D01*
X140470710Y-121965985D01*
X140470716Y-121965984D01*
X140472175Y-121965276D01*
X140472668Y-121965194D01*
X140474561Y-121964429D01*
X140474731Y-121964849D01*
X140541087Y-121953756D01*
X140567200Y-121959822D01*
X140734637Y-122018410D01*
X141046771Y-122089653D01*
X141364915Y-122125499D01*
X141364916Y-122125500D01*
X141364919Y-122125500D01*
X141685084Y-122125500D01*
X141685084Y-122125499D01*
X142003229Y-122089653D01*
X142315363Y-122018410D01*
X142617558Y-121912668D01*
X142906013Y-121773755D01*
X143177101Y-121603419D01*
X143427413Y-121403802D01*
X143653802Y-121177413D01*
X143853419Y-120927101D01*
X144023755Y-120656013D01*
X144162668Y-120367558D01*
X144268410Y-120065363D01*
X144339653Y-119753229D01*
X144375500Y-119435081D01*
X144375500Y-118814919D01*
X144339653Y-118496771D01*
X144268410Y-118184637D01*
X144162668Y-117882442D01*
X144023755Y-117593987D01*
X143853419Y-117322899D01*
X143653802Y-117072587D01*
X143427413Y-116846198D01*
X143177101Y-116646581D01*
X142906013Y-116476245D01*
X142906010Y-116476243D01*
X142617559Y-116337332D01*
X142315364Y-116231590D01*
X142315362Y-116231589D01*
X142074471Y-116176607D01*
X142003229Y-116160347D01*
X142003225Y-116160346D01*
X142003216Y-116160345D01*
X141685085Y-116124500D01*
X141685081Y-116124500D01*
X141364919Y-116124500D01*
X141364914Y-116124500D01*
X141046783Y-116160345D01*
X141046771Y-116160347D01*
X140734638Y-116231589D01*
X140734630Y-116231591D01*
X140567202Y-116290176D01*
X140497424Y-116293737D01*
X140472191Y-116284730D01*
X140470726Y-116284020D01*
X140470718Y-116284017D01*
X140470716Y-116284016D01*
X140446682Y-116276118D01*
X140184479Y-116189952D01*
X140184469Y-116189950D01*
X139888233Y-116134876D01*
X139711021Y-116124500D01*
X138338979Y-116124500D01*
X138161766Y-116134876D01*
X137865530Y-116189950D01*
X137865520Y-116189952D01*
X137579291Y-116284013D01*
X137579279Y-116284018D01*
X137308133Y-116415393D01*
X137308128Y-116415396D01*
X137056906Y-116581743D01*
X136830093Y-116780093D01*
X136631743Y-117006906D01*
X136465396Y-117258128D01*
X136465393Y-117258133D01*
X136334018Y-117529279D01*
X136334013Y-117529291D01*
X136239952Y-117815520D01*
X136239950Y-117815530D01*
X136184876Y-118111766D01*
X136174500Y-118288978D01*
X105025500Y-118288978D01*
X105025500Y-108057393D01*
X107504500Y-108057393D01*
X107504500Y-108302606D01*
X107529392Y-108491676D01*
X107536505Y-108545699D01*
X107568236Y-108664120D01*
X107599967Y-108782544D01*
X107693797Y-109009069D01*
X107693800Y-109009076D01*
X107816399Y-109221424D01*
X107816402Y-109221428D01*
X107816406Y-109221434D01*
X107933869Y-109374513D01*
X107959064Y-109439682D01*
X107945026Y-109508127D01*
X107933869Y-109525487D01*
X107816406Y-109678565D01*
X107816395Y-109678582D01*
X107693801Y-109890921D01*
X107693797Y-109890930D01*
X107599967Y-110117455D01*
X107536505Y-110354302D01*
X107504500Y-110597393D01*
X107504500Y-110842606D01*
X107529392Y-111031676D01*
X107536505Y-111085699D01*
X107568236Y-111204120D01*
X107599967Y-111322544D01*
X107693797Y-111549069D01*
X107693800Y-111549076D01*
X107816399Y-111761424D01*
X107816402Y-111761428D01*
X107816406Y-111761434D01*
X107933869Y-111914513D01*
X107959064Y-111979682D01*
X107945026Y-112048127D01*
X107933869Y-112065487D01*
X107816406Y-112218565D01*
X107816395Y-112218582D01*
X107693801Y-112430921D01*
X107693797Y-112430930D01*
X107599967Y-112657455D01*
X107536505Y-112894302D01*
X107504500Y-113137393D01*
X107504500Y-113382606D01*
X107529392Y-113571676D01*
X107536505Y-113625699D01*
X107568236Y-113744120D01*
X107599967Y-113862544D01*
X107693797Y-114089069D01*
X107693800Y-114089076D01*
X107816399Y-114301424D01*
X107816402Y-114301428D01*
X107816406Y-114301434D01*
X107965667Y-114495952D01*
X107965675Y-114495961D01*
X108100482Y-114630768D01*
X108133967Y-114692091D01*
X108128983Y-114761783D01*
X108118340Y-114783545D01*
X108070646Y-114860871D01*
X108070641Y-114860880D01*
X108015494Y-115027302D01*
X108015493Y-115027309D01*
X108005000Y-115130013D01*
X108005000Y-115550000D01*
X109057291Y-115550000D01*
X109045548Y-115570339D01*
X109005000Y-115721667D01*
X109005000Y-115878333D01*
X109045548Y-116029661D01*
X109057291Y-116050000D01*
X108005001Y-116050000D01*
X108005001Y-116469986D01*
X108015494Y-116572697D01*
X108070641Y-116739119D01*
X108070643Y-116739124D01*
X108162684Y-116888345D01*
X108286654Y-117012315D01*
X108435875Y-117104356D01*
X108435880Y-117104358D01*
X108602302Y-117159505D01*
X108602309Y-117159506D01*
X108705019Y-117169999D01*
X109349999Y-117169999D01*
X109350000Y-117169998D01*
X109350000Y-116342709D01*
X109370339Y-116354452D01*
X109521667Y-116395000D01*
X109678333Y-116395000D01*
X109829661Y-116354452D01*
X109850000Y-116342709D01*
X109850000Y-117169999D01*
X110494972Y-117169999D01*
X110494986Y-117169998D01*
X110597697Y-117159505D01*
X110764119Y-117104358D01*
X110764124Y-117104356D01*
X110913345Y-117012315D01*
X111037315Y-116888345D01*
X111129356Y-116739124D01*
X111129358Y-116739119D01*
X111184505Y-116572697D01*
X111184506Y-116572690D01*
X111194999Y-116469986D01*
X111195000Y-116469973D01*
X111195000Y-116050000D01*
X110142709Y-116050000D01*
X110154452Y-116029661D01*
X110195000Y-115878333D01*
X110195000Y-115721667D01*
X110154452Y-115570339D01*
X110142709Y-115550000D01*
X111194999Y-115550000D01*
X111194999Y-115130028D01*
X111194998Y-115130013D01*
X111184505Y-115027302D01*
X111129358Y-114860880D01*
X111129356Y-114860875D01*
X111081659Y-114783546D01*
X111063219Y-114716153D01*
X111084142Y-114649490D01*
X111099512Y-114630772D01*
X111234333Y-114495952D01*
X111383601Y-114301424D01*
X111506200Y-114089076D01*
X111600033Y-113862542D01*
X111663495Y-113625699D01*
X111695500Y-113382599D01*
X111695500Y-113137401D01*
X111663495Y-112894301D01*
X111600033Y-112657458D01*
X111506200Y-112430924D01*
X111383601Y-112218576D01*
X111266129Y-112065485D01*
X111240935Y-112000318D01*
X111254973Y-111931873D01*
X111266127Y-111914517D01*
X111383601Y-111761424D01*
X111506200Y-111549076D01*
X111600033Y-111322542D01*
X111663495Y-111085699D01*
X111695500Y-110842599D01*
X111695500Y-110597401D01*
X111663495Y-110354301D01*
X111600033Y-110117458D01*
X111506200Y-109890924D01*
X111383601Y-109678576D01*
X111266129Y-109525485D01*
X111240935Y-109460318D01*
X111254973Y-109391873D01*
X111266127Y-109374517D01*
X111383601Y-109221424D01*
X111506200Y-109009076D01*
X111600033Y-108782542D01*
X111663495Y-108545699D01*
X111695500Y-108302599D01*
X111695500Y-108057401D01*
X111663495Y-107814301D01*
X111600033Y-107577458D01*
X111506200Y-107350924D01*
X111383601Y-107138576D01*
X111234333Y-106944048D01*
X111234332Y-106944047D01*
X111234325Y-106944039D01*
X111060961Y-106770675D01*
X111060952Y-106770667D01*
X110866434Y-106621406D01*
X110866428Y-106621402D01*
X110866424Y-106621399D01*
X110654076Y-106498800D01*
X110654069Y-106498797D01*
X110427544Y-106404967D01*
X110309120Y-106373236D01*
X110190699Y-106341505D01*
X110136676Y-106334392D01*
X109947606Y-106309500D01*
X109947599Y-106309500D01*
X109252401Y-106309500D01*
X109252393Y-106309500D01*
X109036312Y-106337948D01*
X109009301Y-106341505D01*
X108950090Y-106357370D01*
X108772455Y-106404967D01*
X108545930Y-106498797D01*
X108545921Y-106498801D01*
X108333582Y-106621395D01*
X108333565Y-106621406D01*
X108139047Y-106770667D01*
X107965667Y-106944047D01*
X107816406Y-107138565D01*
X107816395Y-107138582D01*
X107693801Y-107350921D01*
X107693797Y-107350930D01*
X107599967Y-107577455D01*
X107536505Y-107814302D01*
X107504500Y-108057393D01*
X105025500Y-108057393D01*
X105025500Y-94884778D01*
X113749500Y-94884778D01*
X113749500Y-95105221D01*
X113783985Y-95322952D01*
X113852103Y-95532603D01*
X113852104Y-95532606D01*
X113916512Y-95659011D01*
X113929463Y-95684429D01*
X113952187Y-95729025D01*
X114081752Y-95907358D01*
X114081756Y-95907363D01*
X114237636Y-96063243D01*
X114237641Y-96063247D01*
X114329776Y-96130186D01*
X114415978Y-96192815D01*
X114544375Y-96258237D01*
X114612393Y-96292895D01*
X114612396Y-96292896D01*
X114717221Y-96326955D01*
X114822049Y-96361015D01*
X115039778Y-96395500D01*
X115039779Y-96395500D01*
X115260221Y-96395500D01*
X115260222Y-96395500D01*
X115477951Y-96361015D01*
X115687606Y-96292895D01*
X115884022Y-96192815D01*
X116062365Y-96063242D01*
X116218242Y-95907365D01*
X116347815Y-95729022D01*
X116447895Y-95532606D01*
X116516015Y-95322951D01*
X116550500Y-95105222D01*
X116550500Y-94884778D01*
X116516015Y-94667049D01*
X116447895Y-94457394D01*
X116447895Y-94457393D01*
X116413237Y-94389375D01*
X116347815Y-94260978D01*
X116331260Y-94238192D01*
X116218247Y-94082641D01*
X116218243Y-94082636D01*
X116062363Y-93926756D01*
X116062358Y-93926752D01*
X115884025Y-93797187D01*
X115884024Y-93797186D01*
X115884022Y-93797185D01*
X115821096Y-93765122D01*
X115687606Y-93697104D01*
X115687603Y-93697103D01*
X115477952Y-93628985D01*
X115369086Y-93611742D01*
X115260222Y-93594500D01*
X115039778Y-93594500D01*
X114967201Y-93605995D01*
X114822047Y-93628985D01*
X114612396Y-93697103D01*
X114612393Y-93697104D01*
X114415974Y-93797187D01*
X114237641Y-93926752D01*
X114237636Y-93926756D01*
X114081756Y-94082636D01*
X114081752Y-94082641D01*
X113952187Y-94260974D01*
X113852104Y-94457393D01*
X113852103Y-94457396D01*
X113783985Y-94667047D01*
X113749500Y-94884778D01*
X105025500Y-94884778D01*
X105025500Y-90714778D01*
X112749500Y-90714778D01*
X112749500Y-90935221D01*
X112783985Y-91152952D01*
X112852103Y-91362603D01*
X112852104Y-91362606D01*
X112952187Y-91559025D01*
X113081752Y-91737358D01*
X113081756Y-91737363D01*
X113237636Y-91893243D01*
X113237641Y-91893247D01*
X113393192Y-92006260D01*
X113415978Y-92022815D01*
X113544375Y-92088237D01*
X113612393Y-92122895D01*
X113612396Y-92122896D01*
X113717221Y-92156955D01*
X113822049Y-92191015D01*
X114039778Y-92225500D01*
X114039779Y-92225500D01*
X114260221Y-92225500D01*
X114260222Y-92225500D01*
X114477951Y-92191015D01*
X114687606Y-92122895D01*
X114884022Y-92022815D01*
X115062365Y-91893242D01*
X115218242Y-91737365D01*
X115347815Y-91559022D01*
X115447895Y-91362606D01*
X115516015Y-91152951D01*
X115550500Y-90935222D01*
X115550500Y-90714778D01*
X115516015Y-90497049D01*
X115461218Y-90328401D01*
X115459224Y-90258562D01*
X115461211Y-90251790D01*
X115525818Y-90052951D01*
X115560303Y-89835222D01*
X115560303Y-89614778D01*
X115547370Y-89533126D01*
X115556324Y-89463837D01*
X115601320Y-89410384D01*
X115613544Y-89403248D01*
X115634022Y-89392815D01*
X115634021Y-89392815D01*
X115634024Y-89392814D01*
X115812358Y-89263247D01*
X115812356Y-89263247D01*
X115812365Y-89263242D01*
X115968242Y-89107365D01*
X116097815Y-88929022D01*
X116197895Y-88732606D01*
X116266015Y-88522951D01*
X116300500Y-88305222D01*
X116300500Y-88084778D01*
X116266015Y-87867049D01*
X116207633Y-87687365D01*
X116197896Y-87657396D01*
X116197895Y-87657393D01*
X116122296Y-87509025D01*
X116097815Y-87460978D01*
X116081260Y-87438192D01*
X115968247Y-87282641D01*
X115968243Y-87282636D01*
X115812363Y-87126756D01*
X115812358Y-87126752D01*
X115634025Y-86997187D01*
X115634024Y-86997186D01*
X115634022Y-86997185D01*
X115571096Y-86965122D01*
X115437606Y-86897104D01*
X115437603Y-86897103D01*
X115227952Y-86828985D01*
X115119086Y-86811742D01*
X115010222Y-86794500D01*
X114789778Y-86794500D01*
X114717201Y-86805995D01*
X114572047Y-86828985D01*
X114362396Y-86897103D01*
X114362393Y-86897104D01*
X114165974Y-86997187D01*
X113987641Y-87126752D01*
X113987636Y-87126756D01*
X113831756Y-87282636D01*
X113831752Y-87282641D01*
X113702187Y-87460974D01*
X113602104Y-87657393D01*
X113602103Y-87657396D01*
X113533985Y-87867047D01*
X113499500Y-88084778D01*
X113499500Y-88305227D01*
X113512431Y-88386870D01*
X113503476Y-88456163D01*
X113458480Y-88509615D01*
X113446255Y-88516752D01*
X113425781Y-88527184D01*
X113425777Y-88527186D01*
X113247444Y-88656752D01*
X113247439Y-88656756D01*
X113091559Y-88812636D01*
X113091555Y-88812641D01*
X112961990Y-88990974D01*
X112861907Y-89187393D01*
X112861906Y-89187396D01*
X112793788Y-89397047D01*
X112759303Y-89614778D01*
X112759303Y-89835221D01*
X112793788Y-90052952D01*
X112848583Y-90221596D01*
X112850578Y-90291438D01*
X112848583Y-90298231D01*
X112783985Y-90497045D01*
X112749500Y-90714778D01*
X105025500Y-90714778D01*
X105025500Y-81500904D01*
X105949500Y-81500904D01*
X105949500Y-82049095D01*
X105955918Y-82141561D01*
X105955920Y-82141577D01*
X106006854Y-82358133D01*
X106006857Y-82358143D01*
X106037979Y-82428628D01*
X106047050Y-82497906D01*
X106042475Y-82517030D01*
X105983985Y-82697045D01*
X105949500Y-82914778D01*
X105949500Y-83135221D01*
X105983985Y-83352952D01*
X106052104Y-83562605D01*
X106052104Y-83562606D01*
X106067951Y-83593708D01*
X106080846Y-83662377D01*
X106067951Y-83706292D01*
X106052104Y-83737393D01*
X106052104Y-83737394D01*
X105983985Y-83947047D01*
X105949500Y-84164778D01*
X105949500Y-84385221D01*
X105983985Y-84602952D01*
X106052104Y-84812605D01*
X106052104Y-84812606D01*
X106067951Y-84843708D01*
X106080846Y-84912377D01*
X106067951Y-84956292D01*
X106052104Y-84987393D01*
X106052104Y-84987394D01*
X105983985Y-85197047D01*
X105949500Y-85414778D01*
X105949500Y-85635221D01*
X105983985Y-85852952D01*
X106052104Y-86062605D01*
X106052104Y-86062606D01*
X106067951Y-86093708D01*
X106080846Y-86162377D01*
X106067951Y-86206292D01*
X106052104Y-86237393D01*
X106052104Y-86237394D01*
X105983985Y-86447047D01*
X105949500Y-86664778D01*
X105949500Y-86885221D01*
X105983985Y-87102952D01*
X106052103Y-87312603D01*
X106052104Y-87312606D01*
X106152187Y-87509025D01*
X106281752Y-87687358D01*
X106281756Y-87687363D01*
X106437636Y-87843243D01*
X106437641Y-87843247D01*
X106615978Y-87972815D01*
X106615979Y-87972816D01*
X106748845Y-88040516D01*
X106799641Y-88088490D01*
X106816436Y-88156311D01*
X106793898Y-88222446D01*
X106739183Y-88265897D01*
X106692550Y-88275000D01*
X106482096Y-88275000D01*
X106484584Y-88287516D01*
X106484587Y-88287523D01*
X106552428Y-88451306D01*
X106552433Y-88451316D01*
X106650923Y-88598716D01*
X106650926Y-88598720D01*
X106776279Y-88724073D01*
X106776283Y-88724076D01*
X106923683Y-88822566D01*
X106923692Y-88822571D01*
X107087479Y-88890413D01*
X107087487Y-88890415D01*
X107261353Y-88924999D01*
X107261357Y-88925000D01*
X107350000Y-88925000D01*
X107350000Y-88299500D01*
X107369685Y-88232461D01*
X107414807Y-88193361D01*
X107458386Y-88236940D01*
X107550272Y-88275000D01*
X107649728Y-88275000D01*
X107741614Y-88236940D01*
X107785563Y-88192990D01*
X107793039Y-88195185D01*
X107838794Y-88247989D01*
X107850000Y-88299500D01*
X107850000Y-88925000D01*
X107938643Y-88925000D01*
X107938646Y-88924999D01*
X108112512Y-88890415D01*
X108112520Y-88890413D01*
X108276307Y-88822571D01*
X108276316Y-88822566D01*
X108423716Y-88724076D01*
X108423720Y-88724073D01*
X108549073Y-88598720D01*
X108549076Y-88598716D01*
X108647566Y-88451316D01*
X108647571Y-88451306D01*
X108715412Y-88287523D01*
X108715415Y-88287516D01*
X108717904Y-88275000D01*
X108507450Y-88275000D01*
X108440411Y-88255315D01*
X108394656Y-88202511D01*
X108384712Y-88133353D01*
X108413737Y-88069797D01*
X108451155Y-88040516D01*
X108584020Y-87972816D01*
X108584019Y-87972816D01*
X108584022Y-87972815D01*
X108762365Y-87843242D01*
X108918242Y-87687365D01*
X109047815Y-87509022D01*
X109147895Y-87312606D01*
X109216015Y-87102951D01*
X109250500Y-86885222D01*
X109250500Y-86664778D01*
X109216015Y-86447049D01*
X109147895Y-86237394D01*
X109147893Y-86237389D01*
X109132050Y-86206296D01*
X109119153Y-86137627D01*
X109132050Y-86093704D01*
X109147893Y-86062610D01*
X109147896Y-86062603D01*
X109150352Y-86055042D01*
X109216015Y-85852951D01*
X109250500Y-85635222D01*
X109250500Y-85414778D01*
X109216015Y-85197049D01*
X109147895Y-84987394D01*
X109147893Y-84987389D01*
X109132050Y-84956296D01*
X109119153Y-84887627D01*
X109132050Y-84843704D01*
X109147893Y-84812610D01*
X109147896Y-84812603D01*
X109150352Y-84805042D01*
X109216015Y-84602951D01*
X109250500Y-84385222D01*
X109250500Y-84164778D01*
X109216015Y-83947049D01*
X109151032Y-83747049D01*
X109147896Y-83737396D01*
X109147893Y-83737389D01*
X109132050Y-83706296D01*
X109119153Y-83637627D01*
X109132050Y-83593704D01*
X109147893Y-83562610D01*
X109147896Y-83562603D01*
X109166257Y-83506092D01*
X109216015Y-83352951D01*
X109250500Y-83135222D01*
X109250500Y-82914778D01*
X109216015Y-82697049D01*
X109189284Y-82614778D01*
X112649500Y-82614778D01*
X112649500Y-82835222D01*
X112663845Y-82925793D01*
X112683985Y-83052952D01*
X112752103Y-83262603D01*
X112752104Y-83262606D01*
X112793427Y-83343705D01*
X112806323Y-83412374D01*
X112793427Y-83456295D01*
X112752104Y-83537393D01*
X112752103Y-83537396D01*
X112683985Y-83747047D01*
X112649500Y-83964778D01*
X112649500Y-84185221D01*
X112683985Y-84402952D01*
X112752103Y-84612603D01*
X112752104Y-84612606D01*
X112852187Y-84809025D01*
X112981752Y-84987358D01*
X112981756Y-84987363D01*
X113137636Y-85143243D01*
X113137641Y-85143247D01*
X113211694Y-85197049D01*
X113315978Y-85272815D01*
X113444375Y-85338237D01*
X113512393Y-85372895D01*
X113512396Y-85372896D01*
X113617221Y-85406955D01*
X113722049Y-85441015D01*
X113939778Y-85475500D01*
X113939779Y-85475500D01*
X114160221Y-85475500D01*
X114160222Y-85475500D01*
X114377951Y-85441015D01*
X114587606Y-85372895D01*
X114784022Y-85272815D01*
X114962365Y-85143242D01*
X115118242Y-84987365D01*
X115247815Y-84809022D01*
X115347895Y-84612606D01*
X115416015Y-84402951D01*
X115450500Y-84185222D01*
X115450500Y-83964778D01*
X115416015Y-83747049D01*
X115347895Y-83537394D01*
X115306571Y-83456293D01*
X115293675Y-83387627D01*
X115306572Y-83343705D01*
X115347895Y-83262606D01*
X115416015Y-83052951D01*
X115450500Y-82835222D01*
X115450500Y-82762312D01*
X115470185Y-82695273D01*
X115518204Y-82651827D01*
X115634022Y-82592815D01*
X115812365Y-82463242D01*
X115968242Y-82307365D01*
X116097815Y-82129022D01*
X116197895Y-81932606D01*
X116266015Y-81722951D01*
X116300500Y-81505222D01*
X116300500Y-81284778D01*
X116266015Y-81067049D01*
X116197895Y-80857394D01*
X116197895Y-80857393D01*
X116163237Y-80789375D01*
X116097815Y-80660978D01*
X116057510Y-80605502D01*
X115968247Y-80482641D01*
X115968243Y-80482636D01*
X115812363Y-80326756D01*
X115812358Y-80326752D01*
X115634025Y-80197187D01*
X115634024Y-80197186D01*
X115634022Y-80197185D01*
X115571096Y-80165122D01*
X115437606Y-80097104D01*
X115437603Y-80097103D01*
X115227952Y-80028985D01*
X115119086Y-80011742D01*
X115010222Y-79994500D01*
X114789778Y-79994500D01*
X114717201Y-80005995D01*
X114572047Y-80028985D01*
X114362396Y-80097103D01*
X114362393Y-80097104D01*
X114165974Y-80197187D01*
X113987641Y-80326752D01*
X113987636Y-80326756D01*
X113831756Y-80482636D01*
X113831752Y-80482641D01*
X113702187Y-80660974D01*
X113602104Y-80857393D01*
X113602103Y-80857396D01*
X113533985Y-81067047D01*
X113499500Y-81284778D01*
X113499500Y-81357687D01*
X113479815Y-81424726D01*
X113431796Y-81468171D01*
X113315976Y-81527185D01*
X113137641Y-81656752D01*
X113137636Y-81656756D01*
X112981756Y-81812636D01*
X112981752Y-81812641D01*
X112852187Y-81990974D01*
X112752104Y-82187393D01*
X112752103Y-82187396D01*
X112683985Y-82397047D01*
X112652979Y-82592812D01*
X112649500Y-82614778D01*
X109189284Y-82614778D01*
X109157523Y-82517029D01*
X109155529Y-82447190D01*
X109162019Y-82428630D01*
X109193143Y-82358143D01*
X109205086Y-82307363D01*
X109244079Y-82141577D01*
X109244079Y-82141573D01*
X109244081Y-82141567D01*
X109250500Y-82049092D01*
X109250500Y-81500908D01*
X109244081Y-81408433D01*
X109244079Y-81408427D01*
X109244079Y-81408422D01*
X109193145Y-81191864D01*
X109193144Y-81191861D01*
X109193143Y-81191857D01*
X109103277Y-80988329D01*
X108977542Y-80804779D01*
X108977537Y-80804773D01*
X108820226Y-80647462D01*
X108820220Y-80647457D01*
X108636668Y-80521721D01*
X108433151Y-80431860D01*
X108433135Y-80431854D01*
X108216577Y-80380920D01*
X108216561Y-80380918D01*
X108124096Y-80374500D01*
X108124092Y-80374500D01*
X107075908Y-80374500D01*
X107075904Y-80374500D01*
X106983438Y-80380918D01*
X106983422Y-80380920D01*
X106766864Y-80431854D01*
X106766848Y-80431860D01*
X106563331Y-80521721D01*
X106379779Y-80647457D01*
X106379773Y-80647462D01*
X106222462Y-80804773D01*
X106222457Y-80804779D01*
X106096721Y-80988331D01*
X106006860Y-81191848D01*
X106006854Y-81191864D01*
X105955920Y-81408422D01*
X105955918Y-81408438D01*
X105949500Y-81500904D01*
X105025500Y-81500904D01*
X105025500Y-71000904D01*
X105949500Y-71000904D01*
X105949500Y-71549095D01*
X105955918Y-71641561D01*
X105955920Y-71641577D01*
X106006854Y-71858133D01*
X106006857Y-71858143D01*
X106037979Y-71928628D01*
X106047050Y-71997906D01*
X106042475Y-72017030D01*
X105983985Y-72197045D01*
X105949500Y-72414778D01*
X105949500Y-72635221D01*
X105983985Y-72852952D01*
X106052104Y-73062605D01*
X106052104Y-73062606D01*
X106067951Y-73093708D01*
X106080846Y-73162377D01*
X106067951Y-73206292D01*
X106052104Y-73237393D01*
X106052104Y-73237394D01*
X105983985Y-73447047D01*
X105957802Y-73612363D01*
X105949500Y-73664778D01*
X105949500Y-73885222D01*
X105956055Y-73926609D01*
X105983985Y-74102952D01*
X106052104Y-74312605D01*
X106052104Y-74312606D01*
X106067951Y-74343708D01*
X106080846Y-74412377D01*
X106067951Y-74456292D01*
X106052104Y-74487393D01*
X106052104Y-74487394D01*
X105983985Y-74697047D01*
X105949500Y-74914778D01*
X105949500Y-75135221D01*
X105983985Y-75352952D01*
X106052104Y-75562605D01*
X106052104Y-75562606D01*
X106067951Y-75593708D01*
X106080846Y-75662377D01*
X106067951Y-75706292D01*
X106052104Y-75737393D01*
X106052104Y-75737394D01*
X105983985Y-75947047D01*
X105975628Y-75999813D01*
X105949500Y-76164778D01*
X105949500Y-76385222D01*
X105956781Y-76431191D01*
X105983985Y-76602952D01*
X106052103Y-76812603D01*
X106052104Y-76812606D01*
X106075428Y-76858380D01*
X106148412Y-77001618D01*
X106152187Y-77009025D01*
X106281752Y-77187358D01*
X106281756Y-77187363D01*
X106437636Y-77343243D01*
X106437641Y-77343247D01*
X106615978Y-77472815D01*
X106615979Y-77472816D01*
X106748845Y-77540516D01*
X106799641Y-77588490D01*
X106816436Y-77656311D01*
X106793898Y-77722446D01*
X106739183Y-77765897D01*
X106692550Y-77775000D01*
X106482096Y-77775000D01*
X106484584Y-77787516D01*
X106484587Y-77787523D01*
X106552428Y-77951306D01*
X106552433Y-77951316D01*
X106650923Y-78098716D01*
X106650926Y-78098720D01*
X106776279Y-78224073D01*
X106776283Y-78224076D01*
X106923683Y-78322566D01*
X106923692Y-78322571D01*
X107087479Y-78390413D01*
X107087487Y-78390415D01*
X107261353Y-78424999D01*
X107261357Y-78425000D01*
X107350000Y-78425000D01*
X107350000Y-77799500D01*
X107369685Y-77732461D01*
X107414807Y-77693361D01*
X107458386Y-77736940D01*
X107550272Y-77775000D01*
X107649728Y-77775000D01*
X107741614Y-77736940D01*
X107785563Y-77692990D01*
X107793039Y-77695185D01*
X107838794Y-77747989D01*
X107850000Y-77799500D01*
X107850000Y-78425000D01*
X107938643Y-78425000D01*
X107938646Y-78424999D01*
X108112512Y-78390415D01*
X108112520Y-78390413D01*
X108276307Y-78322571D01*
X108276316Y-78322566D01*
X108423716Y-78224076D01*
X108423720Y-78224073D01*
X108549073Y-78098720D01*
X108549076Y-78098716D01*
X108647566Y-77951316D01*
X108647571Y-77951306D01*
X108715412Y-77787523D01*
X108715415Y-77787516D01*
X108717904Y-77775000D01*
X108507450Y-77775000D01*
X108440411Y-77755315D01*
X108394656Y-77702511D01*
X108384712Y-77633353D01*
X108413737Y-77569797D01*
X108451155Y-77540516D01*
X108584020Y-77472816D01*
X108584019Y-77472816D01*
X108584022Y-77472815D01*
X108762365Y-77343242D01*
X108918242Y-77187365D01*
X109047815Y-77009022D01*
X109147895Y-76812606D01*
X109216015Y-76602951D01*
X109250500Y-76385222D01*
X109250500Y-76164778D01*
X109216015Y-75947049D01*
X109147895Y-75737394D01*
X109147893Y-75737389D01*
X109132050Y-75706296D01*
X109119153Y-75637627D01*
X109132050Y-75593704D01*
X109147893Y-75562610D01*
X109147896Y-75562603D01*
X109150352Y-75555042D01*
X109216015Y-75352951D01*
X109250500Y-75135222D01*
X109250500Y-74914778D01*
X109216015Y-74697049D01*
X109147895Y-74487394D01*
X109146562Y-74484778D01*
X113499500Y-74484778D01*
X113499500Y-74705221D01*
X113533985Y-74922952D01*
X113602103Y-75132603D01*
X113602104Y-75132606D01*
X113702187Y-75329025D01*
X113831752Y-75507358D01*
X113831756Y-75507363D01*
X113987636Y-75663243D01*
X113987641Y-75663247D01*
X114089697Y-75737394D01*
X114165978Y-75792815D01*
X114294375Y-75858237D01*
X114362393Y-75892895D01*
X114362396Y-75892896D01*
X114467221Y-75926955D01*
X114572049Y-75961015D01*
X114789778Y-75995500D01*
X114789779Y-75995500D01*
X115010221Y-75995500D01*
X115010222Y-75995500D01*
X115227951Y-75961015D01*
X115437606Y-75892895D01*
X115634022Y-75792815D01*
X115812365Y-75663242D01*
X115968242Y-75507365D01*
X116097815Y-75329022D01*
X116197895Y-75132606D01*
X116266015Y-74922951D01*
X116300500Y-74705222D01*
X116300500Y-74484778D01*
X116266015Y-74267049D01*
X116231955Y-74162221D01*
X116197896Y-74057396D01*
X116197895Y-74057393D01*
X116131256Y-73926609D01*
X116097815Y-73860978D01*
X116056224Y-73803733D01*
X115968247Y-73682641D01*
X115968243Y-73682636D01*
X115812363Y-73526756D01*
X115812358Y-73526752D01*
X115634025Y-73397187D01*
X115634024Y-73397186D01*
X115634022Y-73397185D01*
X115571096Y-73365122D01*
X115437606Y-73297104D01*
X115437603Y-73297103D01*
X115227952Y-73228985D01*
X115119086Y-73211742D01*
X115010222Y-73194500D01*
X114789778Y-73194500D01*
X114717201Y-73205995D01*
X114572047Y-73228985D01*
X114362396Y-73297103D01*
X114362393Y-73297104D01*
X114165974Y-73397187D01*
X113987641Y-73526752D01*
X113987636Y-73526756D01*
X113831756Y-73682636D01*
X113831752Y-73682641D01*
X113702187Y-73860974D01*
X113602104Y-74057393D01*
X113602103Y-74057396D01*
X113533985Y-74267047D01*
X113499500Y-74484778D01*
X109146562Y-74484778D01*
X109129902Y-74452082D01*
X109128080Y-74447710D01*
X109124762Y-74417496D01*
X109119153Y-74387627D01*
X109120849Y-74381849D01*
X109120455Y-74378258D01*
X109123988Y-74371159D01*
X109132050Y-74343704D01*
X109147893Y-74312610D01*
X109147896Y-74312603D01*
X109164040Y-74262915D01*
X109216015Y-74102951D01*
X109250500Y-73885222D01*
X109250500Y-73664778D01*
X109216015Y-73447049D01*
X109147895Y-73237394D01*
X109147893Y-73237389D01*
X109132050Y-73206296D01*
X109119153Y-73137627D01*
X109132050Y-73093704D01*
X109147893Y-73062610D01*
X109147896Y-73062603D01*
X109193818Y-72921267D01*
X109216015Y-72852951D01*
X109250500Y-72635222D01*
X109250500Y-72589778D01*
X110974500Y-72589778D01*
X110974500Y-72810221D01*
X111008985Y-73027952D01*
X111077103Y-73237603D01*
X111077104Y-73237606D01*
X111145122Y-73371096D01*
X111158416Y-73397187D01*
X111177187Y-73434025D01*
X111306752Y-73612358D01*
X111306756Y-73612363D01*
X111462636Y-73768243D01*
X111462641Y-73768247D01*
X111590270Y-73860974D01*
X111640978Y-73897815D01*
X111769375Y-73963237D01*
X111837393Y-73997895D01*
X111837396Y-73997896D01*
X111942221Y-74031955D01*
X112047049Y-74066015D01*
X112264778Y-74100500D01*
X112264779Y-74100500D01*
X112485221Y-74100500D01*
X112485222Y-74100500D01*
X112702951Y-74066015D01*
X112912606Y-73997895D01*
X113109022Y-73897815D01*
X113287365Y-73768242D01*
X113443242Y-73612365D01*
X113572815Y-73434022D01*
X113672895Y-73237606D01*
X113741015Y-73027951D01*
X113770266Y-72843267D01*
X113800194Y-72780135D01*
X113812225Y-72768361D01*
X113812354Y-72768249D01*
X113812365Y-72768242D01*
X113968242Y-72612365D01*
X114097815Y-72434022D01*
X114197895Y-72237606D01*
X114266015Y-72027951D01*
X114300500Y-71810222D01*
X114300500Y-71589778D01*
X114266015Y-71372049D01*
X114197895Y-71162394D01*
X114197895Y-71162393D01*
X114147136Y-71062775D01*
X114097815Y-70965978D01*
X114056010Y-70908438D01*
X113968247Y-70787641D01*
X113968243Y-70787636D01*
X113812363Y-70631756D01*
X113812358Y-70631752D01*
X113634025Y-70502187D01*
X113634024Y-70502186D01*
X113634022Y-70502185D01*
X113570481Y-70469809D01*
X113437606Y-70402104D01*
X113437603Y-70402103D01*
X113227952Y-70333985D01*
X113119086Y-70316742D01*
X113010222Y-70299500D01*
X112789778Y-70299500D01*
X112756486Y-70304773D01*
X112572047Y-70333985D01*
X112362396Y-70402103D01*
X112362393Y-70402104D01*
X112165974Y-70502187D01*
X111987641Y-70631752D01*
X111987636Y-70631756D01*
X111831756Y-70787636D01*
X111831752Y-70787641D01*
X111702187Y-70965974D01*
X111602104Y-71162393D01*
X111602103Y-71162396D01*
X111533985Y-71372047D01*
X111504734Y-71556731D01*
X111474805Y-71619866D01*
X111462800Y-71631617D01*
X111462635Y-71631757D01*
X111306756Y-71787636D01*
X111306752Y-71787641D01*
X111177187Y-71965974D01*
X111077104Y-72162393D01*
X111077103Y-72162396D01*
X111008985Y-72372047D01*
X110974500Y-72589778D01*
X109250500Y-72589778D01*
X109250500Y-72414778D01*
X109216015Y-72197049D01*
X109157523Y-72017029D01*
X109155529Y-71947190D01*
X109162019Y-71928630D01*
X109193143Y-71858143D01*
X109224155Y-71726287D01*
X109244079Y-71641577D01*
X109244079Y-71641573D01*
X109244081Y-71641567D01*
X109250500Y-71549092D01*
X109250500Y-71000908D01*
X109244081Y-70908433D01*
X109244079Y-70908427D01*
X109244079Y-70908422D01*
X109193145Y-70691864D01*
X109193144Y-70691861D01*
X109193143Y-70691857D01*
X109103277Y-70488329D01*
X108977542Y-70304779D01*
X108977537Y-70304773D01*
X108820226Y-70147462D01*
X108820220Y-70147457D01*
X108636668Y-70021721D01*
X108433151Y-69931860D01*
X108433135Y-69931854D01*
X108216577Y-69880920D01*
X108216561Y-69880918D01*
X108124096Y-69874500D01*
X108124092Y-69874500D01*
X107075908Y-69874500D01*
X107075904Y-69874500D01*
X106983438Y-69880918D01*
X106983422Y-69880920D01*
X106766864Y-69931854D01*
X106766848Y-69931860D01*
X106563331Y-70021721D01*
X106379779Y-70147457D01*
X106379773Y-70147462D01*
X106222462Y-70304773D01*
X106222457Y-70304779D01*
X106096721Y-70488331D01*
X106006860Y-70691848D01*
X106006854Y-70691864D01*
X105955920Y-70908422D01*
X105955918Y-70908438D01*
X105949500Y-71000904D01*
X105025500Y-71000904D01*
X105025500Y-60500904D01*
X105949500Y-60500904D01*
X105949500Y-61049095D01*
X105955918Y-61141561D01*
X105955920Y-61141577D01*
X106006854Y-61358133D01*
X106006857Y-61358143D01*
X106037979Y-61428628D01*
X106047050Y-61497906D01*
X106042475Y-61517030D01*
X105983985Y-61697045D01*
X105949500Y-61914778D01*
X105949500Y-62135221D01*
X105983985Y-62352952D01*
X106052104Y-62562605D01*
X106052104Y-62562606D01*
X106067951Y-62593708D01*
X106080846Y-62662377D01*
X106067951Y-62706292D01*
X106052104Y-62737393D01*
X106052104Y-62737394D01*
X105983985Y-62947047D01*
X105983985Y-62947049D01*
X105949500Y-63164778D01*
X105949500Y-63385222D01*
X105953308Y-63409263D01*
X105983985Y-63602952D01*
X106052104Y-63812605D01*
X106052104Y-63812606D01*
X106067951Y-63843708D01*
X106080846Y-63912377D01*
X106067951Y-63956292D01*
X106052104Y-63987393D01*
X106052104Y-63987394D01*
X105983985Y-64197047D01*
X105949500Y-64414778D01*
X105949500Y-64635221D01*
X105983985Y-64852952D01*
X106052104Y-65062605D01*
X106052104Y-65062606D01*
X106067951Y-65093708D01*
X106080846Y-65162377D01*
X106067951Y-65206292D01*
X106052104Y-65237393D01*
X106052104Y-65237394D01*
X105983985Y-65447047D01*
X105949500Y-65664778D01*
X105949500Y-65885221D01*
X105983985Y-66102952D01*
X106052103Y-66312603D01*
X106052104Y-66312606D01*
X106111404Y-66428985D01*
X106146112Y-66497104D01*
X106152187Y-66509025D01*
X106281752Y-66687358D01*
X106281756Y-66687363D01*
X106437636Y-66843243D01*
X106437641Y-66843247D01*
X106615978Y-66972815D01*
X106615979Y-66972816D01*
X106748845Y-67040516D01*
X106799641Y-67088490D01*
X106816436Y-67156311D01*
X106793898Y-67222446D01*
X106739183Y-67265897D01*
X106692550Y-67275000D01*
X106482096Y-67275000D01*
X106484584Y-67287516D01*
X106484587Y-67287523D01*
X106552428Y-67451306D01*
X106552433Y-67451316D01*
X106650923Y-67598716D01*
X106650926Y-67598720D01*
X106776279Y-67724073D01*
X106776283Y-67724076D01*
X106923683Y-67822566D01*
X106923692Y-67822571D01*
X107087479Y-67890413D01*
X107087487Y-67890415D01*
X107261353Y-67924999D01*
X107261357Y-67925000D01*
X107350000Y-67925000D01*
X107350000Y-67299500D01*
X107369685Y-67232461D01*
X107414807Y-67193361D01*
X107458386Y-67236940D01*
X107550272Y-67275000D01*
X107649728Y-67275000D01*
X107741614Y-67236940D01*
X107785563Y-67192990D01*
X107793039Y-67195185D01*
X107838794Y-67247989D01*
X107850000Y-67299500D01*
X107850000Y-67925000D01*
X107938643Y-67925000D01*
X107938646Y-67924999D01*
X108112512Y-67890415D01*
X108112520Y-67890413D01*
X108276307Y-67822571D01*
X108276316Y-67822566D01*
X108423716Y-67724076D01*
X108423720Y-67724073D01*
X108549073Y-67598720D01*
X108549076Y-67598716D01*
X108647566Y-67451316D01*
X108647571Y-67451306D01*
X108715412Y-67287523D01*
X108715415Y-67287516D01*
X108717904Y-67275000D01*
X108507450Y-67275000D01*
X108440411Y-67255315D01*
X108394656Y-67202511D01*
X108384712Y-67133353D01*
X108413737Y-67069797D01*
X108451155Y-67040516D01*
X108584020Y-66972816D01*
X108584019Y-66972816D01*
X108584022Y-66972815D01*
X108762365Y-66843242D01*
X108918242Y-66687365D01*
X109047815Y-66509022D01*
X109147895Y-66312606D01*
X109216015Y-66102951D01*
X109250500Y-65885222D01*
X109250500Y-65664778D01*
X109216015Y-65447049D01*
X109147895Y-65237394D01*
X109147893Y-65237389D01*
X109132050Y-65206296D01*
X109119153Y-65137627D01*
X109132050Y-65093704D01*
X109147893Y-65062610D01*
X109147896Y-65062603D01*
X109175400Y-64977952D01*
X109216015Y-64852951D01*
X109250500Y-64635222D01*
X109250500Y-64539778D01*
X111499500Y-64539778D01*
X111499500Y-64760221D01*
X111533985Y-64977952D01*
X111602104Y-65187605D01*
X111602104Y-65187606D01*
X111617951Y-65218708D01*
X111630846Y-65287377D01*
X111617951Y-65331292D01*
X111602104Y-65362393D01*
X111602104Y-65362394D01*
X111533985Y-65572047D01*
X111499500Y-65789778D01*
X111499500Y-66010221D01*
X111533985Y-66227952D01*
X111602103Y-66437603D01*
X111602104Y-66437606D01*
X111638495Y-66509025D01*
X111683416Y-66597187D01*
X111702187Y-66634025D01*
X111831752Y-66812358D01*
X111831756Y-66812363D01*
X111987636Y-66968243D01*
X111987641Y-66968247D01*
X112078292Y-67034108D01*
X112165978Y-67097815D01*
X112280782Y-67156311D01*
X112362393Y-67197895D01*
X112362396Y-67197896D01*
X112437955Y-67222446D01*
X112572049Y-67266015D01*
X112789778Y-67300500D01*
X112789779Y-67300500D01*
X113010221Y-67300500D01*
X113010222Y-67300500D01*
X113227951Y-67266015D01*
X113411685Y-67206316D01*
X113481524Y-67204322D01*
X113541357Y-67240402D01*
X113572185Y-67303103D01*
X113567932Y-67362565D01*
X113533985Y-67467045D01*
X113513131Y-67598716D01*
X113499500Y-67684778D01*
X113499500Y-67905222D01*
X113502633Y-67925000D01*
X113533985Y-68122952D01*
X113602103Y-68332603D01*
X113602104Y-68332606D01*
X113702187Y-68529025D01*
X113831752Y-68707358D01*
X113831756Y-68707363D01*
X113987636Y-68863243D01*
X113987641Y-68863247D01*
X114079776Y-68930186D01*
X114165978Y-68992815D01*
X114294375Y-69058237D01*
X114362393Y-69092895D01*
X114362396Y-69092896D01*
X114467221Y-69126955D01*
X114572049Y-69161015D01*
X114789778Y-69195500D01*
X114789779Y-69195500D01*
X115010221Y-69195500D01*
X115010222Y-69195500D01*
X115227951Y-69161015D01*
X115437606Y-69092895D01*
X115634022Y-68992815D01*
X115720224Y-68930186D01*
X118974500Y-68930186D01*
X118974500Y-69199813D01*
X119004686Y-69467719D01*
X119004688Y-69467735D01*
X119051403Y-69672408D01*
X119051403Y-69727592D01*
X119004688Y-69932264D01*
X119004686Y-69932280D01*
X118974500Y-70200186D01*
X118974500Y-70469813D01*
X119004686Y-70737719D01*
X119004688Y-70737731D01*
X119064684Y-71000594D01*
X119064687Y-71000602D01*
X119153734Y-71255082D01*
X119270714Y-71497994D01*
X119270716Y-71497997D01*
X119414162Y-71726289D01*
X119523183Y-71862997D01*
X119566115Y-71916833D01*
X119582266Y-71937085D01*
X119772915Y-72127734D01*
X119983711Y-72295838D01*
X120212003Y-72439284D01*
X120454921Y-72556267D01*
X120646049Y-72623145D01*
X120709397Y-72645312D01*
X120709405Y-72645315D01*
X120709408Y-72645315D01*
X120709409Y-72645316D01*
X120972268Y-72705312D01*
X121240187Y-72735499D01*
X121240188Y-72735500D01*
X121240191Y-72735500D01*
X121509812Y-72735500D01*
X121509812Y-72735499D01*
X121777732Y-72705312D01*
X122040591Y-72645316D01*
X122295079Y-72556267D01*
X122432192Y-72490235D01*
X122501133Y-72478884D01*
X122563307Y-72505009D01*
X122758711Y-72660838D01*
X122987003Y-72804284D01*
X123229921Y-72921267D01*
X123421049Y-72988145D01*
X123484397Y-73010312D01*
X123484405Y-73010315D01*
X123484408Y-73010315D01*
X123484409Y-73010316D01*
X123747268Y-73070312D01*
X124015187Y-73100499D01*
X124015188Y-73100500D01*
X124015191Y-73100500D01*
X124284812Y-73100500D01*
X124284812Y-73100499D01*
X124552732Y-73070312D01*
X124815591Y-73010316D01*
X125070079Y-72921267D01*
X125312997Y-72804284D01*
X125541289Y-72660838D01*
X125752085Y-72492734D01*
X125942734Y-72302085D01*
X126110838Y-72091289D01*
X126254284Y-71862997D01*
X126371267Y-71620079D01*
X126460316Y-71365591D01*
X126520312Y-71102732D01*
X126550500Y-70834809D01*
X126550500Y-70565191D01*
X126520312Y-70297268D01*
X126460316Y-70034409D01*
X126455877Y-70021723D01*
X126421987Y-69924869D01*
X126418137Y-69856324D01*
X126470312Y-69627732D01*
X126500500Y-69359809D01*
X126500500Y-69090191D01*
X126470312Y-68822268D01*
X126410316Y-68559409D01*
X126321267Y-68304921D01*
X126204284Y-68062003D01*
X126060838Y-67833711D01*
X125892734Y-67622915D01*
X125702085Y-67432266D01*
X125491289Y-67264162D01*
X125319646Y-67156311D01*
X125262994Y-67120714D01*
X125020082Y-67003734D01*
X124765602Y-66914687D01*
X124765594Y-66914684D01*
X124568446Y-66869687D01*
X124502732Y-66854688D01*
X124502728Y-66854687D01*
X124502719Y-66854686D01*
X124234813Y-66824500D01*
X124234809Y-66824500D01*
X123965191Y-66824500D01*
X123965186Y-66824500D01*
X123697280Y-66854686D01*
X123697268Y-66854688D01*
X123434405Y-66914684D01*
X123434397Y-66914687D01*
X123179917Y-67003734D01*
X122937003Y-67120715D01*
X122927623Y-67126609D01*
X122860385Y-67145605D01*
X122793551Y-67125235D01*
X122784345Y-67118561D01*
X122766285Y-67104159D01*
X122537994Y-66960714D01*
X122295082Y-66843734D01*
X122040602Y-66754687D01*
X122040594Y-66754684D01*
X121843446Y-66709687D01*
X121777732Y-66694688D01*
X121777728Y-66694687D01*
X121777719Y-66694686D01*
X121509813Y-66664500D01*
X121509809Y-66664500D01*
X121240191Y-66664500D01*
X121240186Y-66664500D01*
X120972280Y-66694686D01*
X120972268Y-66694688D01*
X120709405Y-66754684D01*
X120709397Y-66754687D01*
X120454917Y-66843734D01*
X120212005Y-66960714D01*
X119983712Y-67104161D01*
X119772915Y-67272265D01*
X119582265Y-67462915D01*
X119414161Y-67673712D01*
X119270714Y-67902005D01*
X119153734Y-68144917D01*
X119064687Y-68399397D01*
X119064684Y-68399405D01*
X119004688Y-68662268D01*
X119004686Y-68662280D01*
X118974500Y-68930186D01*
X115720224Y-68930186D01*
X115812365Y-68863242D01*
X115968242Y-68707365D01*
X116097815Y-68529022D01*
X116197895Y-68332606D01*
X116266015Y-68122951D01*
X116300500Y-67905222D01*
X116300500Y-67684778D01*
X116266015Y-67467049D01*
X116211576Y-67299500D01*
X116197896Y-67257396D01*
X116197895Y-67257393D01*
X116131256Y-67126609D01*
X116097815Y-67060978D01*
X116056224Y-67003733D01*
X115968247Y-66882641D01*
X115968243Y-66882636D01*
X115812363Y-66726756D01*
X115812358Y-66726752D01*
X115634025Y-66597187D01*
X115634024Y-66597186D01*
X115634022Y-66597185D01*
X115571096Y-66565122D01*
X115437606Y-66497104D01*
X115437603Y-66497103D01*
X115227952Y-66428985D01*
X115119086Y-66411742D01*
X115010222Y-66394500D01*
X114789778Y-66394500D01*
X114746232Y-66401397D01*
X114572045Y-66428985D01*
X114388315Y-66488682D01*
X114318474Y-66490677D01*
X114258642Y-66454596D01*
X114227814Y-66391895D01*
X114232067Y-66332433D01*
X114238510Y-66312603D01*
X114266015Y-66227951D01*
X114300500Y-66010222D01*
X114300500Y-65789778D01*
X114266015Y-65572049D01*
X114197895Y-65362394D01*
X114197893Y-65362389D01*
X114182050Y-65331296D01*
X114169153Y-65262627D01*
X114182050Y-65218704D01*
X114197893Y-65187610D01*
X114197896Y-65187603D01*
X114238509Y-65062606D01*
X114266015Y-64977951D01*
X114300500Y-64760222D01*
X114300500Y-64539778D01*
X114266015Y-64322049D01*
X114226555Y-64200602D01*
X114197896Y-64112396D01*
X114197895Y-64112393D01*
X114163237Y-64044375D01*
X114097815Y-63915978D01*
X114045305Y-63843704D01*
X113968247Y-63737641D01*
X113968243Y-63737636D01*
X113812363Y-63581756D01*
X113812358Y-63581752D01*
X113634025Y-63452187D01*
X113634024Y-63452186D01*
X113634022Y-63452185D01*
X113549762Y-63409252D01*
X113437606Y-63352104D01*
X113437603Y-63352103D01*
X113227952Y-63283985D01*
X113119086Y-63266742D01*
X113010222Y-63249500D01*
X112789778Y-63249500D01*
X112717201Y-63260995D01*
X112572047Y-63283985D01*
X112362396Y-63352103D01*
X112362393Y-63352104D01*
X112165974Y-63452187D01*
X111987641Y-63581752D01*
X111987636Y-63581756D01*
X111831756Y-63737636D01*
X111831752Y-63737641D01*
X111702187Y-63915974D01*
X111602104Y-64112393D01*
X111602103Y-64112396D01*
X111533985Y-64322047D01*
X111499500Y-64539778D01*
X109250500Y-64539778D01*
X109250500Y-64414778D01*
X109216015Y-64197049D01*
X109147895Y-63987394D01*
X109147893Y-63987389D01*
X109132050Y-63956296D01*
X109119153Y-63887627D01*
X109132050Y-63843704D01*
X109147893Y-63812610D01*
X109147896Y-63812603D01*
X109172254Y-63737635D01*
X109216015Y-63602951D01*
X109250500Y-63385222D01*
X109250500Y-63164778D01*
X109216015Y-62947049D01*
X109147895Y-62737394D01*
X109147893Y-62737389D01*
X109132050Y-62706296D01*
X109119153Y-62637627D01*
X109132050Y-62593704D01*
X109147893Y-62562610D01*
X109147896Y-62562603D01*
X109150352Y-62555042D01*
X109216015Y-62352951D01*
X109250500Y-62135222D01*
X109250500Y-61914778D01*
X109216015Y-61697049D01*
X109157523Y-61517029D01*
X109155529Y-61447190D01*
X109162019Y-61428630D01*
X109193143Y-61358143D01*
X109244081Y-61141567D01*
X109250500Y-61049092D01*
X109250500Y-60884778D01*
X113499500Y-60884778D01*
X113499500Y-61105221D01*
X113533985Y-61322952D01*
X113602103Y-61532603D01*
X113602104Y-61532606D01*
X113702187Y-61729025D01*
X113831752Y-61907358D01*
X113831756Y-61907363D01*
X113987636Y-62063243D01*
X113987641Y-62063247D01*
X114143192Y-62176260D01*
X114165978Y-62192815D01*
X114273047Y-62247370D01*
X114362393Y-62292895D01*
X114362396Y-62292896D01*
X114467221Y-62326955D01*
X114572049Y-62361015D01*
X114789778Y-62395500D01*
X114789779Y-62395500D01*
X115010221Y-62395500D01*
X115010222Y-62395500D01*
X115227951Y-62361015D01*
X115437606Y-62292895D01*
X115634022Y-62192815D01*
X115720224Y-62130186D01*
X118974500Y-62130186D01*
X118974500Y-62399813D01*
X119004686Y-62667719D01*
X119004688Y-62667735D01*
X119051403Y-62872408D01*
X119051403Y-62927592D01*
X119004688Y-63132264D01*
X119004686Y-63132280D01*
X118974500Y-63400186D01*
X118974500Y-63669813D01*
X119004686Y-63937719D01*
X119004688Y-63937731D01*
X119064684Y-64200594D01*
X119064687Y-64200602D01*
X119153734Y-64455082D01*
X119270714Y-64697994D01*
X119270716Y-64697997D01*
X119414162Y-64926289D01*
X119515989Y-65053976D01*
X119563835Y-65113974D01*
X119582266Y-65137085D01*
X119772915Y-65327734D01*
X119983711Y-65495838D01*
X120212003Y-65639284D01*
X120454921Y-65756267D01*
X120646049Y-65823145D01*
X120709397Y-65845312D01*
X120709405Y-65845315D01*
X120709408Y-65845315D01*
X120709409Y-65845316D01*
X120972268Y-65905312D01*
X121240187Y-65935499D01*
X121240188Y-65935500D01*
X121240191Y-65935500D01*
X121509812Y-65935500D01*
X121509812Y-65935499D01*
X121777732Y-65905312D01*
X122040591Y-65845316D01*
X122295079Y-65756267D01*
X122537997Y-65639284D01*
X122766289Y-65495838D01*
X122977085Y-65327734D01*
X123167734Y-65137085D01*
X123335838Y-64926289D01*
X123479284Y-64697997D01*
X123596267Y-64455079D01*
X123685316Y-64200591D01*
X123745312Y-63937732D01*
X123775500Y-63669809D01*
X123775500Y-63400191D01*
X123745312Y-63132268D01*
X123698595Y-62927588D01*
X123698595Y-62872411D01*
X123745312Y-62667732D01*
X123775500Y-62399809D01*
X123775500Y-62130191D01*
X123745312Y-61862268D01*
X123685316Y-61599409D01*
X123682090Y-61590191D01*
X123682088Y-61590186D01*
X129336518Y-61590186D01*
X129336518Y-61859813D01*
X129366704Y-62127726D01*
X129366705Y-62127729D01*
X129388059Y-62221291D01*
X129388060Y-62276472D01*
X129373347Y-62340939D01*
X129343161Y-62608847D01*
X129343161Y-62878474D01*
X129373347Y-63146380D01*
X129373349Y-63146392D01*
X129433345Y-63409255D01*
X129433348Y-63409263D01*
X129522395Y-63663743D01*
X129639375Y-63906655D01*
X129658902Y-63937732D01*
X129782823Y-64134950D01*
X129950927Y-64345746D01*
X130141576Y-64536395D01*
X130352372Y-64704499D01*
X130580664Y-64847945D01*
X130823582Y-64964928D01*
X131014710Y-65031806D01*
X131078058Y-65053973D01*
X131078066Y-65053976D01*
X131078069Y-65053976D01*
X131078070Y-65053977D01*
X131340929Y-65113973D01*
X131608848Y-65144160D01*
X131608849Y-65144161D01*
X131608852Y-65144161D01*
X131878473Y-65144161D01*
X131878473Y-65144160D01*
X132146393Y-65113973D01*
X132409252Y-65053977D01*
X132663740Y-64964928D01*
X132906658Y-64847945D01*
X133134950Y-64704499D01*
X133345746Y-64536395D01*
X133536395Y-64345746D01*
X133704499Y-64134950D01*
X133847945Y-63906658D01*
X133964928Y-63663740D01*
X134053977Y-63409252D01*
X134113973Y-63146393D01*
X134144161Y-62878470D01*
X134144161Y-62608852D01*
X134113973Y-62340929D01*
X134092618Y-62247366D01*
X134092618Y-62192189D01*
X134107330Y-62127732D01*
X134137518Y-61859809D01*
X134137518Y-61590191D01*
X134107330Y-61322268D01*
X134047334Y-61059409D01*
X133958285Y-60804921D01*
X133841302Y-60562003D01*
X133697856Y-60333711D01*
X133529752Y-60122915D01*
X133339103Y-59932266D01*
X133128307Y-59764162D01*
X132942581Y-59647462D01*
X132900012Y-59620714D01*
X132657100Y-59503734D01*
X132402620Y-59414687D01*
X132402612Y-59414684D01*
X132205464Y-59369687D01*
X132139750Y-59354688D01*
X132139746Y-59354687D01*
X132139737Y-59354686D01*
X131871831Y-59324500D01*
X131871827Y-59324500D01*
X131602209Y-59324500D01*
X131602204Y-59324500D01*
X131334298Y-59354686D01*
X131334286Y-59354688D01*
X131071423Y-59414684D01*
X131071415Y-59414687D01*
X130816935Y-59503734D01*
X130574023Y-59620714D01*
X130345730Y-59764161D01*
X130134933Y-59932265D01*
X129944283Y-60122915D01*
X129776179Y-60333712D01*
X129632732Y-60562005D01*
X129515752Y-60804917D01*
X129426705Y-61059397D01*
X129426702Y-61059405D01*
X129366706Y-61322268D01*
X129366704Y-61322280D01*
X129336518Y-61590186D01*
X123682088Y-61590186D01*
X123625557Y-61428628D01*
X123596267Y-61344921D01*
X123479284Y-61102003D01*
X123335838Y-60873711D01*
X123167734Y-60662915D01*
X122977085Y-60472266D01*
X122766289Y-60304162D01*
X122537997Y-60160716D01*
X122537994Y-60160714D01*
X122295082Y-60043734D01*
X122040602Y-59954687D01*
X122040594Y-59954684D01*
X121843446Y-59909687D01*
X121777732Y-59894688D01*
X121777728Y-59894687D01*
X121777719Y-59894686D01*
X121509813Y-59864500D01*
X121509809Y-59864500D01*
X121240191Y-59864500D01*
X121240186Y-59864500D01*
X120972280Y-59894686D01*
X120972268Y-59894688D01*
X120709405Y-59954684D01*
X120709397Y-59954687D01*
X120454917Y-60043734D01*
X120212005Y-60160714D01*
X119983712Y-60304161D01*
X119772915Y-60472265D01*
X119582265Y-60662915D01*
X119414161Y-60873712D01*
X119270714Y-61102005D01*
X119153734Y-61344917D01*
X119064687Y-61599397D01*
X119064684Y-61599405D01*
X119004688Y-61862268D01*
X119004686Y-61862280D01*
X118974500Y-62130186D01*
X115720224Y-62130186D01*
X115812365Y-62063242D01*
X115968242Y-61907365D01*
X116097815Y-61729022D01*
X116197895Y-61532606D01*
X116266015Y-61322951D01*
X116300500Y-61105222D01*
X116300500Y-60884778D01*
X116266015Y-60667049D01*
X116231884Y-60562003D01*
X116197896Y-60457396D01*
X116197895Y-60457393D01*
X116134875Y-60333712D01*
X116097815Y-60260978D01*
X116047596Y-60191857D01*
X115968247Y-60082641D01*
X115968243Y-60082636D01*
X115812363Y-59926756D01*
X115812358Y-59926752D01*
X115634025Y-59797187D01*
X115634024Y-59797186D01*
X115634022Y-59797185D01*
X115569209Y-59764161D01*
X115437606Y-59697104D01*
X115437603Y-59697103D01*
X115227952Y-59628985D01*
X115119086Y-59611742D01*
X115010222Y-59594500D01*
X114789778Y-59594500D01*
X114717201Y-59605995D01*
X114572047Y-59628985D01*
X114362396Y-59697103D01*
X114362393Y-59697104D01*
X114165974Y-59797187D01*
X113987641Y-59926752D01*
X113987636Y-59926756D01*
X113831756Y-60082636D01*
X113831752Y-60082641D01*
X113702187Y-60260974D01*
X113602104Y-60457393D01*
X113602103Y-60457396D01*
X113533985Y-60667047D01*
X113499500Y-60884778D01*
X109250500Y-60884778D01*
X109250500Y-60500908D01*
X109244081Y-60408433D01*
X109244079Y-60408427D01*
X109244079Y-60408422D01*
X109193145Y-60191864D01*
X109193144Y-60191861D01*
X109193143Y-60191857D01*
X109103277Y-59988329D01*
X108977542Y-59804779D01*
X108977537Y-59804773D01*
X108820226Y-59647462D01*
X108820220Y-59647457D01*
X108636668Y-59521721D01*
X108433151Y-59431860D01*
X108433135Y-59431854D01*
X108216577Y-59380920D01*
X108216561Y-59380918D01*
X108124096Y-59374500D01*
X108124092Y-59374500D01*
X107075908Y-59374500D01*
X107075904Y-59374500D01*
X106983438Y-59380918D01*
X106983422Y-59380920D01*
X106766864Y-59431854D01*
X106766848Y-59431860D01*
X106563331Y-59521721D01*
X106379779Y-59647457D01*
X106379773Y-59647462D01*
X106222462Y-59804773D01*
X106222457Y-59804779D01*
X106096721Y-59988331D01*
X106006860Y-60191848D01*
X106006854Y-60191864D01*
X105955920Y-60408422D01*
X105955918Y-60408438D01*
X105949500Y-60500904D01*
X105025500Y-60500904D01*
X105025500Y-47325904D01*
X105949500Y-47325904D01*
X105949500Y-47874095D01*
X105955918Y-47966561D01*
X105955920Y-47966577D01*
X106006854Y-48183133D01*
X106006857Y-48183143D01*
X106037979Y-48253628D01*
X106047050Y-48322906D01*
X106042475Y-48342030D01*
X105983985Y-48522045D01*
X105954084Y-48710838D01*
X105949500Y-48739778D01*
X105949500Y-48960222D01*
X105961668Y-49037047D01*
X105983985Y-49177952D01*
X106052104Y-49387605D01*
X106052104Y-49387606D01*
X106067951Y-49418708D01*
X106080846Y-49487377D01*
X106067951Y-49531292D01*
X106052104Y-49562393D01*
X106052104Y-49562394D01*
X105983985Y-49772047D01*
X105963307Y-49902603D01*
X105949500Y-49989778D01*
X105949500Y-50210222D01*
X105960707Y-50280982D01*
X105983985Y-50427952D01*
X106052104Y-50637605D01*
X106052104Y-50637606D01*
X106067951Y-50668708D01*
X106080846Y-50737377D01*
X106067951Y-50781292D01*
X106052104Y-50812393D01*
X106052104Y-50812394D01*
X105983985Y-51022047D01*
X105949500Y-51239778D01*
X105949500Y-51460221D01*
X105983985Y-51677952D01*
X106052104Y-51887605D01*
X106052104Y-51887606D01*
X106067951Y-51918708D01*
X106080846Y-51987377D01*
X106067951Y-52031292D01*
X106052104Y-52062393D01*
X106052104Y-52062394D01*
X105983985Y-52272047D01*
X105949500Y-52489778D01*
X105949500Y-52710221D01*
X105983985Y-52927952D01*
X106052104Y-53137605D01*
X106052104Y-53137606D01*
X106067951Y-53168708D01*
X106080846Y-53237377D01*
X106067951Y-53281292D01*
X106052104Y-53312393D01*
X106052104Y-53312394D01*
X105983985Y-53522047D01*
X105983985Y-53522049D01*
X105949500Y-53739778D01*
X105949500Y-53960222D01*
X105966235Y-54065880D01*
X105983985Y-54177952D01*
X106052104Y-54387605D01*
X106052104Y-54387606D01*
X106067951Y-54418708D01*
X106080846Y-54487377D01*
X106067951Y-54531292D01*
X106052104Y-54562393D01*
X106052104Y-54562394D01*
X105983985Y-54772047D01*
X105964375Y-54895859D01*
X105949500Y-54989778D01*
X105949500Y-55210222D01*
X105954587Y-55242339D01*
X105983985Y-55427952D01*
X106052103Y-55637603D01*
X106052104Y-55637606D01*
X106120122Y-55771096D01*
X106141565Y-55813180D01*
X106152187Y-55834025D01*
X106281752Y-56012358D01*
X106281756Y-56012363D01*
X106437636Y-56168243D01*
X106437641Y-56168247D01*
X106615978Y-56297815D01*
X106615979Y-56297816D01*
X106748845Y-56365516D01*
X106799641Y-56413490D01*
X106816436Y-56481311D01*
X106793898Y-56547446D01*
X106739183Y-56590897D01*
X106692550Y-56600000D01*
X106482096Y-56600000D01*
X106484584Y-56612516D01*
X106484587Y-56612523D01*
X106552428Y-56776306D01*
X106552433Y-56776316D01*
X106650923Y-56923716D01*
X106650926Y-56923720D01*
X106776279Y-57049073D01*
X106776283Y-57049076D01*
X106923683Y-57147566D01*
X106923692Y-57147571D01*
X107087479Y-57215413D01*
X107087487Y-57215415D01*
X107261353Y-57249999D01*
X107261357Y-57250000D01*
X107350000Y-57250000D01*
X107350000Y-56624500D01*
X107369685Y-56557461D01*
X107414807Y-56518361D01*
X107458386Y-56561940D01*
X107550272Y-56600000D01*
X107649728Y-56600000D01*
X107741614Y-56561940D01*
X107785563Y-56517990D01*
X107793039Y-56520185D01*
X107838794Y-56572989D01*
X107850000Y-56624500D01*
X107850000Y-57250000D01*
X107938643Y-57250000D01*
X107938646Y-57249999D01*
X108112512Y-57215415D01*
X108112520Y-57215413D01*
X108276307Y-57147571D01*
X108276316Y-57147566D01*
X108423716Y-57049076D01*
X108423720Y-57049073D01*
X108549073Y-56923720D01*
X108549076Y-56923716D01*
X108647566Y-56776316D01*
X108647571Y-56776306D01*
X108715412Y-56612523D01*
X108715415Y-56612516D01*
X108717904Y-56600000D01*
X108507450Y-56600000D01*
X108440411Y-56580315D01*
X108394656Y-56527511D01*
X108384712Y-56458353D01*
X108413737Y-56394797D01*
X108451155Y-56365516D01*
X108584020Y-56297816D01*
X108584019Y-56297816D01*
X108584022Y-56297815D01*
X108762365Y-56168242D01*
X108918242Y-56012365D01*
X109047815Y-55834022D01*
X109147895Y-55637606D01*
X109216015Y-55427951D01*
X109250500Y-55210222D01*
X109250500Y-54989778D01*
X109216015Y-54772049D01*
X109148656Y-54564736D01*
X109147896Y-54562396D01*
X109147893Y-54562389D01*
X109132050Y-54531296D01*
X109119153Y-54462627D01*
X109132050Y-54418704D01*
X109147893Y-54387610D01*
X109147896Y-54387603D01*
X109167811Y-54326309D01*
X109216015Y-54177951D01*
X109250500Y-53960222D01*
X109250500Y-53739778D01*
X109216015Y-53522049D01*
X109147895Y-53312394D01*
X109147893Y-53312389D01*
X109132050Y-53281296D01*
X109119153Y-53212627D01*
X109132050Y-53168704D01*
X109147893Y-53137610D01*
X109147896Y-53137603D01*
X109170432Y-53068242D01*
X109216015Y-52927951D01*
X109250500Y-52710222D01*
X109250500Y-52489778D01*
X109216015Y-52272049D01*
X109147895Y-52062394D01*
X109147893Y-52062389D01*
X109132050Y-52031296D01*
X109119153Y-51962627D01*
X109132050Y-51918704D01*
X109147893Y-51887610D01*
X109147896Y-51887603D01*
X109150352Y-51880042D01*
X109216015Y-51677951D01*
X109250500Y-51460222D01*
X109250500Y-51239778D01*
X109216015Y-51022049D01*
X109216014Y-51022045D01*
X109185364Y-50927711D01*
X109185357Y-50927693D01*
X109173715Y-50891862D01*
X135689929Y-50891862D01*
X135689929Y-51112305D01*
X135724414Y-51330036D01*
X135792533Y-51539689D01*
X135792534Y-51539691D01*
X135793310Y-51541214D01*
X135793430Y-51541854D01*
X135794397Y-51544188D01*
X135793906Y-51544391D01*
X135806203Y-51609884D01*
X135800756Y-51635817D01*
X135788984Y-51672049D01*
X135754500Y-51889778D01*
X135754500Y-52110221D01*
X135788985Y-52327952D01*
X135857103Y-52537603D01*
X135857104Y-52537606D01*
X135957187Y-52734025D01*
X136086752Y-52912358D01*
X136086756Y-52912363D01*
X136242636Y-53068243D01*
X136242641Y-53068247D01*
X136338107Y-53137606D01*
X136420978Y-53197815D01*
X136549375Y-53263237D01*
X136617393Y-53297895D01*
X136617396Y-53297896D01*
X136662024Y-53312396D01*
X136827049Y-53366015D01*
X137044778Y-53400500D01*
X137044779Y-53400500D01*
X137265221Y-53400500D01*
X137265222Y-53400500D01*
X137482951Y-53366015D01*
X137692606Y-53297895D01*
X137889022Y-53197815D01*
X138067365Y-53068242D01*
X138223242Y-52912365D01*
X138352815Y-52734022D01*
X138452895Y-52537606D01*
X138521015Y-52327951D01*
X138555500Y-52110222D01*
X138555500Y-51889778D01*
X138521015Y-51672049D01*
X138469853Y-51514587D01*
X138452896Y-51462396D01*
X138452891Y-51462385D01*
X138452118Y-51460867D01*
X138451998Y-51460228D01*
X138451030Y-51457891D01*
X138451521Y-51457687D01*
X138439225Y-51392197D01*
X138444673Y-51366262D01*
X138456444Y-51330035D01*
X138490929Y-51112306D01*
X138490929Y-50891862D01*
X138456444Y-50674133D01*
X138408224Y-50525726D01*
X138407533Y-50501557D01*
X138402520Y-50477906D01*
X138406457Y-50463894D01*
X138406229Y-50455885D01*
X138410205Y-50443459D01*
X138412600Y-50437138D01*
X138423332Y-50416078D01*
X138424882Y-50411308D01*
X151561030Y-50411308D01*
X151561030Y-50631752D01*
X151575799Y-50725000D01*
X151595515Y-50849482D01*
X151663633Y-51059133D01*
X151663634Y-51059136D01*
X151763717Y-51255555D01*
X151893282Y-51433888D01*
X151893286Y-51433893D01*
X151893288Y-51433895D01*
X152049165Y-51589772D01*
X152049168Y-51589774D01*
X152075443Y-51608864D01*
X152118109Y-51664194D01*
X152125031Y-51728580D01*
X152099500Y-51889778D01*
X152099500Y-52110221D01*
X152133985Y-52327952D01*
X152202103Y-52537603D01*
X152202104Y-52537606D01*
X152302187Y-52734025D01*
X152431752Y-52912358D01*
X152431756Y-52912363D01*
X152587636Y-53068243D01*
X152587641Y-53068247D01*
X152683107Y-53137606D01*
X152765978Y-53197815D01*
X152894375Y-53263237D01*
X152962393Y-53297895D01*
X152962396Y-53297896D01*
X153007024Y-53312396D01*
X153172049Y-53366015D01*
X153389778Y-53400500D01*
X153389779Y-53400500D01*
X153610221Y-53400500D01*
X153610222Y-53400500D01*
X153827951Y-53366015D01*
X154037606Y-53297895D01*
X154234022Y-53197815D01*
X154412365Y-53068242D01*
X154568242Y-52912365D01*
X154697815Y-52734022D01*
X154797895Y-52537606D01*
X154866015Y-52327951D01*
X154900500Y-52110222D01*
X154900500Y-51889778D01*
X154866015Y-51672049D01*
X154814853Y-51514587D01*
X154797896Y-51462396D01*
X154797895Y-51462393D01*
X154748911Y-51366258D01*
X154697815Y-51265978D01*
X154678780Y-51239778D01*
X154568247Y-51087641D01*
X154568243Y-51087636D01*
X154412367Y-50931760D01*
X154412365Y-50931758D01*
X154386083Y-50912663D01*
X154343420Y-50857335D01*
X154336498Y-50792952D01*
X154362030Y-50631752D01*
X154362030Y-50434939D01*
X154369400Y-50409839D01*
X154373008Y-50383929D01*
X154379964Y-50373862D01*
X154381715Y-50367900D01*
X154391957Y-50354153D01*
X154395019Y-50350587D01*
X154464625Y-50280982D01*
X168151929Y-50280982D01*
X168151929Y-50501425D01*
X168186414Y-50719156D01*
X168254532Y-50928807D01*
X168254533Y-50928810D01*
X168302040Y-51022045D01*
X168348030Y-51112305D01*
X168354616Y-51125229D01*
X168484181Y-51303562D01*
X168484185Y-51303567D01*
X168633882Y-51453264D01*
X168667367Y-51514587D01*
X168664132Y-51579262D01*
X168633985Y-51672045D01*
X168599500Y-51889778D01*
X168599500Y-52110221D01*
X168633985Y-52327952D01*
X168702103Y-52537603D01*
X168702104Y-52537606D01*
X168802187Y-52734025D01*
X168931752Y-52912358D01*
X168931756Y-52912363D01*
X169087636Y-53068243D01*
X169087641Y-53068247D01*
X169183107Y-53137606D01*
X169265978Y-53197815D01*
X169394375Y-53263237D01*
X169462393Y-53297895D01*
X169462396Y-53297896D01*
X169507024Y-53312396D01*
X169672049Y-53366015D01*
X169889778Y-53400500D01*
X169889779Y-53400500D01*
X170110221Y-53400500D01*
X170110222Y-53400500D01*
X170327951Y-53366015D01*
X170537606Y-53297895D01*
X170734022Y-53197815D01*
X170912365Y-53068242D01*
X171068242Y-52912365D01*
X171197815Y-52734022D01*
X171297895Y-52537606D01*
X171366015Y-52327951D01*
X171400500Y-52110222D01*
X171400500Y-51889778D01*
X171366015Y-51672049D01*
X171314853Y-51514587D01*
X171297896Y-51462396D01*
X171297895Y-51462393D01*
X171248911Y-51366258D01*
X171197815Y-51265978D01*
X171178780Y-51239778D01*
X171068247Y-51087641D01*
X171068243Y-51087636D01*
X170918546Y-50937939D01*
X170885061Y-50876616D01*
X170888295Y-50811941D01*
X170918444Y-50719155D01*
X170952929Y-50501426D01*
X170952929Y-50444040D01*
X170972614Y-50377001D01*
X170989248Y-50356359D01*
X170991454Y-50354153D01*
X171068242Y-50277365D01*
X171197815Y-50099022D01*
X171297895Y-49902606D01*
X171366015Y-49692951D01*
X171400500Y-49475222D01*
X171400500Y-49254778D01*
X171366015Y-49037049D01*
X171311840Y-48870312D01*
X171297896Y-48827396D01*
X171297895Y-48827393D01*
X171238506Y-48710838D01*
X171197815Y-48630978D01*
X171161195Y-48580575D01*
X171068247Y-48452641D01*
X171068243Y-48452636D01*
X170912363Y-48296756D01*
X170912358Y-48296752D01*
X170734025Y-48167187D01*
X170734024Y-48167186D01*
X170734022Y-48167185D01*
X170671096Y-48135122D01*
X170537606Y-48067104D01*
X170537603Y-48067103D01*
X170327952Y-47998985D01*
X170219086Y-47981742D01*
X170110222Y-47964500D01*
X169889778Y-47964500D01*
X169817201Y-47975995D01*
X169672047Y-47998985D01*
X169462396Y-48067103D01*
X169462393Y-48067104D01*
X169265974Y-48167187D01*
X169087641Y-48296752D01*
X169087636Y-48296756D01*
X168931756Y-48452636D01*
X168931752Y-48452641D01*
X168802187Y-48630974D01*
X168702104Y-48827393D01*
X168702103Y-48827396D01*
X168633985Y-49037047D01*
X168599500Y-49254778D01*
X168599500Y-49312164D01*
X168579815Y-49379203D01*
X168563181Y-49399845D01*
X168484185Y-49478840D01*
X168484181Y-49478845D01*
X168354616Y-49657178D01*
X168254533Y-49853597D01*
X168254532Y-49853600D01*
X168186414Y-50063251D01*
X168151929Y-50280982D01*
X154464625Y-50280982D01*
X154468242Y-50277365D01*
X154597815Y-50099022D01*
X154697895Y-49902606D01*
X154766015Y-49692951D01*
X154800500Y-49475222D01*
X154800500Y-49254778D01*
X154766015Y-49037049D01*
X154711840Y-48870312D01*
X154697896Y-48827396D01*
X154697895Y-48827393D01*
X154638506Y-48710838D01*
X154597815Y-48630978D01*
X154561195Y-48580575D01*
X154468247Y-48452641D01*
X154468243Y-48452636D01*
X154312363Y-48296756D01*
X154312358Y-48296752D01*
X154134025Y-48167187D01*
X154134024Y-48167186D01*
X154134022Y-48167185D01*
X154071096Y-48135122D01*
X153937606Y-48067104D01*
X153937603Y-48067103D01*
X153727952Y-47998985D01*
X153619086Y-47981742D01*
X153510222Y-47964500D01*
X153289778Y-47964500D01*
X153217201Y-47975995D01*
X153072047Y-47998985D01*
X152862396Y-48067103D01*
X152862393Y-48067104D01*
X152665974Y-48167187D01*
X152487641Y-48296752D01*
X152487636Y-48296756D01*
X152331756Y-48452636D01*
X152331752Y-48452641D01*
X152202187Y-48630974D01*
X152102104Y-48827393D01*
X152102103Y-48827396D01*
X152033985Y-49037047D01*
X151999500Y-49254778D01*
X151999500Y-49451589D01*
X151979815Y-49518628D01*
X151963182Y-49539270D01*
X151893284Y-49609168D01*
X151763717Y-49787504D01*
X151663634Y-49983923D01*
X151663633Y-49983926D01*
X151595515Y-50193577D01*
X151567905Y-50367900D01*
X151561030Y-50411308D01*
X138424882Y-50411308D01*
X138491452Y-50206423D01*
X138525937Y-49988694D01*
X138525937Y-49768250D01*
X138491452Y-49550521D01*
X138423332Y-49340866D01*
X138423332Y-49340865D01*
X138388674Y-49272847D01*
X138323252Y-49144450D01*
X138289585Y-49098111D01*
X138193684Y-48966113D01*
X138193680Y-48966108D01*
X138037800Y-48810228D01*
X138037795Y-48810224D01*
X137859462Y-48680659D01*
X137859461Y-48680658D01*
X137859459Y-48680657D01*
X137796533Y-48648594D01*
X137663043Y-48580576D01*
X137663040Y-48580575D01*
X137453389Y-48512457D01*
X137344523Y-48495214D01*
X137235659Y-48477972D01*
X137015215Y-48477972D01*
X136942638Y-48489467D01*
X136797484Y-48512457D01*
X136587833Y-48580575D01*
X136587830Y-48580576D01*
X136391411Y-48680659D01*
X136213078Y-48810224D01*
X136213073Y-48810228D01*
X136057193Y-48966108D01*
X136057189Y-48966113D01*
X135927624Y-49144446D01*
X135827541Y-49340865D01*
X135827540Y-49340868D01*
X135759422Y-49550519D01*
X135724937Y-49768250D01*
X135724937Y-49988693D01*
X135759422Y-50206424D01*
X135807641Y-50354828D01*
X135809636Y-50424669D01*
X135800196Y-50449438D01*
X135792536Y-50464470D01*
X135792532Y-50464480D01*
X135724414Y-50674131D01*
X135689929Y-50891862D01*
X109173715Y-50891862D01*
X109147895Y-50812394D01*
X109128761Y-50774843D01*
X109126249Y-50768057D01*
X109124318Y-50740131D01*
X109119153Y-50712627D01*
X109121795Y-50703627D01*
X109121431Y-50698353D01*
X109125542Y-50690865D01*
X109132050Y-50668704D01*
X109147893Y-50637610D01*
X109147896Y-50637603D01*
X109192099Y-50501557D01*
X109216015Y-50427951D01*
X109250500Y-50210222D01*
X109250500Y-49989778D01*
X109216015Y-49772049D01*
X109147895Y-49562394D01*
X109147893Y-49562389D01*
X109132050Y-49531296D01*
X109119153Y-49462627D01*
X109132050Y-49418704D01*
X109147893Y-49387610D01*
X109147896Y-49387603D01*
X109163081Y-49340868D01*
X109216015Y-49177951D01*
X109250500Y-48960222D01*
X109250500Y-48739778D01*
X109216015Y-48522049D01*
X109157523Y-48342029D01*
X109155529Y-48272190D01*
X109162019Y-48253630D01*
X109193143Y-48183143D01*
X109202987Y-48141289D01*
X109244079Y-47966577D01*
X109244079Y-47966573D01*
X109244081Y-47966567D01*
X109249306Y-47891289D01*
X109250500Y-47874095D01*
X109250500Y-47325904D01*
X109244081Y-47233438D01*
X109244081Y-47233433D01*
X109244079Y-47233427D01*
X109244079Y-47233422D01*
X109193145Y-47016864D01*
X109193144Y-47016861D01*
X109193143Y-47016857D01*
X109103277Y-46813329D01*
X108977542Y-46629779D01*
X108977537Y-46629773D01*
X108820226Y-46472462D01*
X108820220Y-46472457D01*
X108636668Y-46346721D01*
X108433151Y-46256860D01*
X108433135Y-46256854D01*
X108216577Y-46205920D01*
X108216561Y-46205918D01*
X108124096Y-46199500D01*
X108124092Y-46199500D01*
X107075908Y-46199500D01*
X107075904Y-46199500D01*
X106983438Y-46205918D01*
X106983422Y-46205920D01*
X106766864Y-46256854D01*
X106766848Y-46256860D01*
X106563331Y-46346721D01*
X106379779Y-46472457D01*
X106379773Y-46472462D01*
X106222462Y-46629773D01*
X106222457Y-46629779D01*
X106096721Y-46813331D01*
X106006860Y-47016848D01*
X106006854Y-47016864D01*
X105955920Y-47233422D01*
X105955918Y-47233438D01*
X105949500Y-47325904D01*
X105025500Y-47325904D01*
X105025500Y-30149500D01*
X105045185Y-30082461D01*
X105097989Y-30036706D01*
X105149500Y-30025500D01*
X131265947Y-30025500D01*
X131332986Y-30045185D01*
G37*
G04 #@! TD.AperFunction*
M02*
